g cM_HairOP01
v -0.08012613 1.5854254 0.050918244
v -0.07852166 1.5841957 0.0505839
v -0.08446557 1.5818133 0.045107335
v -0.072524734 1.5865703 0.056543473
v -0.0753017 1.5895538 0.05701177
v -0.06571812 1.5911169 0.061641585
v -0.06968557 1.5942891 0.062172968
v -0.058443144 1.5971115 0.067707345
v -0.06285524 1.6008358 0.06778518
v -0.054487254 1.6094222 0.07341984
v -0.049888268 1.6060351 0.07304296
v -0.046563447 1.6185958 0.07731014
v -0.041060474 1.6159776 0.078422226
v -0.037353385 1.6295749 0.07892702
v -0.03116126 1.6276937 0.080265634
v -0.027713088 1.6417775 0.07747025
v -0.022111377 1.6397334 0.079708666
v -0.01973029 1.650596 0.07417568
v -0.014997317 1.6483076 0.07683299
v -0.013208357 1.6586794 0.07110017
v -0.008569612 1.6567124 0.073537655
v -0.0013946726 1.665641 0.06674785
v -0.005108914 1.6678042 0.06427926
v 0.0059500313 1.6745763 0.057671316
v 0.0026001548 1.6766139 0.056047592
v 0.011113552 1.6808441 0.049281877
v 0.008303948 1.6827276 0.04746494
v 0.014918972 1.6849401 0.043266755
v 0.012470545 1.6860766 0.041205805
v 0.018364148 1.6875967 0.03761888
v 0.01656023 1.688838 0.03608267
v 0.020803478 1.6893855 0.033277076
v 0.019261736 1.6903224 0.032261133
v 0.022096872 1.6910133 0.028664505
v 0.023397522 1.6903878 0.029136008
v 0.026379613 1.689983 0.022575617
v 0.025782885 1.6895512 0.021689834
v 0.029481906 1.6929901 0.018628921
v 0.027126329 1.6895916 0.020368785
v 0.026873436 1.6902276 0.020037003
v 0.02999649 1.6927047 0.019295044
v 0.03347252 1.6949072 0.016650924
v 0.032542266 1.695482 0.015799636
v 0.039247952 1.6965678 0.012589721
v 0.037886407 1.6972737 0.010951042
v 0.046819303 1.6966157 0.0066387746
v 0.044846494 1.6981798 0.004558792
v 0.054996125 1.697328 -0.004075756
v 0.05732048 1.6947296 -0.0012390518
v 0.0674728 1.6922457 -0.017348625
v 0.070048906 1.6883632 -0.012461888
v 0.082879305 1.6788734 -0.025736084
v 0.08036228 1.6819649 -0.031805303
v 0.088691555 1.6721308 -0.031991348
v 0.08634656 1.6747421 -0.038810007
v 0.09349731 1.664708 -0.037853204
v 0.091313586 1.6668688 -0.045374528
v 0.09724243 1.655035 -0.044765987
v 0.09452916 1.6576337 -0.05311267
v 0.10007322 1.6451418 -0.051146086
v 0.0976515 1.6478599 -0.059857253
v 0.10231186 1.6357199 -0.056824513
v 0.098781906 1.638368 -0.065828286
v 0.10330742 1.6257756 -0.061665248
v 0.09898918 1.6277978 -0.0709466
v 0.103557505 1.6167014 -0.06529029
v 0.09875701 1.6187004 -0.07430922
v 0.10335688 1.6080545 -0.06823967
v 0.0983452 1.6096592 -0.07704607
v 0.10191921 1.5967443 -0.071747474
v 0.09720282 1.5980188 -0.07913391
v 0.09847343 1.5860043 -0.07355562
v 0.09424145 1.5872012 -0.0794442
v 0.094411425 1.577598 -0.075253196
v 0.092144586 1.5787923 -0.07877718
v 0.089688875 1.5672592 -0.076358065
v -0.02092994 1.6117053 -0.1460714
v -0.027051687 1.5985255 -0.14353114
v -0.01598525 1.6090988 -0.14645416
v -0.017644744 1.6197582 -0.14571178
v -0.010666611 1.6162012 -0.14686853
v -0.01396903 1.6281323 -0.14519572
v -0.005260924 1.6236161 -0.14622867
v -0.010020218 1.6367832 -0.14325455
v -1.1751651E-05 1.6312196 -0.144563
v 0.005093694 1.6394609 -0.14194709
v -0.006078205 1.6454656 -0.14061001
v 0.009407706 1.6488944 -0.13819763
v -0.002411537 1.6536107 -0.1371025
v 0.0010851288 1.6617886 -0.13188334
v 0.013727844 1.6584746 -0.13265769
v 0.008415108 1.6790129 -0.11780393
v 0.02004448 1.6765838 -0.11755775
v 0.014198608 1.6955289 -0.09554176
v 0.02488861 1.6934707 -0.09499132
v 0.017773742 1.7068319 -0.06929672
v 0.027268065 1.7053356 -0.069701
v 0.02118615 1.7111018 -0.036537845
v 0.028681545 1.7096909 -0.036924057
v 0.02951233 1.707314 -0.015377497
v 0.023254635 1.7087688 -0.014451518
v 0.028530328 1.7045841 -0.0011622623
v 0.024008455 1.7052004 -7.989913E-05
v 0.028037237 1.700552 0.00860363
v 0.024768993 1.7010821 0.008900795
v 0.025512274 1.6965965 0.015010566
v 0.027628792 1.6963809 0.015057602
v 0.027097758 1.6932375 0.017674102
v 0.025645055 1.6934005 0.018116606
v 0.02595415 1.6898913 0.020760573
v 0.02672573 1.6896559 0.020691909
vt 0.939452 0.64188504
vt 0.942965 0.642963
vt 0.942965 0.627571
vt 0.942965 0.659631
vt 0.935819 0.658411
vt 0.942965 0.678216
vt 0.93408 0.67616796
vt 0.942965 0.70004296
vt 0.932522 0.697628
vt 0.932389 0.72403204
vt 0.942965 0.72632
vt 0.932053 0.74893
vt 0.942965 0.753406
vt 0.931256 0.775836
vt 0.942965 0.780957
vt 0.92958 0.804169
vt 0.942965 0.807835
vt 0.930971 0.826932
vt 0.942965 0.826862
vt 0.931482 0.84582996
vt 0.942965 0.845033
vt 0.942965 0.867388
vt 0.933635 0.870107
vt 0.942965 0.892392
vt 0.935688 0.894753
vt 0.942965 0.9125663
vt 0.936405 0.9146954
vt 0.942965 0.9269482
vt 0.937248 0.9287437
vt 0.942965 0.9396267
vt 0.938546 0.9411818
vt 0.942965 0.94909203
vt 0.939357 0.9498408
vt 0.940594 0.9578377
vt 0.942965 0.9576095
vt 0.942965 0.9723376
vt 0.94119 0.9724301
vt 0.915773 0.9666861
vt 0.913384 0.9752293
vt 0.915375 0.9746752
vt 0.914134 0.9670629
vt 0.913286 0.9581692
vt 0.915773 0.958028
vt 0.911713 0.9451401
vt 0.915773 0.9447909
vt 0.909943 0.92771447
vt 0.915773 0.9279413
vt 0.915773 0.9043086
vt 0.907628 0.903911
vt 0.915773 0.870899
vt 0.903819 0.871256
vt 0.902949 0.833874
vt 0.915773 0.832197
vt 0.902334 0.813896
vt 0.915773 0.81158
vt 0.901796 0.795385
vt 0.915773 0.791596
vt 0.900357 0.773615
vt 0.915773 0.76977897
vt 0.899307 0.75204
vt 0.915773 0.74827504
vt 0.898286 0.731778
vt 0.915773 0.728559
vt 0.897456 0.711434
vt 0.915773 0.708038
vt 0.897154 0.693237
vt 0.915773 0.691102
vt 0.897562 0.676189
vt 0.915773 0.674613
vt 0.899904 0.65462697
vt 0.915773 0.653913
vt 0.902697 0.63404596
vt 0.915773 0.634379
vt 0.908265 0.617271
vt 0.915773 0.619257
vt 0.915773 0.598336
vt 0.97797 0.567738
vt 0.97797 0.54136896
vt 0.967936 0.567187
vt 0.97797 0.58329403
vt 0.963999 0.582379
vt 0.97797 0.59966004
vt 0.960526 0.598418
vt 0.97797 0.61699903
vt 0.957689 0.614825
vt 0.955584 0.632358
vt 0.97797 0.634678
vt 0.955448 0.65157497
vt 0.97797 0.65182304
vt 0.97797 0.670249
vt 0.954996 0.672089
vt 0.97797 0.712108
vt 0.956864 0.71479404
vt 0.97797 0.763449
vt 0.958679 0.765562
vt 0.97797 0.814207
vt 0.960791 0.81482303
vt 0.97797 0.87437
vt 0.964197 0.874825
vt 0.966268 0.9139072
vt 0.97797 0.914252
vt 0.969644 0.9397475
vt 0.97797 0.9407663
vt 0.971992 0.9589159
vt 0.97797 0.9584801
vt 0.97797 0.9720788
vt 0.974152 0.9727007
vt 0.975243 0.9799644
vt 0.97797 0.9800491
vt 0.97797 0.9879295
vt 0.975201 0.9882306
vn -0.64355 0.0325444 0.764712
vn -0.636761 0.031873 0.7704021
vn -0.67356396 0.0317431 0.738447
vn -0.5821038 0.033753186 0.8124136
vn -0.59571993 0.034408897 0.8024549
vn -0.5153134 0.034911722 0.8562905
vn -0.5362929 0.035576694 0.8432818
vn -0.4551571 0.036948007 0.8896442
vn -0.4835101 0.037756212 0.8745242
vn -0.39964104 0.03938681 0.91582507
vn -0.37362304 0.038668804 0.9267742
vn -0.35494304 0.097621515 0.9297771
vn -0.31985408 0.09156192 0.9430322
vn -0.28189313 0.1963601 0.9391374
vn -0.24291189 0.19510293 0.95022565
vn -0.22543702 0.32354504 0.91896504
vn -0.1902159 0.3170098 0.9291516
vn -0.17578001 0.41393408 0.8931742
vn -0.14504607 0.39676416 0.90638834
vn -0.12285593 0.48596075 0.86530256
vn -0.09040549 0.4716099 0.8771608
vn -0.0258914 0.5609909 0.82741696
vn -0.047766585 0.5783139 0.81441474
vn 0.057201594 0.633124 0.7719339
vn 0.0381923 0.647925 0.760746
vn 0.10331893 0.69864154 0.7079725
vn 0.08077411 0.71723104 0.6921381
vn 0.109622 0.759071 0.641712
vn 0.09245655 0.7733675 0.6271796
vn 0.15740696 0.7770088 0.6094918
vn 0.15233706 0.7847523 0.6007973
vn 0.20156404 0.7980032 0.56794614
vn 0.19320199 0.80528694 0.5605229
vn 0.23518601 0.83562595 0.496404
vn 0.253349 0.829992 0.496918
vn 0.11237201 0.955002 0.27448803
vn 0.08226893 0.9649263 0.24929707
vn 0.110890985 0.83306986 0.541939
vn 0.15065607 0.7410073 0.6543783
vn 0.176601 0.729632 0.6606429
vn 0.09690947 0.83297575 0.5447568
vn 0.2257651 0.8391244 0.49487424
vn 0.22021496 0.84472287 0.4877999
vn 0.29357004 0.86736214 0.4018701
vn 0.287081 0.873252 0.39372003
vn 0.3942589 0.84187376 0.36852184
vn 0.37950093 0.85340285 0.35732695
vn 0.49265406 0.8231711 0.28227904
vn 0.51291883 0.80385077 0.30122787
vn 0.6141653 0.7710053 0.16838007
vn 0.63416505 0.7455731 0.20483004
vn 0.7345739 0.6744209 0.07454879
vn 0.7188673 0.6945293 0.029305913
vn 0.790228 0.61274 0.009459959
vn 0.77656364 0.6288387 -0.03887048
vn 0.839738 0.54103005 -0.0461154
vn 0.82878315 0.5504691 -0.10051002
vn 0.88441104 0.45358807 -0.10988601
vn 0.8675709 0.46919194 -0.164863
vn 0.91433215 0.3753081 -0.15212002
vn 0.8958283 0.38828313 -0.21616606
vn 0.93162286 0.29128796 -0.21732499
vn 0.9073155 0.3024618 -0.29205382
vn 0.9375924 0.20751087 -0.2790338
vn 0.91041374 0.21575394 -0.35298294
vn 0.9361611 0.139249 -0.322819
vn 0.9079939 0.14627299 -0.39262098
vn 0.93107325 0.08291172 -0.35528612
vn 0.90179694 0.08768948 -0.42316997
vn 0.91654086 0.038568396 -0.39807695
vn 0.88802665 0.03866998 -0.4581628
vn 0.8969912 0.035741102 -0.44060108
vn 0.872403 0.0358073 -0.487474
vn 0.88403445 0.033846483 -0.46619475
vn 0.8714769 0.034038395 -0.48925394
vn 0.871588 0.0317794 -0.48920804
vn -0.16171703 0.07930602 -0.9836453
vn -0.21611312 0.038512018 -0.9756085
vn -0.13378593 0.06740007 -0.9887156
vn -0.14349295 0.13945396 -0.9797767
vn -0.09688742 0.12215201 -0.98777103
vn -0.10247495 0.2097529 -0.97236955
vn -0.0415089 0.181498 -0.9825149
vn -0.06288702 0.2858141 -0.95621943
vn 0.003327111 0.2501851 -0.96819234
vn 0.046534 0.31852397 -0.946772
vn -0.028054597 0.35906497 -0.9328909
vn 0.0820038 0.40703994 -0.90972185
vn 0.0063316333 0.44053024 -0.89771545
vn 0.032360192 0.5222769 -0.85216177
vn 0.115151055 0.5008683 -0.8578294
vn 0.09406409 0.673477 -0.73319894
vn 0.17416304 0.66162723 -0.7293262
vn 0.14353608 0.8266874 -0.5440452
vn 0.21347399 0.81556094 -0.537856
vn 0.15891096 0.93659776 -0.31230095
vn 0.22041303 0.92356014 -0.313775
vn 0.19736096 0.98012376 -0.020150594
vn 0.246051 0.96902406 -0.021238701
vn 0.26514494 0.9495047 0.16774695
vn 0.22331704 0.95866024 0.17635202
vn 0.24789594 0.9200677 0.30335292
vn 0.21527003 0.9235992 0.31721207
vn 0.23643097 0.87639594 0.41955993
vn 0.21602295 0.8801888 0.4226129
vn 0.19984104 0.83207715 0.51740813
vn 0.2022369 0.82836664 0.5224068
vn 0.25566792 0.7844377 0.5650588
vn 0.25713503 0.7841661 0.56477004
vn 0.2529699 0.7591927 0.5996937
vn 0.25576594 0.7585548 0.59931487
g cM_HairOP01_0
f 3/3/3 2/2/2 1/1/1
f 1/1/1 2/2/2 4/4/4
f 5/5/5 1/1/1 4/4/4
f 4/4/4 6/6/6 5/5/5
f 5/5/5 6/6/6 7/7/7
f 6/6/6 8/8/8 7/7/7
f 9/9/9 7/7/7 8/8/8
f 8/8/8 10/10/10 9/9/9
f 11/11/11 10/10/10 8/8/8
f 11/11/11 12/12/12 10/10/10
f 13/13/13 12/12/12 11/11/11
f 13/13/13 14/14/14 12/12/12
f 15/15/15 14/14/14 13/13/13
f 14/14/14 15/15/15 16/16/16
f 16/16/16 15/15/15 17/17/17
f 17/17/17 18/18/18 16/16/16
f 19/19/19 18/18/18 17/17/17
f 19/19/19 20/20/20 18/18/18
f 21/21/21 20/20/20 19/19/19
f 22/22/22 20/20/20 21/21/21
f 23/23/23 20/20/20 22/22/22
f 24/24/24 23/23/23 22/22/22
f 25/25/25 23/23/23 24/24/24
f 26/26/26 25/25/25 24/24/24
f 27/27/27 25/25/25 26/26/26
f 28/28/28 27/27/27 26/26/26
f 29/29/29 27/27/27 28/28/28
f 30/30/30 29/29/29 28/28/28
f 31/31/31 29/29/29 30/30/30
f 32/32/32 31/31/31 30/30/30
f 33/33/33 31/31/31 32/32/32
f 33/33/33 32/32/32 34/34/34
f 34/34/34 32/32/32 35/35/35
f 35/35/35 36/36/36 34/34/34
f 37/37/37 34/34/34 36/36/36
f 40/40/40 39/39/39 38/38/38
f 38/38/38 39/39/39 41/41/41
f 41/41/41 42/42/42 38/38/38
f 38/38/38 42/42/42 43/43/43
f 42/42/42 44/44/44 43/43/43
f 43/43/43 44/44/44 45/45/45
f 44/44/44 46/46/46 45/45/45
f 45/45/45 46/46/46 47/47/47
f 46/46/46 48/48/48 47/47/47
f 49/49/49 48/48/48 46/46/46
f 49/49/49 50/50/50 48/48/48
f 51/51/51 50/50/50 49/49/49
f 51/51/51 52/52/52 50/50/50
f 50/50/50 52/52/52 53/53/53
f 54/54/54 53/53/53 52/52/52
f 55/55/55 53/53/53 54/54/54
f 56/56/56 55/55/55 54/54/54
f 57/57/57 55/55/55 56/56/56
f 58/58/58 57/57/57 56/56/56
f 59/59/59 57/57/57 58/58/58
f 60/60/60 59/59/59 58/58/58
f 61/61/61 59/59/59 60/60/60
f 62/62/62 61/61/61 60/60/60
f 63/63/63 61/61/61 62/62/62
f 64/64/64 63/63/63 62/62/62
f 65/65/65 63/63/63 64/64/64
f 66/66/66 65/65/65 64/64/64
f 67/67/67 65/65/65 66/66/66
f 68/68/68 67/67/67 66/66/66
f 69/69/69 67/67/67 68/68/68
f 70/70/70 69/69/69 68/68/68
f 71/71/71 69/69/69 70/70/70
f 72/72/72 71/71/71 70/70/70
f 73/73/73 71/71/71 72/72/72
f 72/72/72 74/74/74 73/73/73
f 74/74/74 75/75/75 73/73/73
f 76/76/76 75/75/75 74/74/74
f 79/79/79 78/78/78 77/77/77
f 77/77/77 80/80/80 79/79/79
f 79/79/79 80/80/80 81/81/81
f 80/80/80 82/82/82 81/81/81
f 81/81/81 82/82/82 83/83/83
f 82/82/82 84/84/84 83/83/83
f 83/83/83 84/84/84 85/85/85
f 85/85/85 84/84/84 86/86/86
f 86/86/86 84/84/84 87/87/87
f 86/86/86 87/87/87 88/88/88
f 88/88/88 87/87/87 89/89/89
f 89/89/89 90/90/90 88/88/88
f 88/88/88 90/90/90 91/91/91
f 90/90/90 92/92/92 91/91/91
f 91/91/91 92/92/92 93/93/93
f 94/94/94 93/93/93 92/92/92
f 95/95/95 93/93/93 94/94/94
f 96/96/96 95/95/95 94/94/94
f 97/97/97 95/95/95 96/96/96
f 98/98/98 97/97/97 96/96/96
f 99/99/99 97/97/97 98/98/98
f 99/99/99 98/98/98 100/100/100
f 100/100/100 98/98/98 101/101/101
f 101/101/101 102/102/102 100/100/100
f 103/103/103 102/102/102 101/101/101
f 103/103/103 104/104/104 102/102/102
f 105/105/105 104/104/104 103/103/103
f 106/106/106 104/104/104 105/105/105
f 107/107/107 104/104/104 106/106/106
f 106/106/106 108/108/108 107/107/107
f 109/109/109 108/108/108 106/106/106
f 110/110/110 108/108/108 109/109/109
f 111/111/111 108/108/108 110/110/110
