g M_Acc
v 0.06825878 1.5232975 -0.009608445
v 0.06783526 1.5187546 -0.011396622
v 0.06450808 1.5201123 -0.007965273
v 0.06725761 1.5190794 -0.012085289
v 0.06768112 1.5236224 -0.010297113
v 0.06393044 1.5204371 -0.008653939
v -0.06783526 1.5187546 -0.011396622
v -0.06825878 1.5232975 -0.009608445
v -0.06450808 1.5201123 -0.007965273
v -0.06768112 1.5236224 -0.010297113
v -0.06725761 1.5190794 -0.012085289
v -0.06393044 1.5204371 -0.008653939
v 0.06450808 1.5201123 -0.007965273
v 0.06393044 1.5204371 -0.008653939
v 0.06768112 1.5236224 -0.010297113
v 0.06825878 1.5232975 -0.009608445
v 0.06783526 1.5187546 -0.011396622
v 0.06725761 1.5190794 -0.012085289
v 0.06393044 1.5204371 -0.008653939
v 0.06450808 1.5201123 -0.007965273
v 0.06825878 1.5232975 -0.009608445
v 0.06768112 1.5236224 -0.010297113
v 0.06725761 1.5190794 -0.012085289
v 0.06783526 1.5187546 -0.011396622
v -0.06393044 1.5204371 -0.008653939
v -0.06450808 1.5201123 -0.007965273
v -0.06825878 1.5232975 -0.009608445
v -0.06768112 1.5236224 -0.010297113
v -0.06725761 1.5190794 -0.012085289
v -0.06783526 1.5187546 -0.011396622
v -0.06450808 1.5201123 -0.007965273
v -0.06393044 1.5204371 -0.008653939
v -0.06768112 1.5236224 -0.010297113
v -0.06825878 1.5232975 -0.009608445
v -0.06783526 1.5187546 -0.011396622
v -0.06725761 1.5190794 -0.012085289
vt 0.539388 0.728227
vt 0.867509 0.15323901
vt 0.215645 0.15323901
vt 0.460101 0.9653673
vt 0.235683 0.584211
vt 0.0279789 0.9653673
vt 0.867509 0.15323901
vt 0.539388 0.728227
vt 0.215645 0.15323901
vt 0.235683 0.584211
vt 0.460101 0.9653673
vt 0.0279789 0.9653673
vt 0.215645 0.15323901
vt 0.109711 0.22032899
vt 0.433453 0.795318
vt 0.539388 0.728227
vt 0.867509 0.15323901
vt 0.86751 0.027849019
vt 0.215646 0.027849019
vt 0.215645 0.15323901
vt 0.539388 0.728227
vt 0.651531 0.78432703
vt 0.979651 0.20933801
vt 0.867509 0.15323901
vt 0.109711 0.22032899
vt 0.215645 0.15323901
vt 0.539388 0.728227
vt 0.433453 0.795318
vt 0.86751 0.027849019
vt 0.867509 0.15323901
vt 0.215645 0.15323901
vt 0.215646 0.027849019
vt 0.651531 0.78432703
vt 0.539388 0.728227
vt 0.867509 0.15323901
vt 0.979651 0.20933801
vn 0.60435116 -0.33994284 0.72055435
vn 0.60435116 -0.3399428 0.72055435
vn 0.60435116 -0.3399428 0.72055435
vn -0.60437816 0.33995685 -0.720525
vn -0.60437816 0.33995685 -0.720525
vn -0.6043782 0.33995682 -0.7205251
vn -0.60435116 -0.3399428 0.72055435
vn -0.6043511 -0.33994284 0.7205544
vn -0.60435116 -0.33994284 0.7205544
vn 0.60437816 0.33995685 -0.720525
vn 0.60437816 0.33995685 -0.720525
vn 0.6043782 0.33995685 -0.720525
vn -0.33475572 0.7123845 0.6168037
vn -0.33475575 0.7123845 0.6168037
vn -0.33475575 0.7123845 0.6168037
vn -0.33475575 0.7123846 0.6168037
vn -0.43162656 -0.8998849 -0.06249595
vn -0.43162656 -0.8998849 -0.06249595
vn -0.43162656 -0.8998849 -0.06249595
vn -0.43162656 -0.8998849 -0.062495943
vn 0.7919742 0.1582594 -0.58968705
vn 0.7919742 0.15825944 -0.5896871
vn 0.7919742 0.1582594 -0.5896871
vn 0.7919742 0.1582594 -0.58968705
vn 0.33477166 0.7124184 0.616756
vn 0.33477166 0.7124184 0.616756
vn 0.3347716 0.71241844 0.616756
vn 0.3347716 0.7124185 0.616756
vn 0.43162656 -0.8998849 -0.06249595
vn 0.43162656 -0.8998849 -0.06249595
vn 0.43162656 -0.8998849 -0.062495943
vn 0.43162656 -0.8998849 -0.06249595
vn -0.7919835 0.15826139 -0.5896741
vn -0.7919835 0.1582614 -0.5896742
vn -0.7919835 0.1582614 -0.5896742
vn -0.7919835 0.15826139 -0.5896742
g M_Acc_0
f 3/3/3 2/2/2 1/1/1
f 6/6/6 5/5/5 4/4/4
f 9/9/9 8/8/8 7/7/7
f 12/12/12 11/11/11 10/10/10
f 15/15/15 14/14/14 13/13/13
f 16/16/16 15/15/15 13/13/13
f 19/19/19 18/18/18 17/17/17
f 20/20/20 19/19/19 17/17/17
f 23/23/23 22/22/22 21/21/21
f 24/24/24 23/23/23 21/21/21
f 27/27/27 26/26/26 25/25/25
f 28/28/28 27/27/27 25/25/25
f 31/31/31 30/30/30 29/29/29
f 32/32/32 31/31/31 29/29/29
f 35/35/35 34/34/34 33/33/33
f 36/36/36 35/35/35 33/33/33
