g M_Acc
v 0.062605135 1.5248879 -0.014110882
v 0.06125079 1.5254214 -0.016402809
v 0.06039136 1.5256159 -0.016064696
v 0.061927475 1.525012 -0.013466296
v 0.06389485 1.5227206 -0.013101523
v 0.06338913 1.5225565 -0.0123219825
v 0.06436349 1.5201931 -0.013966131
v 0.063920915 1.5196893 -0.013302083
v 0.063737065 1.5187771 -0.01619764
v 0.063211635 1.518085 -0.015832486
v 0.062382724 1.5193106 -0.018489867
v 0.061675403 1.5186906 -0.018431041
v 0.0610937 1.5214767 -0.0194991
v 0.06021374 1.5211427 -0.019574914
v 0.060624227 1.5240059 -0.018634554
v 0.059681945 1.5240115 -0.018595163
v 0.06125079 1.5254214 -0.016402809
v 0.06039136 1.5256159 -0.016064696
v 0.061927475 1.525012 -0.013466296
v 0.06039136 1.5256159 -0.016064696
v 0.060067963 1.5264825 -0.016091865
v 0.06195648 1.5257434 -0.012895052
v 0.06338913 1.5225565 -0.0123219825
v 0.06375505 1.52272 -0.011487
v 0.063920915 1.5196893 -0.013302083
v 0.064409204 1.5191929 -0.012693347
v 0.063211635 1.518085 -0.015832486
v 0.06353592 1.5172204 -0.015805962
v 0.061675403 1.5186906 -0.018431041
v 0.061646923 1.5179611 -0.019002654
v 0.06021374 1.5211427 -0.019574914
v 0.059848074 1.5209794 -0.020410184
v 0.059681945 1.5240115 -0.018595163
v 0.0591941 1.524513 -0.019205106
v 0.06039136 1.5256159 -0.016064696
v 0.060067963 1.5264825 -0.016091865
v 0.06195648 1.5257434 -0.012895052
v 0.060067963 1.5264825 -0.016091865
v 0.06059388 1.5271772 -0.016457092
v 0.062663816 1.5263629 -0.012953901
v 0.06145166 1.5269789 -0.016794221
v 0.06375505 1.52272 -0.011487
v 0.06334048 1.526237 -0.013597805
v 0.064634934 1.5230516 -0.011411092
v 0.064409204 1.5191929 -0.012693347
v 0.065139174 1.5232186 -0.012190394
v 0.065350965 1.5191844 -0.0127320215
v 0.06353592 1.5172204 -0.015805962
v 0.06579324 1.5196879 -0.013395634
v 0.06439413 1.5170227 -0.016143171
v 0.061646923 1.5179611 -0.019002654
v 0.06491974 1.5177176 -0.016508335
v 0.062324047 1.5178354 -0.019646758
v 0.059848074 1.5209794 -0.020410184
v 0.06303104 1.5184566 -0.019705381
v 0.060353603 1.521145 -0.021189608
v 0.0591941 1.524513 -0.019205106
v 0.061232414 1.5214787 -0.02111349
v 0.05963683 1.5250152 -0.019868817
v 0.060067963 1.5264825 -0.016091865
v 0.06057828 1.5250075 -0.01990734
v 0.06059388 1.5271772 -0.016457092
v 0.06145166 1.5269789 -0.016794221
v 0.06334048 1.526237 -0.013597805
v 0.06145166 1.5269789 -0.016794221
v 0.061776187 1.5261148 -0.01676783
v 0.063312076 1.5255084 -0.014169433
v 0.065139174 1.5232186 -0.012190394
v 0.064773954 1.523055 -0.013025489
v 0.06579324 1.5196879 -0.013395634
v 0.06530551 1.5201882 -0.014005327
v 0.06491974 1.5177176 -0.016508335
v 0.064596325 1.5185832 -0.016535614
v 0.06303104 1.5184566 -0.019705381
v 0.0630599 1.5191865 -0.019134125
v 0.061232414 1.5214787 -0.02111349
v 0.061598185 1.5216426 -0.020278567
v 0.06057828 1.5250075 -0.01990734
v 0.06106641 1.5245095 -0.019298581
v 0.06145166 1.5269789 -0.016794221
v 0.061776187 1.5261148 -0.01676783
v 0.063312076 1.5255084 -0.014169433
v 0.061776187 1.5261148 -0.01676783
v 0.06125079 1.5254214 -0.016402809
v 0.062605135 1.5248879 -0.014110882
v 0.064773954 1.523055 -0.013025489
v 0.06389485 1.5227206 -0.013101523
v 0.06530551 1.5201882 -0.014005327
v 0.06436349 1.5201931 -0.013966131
v 0.064596325 1.5185832 -0.016535614
v 0.063737065 1.5187771 -0.01619764
v 0.0630599 1.5191865 -0.019134125
v 0.062382724 1.5193106 -0.018489867
v 0.061598185 1.5216426 -0.020278567
v 0.0610937 1.5214767 -0.0194991
v 0.06106641 1.5245095 -0.019298581
v 0.060624227 1.5240059 -0.018634554
v 0.061776187 1.5261148 -0.01676783
v 0.06125079 1.5254214 -0.016402809
vt 0.0495609 0.15954202
vt 0.0495609 0.043403983
vt 0.0834708 0.043403983
vt 0.0834708 0.15954202
vt 0.0495609 0.273525
vt 0.0834708 0.273525
vt 0.0495609 0.385464
vt 0.0834708 0.385464
vt 0.0495609 0.49665898
vt 0.0834708 0.49665898
vt 0.0495609 0.607822
vt 0.0834708 0.607822
vt 0.0495609 0.71986103
vt 0.0834708 0.71986103
vt 0.0495609 0.83378
vt 0.0834708 0.83378
vt 0.0495609 0.9499956
vt 0.0834708 0.9499956
vt 0.0834708 0.15954202
vt 0.0834708 0.043403983
vt 0.112458 0.043403983
vt 0.112458 0.15954202
vt 0.0834708 0.273525
vt 0.112458 0.273525
vt 0.0834708 0.385464
vt 0.112458 0.385464
vt 0.0834708 0.49665898
vt 0.112458 0.49665898
vt 0.0834708 0.607822
vt 0.112458 0.607822
vt 0.0834708 0.71986103
vt 0.112458 0.71986103
vt 0.0834708 0.83378
vt 0.112458 0.83378
vt 0.0834708 0.9499956
vt 0.112458 0.9499956
vt 0.112458 0.15954202
vt 0.112458 0.043403983
vt 0.140459 0.043403983
vt 0.140459 0.15954202
vt 0.168158 0.043403983
vt 0.112458 0.273525
vt 0.168158 0.15954202
vt 0.140459 0.273525
vt 0.112458 0.385464
vt 0.168158 0.273525
vt 0.140459 0.385464
vt 0.112458 0.49665898
vt 0.168158 0.385464
vt 0.140459 0.49665898
vt 0.112458 0.607822
vt 0.168158 0.49665898
vt 0.140459 0.607822
vt 0.112458 0.71986103
vt 0.168158 0.607822
vt 0.140459 0.71986103
vt 0.112458 0.83378
vt 0.168158 0.71986103
vt 0.140459 0.83378
vt 0.112458 0.9499956
vt 0.168158 0.83378
vt 0.140459 0.9499956
vt 0.168158 0.9499956
vt 0.168158 0.15954202
vt 0.168158 0.043403983
vt 0.197779 0.043403983
vt 0.197779 0.15954202
vt 0.168158 0.273525
vt 0.197779 0.273525
vt 0.168158 0.385464
vt 0.197779 0.385464
vt 0.168158 0.49665898
vt 0.197779 0.49665898
vt 0.168158 0.607822
vt 0.197779 0.607822
vt 0.168158 0.71986103
vt 0.197779 0.71986103
vt 0.168158 0.83378
vt 0.197779 0.83378
vt 0.168158 0.9499956
vt 0.197779 0.9499956
vt 0.197779 0.15954202
vt 0.197779 0.043403983
vt 0.231682 0.043403983
vt 0.231682 0.15954202
vt 0.197779 0.273525
vt 0.231682 0.273525
vt 0.197779 0.385464
vt 0.231682 0.385464
vt 0.197779 0.49665898
vt 0.231682 0.49665898
vt 0.197779 0.607822
vt 0.231682 0.607822
vt 0.197779 0.71986103
vt 0.231682 0.71986103
vt 0.197779 0.83378
vt 0.231682 0.83378
vt 0.197779 0.9499956
vt 0.231682 0.9499956
vn -0.031331908 -0.78591305 -0.6175427
vn 0.35139605 -0.9357894 0.028619977
vn -0.12320649 -0.962496 0.24170537
vn -0.45402852 -0.83261806 -0.31718317
vn -0.39529526 -0.17527664 -0.90167606
vn -0.7682043 -0.3054122 -0.5626594
vn -0.5276109 0.53754085 -0.6577815
vn -0.8826194 0.31147966 -0.35208437
vn -0.3513019 0.9358197 -0.028783923
vn -0.73016226 0.65585095 0.19163123
vn 0.031377662 0.78605634 0.61735797
vn -0.39948815 0.5262303 0.7506603
vn 0.39523286 0.17562018 0.9016366
vn -0.08550593 -0.0008730027 0.9963373
vn 0.52765054 -0.53738296 0.6578787
vn 0.029491855 -0.61770016 0.7858605
vn 0.35139605 -0.9357894 0.028619977
vn -0.12320649 -0.962496 0.24170537
vn -0.8492722 -0.30375898 0.4318185
vn -0.8497329 -0.30347878 0.4311086
vn -0.8497329 -0.30347878 0.43110874
vn -0.8492727 -0.3037581 0.4318181
vn -0.8489515 -0.3045692 0.4318783
vn -0.8489517 -0.3045686 0.4318784
vn -0.8488084 -0.30522308 0.43169802
vn -0.8488084 -0.30522293 0.43169814
vn -0.84902334 -0.3051717 0.4313116
vn -0.84902334 -0.3051717 0.43131158
vn -0.84915847 -0.30493987 0.43120953
vn -0.8491585 -0.30493993 0.43120918
vn -0.8493854 -0.30459583 0.43100563
vn -0.84938526 -0.30459592 0.4310058
vn -0.8498527 -0.30389524 0.4305789
vn -0.84985334 -0.30389366 0.43057874
vn -0.8497329 -0.30347878 0.4311086
vn -0.8497329 -0.30347878 0.43110874
vn -0.3999519 0.52646154 0.75025105
vn -0.7302651 0.6557153 0.19170435
vn -0.34986883 0.9363419 -0.029255576
vn 0.031730574 0.78612983 0.61724645
vn 0.1262732 0.9618409 -0.24272847
vn -0.08583227 -0.0012658439 0.99630874
vn 0.45531142 0.8323452 0.31605855
vn 0.3951151 0.17538674 0.90173364
vn 0.02710116 -0.617665 0.78597426
vn 0.7684501 0.3054278 0.5623151
vn 0.52707624 -0.53777546 0.65801835
vn -0.12595236 -0.9618762 0.2427552
vn 0.88298404 -0.311115 0.35149202
vn 0.35038742 -0.93615115 0.029148133
vn -0.45500228 -0.8325181 -0.31604818
vn 0.7308049 -0.6550285 -0.19199438
vn -0.03112987 -0.78617233 -0.6172228
vn -0.76834756 -0.30503333 -0.5626694
vn 0.40072626 -0.5257866 -0.75031126
vn -0.39475486 -0.17593627 -0.9017844
vn -0.8826235 0.3115863 -0.3519797
vn 0.08600933 0.0017755175 -0.99629277
vn -0.52693015 0.5374956 -0.65836394
vn -0.7302651 0.6557153 0.19170435
vn -0.027241506 0.6176514 -0.78598005
vn -0.34986883 0.9363419 -0.029255576
vn 0.1262732 0.9618409 -0.24272847
vn 0.8491793 0.3051877 -0.43099296
vn 0.8490372 0.30530894 -0.43118697
vn 0.8490373 0.30530897 -0.43118685
vn 0.84917927 0.30518743 -0.4309932
vn 0.8493794 0.30477035 -0.430894
vn 0.8493798 0.30477002 -0.43089357
vn 0.84969974 0.30413973 -0.43070805
vn 0.8496994 0.30414084 -0.4307078
vn 0.8495846 0.30383065 -0.43115294
vn 0.8495846 0.3038306 -0.43115294
vn 0.84927356 0.3040764 -0.43159232
vn 0.8492735 0.30407664 -0.4315925
vn 0.849065 0.30458415 -0.43164453
vn 0.8490649 0.30458483 -0.43164456
vn 0.8489137 0.30509004 -0.43158492
vn 0.8489137 0.30508995 -0.43158498
vn 0.8490372 0.30530894 -0.43118697
vn 0.8490373 0.30530897 -0.43118685
vn 0.40004647 -0.525797 -0.7506666
vn 0.73050046 -0.65535444 -0.19204053
vn 0.35139605 -0.9357894 0.028619977
vn -0.031331908 -0.78591305 -0.6175427
vn 0.08582187 0.00083912764 -0.9963102
vn -0.39529526 -0.17527664 -0.90167606
vn -0.029809449 0.61773604 -0.78582036
vn -0.5276109 0.53754085 -0.6577815
vn 0.122746445 0.96253985 -0.24176513
vn -0.3513019 0.9358197 -0.028783923
vn 0.45381197 0.8327249 0.31721252
vn 0.031377662 0.78605634 0.61735797
vn 0.76855725 0.30491775 0.5624455
vn 0.39523286 0.17562018 0.9016366
vn 0.88292325 -0.3111465 0.3516167
vn 0.52765054 -0.53738296 0.6578787
vn 0.73050046 -0.65535444 -0.19204053
vn 0.35139605 -0.9357894 0.028619977
g M_Acc_0
f 3/3/3 2/2/2 1/1/1
f 4/4/4 3/3/3 1/1/1
f 4/4/4 1/1/1 5/5/5
f 6/6/6 4/4/4 5/5/5
f 6/6/6 5/5/5 7/7/7
f 8/8/8 6/6/6 7/7/7
f 8/8/8 7/7/7 9/9/9
f 10/10/10 8/8/8 9/9/9
f 10/10/10 9/9/9 11/11/11
f 12/12/12 10/10/10 11/11/11
f 12/12/12 11/11/11 13/13/13
f 14/14/14 12/12/12 13/13/13
f 14/14/14 13/13/13 15/15/15
f 16/16/16 14/14/14 15/15/15
f 16/16/16 15/15/15 17/17/17
f 18/18/18 16/16/16 17/17/17
f 21/21/21 20/20/20 19/19/19
f 22/22/22 21/21/21 19/19/19
f 22/22/22 19/19/19 23/23/23
f 24/24/24 22/22/22 23/23/23
f 24/24/24 23/23/23 25/25/25
f 26/26/26 24/24/24 25/25/25
f 26/26/26 25/25/25 27/27/27
f 28/28/28 26/26/26 27/27/27
f 28/28/28 27/27/27 29/29/29
f 30/30/30 28/28/28 29/29/29
f 30/30/30 29/29/29 31/31/31
f 32/32/32 30/30/30 31/31/31
f 32/32/32 31/31/31 33/33/33
f 34/34/34 32/32/32 33/33/33
f 34/34/34 33/33/33 35/35/35
f 36/36/36 34/34/34 35/35/35
f 39/39/39 38/38/38 37/37/37
f 40/40/40 39/39/39 37/37/37
f 41/41/41 39/39/39 40/40/40
f 40/40/40 37/37/37 42/42/42
f 43/43/43 41/41/41 40/40/40
f 44/44/44 40/40/40 42/42/42
f 43/43/43 40/40/40 44/44/44
f 44/44/44 42/42/42 45/45/45
f 46/46/46 43/43/43 44/44/44
f 47/47/47 44/44/44 45/45/45
f 46/46/46 44/44/44 47/47/47
f 47/47/47 45/45/45 48/48/48
f 49/49/49 46/46/46 47/47/47
f 50/50/50 47/47/47 48/48/48
f 49/49/49 47/47/47 50/50/50
f 50/50/50 48/48/48 51/51/51
f 52/52/52 49/49/49 50/50/50
f 53/53/53 50/50/50 51/51/51
f 52/52/52 50/50/50 53/53/53
f 53/53/53 51/51/51 54/54/54
f 55/55/55 52/52/52 53/53/53
f 56/56/56 53/53/53 54/54/54
f 55/55/55 53/53/53 56/56/56
f 56/56/56 54/54/54 57/57/57
f 58/58/58 55/55/55 56/56/56
f 59/59/59 56/56/56 57/57/57
f 58/58/58 56/56/56 59/59/59
f 59/59/59 57/57/57 60/60/60
f 61/61/61 58/58/58 59/59/59
f 62/62/62 59/59/59 60/60/60
f 61/61/61 59/59/59 62/62/62
f 63/63/63 61/61/61 62/62/62
f 66/66/66 65/65/65 64/64/64
f 67/67/67 66/66/66 64/64/64
f 67/67/67 64/64/64 68/68/68
f 69/69/69 67/67/67 68/68/68
f 69/69/69 68/68/68 70/70/70
f 71/71/71 69/69/69 70/70/70
f 71/71/71 70/70/70 72/72/72
f 73/73/73 71/71/71 72/72/72
f 73/73/73 72/72/72 74/74/74
f 75/75/75 73/73/73 74/74/74
f 75/75/75 74/74/74 76/76/76
f 77/77/77 75/75/75 76/76/76
f 77/77/77 76/76/76 78/78/78
f 79/79/79 77/77/77 78/78/78
f 79/79/79 78/78/78 80/80/80
f 81/81/81 79/79/79 80/80/80
f 84/84/84 83/83/83 82/82/82
f 85/85/85 84/84/84 82/82/82
f 85/85/85 82/82/82 86/86/86
f 87/87/87 85/85/85 86/86/86
f 87/87/87 86/86/86 88/88/88
f 89/89/89 87/87/87 88/88/88
f 89/89/89 88/88/88 90/90/90
f 91/91/91 89/89/89 90/90/90
f 91/91/91 90/90/90 92/92/92
f 93/93/93 91/91/91 92/92/92
f 93/93/93 92/92/92 94/94/94
f 95/95/95 93/93/93 94/94/94
f 95/95/95 94/94/94 96/96/96
f 97/97/97 95/95/95 96/96/96
f 97/97/97 96/96/96 98/98/98
f 99/99/99 97/97/97 98/98/98
