g M_Acc
v 0.059824273 1.5253062 -0.01284496
v 0.061300542 1.5241792 -0.013167258
v 0.05953501 1.5235748 -0.013126319
v 0.061251566 1.5259491 -0.013333312
v 0.060601648 1.5227464 -0.013966966
v 0.062163122 1.5251437 -0.014340972
v 0.06182221 1.5234342 -0.014622329
v -0.061300542 1.5241792 -0.013167258
v -0.059824273 1.5253062 -0.01284496
v -0.05953501 1.5235748 -0.013126319
v -0.060601648 1.5227464 -0.013966966
v -0.061251566 1.5259491 -0.013333312
v -0.06182221 1.5234342 -0.014622329
v -0.062163122 1.5251437 -0.014340972
v 0.060431156 1.524364 -0.014248184
v 0.059824273 1.5253062 -0.01284496
v 0.05953501 1.5235748 -0.013126319
v 0.060601648 1.5227464 -0.013966966
v 0.061251566 1.5259491 -0.013333312
v 0.06182221 1.5234342 -0.014622329
v 0.062163122 1.5251437 -0.014340972
v -0.059824273 1.5253062 -0.01284496
v -0.060431156 1.524364 -0.014248184
v -0.05953501 1.5235748 -0.013126319
v -0.061251566 1.5259491 -0.013333312
v -0.060601648 1.5227464 -0.013966966
v -0.062163122 1.5251437 -0.014340972
v -0.06182221 1.5234342 -0.014622329
vt 0.425495 0.806579
vt 0.666434 0.652978
vt 0.427694 0.508336
vt 0.674472 0.9387588
vt 0.662861 0.37516397
vt 0.911791 0.79981697
vt 0.897366 0.49995798
vt 0.666434 0.652978
vt 0.425495 0.806579
vt 0.427694 0.508336
vt 0.662861 0.37516397
vt 0.674472 0.9387588
vt 0.897366 0.49995798
vt 0.911791 0.79981697
vt 0.291861 0.29313302
vt 0.490234 0.415689
vt 0.492093 0.16675699
vt 0.291861 0.05706501
vt 0.291861 0.534478
vt 0.107736 0.17084098
vt 0.106187 0.41649997
vt 0.490234 0.415689
vt 0.291861 0.29313302
vt 0.492093 0.16675699
vt 0.291861 0.534478
vt 0.291861 0.05706501
vt 0.106187 0.41649997
vt 0.107736 0.17084098
vn 0.1794558 -0.045932103 0.9826932
vn 0.5214572 -0.25083882 0.81557477
vn 0.14424959 -0.358911 0.92215776
vn 0.5322698 0.09367013 0.8413768
vn 0.4077139 -0.588551 0.6981241
vn 0.8334821 -0.08009443 0.54671067
vn 0.75771236 -0.42927143 0.49152625
vn -0.5214524 -0.2508328 0.8155798
vn -0.17945495 -0.04593326 0.9826933
vn -0.14424556 -0.3588989 0.9221631
vn -0.4077204 -0.5885516 0.69811964
vn -0.5322617 0.093670376 0.84138185
vn -0.7577123 -0.4292715 0.49152625
vn -0.8334825 -0.080095746 0.54670984
vn -0.52478796 0.2340623 -0.81842077
vn -0.6544945 0.4655738 -0.5957163
vn -0.79150677 0.031148233 -0.61036617
vn -0.5396622 -0.19908646 -0.8180033
vn -0.3953824 0.60401434 -0.69198227
vn -0.24614623 0.02163378 -0.96899116
vn -0.2383194 0.42548895 -0.8730195
vn 0.65449834 0.46556976 -0.59571517
vn 0.52478784 0.23405918 -0.8184217
vn 0.79150677 0.031148171 -0.61036617
vn 0.39538035 0.6040141 -0.69198364
vn 0.53966224 -0.19908644 -0.8180032
vn 0.2383194 0.42548898 -0.8730195
vn 0.24614623 0.02163378 -0.96899116
g M_Acc_0
f 3/3/3 2/2/2 1/1/1
f 4/4/4 1/1/1 2/2/2
f 5/5/5 2/2/2 3/3/3
f 4/4/4 2/2/2 6/6/6
f 7/7/7 2/2/2 5/5/5
f 7/7/7 6/6/6 2/2/2
f 10/10/10 9/9/9 8/8/8
f 11/11/11 10/10/10 8/8/8
f 12/12/12 8/8/8 9/9/9
f 13/13/13 11/11/11 8/8/8
f 12/12/12 14/14/14 8/8/8
f 13/13/13 8/8/8 14/14/14
f 17/17/17 16/16/16 15/15/15
f 18/18/18 17/17/17 15/15/15
f 16/16/16 19/19/19 15/15/15
f 20/20/20 18/18/18 15/15/15
f 19/19/19 21/21/21 15/15/15
f 21/21/21 20/20/20 15/15/15
f 24/24/24 23/23/23 22/22/22
f 22/22/22 23/23/23 25/25/25
f 26/26/26 23/23/23 24/24/24
f 25/25/25 23/23/23 27/27/27
f 28/28/28 23/23/23 26/26/26
f 27/27/27 23/23/23 28/28/28
