g M_Acc
v 0.05931346 1.5254358 -0.016822005
v 0.05790472 1.5263721 -0.019666577
v 0.057015065 1.5267453 -0.019331247
v 0.058591366 1.5256982 -0.01614962
v 0.0603414 1.5225543 -0.015555093
v 0.059741292 1.5224783 -0.014732578
v 0.06038627 1.5194206 -0.016608
v 0.059791762 1.5189707 -0.01591011
v 0.059421062 1.517861 -0.019363265
v 0.05871279 1.5172267 -0.01899248
v 0.058011968 1.5187968 -0.02220821
v 0.057136543 1.5182753 -0.02217429
v 0.05698433 1.5216757 -0.02347496
v 0.05598617 1.5214914 -0.02359081
v 0.056939032 1.5248119 -0.022422152
v 0.05593576 1.5250006 -0.022413725
v 0.05790472 1.5263721 -0.019666577
v 0.057015065 1.5267453 -0.019331247
v 0.058591366 1.5256982 -0.01614962
v 0.057015065 1.5267453 -0.019331247
v 0.05683927 1.5277352 -0.01936697
v 0.058743756 1.5264748 -0.0155224865
v 0.059741292 1.5224783 -0.014732578
v 0.06013287 1.5225811 -0.013809926
v 0.059791762 1.5189707 -0.01591011
v 0.060193878 1.5183446 -0.0152334925
v 0.05871279 1.5172267 -0.01899248
v 0.058889803 1.516237 -0.018957451
v 0.057136543 1.5182753 -0.02217429
v 0.05698533 1.5174989 -0.022801775
v 0.05598617 1.5214914 -0.02359081
v 0.055594947 1.5213886 -0.024513785
v 0.05593576 1.5250006 -0.022413725
v 0.055535138 1.5256314 -0.02309171
v 0.057015065 1.5267453 -0.019331247
v 0.05683927 1.5277352 -0.01936697
v 0.058743756 1.5264748 -0.0155224865
v 0.05683927 1.5277352 -0.01936697
v 0.05754835 1.5283717 -0.0197379
v 0.059619408 1.5269983 -0.015556415
v 0.058435366 1.5279956 -0.020072147
v 0.06013287 1.5225811 -0.013809926
v 0.060339563 1.526732 -0.016228156
v 0.061130565 1.5227629 -0.01369401
v 0.060193878 1.5183446 -0.0152334925
v 0.06172995 1.5228431 -0.01451627
v 0.061195567 1.5181528 -0.015241114
v 0.058889803 1.516237 -0.018957451
v 0.061790034 1.5186023 -0.0159385
v 0.05977724 1.5158613 -0.01929175
v 0.05698533 1.5174989 -0.022801775
v 0.060485978 1.5164987 -0.01966264
v 0.057706006 1.5172343 -0.0234737
v 0.055594947 1.5213886 -0.024513785
v 0.058581393 1.5177568 -0.023507401
v 0.05619536 1.5214671 -0.02533615
v 0.055535138 1.5256314 -0.02309171
v 0.057192188 1.5216507 -0.025220014
v 0.056129847 1.5260801 -0.023789205
v 0.05683927 1.5277352 -0.01936697
v 0.05713114 1.5258884 -0.02379669
v 0.05754835 1.5283717 -0.0197379
v 0.058435366 1.5279956 -0.020072147
v 0.060339563 1.526732 -0.016228156
v 0.058435366 1.5279956 -0.020072147
v 0.058612656 1.5270064 -0.020037243
v 0.0601886 1.5259576 -0.016855655
v 0.06172995 1.5228431 -0.01451627
v 0.06133884 1.5227399 -0.015439051
v 0.061790034 1.5186023 -0.0159385
v 0.06138928 1.5192318 -0.016616266
v 0.060485978 1.5164987 -0.01966264
v 0.060310397 1.5174879 -0.01969846
v 0.058581393 1.5177568 -0.023507401
v 0.05873343 1.5185336 -0.02288024
v 0.057192188 1.5216507 -0.025220014
v 0.0575837 1.5217546 -0.024297463
v 0.05713114 1.5258884 -0.02379669
v 0.057533354 1.5252616 -0.023120075
v 0.058435366 1.5279956 -0.020072147
v 0.058612656 1.5270064 -0.020037243
v 0.0601886 1.5259576 -0.016855655
v 0.058612656 1.5270064 -0.020037243
v 0.05790472 1.5263721 -0.019666577
v 0.05931346 1.5254358 -0.016822005
v 0.06133884 1.5227399 -0.015439051
v 0.0603414 1.5225543 -0.015555093
v 0.06138928 1.5192318 -0.016616266
v 0.06038627 1.5194206 -0.016608
v 0.060310397 1.5174879 -0.01969846
v 0.059421062 1.517861 -0.019363265
v 0.05873343 1.5185336 -0.02288024
v 0.058011968 1.5187968 -0.02220821
v 0.0575837 1.5217546 -0.024297463
v 0.05698433 1.5216757 -0.02347496
v 0.057533354 1.5252616 -0.023120075
v 0.056939032 1.5248119 -0.022422152
v 0.058612656 1.5270064 -0.020037243
v 0.05790472 1.5263721 -0.019666577
vt 0.435584 0.173473
vt 0.435584 0.041116
vt 0.362629 0.041116
vt 0.362629 0.173473
vt 0.435584 0.29288
vt 0.362629 0.29288
vt 0.435584 0.399535
vt 0.362629 0.399535
vt 0.435584 0.49902302
vt 0.362629 0.49902302
vt 0.435584 0.598354
vt 0.362629 0.598354
vt 0.435584 0.70487
vt 0.362629 0.70487
vt 0.435584 0.823114
vt 0.362629 0.823114
vt 0.435584 0.9537585
vt 0.362629 0.9537585
vt 0.362629 0.173473
vt 0.362629 0.041116
vt 0.303933 0.041116
vt 0.303933 0.173473
vt 0.362629 0.29288
vt 0.303933 0.29288
vt 0.362629 0.399535
vt 0.303933 0.399535
vt 0.362629 0.49902302
vt 0.303933 0.49902302
vt 0.362629 0.598354
vt 0.303933 0.598354
vt 0.362629 0.70487
vt 0.303933 0.70487
vt 0.362629 0.823114
vt 0.303933 0.823114
vt 0.362629 0.9537585
vt 0.303933 0.9537585
vt 0.303933 0.173473
vt 0.303933 0.041116
vt 0.250861 0.041116
vt 0.250861 0.173473
vt 0.19847 0.041116
vt 0.303933 0.29288
vt 0.19847 0.173473
vt 0.250861 0.29288
vt 0.303933 0.399535
vt 0.19847 0.29288
vt 0.250861 0.399535
vt 0.303933 0.49902302
vt 0.19847 0.399535
vt 0.250861 0.49902302
vt 0.303933 0.598354
vt 0.19847 0.49902302
vt 0.250861 0.598354
vt 0.303933 0.70487
vt 0.19847 0.598354
vt 0.250861 0.70487
vt 0.303933 0.823114
vt 0.19847 0.70487
vt 0.250861 0.823114
vt 0.303933 0.9537585
vt 0.19847 0.823114
vt 0.250861 0.9537585
vt 0.19847 0.9537585
vt 0.19847 0.173473
vt 0.19847 0.041116
vt 0.137241 0.041116
vt 0.137241 0.173473
vt 0.19847 0.29288
vt 0.137241 0.29288
vt 0.19847 0.399535
vt 0.137241 0.399535
vt 0.19847 0.49902302
vt 0.137241 0.49902302
vt 0.19847 0.598354
vt 0.137241 0.598354
vt 0.19847 0.70487
vt 0.137241 0.70487
vt 0.19847 0.823114
vt 0.137241 0.823114
vt 0.19847 0.9537585
vt 0.137241 0.9537585
vt 0.137241 0.173473
vt 0.137241 0.041116
vt 0.0666158 0.041116
vt 0.0666158 0.173473
vt 0.137241 0.29288
vt 0.0666158 0.29288
vt 0.137241 0.399535
vt 0.0666158 0.399535
vt 0.137241 0.49902302
vt 0.0666158 0.49902302
vt 0.137241 0.598354
vt 0.0666158 0.598354
vt 0.137241 0.70487
vt 0.0666158 0.70487
vt 0.137241 0.823114
vt 0.0666158 0.823114
vt 0.137241 0.9537585
vt 0.0666158 0.9537585
vn -0.15041725 -0.7675183 -0.6231294
vn 0.17615996 -0.9837443 0.034853388
vn -0.30139905 -0.92514265 0.23080231
vn -0.5839206 -0.7377665 -0.33872885
vn -0.3885903 -0.10127109 -0.9158284
vn -0.7897786 -0.1624241 -0.5914966
vn -0.39909056 0.62358904 -0.67220783
vn -0.79894465 0.4654686 -0.38082334
vn -0.17603594 0.98376405 -0.034922965
vn -0.6060298 0.77698153 0.17037484
vn 0.15052183 0.76770586 0.6228731
vn -0.323596 0.5900669 0.7396666
vn 0.38862926 0.10174398 0.9157595
vn -0.117957875 0.0146413045 0.9929107
vn 0.39918235 -0.62341654 0.67231345
vn -0.108379155 -0.6131101 0.78252786
vn 0.17615996 -0.9837443 0.034853388
vn -0.30139905 -0.92514265 0.23080231
vn -0.90456504 -0.1462684 0.40045917
vn -0.9048868 -0.14598194 0.39983642
vn -0.9048868 -0.14598197 0.3998365
vn -0.90456545 -0.14626765 0.40045863
vn -0.904378 -0.14705284 0.4005942
vn -0.9043781 -0.14705263 0.4005943
vn -0.9043517 -0.14769332 0.40041828
vn -0.9043517 -0.1476931 0.4004184
vn -0.9045417 -0.14757197 0.4000337
vn -0.9045417 -0.1475719 0.40003362
vn -0.90464854 -0.1473195 0.39988482
vn -0.9046488 -0.14731947 0.39988443
vn -0.9048127 -0.14702949 0.39962023
vn -0.9048127 -0.1470294 0.39962012
vn -0.905053 -0.1463568 0.39932284
vn -0.905053 -0.14635587 0.39932317
vn -0.9048868 -0.14598194 0.39983642
vn -0.9048868 -0.14598197 0.3998365
vn -0.32433704 0.5898982 0.73947656
vn -0.60649335 0.77662235 0.17036274
vn -0.1750699 0.98392105 -0.03535315
vn 0.1505397 0.767774 0.6227848
vn 0.30460048 0.92378306 -0.23204197
vn -0.1185815 0.014416473 0.9928397
vn 0.5856748 0.7370348 0.3372903
vn 0.38842693 0.10148529 0.915874
vn -0.11063072 -0.6126163 0.78259957
vn 0.7901432 0.16226374 0.5910536
vn 0.39875 -0.6237258 0.67228305
vn -0.3039158 -0.92403316 0.23194374
vn 0.7993195 -0.46524075 0.38031483
vn 0.17551605 -0.98384166 0.03535147
vn -0.5849701 -0.7374595 -0.337585
vn 0.6068724 -0.776322 -0.17038216
vn -0.15026322 -0.76773304 -0.6229021
vn -0.7898481 -0.16190523 -0.5915459
vn 0.3248112 -0.58998024 -0.7392031
vn -0.38826305 -0.10200639 -0.91588557
vn -0.79891807 0.4654741 -0.38087237
vn 0.11869426 -0.014047105 -0.99283147
vn -0.39857325 0.62358654 -0.672517
vn -0.60649335 0.77662235 0.17036274
vn 0.11072143 0.61256546 -0.78262657
vn -0.1750699 0.98392105 -0.03535315
vn 0.30460048 0.92378306 -0.23204197
vn 0.90468496 0.14758123 -0.39970604
vn 0.90450305 0.1478684 -0.40001157
vn 0.90450305 0.14786841 -0.40001154
vn 0.90468484 0.14758101 -0.3997062
vn 0.9047937 0.1471593 -0.3996156
vn 0.90479374 0.14715908 -0.39961538
vn 0.9049771 0.14651333 -0.39943743
vn 0.9049771 0.14651382 -0.39943734
vn 0.9048247 0.14611807 -0.39992732
vn 0.9048247 0.1461181 -0.39992723
vn 0.9045538 0.1463356 -0.40046033
vn 0.9045535 0.1463362 -0.4004606
vn 0.9043878 0.1470426 -0.4005761
vn 0.9043876 0.1470435 -0.40057626
vn 0.904293 0.14775889 -0.40052652
vn 0.904293 0.14775908 -0.4005264
vn 0.90450305 0.1478684 -0.40001157
vn 0.90450305 0.14786841 -0.40001154
vn 0.3239537 -0.5897262 -0.7397817
vn 0.6062514 -0.7768051 -0.17039059
vn 0.17615996 -0.9837443 0.034853388
vn -0.15041725 -0.7675183 -0.6231294
vn 0.11830348 -0.014922977 -0.9928653
vn -0.3885903 -0.10127109 -0.9158284
vn 0.10843624 0.6132846 -0.7823834
vn -0.39909056 0.62358904 -0.67220783
vn 0.3015567 0.92505044 -0.23096582
vn -0.17603594 0.98376405 -0.034922965
vn 0.5839285 0.7379264 0.33836678
vn 0.15052183 0.76770586 0.6228731
vn 0.7900706 0.16166623 0.59131414
vn 0.38862926 0.10174398 0.9157595
vn 0.7992036 -0.46521506 0.38058984
vn 0.39918235 -0.62341654 0.67231345
vn 0.6062514 -0.7768051 -0.17039059
vn 0.17615996 -0.9837443 0.034853388
g M_Acc_0
f 3/3/3 2/2/2 1/1/1
f 4/4/4 3/3/3 1/1/1
f 4/4/4 1/1/1 5/5/5
f 6/6/6 4/4/4 5/5/5
f 6/6/6 5/5/5 7/7/7
f 8/8/8 6/6/6 7/7/7
f 8/8/8 7/7/7 9/9/9
f 10/10/10 8/8/8 9/9/9
f 10/10/10 9/9/9 11/11/11
f 12/12/12 10/10/10 11/11/11
f 12/12/12 11/11/11 13/13/13
f 14/14/14 12/12/12 13/13/13
f 14/14/14 13/13/13 15/15/15
f 16/16/16 14/14/14 15/15/15
f 16/16/16 15/15/15 17/17/17
f 18/18/18 16/16/16 17/17/17
f 21/21/21 20/20/20 19/19/19
f 22/22/22 21/21/21 19/19/19
f 22/22/22 19/19/19 23/23/23
f 24/24/24 22/22/22 23/23/23
f 24/24/24 23/23/23 25/25/25
f 26/26/26 24/24/24 25/25/25
f 26/26/26 25/25/25 27/27/27
f 28/28/28 26/26/26 27/27/27
f 28/28/28 27/27/27 29/29/29
f 30/30/30 28/28/28 29/29/29
f 30/30/30 29/29/29 31/31/31
f 32/32/32 30/30/30 31/31/31
f 32/32/32 31/31/31 33/33/33
f 34/34/34 32/32/32 33/33/33
f 34/34/34 33/33/33 35/35/35
f 36/36/36 34/34/34 35/35/35
f 39/39/39 38/38/38 37/37/37
f 40/40/40 39/39/39 37/37/37
f 41/41/41 39/39/39 40/40/40
f 40/40/40 37/37/37 42/42/42
f 43/43/43 41/41/41 40/40/40
f 44/44/44 40/40/40 42/42/42
f 43/43/43 40/40/40 44/44/44
f 44/44/44 42/42/42 45/45/45
f 46/46/46 43/43/43 44/44/44
f 47/47/47 44/44/44 45/45/45
f 46/46/46 44/44/44 47/47/47
f 47/47/47 45/45/45 48/48/48
f 49/49/49 46/46/46 47/47/47
f 50/50/50 47/47/47 48/48/48
f 49/49/49 47/47/47 50/50/50
f 50/50/50 48/48/48 51/51/51
f 52/52/52 49/49/49 50/50/50
f 53/53/53 50/50/50 51/51/51
f 52/52/52 50/50/50 53/53/53
f 53/53/53 51/51/51 54/54/54
f 55/55/55 52/52/52 53/53/53
f 56/56/56 53/53/53 54/54/54
f 55/55/55 53/53/53 56/56/56
f 56/56/56 54/54/54 57/57/57
f 58/58/58 55/55/55 56/56/56
f 59/59/59 56/56/56 57/57/57
f 58/58/58 56/56/56 59/59/59
f 59/59/59 57/57/57 60/60/60
f 61/61/61 58/58/58 59/59/59
f 62/62/62 59/59/59 60/60/60
f 61/61/61 59/59/59 62/62/62
f 63/63/63 61/61/61 62/62/62
f 66/66/66 65/65/65 64/64/64
f 67/67/67 66/66/66 64/64/64
f 67/67/67 64/64/64 68/68/68
f 69/69/69 67/67/67 68/68/68
f 69/69/69 68/68/68 70/70/70
f 71/71/71 69/69/69 70/70/70
f 71/71/71 70/70/70 72/72/72
f 73/73/73 71/71/71 72/72/72
f 73/73/73 72/72/72 74/74/74
f 75/75/75 73/73/73 74/74/74
f 75/75/75 74/74/74 76/76/76
f 77/77/77 75/75/75 76/76/76
f 77/77/77 76/76/76 78/78/78
f 79/79/79 77/77/77 78/78/78
f 79/79/79 78/78/78 80/80/80
f 81/81/81 79/79/79 80/80/80
f 84/84/84 83/83/83 82/82/82
f 85/85/85 84/84/84 82/82/82
f 85/85/85 82/82/82 86/86/86
f 87/87/87 85/85/85 86/86/86
f 87/87/87 86/86/86 88/88/88
f 89/89/89 87/87/87 88/88/88
f 89/89/89 88/88/88 90/90/90
f 91/91/91 89/89/89 90/90/90
f 91/91/91 90/90/90 92/92/92
f 93/93/93 91/91/91 92/92/92
f 93/93/93 92/92/92 94/94/94
f 95/95/95 93/93/93 94/94/94
f 95/95/95 94/94/94 96/96/96
f 97/97/97 95/95/95 96/96/96
f 97/97/97 96/96/96 98/98/98
f 99/99/99 97/97/97 98/98/98
