g M_Brw_B_Def
v 0.043332614 0.051786955 0.0955519
v 0.04331804 0.052493133 0.09584789
v 0.04560595 0.053482816 0.09505057
v 0.0405452 0.05125305 0.096492
v 0.040722698 0.050294645 0.09614574
v 0.036393985 0.049588773 0.09734988
v 0.03666358 0.048328094 0.096964784
v 0.03251798 0.048159942 0.09798916
v 0.03263213 0.046663206 0.09746114
v 0.02740602 0.046633452 0.09870466
v 0.027561361 0.044524994 0.097898185
v 0.022793591 0.045694884 0.09953747
v 0.022616383 0.042153016 0.0981369
v 0.019372415 0.04472534 0.10001521
v 0.0195815 0.04073944 0.09835536
v 0.0155075835 0.041330107 0.09929497
v 0.016245687 0.03937866 0.098349065
v 0.013599443 0.039086 0.09865725
v 0.013811512 0.038432922 0.09822198
v 0.013095369 0.038315125 0.09834172
v -0.04331804 0.052493133 0.09584789
v -0.043332614 0.051786955 0.0955519
v -0.04560595 0.053482816 0.09505057
v -0.0405452 0.05125305 0.096492
v -0.040722698 0.050294645 0.09614574
v -0.036393985 0.049588773 0.09734988
v -0.03666358 0.048328094 0.096964784
v -0.03251798 0.048159942 0.09798916
v -0.03263213 0.046663206 0.09746114
v -0.02740602 0.046633452 0.09870466
v -0.027561361 0.044524994 0.097898185
v -0.022793591 0.045694884 0.09953747
v -0.022616383 0.042153016 0.0981369
v -0.019372415 0.04472534 0.10001521
v -0.0195815 0.04073944 0.09835536
v -0.0155075835 0.041330107 0.09929497
v -0.016245687 0.03937866 0.098349065
v -0.013599443 0.039086 0.09865725
v -0.013811512 0.038432922 0.09822198
v -0.013095369 0.038315125 0.09834172
vt 0.49188 0.9772852
vt 0.491788 0.9817634
vt 0.506603 0.9879654
vt 0.47427 0.9738806
vt 0.475396 0.9678037
vt 0.447819 0.963367
vt 0.449528 0.9553733
vt 0.423241 0.9543069
vt 0.423965 0.9448169
vt 0.390827 0.944628
vt 0.391812 0.9312584
vt 0.36158 0.9386764
vt 0.360456 0.916218
vt 0.339887 0.9325287
vt 0.341213 0.9072544
vt 0.31538 0.9110002
vt 0.319946 0.898641
vt 0.303281 0.89677
vt 0.304626 0.892629
vt 0.300085 0.891882
vt 0.491788 0.9817634
vt 0.49188 0.9772852
vt 0.506603 0.9879654
vt 0.47427 0.9738806
vt 0.475396 0.9678037
vt 0.447819 0.963367
vt 0.449528 0.9553733
vt 0.423241 0.9543069
vt 0.423965 0.9448169
vt 0.390827 0.944628
vt 0.391812 0.9312584
vt 0.36158 0.9386764
vt 0.360456 0.916218
vt 0.339887 0.9325287
vt 0.341213 0.9072544
vt 0.31538 0.9110002
vt 0.319946 0.898641
vt 0.303281 0.89677
vt 0.304626 0.892629
vt 0.300085 0.891882
vn 0.3830945 -0.3358 0.8605097
vn 0.40172517 -0.34693497 0.84749806
vn 0.43722576 -0.3399664 0.8326203
vn 0.32261655 -0.27293214 0.9063259
vn 0.31587636 -0.26239887 0.9117943
vn 0.27105752 -0.23097138 0.93444103
vn 0.26614136 -0.23868628 0.93391526
vn 0.230997 -0.3026955 0.9246706
vn 0.22769466 -0.31325504 0.9219687
vn 0.22587004 -0.33174115 0.9159316
vn 0.22391209 -0.34492248 0.91153264
vn 0.22523187 -0.3643435 0.90361744
vn 0.22700544 -0.36653662 0.90228564
vn 0.20158076 -0.36879024 0.90739125
vn 0.18624833 -0.3704309 0.9099959
vn 0.1546532 -0.37794203 0.91282105
vn 0.15246364 -0.38794225 0.9089861
vn 0.15561433 -0.436771 0.8860108
vn 0.1684078 -0.50823826 0.84459025
vn 0.22156462 -0.489983 0.84310484
vn -0.40172517 -0.34693503 0.84749806
vn -0.38309443 -0.33580008 0.8605097
vn -0.43722576 -0.3399664 0.8326203
vn -0.32261652 -0.27293214 0.9063259
vn -0.3158763 -0.26239893 0.9117944
vn -0.2710574 -0.23097144 0.93444103
vn -0.26614127 -0.23868625 0.93391526
vn -0.23099697 -0.30269545 0.9246706
vn -0.22769469 -0.31325504 0.9219687
vn -0.22587004 -0.33174115 0.9159316
vn -0.22391209 -0.3449225 0.91153276
vn -0.22523187 -0.36434343 0.90361744
vn -0.22700542 -0.3665366 0.9022857
vn -0.2015808 -0.3687902 0.90739125
vn -0.18624833 -0.37043086 0.9099959
vn -0.15465319 -0.37794206 0.91282105
vn -0.15246363 -0.38794225 0.9089861
vn -0.15561433 -0.43677104 0.8860108
vn -0.16840775 -0.50823826 0.84459025
vn -0.22156462 -0.489983 0.84310484
g M_Brw_B_Def_0
f 3/3/3 2/2/2 1/1/1
f 2/2/2 4/4/4 1/1/1
f 5/5/5 1/1/1 4/4/4
f 4/4/4 6/6/6 5/5/5
f 7/7/7 5/5/5 6/6/6
f 8/8/8 7/7/7 6/6/6
f 8/8/8 9/9/9 7/7/7
f 8/8/8 10/10/10 9/9/9
f 11/11/11 9/9/9 10/10/10
f 12/12/12 11/11/11 10/10/10
f 11/11/11 12/12/12 13/13/13
f 12/12/12 14/14/14 13/13/13
f 13/13/13 14/14/14 15/15/15
f 16/16/16 15/15/15 14/14/14
f 17/17/17 15/15/15 16/16/16
f 16/16/16 18/18/18 17/17/17
f 18/18/18 19/19/19 17/17/17
f 20/20/20 19/19/19 18/18/18
f 23/23/23 22/22/22 21/21/21
f 21/21/21 22/22/22 24/24/24
f 25/25/25 24/24/24 22/22/22
f 24/24/24 25/25/25 26/26/26
f 27/27/27 26/26/26 25/25/25
f 28/28/28 26/26/26 27/27/27
f 28/28/28 27/27/27 29/29/29
f 28/28/28 29/29/29 30/30/30
f 31/31/31 30/30/30 29/29/29
f 32/32/32 30/30/30 31/31/31
f 31/31/31 33/33/33 32/32/32
f 32/32/32 33/33/33 34/34/34
f 33/33/33 35/35/35 34/34/34
f 36/36/36 34/34/34 35/35/35
f 37/37/37 36/36/36 35/35/35
f 36/36/36 37/37/37 38/38/38
f 38/38/38 37/37/37 39/39/39
f 40/40/40 38/38/38 39/39/39
