g M_Brw_B_Def
v 0.01428 0.048551634 0.09801692
v 0.015349999 0.0473616 0.097916916
v 0.01363 0.046781614 0.09808988
v 0.01929 0.050711516 0.097536914
v 0.0187 0.051851653 0.09773692
v 0.02384 0.05310165 0.096956916
v 0.02334 0.05416153 0.09711692
v 0.02838 0.054731596 0.096046925
v 0.02789 0.05572159 0.09620692
v 0.03314 0.05590164 0.09502692
v 0.03275 0.057021637 0.09521692
v 0.03701 0.056711577 0.09381691
v 0.036849998 0.05769165 0.094016925
v 0.042069998 0.05715164 0.09209692
v 0.041989997 0.05806152 0.09237692
v 0.046279997 0.057231598 0.09039692
v 0.04638 0.05823166 0.09042692
v 0.0508 0.05689163 0.08839692
v 0.05104 0.05795166 0.08843692
v 0.055859998 0.05614166 0.08563692
v 0.056069996 0.056981657 0.08560692
v 0.059629995 0.055301514 0.08317692
v 0.059919998 0.055751648 0.083136916
v 0.06388 0.054091644 0.080177106
v -0.015349999 0.0473616 0.097916916
v -0.01428 0.048551634 0.09801692
v -0.01363 0.046781614 0.09808988
v -0.01929 0.050711516 0.097536914
v -0.0187 0.051851653 0.09773692
v -0.02384 0.05310165 0.096956916
v -0.02334 0.05416153 0.09711692
v -0.02838 0.054731596 0.096046925
v -0.02789 0.05572159 0.09620692
v -0.03314 0.05590164 0.09502692
v -0.03275 0.057021637 0.09521692
v -0.03701 0.056711577 0.09381691
v -0.036849998 0.05769165 0.094016925
v -0.042069998 0.05715164 0.09209692
v -0.041989997 0.05806152 0.09237692
v -0.046279997 0.057231598 0.09039692
v -0.04638 0.05823166 0.09042692
v -0.0508 0.05689163 0.08839692
v -0.05104 0.05795166 0.08843692
v -0.055859998 0.05614166 0.08563692
v -0.056069996 0.056981657 0.08560692
v -0.059629995 0.055301514 0.08317692
v -0.059919998 0.055751648 0.083136916
v -0.06388 0.054091644 0.080177106
vt 0.26439 0.89153
vt 0.27101 0.8841
vt 0.26036 0.88055
vt 0.29555 0.90492
vt 0.29184 0.91203
vt 0.32381 0.91978
vt 0.32074 0.92639
vt 0.35206 0.92995
vt 0.34899 0.93608
vt 0.3816 0.93721
vt 0.37918 0.94415
vt 0.40566 0.94222
vt 0.40469 0.94835
vt 0.43714 0.94496
vt 0.43666 0.95061
vt 0.4633 0.94544
vt 0.46393 0.95167
vt 0.49139 0.94334
vt 0.4929 0.94997
vt 0.52287 0.93866
vt 0.52415 0.94393003
vt 0.54628 0.9335
vt 0.54805 0.93624
vt 0.5727 0.92593
vt 0.27101 0.8841
vt 0.26439 0.89153
vt 0.26036 0.88055
vt 0.29555 0.90492
vt 0.29184 0.91203
vt 0.32381 0.91978
vt 0.32074 0.92639
vt 0.35206 0.92995
vt 0.34899 0.93608
vt 0.3816 0.93721
vt 0.37918 0.94415
vt 0.40566 0.94222
vt 0.40469 0.94835
vt 0.43714 0.94496
vt 0.43666 0.95061
vt 0.4633 0.94544
vt 0.46393 0.95167
vt 0.49139 0.94334
vt 0.4929 0.94997
vt 0.52287 0.93866
vt 0.52415 0.94393003
vt 0.54628 0.9335
vt 0.54805 0.93624
vt 0.5727 0.92593
vn 0.10039242 -0.009408195 0.99490345
vn 0.09542567 0.0021514571 0.9954342
vn 0.09842742 0.0048768013 0.99513227
vn 0.14782141 -0.08311155 0.9855157
vn 0.15375607 -0.09190162 0.98382574
vn 0.18945143 -0.059934545 0.9800592
vn 0.18762542 -0.05984396 0.9804159
vn 0.21722218 -0.04963011 0.97485965
vn 0.21648526 -0.053684067 0.9748088
vn 0.26449087 -0.06852259 0.9619508
vn 0.25499848 -0.079878755 0.9636365
vn 0.31739137 -0.13253747 0.93898696
vn 0.3140657 -0.14717679 0.93792415
vn 0.33996806 -0.24192135 0.908788
vn 0.3373935 -0.23850256 0.9106493
vn 0.4015552 -0.07723576 0.91257226
vn 0.4018777 -0.07192116 0.91286457
vn 0.4233076 -0.12661888 0.8970943
vn 0.42639565 -0.12807056 0.8954243
vn 0.49588916 -0.09743366 0.86290246
vn 0.4975242 -0.09647044 0.8620691
vn 0.4929072 -0.22863783 0.8395042
vn 0.4942879 -0.2443192 0.8342587
vn 0.5083144 -0.25438032 0.8227438
vn -0.095425665 0.0021514555 0.9954342
vn -0.1003924 -0.009408169 0.99490345
vn -0.098427415 0.004876801 0.99513227
vn -0.14782138 -0.08311152 0.9855157
vn -0.15375608 -0.09190163 0.98382574
vn -0.18945149 -0.059934534 0.9800592
vn -0.18762547 -0.05984394 0.9804159
vn -0.21722221 -0.049630105 0.97485965
vn -0.21648526 -0.053684045 0.9748088
vn -0.26449102 -0.068522535 0.9619508
vn -0.25499862 -0.079878725 0.9636364
vn -0.31739134 -0.13253742 0.93898696
vn -0.31406575 -0.1471768 0.93792415
vn -0.33996803 -0.24192138 0.90878814
vn -0.33739346 -0.2385025 0.9106493
vn -0.4015552 -0.07723574 0.91257226
vn -0.4018776 -0.07192114 0.91286457
vn -0.42330763 -0.1266189 0.8970943
vn -0.42639568 -0.12807056 0.8954242
vn -0.4958891 -0.09743366 0.86290246
vn -0.49752417 -0.09647045 0.8620692
vn -0.49290705 -0.22863784 0.8395042
vn -0.4942879 -0.24431916 0.8342587
vn -0.5083144 -0.25438032 0.8227438
g M_Brw_B_Def_0
f 3/3/3 2/2/2 1/1/1
f 2/2/2 4/4/4 1/1/1
f 5/5/5 1/1/1 4/4/4
f 5/5/5 4/4/4 6/6/6
f 7/7/7 5/5/5 6/6/6
f 6/6/6 8/8/8 7/7/7
f 7/7/7 8/8/8 9/9/9
f 10/10/10 9/9/9 8/8/8
f 11/11/11 9/9/9 10/10/10
f 10/10/10 12/12/12 11/11/11
f 11/11/11 12/12/12 13/13/13
f 14/14/14 13/13/13 12/12/12
f 15/15/15 13/13/13 14/14/14
f 14/14/14 16/16/16 15/15/15
f 17/17/17 15/15/15 16/16/16
f 16/16/16 18/18/18 17/17/17
f 19/19/19 17/17/17 18/18/18
f 20/20/20 19/19/19 18/18/18
f 20/20/20 21/21/21 19/19/19
f 20/20/20 22/22/22 21/21/21
f 23/23/23 21/21/21 22/22/22
f 23/23/23 22/22/22 24/24/24
f 27/27/27 26/26/26 25/25/25
f 25/25/25 26/26/26 28/28/28
f 29/29/29 28/28/28 26/26/26
f 29/29/29 30/30/30 28/28/28
f 31/31/31 30/30/30 29/29/29
f 30/30/30 31/31/31 32/32/32
f 31/31/31 33/33/33 32/32/32
f 34/34/34 32/32/32 33/33/33
f 35/35/35 34/34/34 33/33/33
f 34/34/34 35/35/35 36/36/36
f 35/35/35 37/37/37 36/36/36
f 38/38/38 36/36/36 37/37/37
f 39/39/39 38/38/38 37/37/37
f 38/38/38 39/39/39 40/40/40
f 41/41/41 40/40/40 39/39/39
f 40/40/40 41/41/41 42/42/42
f 43/43/43 42/42/42 41/41/41
f 44/44/44 42/42/42 43/43/43
f 44/44/44 43/43/43 45/45/45
f 44/44/44 45/45/45 46/46/46
f 47/47/47 46/46/46 45/45/45
f 47/47/47 48/48/48 46/46/46
