g M_Brw_B_Def
v 0.05265008 0.054680783 0.08451906
v 0.051368102 0.054196317 0.08559757
v 0.051321138 0.054593045 0.08566397
v 0.04950034 0.05366516 0.086896025
v 0.049441744 0.054200437 0.08694459
v 0.04690031 0.052986905 0.08844366
v 0.04688086 0.053639524 0.088494584
v 0.043859396 0.0522612 0.089926764
v 0.043767318 0.05302002 0.08992556
v 0.04062002 0.051879425 0.091226645
v 0.040540814 0.052325897 0.091026686
v 0.040762175 0.05144806 0.09107021
v 0.03758192 0.05171646 0.09193731
v 0.03770347 0.051129147 0.092190124
v 0.03780017 0.05053787 0.091900624
v 0.03481342 0.051125333 0.0927401
v 0.03498826 0.05039612 0.09286528
v 0.035173524 0.049630124 0.09257547
v 0.031732447 0.050472718 0.09352539
v 0.032025598 0.049560547 0.09363387
v 0.032333348 0.04865692 0.09316163
v 0.028352777 0.049806364 0.094189964
v 0.028529901 0.0486586 0.094380245
v 0.028838672 0.047546845 0.09376231
v 0.024628207 0.04895935 0.09471153
v 0.025002014 0.04766144 0.09495788
v 0.025293835 0.046333313 0.09417647
v 0.020572951 0.0480249 0.095016174
v 0.021118145 0.04664154 0.09524659
v 0.021669235 0.04526611 0.09444023
v 0.01769905 0.04419067 0.09459172
v 0.017085897 0.04540451 0.09541861
v 0.016413001 0.047030944 0.09523336
v 0.014171831 0.043258056 0.09465839
v 0.013655468 0.04413559 0.095247455
v 0.01337836 0.045265503 0.09508017
v 0.010742266 0.043685455 0.09481888
v 0.011020301 0.04314087 0.09498077
v 0.011332419 0.04264847 0.09459292
v 0.009062704 0.042764433 0.09462522
v 0.009193316 0.042507477 0.094665356
v 0.009338055 0.042274322 0.09448505
v 0.0085069435 0.04220764 0.09441471
v -0.051368102 0.054196317 0.08559757
v -0.05265008 0.054680783 0.08451906
v -0.051321138 0.054593045 0.08566397
v -0.04950034 0.05366516 0.086896025
v -0.049441744 0.054200437 0.08694459
v -0.04690031 0.052986905 0.08844366
v -0.04688086 0.053639524 0.088494584
v -0.043859396 0.0522612 0.089926764
v -0.043767318 0.05302002 0.08992556
v -0.04062002 0.051879425 0.091226645
v -0.040540814 0.052325897 0.091026686
v -0.040762175 0.05144806 0.09107021
v -0.03758192 0.05171646 0.09193731
v -0.03770347 0.051129147 0.092190124
v -0.03780017 0.05053787 0.091900624
v -0.03481342 0.051125333 0.0927401
v -0.03498826 0.05039612 0.09286528
v -0.035173524 0.049630124 0.09257547
v -0.031732447 0.050472718 0.09352539
v -0.032025598 0.049560547 0.09363387
v -0.032333348 0.04865692 0.09316163
v -0.028352777 0.049806364 0.094189964
v -0.028529901 0.0486586 0.094380245
v -0.028838672 0.047546845 0.09376231
v -0.024628207 0.04895935 0.09471153
v -0.025002014 0.04766144 0.09495788
v -0.025293835 0.046333313 0.09417647
v -0.020572951 0.0480249 0.095016174
v -0.021118145 0.04664154 0.09524659
v -0.021669235 0.04526611 0.09444023
v -0.01769905 0.04419067 0.09459172
v -0.017085897 0.04540451 0.09541861
v -0.016413001 0.047030944 0.09523336
v -0.014171831 0.043258056 0.09465839
v -0.013655468 0.04413559 0.095247455
v -0.01337836 0.045265503 0.09508017
v -0.010742266 0.043685455 0.09481888
v -0.011020301 0.04314087 0.09498077
v -0.011332419 0.04264847 0.09459292
v -0.009062704 0.042764433 0.09462522
v -0.009193316 0.042507477 0.094665356
v -0.009338055 0.042274322 0.09448505
v -0.0085069435 0.04220764 0.09441471
vt 0.619714 0.949279
vt 0.610326 0.9487261
vt 0.610657 0.9510843
vt 0.596987 0.9478006
vt 0.59732 0.9518726
vt 0.578393 0.9468836
vt 0.57905 0.9519791
vt 0.556741 0.9460754
vt 0.556884 0.9517674
vt 0.534457 0.9475953
vt 0.533162 0.9508319
vt 0.53319 0.9444818
vt 0.512071 0.9502032
vt 0.512991 0.9459488
vt 0.511887 0.9403727
vt 0.491303 0.9487827
vt 0.493557 0.9425442
vt 0.494304 0.9356491
vt 0.470152 0.9464001
vt 0.471603 0.9389529
vt 0.472453 0.9300551
vt 0.445345 0.9433109
vt 0.44714 0.9332673
vt 0.447633 0.9230077
vt 0.418629 0.9391761
vt 0.422175 0.9273579
vt 0.422951 0.9169008
vt 0.391922 0.9317646
vt 0.395464 0.9194643
vt 0.398232 0.9097239
vt 0.37029 0.9018425
vt 0.367159 0.909573
vt 0.364507 0.9184722
vt 0.346404 0.89546
vt 0.343632 0.9010371
vt 0.342687 0.9070796
vt 0.323435 0.897033
vt 0.325233 0.893122
vt 0.326969 0.889979
vt 0.311203 0.889718
vt 0.311544 0.8877
vt 0.31344 0.886034
vt 0.307497 0.885475
vt 0.610326 0.9487261
vt 0.619714 0.949279
vt 0.610657 0.9510843
vt 0.596987 0.9478006
vt 0.59732 0.9518726
vt 0.578393 0.9468836
vt 0.57905 0.9519791
vt 0.556741 0.9460754
vt 0.556884 0.9517674
vt 0.534457 0.9475953
vt 0.533162 0.9508319
vt 0.53319 0.9444818
vt 0.512071 0.9502032
vt 0.512991 0.9459488
vt 0.511887 0.9403727
vt 0.491303 0.9487827
vt 0.493557 0.9425442
vt 0.494304 0.9356491
vt 0.470152 0.9464001
vt 0.471603 0.9389529
vt 0.472453 0.9300551
vt 0.445345 0.9433109
vt 0.44714 0.9332673
vt 0.447633 0.9230077
vt 0.418629 0.9391761
vt 0.422175 0.9273579
vt 0.422951 0.9169008
vt 0.391922 0.9317646
vt 0.395464 0.9194643
vt 0.398232 0.9097239
vt 0.37029 0.9018425
vt 0.367159 0.909573
vt 0.364507 0.9184722
vt 0.346404 0.89546
vt 0.343632 0.9010371
vt 0.342687 0.9070796
vt 0.323435 0.897033
vt 0.325233 0.893122
vt 0.326969 0.889979
vt 0.311203 0.889718
vt 0.311544 0.8877
vt 0.31344 0.886034
vt 0.307497 0.885475
vn 0.65377617 -0.048976887 0.75510126
vn 0.61200595 -0.05952819 0.78860956
vn 0.608932 -0.053909443 0.7913884
vn 0.5358368 -0.019928154 0.84408635
vn 0.5379835 -0.020298785 0.8427109
vn 0.4804708 -0.052697483 0.87542605
vn 0.48430037 -0.044465642 0.8737711
vn 0.3894333 0.0366786 0.920324
vn 0.38571894 0.05971042 0.9206821
vn 0.2990692 0.124797426 0.94603556
vn 0.19726498 0.42964518 0.8811876
vn 0.3718761 -0.21892288 0.90209806
vn 0.1778942 0.42023265 0.8898079
vn 0.2793121 0.020647708 0.9599783
vn 0.336825 -0.35809273 0.8708149
vn 0.190706 0.22290966 0.9560033
vn 0.26432335 -0.03928606 0.9636336
vn 0.317228 -0.27878284 0.9064471
vn 0.1766935 0.17393629 0.96877533
vn 0.24708438 -0.10602129 0.9631764
vn 0.29292285 -0.36800325 0.88247937
vn 0.12835276 0.18023437 0.9752134
vn 0.20843162 -0.123270296 0.97023743
vn 0.26819506 -0.41506422 0.86936367
vn 0.060557343 0.2000953 0.9779032
vn 0.15331389 -0.15305278 0.97625285
vn 0.21934329 -0.45479605 0.8631623
vn 0.012366947 0.16293341 0.9865595
vn 0.100057505 -0.15759791 0.9824212
vn 0.17505361 -0.44480523 0.8783533
vn 0.16708176 -0.48922747 0.8560024
vn 0.06502322 -0.17537774 0.9823516
vn -0.025357775 0.10590524 0.9940528
vn 0.13081661 -0.5035262 0.8540189
vn -0.00629878 -0.19982153 0.979812
vn -0.13416916 0.11286081 0.9845106
vn -0.1826132 0.16885741 0.9685761
vn -0.037566528 -0.24724637 0.96822417
vn 0.09245374 -0.5791734 0.8099448
vn -0.22644232 0.074028805 0.9712073
vn -0.08324335 -0.33032557 0.9401891
vn 0.048417013 -0.5920351 0.80445635
vn -0.16799837 -0.37687692 0.91090083
vn -0.6120057 -0.05952826 0.7886098
vn -0.65377617 -0.048976894 0.75510126
vn -0.6089318 -0.05390954 0.7913886
vn -0.535837 -0.019928169 0.8440863
vn -0.5379836 -0.02029878 0.8427109
vn -0.4804708 -0.052697495 0.87542605
vn -0.48430037 -0.044465642 0.8737711
vn -0.38943326 0.036678582 0.920324
vn -0.385719 0.059710406 0.9206821
vn -0.29906932 0.12479699 0.94603556
vn -0.19726498 0.4296452 0.8811876
vn -0.37187612 -0.21892287 0.90209806
vn -0.1778942 0.42023265 0.8898079
vn -0.279312 0.020648155 0.9599784
vn -0.336825 -0.3580927 0.8708149
vn -0.19070603 0.22290964 0.9560034
vn -0.26432326 -0.03928589 0.9636336
vn -0.317228 -0.2787828 0.90644723
vn -0.17669353 0.1739363 0.96877533
vn -0.24708432 -0.1060212 0.9631764
vn -0.29292282 -0.36800325 0.88247937
vn -0.12835276 0.18023434 0.9752134
vn -0.20843157 -0.12327008 0.97023743
vn -0.26819512 -0.41506425 0.86936367
vn -0.060557265 0.20009528 0.9779033
vn -0.15331377 -0.15305251 0.976253
vn -0.21934329 -0.45479605 0.8631623
vn -0.012366976 0.16293342 0.9865595
vn -0.100057386 -0.15759748 0.9824212
vn -0.17505364 -0.44480523 0.8783533
vn -0.16708176 -0.48922747 0.8560024
vn -0.065023154 -0.17537753 0.9823516
vn 0.025357753 0.10590522 0.9940528
vn -0.13081664 -0.5035262 0.8540189
vn 0.0062987516 -0.19982156 0.979812
vn 0.13416919 0.112860784 0.9845106
vn 0.1826132 0.16885743 0.9685761
vn 0.037566766 -0.24724567 0.9682243
vn -0.092453755 -0.5791734 0.8099448
vn 0.2264423 0.07402883 0.9712073
vn 0.08324336 -0.33032563 0.9401891
vn -0.048416995 -0.5920352 0.8044565
vn 0.16799824 -0.37687722 0.9109008
g M_Brw_B_Def_0
f 3/3/3 2/2/2 1/1/1
f 4/4/4 2/2/2 3/3/3
f 4/4/4 3/3/3 5/5/5
f 5/5/5 6/6/6 4/4/4
f 5/5/5 7/7/7 6/6/6
f 8/8/8 6/6/6 7/7/7
f 8/8/8 7/7/7 9/9/9
f 9/9/9 10/10/10 8/8/8
f 11/11/11 10/10/10 9/9/9
f 12/12/12 8/8/8 10/10/10
f 13/13/13 10/10/10 11/11/11
f 12/12/12 10/10/10 14/14/14
f 13/13/13 14/14/14 10/10/10
f 12/12/12 14/14/14 15/15/15
f 16/16/16 14/14/14 13/13/13
f 15/15/15 14/14/14 17/17/17
f 16/16/16 17/17/17 14/14/14
f 15/15/15 17/17/17 18/18/18
f 19/19/19 17/17/17 16/16/16
f 18/18/18 17/17/17 20/20/20
f 19/19/19 20/20/20 17/17/17
f 18/18/18 20/20/20 21/21/21
f 22/22/22 20/20/20 19/19/19
f 21/21/21 20/20/20 23/23/23
f 22/22/22 23/23/23 20/20/20
f 21/21/21 23/23/23 24/24/24
f 25/25/25 23/23/23 22/22/22
f 24/24/24 23/23/23 26/26/26
f 25/25/25 26/26/26 23/23/23
f 24/24/24 26/26/26 27/27/27
f 28/28/28 26/26/26 25/25/25
f 27/27/27 26/26/26 29/29/29
f 28/28/28 29/29/29 26/26/26
f 27/27/27 29/29/29 30/30/30
f 30/30/30 29/29/29 31/31/31
f 28/28/28 32/32/32 29/29/29
f 31/31/31 29/29/29 32/32/32
f 33/33/33 32/32/32 28/28/28
f 31/31/31 32/32/32 34/34/34
f 33/33/33 35/35/35 32/32/32
f 34/34/34 32/32/32 35/35/35
f 36/36/36 35/35/35 33/33/33
f 37/37/37 35/35/35 36/36/36
f 34/34/34 35/35/35 38/38/38
f 37/37/37 38/38/38 35/35/35
f 34/34/34 38/38/38 39/39/39
f 40/40/40 38/38/38 37/37/37
f 39/39/39 38/38/38 41/41/41
f 40/40/40 41/41/41 38/38/38
f 39/39/39 41/41/41 42/42/42
f 43/43/43 41/41/41 40/40/40
f 42/42/42 41/41/41 43/43/43
f 46/46/46 45/45/45 44/44/44
f 47/47/47 46/46/46 44/44/44
f 47/47/47 48/48/48 46/46/46
f 48/48/48 47/47/47 49/49/49
f 48/48/48 49/49/49 50/50/50
f 51/51/51 50/50/50 49/49/49
f 51/51/51 52/52/52 50/50/50
f 52/52/52 51/51/51 53/53/53
f 54/54/54 52/52/52 53/53/53
f 55/55/55 53/53/53 51/51/51
f 56/56/56 54/54/54 53/53/53
f 55/55/55 57/57/57 53/53/53
f 56/56/56 53/53/53 57/57/57
f 55/55/55 58/58/58 57/57/57
f 59/59/59 56/56/56 57/57/57
f 58/58/58 60/60/60 57/57/57
f 59/59/59 57/57/57 60/60/60
f 58/58/58 61/61/61 60/60/60
f 62/62/62 59/59/59 60/60/60
f 61/61/61 63/63/63 60/60/60
f 62/62/62 60/60/60 63/63/63
f 61/61/61 64/64/64 63/63/63
f 65/65/65 62/62/62 63/63/63
f 64/64/64 66/66/66 63/63/63
f 65/65/65 63/63/63 66/66/66
f 64/64/64 67/67/67 66/66/66
f 68/68/68 65/65/65 66/66/66
f 67/67/67 69/69/69 66/66/66
f 68/68/68 66/66/66 69/69/69
f 67/67/67 70/70/70 69/69/69
f 71/71/71 68/68/68 69/69/69
f 70/70/70 72/72/72 69/69/69
f 71/71/71 69/69/69 72/72/72
f 70/70/70 73/73/73 72/72/72
f 73/73/73 74/74/74 72/72/72
f 71/71/71 72/72/72 75/75/75
f 74/74/74 75/75/75 72/72/72
f 76/76/76 71/71/71 75/75/75
f 74/74/74 77/77/77 75/75/75
f 76/76/76 75/75/75 78/78/78
f 77/77/77 78/78/78 75/75/75
f 79/79/79 76/76/76 78/78/78
f 80/80/80 79/79/79 78/78/78
f 77/77/77 81/81/81 78/78/78
f 80/80/80 78/78/78 81/81/81
f 77/77/77 82/82/82 81/81/81
f 83/83/83 80/80/80 81/81/81
f 82/82/82 84/84/84 81/81/81
f 83/83/83 81/81/81 84/84/84
f 82/82/82 85/85/85 84/84/84
f 86/86/86 83/83/83 84/84/84
f 85/85/85 86/86/86 84/84/84
