g M_Brw_B_Def
v 0.056496266 0.046821747 0.080961615
v 0.05673206 0.047451932 0.08077024
v 0.057091337 0.04679733 0.080349624
v 0.054296095 0.048505858 0.08359909
v 0.054105505 0.04778305 0.08355112
v 0.05115636 0.049657285 0.086289175
v 0.050989404 0.04883194 0.08614704
v 0.047945525 0.050577085 0.08879951
v 0.04780139 0.049719848 0.08851258
v 0.04446722 0.051506195 0.090839736
v 0.044386234 0.050532226 0.090591244
v 0.040824093 0.052160338 0.09252991
v 0.040605254 0.05108734 0.092149615
v 0.036315728 0.052956387 0.09401447
v 0.036362547 0.05168869 0.09360982
v 0.032277565 0.053526152 0.095076434
v 0.032182764 0.051827088 0.09460016
v 0.027464988 0.053767547 0.096044995
v 0.027609564 0.051914062 0.09563657
v 0.023146067 0.05356659 0.09674128
v 0.023121573 0.051631927 0.09630239
v 0.020124145 0.0530899 0.09714166
v 0.020187456 0.051256254 0.09667362
v 0.01689035 0.052381743 0.097415306
v 0.017096838 0.05053253 0.09696787
v 0.014365524 0.04981964 0.097207695
v 0.0138973165 0.051292725 0.097661376
v 0.0121230185 0.04905136 0.09723766
v 0.011441714 0.05011505 0.097717315
v 0.0101600075 0.04913101 0.09753477
v 0.010412445 0.048485566 0.0973331
v 0.009661328 0.048340302 0.09732238
v -0.05673206 0.047451932 0.08077024
v -0.056496266 0.046821747 0.080961615
v -0.057091337 0.04679733 0.080349624
v -0.054296095 0.048505858 0.08359909
v -0.054105505 0.04778305 0.08355112
v -0.05115636 0.049657285 0.086289175
v -0.050989404 0.04883194 0.08614704
v -0.047945525 0.050577085 0.08879951
v -0.04780139 0.049719848 0.08851258
v -0.04446722 0.051506195 0.090839736
v -0.044386234 0.050532226 0.090591244
v -0.040824093 0.052160338 0.09252991
v -0.040605254 0.05108734 0.092149615
v -0.036315728 0.052956387 0.09401447
v -0.036362547 0.05168869 0.09360982
v -0.032277565 0.053526152 0.095076434
v -0.032182764 0.051827088 0.09460016
v -0.027464988 0.053767547 0.096044995
v -0.027609564 0.051914062 0.09563657
v -0.023146067 0.05356659 0.09674128
v -0.023121573 0.051631927 0.09630239
v -0.020124145 0.0530899 0.09714166
v -0.020187456 0.051256254 0.09667362
v -0.01689035 0.052381743 0.097415306
v -0.017096838 0.05053253 0.09696787
v -0.014365524 0.04981964 0.097207695
v -0.0138973165 0.051292725 0.097661376
v -0.0121230185 0.04905136 0.09723766
v -0.011441714 0.05011505 0.097717315
v -0.0101600075 0.04913101 0.09753477
v -0.010412445 0.048485566 0.0973331
v -0.009661328 0.048340302 0.09732238
vt 0.61427 0.9201505
vt 0.615098 0.9244671
vt 0.61811 0.9206469
vt 0.599165 0.9287457
vt 0.598557 0.92389417
vt 0.579986 0.9332955
vt 0.579366 0.9278245
vt 0.561297 0.936992
vt 0.560592 0.9314116
vt 0.541052 0.9415825
vt 0.540635 0.935309
vt 0.519079 0.9447396
vt 0.517878 0.9376636
vt 0.490018 0.9485984
vt 0.49055 0.9401627
vt 0.463815 0.9509666
vt 0.463335 0.93980217
vt 0.432954 0.9512692
vt 0.434147 0.9394253
vt 0.406236 0.950059
vt 0.406454 0.937831
vt 0.387713 0.9478646
vt 0.388457 0.9362381
vt 0.367787 0.9446717
vt 0.369371 0.9329565
vt 0.352233 0.9294102
vt 0.349034 0.9390405
vt 0.337834 0.9240515
vt 0.333348 0.9326282
vt 0.324998 0.9279997
vt 0.327429 0.9210846
vt 0.321899 0.9219522
vt 0.615098 0.9244671
vt 0.61427 0.9201505
vt 0.61811 0.9206469
vt 0.599165 0.9287457
vt 0.598557 0.92389417
vt 0.579986 0.9332955
vt 0.579366 0.9278245
vt 0.561297 0.936992
vt 0.560592 0.9314116
vt 0.541052 0.9415825
vt 0.540635 0.935309
vt 0.519079 0.9447396
vt 0.517878 0.9376636
vt 0.490018 0.9485984
vt 0.49055 0.9401627
vt 0.463815 0.9509666
vt 0.463335 0.93980217
vt 0.432954 0.9512692
vt 0.434147 0.9394253
vt 0.406236 0.950059
vt 0.406454 0.937831
vt 0.387713 0.9478646
vt 0.388457 0.9362381
vt 0.367787 0.9446717
vt 0.369371 0.9329565
vt 0.352233 0.9294102
vt 0.349034 0.9390405
vt 0.337834 0.9240515
vt 0.333348 0.9326282
vt 0.324998 0.9279997
vt 0.327429 0.9210846
vt 0.321899 0.9219522
vn 0.73263973 -0.08772821 0.6749391
vn 0.7378778 -0.07229843 0.67105085
vn 0.7147183 -0.055700947 0.6971909
vn 0.63065094 -0.20724843 0.74788207
vn 0.6310341 -0.219181 0.7441476
vn 0.5600795 -0.2471612 0.79071
vn 0.5574898 -0.25606307 0.78970677
vn 0.44412917 -0.3448047 0.82695776
vn 0.45886016 -0.34335378 0.8194849
vn 0.40270913 -0.2633371 0.8766293
vn 0.41227806 -0.26842022 0.870619
vn 0.26746166 -0.36315784 0.89251363
vn 0.27192083 -0.3623285 0.8915027
vn 0.2322388 -0.29391626 0.9271884
vn 0.24553114 -0.2842419 0.92677987
vn 0.1913712 -0.2758101 0.9419691
vn 0.19857019 -0.2648461 0.94362414
vn 0.18394478 -0.20651758 0.96099675
vn 0.18994994 -0.19974719 0.9612596
vn 0.16000545 -0.21736781 0.96288604
vn 0.15757994 -0.22300525 0.96199644
vn 0.14547092 -0.23626068 0.9607388
vn 0.14358827 -0.23610306 0.9610607
vn 0.14405361 -0.22559716 0.9635115
vn 0.14226225 -0.21774656 0.9655816
vn 0.1351647 -0.2456196 0.9598967
vn 0.14998668 -0.2565653 0.9548184
vn 0.1427535 -0.30283672 0.9422905
vn 0.15463871 -0.32211104 0.9339868
vn 0.11889212 -0.29382297 0.9484369
vn 0.110490695 -0.25676873 0.9601363
vn 0.0411128 -0.28328773 0.9581533
vn -0.7378777 -0.0722984 0.6710509
vn -0.7326397 -0.08772817 0.6749391
vn -0.71471834 -0.055700947 0.6971909
vn -0.63065076 -0.2072484 0.7478821
vn -0.6310341 -0.219181 0.7441477
vn -0.5600795 -0.24716115 0.79071
vn -0.5574898 -0.25606307 0.78970677
vn -0.44412917 -0.34480467 0.82695776
vn -0.45886028 -0.34335384 0.81948483
vn -0.40270913 -0.2633371 0.8766293
vn -0.41227812 -0.2684202 0.870619
vn -0.26746166 -0.3631578 0.89251375
vn -0.27192077 -0.36232847 0.8915027
vn -0.23223878 -0.29391623 0.92718846
vn -0.24553111 -0.28424194 0.92677987
vn -0.1913712 -0.2758101 0.9419691
vn -0.19857019 -0.2648461 0.94362414
vn -0.18394479 -0.20651758 0.96099675
vn -0.18994994 -0.19974719 0.9612596
vn -0.16000544 -0.21736777 0.96288604
vn -0.15757993 -0.22300526 0.96199644
vn -0.14547092 -0.23626065 0.9607388
vn -0.14358824 -0.23610303 0.9610607
vn -0.14405362 -0.22559716 0.9635115
vn -0.14226227 -0.21774657 0.9655816
vn -0.13516463 -0.24561962 0.9598967
vn -0.14998665 -0.25656533 0.9548184
vn -0.14275347 -0.30283675 0.9422905
vn -0.15463874 -0.32211104 0.9339868
vn -0.11889216 -0.29382306 0.9484369
vn -0.11049074 -0.2567687 0.9601363
vn -0.041112795 -0.28328776 0.9581533
g M_Brw_B_Def_0
f 3/3/3 2/2/2 1/1/1
f 4/4/4 1/1/1 2/2/2
f 5/5/5 1/1/1 4/4/4
f 4/4/4 6/6/6 5/5/5
f 5/5/5 6/6/6 7/7/7
f 8/8/8 7/7/7 6/6/6
f 9/9/9 7/7/7 8/8/8
f 8/8/8 10/10/10 9/9/9
f 9/9/9 10/10/10 11/11/11
f 12/12/12 11/11/11 10/10/10
f 13/13/13 11/11/11 12/12/12
f 12/12/12 14/14/14 13/13/13
f 13/13/13 14/14/14 15/15/15
f 16/16/16 15/15/15 14/14/14
f 17/17/17 15/15/15 16/16/16
f 16/16/16 18/18/18 17/17/17
f 17/17/17 18/18/18 19/19/19
f 20/20/20 19/19/19 18/18/18
f 21/21/21 19/19/19 20/20/20
f 20/20/20 22/22/22 21/21/21
f 21/21/21 22/22/22 23/23/23
f 24/24/24 23/23/23 22/22/22
f 25/25/25 23/23/23 24/24/24
f 24/24/24 26/26/26 25/25/25
f 24/24/24 27/27/27 26/26/26
f 28/28/28 26/26/26 27/27/27
f 28/28/28 27/27/27 29/29/29
f 29/29/29 30/30/30 28/28/28
f 30/30/30 31/31/31 28/28/28
f 32/32/32 31/31/31 30/30/30
f 35/35/35 34/34/34 33/33/33
f 36/36/36 33/33/33 34/34/34
f 37/37/37 36/36/36 34/34/34
f 36/36/36 37/37/37 38/38/38
f 37/37/37 39/39/39 38/38/38
f 40/40/40 38/38/38 39/39/39
f 41/41/41 40/40/40 39/39/39
f 40/40/40 41/41/41 42/42/42
f 41/41/41 43/43/43 42/42/42
f 44/44/44 42/42/42 43/43/43
f 45/45/45 44/44/44 43/43/43
f 44/44/44 45/45/45 46/46/46
f 45/45/45 47/47/47 46/46/46
f 48/48/48 46/46/46 47/47/47
f 49/49/49 48/48/48 47/47/47
f 48/48/48 49/49/49 50/50/50
f 49/49/49 51/51/51 50/50/50
f 52/52/52 50/50/50 51/51/51
f 53/53/53 52/52/52 51/51/51
f 52/52/52 53/53/53 54/54/54
f 53/53/53 55/55/55 54/54/54
f 56/56/56 54/54/54 55/55/55
f 57/57/57 56/56/56 55/55/55
f 56/56/56 57/57/57 58/58/58
f 56/56/56 58/58/58 59/59/59
f 60/60/60 59/59/59 58/58/58
f 60/60/60 61/61/61 59/59/59
f 61/61/61 60/60/60 62/62/62
f 62/62/62 60/60/60 63/63/63
f 64/64/64 62/62/62 63/63/63
