g M_Brw_B_Def
v 0.05388419 0.045400083 0.0834196
v 0.053983867 0.045910947 0.08349153
v 0.05610449 0.04470505 0.08101679
v 0.05114637 0.047021635 0.08588668
v 0.050981656 0.04632736 0.08572728
v 0.048122756 0.047871094 0.087858
v 0.04795678 0.04713333 0.087700844
v 0.04516486 0.04842285 0.08935245
v 0.04509781 0.047668457 0.08915612
v 0.04228161 0.04884201 0.09063322
v 0.042211473 0.048092347 0.090409495
v 0.039032906 0.04917511 0.09182147
v 0.039031792 0.048412934 0.09157851
v 0.03471036 0.049463194 0.09309421
v 0.034735058 0.04875641 0.09291019
v 0.03056936 0.049451597 0.09418432
v 0.030705916 0.04863632 0.093869954
v 0.026556628 0.049151458 0.0949777
v 0.026692953 0.047898863 0.094585456
v 0.022251539 0.048339233 0.09562415
v 0.02252949 0.046090696 0.09499826
v 0.01748942 0.04668869 0.095927745
v 0.01777016 0.04426941 0.095182724
v 0.01343808 0.044568785 0.09576574
v 0.01397318 0.042777862 0.09518133
v 0.0109263975 0.042709503 0.09538219
v 0.01130166 0.041861113 0.09514817
v 0.009266559 0.04149597 0.09525327
v 0.009516628 0.041158903 0.095128655
v 0.008625047 0.04088974 0.09514363
v -0.053983867 0.045910947 0.08349153
v -0.05388419 0.045400083 0.0834196
v -0.05610449 0.04470505 0.08101679
v -0.05114637 0.047021635 0.08588668
v -0.050981656 0.04632736 0.08572728
v -0.048122756 0.047871094 0.087858
v -0.04795678 0.04713333 0.087700844
v -0.04516486 0.04842285 0.08935245
v -0.04509781 0.047668457 0.08915612
v -0.04228161 0.04884201 0.09063322
v -0.042211473 0.048092347 0.090409495
v -0.039032906 0.04917511 0.09182147
v -0.039031792 0.048412934 0.09157851
v -0.03471036 0.049463194 0.09309421
v -0.034735058 0.04875641 0.09291019
v -0.03056936 0.049451597 0.09418432
v -0.030705916 0.04863632 0.093869954
v -0.026556628 0.049151458 0.0949777
v -0.026692953 0.047898863 0.094585456
v -0.022251539 0.048339233 0.09562415
v -0.02252949 0.046090696 0.09499826
v -0.01748942 0.04668869 0.095927745
v -0.01777016 0.04426941 0.095182724
v -0.01343808 0.044568785 0.09576574
v -0.01397318 0.042777862 0.09518133
v -0.0109263975 0.042709503 0.09538219
v -0.01130166 0.041861113 0.09514817
v -0.009266559 0.04149597 0.09525327
v -0.009516628 0.041158903 0.095128655
v -0.008625047 0.04088974 0.09514363
vt 0.606376 0.9352337
vt 0.606876 0.9370798
vt 0.620185 0.9298376
vt 0.587245 0.9462144
vt 0.586016 0.9420357
vt 0.566487 0.9518223
vt 0.565349 0.9475721
vt 0.545504 0.9557695
vt 0.54475 0.9500623
vt 0.525722 0.9580125
vt 0.524981 0.9531907
vt 0.503191 0.960209
vt 0.504061 0.9548846
vt 0.474366 0.9596747
vt 0.474533 0.9546493
vt 0.445906 0.9578193
vt 0.446842 0.9521087
vt 0.418334 0.9553252
vt 0.41927 0.9469123
vt 0.38877 0.95116377
vt 0.390679 0.9364282
vt 0.356085 0.9426287
vt 0.358013 0.9262672
vt 0.328279 0.9296947
vt 0.331952 0.9173222
vt 0.311035 0.9172364
vt 0.313612 0.9114006
vt 0.299636 0.908908
vt 0.301353 0.9065927
vt 0.293421 0.90438247
vt 0.606876 0.9370798
vt 0.606376 0.9352337
vt 0.620185 0.9298376
vt 0.587245 0.9462144
vt 0.586016 0.9420357
vt 0.566487 0.9518223
vt 0.565349 0.9475721
vt 0.545504 0.9557695
vt 0.54475 0.9500623
vt 0.525722 0.9580125
vt 0.524981 0.9531907
vt 0.503191 0.960209
vt 0.504061 0.9548846
vt 0.474366 0.9596747
vt 0.474533 0.9546493
vt 0.445906 0.9578193
vt 0.446842 0.9521087
vt 0.418334 0.9553252
vt 0.41927 0.9469123
vt 0.38877 0.95116377
vt 0.390679 0.9364282
vt 0.356085 0.9426287
vt 0.358013 0.9262672
vt 0.328279 0.9296947
vt 0.331952 0.9173222
vt 0.311035 0.9172364
vt 0.313612 0.9114006
vt 0.299636 0.908908
vt 0.301353 0.9065927
vt 0.293421 0.90438247
vn 0.62740386 -0.23464556 0.7424997
vn 0.61692744 -0.22648709 0.75372684
vn 0.6804683 -0.23069383 0.6955165
vn 0.49247 -0.3013659 0.8164875
vn 0.50007695 -0.30357647 0.81102675
vn 0.4296877 -0.2806833 0.8582455
vn 0.43597123 -0.27951106 0.8554546
vn 0.3761115 -0.26536542 0.88776195
vn 0.37963882 -0.26684046 0.88581634
vn 0.32028052 -0.29598758 0.89989537
vn 0.3229771 -0.29764664 0.8983832
vn 0.271444 -0.29317406 0.91671544
vn 0.27848428 -0.28906474 0.9159083
vn 0.25759256 -0.23865983 0.93631595
vn 0.25912306 -0.24024674 0.9354875
vn 0.21720675 -0.31575102 0.9236464
vn 0.21945262 -0.3121329 0.92434496
vn 0.20370474 -0.27450505 0.9397614
vn 0.20387824 -0.2639972 0.9427296
vn 0.17178029 -0.24621777 0.9538702
vn 0.1663805 -0.25020245 0.9537904
vn 0.13059069 -0.27373728 0.95289767
vn 0.12505813 -0.2784869 0.95226336
vn 0.09695923 -0.28306118 0.9541883
vn 0.09280499 -0.28143802 0.9550811
vn 0.07526432 -0.2553516 0.96391433
vn 0.077617705 -0.23437294 0.96904325
vn 0.09637008 -0.25939897 0.9609501
vn 0.0996242 -0.27916044 0.95506257
vn 0.100197434 -0.27875197 0.9551219
vn -0.6169275 -0.22648709 0.75372684
vn -0.6274039 -0.23464556 0.7424997
vn -0.6804683 -0.23069383 0.6955165
vn -0.49247 -0.30136594 0.8164875
vn -0.5000769 -0.3035764 0.81102675
vn -0.42968777 -0.28068337 0.8582455
vn -0.4359713 -0.27951106 0.8554546
vn -0.37611154 -0.2653654 0.88776195
vn -0.37963885 -0.2668405 0.88581634
vn -0.32028052 -0.29598758 0.89989537
vn -0.32297707 -0.29764664 0.8983832
vn -0.27144393 -0.29317397 0.91671544
vn -0.2784842 -0.28906476 0.9159083
vn -0.25759253 -0.23865983 0.93631595
vn -0.25912306 -0.24024671 0.9354875
vn -0.2172067 -0.31575102 0.9236464
vn -0.21945253 -0.31213284 0.92434496
vn -0.20370474 -0.274505 0.9397614
vn -0.2038783 -0.2639972 0.9427296
vn -0.1717803 -0.2462178 0.9538702
vn -0.16638051 -0.25020242 0.95379055
vn -0.1305907 -0.27373728 0.95289767
vn -0.12505816 -0.278487 0.95226336
vn -0.09695923 -0.28306118 0.9541883
vn -0.092805006 -0.28143805 0.9550811
vn -0.07526431 -0.25535157 0.96391433
vn -0.07761771 -0.23437297 0.96904325
vn -0.096370086 -0.259399 0.9609501
vn -0.0996242 -0.2791604 0.95506257
vn -0.100197434 -0.27875197 0.9551219
g M_Brw_B_Def_0
f 3/3/3 2/2/2 1/1/1
f 2/2/2 4/4/4 1/1/1
f 5/5/5 1/1/1 4/4/4
f 4/4/4 6/6/6 5/5/5
f 5/5/5 6/6/6 7/7/7
f 8/8/8 7/7/7 6/6/6
f 9/9/9 7/7/7 8/8/8
f 8/8/8 10/10/10 9/9/9
f 9/9/9 10/10/10 11/11/11
f 12/12/12 11/11/11 10/10/10
f 13/13/13 11/11/11 12/12/12
f 12/12/12 14/14/14 13/13/13
f 13/13/13 14/14/14 15/15/15
f 16/16/16 15/15/15 14/14/14
f 17/17/17 15/15/15 16/16/16
f 16/16/16 18/18/18 17/17/17
f 17/17/17 18/18/18 19/19/19
f 20/20/20 19/19/19 18/18/18
f 21/21/21 19/19/19 20/20/20
f 20/20/20 22/22/22 21/21/21
f 22/22/22 23/23/23 21/21/21
f 22/22/22 24/24/24 23/23/23
f 25/25/25 23/23/23 24/24/24
f 24/24/24 26/26/26 25/25/25
f 26/26/26 27/27/27 25/25/25
f 26/26/26 28/28/28 27/27/27
f 28/28/28 29/29/29 27/27/27
f 30/30/30 29/29/29 28/28/28
f 33/33/33 32/32/32 31/31/31
f 31/31/31 32/32/32 34/34/34
f 35/35/35 34/34/34 32/32/32
f 34/34/34 35/35/35 36/36/36
f 35/35/35 37/37/37 36/36/36
f 38/38/38 36/36/36 37/37/37
f 39/39/39 38/38/38 37/37/37
f 38/38/38 39/39/39 40/40/40
f 39/39/39 41/41/41 40/40/40
f 42/42/42 40/40/40 41/41/41
f 43/43/43 42/42/42 41/41/41
f 42/42/42 43/43/43 44/44/44
f 43/43/43 45/45/45 44/44/44
f 46/46/46 44/44/44 45/45/45
f 47/47/47 46/46/46 45/45/45
f 46/46/46 47/47/47 48/48/48
f 47/47/47 49/49/49 48/48/48
f 50/50/50 48/48/48 49/49/49
f 51/51/51 50/50/50 49/49/49
f 50/50/50 51/51/51 52/52/52
f 52/52/52 51/51/51 53/53/53
f 52/52/52 53/53/53 54/54/54
f 55/55/55 54/54/54 53/53/53
f 54/54/54 55/55/55 56/56/56
f 56/56/56 55/55/55 57/57/57
f 56/56/56 57/57/57 58/58/58
f 58/58/58 57/57/57 59/59/59
f 60/60/60 58/58/58 59/59/59
