g M_Brw_B_Def
v 0.068360664 0.058160856 0.07875039
v 0.06514942 0.060350645 0.08144818
v 0.06543961 0.061163787 0.08143341
v 0.062862165 0.061630554 0.08313748
v 0.063003875 0.063385464 0.08337043
v 0.058632735 0.06460098 0.086081035
v 0.05857818 0.063330226 0.08581236
v 0.058394507 0.06620163 0.08629256
v 0.05267159 0.06500198 0.08876464
v 0.05258778 0.06697266 0.089338854
v 0.052499913 0.068742216 0.08927839
v 0.047324575 0.07085586 0.091470495
v 0.047480848 0.06867371 0.09152641
v 0.047369495 0.06667465 0.091218755
v 0.04260312 0.06793899 0.09302076
v 0.042727035 0.070007935 0.093378454
v 0.042698115 0.07240326 0.0931383
v 0.039132442 0.07098907 0.09466859
v 0.039176513 0.07349777 0.09429426
v 0.038906224 0.06844406 0.09414731
v 0.035378713 0.07418014 0.09537346
v 0.035354212 0.071562804 0.09582678
v 0.035317127 0.0687178 0.095108494
v 0.031193497 0.068473205 0.09598635
v 0.031334188 0.071505584 0.09685021
v 0.031384382 0.07444519 0.09621557
v 0.028087202 0.06820709 0.09660789
v 0.028147759 0.07113922 0.09744423
v 0.028260209 0.073935695 0.09685212
v 0.024703987 0.07294556 0.09752003
v 0.02477583 0.07020553 0.09803483
v 0.025139958 0.067669526 0.09710792
v 0.020835647 0.070539095 0.097993754
v 0.021374907 0.068718106 0.09838293
v 0.022174735 0.06706024 0.09759132
v 0.018554034 0.06826385 0.09813892
v 0.01905228 0.06733063 0.09838538
v 0.019620104 0.06646759 0.09788949
v 0.017076382 0.06640884 0.09817849
v 0.017330669 0.06608078 0.09828895
v 0.017592086 0.06584854 0.09803728
v 0.016321786 0.06533554 0.098099194
v -0.06514942 0.060350645 0.08144818
v -0.068360664 0.058160856 0.07875039
v -0.06543961 0.061163787 0.08143341
v -0.062862165 0.061630554 0.08313748
v -0.063003875 0.063385464 0.08337043
v -0.058632735 0.06460098 0.086081035
v -0.05857818 0.063330226 0.08581236
v -0.058394507 0.06620163 0.08629256
v -0.05267159 0.06500198 0.08876464
v -0.05258778 0.06697266 0.089338854
v -0.052499913 0.068742216 0.08927839
v -0.047324575 0.07085586 0.091470495
v -0.047480848 0.06867371 0.09152641
v -0.047369495 0.06667465 0.091218755
v -0.04260312 0.06793899 0.09302076
v -0.042727035 0.070007935 0.093378454
v -0.042698115 0.07240326 0.0931383
v -0.039132442 0.07098907 0.09466859
v -0.039176513 0.07349777 0.09429426
v -0.038906224 0.06844406 0.09414731
v -0.035378713 0.07418014 0.09537346
v -0.035354212 0.071562804 0.09582678
v -0.035317127 0.0687178 0.095108494
v -0.031193497 0.068473205 0.09598635
v -0.031334188 0.071505584 0.09685021
v -0.031384382 0.07444519 0.09621557
v -0.028087202 0.06820709 0.09660789
v -0.028147759 0.07113922 0.09744423
v -0.028260209 0.073935695 0.09685212
v -0.024703987 0.07294556 0.09752003
v -0.02477583 0.07020553 0.09803483
v -0.025139958 0.067669526 0.09710792
v -0.020835647 0.070539095 0.097993754
v -0.021374907 0.068718106 0.09838293
v -0.022174735 0.06706024 0.09759132
v -0.018554034 0.06826385 0.09813892
v -0.01905228 0.06733063 0.09838538
v -0.019620104 0.06646759 0.09788949
v -0.017076382 0.06640884 0.09817849
v -0.017330669 0.06608078 0.09828895
v -0.017592086 0.06584854 0.09803728
v -0.016321786 0.06533554 0.098099194
vt 0.603179 0.862449
vt 0.584565 0.875142
vt 0.586247 0.879855
vt 0.571307 0.88256
vt 0.572128 0.892733
vt 0.546791 0.899779
vt 0.546475 0.892412
vt 0.54541 0.9090565
vt 0.512232 0.9020062
vt 0.511742 0.9133616
vt 0.511232 0.923607
vt 0.481163 0.934667
vt 0.482065 0.921954
vt 0.481421 0.9103933
vt 0.453663 0.9157964
vt 0.454388 0.9278871
vt 0.454249 0.9421965
vt 0.433461 0.932356
vt 0.433767 0.9476331
vt 0.432129 0.9173156
vt 0.411721 0.9512738
vt 0.411516 0.93520343
vt 0.411273 0.9183005
vt 0.387391 0.9173485
vt 0.388236 0.9353508
vt 0.388593 0.9533216
vt 0.369451 0.9168442
vt 0.369827 0.9341913
vt 0.370527 0.9510599
vt 0.34998 0.9462899
vt 0.350366 0.9299978
vt 0.352452 0.914956
vt 0.32762 0.9331435
vt 0.330729 0.9223724
vt 0.335343 0.9124855
vt 0.314435 0.9204691
vt 0.317314 0.9149488
vt 0.320594 0.9097932
vt 0.305895 0.9100314
vt 0.307366 0.9080945
vt 0.308877 0.90669763
vt 0.301531 0.9039374
vt 0.584565 0.875142
vt 0.603179 0.862449
vt 0.586247 0.879855
vt 0.571307 0.88256
vt 0.572128 0.892733
vt 0.546791 0.899779
vt 0.546475 0.892412
vt 0.54541 0.9090565
vt 0.512232 0.9020062
vt 0.511742 0.9133616
vt 0.511232 0.923607
vt 0.481163 0.934667
vt 0.482065 0.921954
vt 0.481421 0.9103933
vt 0.453663 0.9157964
vt 0.454388 0.9278871
vt 0.454249 0.9421965
vt 0.433461 0.932356
vt 0.433767 0.9476331
vt 0.432129 0.9173156
vt 0.411721 0.9512738
vt 0.411516 0.93520343
vt 0.411273 0.9183005
vt 0.387391 0.9173485
vt 0.388236 0.9353508
vt 0.388593 0.9533216
vt 0.369451 0.9168442
vt 0.369827 0.9341913
vt 0.370527 0.9510599
vt 0.34998 0.9462899
vt 0.350366 0.9299978
vt 0.352452 0.914956
vt 0.32762 0.9331435
vt 0.330729 0.9223724
vt 0.335343 0.9124855
vt 0.314435 0.9204691
vt 0.317314 0.9149488
vt 0.320594 0.9097932
vt 0.305895 0.9100314
vt 0.307366 0.9080945
vt 0.308877 0.90669763
vt 0.301531 0.9039374
vn 0.5558759 -0.18364485 0.8107259
vn 0.54396677 -0.17923231 0.8197413
vn 0.53735185 -0.17238542 0.82555217
vn 0.5051608 -0.15720427 0.8485867
vn 0.5002344 -0.14395608 0.8538397
vn 0.4572058 -0.12434074 0.88062596
vn 0.42779285 -0.20451581 0.8804354
vn 0.4750254 -0.03557368 0.8792527
vn 0.36510617 -0.23722555 0.90023416
vn 0.3967013 -0.10511743 0.9119092
vn 0.4332148 0.05225418 0.8997747
vn 0.38607958 0.058830697 0.92058754
vn 0.36798316 -0.055655476 0.9281653
vn 0.34889305 -0.1615063 0.92314106
vn 0.29757994 -0.18397033 0.93680364
vn 0.33847347 -0.034484282 0.94034386
vn 0.36019513 0.10393834 0.9270687
vn 0.2990384 -0.03528943 0.95358837
vn 0.3162047 0.13456944 0.9390983
vn 0.2523351 -0.2209086 0.9420862
vn 0.26420918 0.16716284 0.9498685
vn 0.26020953 -0.041614678 0.964655
vn 0.22451389 -0.24129343 0.94412446
vn 0.22219938 -0.26941675 0.93703896
vn 0.21567446 -0.04258668 0.9755363
vn 0.19315252 0.20260078 0.96002346
vn 0.21955076 -0.27975506 0.93463075
vn 0.1845297 -0.033163108 0.9822673
vn 0.14810869 0.19915289 0.96871156
vn 0.0774208 0.1898317 0.9787594
vn 0.13869856 -0.04189443 0.9894482
vn 0.21985961 -0.30963704 0.92508733
vn -0.026058288 0.1930626 0.98084027
vn 0.0891438 -0.07155479 0.99344516
vn 0.21243072 -0.33820105 0.91678417
vn -0.13200971 0.17904341 0.97494453
vn 0.049648404 -0.121783584 0.99131423
vn 0.20422284 -0.3868741 0.8992338
vn -0.20129628 0.15915345 0.96651435
vn 0.040732786 -0.218747 0.97493106
vn 0.24229373 -0.5744936 0.7818253
vn -0.0072919643 -0.2374453 0.97137356
vn -0.5439667 -0.17923231 0.81974137
vn -0.55587596 -0.18364483 0.81072587
vn -0.5373518 -0.17238542 0.82555205
vn -0.5051608 -0.15720426 0.8485867
vn -0.5002344 -0.14395611 0.8538397
vn -0.45720577 -0.12434086 0.8806261
vn -0.42779285 -0.20451586 0.88043547
vn -0.47502548 -0.035573695 0.8792527
vn -0.36510614 -0.23722552 0.90023416
vn -0.3967012 -0.105117574 0.9119092
vn -0.43321475 0.052254178 0.8997747
vn -0.38607952 0.0588307 0.9205876
vn -0.3679831 -0.055655435 0.9281653
vn -0.34889305 -0.16150628 0.92314106
vn -0.29757994 -0.18397036 0.93680364
vn -0.3384735 -0.03448413 0.94034386
vn -0.36019513 0.103938356 0.9270687
vn -0.2990384 -0.035289265 0.95358837
vn -0.31620476 0.13456945 0.9390983
vn -0.2523351 -0.2209086 0.9420862
vn -0.26420918 0.16716284 0.9498685
vn -0.26020953 -0.041614734 0.964655
vn -0.2245139 -0.24129349 0.94412446
vn -0.22219943 -0.26941675 0.93703896
vn -0.21567446 -0.042586852 0.9755363
vn -0.19315247 0.20260073 0.96002346
vn -0.21955077 -0.2797551 0.93463075
vn -0.1845297 -0.033163078 0.9822673
vn -0.14810869 0.1991529 0.96871156
vn -0.07742082 0.1898317 0.9787594
vn -0.13869861 -0.041894652 0.9894481
vn -0.21985961 -0.30963707 0.92508733
vn 0.02605828 0.19306265 0.98084027
vn -0.08914377 -0.07155461 0.9934453
vn -0.2124307 -0.33820105 0.91678417
vn 0.1320098 0.17904335 0.97494453
vn -0.049648445 -0.121783786 0.99131423
vn -0.20422281 -0.38687414 0.8992338
vn 0.20129614 0.1591535 0.96651447
vn -0.04073354 -0.21874784 0.9749308
vn -0.24229372 -0.57449365 0.7818253
vn 0.0072914916 -0.2374459 0.97137344
g M_Brw_B_Def_0
f 3/3/3 2/2/2 1/1/1
f 4/4/4 2/2/2 3/3/3
f 4/4/4 3/3/3 5/5/5
f 5/5/5 6/6/6 4/4/4
f 7/7/7 4/4/4 6/6/6
f 8/8/8 6/6/6 5/5/5
f 7/7/7 6/6/6 9/9/9
f 8/8/8 10/10/10 6/6/6
f 9/9/9 6/6/6 10/10/10
f 11/11/11 10/10/10 8/8/8
f 12/12/12 10/10/10 11/11/11
f 9/9/9 10/10/10 13/13/13
f 12/12/12 13/13/13 10/10/10
f 9/9/9 13/13/13 14/14/14
f 14/14/14 13/13/13 15/15/15
f 12/12/12 16/16/16 13/13/13
f 15/15/15 13/13/13 16/16/16
f 17/17/17 16/16/16 12/12/12
f 15/15/15 16/16/16 18/18/18
f 18/18/18 16/16/16 17/17/17
f 19/19/19 18/18/18 17/17/17
f 15/15/15 18/18/18 20/20/20
f 21/21/21 18/18/18 19/19/19
f 20/20/20 18/18/18 22/22/22
f 21/21/21 22/22/22 18/18/18
f 20/20/20 22/22/22 23/23/23
f 23/23/23 22/22/22 24/24/24
f 21/21/21 25/25/25 22/22/22
f 24/24/24 22/22/22 25/25/25
f 26/26/26 25/25/25 21/21/21
f 24/24/24 25/25/25 27/27/27
f 26/26/26 28/28/28 25/25/25
f 27/27/27 25/25/25 28/28/28
f 29/29/29 28/28/28 26/26/26
f 30/30/30 28/28/28 29/29/29
f 27/27/27 28/28/28 31/31/31
f 30/30/30 31/31/31 28/28/28
f 27/27/27 31/31/31 32/32/32
f 30/30/30 33/33/33 31/31/31
f 31/31/31 34/34/34 32/32/32
f 34/34/34 31/31/31 33/33/33
f 35/35/35 32/32/32 34/34/34
f 36/36/36 34/34/34 33/33/33
f 34/34/34 37/37/37 35/35/35
f 36/36/36 37/37/37 34/34/34
f 38/38/38 35/35/35 37/37/37
f 39/39/39 37/37/37 36/36/36
f 38/38/38 37/37/37 40/40/40
f 39/39/39 40/40/40 37/37/37
f 38/38/38 40/40/40 41/41/41
f 42/42/42 40/40/40 39/39/39
f 41/41/41 40/40/40 42/42/42
f 45/45/45 44/44/44 43/43/43
f 46/46/46 45/45/45 43/43/43
f 46/46/46 47/47/47 45/45/45
f 47/47/47 46/46/46 48/48/48
f 49/49/49 48/48/48 46/46/46
f 50/50/50 47/47/47 48/48/48
f 49/49/49 51/51/51 48/48/48
f 50/50/50 48/48/48 52/52/52
f 51/51/51 52/52/52 48/48/48
f 53/53/53 50/50/50 52/52/52
f 54/54/54 53/53/53 52/52/52
f 51/51/51 55/55/55 52/52/52
f 54/54/54 52/52/52 55/55/55
f 51/51/51 56/56/56 55/55/55
f 56/56/56 57/57/57 55/55/55
f 54/54/54 55/55/55 58/58/58
f 57/57/57 58/58/58 55/55/55
f 59/59/59 54/54/54 58/58/58
f 57/57/57 60/60/60 58/58/58
f 60/60/60 59/59/59 58/58/58
f 61/61/61 59/59/59 60/60/60
f 57/57/57 62/62/62 60/60/60
f 63/63/63 61/61/61 60/60/60
f 62/62/62 64/64/64 60/60/60
f 63/63/63 60/60/60 64/64/64
f 62/62/62 65/65/65 64/64/64
f 65/65/65 66/66/66 64/64/64
f 63/63/63 64/64/64 67/67/67
f 66/66/66 67/67/67 64/64/64
f 68/68/68 63/63/63 67/67/67
f 66/66/66 69/69/69 67/67/67
f 68/68/68 67/67/67 70/70/70
f 69/69/69 70/70/70 67/67/67
f 71/71/71 68/68/68 70/70/70
f 72/72/72 71/71/71 70/70/70
f 69/69/69 73/73/73 70/70/70
f 72/72/72 70/70/70 73/73/73
f 69/69/69 74/74/74 73/73/73
f 72/72/72 73/73/73 75/75/75
f 73/73/73 74/74/74 76/76/76
f 76/76/76 75/75/75 73/73/73
f 77/77/77 76/76/76 74/74/74
f 78/78/78 75/75/75 76/76/76
f 76/76/76 77/77/77 79/79/79
f 78/78/78 76/76/76 79/79/79
f 80/80/80 79/79/79 77/77/77
f 81/81/81 78/78/78 79/79/79
f 80/80/80 82/82/82 79/79/79
f 81/81/81 79/79/79 82/82/82
f 80/80/80 83/83/83 82/82/82
f 84/84/84 81/81/81 82/82/82
f 83/83/83 84/84/84 82/82/82
