g M_Brw_B_Def
v 0.007575328 0.039120484 0.09554786
v 0.008023632 0.03881973 0.09562231
v 0.007838883 0.038706664 0.09533579
v 0.008558111 0.038288116 0.095072284
v 0.0088425595 0.038505096 0.09559413
v 0.009786138 0.037782744 0.09472057
v 0.0099418545 0.03823929 0.09539442
v 0.012286596 0.036951598 0.093985535
v 0.012217237 0.03795639 0.094949976
v 0.014297547 0.03817581 0.09464148
v 0.014438314 0.03682083 0.09349917
v 0.016000424 0.03849823 0.094346195
v 0.016251057 0.03711151 0.093167886
v 0.018573526 0.039178465 0.0940845
v 0.018980093 0.038011167 0.09288093
v 0.022199247 0.040489044 0.09387142
v 0.022446848 0.03943008 0.0928298
v 0.026004659 0.041022643 0.092721604
v 0.015670037 0.040014952 0.09476522
v 0.01804307 0.040578 0.09444051
v 0.014039544 0.0397052 0.09496008
v 0.012029524 0.039315794 0.095124185
v 0.010148678 0.0390271 0.09535681
v 0.0090393135 0.038980253 0.09546067
v 0.0088425595 0.038505096 0.09559413
v 0.008127466 0.03912323 0.09553725
v 0.008023632 0.03881973 0.09562231
v 0.007575328 0.039120484 0.09554786
v 0.02189514 0.041577604 0.09397184
v 0.02585176 0.041678313 0.09344269
v 0.025564432 0.04263046 0.0934464
v 0.02872447 0.043640748 0.09306684
v 0.02901001 0.042942964 0.09312842
v 0.029189868 0.042523954 0.09248379
v 0.030657873 0.044342346 0.0926911
v 0.030969229 0.043758392 0.09290576
v 0.030969229 0.043758392 0.09290576
v 0.031038199 0.04353241 0.092390396
v 0.03260615 0.045010377 0.09234028
v 0.032776475 0.044592742 0.09263097
v 0.032776475 0.044592742 0.09263097
v 0.032861453 0.044357605 0.09214024
v 0.034695294 0.04577835 0.09198022
v 0.034792803 0.045445252 0.092289925
v 0.034792803 0.045445252 0.092289925
v 0.034868095 0.04529678 0.09186275
v 0.035978984 0.046309356 0.09179698
v 0.03609303 0.045983274 0.09205256
v 0.03609303 0.045983274 0.09205256
v 0.03615382 0.045849912 0.09171602
v 0.037234847 0.046804808 0.091590725
v 0.037333053 0.04659027 0.09184721
v 0.037816178 0.046794128 0.091603614
v 0.037333053 0.04659027 0.09184721
v 0.037435286 0.046457518 0.09160417
v 0.037816178 0.046794128 0.091603614
v -0.008023632 0.03881973 0.09562231
v -0.007575328 0.039120484 0.09554786
v -0.007838883 0.038706664 0.09533579
v -0.008558111 0.038288116 0.095072284
v -0.0088425595 0.038505096 0.09559413
v -0.009786138 0.037782744 0.09472057
v -0.0099418545 0.03823929 0.09539442
v -0.012286596 0.036951598 0.093985535
v -0.012217237 0.03795639 0.094949976
v -0.014297547 0.03817581 0.09464148
v -0.014438314 0.03682083 0.09349917
v -0.016000424 0.03849823 0.094346195
v -0.016251057 0.03711151 0.093167886
v -0.018573526 0.039178465 0.0940845
v -0.018980093 0.038011167 0.09288093
v -0.022199247 0.040489044 0.09387142
v -0.022446848 0.03943008 0.0928298
v -0.026004659 0.041022643 0.092721604
v -0.015670037 0.040014952 0.09476522
v -0.014039544 0.0397052 0.09496008
v -0.01804307 0.040578 0.09444051
v -0.012029524 0.039315794 0.095124185
v -0.010148678 0.0390271 0.09535681
v -0.0090393135 0.038980253 0.09546067
v -0.0088425595 0.038505096 0.09559413
v -0.008127466 0.03912323 0.09553725
v -0.008023632 0.03881973 0.09562231
v -0.007575328 0.039120484 0.09554786
v -0.02189514 0.041577604 0.09397184
v -0.02585176 0.041678313 0.09344269
v -0.025564432 0.04263046 0.0934464
v -0.02872447 0.043640748 0.09306684
v -0.02901001 0.042942964 0.09312842
v -0.029189868 0.042523954 0.09248379
v -0.030657873 0.044342346 0.0926911
v -0.030969229 0.043758392 0.09290576
v -0.030969229 0.043758392 0.09290576
v -0.031038199 0.04353241 0.092390396
v -0.03260615 0.045010377 0.09234028
v -0.032776475 0.044592742 0.09263097
v -0.032776475 0.044592742 0.09263097
v -0.032861453 0.044357605 0.09214024
v -0.034695294 0.04577835 0.09198022
v -0.034792803 0.045445252 0.092289925
v -0.034792803 0.045445252 0.092289925
v -0.034868095 0.04529678 0.09186275
v -0.035978984 0.046309356 0.09179698
v -0.03609303 0.045983274 0.09205256
v -0.03609303 0.045983274 0.09205256
v -0.03615382 0.045849912 0.09171602
v -0.037234847 0.046804808 0.091590725
v -0.037333053 0.04659027 0.09184721
v -0.037816178 0.046794128 0.091603614
v -0.037333053 0.04659027 0.09184721
v -0.037435286 0.046457518 0.09160417
v -0.037816178 0.046794128 0.091603614
v 0.0030868277 0.04187225 0.09664686
v 0.0032616088 0.041624602 0.09661495
v 0.0030885732 0.04156021 0.096538216
v 0.0033800476 0.0416716 0.09660143
v 0.0039162957 0.04060913 0.09630321
v 0.004235868 0.040783234 0.09624601
v 0.003641972 0.040336456 0.09617023
v 0.0050149295 0.039762266 0.09595991
v 0.0045814263 0.03957428 0.09603956
v 0.004284402 0.03928467 0.095799305
v 0.0057412963 0.038775634 0.09557664
v 0.005311979 0.038468324 0.09558943
v 0.00495355 0.038294524 0.09530603
v 0.0057166326 0.037153013 0.09460092
v 0.0061658225 0.03727661 0.09486587
v 0.006497625 0.037528686 0.09478086
v 0.006691407 0.03633438 0.09389448
v 0.0070082066 0.036448058 0.09390962
v 0.0068782745 0.036329344 0.0939414
v 0.0071017584 0.03607376 0.09358459
v -0.004669695 0.041564178 0.09650555
v -0.0044949143 0.041811828 0.09653746
v -0.00449666 0.041499786 0.09642881
v -0.0047881347 0.041611176 0.09649202
v -0.0053093433 0.040546875 0.096271254
v -0.005642252 0.040719602 0.09618286
v -0.0050500594 0.040276032 0.096060835
v -0.0064230165 0.03970184 0.09585051
v -0.0059895134 0.039513852 0.09593015
v -0.005692489 0.03922424 0.09568991
v -0.0071526812 0.03872177 0.095377356
v -0.006720066 0.038407896 0.09548002
v -0.006361637 0.0382341 0.09519663
v -0.0071247197 0.03709259 0.09449152
v -0.0075739096 0.037216187 0.09475647
v -0.007905712 0.037468262 0.09467146
v -0.008099494 0.036273956 0.09378508
v -0.008416296 0.036387634 0.09380022
v -0.008286363 0.03626892 0.09383199
v -0.00850985 0.036013335 0.093475185
vt 0.35141 0.9092681
vt 0.354505 0.906699
vt 0.352085 0.9057793
vt 0.358291 0.9029336
vt 0.360306 0.9044705
vt 0.366989 0.899354
vt 0.368092 0.9025877
vt 0.3847 0.893467
vt 0.384209 0.900584
vt 0.398944 0.9021381
vt 0.399941 0.892541
vt 0.411006 0.9044218
vt 0.412781 0.8946
vt 0.429231 0.90924
vt 0.432111 0.900972
vt 0.454913 0.918523
vt 0.456666 0.9110223
vt 0.481867 0.9223025
vt 0.408666 0.9151649
vt 0.425474 0.9191531
vt 0.397117 0.9129709
vt 0.382879 0.9102127
vt 0.369557 0.9081679
vt 0.3617 0.9078361
vt 0.360306 0.9044705
vt 0.355473 0.9090833
vt 0.354505 0.906699
vt 0.35141 0.9092681
vt 0.452759 0.9262333
vt 0.480784 0.9269467
vt 0.478748 0.9336908
vt 0.501131 0.9408468
vt 0.503154 0.9359043
vt 0.504428 0.93293643
vt 0.514825 0.9458162
vt 0.517031 0.94168
vt 0.517031 0.94168
vt 0.517519 0.9400794
vt 0.528625 0.9505479
vt 0.529832 0.9475898
vt 0.529832 0.9475898
vt 0.530434 0.9459243
vt 0.543423 0.9559876
vt 0.544114 0.9536282
vt 0.544114 0.9536282
vt 0.544647 0.9525766
vt 0.552516 0.9597488
vt 0.553323 0.9574391
vt 0.553323 0.9574391
vt 0.553754 0.9564945
vt 0.561411 0.9632581
vt 0.562106 0.9617385
vt 0.565529 0.9631824
vt 0.562106 0.9617385
vt 0.562831 0.9607982
vt 0.565529 0.9631824
vt 0.354505 0.906699
vt 0.35141 0.9092681
vt 0.352085 0.9057793
vt 0.358291 0.9029336
vt 0.360306 0.9044705
vt 0.366989 0.899354
vt 0.368092 0.9025877
vt 0.3847 0.893467
vt 0.384209 0.900584
vt 0.398944 0.9021381
vt 0.399941 0.892541
vt 0.411006 0.9044218
vt 0.412781 0.8946
vt 0.429231 0.90924
vt 0.432111 0.900972
vt 0.454913 0.918523
vt 0.456666 0.9110223
vt 0.481867 0.9223025
vt 0.408666 0.9151649
vt 0.397117 0.9129709
vt 0.425474 0.9191531
vt 0.382879 0.9102127
vt 0.369557 0.9081679
vt 0.3617 0.9078361
vt 0.360306 0.9044705
vt 0.355473 0.9090833
vt 0.354505 0.906699
vt 0.35141 0.9092681
vt 0.452759 0.9262333
vt 0.480784 0.9269467
vt 0.478748 0.9336908
vt 0.501131 0.9408468
vt 0.503154 0.9359043
vt 0.504428 0.93293643
vt 0.514825 0.9458162
vt 0.517031 0.94168
vt 0.517031 0.94168
vt 0.517519 0.9400794
vt 0.528625 0.9505479
vt 0.529832 0.9475898
vt 0.529832 0.9475898
vt 0.530434 0.9459243
vt 0.543423 0.9559876
vt 0.544114 0.9536282
vt 0.544114 0.9536282
vt 0.544647 0.9525766
vt 0.552516 0.9597488
vt 0.553323 0.9574391
vt 0.553323 0.9574391
vt 0.553754 0.9564945
vt 0.561411 0.9632581
vt 0.562106 0.9617385
vt 0.565529 0.9631824
vt 0.562106 0.9617385
vt 0.562831 0.9607982
vt 0.565529 0.9631824
vt 0.316868 0.9291171
vt 0.318127 0.9273227
vt 0.316878 0.9268364
vt 0.31898 0.9276575
vt 0.322836 0.919918
vt 0.325136 0.92115617
vt 0.320856 0.9179182
vt 0.330732 0.91372883
vt 0.327616 0.9123963
vt 0.325468 0.9102508
vt 0.335937 0.9065339
vt 0.332851 0.904327
vt 0.330259 0.90301
vt 0.335702 0.894652
vt 0.338943 0.895597
vt 0.341319 0.897388
vt 0.342644 0.888633
vt 0.344915 0.88945
vt 0.343987 0.888606
vt 0.345559 0.886703
vt 0.318127 0.9273227
vt 0.316868 0.9291171
vt 0.316878 0.9268364
vt 0.31898 0.9276575
vt 0.322836 0.919918
vt 0.325136 0.92115617
vt 0.320856 0.9179182
vt 0.330732 0.91372883
vt 0.327616 0.9123963
vt 0.325468 0.9102508
vt 0.335937 0.9065339
vt 0.332851 0.904327
vt 0.330259 0.90301
vt 0.335702 0.894652
vt 0.338943 0.895597
vt 0.341319 0.897388
vt 0.342644 0.888633
vt 0.344915 0.88945
vt 0.343987 0.888606
vt 0.345559 0.886703
vn -0.5176249 -0.6276695 0.5814597
vn -0.34520894 -0.77805775 0.5248398
vn -0.3656576 -0.7608903 0.5360414
vn -0.24433286 -0.8406092 0.4834022
vn -0.21065924 -0.83545166 0.5075856
vn -0.108567685 -0.8166441 0.56683815
vn 0.043001454 -0.49877486 0.8656642
vn 0.111337796 -0.67706126 0.7274558
vn 0.12755714 -0.45639148 0.8805885
vn 0.18771088 -0.43543306 0.8804332
vn 0.19004048 -0.6190417 0.7620184
vn 0.22057542 -0.4430929 0.8689161
vn 0.24756058 -0.6118622 0.7512246
vn 0.22638755 -0.44553593 0.8661676
vn 0.27893656 -0.640378 0.7156189
vn 0.22087026 -0.40661082 0.886501
vn 0.28784108 -0.63652015 0.71553457
vn 0.31599018 -0.66464275 0.67705256
vn 0.18294072 -0.21409996 0.95952797
vn 0.16341512 -0.19165769 0.96776175
vn 0.14595652 -0.1648038 0.97546726
vn 0.11952088 -0.109944984 0.98672533
vn 0.1546281 -0.030179124 0.98751175
vn 0.14829749 0.14542326 0.97819215
vn 0.17182122 0.20031624 0.964547
vn 0.09288549 0.23671062 0.9671299
vn 0.08770793 0.24088918 0.9665815
vn 0.017212931 0.26435462 0.96427196
vn 0.12021555 -0.07446096 0.98995143
vn 0.23837046 -0.35666752 0.9033093
vn 0.12153926 0.032821544 0.9920439
vn 0.09220286 0.11069949 0.9895677
vn 0.26619515 -0.3616494 0.8935043
vn 0.3821837 -0.72802395 0.56913686
vn 0.023516353 0.3251015 0.9453867
vn 0.4318062 -0.78903735 0.43699375
vn -0.0040695067 0.3586157 0.9334764
vn 0.44215274 -0.7965534 0.41231492
vn -0.06782627 0.5245493 0.848674
vn 0.4163319 -0.79170257 0.44707364
vn -0.09527522 0.54954994 0.8300106
vn 0.41618314 -0.7925909 0.44563583
vn -0.14461635 0.63873947 0.7557103
vn 0.42540318 -0.82454205 0.37304506
vn -0.1487663 0.6453299 0.74927825
vn 0.42523587 -0.82820225 0.36504164
vn -0.10696738 0.5975754 0.7946456
vn 0.4264236 -0.8140498 0.39431697
vn -0.10845881 0.5993976 0.7930694
vn 0.42628685 -0.807287 0.40812644
vn -0.15418565 0.70371234 0.693553
vn -0.17888673 0.71988016 0.6706505
vn -0.00012369883 0.7670178 0.6416259
vn 0.4309175 -0.7212878 0.54226744
vn 0.43904036 -0.6978743 0.5658756
vn 0.5460774 -0.6169618 0.5667077
vn 0.3452092 -0.77805763 0.52483994
vn 0.5176249 -0.6276695 0.58145964
vn 0.36565784 -0.7608902 0.5360415
vn 0.2443329 -0.8406092 0.48340222
vn 0.2106592 -0.8354517 0.50758564
vn 0.108567685 -0.8166441 0.56683815
vn -0.043001547 -0.49877468 0.8656643
vn -0.11133779 -0.6770613 0.72745574
vn -0.12755711 -0.45639125 0.88058853
vn -0.18771084 -0.43543288 0.88043326
vn -0.19004048 -0.6190417 0.7620184
vn -0.22057539 -0.44309282 0.8689161
vn -0.24756059 -0.6118622 0.7512246
vn -0.22638759 -0.44553602 0.8661676
vn -0.27893656 -0.64037794 0.71561897
vn -0.22087012 -0.40661043 0.8865012
vn -0.28784108 -0.63652015 0.71553457
vn -0.31599024 -0.6646427 0.6770526
vn -0.18294072 -0.21409997 0.95952797
vn -0.14595649 -0.16480376 0.97546726
vn -0.16341513 -0.1916577 0.96776175
vn -0.119520865 -0.109944984 0.98672533
vn -0.15462813 -0.030179098 0.98751175
vn -0.14829758 0.14542326 0.97819215
vn -0.17182133 0.20031619 0.964547
vn -0.092885435 0.23671064 0.96713
vn -0.08770781 0.2408892 0.9665815
vn -0.017212931 0.26435462 0.96427196
vn -0.120215535 -0.07446092 0.98995143
vn -0.23837052 -0.35666767 0.9033093
vn -0.12153926 0.032821547 0.9920439
vn -0.09220283 0.11069947 0.9895677
vn -0.26619545 -0.36165017 0.8935039
vn -0.3821837 -0.72802395 0.5691368
vn -0.023516297 0.32510167 0.9453867
vn -0.43180624 -0.7890373 0.43699378
vn 0.0040695113 0.3586158 0.9334764
vn -0.44215274 -0.7965534 0.41231486
vn 0.06782633 0.52454925 0.8486741
vn -0.41633192 -0.7917025 0.4470736
vn 0.095275335 0.54954994 0.8300106
vn -0.4161831 -0.79259086 0.44563583
vn 0.14461638 0.63873947 0.7557103
vn -0.42540318 -0.82454205 0.373045
vn 0.1487663 0.64532995 0.74927825
vn -0.42523593 -0.82820225 0.36504164
vn 0.106967375 0.59757537 0.7946456
vn -0.4264236 -0.8140498 0.39431697
vn 0.108458884 0.5993976 0.7930694
vn -0.42628685 -0.807287 0.4081265
vn 0.15418617 0.7037122 0.69355285
vn 0.17888723 0.71988004 0.67065054
vn 0.00012369885 0.7670178 0.6416259
vn -0.4309174 -0.7212878 0.54226744
vn -0.43904027 -0.6978743 0.56587553
vn -0.54607743 -0.6169618 0.5667077
vn -0.18060347 -0.2500031 0.9512522
vn -0.096122086 -0.3188931 0.94290394
vn -0.20805357 -0.3843378 0.89944327
vn 0.19802962 -0.15657932 0.967609
vn 0.049621414 -0.23596181 0.9704946
vn 0.23615311 -0.116560765 0.96469957
vn -0.14442745 -0.34733936 0.9265507
vn 0.24172442 -0.150263 0.95863986
vn 0.006929933 -0.31309393 0.9496969
vn -0.23848727 -0.48657054 0.84045994
vn 0.2598436 -0.29255104 0.9202691
vn 0.0013778999 -0.46323353 0.8862351
vn -0.28688127 -0.6111871 0.7376648
vn -0.22133604 -0.6859999 0.6931194
vn 0.09200682 -0.56901336 0.817165
vn 0.46388143 -0.33389786 0.82056457
vn -0.17326036 -0.7628632 0.62291294
vn 0.52441466 -0.38555545 0.7591681
vn 0.21844752 -0.63114077 0.7442728
vn 0.24584296 -0.70850927 0.66149515
vn 0.115518115 -0.27465793 0.9545777
vn 0.18065238 -0.2500112 0.9512409
vn 0.27269316 -0.37020946 0.8880221
vn -0.19935557 -0.095742784 0.9752388
vn 0.00563645 -0.26877007 0.96318793
vn -0.29159367 -0.07397627 0.9536775
vn 0.26071128 -0.4269564 0.86587405
vn -0.26713687 -0.20331731 0.94196606
vn -0.023586266 -0.3362595 0.9414739
vn 0.23846817 -0.48656875 0.84046644
vn -0.3649945 -0.21730699 0.9052937
vn -0.075615115 -0.41979918 0.9044618
vn 0.28688005 -0.6111866 0.73766565
vn 0.2213421 -0.6859986 0.6931188
vn -0.0940162 -0.55812997 0.82441
vn -0.4533184 -0.3155646 0.8336195
vn 0.17328586 -0.762861 0.6229086
vn -0.5244202 -0.3855511 0.75916654
vn -0.2184329 -0.6311425 0.74427557
vn -0.24584542 -0.7085026 0.66150147
g M_Brw_B_Def_0
f 3/3/3 2/2/2 1/1/1
f 4/4/4 2/2/2 3/3/3
f 4/4/4 5/5/5 2/2/2
f 6/6/6 5/5/5 4/4/4
f 6/6/6 7/7/7 5/5/5
f 8/8/8 7/7/7 6/6/6
f 8/8/8 9/9/9 7/7/7
f 8/8/8 10/10/10 9/9/9
f 11/11/11 10/10/10 8/8/8
f 11/11/11 12/12/12 10/10/10
f 13/13/13 12/12/12 11/11/11
f 13/13/13 14/14/14 12/12/12
f 15/15/15 14/14/14 13/13/13
f 15/15/15 16/16/16 14/14/14
f 17/17/17 16/16/16 15/15/15
f 18/18/18 16/16/16 17/17/17
f 19/19/19 10/10/10 12/12/12
f 19/19/19 12/12/12 20/20/20
f 20/20/20 12/12/12 14/14/14
f 21/21/21 10/10/10 19/19/19
f 21/21/21 9/9/9 10/10/10
f 22/22/22 9/9/9 21/21/21
f 23/23/23 9/9/9 22/22/22
f 23/23/23 7/7/7 9/9/9
f 24/24/24 7/7/7 23/23/23
f 24/24/24 25/25/25 7/7/7
f 26/26/26 25/25/25 24/24/24
f 26/26/26 27/27/27 25/25/25
f 28/28/28 27/27/27 26/26/26
f 20/20/20 14/14/14 29/29/29
f 29/29/29 14/14/14 16/16/16
f 29/29/29 16/16/16 30/30/30
f 29/29/29 30/30/30 31/31/31
f 18/18/18 30/30/30 16/16/16
f 31/31/31 30/30/30 32/32/32
f 18/18/18 33/33/33 30/30/30
f 32/32/32 30/30/30 33/33/33
f 34/34/34 33/33/33 18/18/18
f 32/32/32 33/33/33 35/35/35
f 34/34/34 36/36/36 33/33/33
f 35/35/35 33/33/33 37/37/37
f 38/38/38 36/36/36 34/34/34
f 35/35/35 37/37/37 39/39/39
f 38/38/38 40/40/40 36/36/36
f 39/39/39 37/37/37 41/41/41
f 42/42/42 40/40/40 38/38/38
f 39/39/39 41/41/41 43/43/43
f 42/42/42 44/44/44 40/40/40
f 43/43/43 41/41/41 45/45/45
f 46/46/46 44/44/44 42/42/42
f 45/45/45 47/47/47 43/43/43
f 46/46/46 48/48/48 44/44/44
f 45/45/45 49/49/49 47/47/47
f 46/46/46 50/50/50 48/48/48
f 51/51/51 47/47/47 49/49/49
f 51/51/51 49/49/49 52/52/52
f 51/51/51 52/52/52 53/53/53
f 54/54/54 48/48/48 50/50/50
f 54/54/54 50/50/50 55/55/55
f 56/56/56 54/54/54 55/55/55
f 59/59/59 58/58/58 57/57/57
f 60/60/60 59/59/59 57/57/57
f 60/60/60 57/57/57 61/61/61
f 62/62/62 60/60/60 61/61/61
f 62/62/62 61/61/61 63/63/63
f 64/64/64 62/62/62 63/63/63
f 64/64/64 63/63/63 65/65/65
f 64/64/64 65/65/65 66/66/66
f 67/67/67 64/64/64 66/66/66
f 67/67/67 66/66/66 68/68/68
f 69/69/69 67/67/67 68/68/68
f 69/69/69 68/68/68 70/70/70
f 71/71/71 69/69/69 70/70/70
f 71/71/71 70/70/70 72/72/72
f 73/73/73 71/71/71 72/72/72
f 74/74/74 73/73/73 72/72/72
f 75/75/75 68/68/68 66/66/66
f 76/76/76 75/75/75 66/66/66
f 76/76/76 66/66/66 65/65/65
f 75/75/75 77/77/77 68/68/68
f 77/77/77 70/70/70 68/68/68
f 78/78/78 76/76/76 65/65/65
f 79/79/79 78/78/78 65/65/65
f 79/79/79 65/65/65 63/63/63
f 80/80/80 79/79/79 63/63/63
f 80/80/80 63/63/63 81/81/81
f 82/82/82 80/80/80 81/81/81
f 82/82/82 81/81/81 83/83/83
f 84/84/84 82/82/82 83/83/83
f 77/77/77 85/85/85 70/70/70
f 85/85/85 72/72/72 70/70/70
f 85/85/85 86/86/86 72/72/72
f 85/85/85 87/87/87 86/86/86
f 74/74/74 72/72/72 86/86/86
f 87/87/87 88/88/88 86/86/86
f 74/74/74 86/86/86 89/89/89
f 88/88/88 89/89/89 86/86/86
f 90/90/90 74/74/74 89/89/89
f 88/88/88 91/91/91 89/89/89
f 90/90/90 89/89/89 92/92/92
f 91/91/91 93/93/93 89/89/89
f 94/94/94 90/90/90 92/92/92
f 91/91/91 95/95/95 93/93/93
f 94/94/94 92/92/92 96/96/96
f 95/95/95 97/97/97 93/93/93
f 98/98/98 94/94/94 96/96/96
f 95/95/95 99/99/99 97/97/97
f 98/98/98 96/96/96 100/100/100
f 99/99/99 101/101/101 97/97/97
f 102/102/102 98/98/98 100/100/100
f 101/101/101 99/99/99 103/103/103
f 102/102/102 100/100/100 104/104/104
f 101/101/101 103/103/103 105/105/105
f 102/102/102 104/104/104 106/106/106
f 107/107/107 105/105/105 103/103/103
f 107/107/107 108/108/108 105/105/105
f 107/107/107 109/109/109 108/108/108
f 110/110/110 106/106/106 104/104/104
f 110/110/110 111/111/111 106/106/106
f 112/112/112 111/111/111 110/110/110
f 115/115/115 114/114/114 113/113/113
f 113/113/113 114/114/114 116/116/116
f 117/117/117 114/114/114 115/115/115
f 116/116/116 114/114/114 117/117/117
f 118/118/118 116/116/116 117/117/117
f 117/117/117 115/115/115 119/119/119
f 118/118/118 117/117/117 120/120/120
f 119/119/119 121/121/121 117/117/117
f 120/120/120 117/117/117 121/121/121
f 122/122/122 121/121/121 119/119/119
f 120/120/120 121/121/121 123/123/123
f 122/122/122 124/124/124 121/121/121
f 123/123/123 121/121/121 124/124/124
f 125/125/125 124/124/124 122/122/122
f 126/126/126 124/124/124 125/125/125
f 123/123/123 124/124/124 127/127/127
f 126/126/126 127/127/127 124/124/124
f 123/123/123 127/127/127 128/128/128
f 126/126/126 129/129/129 127/127/127
f 127/127/127 130/130/130 128/128/128
f 129/129/129 131/131/131 127/127/127
f 127/127/127 131/131/131 130/130/130
f 132/132/132 131/131/131 129/129/129
f 130/130/130 131/131/131 132/132/132
f 135/135/135 134/134/134 133/133/133
f 134/134/134 136/136/136 133/133/133
f 137/137/137 135/135/135 133/133/133
f 136/136/136 137/137/137 133/133/133
f 138/138/138 137/137/137 136/136/136
f 137/137/137 139/139/139 135/135/135
f 138/138/138 140/140/140 137/137/137
f 139/139/139 137/137/137 141/141/141
f 140/140/140 141/141/141 137/137/137
f 142/142/142 139/139/139 141/141/141
f 140/140/140 143/143/143 141/141/141
f 142/142/142 141/141/141 144/144/144
f 143/143/143 144/144/144 141/141/141
f 145/145/145 142/142/142 144/144/144
f 146/146/146 145/145/145 144/144/144
f 143/143/143 147/147/147 144/144/144
f 146/146/146 144/144/144 147/147/147
f 143/143/143 148/148/148 147/147/147
f 146/146/146 147/147/147 149/149/149
f 147/147/147 148/148/148 150/150/150
f 149/149/149 147/147/147 151/151/151
f 147/147/147 150/150/150 151/151/151
f 152/152/152 149/149/149 151/151/151
f 150/150/150 152/152/152 151/151/151
