g M_Brw_B_Def
v 0.066872574 0.056927793 0.080092445
v 0.06599257 0.057077635 0.08092594
v 0.06606297 0.057480164 0.08101225
v 0.06463921 0.058194272 0.0822025
v 0.06450432 0.057648163 0.08231221
v 0.06211728 0.0594133 0.084107876
v 0.06207032 0.058622435 0.08409631
v 0.0592979 0.060650177 0.08596626
v 0.05918265 0.059898376 0.08595603
v 0.056231763 0.062063597 0.0876982
v 0.05619286 0.06117004 0.08769348
v 0.053037528 0.06316711 0.089469574
v 0.053082522 0.062218472 0.089452885
v 0.048978038 0.06438369 0.09145909
v 0.048968274 0.06343689 0.09143487
v 0.04544267 0.065301515 0.09287933
v 0.045439027 0.06434448 0.09289234
v 0.040800553 0.06631317 0.09458084
v 0.04082641 0.06516174 0.09453881
v 0.035167083 0.06745224 0.09616151
v 0.03516008 0.065749355 0.09609188
v 0.031758673 0.067912444 0.096842766
v 0.031827062 0.065951385 0.0968689
v 0.028183868 0.06588211 0.097596675
v 0.028110905 0.06809692 0.09761924
v 0.024625117 0.06568817 0.09822026
v 0.024404954 0.06820816 0.09819058
v 0.021459827 0.06519806 0.09867214
v 0.020985309 0.06796112 0.098680295
v 0.019617084 0.06478866 0.098884486
v 0.019211005 0.067059934 0.09889995
v 0.017973294 0.06430664 0.0990697
v 0.017601242 0.06596207 0.09910557
v 0.016510498 0.06385895 0.099215046
v 0.0162215 0.064880826 0.099256426
v 0.01556704 0.06356369 0.099291734
v 0.015415145 0.06423355 0.09933577
v 0.014959307 0.06359833 0.099346034
v -0.06599257 0.057077635 0.08092594
v -0.066872574 0.056927793 0.080092445
v -0.06606297 0.057480164 0.08101225
v -0.06463921 0.058194272 0.0822025
v -0.06450432 0.057648163 0.08231221
v -0.06211728 0.0594133 0.084107876
v -0.06207032 0.058622435 0.08409631
v -0.0592979 0.060650177 0.08596626
v -0.05918265 0.059898376 0.08595603
v -0.056231763 0.062063597 0.0876982
v -0.05619286 0.06117004 0.08769348
v -0.053037528 0.06316711 0.089469574
v -0.053082522 0.062218472 0.089452885
v -0.048978038 0.06438369 0.09145909
v -0.048968274 0.06343689 0.09143487
v -0.04544267 0.065301515 0.09287933
v -0.045439027 0.06434448 0.09289234
v -0.040800553 0.06631317 0.09458084
v -0.04082641 0.06516174 0.09453881
v -0.035167083 0.06745224 0.09616151
v -0.03516008 0.065749355 0.09609188
v -0.031758673 0.067912444 0.096842766
v -0.031827062 0.065951385 0.0968689
v -0.028183868 0.06588211 0.097596675
v -0.028110905 0.06809692 0.09761924
v -0.024625117 0.06568817 0.09822026
v -0.024404954 0.06820816 0.09819058
v -0.021459827 0.06519806 0.09867214
v -0.020985309 0.06796112 0.098680295
v -0.019617084 0.06478866 0.098884486
v -0.019211005 0.067059934 0.09889995
v -0.017973294 0.06430664 0.0990697
v -0.017601242 0.06596207 0.09910557
v -0.016510498 0.06385895 0.099215046
v -0.0162215 0.064880826 0.099256426
v -0.01556704 0.06356369 0.099291734
v -0.015415145 0.06423355 0.09933577
v -0.014959307 0.06359833 0.099346034
vt 0.625409 0.861946
vt 0.62032 0.86261
vt 0.620725 0.864913
vt 0.612486 0.868503
vt 0.611708 0.865342
vt 0.597874 0.874036
vt 0.597606 0.86956704
vt 0.581493 0.878703
vt 0.580829 0.874435
vt 0.563681 0.883767
vt 0.563457 0.878756
vt 0.545202 0.887101
vt 0.54546 0.88182
vt 0.521613 0.891201
vt 0.521566 0.885817
vt 0.501032 0.893998
vt 0.501023 0.888465
vt 0.47413 0.89709
vt 0.474293 0.890313
vt 0.441759 0.9009644
vt 0.441731 0.890868
vt 0.422309 0.9021288
vt 0.422713 0.890518
vt 0.402011 0.888844
vt 0.401577 0.9019257
vt 0.381829 0.887086
vt 0.380551 0.9019014
vt 0.363871 0.884416
vt 0.361144 0.9006604
vt 0.353386 0.882584
vt 0.351046 0.895877
vt 0.34393 0.880529
vt 0.341758 0.890189
vt 0.335494 0.878799
vt 0.333791 0.884762
vt 0.33001 0.877738
vt 0.329083 0.881613
vt 0.326457 0.878331
vt 0.62032 0.86261
vt 0.625409 0.861946
vt 0.620725 0.864913
vt 0.612486 0.868503
vt 0.611708 0.865342
vt 0.597874 0.874036
vt 0.597606 0.86956704
vt 0.581493 0.878703
vt 0.580829 0.874435
vt 0.563681 0.883767
vt 0.563457 0.878756
vt 0.545202 0.887101
vt 0.54546 0.88182
vt 0.521613 0.891201
vt 0.521566 0.885817
vt 0.501032 0.893998
vt 0.501023 0.888465
vt 0.47413 0.89709
vt 0.474293 0.890313
vt 0.441759 0.9009644
vt 0.441731 0.890868
vt 0.422309 0.9021288
vt 0.422713 0.890518
vt 0.402011 0.888844
vt 0.401577 0.9019257
vt 0.381829 0.887086
vt 0.380551 0.9019014
vt 0.363871 0.884416
vt 0.361144 0.9006604
vt 0.353386 0.882584
vt 0.351046 0.895877
vt 0.34393 0.880529
vt 0.341758 0.890189
vt 0.335494 0.878799
vt 0.333791 0.884762
vt 0.33001 0.877738
vt 0.329083 0.881613
vt 0.326457 0.878331
vn 0.6384855 -0.26649627 0.7220222
vn 0.6075403 -0.22750184 0.76101106
vn 0.5653384 -0.26627272 0.78069925
vn 0.62880045 -0.007565384 0.7775299
vn 0.6304162 -0.006969006 0.77622604
vn 0.55294836 -0.04268397 0.83212155
vn 0.5587423 -0.048366327 0.8279299
vn 0.48351842 -0.08299597 0.8713906
vn 0.49170083 -0.08251101 0.86684614
vn 0.48253223 -0.028648613 0.8754096
vn 0.48840845 -0.023433758 0.87230045
vn 0.45857227 0.0042323377 0.88864696
vn 0.46948317 0.0045939186 0.8829295
vn 0.3957351 -0.025513897 0.9180102
vn 0.40551898 -0.025088297 0.91374224
vn 0.35932326 0.00900556 0.9331697
vn 0.363591 0.007837365 0.9315257
vn 0.2908669 -0.026728053 0.95639014
vn 0.2967824 -0.029655743 0.9544846
vn 0.23028322 -0.040121485 0.9722962
vn 0.24030036 -0.032782547 0.97014487
vn 0.20758463 0.008292895 0.9781819
vn 0.21170177 0.020407261 0.9771212
vn 0.1886134 -0.00050211535 0.9820514
vn 0.1848822 0.0028468058 0.9827566
vn 0.14877017 0.019752065 0.98867446
vn 0.14593624 0.02370994 0.9890098
vn 0.1286919 0.019847749 0.991486
vn 0.13214552 0.019315245 0.99104214
vn 0.11061188 0.014082379 0.993764
vn 0.1153568 0.012598516 0.99324423
vn 0.10702876 0.0059548584 0.994238
vn 0.11685182 0.0037037747 0.99314237
vn 0.09864047 -0.0070885196 0.99509794
vn 0.110466905 -0.011033161 0.9938186
vn 0.09607447 -0.029564824 0.994935
vn 0.11831919 -0.038388025 0.9922333
vn 0.08629995 -0.045845926 0.99521375
vn -0.60753995 -0.22750191 0.76101124
vn -0.63848543 -0.26649627 0.72202224
vn -0.56533813 -0.26627272 0.7806994
vn -0.6288005 -0.0075654685 0.7775299
vn -0.6304162 -0.0069690244 0.77622604
vn -0.5529485 -0.042683985 0.83212143
vn -0.55874234 -0.048366316 0.8279298
vn -0.48351836 -0.082995966 0.8713906
vn -0.4917007 -0.082510985 0.86684614
vn -0.48253217 -0.02864861 0.8754096
vn -0.4884085 -0.023433758 0.87230045
vn -0.45857233 0.004232338 0.88864696
vn -0.4694832 0.0045939265 0.8829295
vn -0.39573506 -0.025513899 0.9180103
vn -0.4055189 -0.02508829 0.91374224
vn -0.35932332 0.009005559 0.9331697
vn -0.36359102 0.007837364 0.9315257
vn -0.2908669 -0.026728047 0.95639014
vn -0.29678246 -0.029655743 0.9544846
vn -0.2302833 -0.04012149 0.9722962
vn -0.2403004 -0.0327826 0.97014487
vn -0.20758459 0.008292896 0.978182
vn -0.21170169 0.020407256 0.9771212
vn -0.18861344 -0.000502107 0.9820514
vn -0.18488216 0.0028468163 0.9827566
vn -0.14877018 0.019752063 0.98867446
vn -0.14593627 0.02370994 0.9890098
vn -0.12869187 0.019847745 0.991486
vn -0.13214551 0.019315245 0.99104214
vn -0.11061187 0.014082384 0.993764
vn -0.1153568 0.012598516 0.99324423
vn -0.10702877 0.005954854 0.994238
vn -0.11685182 0.0037037786 0.99314237
vn -0.09864044 -0.0070885406 0.99509794
vn -0.11046687 -0.011033164 0.9938186
vn -0.096074395 -0.029564777 0.994935
vn -0.11831916 -0.03838804 0.9922333
vn -0.08629995 -0.045845926 0.99521375
g M_Brw_B_Def_0
f 3/3/3 2/2/2 1/1/1
f 3/3/3 4/4/4 2/2/2
f 5/5/5 2/2/2 4/4/4
f 6/6/6 5/5/5 4/4/4
f 7/7/7 5/5/5 6/6/6
f 8/8/8 7/7/7 6/6/6
f 9/9/9 7/7/7 8/8/8
f 8/8/8 10/10/10 9/9/9
f 11/11/11 9/9/9 10/10/10
f 10/10/10 12/12/12 11/11/11
f 13/13/13 11/11/11 12/12/12
f 13/13/13 12/12/12 14/14/14
f 15/15/15 13/13/13 14/14/14
f 14/14/14 16/16/16 15/15/15
f 15/15/15 16/16/16 17/17/17
f 18/18/18 17/17/17 16/16/16
f 19/19/19 17/17/17 18/18/18
f 18/18/18 20/20/20 19/19/19
f 21/21/21 19/19/19 20/20/20
f 20/20/20 22/22/22 21/21/21
f 21/21/21 22/22/22 23/23/23
f 23/23/23 22/22/22 24/24/24
f 25/25/25 24/24/24 22/22/22
f 24/24/24 25/25/25 26/26/26
f 27/27/27 26/26/26 25/25/25
f 26/26/26 27/27/27 28/28/28
f 27/27/27 29/29/29 28/28/28
f 29/29/29 30/30/30 28/28/28
f 29/29/29 31/31/31 30/30/30
f 32/32/32 30/30/30 31/31/31
f 32/32/32 31/31/31 33/33/33
f 32/32/32 33/33/33 34/34/34
f 35/35/35 34/34/34 33/33/33
f 34/34/34 35/35/35 36/36/36
f 37/37/37 36/36/36 35/35/35
f 38/38/38 36/36/36 37/37/37
f 41/41/41 40/40/40 39/39/39
f 41/41/41 39/39/39 42/42/42
f 43/43/43 42/42/42 39/39/39
f 44/44/44 42/42/42 43/43/43
f 45/45/45 44/44/44 43/43/43
f 46/46/46 44/44/44 45/45/45
f 47/47/47 46/46/46 45/45/45
f 46/46/46 47/47/47 48/48/48
f 49/49/49 48/48/48 47/47/47
f 48/48/48 49/49/49 50/50/50
f 51/51/51 50/50/50 49/49/49
f 51/51/51 52/52/52 50/50/50
f 53/53/53 52/52/52 51/51/51
f 52/52/52 53/53/53 54/54/54
f 53/53/53 55/55/55 54/54/54
f 56/56/56 54/54/54 55/55/55
f 57/57/57 56/56/56 55/55/55
f 56/56/56 57/57/57 58/58/58
f 59/59/59 58/58/58 57/57/57
f 58/58/58 59/59/59 60/60/60
f 59/59/59 61/61/61 60/60/60
f 61/61/61 62/62/62 60/60/60
f 63/63/63 60/60/60 62/62/62
f 62/62/62 64/64/64 63/63/63
f 65/65/65 63/63/63 64/64/64
f 64/64/64 66/66/66 65/65/65
f 65/65/65 66/66/66 67/67/67
f 67/67/67 66/66/66 68/68/68
f 67/67/67 68/68/68 69/69/69
f 70/70/70 69/69/69 68/68/68
f 70/70/70 71/71/71 69/69/69
f 70/70/70 72/72/72 71/71/71
f 73/73/73 71/71/71 72/72/72
f 72/72/72 74/74/74 73/73/73
f 75/75/75 73/73/73 74/74/74
f 76/76/76 75/75/75 74/74/74
