g M_Brw_B_Def
v 0.009576755 0.040591888 0.09268032
v 0.00982594 0.04004242 0.09244432
v 0.00888341 0.03989624 0.092386246
v 0.011231006 0.040584106 0.09254218
v 0.010749166 0.041464232 0.09304636
v 0.012749119 0.042775724 0.09345382
v 0.013244682 0.041355744 0.09279889
v 0.01492897 0.044003446 0.09381378
v 0.015526764 0.04213104 0.09295549
v 0.017657755 0.045092925 0.094105415
v 0.018249113 0.04303009 0.093095444
v 0.023593012 0.044279326 0.09293561
v 0.023158731 0.04637802 0.09390945
v 0.029243162 0.045340575 0.092463374
v 0.028810572 0.047230225 0.09303114
v 0.034104116 0.046088103 0.09160916
v 0.03397072 0.04779602 0.09186777
v 0.039841976 0.04678909 0.09006897
v 0.03987491 0.048168335 0.09018688
v 0.043711465 0.048343964 0.08870684
v 0.043578018 0.04721237 0.08860947
v 0.04756155 0.047437437 0.08666025
v 0.047658045 0.048196256 0.08667623
v 0.050500546 0.04736206 0.08491189
v 0.050624784 0.048030395 0.08496293
v 0.052261114 0.04797882 0.08380041
v 0.052188415 0.047353208 0.083777085
v 0.05375296 0.047877807 0.08255507
v 0.053719576 0.04725189 0.08260438
v 0.055458162 0.04760971 0.080721594
v 0.055417433 0.047155455 0.08072503
v 0.05712923 0.0472023 0.0784812
v -0.00982594 0.04004242 0.09244432
v -0.009576755 0.040591888 0.09268032
v -0.00888341 0.03989624 0.092386246
v -0.011231006 0.040584106 0.09254218
v -0.010749166 0.041464232 0.09304636
v -0.012749119 0.042775724 0.09345382
v -0.013244682 0.041355744 0.09279889
v -0.01492897 0.044003446 0.09381378
v -0.015526764 0.04213104 0.09295549
v -0.017657755 0.045092925 0.094105415
v -0.018249113 0.04303009 0.093095444
v -0.023593012 0.044279326 0.09293561
v -0.023158731 0.04637802 0.09390945
v -0.029243162 0.045340575 0.092463374
v -0.028810572 0.047230225 0.09303114
v -0.034104116 0.046088103 0.09160916
v -0.03397072 0.04779602 0.09186777
v -0.039841976 0.04678909 0.09006897
v -0.03987491 0.048168335 0.09018688
v -0.043711465 0.048343964 0.08870684
v -0.043578018 0.04721237 0.08860947
v -0.04756155 0.047437437 0.08666025
v -0.047658045 0.048196256 0.08667623
v -0.050500546 0.04736206 0.08491189
v -0.050624784 0.048030395 0.08496293
v -0.052261114 0.04797882 0.08380041
v -0.052188415 0.047353208 0.083777085
v -0.05375296 0.047877807 0.08255507
v -0.053719576 0.04725189 0.08260438
v -0.055458162 0.04760971 0.080721594
v -0.055417433 0.047155455 0.08072503
v -0.05712923 0.0472023 0.0784812
vt 0.33234 0.886905
vt 0.334565 0.88304
vt 0.328066 0.881984
vt 0.344251 0.887776
vt 0.340473 0.893209
vt 0.353461 0.9026723
vt 0.35681 0.893401
vt 0.368361 0.9111545
vt 0.371803 0.899422
vt 0.386317 0.9235343
vt 0.391405 0.9054818
vt 0.431457 0.9157515
vt 0.425709 0.9339327
vt 0.468176 0.9223055
vt 0.465172 0.9385554
vt 0.501683 0.9262322
vt 0.500833 0.9403786
vt 0.540876 0.9307878
vt 0.539764 0.9420323
vt 0.566513 0.94163823
vt 0.566861 0.9330723
vt 0.592893 0.93348
vt 0.592762 0.94018483
vt 0.610362 0.9325716
vt 0.610846 0.938544
vt 0.621184 0.9371393
vt 0.620878 0.9314258
vt 0.632553 0.9355943
vt 0.632386 0.9301719
vt 0.64296 0.9323645
vt 0.64284 0.9293647
vt 0.655868 0.9283587
vt 0.334565 0.88304
vt 0.33234 0.886905
vt 0.328066 0.881984
vt 0.344251 0.887776
vt 0.340473 0.893209
vt 0.353461 0.9026723
vt 0.35681 0.893401
vt 0.368361 0.9111545
vt 0.371803 0.899422
vt 0.386317 0.9235343
vt 0.391405 0.9054818
vt 0.431457 0.9157515
vt 0.425709 0.9339327
vt 0.468176 0.9223055
vt 0.465172 0.9385554
vt 0.501683 0.9262322
vt 0.500833 0.9403786
vt 0.540876 0.9307878
vt 0.539764 0.9420323
vt 0.566513 0.94163823
vt 0.566861 0.9330723
vt 0.592893 0.93348
vt 0.592762 0.94018483
vt 0.610362 0.9325716
vt 0.610846 0.938544
vt 0.621184 0.9371393
vt 0.620878 0.9314258
vt 0.632553 0.9355943
vt 0.632386 0.9301719
vt 0.64296 0.9323645
vt 0.64284 0.9293647
vt 0.655868 0.9283587
vn 0.057739288 -0.41196325 0.9093693
vn 0.05147247 -0.3743213 0.92586935
vn 0.0042911833 -0.39299184 0.919532
vn 0.077689014 -0.4352835 0.8969352
vn 0.09911122 -0.4532116 0.88587594
vn 0.06730717 -0.40450227 0.9120568
vn 0.057455804 -0.40141824 0.91409093
vn 0.065615445 -0.39845425 0.9148381
vn 0.07361484 -0.4024567 0.9124743
vn 0.109019734 -0.4065701 0.9070917
vn 0.11168497 -0.41096655 0.9047834
vn 0.13713197 -0.39479455 0.9084779
vn 0.14012668 -0.38026097 0.9142024
vn 0.18889609 -0.26326203 0.9460504
vn 0.1950578 -0.23218788 0.952912
vn 0.24901651 -0.13862327 0.95852715
vn 0.2523951 -0.123386145 0.95972526
vn 0.3076088 -0.09459907 0.9467988
vn 0.31317866 -0.08831124 0.94557935
vn 0.40890247 -0.11966262 0.9046986
vn 0.4063444 -0.12579656 0.90501904
vn 0.47336447 -0.08551725 0.87670565
vn 0.4775325 -0.082955 0.8746892
vn 0.51598763 -0.14824995 0.84366983
vn 0.5193857 -0.16064738 0.83930385
vn 0.59606963 -0.106825486 0.7957948
vn 0.5910942 -0.08629435 0.80197316
vn 0.6845181 0.009497436 0.72893405
vn 0.6793397 0.017975539 0.7336037
vn 0.7664731 -0.056352265 0.6397995
vn 0.7677484 -0.06402199 0.63754493
vn 0.7939589 -0.06660811 0.60431165
vn -0.051472485 -0.37432128 0.92586935
vn -0.057739306 -0.4119633 0.9093693
vn -0.0042911833 -0.39299184 0.919532
vn -0.077689044 -0.4352835 0.8969352
vn -0.09911121 -0.45321155 0.88587594
vn -0.067307174 -0.40450227 0.9120568
vn -0.057455804 -0.4014182 0.91409093
vn -0.065615445 -0.3984543 0.9148381
vn -0.07361485 -0.4024568 0.9124743
vn -0.10901974 -0.4065701 0.9070918
vn -0.11168497 -0.41096655 0.9047834
vn -0.13713197 -0.3947945 0.9084779
vn -0.14012666 -0.38026094 0.9142024
vn -0.18889613 -0.26326212 0.9460504
vn -0.19505778 -0.23218785 0.952912
vn -0.24901651 -0.13862327 0.95852715
vn -0.25239512 -0.123386145 0.95972526
vn -0.3076088 -0.09459907 0.9467988
vn -0.3131787 -0.08831124 0.94557935
vn -0.40890244 -0.119662635 0.9046987
vn -0.4063444 -0.12579657 0.90501904
vn -0.47336447 -0.08551725 0.87670565
vn -0.4775325 -0.082955 0.8746892
vn -0.5159877 -0.14824997 0.84366983
vn -0.51938576 -0.16064738 0.8393037
vn -0.5960696 -0.106825486 0.79579484
vn -0.59109414 -0.08629437 0.80197316
vn -0.684518 0.009497434 0.72893405
vn -0.6793397 0.017975539 0.7336038
vn -0.7664732 -0.056352288 0.6397994
vn -0.7677484 -0.06402198 0.6375449
vn -0.7939589 -0.06660811 0.60431165
g M_Brw_B_Def_0
f 3/3/3 2/2/2 1/1/1
f 1/1/1 2/2/2 4/4/4
f 5/5/5 1/1/1 4/4/4
f 5/5/5 4/4/4 6/6/6
f 7/7/7 6/6/6 4/4/4
f 6/6/6 7/7/7 8/8/8
f 9/9/9 8/8/8 7/7/7
f 8/8/8 9/9/9 10/10/10
f 11/11/11 10/10/10 9/9/9
f 12/12/12 10/10/10 11/11/11
f 10/10/10 12/12/12 13/13/13
f 14/14/14 13/13/13 12/12/12
f 13/13/13 14/14/14 15/15/15
f 16/16/16 15/15/15 14/14/14
f 15/15/15 16/16/16 17/17/17
f 18/18/18 17/17/17 16/16/16
f 18/18/18 19/19/19 17/17/17
f 20/20/20 19/19/19 18/18/18
f 21/21/21 20/20/20 18/18/18
f 21/21/21 22/22/22 20/20/20
f 20/20/20 22/22/22 23/23/23
f 24/24/24 23/23/23 22/22/22
f 25/25/25 23/23/23 24/24/24
f 24/24/24 26/26/26 25/25/25
f 24/24/24 27/27/27 26/26/26
f 28/28/28 26/26/26 27/27/27
f 28/28/28 27/27/27 29/29/29
f 29/29/29 30/30/30 28/28/28
f 29/29/29 31/31/31 30/30/30
f 30/30/30 31/31/31 32/32/32
f 35/35/35 34/34/34 33/33/33
f 34/34/34 36/36/36 33/33/33
f 37/37/37 36/36/36 34/34/34
f 37/37/37 38/38/38 36/36/36
f 39/39/39 36/36/36 38/38/38
f 38/38/38 40/40/40 39/39/39
f 41/41/41 39/39/39 40/40/40
f 40/40/40 42/42/42 41/41/41
f 43/43/43 41/41/41 42/42/42
f 44/44/44 43/43/43 42/42/42
f 42/42/42 45/45/45 44/44/44
f 46/46/46 44/44/44 45/45/45
f 45/45/45 47/47/47 46/46/46
f 48/48/48 46/46/46 47/47/47
f 47/47/47 49/49/49 48/48/48
f 50/50/50 48/48/48 49/49/49
f 50/50/50 49/49/49 51/51/51
f 52/52/52 50/50/50 51/51/51
f 53/53/53 50/50/50 52/52/52
f 53/53/53 52/52/52 54/54/54
f 52/52/52 55/55/55 54/54/54
f 56/56/56 54/54/54 55/55/55
f 57/57/57 56/56/56 55/55/55
f 56/56/56 57/57/57 58/58/58
f 56/56/56 58/58/58 59/59/59
f 60/60/60 59/59/59 58/58/58
f 60/60/60 61/61/61 59/59/59
f 61/61/61 60/60/60 62/62/62
f 61/61/61 62/62/62 63/63/63
f 62/62/62 64/64/64 63/63/63
