g M_Brw_B_Def
v 0.010639386 0.04395004 0.09840272
v 0.010938125 0.04230133 0.097698994
v 0.009495147 0.042154387 0.09791515
v 0.013407068 0.046402436 0.09889758
v 0.014108669 0.043074034 0.097600505
v 0.017282559 0.04725998 0.09877661
v 0.01776172 0.04402832 0.09743405
v 0.021395795 0.048128355 0.098408744
v 0.021701885 0.04507568 0.097377576
v 0.025498504 0.049018554 0.09808152
v 0.025874548 0.046309203 0.097271234
v 0.030886693 0.047691345 0.09691081
v 0.030317852 0.049831696 0.09753146
v 0.03572665 0.049256135 0.096376285
v 0.035401464 0.050849915 0.09685768
v 0.038972247 0.050187223 0.09595627
v 0.03856657 0.05151489 0.09627569
v 0.04234475 0.05106003 0.09538266
v 0.042146277 0.052236173 0.095485784
v 0.046191327 0.052048035 0.09440062
v 0.046150174 0.0531665 0.09442597
v 0.0506021 0.05412506 0.09268642
v 0.05080882 0.053173825 0.09265121
v 0.054147225 0.05491638 0.09108802
v 0.054159794 0.053990934 0.09106889
v 0.057141423 0.055483244 0.08962674
v 0.057311125 0.054695435 0.089552
v 0.059480693 0.05593109 0.08852588
v 0.05967199 0.055340726 0.088437654
v 0.060440067 0.055943295 0.088030525
v -0.010938125 0.04230133 0.097698994
v -0.010639386 0.04395004 0.09840272
v -0.009495147 0.042154387 0.09791515
v -0.013407068 0.046402436 0.09889758
v -0.014108669 0.043074034 0.097600505
v -0.017282559 0.04725998 0.09877661
v -0.01776172 0.04402832 0.09743405
v -0.021395795 0.048128355 0.098408744
v -0.021701885 0.04507568 0.097377576
v -0.025498504 0.049018554 0.09808152
v -0.025874548 0.046309203 0.097271234
v -0.030886693 0.047691345 0.09691081
v -0.030317852 0.049831696 0.09753146
v -0.03572665 0.049256135 0.096376285
v -0.035401464 0.050849915 0.09685768
v -0.038972247 0.050187223 0.09595627
v -0.03856657 0.05151489 0.09627569
v -0.04234475 0.05106003 0.09538266
v -0.042146277 0.052236173 0.095485784
v -0.046191327 0.052048035 0.09440062
v -0.046150174 0.0531665 0.09442597
v -0.0506021 0.05412506 0.09268642
v -0.05080882 0.053173825 0.09265121
v -0.054147225 0.05491638 0.09108802
v -0.054159794 0.053990934 0.09106889
v -0.057141423 0.055483244 0.08962674
v -0.057311125 0.054695435 0.089552
v -0.059480693 0.05593109 0.08852588
v -0.05967199 0.055340726 0.088437654
v -0.060440067 0.055943295 0.088030525
vt 0.318913 0.9045867
vt 0.320874 0.893526
vt 0.298204 0.887866
vt 0.343071 0.9225847
vt 0.341622 0.898409
vt 0.370447 0.92916787
vt 0.373296 0.9088439
vt 0.391717 0.9337213
vt 0.394095 0.9150023
vt 0.412987 0.9382745
vt 0.414893 0.9211606
vt 0.4541 0.9314839
vt 0.452105 0.9460965
vt 0.489332 0.9423372
vt 0.488125 0.9530081
vt 0.504285 0.9462585
vt 0.502872 0.9558201
vt 0.519238 0.9501799
vt 0.51762 0.9586321
vt 0.549076 0.9593817
vt 0.548466 0.9665235
vt 0.570688 0.9718078
vt 0.572073 0.9656037
vt 0.579812 0.9732702
vt 0.58084 0.9688938
vt 0.590011 0.974905
vt 0.590677 0.9725857
vt 0.598308 0.9762349
vt 0.598571 0.975548
vt 0.601961 0.9768204
vt 0.320874 0.893526
vt 0.318913 0.9045867
vt 0.298204 0.887866
vt 0.343071 0.9225847
vt 0.341622 0.898409
vt 0.370447 0.92916787
vt 0.373296 0.9088439
vt 0.391717 0.9337213
vt 0.394095 0.9150023
vt 0.412987 0.9382745
vt 0.414893 0.9211606
vt 0.4541 0.9314839
vt 0.452105 0.9460965
vt 0.489332 0.9423372
vt 0.488125 0.9530081
vt 0.504285 0.9462585
vt 0.502872 0.9558201
vt 0.519238 0.9501799
vt 0.51762 0.9586321
vt 0.549076 0.9593817
vt 0.548466 0.9665235
vt 0.570688 0.9718078
vt 0.572073 0.9656037
vt 0.579812 0.9732702
vt 0.58084 0.9688938
vt 0.590011 0.974905
vt 0.590677 0.9725857
vt 0.598308 0.9762349
vt 0.598571 0.975548
vt 0.601961 0.9768204
vn 0.15998052 -0.36285636 0.91800946
vn 0.13578758 -0.34986895 0.92690533
vn 0.17396325 -0.35975757 0.916685
vn 0.109593466 -0.34265763 0.9330461
vn 0.11564757 -0.3460396 0.9310651
vn 0.14040324 -0.35570884 0.92399037
vn 0.13554932 -0.35181212 0.9262044
vn 0.13415015 -0.31863073 0.9383379
vn 0.11039395 -0.30210802 0.94686
vn 0.13266066 -0.27211797 0.9530756
vn 0.123541795 -0.2685583 0.9553083
vn 0.16273054 -0.2397805 0.95709145
vn 0.16350037 -0.23604502 0.9578885
vn 0.18338023 -0.24549665 0.95189446
vn 0.18439892 -0.24357024 0.95219254
vn 0.20667659 -0.18147042 0.96143293
vn 0.21164066 -0.15638289 0.9647552
vn 0.23867933 -0.059570607 0.96926963
vn 0.24181814 -0.041776765 0.96942186
vn 0.30792046 -0.009915663 0.9513604
vn 0.32191116 -0.009611716 0.946721
vn 0.37110487 0.041925933 0.927644
vn 0.3711142 0.042218152 0.927627
vn 0.43268523 -0.0066639986 0.90152043
vn 0.43353158 -0.011455628 0.9010656
vn 0.43016967 0.004814405 0.9027353
vn 0.42929325 0.0066347206 0.90314084
vn 0.43270573 0.0060295193 0.9015151
vn 0.43445623 0.0061795856 0.9006717
vn 0.45858613 0.015807375 0.8885094
vn -0.13578756 -0.34986895 0.92690533
vn -0.1599805 -0.36285633 0.91800946
vn -0.17396325 -0.35975754 0.916685
vn -0.10959346 -0.34265763 0.9330461
vn -0.11564758 -0.3460396 0.9310651
vn -0.14040324 -0.3557089 0.92399037
vn -0.13554934 -0.35181212 0.9262044
vn -0.13415015 -0.31863073 0.9383379
vn -0.11039396 -0.30210805 0.94686
vn -0.13266069 -0.272118 0.9530756
vn -0.123541795 -0.26855826 0.9553083
vn -0.16273053 -0.23978053 0.95709145
vn -0.16350034 -0.23604502 0.9578885
vn -0.18338023 -0.24549665 0.95189446
vn -0.18439892 -0.24357021 0.95219254
vn -0.20667659 -0.18147042 0.96143293
vn -0.21164066 -0.1563829 0.9647552
vn -0.23867938 -0.059570618 0.96926963
vn -0.24181817 -0.041776765 0.96942186
vn -0.30792063 -0.009915657 0.9513604
vn -0.3219114 -0.00961171 0.946721
vn -0.37110484 0.04192592 0.927644
vn -0.37111416 0.042218145 0.927627
vn -0.43268526 -0.0066640084 0.90152043
vn -0.43353164 -0.011455631 0.9010656
vn -0.43016964 0.0048144 0.9027353
vn -0.4292932 0.006634719 0.90314084
vn -0.43270576 0.0060295244 0.901515
vn -0.43445632 0.006179593 0.9006717
vn -0.45858613 0.015807373 0.8885094
g M_Brw_B_Def_0
f 3/3/3 2/2/2 1/1/1
f 1/1/1 2/2/2 4/4/4
f 5/5/5 4/4/4 2/2/2
f 6/6/6 4/4/4 5/5/5
f 5/5/5 7/7/7 6/6/6
f 7/7/7 8/8/8 6/6/6
f 7/7/7 9/9/9 8/8/8
f 10/10/10 8/8/8 9/9/9
f 10/10/10 9/9/9 11/11/11
f 10/10/10 11/11/11 12/12/12
f 10/10/10 12/12/12 13/13/13
f 12/12/12 14/14/14 13/13/13
f 15/15/15 13/13/13 14/14/14
f 14/14/14 16/16/16 15/15/15
f 15/15/15 16/16/16 17/17/17
f 18/18/18 17/17/17 16/16/16
f 19/19/19 17/17/17 18/18/18
f 20/20/20 19/19/19 18/18/18
f 21/21/21 19/19/19 20/20/20
f 20/20/20 22/22/22 21/21/21
f 20/20/20 23/23/23 22/22/22
f 23/23/23 24/24/24 22/22/22
f 23/23/23 25/25/25 24/24/24
f 25/25/25 26/26/26 24/24/24
f 25/25/25 27/27/27 26/26/26
f 27/27/27 28/28/28 26/26/26
f 27/27/27 29/29/29 28/28/28
f 28/28/28 29/29/29 30/30/30
f 33/33/33 32/32/32 31/31/31
f 32/32/32 34/34/34 31/31/31
f 35/35/35 31/31/31 34/34/34
f 36/36/36 35/35/35 34/34/34
f 35/35/35 36/36/36 37/37/37
f 37/37/37 36/36/36 38/38/38
f 37/37/37 38/38/38 39/39/39
f 40/40/40 39/39/39 38/38/38
f 40/40/40 41/41/41 39/39/39
f 40/40/40 42/42/42 41/41/41
f 40/40/40 43/43/43 42/42/42
f 42/42/42 43/43/43 44/44/44
f 45/45/45 44/44/44 43/43/43
f 44/44/44 45/45/45 46/46/46
f 45/45/45 47/47/47 46/46/46
f 48/48/48 46/46/46 47/47/47
f 49/49/49 48/48/48 47/47/47
f 50/50/50 48/48/48 49/49/49
f 51/51/51 50/50/50 49/49/49
f 50/50/50 51/51/51 52/52/52
f 50/50/50 52/52/52 53/53/53
f 53/53/53 52/52/52 54/54/54
f 53/53/53 54/54/54 55/55/55
f 55/55/55 54/54/54 56/56/56
f 55/55/55 56/56/56 57/57/57
f 57/57/57 56/56/56 58/58/58
f 57/57/57 58/58/58 59/59/59
f 58/58/58 60/60/60 59/59/59
