g M_Brw_B_Def
v 0.05669256 0.04565857 0.07972467
v 0.056341104 0.045496367 0.08024788
v 0.056291103 0.04609268 0.080322854
v 0.053723287 0.045812834 0.08295795
v 0.05368741 0.046674803 0.08298343
v 0.05112461 0.046996307 0.084809355
v 0.05121443 0.046147157 0.084655724
v 0.048423465 0.047309875 0.08662892
v 0.048338223 0.046392974 0.08645805
v 0.045433212 0.04748947 0.08810708
v 0.04533165 0.04660263 0.08788262
v 0.0421659 0.047554474 0.089600064
v 0.042119853 0.046704404 0.08941549
v 0.03890698 0.046606444 0.09068687
v 0.038886953 0.047488555 0.09107107
v 0.03552382 0.04626831 0.09168666
v 0.03549121 0.04723831 0.092105195
v 0.032434843 0.045532838 0.09248626
v 0.032282736 0.046832733 0.09291557
v 0.027091665 0.046002347 0.09380917
v 0.027114667 0.04392456 0.09316778
v 0.02136324 0.044656217 0.094578244
v 0.02195528 0.042399902 0.09365063
v 0.01807291 0.043808594 0.094933555
v 0.018801881 0.041262664 0.09379113
v 0.015047645 0.042982634 0.09521694
v 0.014666142 0.039759826 0.093853794
v 0.011889172 0.042069852 0.09548763
v 0.012124972 0.040479887 0.09474573
v 0.009498696 0.04126236 0.09559717
v 0.009562468 0.040651243 0.095326625
v 0.009189781 0.04093979 0.09549884
v -0.056341104 0.045496367 0.08024788
v -0.05669256 0.04565857 0.07972467
v -0.056291103 0.04609268 0.080322854
v -0.053723287 0.045812834 0.08295795
v -0.05368741 0.046674803 0.08298343
v -0.05112461 0.046996307 0.084809355
v -0.05121443 0.046147157 0.084655724
v -0.048423465 0.047309875 0.08662892
v -0.048338223 0.046392974 0.08645805
v -0.045433212 0.04748947 0.08810708
v -0.04533165 0.04660263 0.08788262
v -0.0421659 0.047554474 0.089600064
v -0.042119853 0.046704404 0.08941549
v -0.03890698 0.046606444 0.09068687
v -0.038886953 0.047488555 0.09107107
v -0.03552382 0.04626831 0.09168666
v -0.03549121 0.04723831 0.092105195
v -0.032434843 0.045532838 0.09248626
v -0.032282736 0.046832733 0.09291557
v -0.027091665 0.046002347 0.09380917
v -0.027114667 0.04392456 0.09316778
v -0.02136324 0.044656217 0.094578244
v -0.02195528 0.042399902 0.09365063
v -0.01807291 0.043808594 0.094933555
v -0.018801881 0.041262664 0.09379113
v -0.015047645 0.042982634 0.09521694
v -0.014666142 0.039759826 0.093853794
v -0.011889172 0.042069852 0.09548763
v -0.012124972 0.040479887 0.09474573
v -0.009498696 0.04126236 0.09559717
v -0.009562468 0.040651243 0.095326625
v -0.009189781 0.04093979 0.09549884
vt 0.651501 0.9503961
vt 0.648467 0.9508625
vt 0.649738 0.9549959
vt 0.632388 0.9559151
vt 0.632388 0.9624575
vt 0.613283 0.9664594
vt 0.612529 0.9602638
vt 0.593458 0.9707774
vt 0.592669 0.9640933
vt 0.574492 0.9731835
vt 0.572231 0.967779
vt 0.55065 0.9757269
vt 0.549696 0.9701637
vt 0.525835 0.9710148
vt 0.525694 0.9773155
vt 0.501153 0.9712187
vt 0.501248 0.9768034
vt 0.478805 0.9674049
vt 0.477864 0.9761647
vt 0.438922 0.9733601
vt 0.442731 0.9571525
vt 0.394228 0.9664465
vt 0.403894 0.9443222
vt 0.369432 0.9604641
vt 0.380815 0.9342449
vt 0.348301 0.952328
vt 0.358032 0.929643
vt 0.323959 0.94274
vt 0.33043 0.9264279
vt 0.308982 0.9315549
vt 0.309915 0.9242421
vt 0.303604 0.9255911
vt 0.648467 0.9508625
vt 0.651501 0.9503961
vt 0.649738 0.9549959
vt 0.632388 0.9559151
vt 0.632388 0.9624575
vt 0.613283 0.9664594
vt 0.612529 0.9602638
vt 0.593458 0.9707774
vt 0.592669 0.9640933
vt 0.574492 0.9731835
vt 0.572231 0.967779
vt 0.55065 0.9757269
vt 0.549696 0.9701637
vt 0.525835 0.9710148
vt 0.525694 0.9773155
vt 0.501153 0.9712187
vt 0.501248 0.9768034
vt 0.478805 0.9674049
vt 0.477864 0.9761647
vt 0.438922 0.9733601
vt 0.442731 0.9571525
vt 0.394228 0.9664465
vt 0.403894 0.9443222
vt 0.369432 0.9604641
vt 0.380815 0.9342449
vt 0.348301 0.952328
vt 0.358032 0.929643
vt 0.323959 0.94274
vt 0.33043 0.9264279
vt 0.308982 0.9315549
vt 0.309915 0.9242421
vt 0.303604 0.9255911
vn 0.8301679 -0.00048847776 0.55751336
vn 0.73725176 -0.023088966 0.67522347
vn 0.7261619 -0.019767435 0.68723947
vn 0.660184 -0.002419952 0.75109994
vn 0.64827454 0.0044885054 0.7613935
vn 0.551908 -0.08465678 0.82959676
vn 0.5455666 -0.10314289 0.8316962
vn 0.46675652 -0.1965332 0.862272
vn 0.46649662 -0.20898896 0.8594792
vn 0.39895368 -0.26228818 0.8786585
vn 0.3980738 -0.26383498 0.8785945
vn 0.3906694 -0.23406668 0.89027536
vn 0.39110062 -0.21546784 0.89477026
vn 0.34377033 -0.35863963 0.8678707
vn 0.33870587 -0.36862978 0.86567336
vn 0.30467048 -0.3691399 0.8780158
vn 0.29795328 -0.3540072 0.8865116
vn 0.22875053 -0.28660968 0.93033767
vn 0.22958077 -0.28089902 0.9318735
vn 0.20011304 -0.28688824 0.93682975
vn 0.1974434 -0.2937766 0.93526
vn 0.1861696 -0.32568756 0.9269674
vn 0.18223126 -0.33773348 0.92343265
vn 0.18024644 -0.35447297 0.9175293
vn 0.16984887 -0.37464097 0.9114798
vn 0.17607039 -0.3934518 0.9023274
vn 0.1740329 -0.40020716 0.8997482
vn 0.18886943 -0.397664 0.8978818
vn 0.19431232 -0.39065474 0.8997953
vn 0.17450832 -0.39012527 0.9040736
vn 0.17667441 -0.38297236 0.90670747
vn 0.11841258 -0.39160517 0.91248226
vn -0.73725176 -0.02308898 0.6752236
vn -0.8301679 -0.0004884777 0.55751336
vn -0.72616184 -0.019767456 0.6872395
vn -0.6601839 -0.0024199644 0.7511002
vn -0.6482743 0.0044884915 0.76139355
vn -0.551908 -0.08465676 0.82959676
vn -0.5455666 -0.10314291 0.8316962
vn -0.46675652 -0.19653319 0.862272
vn -0.46649662 -0.20898898 0.8594792
vn -0.39895365 -0.26228818 0.8786585
vn -0.39807382 -0.26383498 0.8785945
vn -0.39066932 -0.23406671 0.89027536
vn -0.39110053 -0.21546786 0.8947703
vn -0.34377035 -0.35863954 0.8678707
vn -0.3387059 -0.36862978 0.86567336
vn -0.30467048 -0.36913985 0.8780158
vn -0.2979532 -0.35400718 0.8865116
vn -0.22875054 -0.28660968 0.93033767
vn -0.22958077 -0.28089902 0.9318735
vn -0.20011304 -0.28688827 0.93682975
vn -0.1974434 -0.2937766 0.93526
vn -0.1861696 -0.32568753 0.9269674
vn -0.18223126 -0.33773348 0.92343265
vn -0.18024644 -0.35447297 0.9175293
vn -0.16984887 -0.374641 0.9114798
vn -0.17607039 -0.39345187 0.9023274
vn -0.1740329 -0.40020716 0.8997482
vn -0.18886939 -0.397664 0.8978818
vn -0.19431227 -0.39065474 0.8997953
vn -0.17450833 -0.39012533 0.9040736
vn -0.17667443 -0.38297236 0.90670747
vn -0.11841258 -0.39160517 0.91248226
g M_Brw_B_Def_0
f 3/3/3 2/2/2 1/1/1
f 4/4/4 2/2/2 3/3/3
f 4/4/4 3/3/3 5/5/5
f 5/5/5 6/6/6 4/4/4
f 4/4/4 6/6/6 7/7/7
f 8/8/8 7/7/7 6/6/6
f 9/9/9 7/7/7 8/8/8
f 8/8/8 10/10/10 9/9/9
f 9/9/9 10/10/10 11/11/11
f 12/12/12 11/11/11 10/10/10
f 13/13/13 11/11/11 12/12/12
f 12/12/12 14/14/14 13/13/13
f 12/12/12 15/15/15 14/14/14
f 16/16/16 14/14/14 15/15/15
f 16/16/16 15/15/15 17/17/17
f 16/16/16 17/17/17 18/18/18
f 17/17/17 19/19/19 18/18/18
f 18/18/18 19/19/19 20/20/20
f 18/18/18 20/20/20 21/21/21
f 22/22/22 21/21/21 20/20/20
f 21/21/21 22/22/22 23/23/23
f 22/22/22 24/24/24 23/23/23
f 23/23/23 24/24/24 25/25/25
f 26/26/26 25/25/25 24/24/24
f 27/27/27 25/25/25 26/26/26
f 27/27/27 26/26/26 28/28/28
f 28/28/28 29/29/29 27/27/27
f 28/28/28 30/30/30 29/29/29
f 30/30/30 31/31/31 29/29/29
f 32/32/32 31/31/31 30/30/30
f 35/35/35 34/34/34 33/33/33
f 36/36/36 35/35/35 33/33/33
f 36/36/36 37/37/37 35/35/35
f 37/37/37 36/36/36 38/38/38
f 36/36/36 39/39/39 38/38/38
f 40/40/40 38/38/38 39/39/39
f 41/41/41 40/40/40 39/39/39
f 40/40/40 41/41/41 42/42/42
f 41/41/41 43/43/43 42/42/42
f 44/44/44 42/42/42 43/43/43
f 45/45/45 44/44/44 43/43/43
f 44/44/44 45/45/45 46/46/46
f 44/44/44 46/46/46 47/47/47
f 48/48/48 47/47/47 46/46/46
f 48/48/48 49/49/49 47/47/47
f 48/48/48 50/50/50 49/49/49
f 49/49/49 50/50/50 51/51/51
f 50/50/50 52/52/52 51/51/51
f 50/50/50 53/53/53 52/52/52
f 54/54/54 52/52/52 53/53/53
f 53/53/53 55/55/55 54/54/54
f 54/54/54 55/55/55 56/56/56
f 55/55/55 57/57/57 56/56/56
f 58/58/58 56/56/56 57/57/57
f 59/59/59 58/58/58 57/57/57
f 59/59/59 60/60/60 58/58/58
f 60/60/60 59/59/59 61/61/61
f 60/60/60 61/61/61 62/62/62
f 62/62/62 61/61/61 63/63/63
f 64/64/64 62/62/62 63/63/63
