g M_Brw_B_Def
v -0.021394866 0.059674222 0.09891385
v -0.022587925 0.06496795 0.098210365
v -0.020431764 0.06350204 0.09846277
v -0.019911006 0.058935698 0.09897338
v -0.019325715 0.062195282 0.0985344
v -0.018374743 0.060846556 0.0985269
v -0.018720903 0.057624053 0.09889509
v -0.017662568 0.05928604 0.09856759
v -0.01734315 0.057814024 0.09862746
v -0.017406546 0.05622925 0.0985438
v -0.018526297 0.055491026 0.09836429
v -0.020151364 0.05557251 0.09811311
v -0.021399777 0.055848997 0.09800264
v -0.022987079 0.056315918 0.097734526
v -0.02328856 0.060504913 0.0988212
v -0.022587925 0.06496795 0.098210365
v -0.024656419 0.056834716 0.09749795
v -0.025276862 0.061105497 0.098537825
v -0.02475422 0.06558258 0.09788554
v -0.026943538 0.05753662 0.09716157
v -0.027613683 0.06163467 0.09818525
v -0.027242832 0.065956876 0.09746844
v -0.030332858 0.058478393 0.09664905
v -0.030782754 0.062220458 0.09744884
v -0.030453444 0.06620438 0.09682333
v -0.033631537 0.059420623 0.095945
v -0.0338221 0.06285034 0.09669612
v -0.033285018 0.06636093 0.09610031
v -0.037032466 0.06022583 0.09516898
v -0.037002467 0.06321289 0.09583574
v -0.036710512 0.06629471 0.09530437
v -0.040309913 0.06345062 0.09495951
v -0.040300902 0.061009824 0.09420214
v -0.043287456 0.0635347 0.093910135
v -0.040190533 0.06602356 0.09428374
v -0.043183707 0.062025297 0.09335235
v -0.043306727 0.065492705 0.093542576
v -0.04462366 0.06266846 0.09297004
v -0.044870656 0.064673156 0.092986666
v -0.04483434 0.06364792 0.0932839
v -0.045456003 0.06386032 0.09284139
v 0.017406546 0.05622925 0.0985438
v 0.018720903 0.057624053 0.09889509
v 0.018526297 0.055491026 0.09836429
v 0.01734315 0.057814024 0.09862746
v 0.017662568 0.05928604 0.09856759
v 0.020151364 0.05557251 0.09811311
v 0.018374743 0.060846556 0.0985269
v 0.019911006 0.058935698 0.09897338
v 0.019325715 0.062195282 0.0985344
v 0.021399777 0.055848997 0.09800264
v 0.020431764 0.06350204 0.09846277
v 0.021394866 0.059674222 0.09891385
v 0.022987079 0.056315918 0.097734526
v 0.022587925 0.06496795 0.098210365
v 0.02328856 0.060504913 0.0988212
v 0.024656419 0.056834716 0.09749795
v 0.025276862 0.061105497 0.098537825
v 0.02475422 0.06558258 0.09788554
v 0.026943538 0.05753662 0.09716157
v 0.027613683 0.06163467 0.09818525
v 0.027242832 0.065956876 0.09746844
v 0.030332858 0.058478393 0.09664905
v 0.030782754 0.062220458 0.09744884
v 0.030453444 0.06620438 0.09682333
v 0.033631537 0.059420623 0.095945
v 0.0338221 0.06285034 0.09669612
v 0.033285018 0.06636093 0.09610031
v 0.037032466 0.06022583 0.09516898
v 0.037002467 0.06321289 0.09583574
v 0.036710512 0.06629471 0.09530437
v 0.040309913 0.06345062 0.09495951
v 0.040300902 0.061009824 0.09420214
v 0.043287456 0.0635347 0.093910135
v 0.040190533 0.06602356 0.09428374
v 0.043183707 0.062025297 0.09335235
v 0.043306727 0.065492705 0.093542576
v 0.04462366 0.06266846 0.09297004
v 0.044870656 0.064673156 0.092986666
v 0.04483434 0.06364792 0.0932839
v 0.045456003 0.06386032 0.09284139
vt 0.371335 0.9068292
vt 0.378373 0.9425503
vt 0.366502 0.9328372
vt 0.362353 0.9020492
vt 0.359853 0.9242949
vt 0.353583 0.9149952
vt 0.354401 0.89344
vt 0.348556 0.9046262
vt 0.345968 0.89504
vt 0.345316 0.884265
vt 0.35291 0.879699
vt 0.362649 0.879457
vt 0.370097 0.880663
vt 0.379547 0.882811
vt 0.381335 0.911635
vt 0.378373 0.9425503
vt 0.389408 0.88547003
vt 0.392541 0.9149917
vt 0.389991 0.9475728
vt 0.402929 0.889296
vt 0.406247 0.9188547
vt 0.403589 0.9505962
vt 0.423159 0.895256
vt 0.425373 0.9231412
vt 0.422873 0.9526018
vt 0.442796 0.9020542
vt 0.443693 0.9274993
vt 0.440267 0.9527398
vt 0.462908 0.9092861
vt 0.463489 0.9297745
vt 0.46084 0.9514924
vt 0.482469 0.9316914
vt 0.482146 0.9156125
vt 0.499887 0.9331848
vt 0.481123 0.9488024
vt 0.49902 0.9224124
vt 0.499489 0.9444164
vt 0.507647 0.9264335
vt 0.508891 0.9388518
vt 0.508776 0.9324932
vt 0.512485 0.9336719
vt 0.345316 0.884265
vt 0.354401 0.89344
vt 0.35291 0.879699
vt 0.345968 0.89504
vt 0.348556 0.9046262
vt 0.362649 0.879457
vt 0.353583 0.9149952
vt 0.362353 0.9020492
vt 0.359853 0.9242949
vt 0.370097 0.880663
vt 0.366502 0.9328372
vt 0.371335 0.9068292
vt 0.379547 0.882811
vt 0.378373 0.9425503
vt 0.381335 0.911635
vt 0.389408 0.88547003
vt 0.392541 0.9149917
vt 0.389991 0.9475728
vt 0.402929 0.889296
vt 0.406247 0.9188547
vt 0.403589 0.9505962
vt 0.423159 0.895256
vt 0.425373 0.9231412
vt 0.422873 0.9526018
vt 0.442796 0.9020542
vt 0.443693 0.9274993
vt 0.440267 0.9527398
vt 0.462908 0.9092861
vt 0.463489 0.9297745
vt 0.46084 0.9514924
vt 0.482469 0.9316914
vt 0.482146 0.9156125
vt 0.499887 0.9331848
vt 0.481123 0.9488024
vt 0.49902 0.9224124
vt 0.499489 0.9444164
vt 0.507647 0.9264335
vt 0.508891 0.9388518
vt 0.508776 0.9324932
vt 0.512485 0.9336719
vn -0.07682136 -0.05150796 0.9957136
vn -0.06925028 0.1438857 0.9871683
vn -0.014746127 0.12308987 0.99228597
vn -0.018722422 -0.05099965 0.9985232
vn 0.09606101 0.11588683 0.9886064
vn 0.15818417 0.10091351 0.98223937
vn -0.017924746 -0.11620555 0.9930634
vn 0.15932219 0.09222422 0.98290956
vn 0.18927807 0.010522573 0.9818671
vn 0.06686528 -0.18397547 0.9806538
vn -0.10443806 -0.24912415 0.96282387
vn -0.15426946 -0.23978701 0.95849
vn -0.18465461 -0.22989215 0.9555377
vn -0.20926179 -0.24581447 0.946459
vn -0.11008111 -0.04050583 0.9930969
vn -0.06925028 0.1438857 0.9871683
vn -0.21578063 -0.26021725 0.94113
vn -0.15736154 -0.042347148 0.9866327
vn -0.11806865 0.16244204 0.97962874
vn -0.21522342 -0.266133 0.93960214
vn -0.1955831 -0.034752645 0.9800711
vn -0.1653082 0.17238012 0.9710604
vn -0.24617873 -0.24631825 0.9374024
vn -0.23400064 -0.019970443 0.97203135
vn -0.19890396 0.17447023 0.9643637
vn -0.26876193 -0.22421744 0.9367462
vn -0.25279775 -0.002699472 0.9675154
vn -0.23151976 0.19477355 0.9531326
vn -0.2792103 -0.22288144 0.9340051
vn -0.25687206 0.0013665846 0.96644443
vn -0.24120636 0.19909069 0.9498328
vn -0.3083951 -0.0022713363 0.9512557
vn -0.33471727 -0.2859988 0.8978691
vn -0.3447982 -0.032835435 0.93810236
vn -0.29330075 0.24552733 0.923954
vn -0.37649125 -0.34378883 0.8602695
vn -0.29783034 0.17329629 0.93875736
vn -0.40191606 -0.35068637 0.845862
vn -0.4024404 0.1939635 0.89466184
vn -0.4483231 -0.059540734 0.8918864
vn -0.5817839 -0.008383193 0.81330025
vn -0.06686526 -0.18397549 0.9806538
vn 0.01792451 -0.116205394 0.9930635
vn 0.10443799 -0.24912415 0.96282387
vn -0.18927807 0.010522533 0.9818671
vn -0.15932219 0.09222423 0.98290956
vn 0.15426943 -0.23978698 0.95849
vn -0.15818419 0.10091351 0.98223937
vn 0.018722272 -0.050999492 0.9985232
vn -0.09606101 0.11588684 0.9886064
vn 0.18465461 -0.22989213 0.9555377
vn 0.014746123 0.123089865 0.99228597
vn 0.07682134 -0.051507942 0.9957136
vn 0.2092618 -0.24581447 0.946459
vn 0.06925029 0.14388572 0.9871683
vn 0.11008109 -0.040505834 0.9930969
vn 0.21578062 -0.26021722 0.94113
vn 0.15736155 -0.042347215 0.9866326
vn 0.11806865 0.16244204 0.97962874
vn 0.21522342 -0.266133 0.93960214
vn 0.19558313 -0.034752645 0.9800711
vn 0.16530819 0.1723801 0.9710604
vn 0.24617873 -0.24631825 0.9374024
vn 0.23400062 -0.019970369 0.97203135
vn 0.19890393 0.17447017 0.9643637
vn 0.26876193 -0.22421744 0.9367463
vn 0.25279775 -0.0026995193 0.9675154
vn 0.23151971 0.19477354 0.9531326
vn 0.27921027 -0.22288144 0.9340051
vn 0.25687206 0.0013662907 0.96644443
vn 0.24120636 0.19909072 0.9498328
vn 0.30839515 -0.0022712813 0.9512557
vn 0.33471727 -0.28599882 0.8978691
vn 0.34479827 -0.0328355 0.93810236
vn 0.29330075 0.24552736 0.923954
vn 0.37649125 -0.3437889 0.8602695
vn 0.29783034 0.17329627 0.93875736
vn 0.40191597 -0.35068634 0.845862
vn 0.4024403 0.19396348 0.89466196
vn 0.44832295 -0.05954083 0.8918864
vn 0.5817839 -0.008383404 0.81330013
g M_Brw_B_Def_0
f 3/3/3 2/2/2 1/1/1
f 4/4/4 3/3/3 1/1/1
f 5/5/5 3/3/3 4/4/4
f 6/6/6 5/5/5 4/4/4
f 6/6/6 4/4/4 7/7/7
f 8/8/8 6/6/6 7/7/7
f 9/9/9 8/8/8 7/7/7
f 10/10/10 9/9/9 7/7/7
f 11/11/11 10/10/10 7/7/7
f 12/12/12 11/11/11 7/7/7
f 12/12/12 7/7/7 4/4/4
f 13/13/13 12/12/12 4/4/4
f 4/4/4 1/1/1 13/13/13
f 14/14/14 13/13/13 1/1/1
f 15/15/15 14/14/14 1/1/1
f 15/15/15 1/1/1 16/16/16
f 14/14/14 15/15/15 17/17/17
f 15/15/15 16/16/16 18/18/18
f 18/18/18 17/17/17 15/15/15
f 19/19/19 18/18/18 16/16/16
f 20/20/20 17/17/17 18/18/18
f 19/19/19 21/21/21 18/18/18
f 20/20/20 18/18/18 21/21/21
f 19/19/19 22/22/22 21/21/21
f 23/23/23 20/20/20 21/21/21
f 22/22/22 24/24/24 21/21/21
f 23/23/23 21/21/21 24/24/24
f 22/22/22 25/25/25 24/24/24
f 26/26/26 23/23/23 24/24/24
f 25/25/25 27/27/27 24/24/24
f 26/26/26 24/24/24 27/27/27
f 25/25/25 28/28/28 27/27/27
f 29/29/29 26/26/26 27/27/27
f 28/28/28 30/30/30 27/27/27
f 29/29/29 27/27/27 30/30/30
f 28/28/28 31/31/31 30/30/30
f 29/29/29 30/30/30 32/32/32
f 30/30/30 31/31/31 32/32/32
f 33/33/33 29/29/29 32/32/32
f 33/33/33 32/32/32 34/34/34
f 35/35/35 32/32/32 31/31/31
f 32/32/32 35/35/35 34/34/34
f 36/36/36 33/33/33 34/34/34
f 37/37/37 34/34/34 35/35/35
f 36/36/36 34/34/34 38/38/38
f 37/37/37 39/39/39 34/34/34
f 40/40/40 38/38/38 34/34/34
f 39/39/39 40/40/40 34/34/34
f 41/41/41 38/38/38 40/40/40
f 39/39/39 41/41/41 40/40/40
f 44/44/44 43/43/43 42/42/42
f 42/42/42 43/43/43 45/45/45
f 45/45/45 43/43/43 46/46/46
f 47/47/47 43/43/43 44/44/44
f 46/46/46 43/43/43 48/48/48
f 47/47/47 49/49/49 43/43/43
f 48/48/48 43/43/43 49/49/49
f 48/48/48 49/49/49 50/50/50
f 51/51/51 49/49/49 47/47/47
f 50/50/50 49/49/49 52/52/52
f 49/49/49 51/51/51 53/53/53
f 49/49/49 53/53/53 52/52/52
f 54/54/54 53/53/53 51/51/51
f 52/52/52 53/53/53 55/55/55
f 56/56/56 53/53/53 54/54/54
f 56/56/56 55/55/55 53/53/53
f 54/54/54 57/57/57 56/56/56
f 56/56/56 58/58/58 55/55/55
f 58/58/58 56/56/56 57/57/57
f 59/59/59 55/55/55 58/58/58
f 60/60/60 58/58/58 57/57/57
f 59/59/59 58/58/58 61/61/61
f 60/60/60 61/61/61 58/58/58
f 59/59/59 61/61/61 62/62/62
f 63/63/63 61/61/61 60/60/60
f 62/62/62 61/61/61 64/64/64
f 63/63/63 64/64/64 61/61/61
f 62/62/62 64/64/64 65/65/65
f 66/66/66 64/64/64 63/63/63
f 65/65/65 64/64/64 67/67/67
f 66/66/66 67/67/67 64/64/64
f 65/65/65 67/67/67 68/68/68
f 69/69/69 67/67/67 66/66/66
f 68/68/68 67/67/67 70/70/70
f 69/69/69 70/70/70 67/67/67
f 68/68/68 70/70/70 71/71/71
f 69/69/69 72/72/72 70/70/70
f 70/70/70 72/72/72 71/71/71
f 73/73/73 72/72/72 69/69/69
f 73/73/73 74/74/74 72/72/72
f 75/75/75 71/71/71 72/72/72
f 72/72/72 74/74/74 75/75/75
f 76/76/76 74/74/74 73/73/73
f 77/77/77 75/75/75 74/74/74
f 76/76/76 78/78/78 74/74/74
f 77/77/77 74/74/74 79/79/79
f 80/80/80 74/74/74 78/78/78
f 79/79/79 74/74/74 80/80/80
f 81/81/81 80/80/80 78/78/78
f 79/79/79 80/80/80 81/81/81
