g M_Brw_B_Def
v 0.06085595 0.054572448 0.085635826
v 0.060873855 0.054929044 0.08587252
v 0.061481003 0.054677732 0.08519841
v 0.05855362 0.05506836 0.08782685
v 0.058575373 0.054692227 0.08746737
v 0.05584734 0.05509689 0.08969579
v 0.055885404 0.05469162 0.08946301
v 0.052972645 0.055060577 0.0912584
v 0.052972026 0.05459381 0.09102326
v 0.049753673 0.05495865 0.092772424
v 0.049819797 0.054353025 0.09265145
v 0.04657812 0.054725952 0.09407762
v 0.04686119 0.05418945 0.09395967
v 0.04360731 0.05439026 0.09532123
v 0.043700524 0.0538031 0.09520447
v 0.040196944 0.05372772 0.096469514
v 0.040380962 0.053083647 0.09635005
v 0.037266694 0.05307724 0.09726725
v 0.03739051 0.052234955 0.09724156
v 0.03392487 0.052171476 0.09802254
v 0.03430309 0.051087186 0.09798687
v 0.030609729 0.051302183 0.09864509
v 0.030571517 0.049748532 0.09857581
v 0.026893908 0.050153807 0.09922244
v 0.027064933 0.04850052 0.099058606
v 0.023343602 0.04886551 0.09963213
v 0.023365743 0.047159117 0.09948295
v 0.019889789 0.04759491 0.09992337
v 0.019983288 0.045794677 0.09970477
v 0.016888201 0.04644043 0.1000749
v 0.01718586 0.044752806 0.09972557
v 0.014207177 0.04532135 0.100112386
v 0.014759784 0.043862153 0.09973517
v 0.0126200495 0.04458313 0.100122415
v 0.013214811 0.04334137 0.09974241
v 0.011765904 0.04404419 0.10009207
v 0.012195046 0.042979125 0.099762864
v 0.010921238 0.04349762 0.100049905
v 0.011272107 0.04268738 0.09978234
v 0.010172129 0.04286499 0.09997115
v 0.010328046 0.042496186 0.09982637
v 0.009740426 0.04238861 0.099863105
v -0.060873855 0.054929044 0.08587252
v -0.06085595 0.054572448 0.085635826
v -0.061481003 0.054677732 0.08519841
v -0.05855362 0.05506836 0.08782685
v -0.058575373 0.054692227 0.08746737
v -0.05584734 0.05509689 0.08969579
v -0.055885404 0.05469162 0.08946301
v -0.052972645 0.055060577 0.0912584
v -0.052972026 0.05459381 0.09102326
v -0.049753673 0.05495865 0.092772424
v -0.049819797 0.054353025 0.09265145
v -0.04657812 0.054725952 0.09407762
v -0.04686119 0.05418945 0.09395967
v -0.04360731 0.05439026 0.09532123
v -0.043700524 0.0538031 0.09520447
v -0.040196944 0.05372772 0.096469514
v -0.040380962 0.053083647 0.09635005
v -0.037266694 0.05307724 0.09726725
v -0.03739051 0.052234955 0.09724156
v -0.03392487 0.052171476 0.09802254
v -0.03430309 0.051087186 0.09798687
v -0.030609729 0.051302183 0.09864509
v -0.030571517 0.049748532 0.09857581
v -0.026893908 0.050153807 0.09922244
v -0.027064933 0.04850052 0.099058606
v -0.023343602 0.04886551 0.09963213
v -0.023365743 0.047159117 0.09948295
v -0.019889789 0.04759491 0.09992337
v -0.019983288 0.045794677 0.09970477
v -0.016888201 0.04644043 0.1000749
v -0.01718586 0.044752806 0.09972557
v -0.014207177 0.04532135 0.100112386
v -0.014759784 0.043862153 0.09973517
v -0.0126200495 0.04458313 0.100122415
v -0.013214811 0.04334137 0.09974241
v -0.011765904 0.04404419 0.10009207
v -0.012195046 0.042979125 0.099762864
v -0.010921238 0.04349762 0.100049905
v -0.011272107 0.04268738 0.09978234
v -0.010172129 0.04286499 0.09997115
v -0.010328046 0.042496186 0.09982637
v -0.009740426 0.04238861 0.099863105
vt 0.62316 0.9557278
vt 0.623278 0.9580696
vt 0.627264 0.9564195
vt 0.608044 0.9589837
vt 0.608187 0.9565146
vt 0.590275 0.9591711
vt 0.590525 0.9565103
vt 0.571401 0.9589329
vt 0.571397 0.955868
vt 0.550266 0.9582634
vt 0.5507 0.9542873
vt 0.529416 0.9567356
vt 0.531137 0.9532416
vt 0.508767 0.954464
vt 0.510306 0.9507947
vt 0.477962 0.9488058
vt 0.47907 0.9449883
vt 0.437801 0.9379044
vt 0.439428 0.933512
vt 0.414556 0.9311316
vt 0.415183 0.9237058
vt 0.389687 0.923203
vt 0.392211 0.91414
vt 0.368564 0.9163237
vt 0.372295 0.90605843
vt 0.354183 0.9103642
vt 0.358008 0.899907
vt 0.34043 0.9049262
vt 0.344204 0.893889
vt 0.326626 0.899271
vt 0.331159 0.889149
vt 0.314943 0.894518
vt 0.31946 0.88487303
vt 0.306414 0.890169
vt 0.310307 0.881953
vt 0.300777 0.886685
vt 0.303572 0.879708
vt 0.295186 0.88317
vt 0.297474 0.877879
vt 0.290175 0.879111
vt 0.291208 0.876732
vt 0.287328 0.876146
vt 0.623278 0.9580696
vt 0.62316 0.9557278
vt 0.627264 0.9564195
vt 0.608044 0.9589837
vt 0.608187 0.9565146
vt 0.590275 0.9591711
vt 0.590525 0.9565103
vt 0.571401 0.9589329
vt 0.571397 0.955868
vt 0.550266 0.9582634
vt 0.5507 0.9542873
vt 0.529416 0.9567356
vt 0.531137 0.9532416
vt 0.508767 0.954464
vt 0.510306 0.9507947
vt 0.477962 0.9488058
vt 0.47907 0.9449883
vt 0.437801 0.9379044
vt 0.439428 0.933512
vt 0.414556 0.9311316
vt 0.415183 0.9237058
vt 0.389687 0.923203
vt 0.392211 0.91414
vt 0.368564 0.9163237
vt 0.372295 0.90605843
vt 0.354183 0.9103642
vt 0.358008 0.899907
vt 0.34043 0.9049262
vt 0.344204 0.893889
vt 0.326626 0.899271
vt 0.331159 0.889149
vt 0.314943 0.894518
vt 0.31946 0.88487303
vt 0.306414 0.890169
vt 0.310307 0.881953
vt 0.300777 0.886685
vt 0.303572 0.879708
vt 0.295186 0.88317
vt 0.297474 0.877879
vt 0.290175 0.879111
vt 0.291208 0.876732
vt 0.287328 0.876146
vn 0.54472846 -0.4909794 0.6798603
vn 0.54844487 -0.48137853 0.6837274
vn 0.5560551 -0.47883952 0.6793492
vn 0.46267983 -0.59585255 0.65641993
vn 0.47738928 -0.58592147 0.65482485
vn 0.4799902 -0.41193217 0.77454585
vn 0.50757056 -0.39219373 0.7671741
vn 0.41669264 -0.409826 0.8114246
vn 0.4269151 -0.39065698 0.8155554
vn 0.41967452 -0.14457734 0.8960863
vn 0.4292869 -0.12556131 0.89439774
vn 0.3915376 -0.0050036316 0.9201485
vn 0.39682555 0.00030736942 0.91789395
vn 0.35686567 -0.12195135 0.92616135
vn 0.35792768 -0.12367739 0.9255224
vn 0.3105386 -0.08969264 0.94631976
vn 0.31395823 -0.07525187 0.94644994
vn 0.2511077 0.001879698 0.9679574
vn 0.24584977 0.012170029 0.96923155
vn 0.19632278 0.033748507 0.97995836
vn 0.19573107 0.022488702 0.9803997
vn 0.17091987 -0.042619847 0.9843627
vn 0.16908239 -0.052894875 0.9841815
vn 0.15565662 -0.07746049 0.98476946
vn 0.15235883 -0.082056575 0.98491293
vn 0.13269684 -0.084399685 0.9875567
vn 0.12588955 -0.08949266 0.98799944
vn 0.10512623 -0.110076025 0.98834795
vn 0.09878771 -0.12677011 0.9870007
vn 0.08683132 -0.17314467 0.98106134
vn 0.08397104 -0.19249257 0.97769904
vn 0.09371974 -0.20791297 0.9736472
vn 0.08978061 -0.2223604 0.97082204
vn 0.10420428 -0.23318714 0.9668326
vn 0.097303554 -0.25018016 0.9632974
vn 0.114053816 -0.2471138 0.96225077
vn 0.10990293 -0.25556603 0.9605245
vn 0.11517407 -0.26002428 0.9587087
vn 0.11135569 -0.27114207 0.9560763
vn 0.117510416 -0.29050902 0.94962937
vn 0.111791834 -0.321812 0.9401806
vn 0.11728164 -0.3195383 0.94028735
vn -0.54844487 -0.48137853 0.6837274
vn -0.54472846 -0.49097943 0.6798603
vn -0.5560551 -0.4788395 0.6793492
vn -0.46267986 -0.5958525 0.65641993
vn -0.47738928 -0.5859215 0.6548248
vn -0.47998998 -0.41193223 0.77454597
vn -0.5075703 -0.39219385 0.76717424
vn -0.4166926 -0.40982598 0.8114247
vn -0.42691502 -0.39065698 0.8155554
vn -0.41967458 -0.14457737 0.8960863
vn -0.42928687 -0.1255613 0.8943976
vn -0.39153758 -0.0050036325 0.92014855
vn -0.39682555 0.00030735956 0.91789395
vn -0.35686573 -0.12195135 0.92616135
vn -0.35792765 -0.12367734 0.9255224
vn -0.31053862 -0.08969264 0.94631976
vn -0.3139583 -0.0752519 0.94644994
vn -0.25110757 0.0018796908 0.9679574
vn -0.24584973 0.01217003 0.96923155
vn -0.19632278 0.03374851 0.97995836
vn -0.19573107 0.022488737 0.9803997
vn -0.17091987 -0.04261983 0.9843627
vn -0.16908237 -0.052894875 0.9841816
vn -0.15565664 -0.07746049 0.98476946
vn -0.15235884 -0.08205657 0.98491293
vn -0.13269682 -0.08439967 0.9875567
vn -0.12588954 -0.08949264 0.98799944
vn -0.10512625 -0.110076025 0.98834795
vn -0.0987877 -0.12677012 0.9870007
vn -0.08683132 -0.17314467 0.98106134
vn -0.08397103 -0.19249257 0.97769904
vn -0.09371974 -0.20791297 0.9736472
vn -0.08978059 -0.22236039 0.97082204
vn -0.10420428 -0.23318714 0.9668326
vn -0.097303554 -0.25018018 0.9632974
vn -0.1140538 -0.24711373 0.96225077
vn -0.10990293 -0.25556606 0.9605245
vn -0.11517408 -0.26002425 0.9587087
vn -0.111355685 -0.27114207 0.9560763
vn -0.1175104 -0.290509 0.94962937
vn -0.11179184 -0.32181206 0.9401806
vn -0.11728163 -0.3195383 0.94028735
g M_Brw_B_Def_0
f 3/3/3 2/2/2 1/1/1
f 2/2/2 4/4/4 1/1/1
f 5/5/5 1/1/1 4/4/4
f 4/4/4 6/6/6 5/5/5
f 7/7/7 5/5/5 6/6/6
f 6/6/6 8/8/8 7/7/7
f 9/9/9 7/7/7 8/8/8
f 8/8/8 10/10/10 9/9/9
f 11/11/11 9/9/9 10/10/10
f 10/10/10 12/12/12 11/11/11
f 13/13/13 11/11/11 12/12/12
f 12/12/12 14/14/14 13/13/13
f 15/15/15 13/13/13 14/14/14
f 14/14/14 16/16/16 15/15/15
f 15/15/15 16/16/16 17/17/17
f 16/16/16 18/18/18 17/17/17
f 19/19/19 17/17/17 18/18/18
f 18/18/18 20/20/20 19/19/19
f 21/21/21 19/19/19 20/20/20
f 20/20/20 22/22/22 21/21/21
f 23/23/23 21/21/21 22/22/22
f 22/22/22 24/24/24 23/23/23
f 25/25/25 23/23/23 24/24/24
f 24/24/24 26/26/26 25/25/25
f 27/27/27 25/25/25 26/26/26
f 26/26/26 28/28/28 27/27/27
f 29/29/29 27/27/27 28/28/28
f 28/28/28 30/30/30 29/29/29
f 31/31/31 29/29/29 30/30/30
f 30/30/30 32/32/32 31/31/31
f 33/33/33 31/31/31 32/32/32
f 32/32/32 34/34/34 33/33/33
f 33/33/33 34/34/34 35/35/35
f 34/34/34 36/36/36 35/35/35
f 35/35/35 36/36/36 37/37/37
f 38/38/38 37/37/37 36/36/36
f 39/39/39 37/37/37 38/38/38
f 38/38/38 40/40/40 39/39/39
f 40/40/40 41/41/41 39/39/39
f 42/42/42 41/41/41 40/40/40
f 45/45/45 44/44/44 43/43/43
f 43/43/43 44/44/44 46/46/46
f 47/47/47 46/46/46 44/44/44
f 46/46/46 47/47/47 48/48/48
f 49/49/49 48/48/48 47/47/47
f 48/48/48 49/49/49 50/50/50
f 51/51/51 50/50/50 49/49/49
f 50/50/50 51/51/51 52/52/52
f 53/53/53 52/52/52 51/51/51
f 52/52/52 53/53/53 54/54/54
f 55/55/55 54/54/54 53/53/53
f 54/54/54 55/55/55 56/56/56
f 57/57/57 56/56/56 55/55/55
f 56/56/56 57/57/57 58/58/58
f 57/57/57 59/59/59 58/58/58
f 58/58/58 59/59/59 60/60/60
f 61/61/61 60/60/60 59/59/59
f 60/60/60 61/61/61 62/62/62
f 63/63/63 62/62/62 61/61/61
f 62/62/62 63/63/63 64/64/64
f 65/65/65 64/64/64 63/63/63
f 64/64/64 65/65/65 66/66/66
f 67/67/67 66/66/66 65/65/65
f 66/66/66 67/67/67 68/68/68
f 69/69/69 68/68/68 67/67/67
f 68/68/68 69/69/69 70/70/70
f 71/71/71 70/70/70 69/69/69
f 70/70/70 71/71/71 72/72/72
f 73/73/73 72/72/72 71/71/71
f 72/72/72 73/73/73 74/74/74
f 75/75/75 74/74/74 73/73/73
f 74/74/74 75/75/75 76/76/76
f 75/75/75 77/77/77 76/76/76
f 76/76/76 77/77/77 78/78/78
f 77/77/77 79/79/79 78/78/78
f 80/80/80 78/78/78 79/79/79
f 81/81/81 80/80/80 79/79/79
f 80/80/80 81/81/81 82/82/82
f 82/82/82 81/81/81 83/83/83
f 84/84/84 82/82/82 83/83/83
