g M_Brw_B_Def
v 0.058510195 0.052947234 0.086468525
v 0.058420982 0.05369293 0.08647439
v 0.06250687 0.054951932 0.08350542
v 0.055089235 0.052621152 0.0884986
v 0.05514945 0.051743012 0.08852661
v 0.052180443 0.051547546 0.09010449
v 0.052195415 0.05053009 0.090129
v 0.047817323 0.049944304 0.09193917
v 0.048059624 0.049074706 0.091715865
v 0.043950193 0.04865463 0.09315457
v 0.044282895 0.047640838 0.092814006
v 0.04038166 0.04767685 0.0940784
v 0.04080626 0.0464328 0.093779564
v 0.037005767 0.046835784 0.094772756
v 0.037501015 0.045335844 0.09439846
v 0.033655234 0.04603897 0.09538402
v 0.03405733 0.044250183 0.0948388
v 0.03074706 0.043042753 0.09508791
v 0.030111436 0.045169372 0.09590065
v 0.027063195 0.041701812 0.09513082
v 0.026502512 0.044350434 0.09629381
v 0.023963477 0.04052612 0.09518936
v 0.02239647 0.043475647 0.09660346
v 0.020219874 0.039232023 0.095177054
v 0.017562771 0.042285766 0.096875936
v 0.015932275 0.039957426 0.096045606
v 0.016647393 0.03798645 0.0949295
v 0.014394856 0.03847824 0.095603615
v 0.014568985 0.037164 0.09481239
v 0.01278114 0.037176818 0.095092535
v 0.0126164295 0.036545716 0.09469973
v 0.01130474 0.036262512 0.09468293
v -0.058420982 0.05369293 0.08647439
v -0.058510195 0.052947234 0.086468525
v -0.06250687 0.054951932 0.08350542
v -0.055089235 0.052621152 0.0884986
v -0.05514945 0.051743012 0.08852661
v -0.052180443 0.051547546 0.09010449
v -0.052195415 0.05053009 0.090129
v -0.047817323 0.049944304 0.09193917
v -0.048059624 0.049074706 0.091715865
v -0.043950193 0.04865463 0.09315457
v -0.044282895 0.047640838 0.092814006
v -0.04038166 0.04767685 0.0940784
v -0.04080626 0.0464328 0.093779564
v -0.037005767 0.046835784 0.094772756
v -0.037501015 0.045335844 0.09439846
v -0.033655234 0.04603897 0.09538402
v -0.03405733 0.044250183 0.0948388
v -0.03074706 0.043042753 0.09508791
v -0.030111436 0.045169372 0.09590065
v -0.027063195 0.041701812 0.09513082
v -0.026502512 0.044350434 0.09629381
v -0.023963477 0.04052612 0.09518936
v -0.02239647 0.043475647 0.09660346
v -0.020219874 0.039232023 0.095177054
v -0.017562771 0.042285766 0.096875936
v -0.015932275 0.039957426 0.096045606
v -0.016647393 0.03798645 0.0949295
v -0.014394856 0.03847824 0.095603615
v -0.014568985 0.037164 0.09481239
v -0.01278114 0.037176818 0.095092535
v -0.0126164295 0.036545716 0.09469973
v -0.01130474 0.036262512 0.09468293
vt 0.614464 0.9792863
vt 0.613868 0.9840327
vt 0.635574 0.9909307
vt 0.592582 0.9772578
vt 0.593281 0.9714763
vt 0.57259 0.9704062
vt 0.573279 0.9638143
vt 0.544978 0.9607692
vt 0.546214 0.9544456
vt 0.519571 0.9524459
vt 0.521566 0.9459721
vt 0.497211 0.9453122
vt 0.498684 0.9376726
vt 0.475645 0.9397932
vt 0.476343 0.9304793
vt 0.454991 0.9351729
vt 0.453791 0.9229493
vt 0.431202 0.9148496
vt 0.430913 0.9290407
vt 0.409276 0.9060625
vt 0.407274 0.9235698
vt 0.389381 0.89868
vt 0.384522 0.9186695
vt 0.366418 0.890661
vt 0.358495 0.9139761
vt 0.337964 0.894207
vt 0.341274 0.882048
vt 0.328642 0.887378
vt 0.331879 0.878823
vt 0.319285 0.880523
vt 0.32209 0.875462
vt 0.312243 0.873336
vt 0.613868 0.9840327
vt 0.614464 0.9792863
vt 0.635574 0.9909307
vt 0.592582 0.9772578
vt 0.593281 0.9714763
vt 0.57259 0.9704062
vt 0.573279 0.9638143
vt 0.544978 0.9607692
vt 0.546214 0.9544456
vt 0.519571 0.9524459
vt 0.521566 0.9459721
vt 0.497211 0.9453122
vt 0.498684 0.9376726
vt 0.475645 0.9397932
vt 0.476343 0.9304793
vt 0.454991 0.9351729
vt 0.453791 0.9229493
vt 0.431202 0.9148496
vt 0.430913 0.9290407
vt 0.409276 0.9060625
vt 0.407274 0.9235698
vt 0.389381 0.89868
vt 0.384522 0.9186695
vt 0.366418 0.890661
vt 0.358495 0.9139761
vt 0.337964 0.894207
vt 0.341274 0.882048
vt 0.328642 0.887378
vt 0.331879 0.878823
vt 0.319285 0.880523
vt 0.32209 0.875462
vt 0.312243 0.873336
vn 0.5390069 0.058498006 0.8402676
vn 0.5479552 0.058999803 0.83442444
vn 0.57407403 0.06226899 0.8164322
vn 0.48994237 0.06086798 0.86962724
vn 0.48349178 0.05793943 0.8734293
vn 0.42467186 0.030004835 0.90484995
vn 0.40866295 0.0181857 0.9125042
vn 0.36719662 -0.12249475 0.9220421
vn 0.36787122 -0.13866544 0.91947955
vn 0.32008258 -0.20243245 0.9255097
vn 0.32271865 -0.19393927 0.9264125
vn 0.26794896 -0.14444678 0.9525431
vn 0.27137986 -0.13794449 0.95253575
vn 0.22387002 -0.16471094 0.9606
vn 0.22141986 -0.17968002 0.9584824
vn 0.1923071 -0.25127828 0.94861865
vn 0.18088794 -0.24931507 0.95137876
vn 0.15919912 -0.30423376 0.93920046
vn 0.17660132 -0.3201525 0.93076015
vn 0.16057697 -0.35957986 0.91919386
vn 0.1651902 -0.3642222 0.91654474
vn 0.13835797 -0.36915016 0.9190132
vn 0.1408982 -0.3724774 0.9172831
vn 0.13043477 -0.39262867 0.91040075
vn 0.1330344 -0.39092448 0.91075796
vn 0.119963735 -0.42898837 0.8953087
vn 0.12001908 -0.46135318 0.8790612
vn 0.15292443 -0.4717869 0.8683497
vn 0.13922833 -0.50004137 0.85473627
vn 0.12525116 -0.52718705 0.8404677
vn 0.1152778 -0.5464033 0.82955074
vn 0.1070992 -0.545374 0.8313224
vn -0.5479553 0.05899981 0.8344243
vn -0.53900695 0.05849802 0.8402676
vn -0.574074 0.06226899 0.8164322
vn -0.48994237 0.06086798 0.86962724
vn -0.48349175 0.05793943 0.8734293
vn -0.42467183 0.030004838 0.90484995
vn -0.40866295 0.01818573 0.9125042
vn -0.3671966 -0.122494765 0.9220421
vn -0.36787122 -0.13866547 0.91947955
vn -0.32008255 -0.20243245 0.9255097
vn -0.32271865 -0.19393922 0.9264125
vn -0.267949 -0.14444673 0.9525431
vn -0.27137992 -0.13794447 0.95253575
vn -0.22387004 -0.16471095 0.9606
vn -0.22141984 -0.17968008 0.9584824
vn -0.19230707 -0.25127834 0.94861853
vn -0.18088794 -0.24931507 0.95137876
vn -0.15919912 -0.30423373 0.93920034
vn -0.17660132 -0.32015252 0.93076015
vn -0.16057697 -0.35957983 0.91919386
vn -0.16519025 -0.36422223 0.91654474
vn -0.13835795 -0.36915016 0.9190132
vn -0.1408982 -0.3724774 0.9172831
vn -0.13043478 -0.3926287 0.91040075
vn -0.1330344 -0.39092445 0.91075784
vn -0.119963735 -0.4289885 0.8953087
vn -0.12001906 -0.46135318 0.8790612
vn -0.1529245 -0.47178683 0.8683498
vn -0.13922833 -0.5000415 0.85473627
vn -0.12525117 -0.5271871 0.8404677
vn -0.11527783 -0.5464033 0.82955074
vn -0.1070992 -0.545374 0.8313224
g M_Brw_B_Def_0
f 3/3/3 2/2/2 1/1/1
f 2/2/2 4/4/4 1/1/1
f 1/1/1 4/4/4 5/5/5
f 6/6/6 5/5/5 4/4/4
f 7/7/7 5/5/5 6/6/6
f 8/8/8 7/7/7 6/6/6
f 9/9/9 7/7/7 8/8/8
f 8/8/8 10/10/10 9/9/9
f 9/9/9 10/10/10 11/11/11
f 12/12/12 11/11/11 10/10/10
f 13/13/13 11/11/11 12/12/12
f 12/12/12 14/14/14 13/13/13
f 13/13/13 14/14/14 15/15/15
f 16/16/16 15/15/15 14/14/14
f 17/17/17 15/15/15 16/16/16
f 16/16/16 18/18/18 17/17/17
f 16/16/16 19/19/19 18/18/18
f 20/20/20 18/18/18 19/19/19
f 20/20/20 19/19/19 21/21/21
f 21/21/21 22/22/22 20/20/20
f 21/21/21 23/23/23 22/22/22
f 24/24/24 22/22/22 23/23/23
f 24/24/24 23/23/23 25/25/25
f 25/25/25 26/26/26 24/24/24
f 26/26/26 27/27/27 24/24/24
f 26/26/26 28/28/28 27/27/27
f 27/27/27 28/28/28 29/29/29
f 30/30/30 29/29/29 28/28/28
f 31/31/31 29/29/29 30/30/30
f 32/32/32 31/31/31 30/30/30
f 35/35/35 34/34/34 33/33/33
f 33/33/33 34/34/34 36/36/36
f 34/34/34 37/37/37 36/36/36
f 38/38/38 36/36/36 37/37/37
f 39/39/39 38/38/38 37/37/37
f 40/40/40 38/38/38 39/39/39
f 41/41/41 40/40/40 39/39/39
f 40/40/40 41/41/41 42/42/42
f 41/41/41 43/43/43 42/42/42
f 44/44/44 42/42/42 43/43/43
f 45/45/45 44/44/44 43/43/43
f 44/44/44 45/45/45 46/46/46
f 45/45/45 47/47/47 46/46/46
f 48/48/48 46/46/46 47/47/47
f 49/49/49 48/48/48 47/47/47
f 48/48/48 49/49/49 50/50/50
f 48/48/48 50/50/50 51/51/51
f 52/52/52 51/51/51 50/50/50
f 52/52/52 53/53/53 51/51/51
f 53/53/53 52/52/52 54/54/54
f 53/53/53 54/54/54 55/55/55
f 56/56/56 55/55/55 54/54/54
f 56/56/56 57/57/57 55/55/55
f 57/57/57 56/56/56 58/58/58
f 58/58/58 56/56/56 59/59/59
f 58/58/58 59/59/59 60/60/60
f 59/59/59 61/61/61 60/60/60
f 62/62/62 60/60/60 61/61/61
f 63/63/63 62/62/62 61/61/61
f 64/64/64 62/62/62 63/63/63
