g M_Brw_B_Def
v 0.060887773 0.05578293 0.08983556
v 0.059913456 0.05616745 0.0903968
v 0.059853714 0.056757353 0.09053135
v 0.05694807 0.057327878 0.09210363
v 0.056968406 0.05803024 0.09219225
v 0.054165304 0.058241423 0.09361528
v 0.054143865 0.05897308 0.09359415
v 0.05132877 0.059841003 0.09511774
v 0.05128618 0.059089508 0.09506147
v 0.04840882 0.060589142 0.096423015
v 0.04837662 0.059703827 0.09646751
v 0.04542448 0.061434783 0.09753214
v 0.04530136 0.060094908 0.097528934
v 0.041653447 0.062244873 0.0987346
v 0.041339587 0.060324248 0.09871296
v 0.036854923 0.0630983 0.10012846
v 0.03654488 0.06065689 0.10001475
v 0.032372218 0.06360428 0.101085335
v 0.032212205 0.06070587 0.10105893
v 0.028018756 0.06402221 0.101725385
v 0.028072694 0.060639493 0.10174383
v 0.023402477 0.060362853 0.10253867
v 0.02324439 0.06401947 0.10257767
v 0.01881368 0.05999359 0.10318206
v 0.01865657 0.062734835 0.10347172
v 0.014819176 0.05945175 0.10366436
v 0.014442326 0.060767364 0.10389042
v 0.012073451 0.059256896 0.10384978
v 0.012200479 0.058864288 0.10377513
v 0.011575017 0.05882965 0.10380655
v -0.059913456 0.05616745 0.0903968
v -0.060887773 0.05578293 0.08983556
v -0.059853714 0.056757353 0.09053135
v -0.05694807 0.057327878 0.09210363
v -0.056968406 0.05803024 0.09219225
v -0.054165304 0.058241423 0.09361528
v -0.054143865 0.05897308 0.09359415
v -0.05132877 0.059841003 0.09511774
v -0.05128618 0.059089508 0.09506147
v -0.04840882 0.060589142 0.096423015
v -0.04837662 0.059703827 0.09646751
v -0.04542448 0.061434783 0.09753214
v -0.04530136 0.060094908 0.097528934
v -0.041653447 0.062244873 0.0987346
v -0.041339587 0.060324248 0.09871296
v -0.036854923 0.0630983 0.10012846
v -0.03654488 0.06065689 0.10001475
v -0.032372218 0.06360428 0.101085335
v -0.032212205 0.06070587 0.10105893
v -0.028018756 0.06402221 0.101725385
v -0.028072694 0.060639493 0.10174383
v -0.023402477 0.060362853 0.10253867
v -0.02324439 0.06401947 0.10257767
v -0.01881368 0.05999359 0.10318206
v -0.01865657 0.062734835 0.10347172
v -0.014819176 0.05945175 0.10366436
v -0.014442326 0.060767364 0.10389042
v -0.012073451 0.059256896 0.10384978
v -0.012200479 0.058864288 0.10377513
v -0.011575017 0.05882965 0.10380655
vt 0.645347 0.92069
vt 0.636859 0.9231633
vt 0.636779 0.9268347
vt 0.622603 0.9269529
vt 0.623063 0.9324539
vt 0.603901 0.9331291
vt 0.604752 0.9384048
vt 0.577446 0.9456918
vt 0.577016 0.9399712
vt 0.546737 0.9527493
vt 0.546498 0.9477833
vt 0.528311 0.956234
vt 0.528312 0.9501686
vt 0.50945 0.9605742
vt 0.508818 0.9518781
vt 0.474349 0.9668419
vt 0.474443 0.9514153
vt 0.444675 0.9692716
vt 0.445399 0.9510219
vt 0.418684 0.9704768
vt 0.419294 0.9501987
vt 0.38971 0.9493826
vt 0.389691 0.9681709
vt 0.361348 0.9475494
vt 0.359863 0.9616213
vt 0.337182 0.944207
vt 0.33333 0.9516249
vt 0.320734 0.9431455
vt 0.321542 0.9407308
vt 0.317703 0.9406314
vt 0.636859 0.9231633
vt 0.645347 0.92069
vt 0.636779 0.9268347
vt 0.622603 0.9269529
vt 0.623063 0.9324539
vt 0.603901 0.9331291
vt 0.604752 0.9384048
vt 0.577446 0.9456918
vt 0.577016 0.9399712
vt 0.546737 0.9527493
vt 0.546498 0.9477833
vt 0.528311 0.956234
vt 0.528312 0.9501686
vt 0.50945 0.9605742
vt 0.508818 0.9518781
vt 0.474349 0.9668419
vt 0.474443 0.9514153
vt 0.444675 0.9692716
vt 0.445399 0.9510219
vt 0.418684 0.9704768
vt 0.419294 0.9501987
vt 0.38971 0.9493826
vt 0.389691 0.9681709
vt 0.361348 0.9475494
vt 0.359863 0.9616213
vt 0.337182 0.944207
vt 0.33333 0.9516249
vt 0.320734 0.9431455
vt 0.321542 0.9407308
vt 0.317703 0.9406314
vn 0.446171 -0.15581283 0.8812797
vn 0.44622153 -0.15580112 0.8812561
vn 0.44695634 -0.15269306 0.88142776
vn 0.448448 -0.12595497 0.88488966
vn 0.4475521 -0.11269234 0.8871289
vn 0.46307057 0.019566886 0.88610536
vn 0.4728355 0.03928287 0.88027465
vn 0.40737873 -0.08305367 0.9094749
vn 0.41352564 -0.08019086 0.90695417
vn 0.39048228 0.025065912 0.9202692
vn 0.39317992 0.020192893 0.91923976
vn 0.3091029 -0.02743568 0.95063275
vn 0.3049695 -0.036507305 0.9516622
vn 0.2760667 -0.054095395 0.959615
vn 0.2723199 -0.060154993 0.9603246
vn 0.2297264 -0.07192984 0.9705935
vn 0.23425166 -0.06443408 0.9700383
vn 0.18224625 -0.026241187 0.98290277
vn 0.19121052 -0.013494923 0.9814563
vn 0.16463183 0.0013443172 0.9863542
vn 0.16537058 0.008014009 0.9861989
vn 0.15573576 -0.0017658075 0.9877972
vn 0.16947334 -0.014572541 0.985427
vn 0.15826102 -0.07023219 0.9848964
vn 0.18766397 -0.09401838 0.9777232
vn 0.12612721 -0.12135951 0.9845628
vn 0.13154669 -0.13115804 0.9825951
vn 0.075910054 -0.1549163 0.98500687
vn 0.07501222 -0.1627917 0.9838049
vn 0.05870755 -0.16810009 0.98402023
vn -0.44622153 -0.15580113 0.8812561
vn -0.446171 -0.15581281 0.8812796
vn -0.44695634 -0.15269305 0.88142776
vn -0.448448 -0.12595494 0.88488966
vn -0.4475521 -0.11269238 0.8871288
vn -0.46307054 0.019566799 0.8861055
vn -0.4728355 0.039282866 0.88027465
vn -0.40737885 -0.083053716 0.9094749
vn -0.41352573 -0.08019088 0.90695417
vn -0.39048216 0.025065947 0.9202692
vn -0.39317983 0.020192888 0.9192399
vn -0.3091029 -0.02743567 0.95063275
vn -0.3049695 -0.036507312 0.9516622
vn -0.2760667 -0.054095395 0.959615
vn -0.27231994 -0.060155 0.9603246
vn -0.22972646 -0.07192986 0.9705935
vn -0.23425172 -0.064434096 0.9700383
vn -0.18224621 -0.026241174 0.98290277
vn -0.19121054 -0.013494927 0.9814563
vn -0.16463183 0.0013443175 0.9863542
vn -0.16537057 0.008014009 0.9861989
vn -0.15573579 -0.0017658058 0.9877972
vn -0.16947338 -0.014572558 0.985427
vn -0.15826103 -0.07023221 0.9848964
vn -0.18766399 -0.09401837 0.9777232
vn -0.12612717 -0.121359535 0.9845628
vn -0.1315466 -0.13115804 0.9825951
vn -0.07591006 -0.1549163 0.98500687
vn -0.07501222 -0.16279171 0.9838049
vn -0.05870755 -0.16810009 0.98402023
g M_Brw_B_Def_0
f 3/3/3 2/2/2 1/1/1
f 4/4/4 2/2/2 3/3/3
f 4/4/4 3/3/3 5/5/5
f 6/6/6 4/4/4 5/5/5
f 6/6/6 5/5/5 7/7/7
f 6/6/6 7/7/7 8/8/8
f 9/9/9 6/6/6 8/8/8
f 8/8/8 10/10/10 9/9/9
f 11/11/11 9/9/9 10/10/10
f 10/10/10 12/12/12 11/11/11
f 11/11/11 12/12/12 13/13/13
f 14/14/14 13/13/13 12/12/12
f 15/15/15 13/13/13 14/14/14
f 14/14/14 16/16/16 15/15/15
f 17/17/17 15/15/15 16/16/16
f 16/16/16 18/18/18 17/17/17
f 17/17/17 18/18/18 19/19/19
f 20/20/20 19/19/19 18/18/18
f 21/21/21 19/19/19 20/20/20
f 20/20/20 22/22/22 21/21/21
f 20/20/20 23/23/23 22/22/22
f 24/24/24 22/22/22 23/23/23
f 24/24/24 23/23/23 25/25/25
f 24/24/24 25/25/25 26/26/26
f 27/27/27 26/26/26 25/25/25
f 27/27/27 28/28/28 26/26/26
f 28/28/28 29/29/29 26/26/26
f 30/30/30 29/29/29 28/28/28
f 33/33/33 32/32/32 31/31/31
f 34/34/34 33/33/33 31/31/31
f 34/34/34 35/35/35 33/33/33
f 36/36/36 35/35/35 34/34/34
f 36/36/36 37/37/37 35/35/35
f 36/36/36 38/38/38 37/37/37
f 39/39/39 38/38/38 36/36/36
f 38/38/38 39/39/39 40/40/40
f 41/41/41 40/40/40 39/39/39
f 40/40/40 41/41/41 42/42/42
f 41/41/41 43/43/43 42/42/42
f 44/44/44 42/42/42 43/43/43
f 45/45/45 44/44/44 43/43/43
f 44/44/44 45/45/45 46/46/46
f 47/47/47 46/46/46 45/45/45
f 46/46/46 47/47/47 48/48/48
f 47/47/47 49/49/49 48/48/48
f 50/50/50 48/48/48 49/49/49
f 51/51/51 50/50/50 49/49/49
f 50/50/50 51/51/51 52/52/52
f 50/50/50 52/52/52 53/53/53
f 54/54/54 53/53/53 52/52/52
f 54/54/54 55/55/55 53/53/53
f 54/54/54 56/56/56 55/55/55
f 57/57/57 55/55/55 56/56/56
f 57/57/57 56/56/56 58/58/58
f 58/58/58 56/56/56 59/59/59
f 60/60/60 58/58/58 59/59/59
