g M_Brw_B_Def
v 0.046375923 0.0711058 0.09597097
v 0.04621215 0.07063858 0.09603865
v 0.04588121 0.07106262 0.09609795
v 0.04445053 0.07005875 0.09643878
v 0.04486907 0.069501646 0.09643218
v 0.04241582 0.068857424 0.09697485
v 0.042971034 0.06826233 0.096885204
v 0.040122427 0.0677417 0.09746204
v 0.04070925 0.06700561 0.09734951
v 0.03760114 0.066689454 0.09785892
v 0.03823098 0.06573181 0.097658314
v 0.033687122 0.06547897 0.09846018
v 0.03412843 0.06395935 0.09819109
v 0.030092305 0.06233032 0.098698
v 0.029546525 0.064274445 0.09902457
v 0.02678765 0.060973205 0.09900633
v 0.026064614 0.06344452 0.099448584
v 0.024165789 0.059917755 0.09925226
v 0.023140103 0.06264892 0.09985326
v 0.02190077 0.05906616 0.09951532
v 0.021002088 0.06204788 0.10013441
v 0.019823967 0.058260955 0.09973804
v 0.018867182 0.060513914 0.10019476
v 0.017956493 0.05754471 0.09995853
v 0.017345065 0.059380036 0.1002262
v 0.016659642 0.057174988 0.10005081
v 0.016239056 0.0585997 0.100246675
v 0.015377796 0.05681549 0.1001152
v 0.015035917 0.057690885 0.100269966
v 0.014304265 0.05649353 0.1001649
v 0.014104222 0.057099607 0.100284524
v 0.01349602 0.05631958 0.10021046
v 0.013351142 0.056580808 0.100296944
v 0.012994349 0.05628021 0.10025784
v -0.04621215 0.07063858 0.09603865
v -0.046375923 0.0711058 0.09597097
v -0.04588121 0.07106262 0.09609795
v -0.04445053 0.07005875 0.09643878
v -0.04486907 0.069501646 0.09643218
v -0.04241582 0.068857424 0.09697485
v -0.042971034 0.06826233 0.096885204
v -0.040122427 0.0677417 0.09746204
v -0.04070925 0.06700561 0.09734951
v -0.03760114 0.066689454 0.09785892
v -0.03823098 0.06573181 0.097658314
v -0.033687122 0.06547897 0.09846018
v -0.03412843 0.06395935 0.09819109
v -0.030092305 0.06233032 0.098698
v -0.029546525 0.064274445 0.09902457
v -0.02678765 0.060973205 0.09900633
v -0.026064614 0.06344452 0.099448584
v -0.024165789 0.059917755 0.09925226
v -0.023140103 0.06264892 0.09985326
v -0.02190077 0.05906616 0.09951532
v -0.021002088 0.06204788 0.10013441
v -0.019823967 0.058260955 0.09973804
v -0.018867182 0.060513914 0.10019476
v -0.017956493 0.05754471 0.09995853
v -0.017345065 0.059380036 0.1002262
v -0.016659642 0.057174988 0.10005081
v -0.016239056 0.0585997 0.100246675
v -0.015377796 0.05681549 0.1001152
v -0.015035917 0.057690885 0.100269966
v -0.014304265 0.05649353 0.1001649
v -0.014104222 0.057099607 0.100284524
v -0.01349602 0.05631958 0.10021046
v -0.013351142 0.056580808 0.100296944
v -0.012994349 0.05628021 0.10025784
vt 0.494762 0.9035156
vt 0.493747 0.90093
vt 0.492031 0.9032796
vt 0.484274 0.897777
vt 0.486447 0.89469
vt 0.47413 0.891323
vt 0.476967 0.88801
vt 0.463534 0.88549
vt 0.466512 0.881391
vt 0.452513 0.88015
vt 0.455736 0.874823
vt 0.435984 0.874319
vt 0.438614 0.86595297
vt 0.421709 0.857888
vt 0.418467 0.868606
vt 0.406786 0.851014
vt 0.402646 0.864672
vt 0.393225 0.845456
vt 0.387538 0.860591
vt 0.380728 0.840766
vt 0.375747 0.857291
vt 0.369218 0.836304
vt 0.363916 0.84879
vt 0.358869 0.832335
vt 0.35548 0.842506
vt 0.351681 0.830285
vt 0.349351 0.838181
vt 0.344577 0.82829297
vt 0.342683 0.833144
vt 0.338628 0.826509
vt 0.337519 0.829868
vt 0.334149 0.825545
vt 0.333346 0.82699203
vt 0.331368 0.825327
vt 0.48798 0.9712354
vt 0.488994 0.9738211
vt 0.486263 0.9735851
vt 0.478507 0.9680826
vt 0.48068 0.9649956
vt 0.468363 0.9616281
vt 0.4712 0.9583158
vt 0.457766 0.95579517
vt 0.460745 0.9516968
vt 0.446746 0.95045507
vt 0.449968 0.9451286
vt 0.430217 0.9446244
vt 0.432847 0.9362587
vt 0.415941 0.9281934
vt 0.4127 0.9389116
vt 0.401019 0.9213189
vt 0.396879 0.9349776
vt 0.387458 0.9157613
vt 0.38177 0.9308964
vt 0.374961 0.9110714
vt 0.36998 0.9275968
vt 0.363451 0.9066088
vt 0.358148 0.9190952
vt 0.353101 0.9026398
vt 0.349713 0.9128109
vt 0.345914 0.9005905
vt 0.343583 0.9084864
vt 0.33881 0.898599
vt 0.336916 0.9034495
vt 0.332861 0.896814
vt 0.331752 0.9001728
vt 0.328381 0.89585
vt 0.327578 0.897297
vt 0.325601 0.895632
vn 0.24376921 0.05480879 0.9682833
vn 0.20856011 0.05631455 0.97638696
vn 0.21629545 0.032324586 0.9757927
vn 0.18384393 0.11949256 0.9756654
vn 0.18482456 0.11441465 0.9760887
vn 0.19589049 0.042605106 0.9796998
vn 0.19983877 0.03518017 0.9791971
vn 0.17695041 -0.0074367444 0.98419166
vn 0.18285388 -0.016514916 0.98300135
vn 0.17503534 -0.08585802 0.98081136
vn 0.17485292 -0.09703293 0.97980154
vn 0.17461833 -0.119435884 0.9773655
vn 0.17555821 -0.1220046 0.9768797
vn 0.15587308 -0.12160637 0.98026294
vn 0.15726401 -0.12248347 0.97993153
vn 0.1469969 -0.13113818 0.98040533
vn 0.15623955 -0.13633291 0.97826505
vn 0.1662169 -0.14608997 0.9752075
vn 0.17270954 -0.1495228 0.97355753
vn 0.16684313 -0.15184964 0.9742202
vn 0.16035594 -0.14967552 0.97564507
vn 0.15621868 -0.14061607 0.9776619
vn 0.1339759 -0.13594344 0.9816159
vn 0.12889268 -0.11801631 0.984611
vn 0.10127464 -0.10984449 0.98877585
vn 0.09132432 -0.11078606 0.9896395
vn 0.09370315 -0.1115342 0.98933303
vn 0.09255886 -0.12642434 0.9876486
vn 0.10886216 -0.13390388 0.9849969
vn 0.09615369 -0.1530856 0.9835239
vn 0.110377125 -0.16146405 0.9806866
vn 0.124599464 -0.20403491 0.9710019
vn 0.15266386 -0.23327821 0.9603515
vn 0.110775046 -0.25644583 0.9601898
vn -0.20856005 0.056314725 0.97638696
vn -0.24376921 0.05480879 0.9682833
vn -0.21629548 0.032324605 0.9757927
vn -0.18384393 0.11949259 0.9756654
vn -0.18482456 0.114414714 0.9760887
vn -0.19589049 0.04260511 0.9796998
vn -0.19983876 0.035180144 0.9791971
vn -0.1769504 -0.0074367607 0.98419166
vn -0.18285386 -0.016514929 0.98300135
vn -0.17503531 -0.08585802 0.98081136
vn -0.17485292 -0.09703292 0.97980154
vn -0.17461832 -0.11943588 0.9773655
vn -0.17555822 -0.12200458 0.9768797
vn -0.15587305 -0.12160637 0.98026294
vn -0.15726398 -0.12248345 0.97993153
vn -0.1469969 -0.13113816 0.98040533
vn -0.15623955 -0.13633293 0.97826505
vn -0.16621688 -0.14608997 0.9752075
vn -0.17270951 -0.1495228 0.97355753
vn -0.16684313 -0.15184963 0.9742202
vn -0.16035596 -0.14967555 0.97564507
vn -0.15621865 -0.14061606 0.9776619
vn -0.1339759 -0.13594343 0.9816159
vn -0.1288927 -0.11801633 0.984611
vn -0.10127464 -0.1098445 0.98877585
vn -0.09132433 -0.11078608 0.9896395
vn -0.09370314 -0.11153419 0.98933303
vn -0.09255884 -0.12642436 0.9876486
vn -0.10886213 -0.13390388 0.9849969
vn -0.09615365 -0.15308554 0.9835239
vn -0.110377125 -0.1614641 0.9806866
vn -0.124599524 -0.20403501 0.9710019
vn -0.15266386 -0.23327821 0.9603515
vn -0.110775046 -0.25644583 0.9601898
g M_Brw_B_Def_0
f 3/3/3 2/2/2 1/1/1
f 3/3/3 4/4/4 2/2/2
f 5/5/5 2/2/2 4/4/4
f 4/4/4 6/6/6 5/5/5
f 7/7/7 5/5/5 6/6/6
f 6/6/6 8/8/8 7/7/7
f 7/7/7 8/8/8 9/9/9
f 10/10/10 9/9/9 8/8/8
f 11/11/11 9/9/9 10/10/10
f 12/12/12 11/11/11 10/10/10
f 13/13/13 11/11/11 12/12/12
f 13/13/13 12/12/12 14/14/14
f 15/15/15 14/14/14 12/12/12
f 14/14/14 15/15/15 16/16/16
f 17/17/17 16/16/16 15/15/15
f 17/17/17 18/18/18 16/16/16
f 17/17/17 19/19/19 18/18/18
f 20/20/20 18/18/18 19/19/19
f 20/20/20 19/19/19 21/21/21
f 21/21/21 22/22/22 20/20/20
f 21/21/21 23/23/23 22/22/22
f 24/24/24 22/22/22 23/23/23
f 24/24/24 23/23/23 25/25/25
f 25/25/25 26/26/26 24/24/24
f 25/25/25 27/27/27 26/26/26
f 28/28/28 26/26/26 27/27/27
f 28/28/28 27/27/27 29/29/29
f 28/28/28 29/29/29 30/30/30
f 31/31/31 30/30/30 29/29/29
f 30/30/30 31/31/31 32/32/32
f 33/33/33 32/32/32 31/31/31
f 34/34/34 32/32/32 33/33/33
f 37/37/37 36/36/36 35/35/35
f 37/37/37 35/35/35 38/38/38
f 39/39/39 38/38/38 35/35/35
f 38/38/38 39/39/39 40/40/40
f 41/41/41 40/40/40 39/39/39
f 40/40/40 41/41/41 42/42/42
f 41/41/41 43/43/43 42/42/42
f 44/44/44 42/42/42 43/43/43
f 45/45/45 44/44/44 43/43/43
f 46/46/46 44/44/44 45/45/45
f 47/47/47 46/46/46 45/45/45
f 47/47/47 48/48/48 46/46/46
f 49/49/49 46/46/46 48/48/48
f 48/48/48 50/50/50 49/49/49
f 51/51/51 49/49/49 50/50/50
f 51/51/51 50/50/50 52/52/52
f 51/51/51 52/52/52 53/53/53
f 54/54/54 53/53/53 52/52/52
f 54/54/54 55/55/55 53/53/53
f 55/55/55 54/54/54 56/56/56
f 55/55/55 56/56/56 57/57/57
f 58/58/58 57/57/57 56/56/56
f 58/58/58 59/59/59 57/57/57
f 59/59/59 58/58/58 60/60/60
f 59/59/59 60/60/60 61/61/61
f 62/62/62 61/61/61 60/60/60
f 62/62/62 63/63/63 61/61/61
f 62/62/62 64/64/64 63/63/63
f 65/65/65 63/63/63 64/64/64
f 64/64/64 66/66/66 65/65/65
f 67/67/67 65/65/65 66/66/66
f 68/68/68 67/67/67 66/66/66
