g M_Brw_B_Def
v 0.05972576 0.050432738 0.07692321
v 0.05648045 0.051232908 0.08080593
v 0.056960065 0.05250061 0.080882125
v 0.054892823 0.053633116 0.08309463
v 0.05451103 0.051753692 0.08290172
v 0.0526978 0.054629058 0.084801756
v 0.052406404 0.052305907 0.084674776
v 0.049732074 0.055836484 0.08679073
v 0.049440164 0.052984007 0.08667934
v 0.046137087 0.057106476 0.08868717
v 0.045429077 0.05379791 0.0887201
v 0.04241879 0.058137357 0.09010809
v 0.04163629 0.05457657 0.09026057
v 0.03951694 0.058923032 0.091148965
v 0.03881968 0.05520462 0.09126871
v 0.035657857 0.05984436 0.09242466
v 0.034895435 0.055849303 0.0925804
v 0.031604543 0.060686644 0.09344297
v 0.031278215 0.05628494 0.09352776
v 0.027455786 0.06131958 0.09421531
v 0.027308142 0.056667175 0.094456926
v 0.023250619 0.061641693 0.09496043
v 0.023646116 0.056916196 0.09512799
v 0.02036146 0.057026517 0.09559713
v 0.018827207 0.061568145 0.095637165
v 0.01692068 0.056971893 0.095945545
v 0.016322928 0.06031433 0.09596668
v 0.014888214 0.059401855 0.096101835
v 0.015335774 0.05694458 0.09604742
v 0.013564881 0.058603514 0.09619542
v 0.013832298 0.05684143 0.0961498
v 0.012290671 0.056821745 0.09621083
v 0.012232257 0.05756439 0.09621573
v 0.011440031 0.056788635 0.09622274
v -0.05648045 0.051232908 0.08080593
v -0.05972576 0.050432738 0.07692321
v -0.056960065 0.05250061 0.080882125
v -0.054892823 0.053633116 0.08309463
v -0.05451103 0.051753692 0.08290172
v -0.0526978 0.054629058 0.084801756
v -0.052406404 0.052305907 0.084674776
v -0.049732074 0.055836484 0.08679073
v -0.049440164 0.052984007 0.08667934
v -0.046137087 0.057106476 0.08868717
v -0.045429077 0.05379791 0.0887201
v -0.04241879 0.058137357 0.09010809
v -0.04163629 0.05457657 0.09026057
v -0.03951694 0.058923032 0.091148965
v -0.03881968 0.05520462 0.09126871
v -0.035657857 0.05984436 0.09242466
v -0.034895435 0.055849303 0.0925804
v -0.031604543 0.060686644 0.09344297
v -0.031278215 0.05628494 0.09352776
v -0.027455786 0.06131958 0.09421531
v -0.027308142 0.056667175 0.094456926
v -0.023250619 0.061641693 0.09496043
v -0.023646116 0.056916196 0.09512799
v -0.02036146 0.057026517 0.09559713
v -0.018827207 0.061568145 0.095637165
v -0.01692068 0.056971893 0.095945545
v -0.016322928 0.06031433 0.09596668
v -0.014888214 0.059401855 0.096101835
v -0.015335774 0.05694458 0.09604742
v -0.013564881 0.058603514 0.09619542
v -0.013832298 0.05684143 0.0961498
v -0.012290671 0.056821745 0.09621083
v -0.012232257 0.05756439 0.09621573
v -0.011440031 0.056788635 0.09622274
vt 0.609825 0.843428
vt 0.587177 0.851755
vt 0.589535 0.857947
vt 0.578456 0.865182
vt 0.576416 0.8553
vt 0.569063 0.871315
vt 0.564916 0.859088
vt 0.547042 0.882358
vt 0.544568 0.86542
vt 0.527671 0.890433
vt 0.524622 0.869135
vt 0.507127 0.897306
vt 0.502373 0.87458503
vt 0.486903 0.9028339
vt 0.481865 0.878642
vt 0.458028 0.90967107
vt 0.452646 0.88301
vt 0.429285 0.9148624
vt 0.426589 0.886691
vt 0.400789 0.91878283
vt 0.398652 0.890226
vt 0.371234 0.9220007
vt 0.372951 0.891577
vt 0.351001 0.892478
vt 0.339082 0.921382
vt 0.327718 0.891865
vt 0.323629 0.9128268
vt 0.313816 0.9060919
vt 0.317183 0.891519
vt 0.305002 0.9008048
vt 0.305961 0.890855
vt 0.295915 0.8895
vt 0.295108 0.893888
vt 0.288896 0.889346
vt 0.587177 0.851755
vt 0.609825 0.843428
vt 0.589535 0.857947
vt 0.578456 0.865182
vt 0.576416 0.8553
vt 0.569063 0.871315
vt 0.564916 0.859088
vt 0.547042 0.882358
vt 0.544568 0.86542
vt 0.527671 0.890433
vt 0.524622 0.869135
vt 0.507127 0.897306
vt 0.502373 0.87458503
vt 0.486903 0.9028339
vt 0.481865 0.878642
vt 0.458028 0.90967107
vt 0.452646 0.88301
vt 0.429285 0.9148624
vt 0.426589 0.886691
vt 0.400789 0.91878283
vt 0.398652 0.890226
vt 0.371234 0.9220007
vt 0.372951 0.891577
vt 0.351001 0.892478
vt 0.339082 0.921382
vt 0.327718 0.891865
vt 0.323629 0.9128268
vt 0.313816 0.9060919
vt 0.317183 0.891519
vt 0.305002 0.9008048
vt 0.305961 0.890855
vt 0.295915 0.8895
vt 0.295108 0.893888
vt 0.288896 0.889346
vn 0.69938 -0.30350035 0.64711297
vn 0.6797288 -0.28267998 0.67680186
vn 0.66771525 -0.2937356 0.6840144
vn 0.59836537 -0.20862126 0.7735865
vn 0.63792336 -0.18660514 0.74714947
vn 0.5472766 -0.123496965 0.82779026
vn 0.57307523 -0.109618 0.8121384
vn 0.47843134 -0.08613667 0.87389016
vn 0.4900116 -0.08537196 0.8675254
vn 0.38866732 -0.07322254 0.918464
vn 0.3977423 -0.0692871 0.91487724
vn 0.34484643 -0.0421458 0.9377125
vn 0.35188976 -0.03712139 0.93530506
vn 0.31698683 -0.0290507 0.9479849
vn 0.31896868 -0.027681481 0.94736093
vn 0.27534485 -0.016246656 0.96120816
vn 0.27969125 -0.0132397525 0.9599987
vn 0.21207324 0.0009375894 0.9772534
vn 0.23036088 0.013257766 0.97301495
vn 0.19124652 0.035266045 0.9809083
vn 0.20700344 0.045380436 0.9772872
vn 0.16295214 0.045423172 0.98558784
vn 0.16583042 0.04880438 0.9849459
vn 0.12982216 0.037354913 0.99083334
vn 0.13327205 0.03374264 0.9905049
vn 0.098924324 0.017838806 0.9949351
vn 0.1132819 0.013977205 0.9934645
vn 0.08065699 0.0010680563 0.99674135
vn 0.067515604 -0.0109292455 0.9976584
vn 0.063837424 -0.012358297 0.99788374
vn 0.055337604 -0.017444724 0.99831533
vn 0.030411871 -0.014013792 0.9994392
vn 0.01821641 -0.005165859 0.99982077
vn 0.0142021 -0.0054817474 0.9998841
vn -0.6797287 -0.28268 0.676802
vn -0.69938004 -0.30350038 0.64711297
vn -0.6677152 -0.29373553 0.68401456
vn -0.5983654 -0.2086213 0.7735865
vn -0.6379235 -0.18660514 0.7471494
vn -0.5472766 -0.123496965 0.82779026
vn -0.5730751 -0.10961799 0.8121384
vn -0.47843122 -0.086136654 0.87389016
vn -0.4900116 -0.08537197 0.8675254
vn -0.38866732 -0.07322255 0.918464
vn -0.39774236 -0.069287114 0.91487724
vn -0.3448464 -0.042145792 0.9377125
vn -0.35188976 -0.037121397 0.93530506
vn -0.31698686 -0.029050697 0.9479849
vn -0.31896865 -0.027681476 0.94736093
vn -0.27534488 -0.016246665 0.96120816
vn -0.2796913 -0.013239761 0.9599987
vn -0.21207324 0.00093759346 0.9772534
vn -0.23036088 0.01325776 0.97301495
vn -0.19124652 0.035266034 0.9809083
vn -0.20700347 0.04538044 0.9772872
vn -0.16295214 0.045423172 0.98558784
vn -0.16583043 0.048804387 0.9849459
vn -0.12982218 0.03735492 0.99083334
vn -0.13327207 0.03374264 0.9905049
vn -0.09892432 0.017838791 0.9949351
vn -0.11328189 0.0139772035 0.9934645
vn -0.080657 0.001068055 0.99674135
vn -0.0675156 -0.010929242 0.9976584
vn -0.06383742 -0.012358293 0.99788374
vn -0.0553376 -0.017444722 0.99831533
vn -0.030411856 -0.014013778 0.9994392
vn -0.018216414 -0.0051658587 0.99982077
vn -0.014202098 -0.0054817474 0.9998841
g M_Brw_B_Def_0
f 3/3/3 2/2/2 1/1/1
f 3/3/3 4/4/4 2/2/2
f 2/2/2 4/4/4 5/5/5
f 6/6/6 5/5/5 4/4/4
f 7/7/7 5/5/5 6/6/6
f 6/6/6 8/8/8 7/7/7
f 9/9/9 7/7/7 8/8/8
f 10/10/10 9/9/9 8/8/8
f 11/11/11 9/9/9 10/10/10
f 10/10/10 12/12/12 11/11/11
f 11/11/11 12/12/12 13/13/13
f 14/14/14 13/13/13 12/12/12
f 15/15/15 13/13/13 14/14/14
f 14/14/14 16/16/16 15/15/15
f 15/15/15 16/16/16 17/17/17
f 18/18/18 17/17/17 16/16/16
f 19/19/19 17/17/17 18/18/18
f 18/18/18 20/20/20 19/19/19
f 19/19/19 20/20/20 21/21/21
f 22/22/22 21/21/21 20/20/20
f 23/23/23 21/21/21 22/22/22
f 23/23/23 22/22/22 24/24/24
f 25/25/25 24/24/24 22/22/22
f 24/24/24 25/25/25 26/26/26
f 27/27/27 26/26/26 25/25/25
f 27/27/27 28/28/28 26/26/26
f 26/26/26 28/28/28 29/29/29
f 30/30/30 29/29/29 28/28/28
f 31/31/31 29/29/29 30/30/30
f 31/31/31 30/30/30 32/32/32
f 33/33/33 32/32/32 30/30/30
f 34/34/34 32/32/32 33/33/33
f 37/37/37 36/36/36 35/35/35
f 37/37/37 35/35/35 38/38/38
f 35/35/35 39/39/39 38/38/38
f 40/40/40 38/38/38 39/39/39
f 41/41/41 40/40/40 39/39/39
f 40/40/40 41/41/41 42/42/42
f 43/43/43 42/42/42 41/41/41
f 44/44/44 42/42/42 43/43/43
f 45/45/45 44/44/44 43/43/43
f 44/44/44 45/45/45 46/46/46
f 45/45/45 47/47/47 46/46/46
f 48/48/48 46/46/46 47/47/47
f 49/49/49 48/48/48 47/47/47
f 48/48/48 49/49/49 50/50/50
f 49/49/49 51/51/51 50/50/50
f 52/52/52 50/50/50 51/51/51
f 53/53/53 52/52/52 51/51/51
f 52/52/52 53/53/53 54/54/54
f 53/53/53 55/55/55 54/54/54
f 56/56/56 54/54/54 55/55/55
f 57/57/57 56/56/56 55/55/55
f 57/57/57 58/58/58 56/56/56
f 59/59/59 56/56/56 58/58/58
f 58/58/58 60/60/60 59/59/59
f 61/61/61 59/59/59 60/60/60
f 61/61/61 60/60/60 62/62/62
f 60/60/60 63/63/63 62/62/62
f 64/64/64 62/62/62 63/63/63
f 65/65/65 64/64/64 63/63/63
f 65/65/65 66/66/66 64/64/64
f 67/67/67 64/64/64 66/66/66
f 68/68/68 67/67/67 66/66/66
