g M_Brw_B_Def
v 0.056384344 0.053331908 0.08527712
v 0.055525523 0.053058166 0.08592566
v 0.055592354 0.05350189 0.08592396
v 0.05362322 0.052901153 0.087099664
v 0.053579997 0.053550262 0.087272
v 0.051589634 0.052873686 0.088191904
v 0.051526956 0.05351181 0.08846277
v 0.04927923 0.052687835 0.089413166
v 0.049352992 0.053483427 0.08963412
v 0.047101673 0.052473906 0.09048135
v 0.047121663 0.05331207 0.09075697
v 0.044385012 0.053126067 0.09202152
v 0.04447285 0.052155606 0.091565765
v 0.04227499 0.05287552 0.0927702
v 0.042450484 0.05171661 0.09222677
v 0.039509423 0.05248993 0.093688995
v 0.039927118 0.05105484 0.092903614
v 0.03700867 0.05224365 0.09439613
v 0.03742968 0.050479278 0.09358418
v 0.033990838 0.051759183 0.095212474
v 0.034351133 0.049688566 0.094227605
v 0.030570475 0.048528593 0.0949122
v 0.029998077 0.05092209 0.0961455
v 0.026804093 0.047408447 0.09549519
v 0.025953332 0.05010254 0.09687152
v 0.02116655 0.048937377 0.09748603
v 0.022571852 0.046090696 0.09608906
v 0.017587746 0.04784439 0.097768925
v 0.01905411 0.044994507 0.09635183
v 0.014874708 0.046976164 0.09792977
v 0.015961336 0.044031218 0.0964729
v 0.013323645 0.046444852 0.09792267
v 0.014214816 0.043777466 0.09661872
v 0.011325838 0.04558853 0.0979001
v 0.011896491 0.043851316 0.09699026
v 0.009976575 0.04493927 0.097723015
v 0.009993406 0.043939207 0.097143754
v 0.009015675 0.04440582 0.09758523
v 0.00917017 0.04399002 0.09724714
v 0.008745444 0.04409149 0.09743245
v -0.055525523 0.053058166 0.08592566
v -0.056384344 0.053331908 0.08527712
v -0.055592354 0.05350189 0.08592396
v -0.05362322 0.052901153 0.087099664
v -0.053579997 0.053550262 0.087272
v -0.051589634 0.052873686 0.088191904
v -0.051526956 0.05351181 0.08846277
v -0.04927923 0.052687835 0.089413166
v -0.049352992 0.053483427 0.08963412
v -0.047101673 0.052473906 0.09048135
v -0.047121663 0.05331207 0.09075697
v -0.044385012 0.053126067 0.09202152
v -0.04447285 0.052155606 0.091565765
v -0.04227499 0.05287552 0.0927702
v -0.042450484 0.05171661 0.09222677
v -0.039509423 0.05248993 0.093688995
v -0.039927118 0.05105484 0.092903614
v -0.03700867 0.05224365 0.09439613
v -0.03742968 0.050479278 0.09358418
v -0.033990838 0.051759183 0.095212474
v -0.034351133 0.049688566 0.094227605
v -0.030570475 0.048528593 0.0949122
v -0.029998077 0.05092209 0.0961455
v -0.026804093 0.047408447 0.09549519
v -0.025953332 0.05010254 0.09687152
v -0.02116655 0.048937377 0.09748603
v -0.022571852 0.046090696 0.09608906
v -0.017587746 0.04784439 0.097768925
v -0.01905411 0.044994507 0.09635183
v -0.014874708 0.046976164 0.09792977
v -0.015961336 0.044031218 0.0964729
v -0.013323645 0.046444852 0.09792267
v -0.014214816 0.043777466 0.09661872
v -0.011325838 0.04558853 0.0979001
v -0.011896491 0.043851316 0.09699026
v -0.009976575 0.04493927 0.097723015
v -0.009993406 0.043939207 0.097143754
v -0.009015675 0.04440582 0.09758523
v -0.00917017 0.04399002 0.09724714
v -0.008745444 0.04409149 0.09743245
vt 0.645335 0.9612595
vt 0.637967 0.9595633
vt 0.638456 0.9620652
vt 0.624687 0.9586539
vt 0.62441 0.9627042
vt 0.610516 0.9581933
vt 0.610094 0.9628469
vt 0.594409 0.9575594
vt 0.59472 0.9622804
vt 0.579235 0.9562666
vt 0.579395 0.9620747
vt 0.560337 0.9610184
vt 0.560933 0.9546176
vt 0.54574 0.9592105
vt 0.546522 0.9525245
vt 0.526281 0.9573837
vt 0.528809 0.94860053
vt 0.509052 0.9554824
vt 0.51149 0.9440055
vt 0.488079 0.9523572
vt 0.490096 0.9385305
vt 0.464048 0.9311111
vt 0.460333 0.9468575
vt 0.437325 0.92351043
vt 0.432251 0.9414704
vt 0.39903 0.9337346
vt 0.40793 0.9147975
vt 0.374512 0.9257765
vt 0.384308 0.9065441
vt 0.355825 0.9193382
vt 0.363084 0.899514
vt 0.343837 0.9153095
vt 0.351318 0.897421
vt 0.331326 0.9102933
vt 0.33481 0.898427
vt 0.321642 0.9055387
vt 0.321982 0.899381
vt 0.315881 0.9022385
vt 0.316172 0.899562
vt 0.313785 0.9001855
vt 0.637967 0.9595633
vt 0.645335 0.9612595
vt 0.638456 0.9620652
vt 0.624687 0.9586539
vt 0.62441 0.9627042
vt 0.610516 0.9581933
vt 0.610094 0.9628469
vt 0.594409 0.9575594
vt 0.59472 0.9622804
vt 0.579235 0.9562666
vt 0.579395 0.9620747
vt 0.560337 0.9610184
vt 0.560933 0.9546176
vt 0.54574 0.9592105
vt 0.546522 0.9525245
vt 0.526281 0.9573837
vt 0.528809 0.94860053
vt 0.509052 0.9554824
vt 0.51149 0.9440055
vt 0.488079 0.9523572
vt 0.490096 0.9385305
vt 0.464048 0.9311111
vt 0.460333 0.9468575
vt 0.437325 0.92351043
vt 0.432251 0.9414704
vt 0.39903 0.9337346
vt 0.40793 0.9147975
vt 0.374512 0.9257765
vt 0.384308 0.9065441
vt 0.355825 0.9193382
vt 0.363084 0.899514
vt 0.343837 0.9153095
vt 0.351318 0.897421
vt 0.331326 0.9102933
vt 0.33481 0.898427
vt 0.321642 0.9055387
vt 0.321982 0.899381
vt 0.315881 0.9022385
vt 0.316172 0.899562
vt 0.313785 0.9001855
vn 0.6183176 -0.09013698 0.78074235
vn 0.55067784 -0.0797617 0.8308984
vn 0.55988944 -0.10091938 0.82239836
vn 0.5086895 -0.18497024 0.84084535
vn 0.50320005 -0.20096979 0.8404765
vn 0.47287524 -0.2956128 0.8300615
vn 0.47048658 -0.30134773 0.8293563
vn 0.45201892 -0.2796693 0.84703237
vn 0.45208567 -0.2787282 0.8473069
vn 0.42767483 -0.29945213 0.8528908
vn 0.43079576 -0.29116428 0.8541887
vn 0.3735033 -0.36081016 0.85458255
vn 0.3756019 -0.36292058 0.8527672
vn 0.34537026 -0.3568765 0.86796236
vn 0.3457223 -0.35884276 0.867011
vn 0.3055104 -0.38533163 0.870737
vn 0.3175971 -0.37157717 0.87238896
vn 0.3007365 -0.34466147 0.8892503
vn 0.30276537 -0.34447718 0.88863295
vn 0.28179452 -0.3720206 0.88441646
vn 0.27744576 -0.37287018 0.8854331
vn 0.26843417 -0.38775992 0.8818079
vn 0.26436943 -0.38650432 0.8835854
vn 0.23006505 -0.37706122 0.8971594
vn 0.22151323 -0.38726038 0.8949644
vn 0.20171393 -0.35842174 0.9115072
vn 0.21202558 -0.3445318 0.9145179
vn 0.1765741 -0.3634623 0.91472226
vn 0.17385712 -0.36933634 0.912888
vn 0.152803 -0.3865283 0.9095312
vn 0.15035686 -0.39314213 0.9071009
vn 0.14592615 -0.39488965 0.9070655
vn 0.13936293 -0.40087613 0.9054702
vn 0.13216637 -0.41268122 0.901236
vn 0.115574606 -0.43555206 0.8927132
vn 0.08922104 -0.469021 0.8786688
vn 0.070876695 -0.50377125 0.8609246
vn 0.14231813 -0.5252414 0.83896786
vn 0.086837046 -0.6088673 0.78850484
vn 0.21124278 -0.5681826 0.795327
vn -0.55067784 -0.07976169 0.8308983
vn -0.6183176 -0.090136975 0.7807424
vn -0.5598895 -0.10091941 0.8223983
vn -0.5086895 -0.18497026 0.84084535
vn -0.50320005 -0.20096977 0.8404765
vn -0.47287524 -0.29561287 0.8300615
vn -0.47048658 -0.3013478 0.8293563
vn -0.45201892 -0.27966937 0.84703237
vn -0.45208567 -0.27872816 0.847307
vn -0.42767492 -0.29945213 0.8528908
vn -0.4307957 -0.29116425 0.8541887
vn -0.3735033 -0.36081016 0.85458255
vn -0.37560192 -0.36292058 0.8527671
vn -0.34537023 -0.3568765 0.86796236
vn -0.34572232 -0.35884276 0.867011
vn -0.3055104 -0.38533163 0.870737
vn -0.31759715 -0.37157717 0.87238896
vn -0.30073652 -0.3446614 0.8892503
vn -0.30276537 -0.34447715 0.88863295
vn -0.28179452 -0.3720206 0.88441646
vn -0.27744576 -0.37287012 0.8854331
vn -0.26843417 -0.38775995 0.8818079
vn -0.26436946 -0.3865043 0.8835854
vn -0.23006508 -0.37706125 0.8971594
vn -0.22151324 -0.3872604 0.8949644
vn -0.20171396 -0.35842177 0.9115072
vn -0.21202558 -0.3445318 0.9145179
vn -0.17657411 -0.3634623 0.9147222
vn -0.1738571 -0.36933634 0.9128879
vn -0.15280303 -0.3865284 0.9095312
vn -0.15035686 -0.39314213 0.9071009
vn -0.14592615 -0.39488965 0.9070655
vn -0.13936293 -0.40087608 0.9054702
vn -0.13216637 -0.41268125 0.901236
vn -0.115574606 -0.43555206 0.8927132
vn -0.08922104 -0.46902093 0.8786688
vn -0.07087669 -0.50377125 0.8609246
vn -0.14231808 -0.52524126 0.83896786
vn -0.086836904 -0.6088674 0.7885048
vn -0.21124278 -0.5681826 0.795327
g M_Brw_B_Def_0
f 3/3/3 2/2/2 1/1/1
f 3/3/3 4/4/4 2/2/2
f 3/3/3 5/5/5 4/4/4
f 6/6/6 4/4/4 5/5/5
f 6/6/6 5/5/5 7/7/7
f 7/7/7 8/8/8 6/6/6
f 7/7/7 9/9/9 8/8/8
f 10/10/10 8/8/8 9/9/9
f 10/10/10 9/9/9 11/11/11
f 11/11/11 12/12/12 10/10/10
f 10/10/10 12/12/12 13/13/13
f 12/12/12 14/14/14 13/13/13
f 13/13/13 14/14/14 15/15/15
f 16/16/16 15/15/15 14/14/14
f 17/17/17 15/15/15 16/16/16
f 16/16/16 18/18/18 17/17/17
f 17/17/17 18/18/18 19/19/19
f 20/20/20 19/19/19 18/18/18
f 21/21/21 19/19/19 20/20/20
f 20/20/20 22/22/22 21/21/21
f 20/20/20 23/23/23 22/22/22
f 24/24/24 22/22/22 23/23/23
f 24/24/24 23/23/23 25/25/25
f 24/24/24 25/25/25 26/26/26
f 27/27/27 24/24/24 26/26/26
f 26/26/26 28/28/28 27/27/27
f 27/27/27 28/28/28 29/29/29
f 28/28/28 30/30/30 29/29/29
f 29/29/29 30/30/30 31/31/31
f 32/32/32 31/31/31 30/30/30
f 33/33/33 31/31/31 32/32/32
f 32/32/32 34/34/34 33/33/33
f 33/33/33 34/34/34 35/35/35
f 34/34/34 36/36/36 35/35/35
f 35/35/35 36/36/36 37/37/37
f 38/38/38 37/37/37 36/36/36
f 39/39/39 37/37/37 38/38/38
f 40/40/40 39/39/39 38/38/38
f 43/43/43 42/42/42 41/41/41
f 43/43/43 41/41/41 44/44/44
f 43/43/43 44/44/44 45/45/45
f 46/46/46 45/45/45 44/44/44
f 46/46/46 47/47/47 45/45/45
f 47/47/47 46/46/46 48/48/48
f 47/47/47 48/48/48 49/49/49
f 50/50/50 49/49/49 48/48/48
f 50/50/50 51/51/51 49/49/49
f 51/51/51 50/50/50 52/52/52
f 50/50/50 53/53/53 52/52/52
f 52/52/52 53/53/53 54/54/54
f 53/53/53 55/55/55 54/54/54
f 56/56/56 54/54/54 55/55/55
f 57/57/57 56/56/56 55/55/55
f 56/56/56 57/57/57 58/58/58
f 57/57/57 59/59/59 58/58/58
f 60/60/60 58/58/58 59/59/59
f 61/61/61 60/60/60 59/59/59
f 60/60/60 61/61/61 62/62/62
f 60/60/60 62/62/62 63/63/63
f 64/64/64 63/63/63 62/62/62
f 64/64/64 65/65/65 63/63/63
f 64/64/64 66/66/66 65/65/65
f 67/67/67 66/66/66 64/64/64
f 66/66/66 67/67/67 68/68/68
f 67/67/67 69/69/69 68/68/68
f 68/68/68 69/69/69 70/70/70
f 69/69/69 71/71/71 70/70/70
f 72/72/72 70/70/70 71/71/71
f 73/73/73 72/72/72 71/71/71
f 72/72/72 73/73/73 74/74/74
f 73/73/73 75/75/75 74/74/74
f 74/74/74 75/75/75 76/76/76
f 75/75/75 77/77/77 76/76/76
f 78/78/78 76/76/76 77/77/77
f 79/79/79 78/78/78 77/77/77
f 80/80/80 78/78/78 79/79/79
