g M_Brw_B_Def
v 0.07385182 0.06619644 0.07434652
v 0.0729946 0.066570126 0.074988365
v 0.07309563 0.06756027 0.07487923
v 0.0708931 0.068932034 0.07664168
v 0.07048874 0.0679808 0.07692899
v 0.06765711 0.07071731 0.079109326
v 0.06740732 0.0697435 0.07933593
v 0.06371044 0.07233231 0.081700854
v 0.063520364 0.07129898 0.08170054
v 0.05991253 0.07342407 0.08388289
v 0.05983237 0.07220733 0.08380808
v 0.056045793 0.07429519 0.08592354
v 0.055788845 0.073093414 0.08585202
v 0.050379448 0.074965514 0.08853005
v 0.05053968 0.073749386 0.088355914
v 0.04529565 0.07511612 0.09058837
v 0.045366254 0.07384155 0.090360105
v 0.041058958 0.075124964 0.09211854
v 0.041074164 0.073554225 0.09175839
v 0.03659899 0.07496933 0.09344672
v 0.037113562 0.07288406 0.09293102
v 0.03219912 0.07446167 0.09457856
v 0.032951225 0.07201309 0.09418898
v 0.029313568 0.07104111 0.0949875
v 0.028561773 0.07364166 0.095441066
v 0.026326116 0.070146024 0.095554896
v 0.025236854 0.07261505 0.09615428
v 0.023208328 0.06903992 0.09625202
v 0.022156691 0.071522824 0.096727006
v 0.019639898 0.06756592 0.09702648
v 0.018886693 0.06934753 0.09722899
v 0.017435301 0.0679396 0.09747238
v 0.017801752 0.06699967 0.09741243
v 0.016661575 0.06680984 0.09766124
v -0.0729946 0.066570126 0.074988365
v -0.07385182 0.06619644 0.07434652
v -0.07309563 0.06756027 0.07487923
v -0.0708931 0.068932034 0.07664168
v -0.07048874 0.0679808 0.07692899
v -0.06765711 0.07071731 0.079109326
v -0.06740732 0.0697435 0.07933593
v -0.06371044 0.07233231 0.081700854
v -0.063520364 0.07129898 0.08170054
v -0.05991253 0.07342407 0.08388289
v -0.05983237 0.07220733 0.08380808
v -0.056045793 0.07429519 0.08592354
v -0.055788845 0.073093414 0.08585202
v -0.050379448 0.074965514 0.08853005
v -0.05053968 0.073749386 0.088355914
v -0.04529565 0.07511612 0.09058837
v -0.045366254 0.07384155 0.090360105
v -0.041058958 0.075124964 0.09211854
v -0.041074164 0.073554225 0.09175839
v -0.03659899 0.07496933 0.09344672
v -0.037113562 0.07288406 0.09293102
v -0.03219912 0.07446167 0.09457856
v -0.032951225 0.07201309 0.09418898
v -0.029313568 0.07104111 0.0949875
v -0.028561773 0.07364166 0.095441066
v -0.026326116 0.070146024 0.095554896
v -0.025236854 0.07261505 0.09615428
v -0.023208328 0.06903992 0.09625202
v -0.022156691 0.071522824 0.096727006
v -0.019639898 0.06756592 0.09702648
v -0.018886693 0.06934753 0.09722899
v -0.017435301 0.0679396 0.09747238
v -0.017801752 0.06699967 0.09741243
v -0.016661575 0.06680984 0.09766124
vt 0.629397 0.9259721
vt 0.624247 0.9283887
vt 0.627275 0.9309133
vt 0.615706 0.9391282
vt 0.613037 0.9356484
vt 0.597699 0.94962883
vt 0.594348 0.9450406
vt 0.575395 0.9596539
vt 0.574077 0.9532425
vt 0.551433 0.9663408
vt 0.549738 0.9596297
vt 0.527137 0.9714862
vt 0.525893 0.9645249
vt 0.498264 0.9746591
vt 0.497575 0.96798
vt 0.46783 0.9759909
vt 0.467312 0.9679431
vt 0.443936 0.9757422
vt 0.443528 0.9656707
vt 0.417291 0.97483623
vt 0.420798 0.9617567
vt 0.399518 0.9720299
vt 0.401761 0.9573983
vt 0.383707 0.9529855
vt 0.378695 0.9681224
vt 0.365782 0.9473784
vt 0.361322 0.9626689
vt 0.348715 0.9417695
vt 0.345412 0.9567899
vt 0.333221 0.9352474
vt 0.32987 0.9472905
vt 0.318041 0.9354203
vt 0.318735 0.9304565
vt 0.312164 0.9284322
vt 0.624247 0.9283887
vt 0.629397 0.9259721
vt 0.627275 0.9309133
vt 0.615706 0.9391282
vt 0.613037 0.9356484
vt 0.597699 0.94962883
vt 0.594348 0.9450406
vt 0.575395 0.9596539
vt 0.574077 0.9532425
vt 0.551433 0.9663408
vt 0.549738 0.9596297
vt 0.527137 0.9714862
vt 0.525893 0.9645249
vt 0.498264 0.9746591
vt 0.497575 0.96798
vt 0.46783 0.9759909
vt 0.467312 0.9679431
vt 0.443936 0.9757422
vt 0.443528 0.9656707
vt 0.417291 0.97483623
vt 0.420798 0.9617567
vt 0.399518 0.9720299
vt 0.401761 0.9573983
vt 0.383707 0.9529855
vt 0.378695 0.9681224
vt 0.365782 0.9473784
vt 0.361322 0.9626689
vt 0.348715 0.9417695
vt 0.345412 0.9567899
vt 0.333221 0.9352474
vt 0.32987 0.9472905
vt 0.318041 0.9354203
vt 0.318735 0.9304565
vt 0.312164 0.9284322
vn 0.6063405 0.02574624 0.7947883
vn 0.6192934 0.015282164 0.78501093
vn 0.62920356 0.021447524 0.77694464
vn 0.6051378 -0.0132968705 0.79600966
vn 0.6050311 -0.012858627 0.79609805
vn 0.5883628 0.033505067 0.8079025
vn 0.587384 0.026515141 0.8088739
vn 0.4890673 -0.07949943 0.86861557
vn 0.48471132 -0.0891773 0.87011635
vn 0.46219453 -0.08491106 0.882704
vn 0.46318752 -0.09002046 0.8816766
vn 0.41117775 -0.13719551 0.90117157
vn 0.41050884 -0.13712347 0.90148747
vn 0.39221847 -0.084006384 0.9160281
vn 0.3999419 -0.08229454 0.9128384
vn 0.34679565 -0.14250222 0.9270523
vn 0.34443521 -0.15380129 0.9261261
vn 0.30102253 -0.20623288 0.9310497
vn 0.30295312 -0.20133778 0.9314948
vn 0.2785339 -0.16941461 0.9453663
vn 0.29132944 -0.14345177 0.9458058
vn 0.26406273 -0.08865114 0.96042275
vn 0.27173066 -0.06925461 0.9598783
vn 0.23186783 -0.09791168 0.96780705
vn 0.24039069 -0.10542203 0.9649344
vn 0.24432321 -0.11873857 0.9623966
vn 0.2417492 -0.11679073 0.9632846
vn 0.23868635 -0.09341887 0.96659285
vn 0.22143184 -0.08317817 0.971622
vn 0.20488076 -0.049226128 0.9775483
vn 0.18036288 -0.035479415 0.98296
vn 0.19857481 -0.0072152657 0.9800592
vn 0.2038188 0.017032126 0.97886044
vn 0.21005714 0.01955119 0.97749364
vn -0.6192934 0.0152821895 0.78501093
vn -0.6063405 0.025746241 0.7947883
vn -0.6292036 0.021447524 0.77694464
vn -0.6051378 -0.01329687 0.7960098
vn -0.605031 -0.01285862 0.79609805
vn -0.5883628 0.03350504 0.8079025
vn -0.58738405 0.026515106 0.8088739
vn -0.48906723 -0.07949944 0.86861557
vn -0.48471135 -0.089177296 0.87011623
vn -0.46219453 -0.08491106 0.882704
vn -0.46318752 -0.09002047 0.8816766
vn -0.4111778 -0.13719553 0.90117157
vn -0.41050884 -0.13712345 0.90148747
vn -0.39221853 -0.084006384 0.9160281
vn -0.39994192 -0.082294546 0.9128384
vn -0.34679568 -0.14250223 0.9270523
vn -0.34443524 -0.15380129 0.92612606
vn -0.3010225 -0.20623285 0.9310496
vn -0.30295312 -0.20133778 0.9314948
vn -0.27853388 -0.16941461 0.9453663
vn -0.29132944 -0.14345178 0.9458059
vn -0.26406267 -0.08865114 0.96042275
vn -0.27173066 -0.069254614 0.9598783
vn -0.23186788 -0.09791168 0.96780705
vn -0.24039073 -0.10542206 0.9649344
vn -0.24432327 -0.11873859 0.9623966
vn -0.2417492 -0.11679073 0.9632846
vn -0.23868635 -0.09341891 0.96659285
vn -0.2214318 -0.08317818 0.971622
vn -0.2048807 -0.04922607 0.9775483
vn -0.18036287 -0.03547941 0.98296
vn -0.1985748 -0.0072152573 0.9800592
vn -0.20381875 0.017032122 0.97886044
vn -0.21005714 0.01955119 0.97749364
g M_Brw_B_Def_0
f 3/3/3 2/2/2 1/1/1
f 3/3/3 4/4/4 2/2/2
f 5/5/5 2/2/2 4/4/4
f 4/4/4 6/6/6 5/5/5
f 7/7/7 5/5/5 6/6/6
f 6/6/6 8/8/8 7/7/7
f 7/7/7 8/8/8 9/9/9
f 8/8/8 10/10/10 9/9/9
f 9/9/9 10/10/10 11/11/11
f 12/12/12 11/11/11 10/10/10
f 13/13/13 11/11/11 12/12/12
f 12/12/12 14/14/14 13/13/13
f 15/15/15 13/13/13 14/14/14
f 14/14/14 16/16/16 15/15/15
f 17/17/17 15/15/15 16/16/16
f 16/16/16 18/18/18 17/17/17
f 19/19/19 17/17/17 18/18/18
f 18/18/18 20/20/20 19/19/19
f 21/21/21 19/19/19 20/20/20
f 20/20/20 22/22/22 21/21/21
f 23/23/23 21/21/21 22/22/22
f 22/22/22 24/24/24 23/23/23
f 22/22/22 25/25/25 24/24/24
f 26/26/26 24/24/24 25/25/25
f 26/26/26 25/25/25 27/27/27
f 28/28/28 26/26/26 27/27/27
f 28/28/28 27/27/27 29/29/29
f 28/28/28 29/29/29 30/30/30
f 31/31/31 30/30/30 29/29/29
f 31/31/31 32/32/32 30/30/30
f 32/32/32 33/33/33 30/30/30
f 34/34/34 33/33/33 32/32/32
f 37/37/37 36/36/36 35/35/35
f 37/37/37 35/35/35 38/38/38
f 39/39/39 38/38/38 35/35/35
f 38/38/38 39/39/39 40/40/40
f 41/41/41 40/40/40 39/39/39
f 40/40/40 41/41/41 42/42/42
f 41/41/41 43/43/43 42/42/42
f 42/42/42 43/43/43 44/44/44
f 43/43/43 45/45/45 44/44/44
f 46/46/46 44/44/44 45/45/45
f 47/47/47 46/46/46 45/45/45
f 46/46/46 47/47/47 48/48/48
f 49/49/49 48/48/48 47/47/47
f 48/48/48 49/49/49 50/50/50
f 51/51/51 50/50/50 49/49/49
f 50/50/50 51/51/51 52/52/52
f 53/53/53 52/52/52 51/51/51
f 52/52/52 53/53/53 54/54/54
f 55/55/55 54/54/54 53/53/53
f 54/54/54 55/55/55 56/56/56
f 57/57/57 56/56/56 55/55/55
f 56/56/56 57/57/57 58/58/58
f 56/56/56 58/58/58 59/59/59
f 60/60/60 59/59/59 58/58/58
f 60/60/60 61/61/61 59/59/59
f 62/62/62 61/61/61 60/60/60
f 62/62/62 63/63/63 61/61/61
f 62/62/62 64/64/64 63/63/63
f 65/65/65 63/63/63 64/64/64
f 65/65/65 64/64/64 66/66/66
f 66/66/66 64/64/64 67/67/67
f 68/68/68 66/66/66 67/67/67
