g M_Brw_B_Def
v 0.011610198 0.04867157 0.09626373
v 0.01182631 0.047969665 0.0960036
v 0.010251961 0.047835693 0.09620497
v 0.014024181 0.048359375 0.09583745
v 0.013700398 0.04960968 0.09620868
v 0.016153425 0.04873291 0.09565044
v 0.015818447 0.05049011 0.09611191
v 0.018145407 0.04903259 0.095497414
v 0.017685957 0.051207732 0.09603543
v 0.020652546 0.049417112 0.09524047
v 0.020520028 0.05190277 0.095632315
v 0.024140183 0.04966797 0.09487275
v 0.02403717 0.051837157 0.09513741
v 0.028424038 0.04989395 0.09406841
v 0.028425934 0.05156967 0.094329126
v 0.032191325 0.049955748 0.09317577
v 0.03218057 0.051202085 0.09320811
v 0.036401592 0.04981033 0.0918789
v 0.03642925 0.050827786 0.091893785
v 0.03994608 0.049520414 0.09074349
v 0.040061813 0.050491333 0.09068759
v 0.04300817 0.04914276 0.08960708
v 0.043195043 0.050123442 0.0896802
v 0.04708245 0.04835983 0.08780074
v 0.04721095 0.049277496 0.08783797
v 0.05108072 0.04751541 0.08512117
v 0.051036417 0.04832489 0.08532344
v 0.05388584 0.047453307 0.08311982
v 0.053891644 0.046911467 0.083035305
v 0.054983146 0.046696015 0.08205417
v -0.01182631 0.047969665 0.0960036
v -0.011610198 0.04867157 0.09626373
v -0.010251961 0.047835693 0.09620497
v -0.014024181 0.048359375 0.09583745
v -0.013700398 0.04960968 0.09620868
v -0.016153425 0.04873291 0.09565044
v -0.015818447 0.05049011 0.09611191
v -0.018145407 0.04903259 0.095497414
v -0.017685957 0.051207732 0.09603543
v -0.020652546 0.049417112 0.09524047
v -0.020520028 0.05190277 0.095632315
v -0.024140183 0.04966797 0.09487275
v -0.02403717 0.051837157 0.09513741
v -0.028424038 0.04989395 0.09406841
v -0.028425934 0.05156967 0.094329126
v -0.032191325 0.049955748 0.09317577
v -0.03218057 0.051202085 0.09320811
v -0.036401592 0.04981033 0.0918789
v -0.03642925 0.050827786 0.091893785
v -0.03994608 0.049520414 0.09074349
v -0.040061813 0.050491333 0.09068759
v -0.04300817 0.04914276 0.08960708
v -0.043195043 0.050123442 0.0896802
v -0.04708245 0.04835983 0.08780074
v -0.04721095 0.049277496 0.08783797
v -0.05108072 0.04751541 0.08512117
v -0.051036417 0.04832489 0.08532344
v -0.05388584 0.047453307 0.08311982
v -0.053891644 0.046911467 0.083035305
v -0.054983146 0.046696015 0.08205417
vt 0.320948 0.9285401
vt 0.321819 0.9255556
vt 0.311678 0.923525
vt 0.337387 0.9285749
vt 0.335576 0.9357987
vt 0.352637 0.9311928
vt 0.350074 0.9418564
vt 0.366462 0.9331684
vt 0.363273 0.9469285
vt 0.383872 0.9351409
vt 0.383496 0.9518896
vt 0.403562 0.9368247
vt 0.40238 0.9516042
vt 0.431858 0.9388389
vt 0.431205 0.9494301
vt 0.468836 0.9398424
vt 0.46876 0.9451502
vt 0.493077 0.9385573
vt 0.493377 0.9433106
vt 0.517844 0.9359438
vt 0.518256 0.9407604
vt 0.539928 0.9333437
vt 0.540329 0.9379211
vt 0.567402 0.9287836
vt 0.56827 0.9332358
vt 0.592617 0.9240083
vt 0.593183 0.9274222
vt 0.610001 0.9218565
vt 0.609798 0.920335
vt 0.621217 0.9172443
vt 0.321819 0.9255556
vt 0.320948 0.9285401
vt 0.311678 0.923525
vt 0.337387 0.9285749
vt 0.335576 0.9357987
vt 0.352637 0.9311928
vt 0.350074 0.9418564
vt 0.366462 0.9331684
vt 0.363273 0.9469285
vt 0.383872 0.9351409
vt 0.383496 0.9518896
vt 0.403562 0.9368247
vt 0.40238 0.9516042
vt 0.431858 0.9388389
vt 0.431205 0.9494301
vt 0.468836 0.9398424
vt 0.46876 0.9451502
vt 0.493077 0.9385573
vt 0.493377 0.9433106
vt 0.517844 0.9359438
vt 0.518256 0.9407604
vt 0.539928 0.9333437
vt 0.540329 0.9379211
vt 0.567402 0.9287836
vt 0.56827 0.9332358
vt 0.592617 0.9240083
vt 0.593183 0.9274222
vt 0.610001 0.9218565
vt 0.609798 0.920335
vt 0.621217 0.9172443
vn 0.13595848 -0.28833172 0.9478291
vn 0.1332889 -0.30807048 0.94198024
vn 0.14626184 -0.30386767 0.94142014
vn 0.1317048 -0.25425935 0.95812637
vn 0.13512956 -0.24296325 0.96057737
vn 0.12212427 -0.23319136 0.96473175
vn 0.12631448 -0.22404857 0.96635747
vn 0.12574778 -0.21581566 0.9683032
vn 0.14235148 -0.18991321 0.9714263
vn 0.13395149 -0.1578092 0.97834206
vn 0.14527275 -0.14049567 0.97936547
vn 0.1605246 -0.11867147 0.9798719
vn 0.16109996 -0.116126075 0.98008245
vn 0.20059186 -0.14311723 0.9691648
vn 0.19901653 -0.14253162 0.9695757
vn 0.28094432 -0.04224874 0.9587937
vn 0.28871197 -0.022325423 0.95715564
vn 0.29809526 -0.022097873 0.9542803
vn 0.2988609 -0.01923668 0.95410275
vn 0.3301407 0.011340501 0.9438636
vn 0.32699114 0.002241717 0.9450248
vn 0.3462728 -0.12420613 0.9298753
vn 0.342863 -0.1311097 0.9301909
vn 0.47380978 -0.10538854 0.8742983
vn 0.4663463 -0.10419969 0.87844384
vn 0.5441507 -0.16818845 0.82195663
vn 0.52763206 -0.17863965 0.83047724
vn 0.5879453 -0.12526916 0.79914206
vn 0.60423625 -0.1164796 0.78824556
vn 0.652357 -0.10998337 0.7498894
vn -0.13328888 -0.30807042 0.94198024
vn -0.13595848 -0.28833175 0.9478291
vn -0.14626183 -0.30386764 0.94142014
vn -0.13170482 -0.2542594 0.95812637
vn -0.13512956 -0.24296325 0.96057737
vn -0.12212427 -0.23319136 0.96473175
vn -0.12631449 -0.22404857 0.96635747
vn -0.12574778 -0.21581568 0.9683032
vn -0.14235145 -0.18991321 0.9714263
vn -0.13395147 -0.15780917 0.97834206
vn -0.14527275 -0.14049567 0.97936547
vn -0.1605246 -0.11867147 0.9798719
vn -0.16109996 -0.11612607 0.98008245
vn -0.20059186 -0.14311723 0.9691648
vn -0.19901653 -0.1425316 0.9695757
vn -0.28094432 -0.042248752 0.9587937
vn -0.288712 -0.022325423 0.95715564
vn -0.29809523 -0.022097873 0.9542803
vn -0.2988609 -0.019236678 0.95410275
vn -0.3301407 0.011340504 0.9438636
vn -0.32699117 0.0022417142 0.9450248
vn -0.3462729 -0.12420617 0.9298752
vn -0.34286308 -0.13110974 0.9301909
vn -0.4738099 -0.10538858 0.8742983
vn -0.4663464 -0.10419971 0.87844384
vn -0.54415065 -0.16818848 0.8219567
vn -0.527632 -0.17863965 0.83047724
vn -0.5879453 -0.12526914 0.79914206
vn -0.60423625 -0.11647959 0.78824556
vn -0.652357 -0.10998337 0.7498894
g M_Brw_B_Def_0
f 3/3/3 2/2/2 1/1/1
f 1/1/1 2/2/2 4/4/4
f 5/5/5 1/1/1 4/4/4
f 4/4/4 6/6/6 5/5/5
f 5/5/5 6/6/6 7/7/7
f 8/8/8 7/7/7 6/6/6
f 9/9/9 7/7/7 8/8/8
f 8/8/8 10/10/10 9/9/9
f 9/9/9 10/10/10 11/11/11
f 12/12/12 11/11/11 10/10/10
f 13/13/13 11/11/11 12/12/12
f 14/14/14 13/13/13 12/12/12
f 15/15/15 13/13/13 14/14/14
f 15/15/15 14/14/14 16/16/16
f 15/15/15 16/16/16 17/17/17
f 16/16/16 18/18/18 17/17/17
f 17/17/17 18/18/18 19/19/19
f 20/20/20 19/19/19 18/18/18
f 21/21/21 19/19/19 20/20/20
f 20/20/20 22/22/22 21/21/21
f 21/21/21 22/22/22 23/23/23
f 24/24/24 23/23/23 22/22/22
f 25/25/25 23/23/23 24/24/24
f 24/24/24 26/26/26 25/25/25
f 27/27/27 25/25/25 26/26/26
f 26/26/26 28/28/28 27/27/27
f 26/26/26 29/29/29 28/28/28
f 28/28/28 29/29/29 30/30/30
f 33/33/33 32/32/32 31/31/31
f 32/32/32 34/34/34 31/31/31
f 35/35/35 34/34/34 32/32/32
f 34/34/34 35/35/35 36/36/36
f 35/35/35 37/37/37 36/36/36
f 38/38/38 36/36/36 37/37/37
f 39/39/39 38/38/38 37/37/37
f 38/38/38 39/39/39 40/40/40
f 39/39/39 41/41/41 40/40/40
f 42/42/42 40/40/40 41/41/41
f 43/43/43 42/42/42 41/41/41
f 44/44/44 42/42/42 43/43/43
f 45/45/45 44/44/44 43/43/43
f 45/45/45 46/46/46 44/44/44
f 45/45/45 47/47/47 46/46/46
f 46/46/46 47/47/47 48/48/48
f 47/47/47 49/49/49 48/48/48
f 50/50/50 48/48/48 49/49/49
f 51/51/51 50/50/50 49/49/49
f 50/50/50 51/51/51 52/52/52
f 51/51/51 53/53/53 52/52/52
f 54/54/54 52/52/52 53/53/53
f 55/55/55 54/54/54 53/53/53
f 54/54/54 55/55/55 56/56/56
f 57/57/57 56/56/56 55/55/55
f 56/56/56 57/57/57 58/58/58
f 56/56/56 58/58/58 59/59/59
f 58/58/58 60/60/60 59/59/59
