g M_Brw_B_Def
v 0.010671339 0.048917998 0.0956548
v 0.011700715 0.047565307 0.0952792
v 0.009745227 0.047379605 0.095327474
v 0.017971901 0.050087128 0.09506754
v 0.016769417 0.05488342 0.09631318
v 0.025833251 0.05314316 0.094607815
v 0.025166856 0.057144012 0.095532484
v 0.031370252 0.055551756 0.09395664
v 0.031120237 0.05877441 0.09466699
v 0.037340786 0.058018796 0.09279867
v 0.037291277 0.06050003 0.093475446
v 0.042747173 0.060170133 0.09155765
v 0.04266995 0.061992798 0.092117004
v 0.047499966 0.061716612 0.089713134
v 0.04745186 0.06300446 0.089977965
v 0.052201584 0.06242111 0.08768173
v 0.052219868 0.06354309 0.08782624
v 0.0560447 0.06258285 0.08514249
v 0.056058314 0.0635057 0.08520572
v 0.059147656 0.06354797 0.082912
v 0.05906134 0.06273849 0.08287304
v 0.062181257 0.063381195 0.079952754
v 0.06215634 0.06285751 0.07993311
v 0.064241335 0.06284546 0.0776837
v -0.011700715 0.047565307 0.0952792
v -0.010671339 0.048917998 0.0956548
v -0.009745227 0.047379605 0.095327474
v -0.017971901 0.050087128 0.09506754
v -0.016769417 0.05488342 0.09631318
v -0.025833251 0.05314316 0.094607815
v -0.025166856 0.057144012 0.095532484
v -0.031370252 0.055551756 0.09395664
v -0.031120237 0.05877441 0.09466699
v -0.037340786 0.058018796 0.09279867
v -0.037291277 0.06050003 0.093475446
v -0.042747173 0.060170133 0.09155765
v -0.04266995 0.061992798 0.092117004
v -0.047499966 0.061716612 0.089713134
v -0.04745186 0.06300446 0.089977965
v -0.052201584 0.06242111 0.08768173
v -0.052219868 0.06354309 0.08782624
v -0.0560447 0.06258285 0.08514249
v -0.056058314 0.0635057 0.08520572
v -0.059147656 0.06354797 0.082912
v -0.05906134 0.06273849 0.08287304
v -0.062181257 0.063381195 0.079952754
v -0.06215634 0.06285751 0.07993311
v -0.064241335 0.06284546 0.0776837
vt 0.298126 0.867119
vt 0.304191 0.859199
vt 0.292669 0.858201
vt 0.341144 0.87335
vt 0.334059 0.9011406
vt 0.387629 0.894322
vt 0.383852 0.9184566
vt 0.420724 0.90917313
vt 0.419484 0.9279706
vt 0.456666 0.9226879
vt 0.456622 0.9369038
vt 0.489313 0.9335701
vt 0.489068 0.9441286
vt 0.518065 0.9415648
vt 0.517963 0.9491156
vt 0.54639 0.9462288
vt 0.546681 0.9528399
vt 0.569487 0.94778347
vt 0.569731 0.9532224
vt 0.588559 0.9540289
vt 0.587996 0.9484059
vt 0.606782 0.9538014
vt 0.605687 0.9475616
vt 0.618583 0.9493332
vt 0.304191 0.859199
vt 0.298126 0.867119
vt 0.292669 0.858201
vt 0.341144 0.87335
vt 0.334059 0.9011406
vt 0.387629 0.894322
vt 0.383852 0.9184566
vt 0.420724 0.90917313
vt 0.419484 0.9279706
vt 0.456666 0.9226879
vt 0.456622 0.9369038
vt 0.489313 0.9335701
vt 0.489068 0.9441286
vt 0.518065 0.9415648
vt 0.517963 0.9491156
vt 0.54639 0.9462288
vt 0.546681 0.9528399
vt 0.569487 0.94778347
vt 0.569731 0.9532224
vt 0.588559 0.9540289
vt 0.587996 0.9484059
vt 0.606782 0.9538014
vt 0.605687 0.9475616
vt 0.618583 0.9493332
vn 0.10628942 -0.21332689 0.9711819
vn 0.10088562 -0.1941639 0.9757676
vn 0.046239816 -0.23444085 0.97103006
vn 0.12743333 -0.21849847 0.9674809
vn 0.13081011 -0.21598908 0.9675936
vn 0.16032144 -0.20049593 0.9664876
vn 0.16517513 -0.19664922 0.96646065
vn 0.22145583 -0.1918582 0.9561108
vn 0.22946419 -0.19877364 0.95280385
vn 0.27400023 -0.23558065 0.93242997
vn 0.28030643 -0.2491245 0.92701954
vn 0.35243723 -0.25680646 0.8999103
vn 0.3636377 -0.25469077 0.89604694
vn 0.4215362 -0.17999473 0.8887683
vn 0.42248935 -0.16466565 0.89128447
vn 0.4795207 -0.1240262 0.8687217
vn 0.48224923 -0.11711448 0.8681704
vn 0.57615155 -0.07135104 0.8142226
vn 0.5771277 -0.06428433 0.8141199
vn 0.6501604 -0.10236845 0.75286925
vn 0.6470172 -0.10404158 0.7553437
vn 0.70538414 -0.06527544 0.7058132
vn 0.7068382 -0.060080998 0.70481914
vn 0.73190594 -0.060303424 0.6787321
vn -0.10088561 -0.1941639 0.9757676
vn -0.10628943 -0.21332692 0.9711819
vn -0.04623982 -0.23444085 0.97103006
vn -0.12743333 -0.2184984 0.9674809
vn -0.13081013 -0.21598908 0.9675936
vn -0.16032146 -0.20049594 0.9664876
vn -0.16517511 -0.19664921 0.96646065
vn -0.2214558 -0.19185822 0.9561108
vn -0.22946419 -0.19877364 0.95280385
vn -0.2740003 -0.23558068 0.93242997
vn -0.28030643 -0.2491245 0.92701954
vn -0.35243723 -0.25680643 0.8999103
vn -0.36363772 -0.25469074 0.89604694
vn -0.42153624 -0.17999475 0.88876826
vn -0.42248932 -0.16466567 0.89128447
vn -0.47952062 -0.1240262 0.8687217
vn -0.48224914 -0.1171145 0.8681705
vn -0.5761516 -0.071351044 0.8142226
vn -0.57712775 -0.06428433 0.81411976
vn -0.6501605 -0.102368474 0.7528692
vn -0.6470172 -0.10404157 0.7553437
vn -0.70538414 -0.06527543 0.7058133
vn -0.70683813 -0.060081 0.7048192
vn -0.73190594 -0.060303416 0.6787321
g M_Brw_B_Def_0
f 3/3/3 2/2/2 1/1/1
f 1/1/1 2/2/2 4/4/4
f 5/5/5 1/1/1 4/4/4
f 4/4/4 6/6/6 5/5/5
f 7/7/7 5/5/5 6/6/6
f 7/7/7 6/6/6 8/8/8
f 7/7/7 8/8/8 9/9/9
f 9/9/9 8/8/8 10/10/10
f 9/9/9 10/10/10 11/11/11
f 10/10/10 12/12/12 11/11/11
f 13/13/13 11/11/11 12/12/12
f 12/12/12 14/14/14 13/13/13
f 13/13/13 14/14/14 15/15/15
f 16/16/16 15/15/15 14/14/14
f 17/17/17 15/15/15 16/16/16
f 16/16/16 18/18/18 17/17/17
f 19/19/19 17/17/17 18/18/18
f 18/18/18 20/20/20 19/19/19
f 18/18/18 21/21/21 20/20/20
f 22/22/22 20/20/20 21/21/21
f 22/22/22 21/21/21 23/23/23
f 22/22/22 23/23/23 24/24/24
f 27/27/27 26/26/26 25/25/25
f 26/26/26 28/28/28 25/25/25
f 29/29/29 28/28/28 26/26/26
f 28/28/28 29/29/29 30/30/30
f 31/31/31 30/30/30 29/29/29
f 31/31/31 32/32/32 30/30/30
f 31/31/31 33/33/33 32/32/32
f 33/33/33 34/34/34 32/32/32
f 33/33/33 35/35/35 34/34/34
f 34/34/34 35/35/35 36/36/36
f 37/37/37 36/36/36 35/35/35
f 36/36/36 37/37/37 38/38/38
f 37/37/37 39/39/39 38/38/38
f 40/40/40 38/38/38 39/39/39
f 41/41/41 40/40/40 39/39/39
f 40/40/40 41/41/41 42/42/42
f 43/43/43 42/42/42 41/41/41
f 42/42/42 43/43/43 44/44/44
f 42/42/42 44/44/44 45/45/45
f 46/46/46 45/45/45 44/44/44
f 46/46/46 47/47/47 45/45/45
f 46/46/46 48/48/48 47/47/47
