g M_Brw_B_Def
v 0.011505572 0.036502685 0.09101184
v 0.011796352 0.036236268 0.09096999
v 0.0113678025 0.035997618 0.09068099
v 0.0122036645 0.036513977 0.0912089
v 0.011928403 0.03697876 0.09118337
v 0.013533809 0.037498932 0.09148901
v 0.013218949 0.038228605 0.09157853
v 0.017897844 0.040579986 0.091908775
v 0.017093228 0.042160492 0.09231858
v 0.022497542 0.043194734 0.09194133
v 0.021550609 0.04537857 0.09238068
v 0.027119778 0.04504013 0.091253124
v 0.026390523 0.047481842 0.09161531
v 0.032008316 0.047085267 0.09042428
v 0.031333055 0.049068145 0.09062452
v 0.036251146 0.05048248 0.08913883
v 0.018337794 0.039239958 0.09083136
v 0.013791167 0.037039336 0.09071964
v 0.022835897 0.041222837 0.090427265
v 0.027274475 0.04284805 0.089914404
v 0.0122036645 0.036513977 0.0912089
v 0.012425875 0.03628601 0.09070765
v 0.011872098 0.036039274 0.09067275
v 0.011796352 0.036236268 0.09096999
v 0.0113678025 0.035997618 0.09068099
v 0.032166123 0.04521469 0.089265876
v 0.036666173 0.048668366 0.08905162
v 0.03659151 0.047156066 0.08821434
v 0.041792136 0.049206693 0.08643812
v 0.041823532 0.050354917 0.08719226
v 0.041479643 0.05156601 0.08709417
v 0.04453148 0.050286252 0.08535569
v 0.04445759 0.052118834 0.08595781
v 0.044663675 0.051211547 0.08589916
v 0.04769121 0.05294861 0.084255725
v 0.047753938 0.051798094 0.08398066
v 0.047908418 0.05234436 0.08440251
v 0.047908418 0.05234436 0.08440251
v 0.050491553 0.05394806 0.0827206
v 0.05065844 0.053454436 0.082876414
v 0.050538283 0.053016357 0.082565755
v 0.053466156 0.055380706 0.08076706
v 0.05361617 0.054802246 0.08088928
v 0.053534307 0.05440704 0.080620125
v 0.05679773 0.05712738 0.07772957
v 0.056983564 0.056636963 0.07784896
v 0.05683034 0.056125488 0.07770121
v 0.058308236 0.05734253 0.07621443
v -0.011796352 0.036236268 0.09096999
v -0.011505572 0.036502685 0.09101184
v -0.0113678025 0.035997618 0.09068099
v -0.0122036645 0.036513977 0.0912089
v -0.011928403 0.03697876 0.09118337
v -0.013533809 0.037498932 0.09148901
v -0.013218949 0.038228605 0.09157853
v -0.017897844 0.040579986 0.091908775
v -0.017093228 0.042160492 0.09231858
v -0.022497542 0.043194734 0.09194133
v -0.021550609 0.04537857 0.09238068
v -0.027119778 0.04504013 0.091253124
v -0.026390523 0.047481842 0.09161531
v -0.032008316 0.047085267 0.09042428
v -0.031333055 0.049068145 0.09062452
v -0.036251146 0.05048248 0.08913883
v -0.018337794 0.039239958 0.09083136
v -0.022835897 0.041222837 0.090427265
v -0.013791167 0.037039336 0.09071964
v -0.027274475 0.04284805 0.089914404
v -0.0122036645 0.036513977 0.0912089
v -0.012425875 0.03628601 0.09070765
v -0.011872098 0.036039274 0.09067275
v -0.011796352 0.036236268 0.09096999
v -0.0113678025 0.035997618 0.09068099
v -0.032166123 0.04521469 0.089265876
v -0.036666173 0.048668366 0.08905162
v -0.03659151 0.047156066 0.08821434
v -0.041792136 0.049206693 0.08643812
v -0.041823532 0.050354917 0.08719226
v -0.041479643 0.05156601 0.08709417
v -0.04453148 0.050286252 0.08535569
v -0.04445759 0.052118834 0.08595781
v -0.044663675 0.051211547 0.08589916
v -0.04769121 0.05294861 0.084255725
v -0.047753938 0.051798094 0.08398066
v -0.047908418 0.05234436 0.08440251
v -0.047908418 0.05234436 0.08440251
v -0.050491553 0.05394806 0.0827206
v -0.05065844 0.053454436 0.082876414
v -0.050538283 0.053016357 0.082565755
v -0.053466156 0.055380706 0.08076706
v -0.05361617 0.054802246 0.08088928
v -0.053534307 0.05440704 0.080620125
v -0.05679773 0.05712738 0.07772957
v -0.056983564 0.056636963 0.07784896
v -0.05683034 0.056125488 0.07770121
v -0.058308236 0.05734253 0.07621443
vt 0.320184 0.862801
vt 0.321068 0.861297
vt 0.318986 0.859937
vt 0.324884 0.86394703
vt 0.323985 0.867464
vt 0.332092 0.86839104
vt 0.32993 0.87399
vt 0.361074 0.887995
vt 0.357365 0.89765
vt 0.393758 0.9035631
vt 0.392874 0.9195299
vt 0.421486 0.9134197
vt 0.419461 0.9293764
vt 0.453972 0.92437637
vt 0.452001 0.936997
vt 0.484617 0.9430511
vt 0.364782 0.878339
vt 0.333261 0.865519
vt 0.395516 0.889346
vt 0.423414 0.89824
vt 0.324884 0.86394703
vt 0.326131 0.86171997
vt 0.322616 0.859658
vt 0.321068 0.861297
vt 0.318986 0.859937
vt 0.455943 0.911755
vt 0.485257 0.9334166
vt 0.485994 0.9225202
vt 0.519714 0.9339486
vt 0.519366 0.9417314
vt 0.519018 0.9491247
vt 0.537416 0.9397329
vt 0.53479 0.95186
vt 0.536103 0.9457965
vt 0.552363 0.9542062
vt 0.555041 0.9470593
vt 0.553556 0.95058477
vt 0.553556 0.95058477
vt 0.571069 0.9605814
vt 0.572642 0.9579969
vt 0.573924 0.9546342
vt 0.592274 0.9685627
vt 0.593302 0.9657959
vt 0.594329 0.96302867
vt 0.625426 0.982222
vt 0.626095 0.9794218
vt 0.626278 0.9762052
vt 0.631415 0.9818357
vt 0.321068 0.861297
vt 0.320184 0.862801
vt 0.318986 0.859937
vt 0.324884 0.86394703
vt 0.323985 0.867464
vt 0.332092 0.86839104
vt 0.32993 0.87399
vt 0.361074 0.887995
vt 0.357365 0.89765
vt 0.393758 0.9035631
vt 0.392874 0.9195299
vt 0.421486 0.9134197
vt 0.419461 0.9293764
vt 0.453972 0.92437637
vt 0.452001 0.936997
vt 0.484617 0.9430511
vt 0.364782 0.878339
vt 0.395516 0.889346
vt 0.333261 0.865519
vt 0.423414 0.89824
vt 0.324884 0.86394703
vt 0.326131 0.86171997
vt 0.322616 0.859658
vt 0.321068 0.861297
vt 0.318986 0.859937
vt 0.455943 0.911755
vt 0.485257 0.9334166
vt 0.485994 0.9225202
vt 0.519714 0.9339486
vt 0.519366 0.9417314
vt 0.519018 0.9491247
vt 0.537416 0.9397329
vt 0.53479 0.95186
vt 0.536103 0.9457965
vt 0.552363 0.9542062
vt 0.555041 0.9470593
vt 0.553556 0.95058477
vt 0.553556 0.95058477
vt 0.571069 0.9605814
vt 0.572642 0.9579969
vt 0.573924 0.9546342
vt 0.592274 0.9685627
vt 0.593302 0.9657959
vt 0.594329 0.96302867
vt 0.625426 0.982222
vt 0.626095 0.9794218
vt 0.626278 0.9762052
vt 0.631415 0.9818357
vn -0.27850306 -0.3130507 0.9079842
vn -0.079608284 -0.6325533 0.77041477
vn -0.13691406 -0.6545354 0.7435307
vn 0.14627612 -0.51517934 0.8445079
vn -0.17948015 -0.09390473 0.97926956
vn 0.20409556 -0.5020534 0.8404091
vn -0.009752618 -0.16062413 0.9869674
vn 0.19086672 -0.37972698 0.90519464
vn 0.08107376 -0.20217802 0.9759872
vn 0.2253441 -0.3369746 0.9141489
vn 0.14726791 -0.12901755 0.980646
vn 0.26686522 -0.2862183 0.92025113
vn 0.19727468 -0.08039628 0.9770461
vn 0.3123544 -0.24644046 0.9174431
vn 0.24599639 -0.0140996175 0.9691682
vn 0.3059508 0.028642382 0.9516164
vn 0.3057605 -0.5416515 0.7830225
vn 0.36279932 -0.7426142 0.5629394
vn 0.29908204 -0.54731107 0.78166527
vn 0.32088935 -0.487342 0.8121131
vn 0.14627612 -0.51517934 0.8445079
vn 0.3881066 -0.7618805 0.51856667
vn 0.21093026 -0.81190753 0.544348
vn -0.079608284 -0.6325533 0.77041477
vn -0.13691406 -0.6545354 0.7435307
vn 0.3589349 -0.46903837 0.8069503
vn 0.37262362 -0.21479851 0.90278083
vn 0.41570076 -0.45615405 0.7868395
vn 0.44967842 -0.49177057 0.74562114
vn 0.41457605 -0.18620871 0.8907598
vn 0.32700998 0.16816993 0.9299373
vn 0.50017214 -0.4900098 0.7139455
vn 0.42045805 0.059090815 0.90538573
vn 0.49007773 -0.25488332 0.8335816
vn 0.34538844 0.30307698 0.888173
vn 0.52522695 -0.5915555 0.61171794
vn 0.32312426 0.33346298 0.88565975
vn 0.5304634 -0.6069918 0.5917512
vn 0.3515253 0.3845919 0.85353327
vn 0.553068 -0.12299736 0.8240069
vn 0.5879348 -0.5677347 0.576203
vn 0.50802195 0.30571896 0.80526376
vn 0.64148784 -0.080565676 0.7628909
vn 0.6732812 -0.5026157 0.5422819
vn 0.5451121 0.38256484 0.7459872
vn 0.691418 0.040277846 0.72133136
vn 0.7335583 -0.3821198 0.5620292
vn 0.77070314 0.02777579 0.6365887
vn 0.07960845 -0.6325533 0.7704147
vn 0.27850324 -0.3130514 0.9079839
vn 0.13691515 -0.65453434 0.74353147
vn -0.14627591 -0.51517886 0.8445082
vn 0.17948012 -0.093904495 0.97926956
vn -0.20409574 -0.5020535 0.8404089
vn 0.009752546 -0.16062412 0.9869674
vn -0.1908667 -0.37972692 0.90519464
vn -0.08107376 -0.20217799 0.9759872
vn -0.22534409 -0.3369746 0.9141488
vn -0.14726792 -0.12901758 0.980646
vn -0.26686522 -0.28621832 0.92025113
vn -0.19727471 -0.08039629 0.9770461
vn -0.3123543 -0.24644025 0.9174432
vn -0.24599636 -0.014099607 0.9691682
vn -0.3059508 0.028642382 0.9516164
vn -0.30576053 -0.54165137 0.7830225
vn -0.29908204 -0.547311 0.78166527
vn -0.36279932 -0.7426142 0.5629394
vn -0.32088935 -0.48734203 0.8121131
vn -0.14627591 -0.51517886 0.8445082
vn -0.38810652 -0.7618805 0.5185666
vn -0.21093035 -0.8119074 0.54434794
vn 0.07960845 -0.6325533 0.7704147
vn 0.13691515 -0.65453434 0.74353147
vn -0.3589349 -0.46903834 0.80695033
vn -0.37262362 -0.21479852 0.90278083
vn -0.41570076 -0.45615405 0.7868395
vn -0.44967845 -0.4917706 0.74562126
vn -0.41457602 -0.18620875 0.89075977
vn -0.32700995 0.16816995 0.9299373
vn -0.5001722 -0.4900098 0.7139454
vn -0.42045805 0.05909084 0.90538573
vn -0.49007767 -0.25488344 0.8335816
vn -0.34538847 0.303077 0.88817286
vn -0.52522683 -0.5915554 0.611718
vn -0.3231243 0.333463 0.8856597
vn -0.5304634 -0.60699177 0.5917512
vn -0.3515253 0.38459185 0.85353327
vn -0.553068 -0.12299727 0.824007
vn -0.5879348 -0.56773484 0.576203
vn -0.50802195 0.305719 0.80526376
vn -0.64148766 -0.080564804 0.7628912
vn -0.6732814 -0.5026157 0.54228187
vn -0.5451121 0.38256478 0.7459872
vn -0.6914181 0.040277302 0.7213312
vn -0.73355824 -0.3821198 0.5620291
vn -0.77070326 0.027775247 0.6365886
g M_Brw_B_Def_0
f 3/3/3 2/2/2 1/1/1
f 1/1/1 2/2/2 4/4/4
f 5/5/5 1/1/1 4/4/4
f 5/5/5 4/4/4 6/6/6
f 5/5/5 6/6/6 7/7/7
f 7/7/7 6/6/6 8/8/8
f 7/7/7 8/8/8 9/9/9
f 9/9/9 8/8/8 10/10/10
f 9/9/9 10/10/10 11/11/11
f 11/11/11 10/10/10 12/12/12
f 11/11/11 12/12/12 13/13/13
f 13/13/13 12/12/12 14/14/14
f 13/13/13 14/14/14 15/15/15
f 15/15/15 14/14/14 16/16/16
f 17/17/17 8/8/8 6/6/6
f 17/17/17 6/6/6 18/18/18
f 19/19/19 8/8/8 17/17/17
f 19/19/19 10/10/10 8/8/8
f 20/20/20 10/10/10 19/19/19
f 20/20/20 12/12/12 10/10/10
f 18/18/18 6/6/6 21/21/21
f 18/18/18 21/21/21 22/22/22
f 21/21/21 23/23/23 22/22/22
f 21/21/21 24/24/24 23/23/23
f 23/23/23 24/24/24 25/25/25
f 26/26/26 12/12/12 20/20/20
f 26/26/26 14/14/14 12/12/12
f 26/26/26 27/27/27 14/14/14
f 28/28/28 27/27/27 26/26/26
f 16/16/16 14/14/14 27/27/27
f 29/29/29 27/27/27 28/28/28
f 16/16/16 27/27/27 30/30/30
f 29/29/29 30/30/30 27/27/27
f 16/16/16 30/30/30 31/31/31
f 29/29/29 32/32/32 30/30/30
f 31/31/31 30/30/30 33/33/33
f 32/32/32 34/34/34 30/30/30
f 30/30/30 34/34/34 33/33/33
f 33/33/33 34/34/34 35/35/35
f 32/32/32 36/36/36 34/34/34
f 34/34/34 37/37/37 35/35/35
f 36/36/36 38/38/38 34/34/34
f 35/35/35 37/37/37 39/39/39
f 36/36/36 40/40/40 38/38/38
f 39/39/39 37/37/37 40/40/40
f 41/41/41 40/40/40 36/36/36
f 39/39/39 40/40/40 42/42/42
f 41/41/41 43/43/43 40/40/40
f 42/42/42 40/40/40 43/43/43
f 44/44/44 43/43/43 41/41/41
f 42/42/42 43/43/43 45/45/45
f 44/44/44 46/46/46 43/43/43
f 45/45/45 43/43/43 46/46/46
f 47/47/47 46/46/46 44/44/44
f 45/45/45 46/46/46 48/48/48
f 48/48/48 46/46/46 47/47/47
f 51/51/51 50/50/50 49/49/49
f 50/50/50 52/52/52 49/49/49
f 53/53/53 52/52/52 50/50/50
f 53/53/53 54/54/54 52/52/52
f 53/53/53 55/55/55 54/54/54
f 55/55/55 56/56/56 54/54/54
f 55/55/55 57/57/57 56/56/56
f 57/57/57 58/58/58 56/56/56
f 57/57/57 59/59/59 58/58/58
f 59/59/59 60/60/60 58/58/58
f 59/59/59 61/61/61 60/60/60
f 61/61/61 62/62/62 60/60/60
f 61/61/61 63/63/63 62/62/62
f 63/63/63 64/64/64 62/62/62
f 65/65/65 54/54/54 56/56/56
f 66/66/66 65/65/65 56/56/56
f 66/66/66 56/56/56 58/58/58
f 65/65/65 67/67/67 54/54/54
f 68/68/68 66/66/66 58/58/58
f 68/68/68 58/58/58 60/60/60
f 67/67/67 69/69/69 54/54/54
f 67/67/67 70/70/70 69/69/69
f 69/69/69 70/70/70 71/71/71
f 69/69/69 71/71/71 72/72/72
f 71/71/71 73/73/73 72/72/72
f 74/74/74 68/68/68 60/60/60
f 74/74/74 60/60/60 62/62/62
f 74/74/74 62/62/62 75/75/75
f 76/76/76 74/74/74 75/75/75
f 64/64/64 75/75/75 62/62/62
f 77/77/77 76/76/76 75/75/75
f 64/64/64 78/78/78 75/75/75
f 77/77/77 75/75/75 78/78/78
f 64/64/64 79/79/79 78/78/78
f 77/77/77 78/78/78 80/80/80
f 79/79/79 81/81/81 78/78/78
f 80/80/80 78/78/78 82/82/82
f 78/78/78 81/81/81 82/82/82
f 81/81/81 83/83/83 82/82/82
f 80/80/80 82/82/82 84/84/84
f 82/82/82 83/83/83 85/85/85
f 84/84/84 82/82/82 86/86/86
f 83/83/83 87/87/87 85/85/85
f 84/84/84 86/86/86 88/88/88
f 87/87/87 88/88/88 85/85/85
f 89/89/89 84/84/84 88/88/88
f 87/87/87 90/90/90 88/88/88
f 89/89/89 88/88/88 91/91/91
f 90/90/90 91/91/91 88/88/88
f 92/92/92 89/89/89 91/91/91
f 90/90/90 93/93/93 91/91/91
f 92/92/92 91/91/91 94/94/94
f 93/93/93 94/94/94 91/91/91
f 95/95/95 92/92/92 94/94/94
f 93/93/93 96/96/96 94/94/94
f 96/96/96 95/95/95 94/94/94
