g M_Brw_B_Def
v 0.009045956 0.040099945 0.09589918
v 0.009807634 0.040780332 0.09605519
v 0.009888377 0.040209197 0.09585739
v 0.011626695 0.041045684 0.095868856
v 0.011519636 0.041742094 0.096123494
v 0.013557989 0.041784056 0.09590176
v 0.013280027 0.042610474 0.09612947
v 0.01589106 0.042725828 0.095888495
v 0.015727468 0.043746337 0.09608975
v 0.018069595 0.043526154 0.09581068
v 0.017963178 0.044676512 0.095954895
v 0.021402976 0.044546355 0.09550033
v 0.021119164 0.04579071 0.09571612
v 0.025001721 0.045384366 0.0950657
v 0.024953974 0.04685501 0.095268704
v 0.032051805 0.04618652 0.09365562
v 0.032070637 0.04829834 0.09398266
v 0.03657509 0.04651077 0.092464074
v 0.036772285 0.048822783 0.0928552
v 0.04053896 0.04651642 0.091312416
v 0.040864367 0.04890045 0.09159133
v 0.04504967 0.04644226 0.08936113
v 0.045442346 0.048525695 0.08966034
v 0.048824042 0.04589584 0.08727544
v 0.04923446 0.047583923 0.08744175
v 0.052777484 0.045068968 0.084555216
v 0.053031616 0.04640701 0.08443792
v 0.055613365 0.04551025 0.08190673
v 0.055314936 0.04478256 0.08196855
v 0.05668234 0.045013428 0.08012813
v 0.05647326 0.044589538 0.08035544
v 0.057186935 0.044627074 0.079170056
v -0.009807634 0.040780332 0.09605519
v -0.009045956 0.040099945 0.09589918
v -0.009888377 0.040209197 0.09585739
v -0.011626695 0.041045684 0.095868856
v -0.011519636 0.041742094 0.096123494
v -0.013557989 0.041784056 0.09590176
v -0.013280027 0.042610474 0.09612947
v -0.01589106 0.042725828 0.095888495
v -0.015727468 0.043746337 0.09608975
v -0.018069595 0.043526154 0.09581068
v -0.017963178 0.044676512 0.095954895
v -0.021402976 0.044546355 0.09550033
v -0.021119164 0.04579071 0.09571612
v -0.025001721 0.045384366 0.0950657
v -0.024953974 0.04685501 0.095268704
v -0.032051805 0.04618652 0.09365562
v -0.032070637 0.04829834 0.09398266
v -0.03657509 0.04651077 0.092464074
v -0.036772285 0.048822783 0.0928552
v -0.04053896 0.04651642 0.091312416
v -0.040864367 0.04890045 0.09159133
v -0.04504967 0.04644226 0.08936113
v -0.045442346 0.048525695 0.08966034
v -0.048824042 0.04589584 0.08727544
v -0.04923446 0.047583923 0.08744175
v -0.052777484 0.045068968 0.084555216
v -0.053031616 0.04640701 0.08443792
v -0.055613365 0.04551025 0.08190673
v -0.055314936 0.04478256 0.08196855
v -0.05668234 0.045013428 0.08012813
v -0.05647326 0.044589538 0.08035544
v -0.057186935 0.044627074 0.079170056
vt 0.328637 0.9081037
vt 0.334873 0.9116614
vt 0.33525 0.9081323
vt 0.349218 0.9111485
vt 0.348549 0.9153042
vt 0.362736 0.9143886
vt 0.360916 0.9194427
vt 0.379718 0.91786337
vt 0.378596 0.9237006
vt 0.395304 0.9209869
vt 0.393451 0.9278348
vt 0.418839 0.9254559
vt 0.417179 0.9334825
vt 0.443131 0.9288018
vt 0.442658 0.9391609
vt 0.489405 0.9323974
vt 0.48915 0.9478841
vt 0.518274 0.9346755
vt 0.5191 0.9515155
vt 0.544093 0.9348257
vt 0.545557 0.9521435
vt 0.575274 0.9351311
vt 0.577158 0.9505284
vt 0.602387 0.932956
vt 0.604586 0.945556
vt 0.629878 0.9287446
vt 0.631305 0.93874097
vt 0.6481 0.932793
vt 0.64605 0.9275244
vt 0.655071 0.9295171
vt 0.653637 0.9264658
vt 0.658556 0.9268649
vt 0.334873 0.9116614
vt 0.328637 0.9081037
vt 0.33525 0.9081323
vt 0.349218 0.9111485
vt 0.348549 0.9153042
vt 0.362736 0.9143886
vt 0.360916 0.9194427
vt 0.379718 0.91786337
vt 0.378596 0.9237006
vt 0.395304 0.9209869
vt 0.393451 0.9278348
vt 0.418839 0.9254559
vt 0.417179 0.9334825
vt 0.443131 0.9288018
vt 0.442658 0.9391609
vt 0.489405 0.9323974
vt 0.48915 0.9478841
vt 0.518274 0.9346755
vt 0.5191 0.9515155
vt 0.544093 0.9348257
vt 0.545557 0.9521435
vt 0.575274 0.9351311
vt 0.577158 0.9505284
vt 0.602387 0.932956
vt 0.604586 0.945556
vt 0.629878 0.9287446
vt 0.631305 0.93874097
vt 0.6481 0.932793
vt 0.64605 0.9275244
vt 0.655071 0.9295171
vt 0.653637 0.9264658
vt 0.658556 0.9268649
vn 0.08774363 -0.31489933 0.94506055
vn 0.13181022 -0.31056702 0.9413683
vn 0.12206591 -0.30936015 0.9430781
vn 0.12717059 -0.3221563 0.93810606
vn 0.12150776 -0.30797902 0.943602
vn 0.10412364 -0.24029563 0.96509916
vn 0.10338685 -0.2224113 0.9694557
vn 0.09910678 -0.182728 0.97815555
vn 0.10039321 -0.16682082 0.98086286
vn 0.11646343 -0.11953428 0.98597556
vn 0.11969644 -0.117129676 0.9858769
vn 0.13792354 -0.13589099 0.98107636
vn 0.13876384 -0.13763776 0.98071426
vn 0.18669169 -0.12871163 0.97395045
vn 0.19153889 -0.13209996 0.97255456
vn 0.22730479 -0.14967632 0.9622523
vn 0.22864047 -0.15539081 0.96102923
vn 0.26190296 -0.17840412 0.9484613
vn 0.2649723 -0.17702827 0.9478664
vn 0.3410653 -0.16010103 0.92630565
vn 0.34405613 -0.16090648 0.9250591
vn 0.4081761 -0.1974733 0.8912893
vn 0.4048097 -0.2029732 0.89158905
vn 0.49071607 -0.20502596 0.84685415
vn 0.49775442 -0.19123307 0.8459731
vn 0.6283603 -0.08465438 0.7733027
vn 0.64300174 -0.05516571 0.76387537
vn 0.72654885 -0.20562163 0.6556268
vn 0.7181715 -0.23390703 0.65537554
vn 0.82337 -0.15847224 0.5449297
vn 0.8156595 -0.09644544 0.57043654
vn 0.8494299 -0.14723282 0.5067458
vn -0.13181017 -0.31056702 0.9413683
vn -0.08774363 -0.31489933 0.94506055
vn -0.12206581 -0.30936015 0.9430781
vn -0.12717064 -0.3221563 0.93810606
vn -0.12150782 -0.30797905 0.943602
vn -0.10412365 -0.24029565 0.96509916
vn -0.103386864 -0.2224113 0.9694557
vn -0.09910679 -0.18272805 0.97815555
vn -0.1003932 -0.16682082 0.98086286
vn -0.11646343 -0.11953425 0.98597556
vn -0.11969642 -0.11712969 0.9858769
vn -0.13792354 -0.13589095 0.98107636
vn -0.13876383 -0.13763776 0.98071426
vn -0.18669173 -0.12871163 0.97395045
vn -0.1915389 -0.13209997 0.97255456
vn -0.22730474 -0.14967634 0.9622523
vn -0.22864047 -0.15539084 0.96102923
vn -0.26190293 -0.17840412 0.9484613
vn -0.26497233 -0.17702827 0.9478664
vn -0.3410653 -0.16010104 0.92630565
vn -0.3440561 -0.1609065 0.9250592
vn -0.40817606 -0.19747329 0.8912893
vn -0.40480965 -0.20297317 0.89158905
vn -0.4907161 -0.20502599 0.84685415
vn -0.49775448 -0.19123308 0.8459731
vn -0.62836033 -0.08465439 0.7733026
vn -0.6430017 -0.055165704 0.76387537
vn -0.72654885 -0.20562166 0.6556268
vn -0.7181715 -0.23390703 0.6553756
vn -0.82337 -0.15847225 0.5449297
vn -0.8156595 -0.09644544 0.5704364
vn -0.8494299 -0.14723282 0.50674576
g M_Brw_B_Def_0
f 3/3/3 2/2/2 1/1/1
f 3/3/3 4/4/4 2/2/2
f 2/2/2 4/4/4 5/5/5
f 6/6/6 5/5/5 4/4/4
f 7/7/7 5/5/5 6/6/6
f 6/6/6 8/8/8 7/7/7
f 7/7/7 8/8/8 9/9/9
f 10/10/10 9/9/9 8/8/8
f 11/11/11 9/9/9 10/10/10
f 10/10/10 12/12/12 11/11/11
f 11/11/11 12/12/12 13/13/13
f 14/14/14 13/13/13 12/12/12
f 15/15/15 13/13/13 14/14/14
f 16/16/16 15/15/15 14/14/14
f 15/15/15 16/16/16 17/17/17
f 16/16/16 18/18/18 17/17/17
f 17/17/17 18/18/18 19/19/19
f 20/20/20 19/19/19 18/18/18
f 21/21/21 19/19/19 20/20/20
f 20/20/20 22/22/22 21/21/21
f 23/23/23 21/21/21 22/22/22
f 22/22/22 24/24/24 23/23/23
f 25/25/25 23/23/23 24/24/24
f 24/24/24 26/26/26 25/25/25
f 25/25/25 26/26/26 27/27/27
f 26/26/26 28/28/28 27/27/27
f 26/26/26 29/29/29 28/28/28
f 29/29/29 30/30/30 28/28/28
f 29/29/29 31/31/31 30/30/30
f 30/30/30 31/31/31 32/32/32
f 35/35/35 34/34/34 33/33/33
f 35/35/35 33/33/33 36/36/36
f 33/33/33 37/37/37 36/36/36
f 38/38/38 36/36/36 37/37/37
f 39/39/39 38/38/38 37/37/37
f 38/38/38 39/39/39 40/40/40
f 39/39/39 41/41/41 40/40/40
f 42/42/42 40/40/40 41/41/41
f 43/43/43 42/42/42 41/41/41
f 42/42/42 43/43/43 44/44/44
f 43/43/43 45/45/45 44/44/44
f 46/46/46 44/44/44 45/45/45
f 47/47/47 46/46/46 45/45/45
f 48/48/48 46/46/46 47/47/47
f 47/47/47 49/49/49 48/48/48
f 48/48/48 49/49/49 50/50/50
f 49/49/49 51/51/51 50/50/50
f 52/52/52 50/50/50 51/51/51
f 53/53/53 52/52/52 51/51/51
f 52/52/52 53/53/53 54/54/54
f 55/55/55 54/54/54 53/53/53
f 54/54/54 55/55/55 56/56/56
f 57/57/57 56/56/56 55/55/55
f 56/56/56 57/57/57 58/58/58
f 57/57/57 59/59/59 58/58/58
f 58/58/58 59/59/59 60/60/60
f 58/58/58 60/60/60 61/61/61
f 61/61/61 60/60/60 62/62/62
f 61/61/61 62/62/62 63/63/63
f 62/62/62 64/64/64 63/63/63
