g M_Brw_B_Def
v 0.060066447 0.04956421 0.08415673
v 0.058998197 0.0495842 0.084966086
v 0.05905669 0.0500029 0.08492436
v 0.056209445 0.049762268 0.08684332
v 0.056306865 0.050443877 0.08680099
v 0.053219084 0.050699614 0.08861303
v 0.053087395 0.049909208 0.088619344
v 0.04901059 0.05095291 0.090928674
v 0.048925474 0.050071258 0.09077101
v 0.04429646 0.05112503 0.09302321
v 0.044180226 0.04995346 0.09284324
v 0.04010484 0.05124237 0.09439073
v 0.039836336 0.049752347 0.09409923
v 0.03618061 0.051276855 0.09538118
v 0.036187805 0.049384154 0.09481237
v 0.03263288 0.051188506 0.09617104
v 0.03254322 0.04897415 0.095479295
v 0.029809775 0.051005553 0.09662411
v 0.029704247 0.048520505 0.09591624
v 0.027010221 0.05076004 0.09705785
v 0.026812127 0.048051298 0.096262455
v 0.024158413 0.05045532 0.09748123
v 0.02412652 0.04751999 0.0965268
v 0.020982359 0.05003418 0.09783045
v 0.021112239 0.04701019 0.09685918
v 0.017960262 0.046339415 0.09715827
v 0.01771716 0.049476165 0.098166
v 0.014730032 0.047667388 0.098080315
v 0.015208284 0.04570236 0.09739743
v 0.012889407 0.046439055 0.09803353
v 0.01328232 0.04514618 0.09755329
v 0.011629063 0.045531157 0.09794923
v 0.012010519 0.0447525 0.0976362
v 0.010704114 0.044796754 0.09786091
v 0.010784602 0.0443161 0.09770032
v 0.010229797 0.04421173 0.09775098
v -0.058998197 0.0495842 0.084966086
v -0.060066447 0.04956421 0.08415673
v -0.05905669 0.0500029 0.08492436
v -0.056209445 0.049762268 0.08684332
v -0.056306865 0.050443877 0.08680099
v -0.053219084 0.050699614 0.08861303
v -0.053087395 0.049909208 0.088619344
v -0.04901059 0.05095291 0.090928674
v -0.048925474 0.050071258 0.09077101
v -0.04429646 0.05112503 0.09302321
v -0.044180226 0.04995346 0.09284324
v -0.04010484 0.05124237 0.09439073
v -0.039836336 0.049752347 0.09409923
v -0.03618061 0.051276855 0.09538118
v -0.036187805 0.049384154 0.09481237
v -0.03263288 0.051188506 0.09617104
v -0.03254322 0.04897415 0.095479295
v -0.029809775 0.051005553 0.09662411
v -0.029704247 0.048520505 0.09591624
v -0.027010221 0.05076004 0.09705785
v -0.026812127 0.048051298 0.096262455
v -0.024158413 0.05045532 0.09748123
v -0.02412652 0.04751999 0.0965268
v -0.020982359 0.05003418 0.09783045
v -0.021112239 0.04701019 0.09685918
v -0.017960262 0.046339415 0.09715827
v -0.01771716 0.049476165 0.098166
v -0.014730032 0.047667388 0.098080315
v -0.015208284 0.04570236 0.09739743
v -0.010784602 0.0443161 0.09770032
v -0.010704114 0.044796754 0.09786091
v -0.010229797 0.04421173 0.09775098
v -0.012010519 0.0447525 0.0976362
v -0.011629063 0.045531157 0.09794923
v -0.01328232 0.04514618 0.09755329
v -0.012889407 0.046439055 0.09803353
v -0.015208284 0.04570236 0.09739743
v -0.014730032 0.047667388 0.098080315
vt 0.584253 0.9396816
vt 0.577694 0.9397919
vt 0.578761 0.942445
vt 0.562507 0.9418348
vt 0.563178 0.9453727
vt 0.548436 0.9469778
vt 0.547725 0.9433267
vt 0.531084 0.948671
vt 0.530966 0.9446773
vt 0.51427 0.9508222
vt 0.51436 0.9442435
vt 0.497087 0.9520736
vt 0.496575 0.9430372
vt 0.478361 0.9516899
vt 0.478832 0.9388391
vt 0.456924 0.9515506
vt 0.457583 0.9345939
vt 0.432864 0.9510576
vt 0.431709 0.9280863
vt 0.408218 0.9463876
vt 0.408617 0.9246937
vt 0.389125 0.9426113
vt 0.387399 0.9221949
vt 0.369787 0.9378411
vt 0.371167 0.9200778
vt 0.348316 0.9169267
vt 0.34894 0.9310941
vt 0.330106 0.923301
vt 0.331075 0.91394
vt 0.317801 0.9170831
vt 0.320026 0.91174567
vt 0.310412 0.9129441
vt 0.311716 0.9091928
vt 0.302697 0.9081257
vt 0.303679 0.9057221
vt 0.300219 0.90518713
vt 0.577694 0.9397919
vt 0.584253 0.9396816
vt 0.578761 0.942445
vt 0.562507 0.9418348
vt 0.563178 0.9453727
vt 0.548436 0.9469778
vt 0.547725 0.9433267
vt 0.531084 0.948671
vt 0.530966 0.9446773
vt 0.51427 0.9508222
vt 0.51436 0.9442435
vt 0.497087 0.9520736
vt 0.496575 0.9430372
vt 0.478361 0.9516899
vt 0.478832 0.9388391
vt 0.456924 0.9515506
vt 0.457583 0.9345939
vt 0.432864 0.9510576
vt 0.431709 0.9280863
vt 0.408218 0.9463876
vt 0.408617 0.9246937
vt 0.389125 0.9426113
vt 0.387399 0.9221949
vt 0.369787 0.9378411
vt 0.371167 0.9200778
vt 0.348316 0.9169267
vt 0.34894 0.9310941
vt 0.330106 0.923301
vt 0.331075 0.91394
vt 0.303679 0.9057221
vt 0.302697 0.9081257
vt 0.300219 0.90518713
vt 0.311716 0.9091928
vt 0.310412 0.9129441
vt 0.320026 0.91174567
vt 0.317801 0.9170831
vt 0.331075 0.91394
vt 0.330106 0.923301
vn 0.60382533 -0.004915932 0.79710144
vn 0.570058 0.0022400268 0.8216014
vn 0.5704355 -0.0027221115 0.8213379
vn 0.52823776 -0.027010232 0.8486669
vn 0.53294533 -0.02365237 0.845819
vn 0.48400772 -0.07096993 0.87218106
vn 0.4803288 -0.0828265 0.873169
vn 0.4178626 -0.19301368 0.8877706
vn 0.4167171 -0.19684254 0.8874682
vn 0.35290587 -0.1771293 0.9187397
vn 0.34733137 -0.18352726 0.9196079
vn 0.26191851 -0.22628924 0.93818545
vn 0.2520738 -0.23894635 0.93774384
vn 0.21606117 -0.27487138 0.93689024
vn 0.21106763 -0.28447095 0.9351613
vn 0.19090916 -0.2968576 0.9356438
vn 0.19225387 -0.29416892 0.9362175
vn 0.17630072 -0.2814602 0.9432382
vn 0.17571437 -0.28014198 0.94373983
vn 0.16750056 -0.28617808 0.94342226
vn 0.16079782 -0.29438716 0.94206166
vn 0.15279317 -0.30290592 0.9406924
vn 0.15075405 -0.304023 0.94066113
vn 0.14935009 -0.2980136 0.9428057
vn 0.1532069 -0.2962235 0.94275093
vn 0.14962381 -0.2930234 0.9443251
vn 0.14807144 -0.29207587 0.9448632
vn 0.15434861 -0.2906119 0.9443099
vn 0.15603231 -0.29140583 0.94378847
vn 0.16263592 -0.29487404 0.9415939
vn 0.1597172 -0.30071133 0.94024634
vn 0.15375672 -0.30281729 0.940564
vn 0.15362097 -0.3018763 0.9408886
vn 0.15073065 -0.29609287 0.94319105
vn 0.1489712 -0.2908213 0.9451087
vn 0.1413527 -0.2923328 0.9458123
vn -0.570058 0.002240026 0.8216014
vn -0.60382533 -0.004915932 0.79710144
vn -0.5704355 -0.0027221227 0.8213378
vn -0.5282378 -0.02701024 0.8486667
vn -0.53294545 -0.023652386 0.84581894
vn -0.48400772 -0.07096993 0.87218106
vn -0.4803288 -0.08282652 0.873169
vn -0.41786253 -0.19301373 0.8877706
vn -0.41671705 -0.19684249 0.8874682
vn -0.35290596 -0.17712933 0.9187397
vn -0.34733137 -0.18352726 0.9196079
vn -0.26191854 -0.22628924 0.93818545
vn -0.2520738 -0.23894632 0.93774384
vn -0.21606117 -0.27487135 0.93689024
vn -0.21106763 -0.28447092 0.9351613
vn -0.19090916 -0.29685763 0.9356438
vn -0.19225389 -0.29416892 0.9362175
vn -0.1763007 -0.2814602 0.9432382
vn -0.17571439 -0.28014198 0.94373983
vn -0.16750056 -0.28617808 0.9434224
vn -0.16079783 -0.29438722 0.94206166
vn -0.15279317 -0.30290592 0.9406924
vn -0.15075405 -0.304023 0.94066113
vn -0.14935008 -0.29801357 0.9428057
vn -0.15320688 -0.29622343 0.94275093
vn -0.1496238 -0.2930234 0.9443251
vn -0.14807144 -0.29207587 0.9448632
vn -0.15434863 -0.29061192 0.9443099
vn -0.15603232 -0.29140583 0.94378847
vn -0.14897121 -0.2908213 0.9451087
vn -0.15073068 -0.2960929 0.94319105
vn -0.1413527 -0.2923328 0.9458123
vn -0.15362097 -0.3018763 0.9408886
vn -0.15375674 -0.3028173 0.940564
vn -0.15971719 -0.3007114 0.9402462
vn -0.16263588 -0.294874 0.94159377
vn -0.15603232 -0.29140583 0.94378847
vn -0.15434863 -0.29061192 0.9443099
g M_Brw_B_Def_0
f 3/3/3 2/2/2 1/1/1
f 4/4/4 2/2/2 3/3/3
f 4/4/4 3/3/3 5/5/5
f 5/5/5 6/6/6 4/4/4
f 4/4/4 6/6/6 7/7/7
f 6/6/6 8/8/8 7/7/7
f 7/7/7 8/8/8 9/9/9
f 10/10/10 9/9/9 8/8/8
f 11/11/11 9/9/9 10/10/10
f 10/10/10 12/12/12 11/11/11
f 11/11/11 12/12/12 13/13/13
f 14/14/14 13/13/13 12/12/12
f 15/15/15 13/13/13 14/14/14
f 14/14/14 16/16/16 15/15/15
f 17/17/17 15/15/15 16/16/16
f 17/17/17 16/16/16 18/18/18
f 19/19/19 17/17/17 18/18/18
f 18/18/18 20/20/20 19/19/19
f 19/19/19 20/20/20 21/21/21
f 20/20/20 22/22/22 21/21/21
f 21/21/21 22/22/22 23/23/23
f 24/24/24 23/23/23 22/22/22
f 25/25/25 23/23/23 24/24/24
f 24/24/24 26/26/26 25/25/25
f 24/24/24 27/27/27 26/26/26
f 27/27/27 28/28/28 26/26/26
f 29/29/29 26/26/26 28/28/28
f 28/28/28 30/30/30 29/29/29
f 29/29/29 30/30/30 31/31/31
f 32/32/32 31/31/31 30/30/30
f 33/33/33 31/31/31 32/32/32
f 32/32/32 34/34/34 33/33/33
f 34/34/34 35/35/35 33/33/33
f 36/36/36 35/35/35 34/34/34
f 39/39/39 38/38/38 37/37/37
f 40/40/40 39/39/39 37/37/37
f 40/40/40 41/41/41 39/39/39
f 41/41/41 40/40/40 42/42/42
f 40/40/40 43/43/43 42/42/42
f 42/42/42 43/43/43 44/44/44
f 43/43/43 45/45/45 44/44/44
f 46/46/46 44/44/44 45/45/45
f 47/47/47 46/46/46 45/45/45
f 46/46/46 47/47/47 48/48/48
f 47/47/47 49/49/49 48/48/48
f 50/50/50 48/48/48 49/49/49
f 51/51/51 50/50/50 49/49/49
f 50/50/50 51/51/51 52/52/52
f 53/53/53 52/52/52 51/51/51
f 53/53/53 54/54/54 52/52/52
f 55/55/55 54/54/54 53/53/53
f 54/54/54 55/55/55 56/56/56
f 55/55/55 57/57/57 56/56/56
f 56/56/56 57/57/57 58/58/58
f 57/57/57 59/59/59 58/58/58
f 60/60/60 58/58/58 59/59/59
f 61/61/61 60/60/60 59/59/59
f 60/60/60 61/61/61 62/62/62
f 60/60/60 62/62/62 63/63/63
f 63/63/63 62/62/62 64/64/64
f 65/65/65 64/64/64 62/62/62
f 68/68/68 67/67/67 66/66/66
f 67/67/67 69/69/69 66/66/66
f 70/70/70 69/69/69 67/67/67
f 69/69/69 70/70/70 71/71/71
f 70/70/70 72/72/72 71/71/71
f 73/73/73 71/71/71 72/72/72
f 74/74/74 73/73/73 72/72/72
