g M_Brw_B_Def
v 0.06360423 0.052435912 0.080571905
v 0.062115584 0.0530986 0.08249219
v 0.06229468 0.0539035 0.08239273
v 0.05986719 0.054009397 0.0849227
v 0.060214803 0.054895017 0.084789924
v 0.05747376 0.054982297 0.087410875
v 0.05784321 0.05591156 0.08732639
v 0.05435023 0.057126462 0.089848936
v 0.054104958 0.056147918 0.08992462
v 0.050874658 0.058190916 0.09165818
v 0.0505511 0.057155762 0.091673836
v 0.047207516 0.05901779 0.09341397
v 0.04703323 0.057974853 0.0933306
v 0.043582447 0.059654236 0.09478676
v 0.043302737 0.058486633 0.09476253
v 0.038816642 0.058641966 0.09626941
v 0.038851537 0.059967346 0.096381426
v 0.03359676 0.058078613 0.09747578
v 0.03357857 0.059888914 0.09760459
v 0.029321214 0.057256162 0.098371126
v 0.02895984 0.05927902 0.098557815
v 0.024742775 0.056024015 0.09891866
v 0.024449514 0.05831192 0.0992175
v 0.021841155 0.055108182 0.09915556
v 0.020699287 0.05723251 0.09947485
v 0.018336201 0.05400192 0.09942021
v 0.017484494 0.055949554 0.09969265
v 0.013358602 0.053484954 0.099743895
v 0.014061184 0.052360535 0.09971541
v 0.011742885 0.051489867 0.09987026
v -0.062115584 0.0530986 0.08249219
v -0.06360423 0.052435912 0.080571905
v -0.06229468 0.0539035 0.08239273
v -0.05986719 0.054009397 0.0849227
v -0.060214803 0.054895017 0.084789924
v -0.05747376 0.054982297 0.087410875
v -0.05784321 0.05591156 0.08732639
v -0.05435023 0.057126462 0.089848936
v -0.054104958 0.056147918 0.08992462
v -0.050874658 0.058190916 0.09165818
v -0.0505511 0.057155762 0.091673836
v -0.047207516 0.05901779 0.09341397
v -0.04703323 0.057974853 0.0933306
v -0.043582447 0.059654236 0.09478676
v -0.043302737 0.058486633 0.09476253
v -0.038816642 0.058641966 0.09626941
v -0.038851537 0.059967346 0.096381426
v -0.03359676 0.058078613 0.09747578
v -0.03357857 0.059888914 0.09760459
v -0.029321214 0.057256162 0.098371126
v -0.02895984 0.05927902 0.098557815
v -0.024742775 0.056024015 0.09891866
v -0.024449514 0.05831192 0.0992175
v -0.021841155 0.055108182 0.09915556
v -0.020699287 0.05723251 0.09947485
v -0.018336201 0.05400192 0.09942021
v -0.017484494 0.055949554 0.09969265
v -0.013358602 0.053484954 0.099743895
v -0.014061184 0.052360535 0.09971541
v -0.011742885 0.051489867 0.09987026
vt 0.622823 0.9035211
vt 0.613524 0.9076603
vt 0.614643 0.9126886
vt 0.59948 0.9133502
vt 0.601651 0.918882
vt 0.584529 0.919427
vt 0.586837 0.925232
vt 0.565018 0.932821
vt 0.563486 0.9267083
vt 0.543307 0.93947
vt 0.541286 0.9330041
vt 0.5204 0.9446349
vt 0.519311 0.9381203
vt 0.497755 0.9486102
vt 0.496008 0.9413168
vt 0.467986 0.9422874
vt 0.468204 0.95056653
vt 0.43538 0.9387683
vt 0.435266 0.9500765
vt 0.408672 0.9336307
vt 0.406415 0.9462671
vt 0.380073 0.9259344
vt 0.378241 0.940226
vt 0.361948 0.9202138
vt 0.354815 0.9334833
vt 0.340054 0.913303
vt 0.334734 0.9254688
vt 0.308961 0.9100736
vt 0.31335 0.9030504
vt 0.298869 0.897612
vt 0.613524 0.9076603
vt 0.622823 0.9035211
vt 0.614643 0.9126886
vt 0.59948 0.9133502
vt 0.601651 0.918882
vt 0.584529 0.919427
vt 0.586837 0.925232
vt 0.565018 0.932821
vt 0.563486 0.9267083
vt 0.543307 0.93947
vt 0.541286 0.9330041
vt 0.5204 0.9446349
vt 0.519311 0.9381203
vt 0.497755 0.9486102
vt 0.496008 0.9413168
vt 0.467986 0.9422874
vt 0.468204 0.95056653
vt 0.43538 0.9387683
vt 0.435266 0.9500765
vt 0.408672 0.9336307
vt 0.406415 0.9462671
vt 0.380073 0.9259344
vt 0.378241 0.940226
vt 0.361948 0.9202138
vt 0.354815 0.9334833
vt 0.340054 0.913303
vt 0.334734 0.9254688
vt 0.308961 0.9100736
vt 0.31335 0.9030504
vt 0.298869 0.897612
vn 0.7709368 -0.09369607 0.62998205
vn 0.74160594 -0.08275671 0.6657117
vn 0.7360399 -0.09326996 0.67048186
vn 0.69291705 -0.15971753 0.70310485
vn 0.69280636 -0.17115612 0.70051754
vn 0.6056536 -0.16106261 0.7792577
vn 0.60828704 -0.17137666 0.7749948
vn 0.5148347 -0.06817031 0.8545748
vn 0.51493514 -0.06997232 0.8543686
vn 0.41307276 -0.10931554 0.90411335
vn 0.40910104 -0.11635253 0.9050405
vn 0.36369148 -0.13208212 0.92210776
vn 0.36538485 -0.13156715 0.9215118
vn 0.32764983 -0.09943878 0.9395517
vn 0.3268376 -0.09781563 0.94000494
vn 0.27063483 -0.08853778 0.95860195
vn 0.26888856 -0.085075326 0.9594067
vn 0.2220913 -0.06825862 0.9726336
vn 0.22090514 -0.06487544 0.9731352
vn 0.17164926 -0.061567303 0.98323244
vn 0.1762332 -0.066505425 0.9820992
vn 0.14005339 -0.1043258 0.9846325
vn 0.14281449 -0.10635095 0.98401904
vn 0.10271415 -0.097860076 0.98988545
vn 0.1002858 -0.09497379 0.99041545
vn 0.088632934 -0.09282052 0.99173003
vn 0.0879461 -0.10017196 0.99107575
vn 0.066613495 -0.021472665 0.9975478
vn 0.06289546 0.014016964 0.99792176
vn 0.06168066 0.013257425 0.99800795
vn -0.74160594 -0.082756735 0.6657117
vn -0.7709368 -0.09369607 0.62998205
vn -0.7360399 -0.09326994 0.67048186
vn -0.69291705 -0.15971753 0.7031048
vn -0.6928063 -0.17115612 0.7005176
vn -0.60565364 -0.16106261 0.7792577
vn -0.60828704 -0.17137666 0.77499473
vn -0.5148347 -0.06817029 0.8545748
vn -0.51493526 -0.06997229 0.8543685
vn -0.41307285 -0.10931551 0.90411335
vn -0.40910107 -0.11635255 0.9050405
vn -0.36369148 -0.13208215 0.92210776
vn -0.3653849 -0.13156712 0.9215118
vn -0.3276499 -0.09943878 0.9395517
vn -0.32683766 -0.09781564 0.94000494
vn -0.27063486 -0.08853779 0.95860195
vn -0.26888856 -0.085075326 0.9594067
vn -0.22209133 -0.06825863 0.9726336
vn -0.22090514 -0.06487544 0.9731352
vn -0.17164928 -0.061567303 0.98323244
vn -0.1762332 -0.06650541 0.9820992
vn -0.14005338 -0.10432579 0.9846325
vn -0.14281446 -0.10635095 0.98401904
vn -0.10271415 -0.097860076 0.98988545
vn -0.10028579 -0.09497379 0.99041545
vn -0.08863293 -0.092820555 0.99173003
vn -0.08794609 -0.10017196 0.99107575
vn -0.06661351 -0.021472774 0.9975478
vn -0.06289546 0.014016964 0.99792176
vn -0.061680652 0.0132574225 0.99800795
g M_Brw_B_Def_0
f 3/3/3 2/2/2 1/1/1
f 3/3/3 4/4/4 2/2/2
f 3/3/3 5/5/5 4/4/4
f 6/6/6 4/4/4 5/5/5
f 6/6/6 5/5/5 7/7/7
f 7/7/7 8/8/8 6/6/6
f 6/6/6 8/8/8 9/9/9
f 10/10/10 9/9/9 8/8/8
f 11/11/11 9/9/9 10/10/10
f 10/10/10 12/12/12 11/11/11
f 11/11/11 12/12/12 13/13/13
f 14/14/14 13/13/13 12/12/12
f 15/15/15 13/13/13 14/14/14
f 14/14/14 16/16/16 15/15/15
f 14/14/14 17/17/17 16/16/16
f 18/18/18 16/16/16 17/17/17
f 18/18/18 17/17/17 19/19/19
f 19/19/19 20/20/20 18/18/18
f 19/19/19 21/21/21 20/20/20
f 22/22/22 20/20/20 21/21/21
f 22/22/22 21/21/21 23/23/23
f 23/23/23 24/24/24 22/22/22
f 23/23/23 25/25/25 24/24/24
f 26/26/26 24/24/24 25/25/25
f 26/26/26 25/25/25 27/27/27
f 27/27/27 28/28/28 26/26/26
f 28/28/28 29/29/29 26/26/26
f 30/30/30 29/29/29 28/28/28
f 33/33/33 32/32/32 31/31/31
f 33/33/33 31/31/31 34/34/34
f 33/33/33 34/34/34 35/35/35
f 36/36/36 35/35/35 34/34/34
f 36/36/36 37/37/37 35/35/35
f 37/37/37 36/36/36 38/38/38
f 36/36/36 39/39/39 38/38/38
f 40/40/40 38/38/38 39/39/39
f 41/41/41 40/40/40 39/39/39
f 40/40/40 41/41/41 42/42/42
f 41/41/41 43/43/43 42/42/42
f 44/44/44 42/42/42 43/43/43
f 45/45/45 44/44/44 43/43/43
f 44/44/44 45/45/45 46/46/46
f 44/44/44 46/46/46 47/47/47
f 48/48/48 47/47/47 46/46/46
f 48/48/48 49/49/49 47/47/47
f 49/49/49 48/48/48 50/50/50
f 49/49/49 50/50/50 51/51/51
f 52/52/52 51/51/51 50/50/50
f 52/52/52 53/53/53 51/51/51
f 53/53/53 52/52/52 54/54/54
f 53/53/53 54/54/54 55/55/55
f 56/56/56 55/55/55 54/54/54
f 56/56/56 57/57/57 55/55/55
f 57/57/57 56/56/56 58/58/58
f 58/58/58 56/56/56 59/59/59
f 60/60/60 58/58/58 59/59/59
