g M_Brw_B_Def
v 0.058276862 0.05273773 0.081434876
v 0.057566643 0.052959137 0.082274415
v 0.05790262 0.05358856 0.08189043
v 0.055377286 0.054309692 0.08433011
v 0.055903204 0.054904938 0.08384127
v 0.053136624 0.055685423 0.08634599
v 0.05344819 0.056338195 0.08600907
v 0.050242193 0.057852324 0.08824686
v 0.050019555 0.05714035 0.088540316
v 0.046720356 0.05932434 0.0902288
v 0.046393536 0.05858322 0.09063613
v 0.04297294 0.06080246 0.091946565
v 0.042661194 0.05992752 0.09216858
v 0.039543193 0.061926574 0.09332518
v 0.03925623 0.06070755 0.093493566
v 0.036528155 0.06274567 0.09427776
v 0.036061745 0.061273344 0.09445516
v 0.033162687 0.06353485 0.09508409
v 0.033018935 0.061721496 0.095267
v 0.029307725 0.0642041 0.09594508
v 0.029150052 0.0619783 0.09611825
v 0.025701834 0.06451553 0.09664124
v 0.025469277 0.062114257 0.096869506
v 0.022123897 0.06459289 0.09727019
v 0.021910133 0.061979063 0.097416975
v 0.018801594 0.06432251 0.09767493
v 0.018752847 0.061867673 0.09787239
v 0.015318713 0.06309311 0.098134
v 0.015814824 0.061587065 0.09820289
v 0.013511613 0.06229553 0.09833932
v 0.0138642 0.061282042 0.09836971
v 0.0120689785 0.061518554 0.09847288
v 0.012363481 0.060826413 0.09851854
v 0.01118924 0.060949553 0.098613374
v 0.011438545 0.060458526 0.09865785
v 0.010846458 0.06052185 0.09869805
v -0.057566643 0.052959137 0.082274415
v -0.058276862 0.05273773 0.081434876
v -0.05790262 0.05358856 0.08189043
v -0.055377286 0.054309692 0.08433011
v -0.055903204 0.054904938 0.08384127
v -0.053136624 0.055685423 0.08634599
v -0.05344819 0.056338195 0.08600907
v -0.050242193 0.057852324 0.08824686
v -0.050019555 0.05714035 0.088540316
v -0.046720356 0.05932434 0.0902288
v -0.046393536 0.05858322 0.09063613
v -0.04297294 0.06080246 0.091946565
v -0.042661194 0.05992752 0.09216858
v -0.039543193 0.061926574 0.09332518
v -0.03925623 0.06070755 0.093493566
v -0.036528155 0.06274567 0.09427776
v -0.036061745 0.061273344 0.09445516
v -0.033162687 0.06353485 0.09508409
v -0.033018935 0.061721496 0.095267
v -0.029307725 0.0642041 0.09594508
v -0.029150052 0.0619783 0.09611825
v -0.025701834 0.06451553 0.09664124
v -0.025469277 0.062114257 0.096869506
v -0.022123897 0.06459289 0.09727019
v -0.021910133 0.061979063 0.097416975
v -0.018801594 0.06432251 0.09767493
v -0.018752847 0.061867673 0.09787239
v -0.015318713 0.06309311 0.098134
v -0.015814824 0.061587065 0.09820289
v -0.013511613 0.06229553 0.09833932
v -0.0138642 0.061282042 0.09836971
v -0.0120689785 0.061518554 0.09847288
v -0.012363481 0.060826413 0.09851854
v -0.01118924 0.060949553 0.098613374
v -0.011438545 0.060458526 0.09865785
v -0.010846458 0.06052185 0.09869805
vt 0.601754 0.884508
vt 0.597575 0.88581
vt 0.599552 0.88951397
vt 0.584693 0.893757
vt 0.587788 0.897258
vt 0.57151 0.9018511
vt 0.573343 0.905692
vt 0.55448 0.9146005
vt 0.55317 0.9104113
vt 0.533758 0.9232615
vt 0.531835 0.9189006
vt 0.511709 0.9319584
vt 0.509875 0.9268107
vt 0.49153 0.9385723
vt 0.489842 0.9313997
vt 0.47379 0.9433917
vt 0.471046 0.9347285
vt 0.454063 0.9480351
vt 0.453287 0.9373657
vt 0.432925 0.9519726
vt 0.432312 0.9388763
vt 0.41409 0.9538051
vt 0.413278 0.9396767
vt 0.395639 0.95426
vt 0.395047 0.9388813
vt 0.378375 0.9526693
vt 0.378646 0.9382254
vt 0.359998 0.9454359
vt 0.362967 0.9365746
vt 0.350129 0.9407431
vt 0.352235 0.93478
vt 0.342025 0.9361712
vt 0.343764 0.9320993
vt 0.336963 0.9328238
vt 0.338427 0.9299349
vt 0.334962 0.9303075
vt 0.597575 0.88581
vt 0.601754 0.884508
vt 0.599552 0.88951397
vt 0.584693 0.893757
vt 0.587788 0.897258
vt 0.57151 0.9018511
vt 0.573343 0.905692
vt 0.55448 0.9146005
vt 0.55317 0.9104113
vt 0.533758 0.9232615
vt 0.531835 0.9189006
vt 0.511709 0.9319584
vt 0.509875 0.9268107
vt 0.49153 0.9385723
vt 0.489842 0.9313997
vt 0.47379 0.9433917
vt 0.471046 0.9347285
vt 0.454063 0.9480351
vt 0.453287 0.9373657
vt 0.432925 0.9519726
vt 0.432312 0.9388763
vt 0.41409 0.9538051
vt 0.413278 0.9396767
vt 0.395639 0.95426
vt 0.395047 0.9388813
vt 0.378375 0.9526693
vt 0.378646 0.9382254
vt 0.359998 0.9454359
vt 0.362967 0.9365746
vt 0.350129 0.9407431
vt 0.352235 0.93478
vt 0.342025 0.9361712
vt 0.343764 0.9320993
vt 0.336963 0.9328238
vt 0.338427 0.9299349
vt 0.334962 0.9303075
vn 0.7618927 -0.0116151655 0.64759916
vn 0.71210116 0.04722458 0.7004868
vn 0.7155068 0.031413455 0.69789916
vn 0.6803654 0.007101075 0.7328387
vn 0.6855348 -0.0041756476 0.7280279
vn 0.6353582 0.09079528 0.76686126
vn 0.64511603 0.08406961 0.75944555
vn 0.5753023 0.1504296 0.80398893
vn 0.57178676 0.15623988 0.8053875
vn 0.5203919 0.2214394 0.82471615
vn 0.5064058 0.21771751 0.83435744
vn 0.40704897 0.09943177 0.9079782
vn 0.39749926 0.08266116 0.91387165
vn 0.345731 0.051912263 0.9368966
vn 0.3387479 0.04345718 0.9398731
vn 0.26918262 0.03468125 0.9624645
vn 0.26777548 0.038923092 0.9626948
vn 0.24262103 0.073884495 0.9673035
vn 0.24375561 0.0738781 0.9670187
vn 0.20763019 0.06366538 0.97613335
vn 0.20781988 0.063487634 0.9761046
vn 0.1874335 0.07299362 0.9795614
vn 0.18206692 0.06775246 0.9809491
vn 0.14020734 0.051112268 0.9888021
vn 0.1377235 0.050578408 0.9891784
vn 0.11823163 0.06912929 0.99057686
vn 0.12084788 0.07736055 0.989652
vn 0.09648567 0.07651749 0.9923888
vn 0.09614255 0.07595951 0.992465
vn 0.07344104 0.060156256 0.99548364
vn 0.07191672 0.05827703 0.9957066
vn 0.074707896 0.08432227 0.993634
vn 0.0775375 0.10120288 0.99183965
vn 0.08993207 0.123149924 0.98830473
vn 0.09098146 0.13554206 0.9865854
vn 0.0810776 0.13064861 0.988108
vn -0.71210116 0.047224578 0.7004868
vn -0.7618927 -0.0116151655 0.64759916
vn -0.7155068 0.031413462 0.69789916
vn -0.6803654 0.0071010836 0.7328387
vn -0.6855347 -0.0041756425 0.72802794
vn -0.63535815 0.0907953 0.76686126
vn -0.64511603 0.08406961 0.75944555
vn -0.5753025 0.15042952 0.8039888
vn -0.5717869 0.15623982 0.80538744
vn -0.52039206 0.22143933 0.82471615
vn -0.5064059 0.21771742 0.8343574
vn -0.40704897 0.09943176 0.9079782
vn -0.3974993 0.082661174 0.91387165
vn -0.34573078 0.05191227 0.9368966
vn -0.33874777 0.04345719 0.9398731
vn -0.26918262 0.034681253 0.9624645
vn -0.26777548 0.038923096 0.9626948
vn -0.24262097 0.073884495 0.9673035
vn -0.24375561 0.0738781 0.9670187
vn -0.20763022 0.06366538 0.97613335
vn -0.20781992 0.06348764 0.9761046
vn -0.18743347 0.07299361 0.9795614
vn -0.18206695 0.06775248 0.9809491
vn -0.14020737 0.05111228 0.9888021
vn -0.1377235 0.05057841 0.9891784
vn -0.11823164 0.06912928 0.99057686
vn -0.120847896 0.077360556 0.989652
vn -0.09648566 0.0765175 0.9923888
vn -0.096142545 0.075959496 0.992465
vn -0.07344104 0.060156252 0.99548364
vn -0.07191673 0.058276996 0.9957066
vn -0.07470791 0.08432222 0.993634
vn -0.07753756 0.10120295 0.99183965
vn -0.08993206 0.12314999 0.98830473
vn -0.09098147 0.13554206 0.9865854
vn -0.081077605 0.13064861 0.988108
g M_Brw_B_Def_0
f 3/3/3 2/2/2 1/1/1
f 3/3/3 4/4/4 2/2/2
f 3/3/3 5/5/5 4/4/4
f 6/6/6 4/4/4 5/5/5
f 6/6/6 5/5/5 7/7/7
f 6/6/6 7/7/7 8/8/8
f 6/6/6 8/8/8 9/9/9
f 8/8/8 10/10/10 9/9/9
f 9/9/9 10/10/10 11/11/11
f 12/12/12 11/11/11 10/10/10
f 13/13/13 11/11/11 12/12/12
f 12/12/12 14/14/14 13/13/13
f 13/13/13 14/14/14 15/15/15
f 14/14/14 16/16/16 15/15/15
f 15/15/15 16/16/16 17/17/17
f 18/18/18 17/17/17 16/16/16
f 19/19/19 17/17/17 18/18/18
f 18/18/18 20/20/20 19/19/19
f 21/21/21 19/19/19 20/20/20
f 20/20/20 22/22/22 21/21/21
f 23/23/23 21/21/21 22/22/22
f 22/22/22 24/24/24 23/23/23
f 25/25/25 23/23/23 24/24/24
f 24/24/24 26/26/26 25/25/25
f 27/27/27 25/25/25 26/26/26
f 26/26/26 28/28/28 27/27/27
f 29/29/29 27/27/27 28/28/28
f 28/28/28 30/30/30 29/29/29
f 29/29/29 30/30/30 31/31/31
f 30/30/30 32/32/32 31/31/31
f 31/31/31 32/32/32 33/33/33
f 34/34/34 33/33/33 32/32/32
f 35/35/35 33/33/33 34/34/34
f 36/36/36 35/35/35 34/34/34
f 39/39/39 38/38/38 37/37/37
f 39/39/39 37/37/37 40/40/40
f 39/39/39 40/40/40 41/41/41
f 42/42/42 41/41/41 40/40/40
f 42/42/42 43/43/43 41/41/41
f 42/42/42 44/44/44 43/43/43
f 42/42/42 45/45/45 44/44/44
f 44/44/44 45/45/45 46/46/46
f 45/45/45 47/47/47 46/46/46
f 48/48/48 46/46/46 47/47/47
f 49/49/49 48/48/48 47/47/47
f 48/48/48 49/49/49 50/50/50
f 49/49/49 51/51/51 50/50/50
f 50/50/50 51/51/51 52/52/52
f 51/51/51 53/53/53 52/52/52
f 54/54/54 52/52/52 53/53/53
f 55/55/55 54/54/54 53/53/53
f 54/54/54 55/55/55 56/56/56
f 57/57/57 56/56/56 55/55/55
f 56/56/56 57/57/57 58/58/58
f 59/59/59 58/58/58 57/57/57
f 58/58/58 59/59/59 60/60/60
f 61/61/61 60/60/60 59/59/59
f 60/60/60 61/61/61 62/62/62
f 63/63/63 62/62/62 61/61/61
f 62/62/62 63/63/63 64/64/64
f 65/65/65 64/64/64 63/63/63
f 64/64/64 65/65/65 66/66/66
f 65/65/65 67/67/67 66/66/66
f 66/66/66 67/67/67 68/68/68
f 67/67/67 69/69/69 68/68/68
f 70/70/70 68/68/68 69/69/69
f 71/71/71 70/70/70 69/69/69
f 72/72/72 70/70/70 71/71/71
