g M_Brw_B_Def
v 0.012001206 0.044675138 0.096994676
v 0.012518371 0.043802336 0.09668193
v 0.011335514 0.04362442 0.096644096
v 0.013566572 0.044318084 0.09669329
v 0.013030368 0.04560379 0.09714416
v 0.015042719 0.044951934 0.09657729
v 0.014437985 0.046793975 0.09733511
v 0.016418174 0.048196867 0.09750847
v 0.017217921 0.04588318 0.09661138
v 0.018988838 0.04963409 0.09769986
v 0.019754063 0.046893615 0.09647313
v 0.022428054 0.05133209 0.09749277
v 0.022919178 0.047955018 0.09629308
v 0.025553782 0.05187515 0.0971938
v 0.025901737 0.04883911 0.09603648
v 0.02938533 0.052438963 0.09687596
v 0.029716922 0.050001677 0.095743425
v 0.03402671 0.053117216 0.09605234
v 0.033980887 0.051317595 0.09524602
v 0.03841532 0.052714385 0.09476474
v 0.038228653 0.053814545 0.09513685
v 0.042126775 0.053879395 0.09392956
v 0.042146776 0.05464798 0.09419603
v 0.045298915 0.054726407 0.09287844
v 0.04504537 0.055394437 0.09297334
v 0.047864527 0.056048278 0.09180527
v 0.04801458 0.05553558 0.09166166
v 0.049682725 0.05639267 0.09096212
v 0.04982533 0.056072082 0.09086722
v 0.050566263 0.056432493 0.09056556
v -0.012518371 0.043802336 0.09668193
v -0.012001206 0.044675138 0.096994676
v -0.011335514 0.04362442 0.096644096
v -0.013566572 0.044318084 0.09669329
v -0.013030368 0.04560379 0.09714416
v -0.015042719 0.044951934 0.09657729
v -0.014437985 0.046793975 0.09733511
v -0.016418174 0.048196867 0.09750847
v -0.017217921 0.04588318 0.09661138
v -0.018988838 0.04963409 0.09769986
v -0.019754063 0.046893615 0.09647313
v -0.022428054 0.05133209 0.09749277
v -0.022919178 0.047955018 0.09629308
v -0.025553782 0.05187515 0.0971938
v -0.025901737 0.04883911 0.09603648
v -0.02938533 0.052438963 0.09687596
v -0.029716922 0.050001677 0.095743425
v -0.03402671 0.053117216 0.09605234
v -0.033980887 0.051317595 0.09524602
v -0.03841532 0.052714385 0.09476474
v -0.038228653 0.053814545 0.09513685
v -0.042126775 0.053879395 0.09392956
v -0.042146776 0.05464798 0.09419603
v -0.045298915 0.054726407 0.09287844
v -0.04504537 0.055394437 0.09297334
v -0.047864527 0.056048278 0.09180527
v -0.04801458 0.05553558 0.09166166
v -0.049682725 0.05639267 0.09096212
v -0.04982533 0.056072082 0.09086722
v -0.050566263 0.056432493 0.09056556
vt 0.385373 0.876683
vt 0.388828 0.871299
vt 0.381313 0.87014997
vt 0.395428 0.874537
vt 0.391774 0.882475
vt 0.404729 0.87852
vt 0.400511 0.889892
vt 0.412805 0.898629
vt 0.418355 0.884345
vt 0.428756 0.9075698
vt 0.434197 0.890653
vt 0.450078 0.918119
vt 0.453888 0.89725
vt 0.469544 0.9214843
vt 0.472369 0.9027182
vt 0.493318 0.9249462
vt 0.495878 0.9098693
vt 0.522051 0.9290896
vt 0.522051 0.9179388
vt 0.549121 0.9265305
vt 0.547963 0.9333633
vt 0.571831 0.9337603
vt 0.572058 0.938541
vt 0.591378 0.939071
vt 0.589949 0.943226
vt 0.607396 0.9473294
vt 0.608193 0.9441436
vt 0.618655 0.949493
vt 0.619452 0.947501
vt 0.624109 0.9497491
vt 0.388828 0.871299
vt 0.385373 0.876683
vt 0.381313 0.87014997
vt 0.395428 0.874537
vt 0.391774 0.882475
vt 0.404729 0.87852
vt 0.400511 0.889892
vt 0.412805 0.898629
vt 0.418355 0.884345
vt 0.428756 0.9075698
vt 0.434197 0.890653
vt 0.450078 0.918119
vt 0.453888 0.89725
vt 0.469544 0.9214843
vt 0.472369 0.9027182
vt 0.493318 0.9249462
vt 0.495878 0.9098693
vt 0.522051 0.9290896
vt 0.522051 0.9179388
vt 0.549121 0.9265305
vt 0.547963 0.9333633
vt 0.571831 0.9337603
vt 0.572058 0.938541
vt 0.591378 0.939071
vt 0.589949 0.943226
vt 0.607396 0.9473294
vt 0.608193 0.9441436
vt 0.618655 0.949493
vt 0.619452 0.947501
vt 0.624109 0.9497491
vn 0.08944047 -0.29419366 0.9515516
vn 0.079558216 -0.29414457 0.95244396
vn 0.019010438 -0.32726145 0.94474256
vn 0.15764567 -0.26581958 0.9510457
vn 0.1514533 -0.30020383 0.9417747
vn 0.14664258 -0.31836218 0.93655837
vn 0.15412699 -0.33221757 0.9305248
vn 0.120042615 -0.32551783 0.93788487
vn 0.14104806 -0.33310214 0.93228126
vn 0.20133854 -0.34428734 0.91702175
vn 0.19213322 -0.3403009 0.9204782
vn 0.16510463 -0.31928393 0.93316567
vn 0.1586248 -0.31536707 0.93561834
vn 0.14163935 -0.33163598 0.9327142
vn 0.16378899 -0.34586442 0.9238782
vn 0.18833624 -0.37800616 0.9064441
vn 0.20301436 -0.39140376 0.89754564
vn 0.22399414 -0.39355728 0.89159364
vn 0.22586504 -0.4031022 0.88684475
vn 0.25997785 -0.29791746 0.91850793
vn 0.26650116 -0.27042353 0.9251207
vn 0.31951836 -0.31020612 0.8953659
vn 0.33030638 -0.3008544 0.894642
vn 0.3857992 -0.02230087 0.9223133
vn 0.38305548 0.014176217 0.9236166
vn 0.43029568 -0.1069577 0.89632905
vn 0.43568027 -0.12082872 0.89195466
vn 0.42130667 -0.088425115 0.9025971
vn 0.41720852 -0.08234647 0.90507245
vn 0.41116747 -0.085736334 0.907519
vn -0.07955819 -0.2941446 0.95244396
vn -0.0894405 -0.29419366 0.9515516
vn -0.019010438 -0.32726145 0.94474256
vn -0.15764563 -0.26581958 0.9510457
vn -0.15145326 -0.30020386 0.9417746
vn -0.14664257 -0.31836215 0.93655825
vn -0.15412697 -0.3322175 0.9305248
vn -0.120042585 -0.3255178 0.93788487
vn -0.14104806 -0.3331021 0.9322814
vn -0.20133854 -0.34428737 0.91702175
vn -0.19213326 -0.3403009 0.9204782
vn -0.16510464 -0.31928396 0.93316567
vn -0.1586248 -0.31536707 0.93561834
vn -0.14163934 -0.33163592 0.9327142
vn -0.16378897 -0.3458644 0.9238782
vn -0.18833625 -0.37800613 0.906444
vn -0.2030144 -0.39140376 0.89754564
vn -0.22399414 -0.3935573 0.89159364
vn -0.22586499 -0.4031022 0.88684475
vn -0.25997788 -0.29791743 0.91850793
vn -0.2665012 -0.27042353 0.9251207
vn -0.3195185 -0.31020606 0.8953659
vn -0.3303065 -0.30085436 0.894642
vn -0.38579917 -0.022300947 0.9223133
vn -0.3830554 0.014176217 0.9236166
vn -0.43029562 -0.106957644 0.89632905
vn -0.43568027 -0.1208287 0.89195466
vn -0.42130664 -0.08842502 0.9025971
vn -0.41720852 -0.08234647 0.90507245
vn -0.41116744 -0.08573633 0.907519
g M_Brw_B_Def_0
f 3/3/3 2/2/2 1/1/1
f 2/2/2 4/4/4 1/1/1
f 1/1/1 4/4/4 5/5/5
f 6/6/6 5/5/5 4/4/4
f 7/7/7 5/5/5 6/6/6
f 6/6/6 8/8/8 7/7/7
f 6/6/6 9/9/9 8/8/8
f 10/10/10 8/8/8 9/9/9
f 10/10/10 9/9/9 11/11/11
f 11/11/11 12/12/12 10/10/10
f 11/11/11 13/13/13 12/12/12
f 13/13/13 14/14/14 12/12/12
f 13/13/13 15/15/15 14/14/14
f 16/16/16 14/14/14 15/15/15
f 16/16/16 15/15/15 17/17/17
f 16/16/16 17/17/17 18/18/18
f 18/18/18 17/17/17 19/19/19
f 19/19/19 20/20/20 18/18/18
f 18/18/18 20/20/20 21/21/21
f 22/22/22 21/21/21 20/20/20
f 23/23/23 21/21/21 22/22/22
f 22/22/22 24/24/24 23/23/23
f 25/25/25 23/23/23 24/24/24
f 24/24/24 26/26/26 25/25/25
f 24/24/24 27/27/27 26/26/26
f 28/28/28 26/26/26 27/27/27
f 28/28/28 27/27/27 29/29/29
f 28/28/28 29/29/29 30/30/30
f 33/33/33 32/32/32 31/31/31
f 31/31/31 32/32/32 34/34/34
f 32/32/32 35/35/35 34/34/34
f 36/36/36 34/34/34 35/35/35
f 37/37/37 36/36/36 35/35/35
f 36/36/36 37/37/37 38/38/38
f 36/36/36 38/38/38 39/39/39
f 40/40/40 39/39/39 38/38/38
f 40/40/40 41/41/41 39/39/39
f 41/41/41 40/40/40 42/42/42
f 41/41/41 42/42/42 43/43/43
f 43/43/43 42/42/42 44/44/44
f 43/43/43 44/44/44 45/45/45
f 46/46/46 45/45/45 44/44/44
f 46/46/46 47/47/47 45/45/45
f 46/46/46 48/48/48 47/47/47
f 48/48/48 49/49/49 47/47/47
f 49/49/49 48/48/48 50/50/50
f 48/48/48 51/51/51 50/50/50
f 52/52/52 50/50/50 51/51/51
f 53/53/53 52/52/52 51/51/51
f 52/52/52 53/53/53 54/54/54
f 55/55/55 54/54/54 53/53/53
f 54/54/54 55/55/55 56/56/56
f 54/54/54 56/56/56 57/57/57
f 58/58/58 57/57/57 56/56/56
f 58/58/58 59/59/59 57/57/57
f 58/58/58 60/60/60 59/59/59
