g M_Brw_B_Def
v 0.011134366 0.04406845 0.09789304
v 0.011583042 0.043457337 0.09761759
v 0.011115036 0.04348755 0.09767572
v 0.011767198 0.044859465 0.098180905
v 0.012455253 0.043825988 0.09763106
v 0.012803981 0.046101682 0.09846861
v 0.013648949 0.04429428 0.097593114
v 0.013743989 0.047140196 0.0987393
v 0.014652594 0.04463974 0.09757155
v 0.015977195 0.047883756 0.098668434
v 0.01691965 0.04547821 0.097498946
v 0.019091567 0.04872665 0.09850124
v 0.0197274 0.046455383 0.09740628
v 0.021934982 0.04955597 0.09827564
v 0.022663655 0.047388457 0.09724871
v 0.025209524 0.050428007 0.09793799
v 0.02583052 0.04842636 0.097038746
v 0.028523745 0.051281128 0.097524434
v 0.028853616 0.049275056 0.09674585
v 0.03171458 0.051997222 0.09691797
v 0.031986162 0.050060272 0.096292734
v 0.036609903 0.05135864 0.09548601
v 0.036168657 0.052939147 0.09607049
v 0.040631678 0.05386459 0.09484445
v 0.040941384 0.052665252 0.09420192
v 0.044772856 0.05359207 0.09294583
v 0.04443958 0.054552305 0.09351683
v 0.048034634 0.054344483 0.091611385
v 0.047808416 0.05517151 0.09198884
v 0.051073596 0.05489685 0.0901313
v 0.051028974 0.05556198 0.09031174
v 0.053715304 0.055185545 0.08869473
v 0.05374854 0.055851594 0.08876724
v 0.05633004 0.055457 0.08705292
v 0.05630719 0.056051023 0.08722055
v 0.058604132 0.055590972 0.08545516
v 0.058546513 0.05613449 0.08560734
v 0.059132755 0.055840604 0.08510182
v -0.011583042 0.043457337 0.09761759
v -0.011134366 0.04406845 0.09789304
v -0.011115036 0.04348755 0.09767572
v -0.011767198 0.044859465 0.098180905
v -0.012455253 0.043825988 0.09763106
v -0.012803981 0.046101682 0.09846861
v -0.013648949 0.04429428 0.097593114
v -0.013743989 0.047140196 0.0987393
v -0.014652594 0.04463974 0.09757155
v -0.015977195 0.047883756 0.098668434
v -0.01691965 0.04547821 0.097498946
v -0.019091567 0.04872665 0.09850124
v -0.0197274 0.046455383 0.09740628
v -0.021934982 0.04955597 0.09827564
v -0.022663655 0.047388457 0.09724871
v -0.025209524 0.050428007 0.09793799
v -0.02583052 0.04842636 0.097038746
v -0.028523745 0.051281128 0.097524434
v -0.028853616 0.049275056 0.09674585
v -0.03171458 0.051997222 0.09691797
v -0.031986162 0.050060272 0.096292734
v -0.036609903 0.05135864 0.09548601
v -0.036168657 0.052939147 0.09607049
v -0.040631678 0.05386459 0.09484445
v -0.040941384 0.052665252 0.09420192
v -0.044772856 0.05359207 0.09294583
v -0.04443958 0.054552305 0.09351683
v -0.048034634 0.054344483 0.091611385
v -0.047808416 0.05517151 0.09198884
v -0.051073596 0.05489685 0.0901313
v -0.051028974 0.05556198 0.09031174
v -0.053715304 0.055185545 0.08869473
v -0.05374854 0.055851594 0.08876724
v -0.05633004 0.055457 0.08705292
v -0.05630719 0.056051023 0.08722055
v -0.058604132 0.055590972 0.08545516
v -0.058546513 0.05613449 0.08560734
v -0.059132755 0.055840604 0.08510182
vt 0.295971 0.889801
vt 0.298732 0.88604
vt 0.295852 0.886226
vt 0.299866 0.894668
vt 0.3041 0.888309
vt 0.306246 0.9023118
vt 0.311445 0.89119
vt 0.31203 0.9087026
vt 0.317621 0.89331603
vt 0.325772 0.9132781
vt 0.331572 0.898475
vt 0.344937 0.9184652
vt 0.34885 0.9044883
vt 0.362434 0.9235686
vt 0.366918 0.9102304
vt 0.382584 0.9289345
vt 0.386406 0.916617
vt 0.402979 0.93418443
vt 0.405008 0.92183983
vt 0.422614 0.9385911
vt 0.424285 0.9266721
vt 0.452738 0.9346615
vt 0.450022 0.9443868
vt 0.477035 0.9505502
vt 0.479392 0.9427017
vt 0.502969 0.9484051
vt 0.500918 0.9543139
vt 0.522279 0.9531466
vt 0.521655 0.9583308
vt 0.541741 0.9564339
vt 0.542173 0.9606231
vt 0.558202 0.958232
vt 0.558202 0.962309
vt 0.574512 0.9599193
vt 0.574371 0.963575
vt 0.588814 0.9607762
vt 0.588533 0.9641508
vt 0.59279 0.962309
vt 0.298732 0.88604
vt 0.295971 0.889801
vt 0.295852 0.886226
vt 0.299866 0.894668
vt 0.3041 0.888309
vt 0.306246 0.9023118
vt 0.311445 0.89119
vt 0.31203 0.9087026
vt 0.317621 0.89331603
vt 0.325772 0.9132781
vt 0.331572 0.898475
vt 0.344937 0.9184652
vt 0.34885 0.9044883
vt 0.362434 0.9235686
vt 0.366918 0.9102304
vt 0.382584 0.9289345
vt 0.386406 0.916617
vt 0.402979 0.93418443
vt 0.405008 0.92183983
vt 0.422614 0.9385911
vt 0.424285 0.9266721
vt 0.452738 0.9346615
vt 0.450022 0.9443868
vt 0.477035 0.9505502
vt 0.479392 0.9427017
vt 0.502969 0.9484051
vt 0.500918 0.9543139
vt 0.522279 0.9531466
vt 0.521655 0.9583308
vt 0.541741 0.9564339
vt 0.542173 0.9606231
vt 0.558202 0.958232
vt 0.558202 0.962309
vt 0.574512 0.9599193
vt 0.574371 0.963575
vt 0.588814 0.9607762
vt 0.588533 0.9641508
vt 0.59279 0.962309
vn 0.056656152 -0.37539765 0.9251306
vn 0.11726246 -0.3799542 0.9175426
vn 0.09301191 -0.3515815 0.93152523
vn 0.16716003 -0.36888036 0.9143221
vn 0.16776933 -0.3698324 0.9138257
vn 0.15802059 -0.37049162 0.9152953
vn 0.15900415 -0.36903223 0.91571444
vn 0.15200958 -0.37238958 0.91554314
vn 0.15757535 -0.37440333 0.9137791
vn 0.15590683 -0.37900248 0.9121679
vn 0.1624345 -0.38196573 0.9097896
vn 0.170683 -0.38564327 0.90672296
vn 0.17121676 -0.3854457 0.9067064
vn 0.1833408 -0.37323466 0.90944046
vn 0.1779276 -0.36908272 0.912206
vn 0.19312935 -0.3550047 0.9146981
vn 0.18740521 -0.34933472 0.9180657
vn 0.21863343 -0.32655334 0.9195446
vn 0.20664017 -0.316092 0.92595124
vn 0.2307109 -0.278599 0.9322849
vn 0.22405581 -0.27078626 0.9362018
vn 0.27554208 -0.273357 0.92160326
vn 0.2679003 -0.26748827 0.92556983
vn 0.3568872 -0.34862772 0.8666547
vn 0.36629018 -0.364155 0.8562842
vn 0.39653233 -0.36184266 0.8437015
vn 0.38727668 -0.36425805 0.84695506
vn 0.44886258 -0.27439463 0.8504293
vn 0.4475273 -0.26460925 0.8542256
vn 0.4766552 -0.20611282 0.85458606
vn 0.47825146 -0.19518419 0.8562585
vn 0.51650494 -0.123674184 0.8473059
vn 0.51805127 -0.12352124 0.8463837
vn 0.54680586 -0.200685 0.81285226
vn 0.5415276 -0.20692502 0.8148189
vn 0.5832608 -0.16614798 0.7951112
vn 0.58293945 -0.16119713 0.79636496
vn 0.59885526 -0.1564444 0.7854283
vn -0.11726249 -0.3799542 0.9175426
vn -0.056656145 -0.37539762 0.9251306
vn -0.0930119 -0.35158154 0.93152523
vn -0.16716002 -0.36888036 0.9143221
vn -0.16776934 -0.36983246 0.9138257
vn -0.15802057 -0.37049153 0.9152953
vn -0.15900415 -0.36903223 0.91571444
vn -0.15200958 -0.37238958 0.915543
vn -0.15757534 -0.37440333 0.91377896
vn -0.15590683 -0.37900248 0.9121679
vn -0.16243449 -0.3819657 0.9097896
vn -0.17068301 -0.38564327 0.90672296
vn -0.17121676 -0.38544574 0.9067064
vn -0.1833408 -0.3732347 0.9094406
vn -0.1779276 -0.36908272 0.912206
vn -0.19312933 -0.35500467 0.9146981
vn -0.1874052 -0.34933472 0.9180656
vn -0.21863346 -0.32655334 0.9195446
vn -0.20664017 -0.316092 0.92595124
vn -0.23071092 -0.278599 0.9322849
vn -0.22405581 -0.27078626 0.9362018
vn -0.27554208 -0.27335703 0.92160326
vn -0.26790026 -0.26748827 0.92556983
vn -0.3568871 -0.34862772 0.8666547
vn -0.36629012 -0.36415493 0.8562842
vn -0.39653236 -0.36184266 0.8437015
vn -0.38727665 -0.36425802 0.84695506
vn -0.44886264 -0.27439463 0.8504293
vn -0.4475273 -0.26460925 0.8542256
vn -0.4766552 -0.20611283 0.85458606
vn -0.47825146 -0.19518417 0.8562585
vn -0.5165049 -0.12367419 0.847306
vn -0.5180512 -0.12352123 0.8463837
vn -0.54680586 -0.20068502 0.81285226
vn -0.5415276 -0.20692502 0.8148189
vn -0.5832607 -0.16614799 0.79511106
vn -0.58293945 -0.16119714 0.79636496
vn -0.5988552 -0.15644442 0.7854283
g M_Brw_B_Def_0
f 3/3/3 2/2/2 1/1/1
f 2/2/2 4/4/4 1/1/1
f 2/2/2 5/5/5 4/4/4
f 5/5/5 6/6/6 4/4/4
f 5/5/5 7/7/7 6/6/6
f 8/8/8 6/6/6 7/7/7
f 8/8/8 7/7/7 9/9/9
f 9/9/9 10/10/10 8/8/8
f 9/9/9 11/11/11 10/10/10
f 12/12/12 10/10/10 11/11/11
f 12/12/12 11/11/11 13/13/13
f 12/12/12 13/13/13 14/14/14
f 15/15/15 14/14/14 13/13/13
f 14/14/14 15/15/15 16/16/16
f 17/17/17 16/16/16 15/15/15
f 17/17/17 18/18/18 16/16/16
f 17/17/17 19/19/19 18/18/18
f 20/20/20 18/18/18 19/19/19
f 20/20/20 19/19/19 21/21/21
f 22/22/22 20/20/20 21/21/21
f 22/22/22 23/23/23 20/20/20
f 24/24/24 23/23/23 22/22/22
f 25/25/25 24/24/24 22/22/22
f 25/25/25 26/26/26 24/24/24
f 24/24/24 26/26/26 27/27/27
f 28/28/28 27/27/27 26/26/26
f 29/29/29 27/27/27 28/28/28
f 28/28/28 30/30/30 29/29/29
f 29/29/29 30/30/30 31/31/31
f 32/32/32 31/31/31 30/30/30
f 33/33/33 31/31/31 32/32/32
f 32/32/32 34/34/34 33/33/33
f 33/33/33 34/34/34 35/35/35
f 36/36/36 35/35/35 34/34/34
f 37/37/37 35/35/35 36/36/36
f 38/38/38 37/37/37 36/36/36
f 41/41/41 40/40/40 39/39/39
f 39/39/39 40/40/40 42/42/42
f 39/39/39 42/42/42 43/43/43
f 43/43/43 42/42/42 44/44/44
f 43/43/43 44/44/44 45/45/45
f 46/46/46 45/45/45 44/44/44
f 46/46/46 47/47/47 45/45/45
f 47/47/47 46/46/46 48/48/48
f 47/47/47 48/48/48 49/49/49
f 50/50/50 49/49/49 48/48/48
f 50/50/50 51/51/51 49/49/49
f 50/50/50 52/52/52 51/51/51
f 53/53/53 51/51/51 52/52/52
f 52/52/52 54/54/54 53/53/53
f 55/55/55 53/53/53 54/54/54
f 55/55/55 54/54/54 56/56/56
f 55/55/55 56/56/56 57/57/57
f 58/58/58 57/57/57 56/56/56
f 58/58/58 59/59/59 57/57/57
f 60/60/60 59/59/59 58/58/58
f 60/60/60 58/58/58 61/61/61
f 62/62/62 60/60/60 61/61/61
f 63/63/63 60/60/60 62/62/62
f 63/63/63 62/62/62 64/64/64
f 62/62/62 65/65/65 64/64/64
f 66/66/66 64/64/64 65/65/65
f 67/67/67 66/66/66 65/65/65
f 66/66/66 67/67/67 68/68/68
f 67/67/67 69/69/69 68/68/68
f 70/70/70 68/68/68 69/69/69
f 71/71/71 70/70/70 69/69/69
f 70/70/70 71/71/71 72/72/72
f 71/71/71 73/73/73 72/72/72
f 74/74/74 72/72/72 73/73/73
f 75/75/75 74/74/74 73/73/73
f 76/76/76 74/74/74 75/75/75
