g M_Brw_B_Def
v 0.059975136 0.04712982 0.08560093
v 0.06275551 0.0463443 0.08256692
v 0.05978392 0.046614684 0.08541241
v 0.05593631 0.04774963 0.088234216
v 0.055834524 0.04710327 0.0880803
v 0.051431865 0.048356473 0.09051174
v 0.05134156 0.04774368 0.090152405
v 0.046882838 0.04869583 0.092386015
v 0.046888787 0.048094176 0.09197525
v 0.041742228 0.0488829 0.094102256
v 0.041659568 0.04826492 0.09369299
v 0.03646417 0.049002532 0.095389895
v 0.036404517 0.04823242 0.09486285
v 0.03121588 0.048788756 0.096450076
v 0.031275366 0.04789215 0.095907256
v 0.027148828 0.04836807 0.0970922
v 0.027238868 0.04717468 0.09645766
v 0.02338438 0.047874603 0.09766058
v 0.023644995 0.04615631 0.09699379
v 0.020540979 0.045214385 0.09728358
v 0.01950724 0.047206115 0.09821451
v 0.01899187 0.044815827 0.09746579
v 0.017193636 0.046606444 0.09846494
v 0.017602127 0.044182435 0.0976527
v 0.015154111 0.045831144 0.09860807
v 0.015400623 0.044153288 0.09785487
v 0.013135537 0.04476181 0.09845248
v 0.013572223 0.043818206 0.097958244
v 0.0111339325 0.043366544 0.0981258
v -0.06275551 0.0463443 0.08256692
v -0.059975136 0.04712982 0.08560093
v -0.05978392 0.046614684 0.08541241
v -0.05593631 0.04774963 0.088234216
v -0.055834524 0.04710327 0.0880803
v -0.051431865 0.048356473 0.09051174
v -0.05134156 0.04774368 0.090152405
v -0.046882838 0.04869583 0.092386015
v -0.046888787 0.048094176 0.09197525
v -0.041742228 0.0488829 0.094102256
v -0.041659568 0.04826492 0.09369299
v -0.03646417 0.049002532 0.095389895
v -0.036404517 0.04823242 0.09486285
v -0.03121588 0.048788756 0.096450076
v -0.031275366 0.04789215 0.095907256
v -0.027148828 0.04836807 0.0970922
v -0.027238868 0.04717468 0.09645766
v -0.02338438 0.047874603 0.09766058
v -0.023644995 0.04615631 0.09699379
v -0.020540979 0.045214385 0.09728358
v -0.01950724 0.047206115 0.09821451
v -0.01899187 0.044815827 0.09746579
v -0.017193636 0.046606444 0.09846494
v -0.017602127 0.044182435 0.0976527
v -0.015154111 0.045831144 0.09860807
v -0.015400623 0.044153288 0.09785487
v -0.013135537 0.04476181 0.09845248
v -0.013572223 0.043818206 0.097958244
v -0.0111339325 0.043366544 0.0981258
vt 0.622498 0.948406
vt 0.637069 0.9437471
vt 0.621738 0.9453313
vt 0.599752 0.9521663
vt 0.599494 0.9483049
vt 0.570858 0.9560394
vt 0.570464 0.9523748
vt 0.53873 0.9583037
vt 0.539075 0.9547019
vt 0.500406 0.9596103
vt 0.500039 0.9559192
vt 0.463913 0.9604187
vt 0.463603 0.9558236
vt 0.432514 0.9591896
vt 0.432869 0.9538397
vt 0.408281 0.9567478
vt 0.408818 0.9496269
vt 0.385829 0.9537914
vt 0.38734 0.9434821
vt 0.368818 0.9378618
vt 0.36265 0.9497462
vt 0.359575 0.9354836
vt 0.348845 0.946168
vt 0.351283 0.9317042
vt 0.336675 0.9415419
vt 0.338146 0.9315303
vt 0.324631 0.9351613
vt 0.327237 0.929531
vt 0.312688 0.9268359
vt 0.637069 0.9437471
vt 0.622498 0.948406
vt 0.621738 0.9453313
vt 0.599752 0.9521663
vt 0.599494 0.9483049
vt 0.570858 0.9560394
vt 0.570464 0.9523748
vt 0.53873 0.9583037
vt 0.539075 0.9547019
vt 0.500406 0.9596103
vt 0.500039 0.9559192
vt 0.463913 0.9604187
vt 0.463603 0.9558236
vt 0.432514 0.9591896
vt 0.432869 0.9538397
vt 0.408281 0.9567478
vt 0.408818 0.9496269
vt 0.385829 0.9537914
vt 0.38734 0.9434821
vt 0.368818 0.9378618
vt 0.36265 0.9497462
vt 0.359575 0.9354836
vt 0.348845 0.946168
vt 0.351283 0.9317042
vt 0.336675 0.9415419
vt 0.338146 0.9315303
vt 0.324631 0.9351613
vt 0.327237 0.929531
vt 0.312688 0.9268359
vn 0.5061456 -0.45581073 0.7321566
vn 0.5912918 -0.46151105 0.6613483
vn 0.51620704 -0.44756594 0.7302157
vn 0.45290834 -0.27928355 0.8466846
vn 0.4579934 -0.2852249 0.8419553
vn 0.2999608 -0.5060178 0.8086838
vn 0.29507294 -0.5162646 0.80399173
vn 0.26168326 -0.5415018 0.79893535
vn 0.26634282 -0.54228485 0.7968618
vn 0.21251701 -0.5586335 0.80172634
vn 0.21407168 -0.5594321 0.80075526
vn 0.18416576 -0.5646136 0.8045461
vn 0.18531911 -0.5604885 0.8071614
vn 0.19443989 -0.5023908 0.8424943
vn 0.19753829 -0.49278823 0.84743047
vn 0.1937669 -0.45237646 0.87052274
vn 0.20149241 -0.42659122 0.8817147
vn 0.20371728 -0.33803302 0.9188215
vn 0.208015 -0.32627508 0.9221032
vn 0.19013226 -0.33236727 0.92378664
vn 0.188764 -0.33197764 0.92420727
vn 0.20853609 -0.3111431 0.9272015
vn 0.18942797 -0.30007097 0.9349195
vn 0.18946873 -0.30333215 0.9338583
vn 0.1408199 -0.3504666 0.9259281
vn 0.108803496 -0.39559707 0.9119566
vn 0.13485825 -0.4024638 0.90544796
vn 0.13214311 -0.41123426 0.9019006
vn 0.13771878 -0.4087988 0.9021735
vn -0.5912917 -0.46151102 0.6613484
vn -0.5061454 -0.45581067 0.7321567
vn -0.5162069 -0.44756603 0.73021585
vn -0.45290837 -0.27928358 0.8466845
vn -0.4579934 -0.285225 0.8419553
vn -0.2999608 -0.5060178 0.8086838
vn -0.29507294 -0.5162647 0.8039917
vn -0.2616831 -0.5415018 0.79893535
vn -0.2663428 -0.54228485 0.7968617
vn -0.21251693 -0.55863357 0.80172634
vn -0.21407157 -0.5594321 0.80075526
vn -0.18416576 -0.56461364 0.8045461
vn -0.18531911 -0.5604886 0.80716133
vn -0.19443992 -0.50239074 0.8424943
vn -0.19753833 -0.49278823 0.8474305
vn -0.19376694 -0.4523765 0.87052274
vn -0.20149241 -0.4265912 0.8817147
vn -0.20371726 -0.33803302 0.9188215
vn -0.20801501 -0.32627508 0.9221032
vn -0.19013229 -0.33236724 0.92378664
vn -0.18876398 -0.3319776 0.92420715
vn -0.20853607 -0.3111431 0.9272015
vn -0.18942797 -0.30007097 0.9349195
vn -0.18946873 -0.30333218 0.9338583
vn -0.14081994 -0.3504666 0.9259281
vn -0.108803496 -0.39559704 0.9119566
vn -0.13485825 -0.40246382 0.90544796
vn -0.13214311 -0.41123426 0.9019006
vn -0.13771878 -0.4087988 0.9021735
g M_Brw_B_Def_0
f 3/3/3 2/2/2 1/1/1
f 1/1/1 4/4/4 3/3/3
f 3/3/3 4/4/4 5/5/5
f 6/6/6 5/5/5 4/4/4
f 7/7/7 5/5/5 6/6/6
f 6/6/6 8/8/8 7/7/7
f 9/9/9 7/7/7 8/8/8
f 8/8/8 10/10/10 9/9/9
f 11/11/11 9/9/9 10/10/10
f 10/10/10 12/12/12 11/11/11
f 13/13/13 11/11/11 12/12/12
f 14/14/14 13/13/13 12/12/12
f 14/14/14 15/15/15 13/13/13
f 14/14/14 16/16/16 15/15/15
f 15/15/15 16/16/16 17/17/17
f 18/18/18 17/17/17 16/16/16
f 19/19/19 17/17/17 18/18/18
f 19/19/19 18/18/18 20/20/20
f 21/21/21 20/20/20 18/18/18
f 21/21/21 22/22/22 20/20/20
f 21/21/21 23/23/23 22/22/22
f 24/24/24 22/22/22 23/23/23
f 24/24/24 23/23/23 25/25/25
f 25/25/25 26/26/26 24/24/24
f 25/25/25 27/27/27 26/26/26
f 27/27/27 28/28/28 26/26/26
f 29/29/29 28/28/28 27/27/27
f 32/32/32 31/31/31 30/30/30
f 31/31/31 32/32/32 33/33/33
f 32/32/32 34/34/34 33/33/33
f 35/35/35 33/33/33 34/34/34
f 36/36/36 35/35/35 34/34/34
f 35/35/35 36/36/36 37/37/37
f 38/38/38 37/37/37 36/36/36
f 37/37/37 38/38/38 39/39/39
f 40/40/40 39/39/39 38/38/38
f 39/39/39 40/40/40 41/41/41
f 42/42/42 41/41/41 40/40/40
f 43/43/43 41/41/41 42/42/42
f 43/43/43 42/42/42 44/44/44
f 43/43/43 44/44/44 45/45/45
f 44/44/44 46/46/46 45/45/45
f 47/47/47 45/45/45 46/46/46
f 48/48/48 47/47/47 46/46/46
f 48/48/48 49/49/49 47/47/47
f 50/50/50 47/47/47 49/49/49
f 50/50/50 49/49/49 51/51/51
f 50/50/50 51/51/51 52/52/52
f 53/53/53 52/52/52 51/51/51
f 53/53/53 54/54/54 52/52/52
f 54/54/54 53/53/53 55/55/55
f 54/54/54 55/55/55 56/56/56
f 56/56/56 55/55/55 57/57/57
f 58/58/58 56/56/56 57/57/57
