g M_Devil_R
v -0.002907912 0.0006170654 -0.0013912487
v -0.0005039662 -0.0020745848 -0.0024220943
v -0.0015687054 0.001009674 -0.0027825069
v -0.002907912 0.0006170654 -0.0013912487
v -8.307159E-05 0.00024093628 -5.1336287E-05
v -0.0005039662 -0.0020745848 -0.0024220943
v 0.00042551217 0.00061935425 -0.0013856983
v -0.0005039662 -0.0020745848 -0.0024220943
v -8.307159E-05 0.00024093628 -5.1336287E-05
v 0.00042551217 0.00061935425 -0.0013856983
v -0.0015687054 0.001009674 -0.0027825069
v -0.0005039662 -0.0020745848 -0.0024220943
vt 0.970006 0.764449
vt 0.955097 0.763818
vt 0.970725 0.756633
vt 0.970006 0.764449
vt 0.970014 0.773465
vt 0.955097 0.763818
vt 0.970394 0.764466
vt 0.955097 0.763818
vt 0.970014 0.773465
vt 0.970394 0.764466
vt 0.970725 0.756633
vt 0.955097 0.763818
vn -0.64207524 -0.30389887 -0.7038357
vn -0.64207524 -0.3038989 -0.7038357
vn -0.64207524 -0.30389884 -0.7038357
vn -0.40254104 -0.618081 0.6752308
vn -0.40254104 -0.61808085 0.6752308
vn -0.402541 -0.6180809 0.6752308
vn 0.89026195 -0.39464673 0.22734894
vn 0.89026195 -0.3946467 0.22734897
vn 0.890262 -0.39464673 0.22734894
vn 0.5844276 0.10777104 -0.80425733
vn 0.5844276 0.10777104 -0.80425733
vn 0.58442765 0.10777104 -0.80425733
g M_Devil_R_0
f 3/3/3 2/2/2 1/1/1
f 6/6/6 5/5/5 4/4/4
f 9/9/9 8/8/8 7/7/7
f 12/12/12 11/11/11 10/10/10
