g M_Devil_R
v -0.003708964 0.0006951904 -0.001692195
v -0.000674749 -0.0025889587 -0.0029103516
v -0.0020233542 0.0011836243 -0.0034123182
v -0.003708964 0.0006951904 -0.001692195
v -0.00010918677 0.00023376464 -8.57687E-05
v -0.000674749 -0.0025889587 -0.0029103516
v 0.00054772315 0.00074905396 -0.0017209386
v -0.000674749 -0.0025889587 -0.0029103516
v -0.00010918677 0.00023376464 -8.57687E-05
v 0.00054772315 0.00074905396 -0.0017209386
v -0.0020233542 0.0011836243 -0.0034123182
v -0.000674749 -0.0025889587 -0.0029103516
vt 0.970006 0.764449
vt 0.955097 0.763818
vt 0.970725 0.756633
vt 0.970006 0.764449
vt 0.970014 0.773465
vt 0.955097 0.763818
vt 0.970394 0.764466
vt 0.955097 0.763818
vt 0.970014 0.773465
vt 0.970394 0.764466
vt 0.970725 0.756633
vt 0.955097 0.763818
vn -0.62989116 -0.31936592 -0.7079848
vn -0.6298913 -0.31936592 -0.7079848
vn -0.6298912 -0.3193659 -0.7079848
vn -0.3862297 -0.61259675 0.68960273
vn -0.38622972 -0.61259675 0.68960273
vn -0.3862297 -0.61259675 0.68960273
vn 0.8852823 -0.4054178 0.2278418
vn 0.8852823 -0.4054177 0.22784176
vn 0.8852823 -0.40541774 0.2278418
vn 0.5579191 0.089662716 -0.82503754
vn 0.5579191 0.08966271 -0.8250375
vn 0.5579192 0.089662716 -0.8250375
g M_Devil_R_0
f 3/3/3 2/2/2 1/1/1
f 6/6/6 5/5/5 4/4/4
f 9/9/9 8/8/8 7/7/7
f 12/12/12 11/11/11 10/10/10
