g M_Devil_L
v 0.0007166666 -0.0023576354 -0.0030301332
v 0.0032696335 0.000690155 -0.0014526796
v 0.0018269342 0.0011262512 -0.0028369187
v 0.000231418 0.00025146484 -0.00017181873
v 0.0032696335 0.000690155 -0.0014526796
v 0.0007166666 -0.0023576354 -0.0030301332
v 0.0007166666 -0.0023576354 -0.0030301332
v -0.00043335496 0.00064041134 -0.0014271593
v 0.000231418 0.00025146484 -0.00017181873
v 0.0018269342 0.0011262512 -0.0028369187
v -0.00043335496 0.00064041134 -0.0014271593
v 0.0007166666 -0.0023576354 -0.0030301332
vt 0.955097 0.763818
vt 0.970006 0.764449
vt 0.970725 0.756633
vt 0.970014 0.773465
vt 0.970006 0.764449
vt 0.955097 0.763818
vt 0.955097 0.763818
vt 0.970394 0.764466
vt 0.970014 0.773465
vt 0.970725 0.756633
vt 0.970394 0.764466
vt 0.955097 0.763818
vn 0.65553755 -0.1680833 -0.7362191
vn 0.65553755 -0.1680833 -0.7362191
vn 0.65553755 -0.16808327 -0.7362191
vn 0.37228388 -0.65311545 0.65942776
vn 0.37228394 -0.65311545 0.65942776
vn 0.37228397 -0.6531154 0.6594278
vn -0.8300835 -0.47478774 0.29246864
vn -0.8300836 -0.4747878 0.29246864
vn -0.8300836 -0.4747878 0.29246864
vn -0.5498636 0.21992372 -0.8057813
vn -0.5498636 0.21992372 -0.8057813
vn -0.5498636 0.21992372 -0.8057813
g M_Devil_L_0
f 3/3/3 2/2/2 1/1/1
f 6/6/6 5/5/5 4/4/4
f 9/9/9 8/8/8 7/7/7
f 12/12/12 11/11/11 10/10/10
