g M_Devil_L
v -6.0601233E-05 0.000329895 -0.0001225376
v 0.0022016715 0.0010273743 -0.003098092
v -0.0008855557 -0.0021820068 -0.0029725598
v -0.0008855557 -0.0021820068 -0.0029725598
v -0.0024507057 0.0005053711 -0.0013691711
v -6.0601233E-05 0.000329895 -0.0001225376
v 0.0022016715 0.0010273743 -0.003098092
v -0.0006094706 0.0013240051 -0.004346366
v -0.0008855557 -0.0021820068 -0.0029725598
v -0.0008855557 -0.0021820068 -0.0029725598
v -0.0006094706 0.0013240051 -0.004346366
v -0.0024507057 0.0005053711 -0.0013691711
vt 0.976444 0.78473
vt 0.976963 0.778899
vt 0.969935 0.784618
vt 0.969935 0.784618
vt 0.976385 0.78989303
vt 0.976444 0.78473
vt 0.976963 0.778899
vt 0.976145 0.785849
vt 0.969935 0.784618
vt 0.969935 0.784618
vt 0.976145 0.785849
vt 0.976385 0.78989303
vn 0.67781895 -0.6377116 0.3659035
vn 0.677819 -0.6377116 0.36590356
vn 0.67781895 -0.6377116 0.3659035
vn -0.3951834 -0.6293598 0.6691311
vn -0.3951834 -0.6293598 0.6691311
vn -0.39518338 -0.6293598 0.6691311
vn 0.34515452 -0.36582157 -0.86431646
vn 0.34515452 -0.3658215 -0.86431646
vn 0.3451545 -0.36582157 -0.86431646
vn -0.821731 -0.15065742 -0.5496003
vn -0.821731 -0.15065743 -0.54960024
vn -0.821731 -0.1506574 -0.5496003
g M_Devil_L_0
f 3/3/3 2/2/2 1/1/1
f 6/6/6 5/5/5 4/4/4
f 9/9/9 8/8/8 7/7/7
f 12/12/12 11/11/11 10/10/10
