g M_Devil_R
v 0.0008855557 -0.0021820068 -0.0029725598
v -0.0022016715 0.0010273743 -0.003098092
v 6.0601233E-05 0.000329895 -0.0001225376
v 6.0601233E-05 0.000329895 -0.0001225376
v 0.0024507057 0.0005053711 -0.0013691711
v 0.0008855557 -0.0021820068 -0.0029725598
v 0.0008855557 -0.0021820068 -0.0029725598
v 0.0006094706 0.0013240051 -0.004346366
v -0.0022016715 0.0010273743 -0.003098092
v 0.0024507057 0.0005053711 -0.0013691711
v 0.0006094706 0.0013240051 -0.004346366
v 0.0008855557 -0.0021820068 -0.0029725598
vt 0.969458 0.780148
vt 0.976178 0.786228
vt 0.97596 0.780487
vt 0.97596 0.780487
vt 0.976174 0.77525496
vt 0.969458 0.780148
vt 0.969458 0.780148
vt 0.975724 0.779191
vt 0.976178 0.786228
vt 0.976174 0.77525496
vt 0.975724 0.779191
vt 0.969458 0.780148
vn -0.67781854 -0.63771194 0.36590374
vn -0.6778185 -0.637712 0.3659037
vn -0.67781854 -0.63771194 0.36590368
vn 0.39519545 -0.6293769 0.66910785
vn 0.39519545 -0.6293769 0.6691078
vn 0.39519542 -0.6293769 0.66910774
vn -0.34515756 -0.3658241 -0.86431414
vn -0.34515753 -0.36582407 -0.86431414
vn -0.34515756 -0.3658241 -0.86431414
vn 0.8217351 -0.15065797 -0.549594
vn 0.8217351 -0.15065797 -0.549594
vn 0.8217351 -0.15065795 -0.549594
g M_Devil_R_0
f 3/3/3 2/2/2 1/1/1
f 6/6/6 5/5/5 4/4/4
f 9/9/9 8/8/8 7/7/7
f 12/12/12 11/11/11 10/10/10
