g M_Devil_L
v 0.0008818221 -0.002727661 -0.0034159708
v 0.0036763144 0.00073760987 -0.001762042
v 0.0022623108 0.0011811828 -0.003352618
v 0.00014300823 0.00033447266 -9.896755E-05
v 0.0036763144 0.00073760987 -0.001762042
v 0.0008818221 -0.002727661 -0.0034159708
v 0.0008818221 -0.002727661 -0.0034159708
v -0.0005678224 0.00077499385 -0.0017110205
v 0.00014300823 0.00033447266 -9.896755E-05
v 0.0022623108 0.0011811828 -0.003352618
v -0.0005678224 0.00077499385 -0.0017110205
v 0.0008818221 -0.002727661 -0.0034159708
vt 0.955097 0.763818
vt 0.970006 0.764449
vt 0.970725 0.756633
vt 0.970014 0.773465
vt 0.970006 0.764449
vt 0.955097 0.763818
vt 0.955097 0.763818
vt 0.970394 0.764466
vt 0.970014 0.773465
vt 0.970725 0.756633
vt 0.970394 0.764466
vt 0.955097 0.763818
vn 0.6933644 -0.23382926 -0.6815935
vn 0.6933644 -0.23382926 -0.68159354
vn 0.6933644 -0.23382926 -0.68159354
vn 0.38772357 -0.63263804 0.67040265
vn 0.3877235 -0.6326379 0.67040265
vn 0.38772354 -0.63263804 0.67040265
vn -0.8477574 -0.47026712 0.24526744
vn -0.8477574 -0.47026718 0.2452674
vn -0.8477575 -0.47026718 0.24526744
vn -0.5128753 0.19468257 -0.83609664
vn -0.51287526 0.19468254 -0.83609664
vn -0.5128753 0.19468255 -0.8360966
g M_Devil_L_0
f 3/3/3 2/2/2 1/1/1
f 6/6/6 5/5/5 4/4/4
f 9/9/9 8/8/8 7/7/7
f 12/12/12 11/11/11 10/10/10
