g M_Devil_R
v -0.0039707315 0.00082061766 -0.0017576313
v -0.0010922349 -0.0027519225 -0.0035568522
v -0.0022862374 0.001226654 -0.0036002253
v -0.0039707315 0.00082061766 -0.0017576313
v -0.0002390325 0.00034072876 -0.00015303612
v -0.0010922349 -0.0027519225 -0.0035568522
v 0.00055315613 0.0007684326 -0.0017947673
v -0.0010922349 -0.0027519225 -0.0035568522
v -0.0002390325 0.00034072876 -0.00015303612
v 0.00055315613 0.0007684326 -0.0017947673
v -0.0022862374 0.001226654 -0.0036002253
v -0.0010922349 -0.0027519225 -0.0035568522
vt 0.970006 0.764449
vt 0.955097 0.763818
vt 0.970725 0.756633
vt 0.970006 0.764449
vt 0.970014 0.773465
vt 0.955097 0.763818
vt 0.970394 0.764466
vt 0.955097 0.763818
vt 0.970014 0.773465
vt 0.970394 0.764466
vt 0.970725 0.756633
vt 0.955097 0.763818
vn -0.6963033 -0.21642517 -0.68434054
vn -0.6963033 -0.21642515 -0.6843404
vn -0.6963034 -0.21642518 -0.6843405
vn -0.37178925 -0.6388014 0.6735766
vn -0.37178925 -0.6388013 0.6735766
vn -0.37178925 -0.6388013 0.6735766
vn 0.8178255 -0.51289064 0.26096874
vn 0.8178255 -0.51289064 0.26096874
vn 0.8178255 -0.51289064 0.26096874
vn 0.547812 0.15544055 -0.82203424
vn 0.54781204 0.15544054 -0.8220342
vn 0.547812 0.15544057 -0.82203424
g M_Devil_R_0
f 3/3/3 2/2/2 1/1/1
f 6/6/6 5/5/5 4/4/4
f 9/9/9 8/8/8 7/7/7
f 12/12/12 11/11/11 10/10/10
