g M_Devil_L
v 0.00085913297 -0.0027656555 -0.0033406925
v 0.0032306206 0.0006437683 -0.0016640758
v 0.0018824064 0.001065979 -0.003045597
v 0.000107661486 0.0003526306 -0.0001869154
v 0.0032306206 0.0006437683 -0.0016640758
v 0.00085913297 -0.0027656555 -0.0033406925
v 0.00085913297 -0.0027656555 -0.0033406925
v -0.00044240354 0.0006793213 -0.001568241
v 0.000107661486 0.0003526306 -0.0001869154
v 0.0018824064 0.001065979 -0.003045597
v -0.00044240354 0.0006793213 -0.001568241
v 0.00085913297 -0.0027656555 -0.0033406925
vt 0.955097 0.763818
vt 0.970006 0.764449
vt 0.970725 0.756633
vt 0.970014 0.773465
vt 0.970006 0.764449
vt 0.955097 0.763818
vt 0.955097 0.763818
vt 0.970394 0.764466
vt 0.970014 0.773465
vt 0.970725 0.756633
vt 0.970394 0.764466
vt 0.955097 0.763818
vn 0.6896459 -0.12930024 -0.71250963
vn 0.68964595 -0.12930025 -0.71250963
vn 0.6896459 -0.12930024 -0.71250963
vn 0.38486993 -0.6088291 0.6936876
vn 0.38486993 -0.6088291 0.6936876
vn 0.38486993 -0.6088291 0.6936876
vn -0.86204195 -0.44781297 0.23737556
vn -0.86204195 -0.44781297 0.23737556
vn -0.86204195 -0.44781303 0.23737556
vn -0.54899096 0.20893618 -0.8092927
vn -0.5489909 0.20893615 -0.8092927
vn -0.54899096 0.2089362 -0.8092927
g M_Devil_L_0
f 3/3/3 2/2/2 1/1/1
f 6/6/6 5/5/5 4/4/4
f 9/9/9 8/8/8 7/7/7
f 12/12/12 11/11/11 10/10/10
