g M_HairAho
v 0.015914116 1.6976289 0.011836355
v 0.014558326 1.7027291 -0.0004417773
v 0.017452335 1.6967034 0.0048226165
v 0.01139876 1.7041245 0.0056143245
v 0.009971561 1.7070378 -0.0066900826
v 0.0054232953 1.7091377 -0.0011752129
v 0.011095886 1.6957138 0.01618782
v 0.0052092383 1.7016912 0.01059732
v 0.015505867 1.6898605 0.020544967
v -0.00078166486 1.7057883 0.00460741
v 0.01882637 1.6920389 0.016262397
v 0.017452335 1.6967034 0.0048226165
v 0.019566268 1.6912051 0.009480981
v 0.019806633 1.683976 0.02475685
v 0.02170929 1.6860956 0.014505052
v 0.0216687 1.685812 0.020269318
v 0.022974117 1.6791973 0.02795942
v 0.023392646 1.6805025 0.020596968
v -0.0028656577 1.710928 -0.010163517
v -0.009825086 1.7076983 -0.00485096
v -0.019300755 1.7058578 -0.015476875
v 0.0018820381 1.7094462 -0.015281124
v 0.009971561 1.7070378 -0.0066900826
v -0.013707226 1.7089217 -0.021123838
v -0.02797328 1.7030133 -0.025614165
v -0.008210068 1.7075629 -0.025300827
v -0.024244633 1.7062935 -0.03081335
v -0.03663576 1.6990539 -0.036750305
v -0.018449478 1.7044669 -0.03514408
v -0.033549536 1.702159 -0.04136049
v -0.043100633 1.6955872 -0.047213644
v -0.027310839 1.7010267 -0.044761695
v -0.039960653 1.6985137 -0.051660046
v -0.04818692 1.6919 -0.05791041
v -0.034556456 1.697401 -0.054926522
v -0.045708027 1.6944151 -0.06324025
v -0.053275526 1.6868038 -0.07150505
v -0.040682536 1.6935171 -0.06572114
v -0.051047344 1.6888545 -0.07530306
v -0.04604595 1.6883812 -0.077322185
v -0.055954613 1.6802526 -0.082884625
v -0.053435206 1.6825627 -0.08579803
v -0.049875796 1.6816679 -0.08750924
v -0.05440566 1.6765939 -0.092643134
v -0.056090944 1.6743093 -0.09103439
v -0.05171521 1.6753677 -0.09477217
v -0.054718878 1.6710362 -0.098114185
v -0.05529293 1.669187 -0.09781227
v -0.052531518 1.6699008 -0.09955505
v -0.05311489 1.6635754 -0.10446814
vt 0.623243 0.9411376
vt 0.619595 0.9184825
vt 0.614468 0.9323535
vt 0.629228 0.9253989
vt 0.626054 0.9037854
vt 0.636639 0.9097573
vt 0.632419 0.9481935
vt 0.640534 0.9325553
vt 0.626052 0.9612444
vt 0.647651 0.9171958
vt 0.618704 0.9534284
vt 0.614468 0.9323535
vt 0.610901 0.945266
vt 0.618667 0.9740143
vt 0.608053 0.9582696
vt 0.613442 0.9660377
vt 0.612707 0.9838551
vt 0.60614 0.9725213
vt 0.644986 0.892968
vt 0.65815 0.897932
vt 0.66966 0.876693
vt 0.635232 0.88568
vt 0.626054 0.9037854
vt 0.658572 0.870681
vt 0.680972 0.857564
vt 0.648156 0.865708
vt 0.671678 0.851098
vt 0.691783 0.835934
vt 0.660919 0.84551597
vt 0.6832 0.830338
vt 0.698881 0.816277
vt 0.671978 0.826775
vt 0.690296 0.811092
vt 0.70403 0.796776
vt 0.680737 0.807038
vt 0.696175 0.790184
vt 0.708579 0.772415
vt 0.687629 0.787117
vt 0.702021 0.768331
vt 0.693793 0.76585
vt 0.711662 0.751064
vt 0.704821 0.748964
vt 0.69856 0.745824
vt 0.707074 0.734717
vt 0.712609 0.7346
vt 0.702942 0.73051
vt 0.708959 0.72242403
vt 0.712041 0.719768
vt 0.706 0.718908
vt 0.709772 0.70646596
vn 0.128441 0.9313529 0.34071198
vn 0.120850965 0.9615338 0.24667394
vn 0.16426496 0.9427258 0.29031894
vn 0.08796376 0.95355767 0.2880799
vn 0.07912293 0.9771294 0.19737706
vn 0.04078151 0.97143316 0.23378305
vn 0.08732899 0.9214609 0.37852797
vn 0.042189196 0.94419193 0.32668298
vn 0.12284708 0.8986555 0.42110223
vn -0.0002971051 0.96131736 0.27544308
vn 0.15723202 0.91231114 0.37810904
vn 0.15237498 0.9442959 0.29169697
vn 0.16187294 0.9280657 0.3353969
vn 0.16503906 0.87314427 0.45867318
vn 0.18487908 0.91350037 0.36240417
vn 0.18360694 0.8959506 0.4044268
vn 0.19769299 0.851873 0.485005
vn 0.20252591 0.8783377 0.43301982
vn -0.017958008 0.9847585 0.17299809
vn -0.068364725 0.9755774 0.20874609
vn -0.14372395 0.98061967 0.13314795
vn 0.017966192 0.9911526 0.13150594
vn 0.07912293 0.9771294 0.19737706
vn -0.10328402 0.99030626 0.092875615
vn -0.21534993 0.9744237 0.06421018
vn -0.060280614 0.99646026 0.05859312
vn -0.1829401 0.9828964 0.021156607
vn -0.28595984 0.9580745 -0.01789709
vn -0.138549 0.990198 -0.017667603
vn -0.2531799 0.9657836 -0.056231875
vn -0.33517098 0.93718195 -0.096697696
vn -0.20413604 0.97503316 -0.08740052
vn -0.29961193 0.9447467 -0.13298996
vn -0.37350696 0.9107119 -0.17634197
vn -0.25656 0.9523011 -0.165226
vn -0.34037584 0.9147586 -0.2176259
vn -0.40958807 0.86900914 -0.27759805
vn -0.30001998 0.9222738 -0.24371895
vn -0.37932497 0.873184 -0.30604297
vn -0.3387189 0.88169956 -0.32844388
vn -0.4334769 0.8232468 -0.3665549
vn -0.39850187 0.83153784 -0.3869639
vn -0.36541608 0.83606726 -0.40922216
vn -0.41195792 0.7959428 -0.44358283
vn -0.44378376 0.7842096 -0.43367177
vn -0.38604215 0.7952623 -0.4674712
vn -0.42155302 0.76172704 -0.492001
vn -0.44543082 0.7454007 -0.49595279
vn -0.39540413 0.76260525 -0.5119462
vn -0.4175748 0.72017753 -0.5540537
g M_HairAho_0
f 3/3/3 2/2/2 1/1/1
f 4/4/4 1/1/1 2/2/2
f 2/2/2 5/5/5 4/4/4
f 6/6/6 4/4/4 5/5/5
f 1/1/1 4/4/4 7/7/7
f 8/8/8 7/7/7 4/4/4
f 4/4/4 6/6/6 8/8/8
f 7/7/7 9/9/9 1/1/1
f 10/10/10 8/8/8 6/6/6
f 11/11/11 1/1/1 9/9/9
f 1/1/1 11/11/11 12/12/12
f 13/13/13 12/12/12 11/11/11
f 9/9/9 14/14/14 11/11/11
f 13/13/13 11/11/11 15/15/15
f 16/16/16 11/11/11 14/14/14
f 16/16/16 15/15/15 11/11/11
f 14/14/14 17/17/17 16/16/16
f 16/16/16 18/18/18 15/15/15
f 18/18/18 16/16/16 17/17/17
f 6/6/6 19/19/19 10/10/10
f 20/20/20 10/10/10 19/19/19
f 19/19/19 21/21/21 20/20/20
f 19/19/19 6/6/6 22/22/22
f 23/23/23 22/22/22 6/6/6
f 24/24/24 21/21/21 19/19/19
f 22/22/22 24/24/24 19/19/19
f 24/24/24 25/25/25 21/21/21
f 26/26/26 24/24/24 22/22/22
f 27/27/27 25/25/25 24/24/24
f 26/26/26 27/27/27 24/24/24
f 27/27/27 28/28/28 25/25/25
f 29/29/29 27/27/27 26/26/26
f 30/30/30 28/28/28 27/27/27
f 29/29/29 30/30/30 27/27/27
f 30/30/30 31/31/31 28/28/28
f 32/32/32 30/30/30 29/29/29
f 33/33/33 31/31/31 30/30/30
f 32/32/32 33/33/33 30/30/30
f 31/31/31 33/33/33 34/34/34
f 35/35/35 33/33/33 32/32/32
f 34/34/34 33/33/33 36/36/36
f 33/33/33 35/35/35 36/36/36
f 34/34/34 36/36/36 37/37/37
f 36/36/36 35/35/35 38/38/38
f 37/37/37 36/36/36 39/39/39
f 36/36/36 38/38/38 39/39/39
f 39/39/39 38/38/38 40/40/40
f 37/37/37 39/39/39 41/41/41
f 39/39/39 40/40/40 42/42/42
f 41/41/41 39/39/39 42/42/42
f 42/42/42 40/40/40 43/43/43
f 42/42/42 44/44/44 41/41/41
f 42/42/42 43/43/43 44/44/44
f 45/45/45 41/41/41 44/44/44
f 44/44/44 43/43/43 46/46/46
f 44/44/44 47/47/47 45/45/45
f 46/46/46 47/47/47 44/44/44
f 48/48/48 45/45/45 47/47/47
f 49/49/49 47/47/47 46/46/46
f 48/48/48 47/47/47 50/50/50
f 50/50/50 47/47/47 49/49/49
