g M_HairURA
v 0.07616833 1.6042864 0.041968126
v 0.06639343 1.6230361 0.02206021
v 0.06884801 1.6196029 0.039997634
v 0.06961475 1.605466 0.01829912
v 0.07732868 1.5864645 0.04180694
v 0.0685777 1.5891707 0.015917031
v 0.07640594 1.5722363 0.041755218
v 0.06684531 1.5742866 0.016343217
v 0.073747635 1.5595008 0.041235194
v 0.064652935 1.5608393 0.01894573
v 0.068858944 1.5497602 0.040238418
v 0.062024876 1.5510772 0.022883732
v 0.06442668 1.5423652 0.039320998
v 0.060004797 1.5439129 0.025217917
v 0.057924252 1.5377274 0.027601637
v 0.059057176 1.5363549 0.036264066
v 0.053466883 1.5314009 0.032854997
v -0.047906417 1.5248386 0.042706948
v -0.05274101 1.5295248 0.04230297
v -0.05319351 1.5282577 0.03683819
v -0.056338232 1.5342884 0.042003307
v -0.057869565 1.5347437 0.033388045
v -0.059751585 1.5433136 0.0434148
v -0.062297147 1.5443102 0.029773235
v -0.0630661 1.5546134 0.045543365
v -0.066764794 1.556784 0.026080474
v -0.06678749 1.5723349 0.047956772
v -0.07029255 1.5713354 0.02587471
v -0.06763225 1.5887669 0.051311415
v -0.0704611 1.5908121 0.02954422
v -0.06360602 1.6039114 0.05486123
v -0.06558224 1.6082168 0.032470167
v -0.055346385 1.622883 0.054368038
v -0.061515883 1.6251314 0.033095703
v -0.07854282 1.6133041 0.009496955
v -0.07346344 1.630991 0.014330138
v -0.07922998 1.5926307 0.0038337708
v -0.076237716 1.5760494 -0.00085926056
v -0.071424596 1.5614899 -4.9972532E-05
v -0.06992351 1.5581746 0.020436363
v -0.06858561 1.549647 0.0026420592
v -0.06842494 1.5474545 0.015184059
v -0.06529186 1.5439392 0.016343994
v -0.06416753 1.543148 0.012557258
v -0.06121912 1.5397543 0.017668275
vt 0.31497 0.534867
vt 0.281582 0.564678
vt 0.311792 0.561654
vt 0.276774 0.536749
vt 0.315173 0.507089
vt 0.272678 0.511413
vt 0.314573 0.48492002
vt 0.272343 0.4881
vt 0.31234 0.46479303
vt 0.274886 0.466677
vt 0.308047 0.44832098
vt 0.279033 0.450319
vt 0.304117 0.435421
vt 0.281194 0.438379
vt 0.283416 0.427804
vt 0.296703 0.42425
vt 0.288742 0.414266
vt 0.860156 0.845382
vt 0.8586 0.853837
vt 0.865659 0.854846
vt 0.857052 0.861215
vt 0.86705 0.865656
vt 0.851774 0.872173
vt 0.867457 0.879538
vt 0.84471 0.885287
vt 0.866746 0.896639
vt 0.834606 0.9056345
vt 0.861023 0.9143612
vt 0.823631 0.9233834
vt 0.848354 0.9356333
vt 0.811763 0.93918383
vt 0.835514 0.9548425
vt 0.801121 0.9623186
vt 0.825751 0.9742613
vt 0.864758 0.9715725
vt 0.849746 0.9898902
vt 0.879404 0.9492498
vt 0.890859 0.9310918
vt 0.895144 0.9126826
vt 0.87236 0.9009854
vt 0.896436 0.897385
vt 0.882507 0.890199
vt 0.883097 0.884259
vt 0.888055 0.884259
vt 0.883976 0.876941
vn -0.9592088 -0.18336947 0.21516088
vn -0.9368326 -0.3031592 0.17446841
vn -0.9035432 -0.4264314 0.042022757
vn -0.95364666 -0.114045456 0.27848086
vn -0.95156133 0.015219982 0.30708182
vn -0.940563 0.056284063 0.3349229
vn -0.92870635 0.12804937 0.34800544
vn -0.9173183 0.15838896 0.36529455
vn -0.8861639 0.28083363 0.36857307
vn -0.8809254 0.2885793 0.37508982
vn -0.8359242 0.4117099 0.3629403
vn -0.85601324 0.3802291 0.3502388
vn -0.8306603 0.46267703 0.30973136
vn -0.87229085 0.37436223 0.31458178
vn -0.8048596 0.53527254 0.25628975
vn -0.7554884 0.6246018 0.19776225
vn -0.71526146 0.6697317 0.19965099
vn 0.6886646 0.6917186 -0.21740843
vn 0.742238 0.6366842 -0.20908394
vn 0.77737933 0.6040503 -0.17551206
vn 0.86978155 0.470342 -0.14919278
vn 0.89337367 0.4281013 -0.13642853
vn 0.92975503 0.33679622 -0.14874095
vn 0.9344253 0.32427642 -0.14728947
vn 0.9527103 0.26190647 -0.15410486
vn 0.9546258 0.25420082 -0.1551502
vn 0.97609204 0.14679258 -0.16030048
vn 0.9799155 0.12366705 -0.1564351
vn 0.98473305 -0.09386364 -0.14659658
vn 0.9737887 -0.07548022 -0.21456546
vn 0.9378343 -0.3137658 -0.1483843
vn 0.9246477 -0.20839486 -0.31874472
vn 0.9217997 -0.32278657 -0.2146955
vn 0.8901672 -0.17997412 -0.4185829
vn 0.862496 -0.004763027 -0.50604135
vn 0.8279556 -0.086358555 -0.5541043
vn 0.9246811 0.1325873 -0.35691103
vn 0.94898176 0.23130414 -0.2143175
vn 0.9687627 0.23001498 -0.09269347
vn 0.99343985 0.10626963 -0.042238317
vn 0.95276123 0.30367267 0.0053794896
vn 0.8977518 0.43572858 0.06467103
vn 0.7236319 0.6852556 0.08235089
vn 0.73946065 0.66844165 0.079897605
vn 0.7054036 0.70609623 0.061918408
g M_HairURA_0
f 3/3/3 2/2/2 1/1/1
f 4/4/4 1/1/1 2/2/2
f 1/1/1 4/4/4 5/5/5
f 6/6/6 5/5/5 4/4/4
f 5/5/5 6/6/6 7/7/7
f 8/8/8 7/7/7 6/6/6
f 7/7/7 8/8/8 9/9/9
f 10/10/10 9/9/9 8/8/8
f 9/9/9 10/10/10 11/11/11
f 12/12/12 11/11/11 10/10/10
f 11/11/11 12/12/12 13/13/13
f 12/12/12 14/14/14 13/13/13
f 13/13/13 14/14/14 15/15/15
f 15/15/15 16/16/16 13/13/13
f 17/17/17 16/16/16 15/15/15
f 20/20/20 19/19/19 18/18/18
f 20/20/20 21/21/21 19/19/19
f 20/20/20 22/22/22 21/21/21
f 21/21/21 22/22/22 23/23/23
f 22/22/22 24/24/24 23/23/23
f 23/23/23 24/24/24 25/25/25
f 26/26/26 25/25/25 24/24/24
f 25/25/25 26/26/26 27/27/27
f 28/28/28 27/27/27 26/26/26
f 27/27/27 28/28/28 29/29/29
f 30/30/30 29/29/29 28/28/28
f 29/29/29 30/30/30 31/31/31
f 32/32/32 31/31/31 30/30/30
f 31/31/31 32/32/32 33/33/33
f 34/34/34 33/33/33 32/32/32
f 32/32/32 35/35/35 34/34/34
f 35/35/35 36/36/36 34/34/34
f 37/37/37 35/35/35 32/32/32
f 30/30/30 37/37/37 32/32/32
f 37/37/37 30/30/30 38/38/38
f 28/28/28 38/38/38 30/30/30
f 38/38/38 28/28/28 39/39/39
f 40/40/40 39/39/39 28/28/28
f 39/39/39 40/40/40 41/41/41
f 42/42/42 41/41/41 40/40/40
f 42/42/42 43/43/43 41/41/41
f 43/43/43 44/44/44 41/41/41
f 45/45/45 44/44/44 43/43/43
