g M_HairUra
v -0.014372558 1.5663556 0.059614282
v -0.005681226 1.578786 0.059423216
v -0.011378316 1.5809948 0.06286561
v -0.0005701706 1.5881459 0.057839334
v -0.0087611005 1.5898683 0.06373122
v 0.0025011813 1.5946819 0.056865647
v -0.006065659 1.5987765 0.06383348
v 0.0064757536 1.6046268 0.05484732
v -0.002834625 1.6089821 0.06339703
v 0.010572326 1.6132289 0.052690227
v 0.00024639128 1.6190152 0.06220537
v 0.013879318 1.6222088 0.05029846
v 0.0032556532 1.6288319 0.059623487
v 0.017729415 1.6314368 0.04766447
v 0.007852018 1.6378704 0.055561636
v 0.021090392 1.6417105 0.04480011
v 0.013800983 1.6458827 0.050449576
v 0.023176545 1.6504425 0.042109665
v 0.045090064 1.5258 0.044271786
v 0.047078405 1.5331961 0.044417806
v 0.050544042 1.5327173 0.044677574
v 0.048800472 1.5408131 0.044479102
v 0.05428708 1.5399777 0.04481841
v 0.050128583 1.5514288 0.04524988
v 0.056643322 1.551278 0.045396686
v 0.050277237 1.562234 0.04665167
v 0.057252638 1.5620149 0.04678694
v 0.04965234 1.5714428 0.048284482
v 0.057101697 1.571579 0.047775976
v 0.04787628 1.5810243 0.050556704
v 0.055052508 1.5819598 0.049492974
v 0.05070213 1.5940582 0.05125811
v 0.04451529 1.5926516 0.05050666
v 0.04610421 1.608926 0.051372364
v 0.040160265 1.6070205 0.05026617
v 0.036296345 1.6169947 0.04992973
v 0.04245045 1.6192825 0.05027775
v 0.037447564 1.6300855 0.047537792
v 0.03462128 1.631166 0.046899106
v 0.07058032 1.5956445 0.010375404
v 0.05983747 1.5971327 0.040610816
v 0.061483853 1.5823027 0.03937489
v 0.06997837 1.5810493 0.007507248
v 0.061599884 1.5705645 0.03813771
v 0.067933574 1.5686834 0.0074054142
v 0.061435547 1.5589929 0.03663372
v 0.06644661 1.5578351 0.0079585165
v 0.06045143 1.545796 0.03418757
v 0.06329837 1.5446777 0.009469233
v 0.059809778 1.532383 0.03129758
v 0.060075644 1.5321233 0.012268066
v 0.05856548 1.521704 0.029961325
v 0.05786724 1.523547 0.013697281
v 0.056384265 1.5129178 0.02836029
v 0.05507061 1.5162224 0.015076255
v 0.05444665 1.5073174 0.027669473
v 0.052915953 1.5101047 0.016252594
v 0.051933926 1.5015346 0.027006201
v 0.05038124 1.5039624 0.017876167
v 0.049040105 1.4956695 0.02572546
v 0.047972944 1.4985646 0.019614602
v 0.045115165 1.4910365 0.02509037
v 0.04424204 1.4916708 0.022751417
v 0.040492497 1.4853166 0.02548683
v -0.046325017 1.4932226 0.012605228
v -0.042152252 1.4841703 0.015625266
v -0.046934478 1.4909922 0.016417066
v -0.050508652 1.4971678 0.017345585
v -0.04823738 1.4986285 0.010926551
v -0.054154243 1.5041523 0.018999977
v -0.050931476 1.5066204 0.009350968
v -0.056929145 1.5111048 0.020307083
v -0.052733865 1.5137503 0.007838345
v -0.05915321 1.5184345 0.021820785
v -0.05519763 1.521856 0.006297779
v -0.06084082 1.5268513 0.024530133
v -0.057659768 1.5301653 0.0052771377
v -0.061392862 1.5349168 0.027386704
v -0.059292085 1.5380396 0.004915314
v -0.0616019 1.542704 0.029330926
v -0.061160825 1.5464312 0.003950088
v -0.062402733 1.5547541 0.031246236
v -0.06343356 1.5579525 0.0031480324
v -0.06256172 1.5673159 0.032777738
v -0.063278705 1.5784494 0.032862823
v -0.06602356 1.5692755 0.0024030304
v -0.06907015 1.5816478 0.0018249523
v -0.06257149 1.5935521 0.03359558
v -0.07169248 1.5972657 0.0019357356
v -0.017126815 1.547987 0.05859167
v -0.016144972 1.547114 0.055825766
v -0.02166965 1.5437776 0.05548313
v -0.009996032 1.5511472 0.05641526
v -0.013182702 1.5528626 0.061252486
v -0.005432739 1.5556232 0.056906756
v -0.00995893 1.5569512 0.063431494
v 1.0662078E-05 1.5616935 0.057696052
v -0.005235245 1.5637076 0.06587649
v 0.0059784316 1.5686221 0.05822933
v -0.00028329133 1.5706359 0.06765278
v 0.0112602515 1.5754997 0.058403242
v 0.004156907 1.5771135 0.068407565
v 0.017761288 1.5848342 0.057734806
v 0.010064058 1.5859365 0.068321474
v 0.0233675 1.5938017 0.0558908
v 0.015723504 1.5952173 0.06687859
v 0.027588138 1.6023538 0.05392545
v 0.02008886 1.6040734 0.06494766
v 0.03098576 1.6107205 0.051833704
v 0.024315566 1.6125513 0.061897315
v 0.03322726 1.6197022 0.05015701
v 0.027854733 1.6215178 0.058733862
v 0.034867916 1.6316956 0.048325665
v 0.031390503 1.6318601 0.05388763
v 0.033971023 1.6423514 0.046397913
vt 0.0929391 0.020630002
vt 0.0906746 0.044743
vt 0.102463 0.043422997
vt 0.0879681 0.06339598
vt 0.106268 0.058111012
vt 0.0894376 0.07516998
vt 0.109994 0.07248402
vt 0.0916599 0.092372
vt 0.113476 0.08943701
vt 0.0924736 0.10837698
vt 0.116242 0.10627502
vt 0.0913343 0.124140024
vt 0.117509 0.123426974
vt 0.0913343 0.140984
vt 0.115207 0.141217
vt 0.0912952 0.15914601
vt 0.109741 0.15882498
vt 0.0949484 0.174685
vt 0.14119 0.014307022
vt 0.145357 0.026095986
vt 0.150997 0.024846971
vt 0.149153 0.03826499
vt 0.158028 0.036185026
vt 0.152836 0.05541998
vt 0.163416 0.05427301
vt 0.154618 0.07308
vt 0.165955 0.07180101
vt 0.154862 0.088302016
vt 0.167047 0.08746898
vt 0.152209 0.104579985
vt 0.165143 0.104901016
vt 0.159753 0.125444
vt 0.147896 0.123888016
vt 0.155739 0.15045798
vt 0.142447 0.148085
vt 0.139732 0.16502398
vt 0.150122 0.16782397
vt 0.14212 0.183635
vt 0.139448 0.18891501
vt 0.934182 0.502272
vt 0.976128 0.507632
vt 0.974977 0.488589
vt 0.93244 0.482705
vt 0.975233 0.473123
vt 0.934561 0.46615797
vt 0.975222 0.45789403
vt 0.937304 0.451725
vt 0.974908 0.440431
vt 0.942209 0.434147
vt 0.974322 0.42177898
vt 0.948699 0.417462
vt 0.973695 0.40600997
vt 0.952414 0.405751
vt 0.973763 0.39549
vt 0.955888 0.396182
vt 0.973453 0.38740999
vt 0.958542 0.38835597
vt 0.972825 0.379928
vt 0.96129 0.38057297
vt 0.972346 0.371926
vt 0.964036 0.37364
vt 0.971835 0.36392802
vt 0.968516 0.36396003
vt 0.971328 0.354299
vt 0.981731 0.667766
vt 0.987238 0.68057096
vt 0.987556 0.66935503
vt 0.987708 0.659348
vt 0.97869 0.66078496
vt 0.987413 0.648396
vt 0.973414 0.65078104
vt 0.986345 0.638048
vt 0.968812 0.641871
vt 0.984823 0.62750304
vt 0.96433 0.631721
vt 0.983069 0.615847
vt 0.958848 0.621567
vt 0.981007 0.60528004
vt 0.953797 0.61233103
vt 0.978972 0.595231
vt 0.948438 0.601942
vt 0.975865 0.579728
vt 0.941594 0.587771
vt 0.972727 0.56392
vt 0.969127 0.549754
vt 0.934888 0.57395804
vt 0.928295 0.558205
vt 0.96464 0.530632
vt 0.922672 0.538211
vt 0.0520167 0.03808099
vt 0.0569358 0.03781098
vt 0.0555547 0.027508974
vt 0.0580582 0.049622
vt 0.0484087 0.04843402
vt 0.0579966 0.05993402
vt 0.0453728 0.05699998
vt 0.0572855 0.073098004
vt 0.0415528 0.07030898
vt 0.056817 0.087835014
vt 0.0387075 0.084028006
vt 0.0564043 0.101791024
vt 0.0371501 0.096641004
vt 0.0565927 0.120139
vt 0.0364284 0.11373103
vt 0.0579113 0.13737798
vt 0.0370704 0.131387
vt 0.0586135 0.15304601
vt 0.0376494 0.14759201
vt 0.0589674 0.16797501
vt 0.0397977 0.16349399
vt 0.0575402 0.18306601
vt 0.0412762 0.17979997
vt 0.0540659 0.20260298
vt 0.0441046 0.198964
vt 0.0494495 0.21994698
vn -0.41578734 0.27740505 -0.866122
vn -0.4540506 0.1866422 -0.8712077
vn -0.46868 0.22049138 -0.8554079
vn -0.5404509 0.15941268 -0.82613593
vn -0.5491744 0.20278667 -0.8107312
vn -0.58551353 0.119030856 -0.80187637
vn -0.59401906 0.15308046 -0.78975177
vn -0.62939376 0.11801619 -0.7680728
vn -0.63326675 0.1364633 -0.7618077
vn -0.6531459 0.077208325 -0.7532856
vn -0.65150356 0.061212834 -0.756172
vn -0.65146196 0.0391955 -0.7576682
vn -0.6483487 0.0045455685 -0.76133
vn -0.634121 0.0050932425 -0.773217
vn -0.6310089 -0.02346126 -0.77542067
vn -0.63350576 -0.0507758 -0.7720701
vn -0.6289674 -0.04821955 -0.7759349
vn -0.63961524 -0.08266191 -0.76423764
vn -0.07469264 0.00039279662 0.9972065
vn -0.070994675 0.004914459 0.99746466
vn -0.069559775 0.0066681216 0.9975555
vn -0.057267148 -0.02187523 0.9981192
vn -0.055828918 -0.0266927 0.9980835
vn -0.036205 -0.09022469 0.9952631
vn -0.03501405 -0.09397485 0.9949587
vn 0.0006216199 -0.13232209 0.9912066
vn -0.00033086474 -0.13214585 0.99123025
vn 0.07534778 -0.1567352 0.9847623
vn 0.06879757 -0.15419297 0.9856426
vn 0.09855685 -0.118684016 0.98802865
vn 0.1365733 -0.13514929 0.98136765
vn -0.06519821 -0.045460757 0.9968362
vn -0.120187365 -0.03481869 0.9921405
vn -0.14905882 -0.016409539 0.98869216
vn -0.17212832 -0.034579586 0.9844675
vn -0.12096049 0.10919053 0.98663366
vn -0.10444017 0.13097322 0.9858693
vn -0.14205538 0.18999745 0.9714532
vn -0.14661679 0.19026513 0.9707228
vn -0.9591338 0.047732215 -0.2788977
vn -0.9406869 -0.07689267 -0.33044767
vn -0.95750254 -0.009951567 -0.28825322
vn -0.9646935 0.111328125 -0.23868915
vn -0.97250676 0.045444388 -0.22839752
vn -0.971626 0.1328675 -0.19567612
vn -0.97894776 0.07878447 -0.18829352
vn -0.97557527 0.1524454 -0.15815593
vn -0.98375165 0.1089741 -0.14267863
vn -0.97554237 0.19939798 -0.0925066
vn -0.991012 0.12162878 -0.055693433
vn -0.9736944 0.22773708 0.0074218963
vn -0.9807047 0.19196087 0.037002586
vn -0.9531986 0.2856949 0.09894886
vn -0.94785726 0.28843534 0.1355416
vn -0.91126007 0.36594078 0.18892457
vn -0.9176776 0.34541664 0.19635482
vn -0.899396 0.37678736 0.22162583
vn -0.8910077 0.38523486 0.24020687
vn -0.86110973 0.42644504 0.27682966
vn -0.7947352 0.49729478 0.3479855
vn -0.7785814 0.5024663 0.37595016
vn -0.70427454 0.5778323 0.41244042
vn -0.70038074 0.5783551 0.41829678
vn -0.6921886 0.58837694 0.41795653
vn 0.8099968 0.4378923 0.3900711
vn 0.76847136 0.4910943 0.4102173
vn 0.7929931 0.46201307 0.39712203
vn 0.8407786 0.3828615 0.38276416
vn 0.84227717 0.3801315 0.38218996
vn 0.870698 0.31942248 0.373971
vn 0.87191826 0.32179067 0.36906552
vn 0.9008764 0.24530394 0.3581167
vn 0.8945025 0.29741687 0.33377883
vn 0.9380484 0.17396298 0.29966986
vn 0.9242031 0.28424472 0.2550562
vn 0.9758587 0.08043591 0.20305161
vn 0.96064615 0.22478567 0.16318841
vn 0.9922848 0.02901928 0.12053577
vn 0.97732633 0.19394925 0.08495199
vn 0.99682766 0.058389418 0.054084074
vn 0.9821659 0.18707062 0.018834785
vn 0.99833727 0.05676138 -0.010044682
vn 0.9842688 0.16391791 -0.06592329
vn 0.997943 0.046551596 -0.044074938
vn 0.98887885 0.05207086 -0.13930973
vn 0.96369815 0.21895622 -0.1527879
vn 0.9656515 0.16375756 -0.2017441
vn 0.9779758 0.0204648 -0.20771264
vn 0.9531366 0.16184895 -0.25560772
vn 0.4660378 -0.76171887 0.4501034
vn 0.46239835 -0.785165 0.41195107
vn 0.45260733 -0.79160035 0.41050646
vn 0.51220256 -0.6602032 0.54934525
vn 0.5074495 -0.66869915 0.5434487
vn 0.56836915 -0.6226833 0.5377937
vn 0.562562 -0.64308745 0.51957923
vn 0.6068407 -0.58776575 0.5350473
vn 0.6060117 -0.59072906 0.53271854
vn 0.63994044 -0.5441692 0.54254603
vn 0.63720787 -0.5484083 0.54149294
vn 0.6798937 -0.47501832 0.55866116
vn 0.6745994 -0.48764655 0.554181
vn 0.7246113 -0.38728362 0.57004386
vn 0.71469456 -0.4190643 0.5599971
vn 0.76535594 -0.29254946 0.57327574
vn 0.75775856 -0.32209527 0.56750023
vn 0.7917482 -0.21184216 0.5729378
vn 0.7878258 -0.23254819 0.57030857
vn 0.81263715 -0.13809712 0.5661714
vn 0.81055987 -0.16493012 0.56195265
vn 0.8348842 -0.07248182 0.5456324
vn 0.8349337 -0.09494202 0.5420993
vn 0.8459227 0.072478056 0.5283574
vn 0.84798664 0.024713153 0.52944106
vn 0.8385397 0.16454649 0.51939917
g M_HairUra_0
f 3/3/3 2/2/2 1/1/1
f 2/2/2 3/3/3 4/4/4
f 3/3/3 5/5/5 4/4/4
f 6/6/6 4/4/4 5/5/5
f 7/7/7 6/6/6 5/5/5
f 6/6/6 7/7/7 8/8/8
f 7/7/7 9/9/9 8/8/8
f 10/10/10 8/8/8 9/9/9
f 11/11/11 10/10/10 9/9/9
f 10/10/10 11/11/11 12/12/12
f 13/13/13 12/12/12 11/11/11
f 12/12/12 13/13/13 14/14/14
f 15/15/15 14/14/14 13/13/13
f 14/14/14 15/15/15 16/16/16
f 15/15/15 17/17/17 16/16/16
f 16/16/16 17/17/17 18/18/18
f 21/21/21 20/20/20 19/19/19
f 20/20/20 21/21/21 22/22/22
f 21/21/21 23/23/23 22/22/22
f 22/22/22 23/23/23 24/24/24
f 23/23/23 25/25/25 24/24/24
f 24/24/24 25/25/25 26/26/26
f 25/25/25 27/27/27 26/26/26
f 26/26/26 27/27/27 28/28/28
f 27/27/27 29/29/29 28/28/28
f 28/28/28 29/29/29 30/30/30
f 29/29/29 31/31/31 30/30/30
f 32/32/32 30/30/30 31/31/31
f 30/30/30 32/32/32 33/33/33
f 33/33/33 32/32/32 34/34/34
f 33/33/33 34/34/34 35/35/35
f 34/34/34 36/36/36 35/35/35
f 37/37/37 36/36/36 34/34/34
f 37/37/37 38/38/38 36/36/36
f 36/36/36 38/38/38 39/39/39
f 42/42/42 41/41/41 40/40/40
f 42/42/42 40/40/40 43/43/43
f 42/42/42 43/43/43 44/44/44
f 43/43/43 45/45/45 44/44/44
f 46/46/46 44/44/44 45/45/45
f 47/47/47 46/46/46 45/45/45
f 46/46/46 47/47/47 48/48/48
f 47/47/47 49/49/49 48/48/48
f 50/50/50 48/48/48 49/49/49
f 51/51/51 50/50/50 49/49/49
f 50/50/50 51/51/51 52/52/52
f 53/53/53 52/52/52 51/51/51
f 52/52/52 53/53/53 54/54/54
f 53/53/53 55/55/55 54/54/54
f 55/55/55 56/56/56 54/54/54
f 55/55/55 57/57/57 56/56/56
f 58/58/58 56/56/56 57/57/57
f 58/58/58 57/57/57 59/59/59
f 58/58/58 59/59/59 60/60/60
f 59/59/59 61/61/61 60/60/60
f 62/62/62 60/60/60 61/61/61
f 63/63/63 62/62/62 61/61/61
f 64/64/64 62/62/62 63/63/63
f 67/67/67 66/66/66 65/65/65
f 65/65/65 68/68/68 67/67/67
f 65/65/65 69/69/69 68/68/68
f 69/69/69 70/70/70 68/68/68
f 69/69/69 71/71/71 70/70/70
f 72/72/72 70/70/70 71/71/71
f 72/72/72 71/71/71 73/73/73
f 74/74/74 72/72/72 73/73/73
f 75/75/75 74/74/74 73/73/73
f 74/74/74 75/75/75 76/76/76
f 75/75/75 77/77/77 76/76/76
f 78/78/78 76/76/76 77/77/77
f 79/79/79 78/78/78 77/77/77
f 78/78/78 79/79/79 80/80/80
f 79/79/79 81/81/81 80/80/80
f 82/82/82 80/80/80 81/81/81
f 83/83/83 82/82/82 81/81/81
f 82/82/82 83/83/83 84/84/84
f 84/84/84 83/83/83 85/85/85
f 86/86/86 85/85/85 83/83/83
f 87/87/87 85/85/85 86/86/86
f 85/85/85 87/87/87 88/88/88
f 89/89/89 88/88/88 87/87/87
f 92/92/92 91/91/91 90/90/90
f 93/93/93 90/90/90 91/91/91
f 94/94/94 90/90/90 93/93/93
f 93/93/93 95/95/95 94/94/94
f 94/94/94 95/95/95 96/96/96
f 97/97/97 96/96/96 95/95/95
f 98/98/98 96/96/96 97/97/97
f 97/97/97 99/99/99 98/98/98
f 98/98/98 99/99/99 100/100/100
f 101/101/101 100/100/100 99/99/99
f 102/102/102 100/100/100 101/101/101
f 101/101/101 103/103/103 102/102/102
f 104/104/104 102/102/102 103/103/103
f 103/103/103 105/105/105 104/104/104
f 106/106/106 104/104/104 105/105/105
f 105/105/105 107/107/107 106/106/106
f 108/108/108 106/106/106 107/107/107
f 107/107/107 109/109/109 108/108/108
f 110/110/110 108/108/108 109/109/109
f 109/109/109 111/111/111 110/110/110
f 112/112/112 110/110/110 111/111/111
f 111/111/111 113/113/113 112/112/112
f 114/114/114 112/112/112 113/113/113
f 113/113/113 115/115/115 114/114/114
