g M_HairAcc02
v -7E-12 1.6396929 -0.12748237
v -0.014631195 1.639277 -0.13127574
v -0.010067062 1.6314449 -0.13449723
v 2.9E-11 1.6276919 -0.13631003
v 0.010067062 1.6314449 -0.13449723
v 0.014631195 1.639277 -0.13127574
v -7E-12 1.6396929 -0.12748237
v 0.014631195 1.639277 -0.13127574
v 0.009357633 1.6507983 -0.12714042
v -4.9999997E-11 1.6538568 -0.1261521
v -0.009357633 1.6507983 -0.12714042
v -0.014631195 1.639277 -0.13127574
v -4.1999997E-11 1.6512046 -0.1202221
v 0.009948267 1.6465989 -0.11506711
v -3.8E-11 1.6502441 -0.11360926
v 0.008914436 1.6480502 -0.12138271
v -4.9999997E-11 1.6538568 -0.1261521
v 0.015936643 1.6355283 -0.119628616
v 0.009357633 1.6507983 -0.12714042
v 0.014365797 1.6379365 -0.12559849
v 0.0114147365 1.6256719 -0.12330932
v 0.014631195 1.639277 -0.13127574
v 0.010228507 1.6292437 -0.12881579
v 5.1E-11 1.6209619 -0.125263
v 0.010067062 1.6314449 -0.13449723
v 3.8E-11 1.6247859 -0.13070427
v 2.9E-11 1.6276919 -0.13631003
v -0.009357633 1.6507983 -0.12714042
v -4.9999997E-11 1.6538568 -0.1261521
v -4.1999997E-11 1.6512046 -0.1202221
v -0.008914436 1.6480502 -0.12138271
v -3.8E-11 1.6502441 -0.11360926
v -0.014631195 1.639277 -0.13127574
v -0.009948267 1.6465989 -0.11506711
v -0.014365797 1.6379365 -0.12559849
v -0.010067062 1.6314449 -0.13449723
v -0.015936643 1.6355283 -0.119628616
v -0.010228507 1.6292437 -0.12881579
v 2.9E-11 1.6276919 -0.13631003
v -0.0114147365 1.6256719 -0.12330932
v 3.8E-11 1.6247859 -0.13070427
v 5.1E-11 1.6209619 -0.125263
v -2.0527818E-06 1.6317629 -0.11427703
v 0.009948267 1.6465989 -0.11506711
v 0.015936643 1.6355283 -0.119628616
v -3.8E-11 1.6502441 -0.11360926
v -0.009948267 1.6465989 -0.11506711
v -0.015936643 1.6355283 -0.119628616
v -2.0527818E-06 1.6317629 -0.11427703
v 0.015936643 1.6355283 -0.119628616
v 0.0114147365 1.6256719 -0.12330932
v 5.1E-11 1.6209619 -0.125263
v -0.0114147365 1.6256719 -0.12330932
v -0.015936643 1.6355283 -0.119628616
vt 0.887243 0.320796
vt 0.975251 0.56426203
vt 0.950286 0.56426203
vt 0.889092 0.56426203
vt 0.826952 0.56426203
vt 0.800092 0.56426203
vt 0.887243 0.320796
vt 0.800092 0.56426203
vt 0.831331 0.56426203
vt 0.886205 0.56426203
vt 0.941822 0.56426203
vt 0.975251 0.56426203
vt 0.0264222 0.79263604
vt 0.231224 0.629632
vt 0.0264222 0.629632
vt 0.231224 0.79263604
vt 0.0264222 0.9458866
vt 0.504381 0.629632
vt 0.231224 0.9458866
vt 0.504381 0.79263604
vt 0.717746 0.629632
vt 0.504381 0.9458866
vt 0.717746 0.79263604
vt 0.956272 0.629632
vt 0.717746 0.9458866
vt 0.956272 0.79263604
vt 0.956272 0.9458866
vt 0.231224 0.9458866
vt 0.0264222 0.9458866
vt 0.0264222 0.79263604
vt 0.231224 0.79263604
vt 0.0264222 0.629632
vt 0.504381 0.9458866
vt 0.231224 0.629632
vt 0.504381 0.79263604
vt 0.717746 0.9458866
vt 0.504381 0.629632
vt 0.717746 0.79263604
vt 0.956272 0.9458866
vt 0.717746 0.629632
vt 0.956272 0.79263604
vt 0.956272 0.629632
vt 0.887243 0.320796
vt 0.941822 0.56426203
vt 0.975251 0.56426203
vt 0.886205 0.56426203
vt 0.831331 0.56426203
vt 0.800092 0.56426203
vt 0.887243 0.320796
vt 0.975251 0.56426203
vt 0.950286 0.56426203
vt 0.889092 0.56426203
vt 0.826952 0.56426203
vt 0.800092 0.56426203
vn -0 0.35288465 -0.93566686
vn 0.22423391 0.36245686 -0.9046238
vn 0.14456658 0.5327299 -0.83384603
vn -0 0.59253746 -0.8055428
vn -0.14456658 0.5327299 -0.83384603
vn -0.22423391 0.36245686 -0.9046238
vn -0 0.35288465 -0.93566686
vn -0.22423391 0.36245686 -0.9046238
vn -0.15556486 0.16109127 -0.974602
vn -0 0.093508154 -0.9956185
vn 0.15556486 0.16109127 -0.974602
vn 0.22423391 0.36245686 -0.9046238
vn -0 0.95584583 0.29386863
vn 0.6567299 0.7518293 0.058808573
vn -0 0.98812497 0.15365243
vn 0.6690454 0.71850926 0.19005942
vn -0 0.90226215 0.431188
vn 0.97005266 0.10774366 -0.21769033
vn 0.6699117 0.66766125 0.32472575
vn 0.99433136 0.06363115 -0.085183896
vn 0.6874185 -0.5441107 -0.48104
vn 0.99790645 -0.06034278 0.02327062
vn 0.7002093 -0.60417396 -0.38036916
vn -0 -0.8048737 -0.5934461
vn 0.6864924 -0.67390645 -0.27309033
vn -0 -0.8592817 -0.5115027
vn -0 -0.90865433 -0.41754922
vn -0.6699117 0.66766125 0.32472575
vn -0 0.90226215 0.431188
vn -0 0.95584583 0.29386863
vn -0.6690454 0.71850926 0.19005942
vn -0 0.98812497 0.15365243
vn -0.99790645 -0.06034278 0.02327063
vn -0.6567299 0.7518293 0.058808573
vn -0.99433136 0.06363115 -0.085183896
vn -0.6864924 -0.67390645 -0.27309027
vn -0.97005266 0.107743666 -0.21769038
vn -0.7002093 -0.604174 -0.38036916
vn -0 -0.90865433 -0.41754922
vn -0.6874185 -0.5441107 -0.48104
vn -0 -0.8592817 -0.5115027
vn -0 -0.8048737 -0.5934461
vn -4.9892413E-05 -0.40471196 0.91444427
vn 0.23575164 -0.10667429 0.96594083
vn 0.36918402 -0.32556447 0.87046593
vn 6.6341477E-06 -0.036108255 0.99934787
vn -0.23577599 -0.10662542 0.9659403
vn -0.36926565 -0.32554805 0.8704374
vn -4.9892413E-05 -0.40471196 0.91444427
vn 0.36918402 -0.32556447 0.87046593
vn 0.28777033 -0.5850161 0.758251
vn 1.00135385E-05 -0.713087 0.7010756
vn -0.28781256 -0.58505845 0.7582022
vn -0.36926565 -0.32554805 0.8704374
g M_HairAcc02_0
f 3/3/3 2/2/2 1/1/1
f 4/4/4 3/3/3 1/1/1
f 5/5/5 4/4/4 1/1/1
f 6/6/6 5/5/5 1/1/1
f 9/9/9 8/8/8 7/7/7
f 10/10/10 9/9/9 7/7/7
f 11/11/11 10/10/10 7/7/7
f 12/12/12 11/11/11 7/7/7
f 15/15/15 14/14/14 13/13/13
f 14/14/14 16/16/16 13/13/13
f 13/13/13 16/16/16 17/17/17
f 14/14/14 18/18/18 16/16/16
f 16/16/16 19/19/19 17/17/17
f 18/18/18 20/20/20 16/16/16
f 16/16/16 20/20/20 19/19/19
f 20/20/20 18/18/18 21/21/21
f 20/20/20 22/22/22 19/19/19
f 23/23/23 20/20/20 21/21/21
f 22/22/22 20/20/20 23/23/23
f 23/23/23 21/21/21 24/24/24
f 25/25/25 22/22/22 23/23/23
f 26/26/26 23/23/23 24/24/24
f 25/25/25 23/23/23 26/26/26
f 27/27/27 25/25/25 26/26/26
f 30/30/30 29/29/29 28/28/28
f 31/31/31 30/30/30 28/28/28
f 32/32/32 30/30/30 31/31/31
f 31/31/31 28/28/28 33/33/33
f 34/34/34 32/32/32 31/31/31
f 35/35/35 31/31/31 33/33/33
f 34/34/34 31/31/31 35/35/35
f 33/33/33 36/36/36 35/35/35
f 37/37/37 34/34/34 35/35/35
f 36/36/36 38/38/38 35/35/35
f 35/35/35 38/38/38 37/37/37
f 36/36/36 39/39/39 38/38/38
f 38/38/38 40/40/40 37/37/37
f 39/39/39 41/41/41 38/38/38
f 38/38/38 41/41/41 40/40/40
f 41/41/41 42/42/42 40/40/40
f 45/45/45 44/44/44 43/43/43
f 44/44/44 46/46/46 43/43/43
f 46/46/46 47/47/47 43/43/43
f 47/47/47 48/48/48 43/43/43
f 51/51/51 50/50/50 49/49/49
f 52/52/52 51/51/51 49/49/49
f 53/53/53 52/52/52 49/49/49
f 54/54/54 53/53/53 49/49/49
