g M_HairOP01
v 0.010793 1.6865879 0.009101593
v 0.0012804618 1.6926144 -0.00086817914
v 0.004319203 1.6960714 -0.0019261051
v -0.0065731523 1.6956992 -0.0076952702
v -0.00017170032 1.7002794 -0.009660007
v -0.012142778 1.6970444 -0.012301871
v -0.006706202 1.7028178 -0.01696117
v -0.018436993 1.6974623 -0.018680051
v -0.01376141 1.7041482 -0.024087502
v -0.025625382 1.698045 -0.025005387
v -0.021009406 1.7037376 -0.030524597
v -0.032012545 1.6974384 -0.03055541
v -0.008095048 1.7026885 -0.034893636
v -0.006706202 1.7028178 -0.01696117
v -6.172312E-05 1.6998833 -0.026792966
v -0.014986746 1.7034384 -0.040846672
v -0.00017170032 1.7002794 -0.009660007
v 0.0056740674 1.6973718 -0.016936123
v 0.008703096 1.6935381 -0.007588806
v 0.004319203 1.6960714 -0.0019261051
v 0.010793 1.6865879 0.009101593
v -0.023173409 1.7026641 -0.046593875
v -0.028615212 1.7029864 -0.03744545
v -0.04002044 1.6964406 -0.03828845
v -0.038400777 1.7002848 -0.04517334
v -0.034249213 1.7002603 -0.05233921
v -0.042686094 1.6974176 -0.055611253
v -0.047368612 1.6948164 -0.044970233
v -0.046115 1.6974809 -0.05060295
v -0.051976446 1.6937815 -0.05867637
v -0.054653034 1.6940259 -0.05598961
v -0.054917097 1.6918594 -0.052732624
v -0.06216975 1.6895472 -0.061820615
v 0.0087076165 1.6939462 0.006498642
v 0.010893912 1.6941419 0.0085999295
v 0.010793 1.6865879 0.009101593
v 0.011852108 1.7014902 0.006929092
v 0.00825507 1.700851 0.0021773018
v 0.014196815 1.7098113 0.001312027
v 0.010106888 1.7087182 -0.003712387
v 0.018051768 1.7163026 -0.0050126645
v 0.014490223 1.7149866 -0.009365082
v 0.021658974 1.7199035 -0.017028885
v 0.02331492 1.720328 -0.01364067
v 0.029010663 1.7241491 -0.024254227
v 0.010893912 1.6941419 0.0085999295
v 0.014014131 1.6941043 0.0068159485
v 0.010793 1.6865879 0.009101593
v 0.016010761 1.699279 0.0046545407
v 0.011852108 1.7014902 0.006929092
v 0.019497642 1.7070037 -0.00048583985
v 0.014196815 1.7098113 0.001312027
v 0.018051768 1.7163026 -0.0050126645
v 0.022350693 1.7126397 -0.0071977614
v 0.02331492 1.720328 -0.01364067
v 0.025440482 1.7186282 -0.015654907
v 0.029010663 1.7241491 -0.024254227
v 0.06370777 1.542965 0.015508623
v 0.074174725 1.5689619 0.023682928
v 0.06988911 1.5702801 0.013212137
v 0.06766439 1.5426702 0.023651505
v 0.06409418 1.5352465 0.025461502
v 0.060534846 1.5349371 0.018739218
v 0.06029228 1.5291344 0.028065719
v 0.057619702 1.5280827 0.023092492
v 0.05606279 1.5231979 0.031657334
v 0.05403631 1.5220494 0.02844223
v 0.049021147 1.5159699 0.037699033
v 0.067247406 1.569803 0.028572425
v 0.074174725 1.5689619 0.023682928
v 0.061446708 1.5445595 0.028583964
v 0.06766439 1.5426702 0.023651505
v 0.05921344 1.5375775 0.029155616
v 0.06409418 1.5352465 0.025461502
v 0.056913454 1.5309683 0.030594597
v 0.06029228 1.5291344 0.028065719
v 0.054184794 1.5252365 0.03266384
v 0.05606279 1.5231979 0.031657334
v 0.049021147 1.5159699 0.037699033
v 0.035110913 1.635254 0.06435871
v 0.019053036 1.6232567 0.056656037
v 0.015341618 1.6339276 0.055897847
v 0.038185094 1.6229249 0.06371246
v 0.02579547 1.609078 0.057408903
v 0.041817885 1.6093831 0.06314262
v 0.03577855 1.5944184 0.05820541
v 0.046646822 1.5957333 0.061082534
v 0.04768115 1.5829393 0.05519203
v 0.056048267 1.6099597 0.053609084
v 0.052818846 1.6238092 0.052924957
v 0.035110913 1.635254 0.06435871
v 0.05113182 1.6348361 0.05214424
v 0.05732741 1.5961511 0.05320854
v 0.054094065 1.5831928 0.05489273
v 0.05839837 1.5766461 0.048645325
v 0.057718463 1.5837344 0.050789185
vt 0.760316 0.504896
vt 0.759384 0.530163
vt 0.767151 0.530239
vt 0.758977 0.548899
vt 0.771821 0.54517496
vt 0.758743 0.56175303
vt 0.773974 0.561531
vt 0.759183 0.577071
vt 0.77539 0.57784
vt 0.759558 0.593224
vt 0.775227 0.59416497
vt 0.759234 0.60754204
vt 0.795083 0.58194
vt 0.773974 0.561531
vt 0.793947 0.56259
vt 0.795008 0.597077
vt 0.771821 0.54517496
vt 0.787828 0.544121
vt 0.779547 0.528286
vt 0.767151 0.530239
vt 0.760316 0.504896
vt 0.793234 0.61344004
vt 0.775146 0.611072
vt 0.760183 0.626118
vt 0.773591 0.631492
vt 0.78816 0.63359296
vt 0.782612 0.64834297
vt 0.760774 0.64296997
vt 0.771774 0.646554
vt 0.775146 0.66425
vt 0.768699 0.66346097
vt 0.761837 0.661708
vt 0.765874 0.681265
vt 0.517899 0.417374
vt 0.524491 0.41876
vt 0.529055 0.40358198
vt 0.521503 0.43237
vt 0.510048 0.43279397
vt 0.519501 0.45061803
vt 0.506727 0.45279598
vt 0.520065 0.46953398
vt 0.509735 0.471551
vt 0.515764 0.49267697
vt 0.522057 0.48921603
vt 0.525095 0.513873
vt 0.524491 0.41876
vt 0.531147 0.42168897
vt 0.529055 0.40358198
vt 0.536091 0.43712097
vt 0.521503 0.43237
vt 0.530736 0.45725697
vt 0.519501 0.45061803
vt 0.520065 0.46953398
vt 0.529727 0.47540897
vt 0.522057 0.48921603
vt 0.527606 0.494318
vt 0.525095 0.513873
vt 0.84963 0.680147
vt 0.822543 0.718948
vt 0.840092 0.724686
vt 0.835328 0.67705
vt 0.836711 0.663791
vt 0.849281 0.664684
vt 0.8366 0.65114796
vt 0.846276 0.650352
vt 0.835231 0.63753104
vt 0.841785 0.635953
vt 0.831609 0.61786497
vt 0.809793 0.71361697
vt 0.822543 0.718948
vt 0.822601 0.673607
vt 0.835328 0.67705
vt 0.825966 0.661429
vt 0.836711 0.663791
vt 0.828858 0.649421
vt 0.8366 0.65114796
vt 0.830217 0.637903
vt 0.835231 0.63753104
vt 0.831609 0.61786497
vt 0.432275 0.492378
vt 0.467132 0.485094
vt 0.458689 0.46832103
vt 0.444152 0.509766
vt 0.476572 0.509368
vt 0.456716 0.528768
vt 0.482605 0.538158
vt 0.467811 0.54911804
vt 0.48286 0.566357
vt 0.437713 0.549037
vt 0.422977 0.530877
vt 0.432275 0.492378
vt 0.410348 0.51740503
vt 0.453869 0.565379
vt 0.474623 0.573565
vt 0.478212 0.59003997
vt 0.46884 0.580657
vn -0.10361899 0.80093586 0.58971596
vn -0.16683094 0.8377747 0.5199048
vn -0.13174294 0.86460465 0.4848738
vn -0.183012 0.893812 0.409398
vn -0.07328507 0.9423017 0.32664487
vn -0.23002997 0.91439086 0.33312997
vn -0.05070692 0.9794653 0.19513208
vn -0.2892359 0.9117587 0.2916139
vn -0.14390199 0.9808529 0.13122399
vn -0.33937794 0.9151188 0.21766993
vn -0.22072393 0.97272575 0.07131319
vn -0.38692713 0.90882725 0.15595004
vn 0.003882998 0.99929047 -0.037461583
vn -0.05070688 0.97946554 0.19513093
vn 0.149547 0.988566 0.0193129
vn -0.09976316 0.99221367 -0.07456097
vn 0.14080195 0.96580464 0.2177069
vn 0.23607008 0.9649003 0.115058035
vn 0.3221711 0.92005825 0.22293204
vn 0.29272598 0.91954195 0.26220998
vn 0.36859193 0.8563578 0.36165094
vn -0.19334607 0.9718204 -0.13484205
vn -0.2889259 0.9573335 0.0058562574
vn -0.43988615 0.8947982 0.07639672
vn -0.37030596 0.9266179 -0.0652121
vn -0.29625204 0.9377031 -0.18151501
vn -0.36687002 0.90393716 -0.21978205
vn -0.48917684 0.8721307 0.0097037265
vn -0.42697892 0.89635575 -0.119311966
vn -0.41954702 0.86638707 -0.270839
vn -0.50571585 0.8481958 -0.15752894
vn -0.5926007 0.8053976 -0.012607094
vn -0.5588162 0.8045702 -0.20097606
vn -0.3400371 0.7027593 0.62490326
vn -0.31095013 0.68658227 0.65720224
vn -0.366115 0.5881019 0.72117686
vn -0.25799707 0.82753515 0.4986211
vn -0.2873601 0.8423983 0.45583916
vn -0.14540702 0.9184501 0.36784002
vn -0.17952001 0.9258902 0.33241504
vn -0.0380805 0.96876603 0.24503501
vn -0.0695539 0.9743731 0.21391402
vn 0.034957614 0.99147344 0.12553206
vn 0.0451516 0.98765904 0.14997001
vn 0.10584396 0.99195963 0.06937638
vn 0.32022896 0.64974093 0.68941295
vn 0.33208 0.664184 0.669763
vn 0.34148398 0.58008796 0.73951787
vn 0.3460921 0.7245823 0.59598726
vn 0.30217394 0.7440008 0.59594786
vn 0.3179851 0.8241371 0.4687041
vn 0.25545892 0.8427727 0.47378778
vn 0.3124878 0.8740165 0.37208378
vn 0.37136617 0.85621333 0.35914618
vn 0.38511717 0.87853235 0.2826051
vn 0.41540593 0.86787987 0.27243796
vn 0.4113329 0.8900498 0.19651094
vn 0.99939823 0.024354607 0.024699705
vn 0.98932683 0.031377394 0.14229499
vn 0.99778914 0.031137204 0.058713708
vn 0.9954176 0.02470879 0.09237506
vn 0.9953768 0.019183096 0.09411108
vn 0.99881375 0.019128796 0.044779886
vn 0.9858996 0.016337294 0.16653794
vn 0.99022806 0.016518002 0.138476
vn 0.9676687 0.012395997 0.25191993
vn 0.9737403 0.012073403 0.22734107
vn 0.94759804 0.00814489 0.31936103
vn 0.6786249 0.033336695 0.733728
vn 0.7215941 0.03321511 0.6915191
vn 0.6654751 0.029090902 0.74585307
vn 0.70378894 0.0289276 0.7098199
vn 0.653847 0.0286301 0.756085
vn 0.6820578 0.028420692 0.7307458
vn 0.64229417 0.028119603 0.76594216
vn 0.6610504 0.027987314 0.7498194
vn 0.61431825 0.02825531 0.7885523
vn 0.6225347 0.028150886 0.78208566
vn 0.57715994 0.026991999 0.8161849
vn 0.10172698 0.17207196 0.97981775
vn -0.035111792 0.10616197 0.99372876
vn -0.06806841 0.17449802 0.98230207
vn 0.29468307 0.13610101 0.94585323
vn 0.021138893 0.03913138 0.99901044
vn 0.31700587 0.059143484 0.9465777
vn 0.13324797 0.03580319 0.9904358
vn 0.374784 0.037215598 0.92636496
vn 0.31520098 0.0313207 0.94850796
vn 0.55580103 0.09657952 0.82568616
vn 0.5427081 0.18764603 0.81869215
vn 0.41126713 0.24983807 0.87660724
vn 0.53318006 0.25735104 0.8059091
vn 0.57959396 0.0383606 0.814002
vn 0.5043511 0.033564102 0.86284614
vn 0.57734597 0.0317515 0.81588197
vn 0.64084005 0.0358042 0.766839
g M_HairOP01_0
f 3/3/3 2/2/2 1/1/1
f 4/4/4 2/2/2 3/3/3
f 4/4/4 3/3/3 5/5/5
f 4/4/4 5/5/5 6/6/6
f 7/7/7 6/6/6 5/5/5
f 6/6/6 7/7/7 8/8/8
f 9/9/9 8/8/8 7/7/7
f 8/8/8 9/9/9 10/10/10
f 11/11/11 10/10/10 9/9/9
f 12/12/12 10/10/10 11/11/11
f 13/13/13 11/11/11 9/9/9
f 9/9/9 14/14/14 13/13/13
f 13/13/13 14/14/14 15/15/15
f 13/13/13 16/16/16 11/11/11
f 17/17/17 15/15/15 14/14/14
f 18/18/18 15/15/15 17/17/17
f 18/18/18 17/17/17 19/19/19
f 20/20/20 19/19/19 17/17/17
f 21/21/21 19/19/19 20/20/20
f 11/11/11 16/16/16 22/22/22
f 12/12/12 11/11/11 23/23/23
f 23/23/23 11/11/11 22/22/22
f 12/12/12 23/23/23 24/24/24
f 22/22/22 25/25/25 23/23/23
f 25/25/25 24/24/24 23/23/23
f 22/22/22 26/26/26 25/25/25
f 25/25/25 26/26/26 27/27/27
f 28/28/28 24/24/24 25/25/25
f 29/29/29 25/25/25 27/27/27
f 28/28/28 25/25/25 29/29/29
f 27/27/27 30/30/30 29/29/29
f 29/29/29 31/31/31 28/28/28
f 31/31/31 29/29/29 30/30/30
f 31/31/31 32/32/32 28/28/28
f 31/31/31 30/30/30 33/33/33
f 33/33/33 32/32/32 31/31/31
f 36/36/36 35/35/35 34/34/34
f 34/34/34 35/35/35 37/37/37
f 38/38/38 34/34/34 37/37/37
f 37/37/37 39/39/39 38/38/38
f 38/38/38 39/39/39 40/40/40
f 41/41/41 40/40/40 39/39/39
f 42/42/42 40/40/40 41/41/41
f 41/41/41 43/43/43 42/42/42
f 41/41/41 44/44/44 43/43/43
f 43/43/43 44/44/44 45/45/45
f 48/48/48 47/47/47 46/46/46
f 46/46/46 47/47/47 49/49/49
f 50/50/50 46/46/46 49/49/49
f 49/49/49 51/51/51 50/50/50
f 52/52/52 50/50/50 51/51/51
f 53/53/53 52/52/52 51/51/51
f 53/53/53 51/51/51 54/54/54
f 54/54/54 55/55/55 53/53/53
f 54/54/54 56/56/56 55/55/55
f 55/55/55 56/56/56 57/57/57
f 60/60/60 59/59/59 58/58/58
f 59/59/59 61/61/61 58/58/58
f 61/61/61 62/62/62 58/58/58
f 58/58/58 62/62/62 63/63/63
f 64/64/64 63/63/63 62/62/62
f 65/65/65 63/63/63 64/64/64
f 64/64/64 66/66/66 65/65/65
f 66/66/66 67/67/67 65/65/65
f 68/68/68 67/67/67 66/66/66
f 71/71/71 70/70/70 69/69/69
f 71/71/71 72/72/72 70/70/70
f 71/71/71 73/73/73 72/72/72
f 72/72/72 73/73/73 74/74/74
f 75/75/75 74/74/74 73/73/73
f 76/76/76 74/74/74 75/75/75
f 75/75/75 77/77/77 76/76/76
f 77/77/77 78/78/78 76/76/76
f 79/79/79 78/78/78 77/77/77
f 82/82/82 81/81/81 80/80/80
f 80/80/80 81/81/81 83/83/83
f 84/84/84 83/83/83 81/81/81
f 85/85/85 83/83/83 84/84/84
f 86/86/86 85/85/85 84/84/84
f 87/87/87 85/85/85 86/86/86
f 86/86/86 88/88/88 87/87/87
f 89/89/89 83/83/83 85/85/85
f 85/85/85 87/87/87 89/89/89
f 89/89/89 90/90/90 83/83/83
f 91/91/91 83/83/83 90/90/90
f 91/91/91 90/90/90 92/92/92
f 93/93/93 89/89/89 87/87/87
f 88/88/88 94/94/94 87/87/87
f 87/87/87 94/94/94 93/93/93
f 95/95/95 94/94/94 88/88/88
f 94/94/94 96/96/96 93/93/93
f 95/95/95 96/96/96 94/94/94
