g M_HairOP01
v -0.026419649 1.7007731 -0.02092296
v -0.021695573 1.7002374 -0.028492209
v -0.023352226 1.7048455 -0.019802753
v -0.018976135 1.7037165 -0.02763797
v -0.01677911 1.6995386 -0.03513319
v -0.014328998 1.7026361 -0.03480252
v -0.009379786 1.6974691 -0.042641126
v -0.007313406 1.6999209 -0.041690636
v -0.001851647 1.6948433 -0.049045272
v -0.010336366 1.7024771 -0.03215432
v 2.1300271E-05 1.6973722 -0.04871137
v -0.014727043 1.703905 -0.025116598
v 0.006776831 1.6947966 -0.053496156
v 0.005654431 1.6924157 -0.05385138
v 0.015223376 1.6918 -0.057818215
v 0.01471468 1.6904272 -0.05861322
v 0.024821954 1.6872538 -0.061173517
v -0.018390955 1.704795 -0.018055135
v -0.023352226 1.7048455 -0.019802753
v -0.02560108 1.7002912 -0.012444732
v -0.026419649 1.7007731 -0.02092296
v -0.020553226 1.7006674 -0.010995594
v -0.02798487 1.697009 -0.01391399
v -0.027121074 1.6960489 -0.006148283
v -0.022591101 1.696032 -0.0048918733
v -0.028900174 1.6928164 -0.007956658
v -0.027639389 1.6896024 -0.0010194248
v -0.023828916 1.689519 -0.00051100034
v -0.029568486 1.6872963 -0.0021119092
v -0.02718493 1.6826326 0.004739626
v -0.025071654 1.6831497 0.00423562
v -0.029421518 1.6812861 0.003834601
v -0.025981292 1.6708167 0.010046995
v -0.007313406 1.6999209 -0.041690636
v -0.0043992465 1.6996995 -0.039313674
v -0.010336366 1.7024771 -0.03215432
v 2.1300271E-05 1.6973722 -0.04871137
v 0.0020655151 1.6966733 -0.045671415
v 0.008500229 1.6943232 -0.051341396
v 0.006776831 1.6947966 -0.053496156
v 0.015908165 1.6911104 -0.056237888
v 0.015223376 1.6918 -0.057818215
v 0.024821954 1.6872538 -0.061173517
v -0.077854164 1.5622009 0.020938773
v -0.07885658 1.5642172 0.009584891
v -0.0799253 1.5640283 0.020948367
v -0.077521354 1.5620723 0.028985176
v -0.08120818 1.5647779 0.028898126
v -0.077012286 1.5644417 0.03822317
v -0.08069576 1.5666667 0.03719373
v -0.07426374 1.5689945 0.046785425
v -0.07783741 1.5714362 0.045927566
v -0.06902998 1.5759726 0.05440166
v -0.07397061 1.5782357 0.053276796
v -0.063425556 1.5854511 0.060278118
v -0.069634095 1.5861988 0.058428187
v -0.055481285 1.5992591 0.06451549
v -0.06228568 1.5997819 0.062200245
v -0.05752225 1.6089141 0.06325147
v -0.051229447 1.607409 0.064307295
v -0.05303949 1.6184831 0.062390454
v -0.04700285 1.6175389 0.063227296
v -0.04949996 1.6264172 0.059771918
v -0.044039257 1.6251433 0.060214628
v -0.04596041 1.6343513 0.05715338
v -0.041075673 1.6327477 0.057201955
v -0.043015342 1.6415272 0.05405471
v -0.03884765 1.6397033 0.05474856
v -0.04071927 1.6481733 0.05162785
v -0.037220553 1.6467203 0.05229526
v -0.03910417 1.652908 0.04921849
v -0.035986226 1.6515048 0.049787473
v -0.03755937 1.6570045 0.04555435
v -0.034653544 1.6560926 0.046024885
v -0.03400031 1.6579051 0.043029666
v -0.036512826 1.6587149 0.042535823
v -0.035594095 1.6593249 0.039539374
v -0.033714116 1.6581298 0.040073268
v -0.033589125 1.6569347 0.03251305
v 0.07556783 1.5627193 0.03134987
v 0.07680789 1.5665652 0.030417053
v 0.07597295 1.5631856 0.012963538
v 0.07647023 1.569719 0.041780747
v 0.07492135 1.5654646 0.043139603
v 0.07456933 1.5741022 0.049728736
v 0.07160257 1.5708935 0.05219372
v 0.07092084 1.5810028 0.056142878
v 0.0674667 1.5779176 0.058724277
v 0.06623535 1.5888716 0.060571857
v 0.0613786 1.5858494 0.0633369
v 0.05803724 1.6002064 0.064204864
v 0.051291484 1.5980562 0.06625671
v 0.045367315 1.6139232 0.06445775
v 0.038199298 1.6113714 0.066344894
v 0.028613862 1.6296295 0.06294705
v 0.022221817 1.6272867 0.06317345
v 0.014764801 1.6428648 0.058856353
v 0.009366097 1.6411165 0.058703836
v 0.0030907725 1.6540884 0.053749092
v -0.0012471374 1.6524696 0.053561404
v -0.005426569 1.6614738 0.047619853
v -0.008194737 1.6595571 0.047756653
v -0.010696552 1.6652337 0.041609082
v -0.012125605 1.6633862 0.041619144
v -0.012880246 1.6661007 0.03564424
v -0.014271844 1.664854 0.035755455
v -0.014088563 1.6639535 0.029864129
vt 0.0496834 0.87628603
vt 0.0501893 0.88893497
vt 0.0564996 0.877518
vt 0.0564996 0.889356
vt 0.0511699 0.9001832
vt 0.0564996 0.9010092
vt 0.0519521 0.91462183
vt 0.0564996 0.9148271
vt 0.0522962 0.9284405
vt 0.0630404 0.9017244
vt 0.0564996 0.9290991
vt 0.0634882 0.889419
vt 0.0564996 0.9406658
vt 0.0529925 0.9406393
vt 0.0564996 0.9537861
vt 0.0543996 0.9542588
vt 0.0564996 0.9682227
vt 0.0637352 0.878001
vt 0.0564996 0.877518
vt 0.0564996 0.865267
vt 0.0496834 0.87628603
vt 0.064464 0.865643
vt 0.0498582 0.863831
vt 0.0564996 0.85331297
vt 0.0643853 0.852775
vt 0.049928 0.851442
vt 0.0564996 0.838639
vt 0.0633413 0.838058
vt 0.0509722 0.836748
vt 0.0564996 0.822518
vt 0.0604126 0.82346404
vt 0.0516697 0.82151103
vt 0.0564996 0.799172
vt 0.0564996 0.9148271
vt 0.0617714 0.915491
vt 0.0630404 0.9017244
vt 0.0564996 0.9290991
vt 0.0615779 0.9288953
vt 0.0602163 0.9413039
vt 0.0564996 0.9406658
vt 0.0588994 0.9540955
vt 0.0564996 0.9537861
vt 0.0564996 0.9682227
vt 0.0226038 0.747957
vt 0.0195293 0.72999
vt 0.0183191 0.747922
vt 0.0226038 0.759853
vt 0.0159773 0.760041
vt 0.0226038 0.773883
vt 0.0161636 0.772687
vt 0.0226038 0.788645
vt 0.0161066 0.787728
vt 0.0226038 0.805606
vt 0.0146325 0.803717
vt 0.0226038 0.823894
vt 0.0138701 0.819486
vt 0.0226038 0.848619
vt 0.0130184 0.84360397
vt 0.0129004 0.859791
vt 0.0226038 0.861682
vt 0.0135244 0.876199
vt 0.0226038 0.878086
vt 0.0142282 0.889881
vt 0.0226038 0.890751
vt 0.0150402 0.903349
vt 0.0226038 0.903434
vt 0.0159601 0.9158622
vt 0.0226038 0.9146707
vt 0.0170172 0.9269002
vt 0.0226038 0.92578113
vt 0.0176423 0.9349709
vt 0.0226038 0.9338535
vt 0.0181447 0.94326377
vt 0.0226038 0.9427651
vt 0.0226038 0.9479709
vt 0.0187138 0.9484433
vt 0.01935 0.9530009
vt 0.0226038 0.9523574
vt 0.0232433 0.9634376
vt 0.0323984 0.73388803
vt 0.0384254 0.732759
vt 0.0323984 0.706527
vt 0.0395885 0.751594
vt 0.0323984 0.75177
vt 0.0398255 0.766539
vt 0.0323984 0.768079
vt 0.040334 0.782202
vt 0.0323984 0.783479
vt 0.0414999 0.797591
vt 0.0323984 0.799724
vt 0.0423379 0.818906
vt 0.0323984 0.823498
vt 0.0430204 0.846465
vt 0.0323984 0.851073
vt 0.0416488 0.880686
vt 0.0323984 0.884705
vt 0.0400898 0.9098704
vt 0.0323984 0.9133666
vt 0.0387575 0.9350011
vt 0.0323984 0.9375625
vt 0.0373344 0.9539627
vt 0.0323984 0.9545612
vt 0.0358691 0.9668849
vt 0.0323984 0.9667411
vt 0.0351329 0.9761775
vt 0.0323984 0.9762526
vt 0.0323984 0.9851198
vn -0.32566106 0.8685922 0.37348706
vn -0.29676294 0.91522676 0.27256495
vn -0.28101605 0.8911682 0.3561591
vn -0.22415099 0.92824495 0.29684597
vn -0.26536807 0.94635123 0.18438804
vn -0.18243805 0.9591103 0.21638806
vn -0.17880109 0.9808904 0.076708734
vn -0.13574794 0.9852646 0.104048945
vn -0.12118699 0.99162686 -0.044607196
vn -0.09974253 0.9569243 0.27266708
vn -0.0910293 0.995301 -0.0330075
vn -0.15124993 0.9284186 0.33935586
vn -0.009977113 0.9888614 -0.14850506
vn -0.030202512 0.9856064 -0.16633704
vn 0.14734297 0.9752539 -0.16483298
vn 0.14738603 0.97292525 -0.17802805
vn 0.29301396 0.931573 -0.21520798
vn -0.18792397 0.8911979 0.41285697
vn -0.24841909 0.8850672 0.39362913
vn -0.28221 0.83468187 0.47293097
vn -0.32566106 0.8685922 0.37348706
vn -0.21431206 0.8420752 0.49495417
vn -0.34092498 0.8189831 0.46155906
vn -0.297915 0.78637105 0.5411721
vn -0.23324206 0.7920142 0.5641911
vn -0.35495386 0.7702657 0.52980983
vn -0.30433503 0.7320641 0.60947704
vn -0.24576695 0.73855585 0.6278008
vn -0.34859613 0.7183293 0.6020662
vn -0.29068094 0.66840976 0.68464077
vn -0.2516171 0.68069416 0.68800026
vn -0.3327851 0.65769225 0.6757922
vn -0.28878707 0.5640981 0.77356017
vn -0.06205451 0.98248017 0.17573303
vn -0.025483906 0.97871315 0.20364505
vn -0.09974253 0.9569243 0.27266708
vn 0.04366432 0.99287343 0.110886045
vn 0.07184743 0.9861675 0.14937106
vn 0.15160497 0.98540175 0.07745478
vn 0.13118201 0.98993415 0.05311851
vn 0.25784805 0.96496224 0.048602916
vn 0.24891895 0.96797276 0.032681596
vn 0.371111 0.9285201 -0.0112682
vn -0.7464964 0.030995216 0.6646673
vn -0.8143077 0.03105689 0.5796018
vn -0.75178796 0.031272296 0.6586629
vn -0.6906579 0.031000197 0.72251695
vn -0.702521 0.0314409 0.7109681
vn -0.6303709 0.031221997 0.7756659
vn -0.6514049 0.031651497 0.7580698
vn -0.5778109 0.031779587 0.81555176
vn -0.5986548 0.032174893 0.80036074
vn -0.5217579 0.033135094 0.8524498
vn -0.5519769 0.033379797 0.8331909
vn -0.47110313 0.034753107 0.8813932
vn -0.51174515 0.034798313 0.8584323
vn -0.411179 0.036958396 0.910805
vn -0.45865285 0.037078086 0.8878417
vn -0.42707705 0.038551 0.90339303
vn -0.38477606 0.038224705 0.92221814
vn -0.40135583 0.042412087 0.9149397
vn -0.35966998 0.039786696 0.9322309
vn -0.38394704 0.0881466 0.919138
vn -0.34563488 0.08177956 0.9347987
vn -0.3642841 0.13527805 0.9214103
vn -0.3298139 0.12739596 0.9354106
vn -0.3488082 0.18829209 0.91808444
vn -0.31768516 0.17529209 0.9318524
vn -0.33427393 0.24511798 0.9100429
vn -0.307564 0.23499502 0.92205304
vn -0.32366106 0.28873906 0.90104014
vn -0.29980785 0.27913088 0.91225064
vn -0.31610808 0.33291906 0.88839215
vn -0.29332802 0.32742602 0.8981931
vn -0.28940707 0.35743505 0.8879661
vn -0.311054 0.36153597 0.87894094
vn -0.29632503 0.39366603 0.87018305
vn -0.2767719 0.38785085 0.87918663
vn -0.27254188 0.43379784 0.85880166
vn 0.678516 0.031122502 0.73392606
vn 0.6877339 0.031760495 0.7252678
vn 0.7806694 0.031092715 0.6241703
vn 0.60933125 0.031985912 0.7922703
vn 0.60924464 0.03129398 0.7923646
vn 0.568363 0.0326481 0.82212996
vn 0.5440301 0.032239404 0.8384461
vn 0.526542 0.0339209 0.84947205
vn 0.49923697 0.033489697 0.865818
vn 0.48635924 0.035282213 0.87304634
vn 0.4501428 0.034813885 0.8922776
vn 0.42763603 0.0371325 0.903188
vn 0.38028398 0.036685996 0.9241419
vn 0.34593913 0.039136015 0.93744034
vn 0.29237795 0.038618896 0.9555228
vn 0.22721995 0.10802198 0.9678339
vn 0.17795306 0.09540353 0.9794033
vn 0.12078602 0.20144904 0.9720232
vn 0.0766718 0.18904802 0.97897
vn 0.024123 0.300841 0.9533691
vn -0.012813894 0.28960788 0.95705956
vn -0.051167395 0.37466097 0.9257489
vn -0.07595763 0.35968122 0.92997843
vn -0.10933199 0.42288694 0.8995628
vn -0.12345495 0.4088898 0.90419465
vn -0.14419594 0.4620728 0.87504065
vn -0.15823402 0.453839 0.876922
vn -0.18588795 0.49048886 0.8513908
g M_HairOP01_0
f 3/3/3 2/2/2 1/1/1
f 3/3/3 4/4/4 2/2/2
f 5/5/5 2/2/2 4/4/4
f 5/5/5 4/4/4 6/6/6
f 6/6/6 7/7/7 5/5/5
f 6/6/6 8/8/8 7/7/7
f 9/9/9 7/7/7 8/8/8
f 10/10/10 8/8/8 6/6/6
f 9/9/9 8/8/8 11/11/11
f 6/6/6 12/12/12 10/10/10
f 6/6/6 4/4/4 12/12/12
f 11/11/11 13/13/13 9/9/9
f 13/13/13 14/14/14 9/9/9
f 13/13/13 15/15/15 14/14/14
f 15/15/15 16/16/16 14/14/14
f 17/17/17 16/16/16 15/15/15
f 18/18/18 12/12/12 4/4/4
f 18/18/18 4/4/4 19/19/19
f 19/19/19 20/20/20 18/18/18
f 21/21/21 20/20/20 19/19/19
f 18/18/18 20/20/20 22/22/22
f 21/21/21 23/23/23 20/20/20
f 24/24/24 22/22/22 20/20/20
f 24/24/24 20/20/20 23/23/23
f 25/25/25 22/22/22 24/24/24
f 24/24/24 23/23/23 26/26/26
f 24/24/24 27/27/27 25/25/25
f 26/26/26 27/27/27 24/24/24
f 25/25/25 27/27/27 28/28/28
f 26/26/26 29/29/29 27/27/27
f 30/30/30 28/28/28 27/27/27
f 30/30/30 27/27/27 29/29/29
f 31/31/31 28/28/28 30/30/30
f 30/30/30 29/29/29 32/32/32
f 31/31/31 30/30/30 33/33/33
f 33/33/33 30/30/30 32/32/32
f 36/36/36 35/35/35 34/34/34
f 37/37/37 34/34/34 35/35/35
f 37/37/37 35/35/35 38/38/38
f 38/38/38 39/39/39 37/37/37
f 39/39/39 40/40/40 37/37/37
f 39/39/39 41/41/41 40/40/40
f 41/41/41 42/42/42 40/40/40
f 43/43/43 42/42/42 41/41/41
f 46/46/46 45/45/45 44/44/44
f 44/44/44 47/47/47 46/46/46
f 46/46/46 47/47/47 48/48/48
f 49/49/49 48/48/48 47/47/47
f 50/50/50 48/48/48 49/49/49
f 49/49/49 51/51/51 50/50/50
f 50/50/50 51/51/51 52/52/52
f 53/53/53 52/52/52 51/51/51
f 54/54/54 52/52/52 53/53/53
f 53/53/53 55/55/55 54/54/54
f 54/54/54 55/55/55 56/56/56
f 57/57/57 56/56/56 55/55/55
f 58/58/58 56/56/56 57/57/57
f 57/57/57 59/59/59 58/58/58
f 57/57/57 60/60/60 59/59/59
f 61/61/61 59/59/59 60/60/60
f 61/61/61 60/60/60 62/62/62
f 62/62/62 63/63/63 61/61/61
f 62/62/62 64/64/64 63/63/63
f 65/65/65 63/63/63 64/64/64
f 65/65/65 64/64/64 66/66/66
f 66/66/66 67/67/67 65/65/65
f 66/66/66 68/68/68 67/67/67
f 69/69/69 67/67/67 68/68/68
f 69/69/69 68/68/68 70/70/70
f 70/70/70 71/71/71 69/69/69
f 70/70/70 72/72/72 71/71/71
f 73/73/73 71/71/71 72/72/72
f 73/73/73 72/72/72 74/74/74
f 74/74/74 75/75/75 73/73/73
f 73/73/73 75/75/75 76/76/76
f 76/76/76 75/75/75 77/77/77
f 78/78/78 77/77/77 75/75/75
f 79/79/79 77/77/77 78/78/78
f 82/82/82 81/81/81 80/80/80
f 81/81/81 83/83/83 80/80/80
f 84/84/84 80/80/80 83/83/83
f 84/84/84 83/83/83 85/85/85
f 85/85/85 86/86/86 84/84/84
f 85/85/85 87/87/87 86/86/86
f 87/87/87 88/88/88 86/86/86
f 87/87/87 89/89/89 88/88/88
f 90/90/90 88/88/88 89/89/89
f 90/90/90 89/89/89 91/91/91
f 90/90/90 91/91/91 92/92/92
f 93/93/93 92/92/92 91/91/91
f 94/94/94 92/92/92 93/93/93
f 93/93/93 95/95/95 94/94/94
f 94/94/94 95/95/95 96/96/96
f 97/97/97 96/96/96 95/95/95
f 98/98/98 96/96/96 97/97/97
f 99/99/99 98/98/98 97/97/97
f 99/99/99 100/100/100 98/98/98
f 99/99/99 101/101/101 100/100/100
f 100/100/100 101/101/101 102/102/102
f 103/103/103 102/102/102 101/101/101
f 104/104/104 102/102/102 103/103/103
f 105/105/105 104/104/104 103/103/103
f 106/106/106 104/104/104 105/105/105
f 107/107/107 106/106/106 105/105/105
