g M_HairAhoge
v 0.08407792 1.5661714 0.02997916
v 0.08639466 1.5676676 0.028595587
v 0.08395663 1.5593703 0.022325909
v 0.08409621 1.572537 0.03604197
v 0.0878428 1.5751387 0.032419886
v 0.08291702 1.5802008 0.04098548
v 0.08766244 1.5819618 0.03689437
v 0.081225164 1.5886866 0.04556615
v 0.08652791 1.5900118 0.040719677
v 0.078394644 1.6001393 0.049690552
v 0.08352179 1.6012945 0.044498775
v 0.075444885 1.6104796 0.053126965
v 0.08119278 1.6119014 0.04789945
v 0.07178329 1.6210761 0.055914614
v 0.0778456 1.6231153 0.05073295
v 0.06871981 1.6293076 0.057262015
v 0.07431011 1.6326302 0.05174712
v 0.064602576 1.6379347 0.058806486
v 0.070372894 1.6410868 0.05295311
v 0.060466684 1.6450585 0.05950175
v 0.06576931 1.6487563 0.053488493
v 0.056773905 1.6511184 0.05975381
v 0.061230578 1.654607 0.053524245
v 0.05209612 1.6561514 0.059358314
v 0.05546415 1.6594212 0.052933052
v 0.04796723 1.6592909 0.058547113
v 0.050947398 1.6627481 0.05196119
v 0.043964844 1.6611707 0.057096176
v 0.046525724 1.6639504 0.050641287
v 0.039781183 1.6614763 0.055124678
v 0.042381186 1.664499 0.049040455
v 0.034740906 1.6599525 0.052200317
v 0.038235925 1.6629547 0.04738702
v -0.08839002 1.5552006 0.023113327
v -0.08605164 1.5520958 0.026606502
v -0.08696774 1.5468756 0.016032944
v -0.08918855 1.5607101 0.029719094
v -0.08560488 1.5578309 0.034728285
v -0.088973604 1.5670242 0.036382053
v -0.08424176 1.5649121 0.042067397
v -0.087635875 1.5746031 0.04257014
v -0.08215034 1.5729082 0.049019836
v -0.08465391 1.5858182 0.049764857
v -0.07950284 1.5843674 0.05646558
v -0.08203181 1.5966029 0.0557857
v -0.076400995 1.5949936 0.062268414
v -0.07832894 1.6083955 0.06031945
v -0.072410084 1.6065272 0.06690038
v -0.07397791 1.6191723 0.06208615
v -0.06834411 1.6156808 0.06872891
v -0.06873992 1.6286979 0.06332073
v -0.06293236 1.6255527 0.07020909
v -0.06284838 1.6377826 0.063521266
v -0.057622388 1.6339084 0.0704371
v -0.057261184 1.6448576 0.0631009
v -0.052990418 1.641122 0.07008713
v -0.05077397 1.6509501 0.061749104
v -0.047608364 1.6473134 0.0690292
v -0.04585714 1.6548917 0.06012944
v -0.04301976 1.651436 0.067587666
v -0.0413129 1.6573179 0.057943944
v -0.038358998 1.6553018 0.06551335
v -0.03675836 1.6591295 0.05587038
v -0.033679675 1.6581923 0.062461894
v -0.031607274 1.6592518 0.05283741
v -0.027477017 1.6584578 0.057815205
v 0.006613945 1.642138 0.0598424
v 0.010281832 1.6456904 0.06252264
v 0.008519776 1.6415724 0.059748124
v 0.0073527764 1.6464856 0.06250365
v 0.013170706 1.6509417 0.06361558
v 0.009492662 1.6517314 0.06384035
v 0.012071117 1.6567966 0.063853204
v 0.015693484 1.6556756 0.06343237
v 0.014886424 1.6620337 0.062212776
v 0.018453846 1.6605814 0.061594117
v 0.021968402 1.66937 0.056515686
v 0.018461248 1.6707573 0.05730895
v 0.024448875 1.6760398 0.050266735
v 0.020284861 1.677705 0.050926313
v 0.024793811 1.6806921 0.04183903
v 0.021002822 1.6822947 0.043109506
v 0.024880528 1.6832663 0.03604259
v 0.020542597 1.6851321 0.037560266
v 0.020223984 1.68811 0.03043857
v 0.024318507 1.6858761 0.029197177
v 0.022926755 1.6876338 0.022088872
v 0.018930376 1.6901023 0.023011126
v 0.021545205 1.6907363 0.0123468805
v 0.01747607 1.6922036 0.0131075485
v 0.020527367 1.691821 0.0056946957
v 0.015494236 1.6931627 0.005148866
v -0.03238278 1.6007708 0.0820688
v -0.03350692 1.6075301 0.08349035
v -0.031923622 1.6074362 0.08483231
v -0.034226816 1.6158214 0.08477168
v -0.030998558 1.615394 0.086558715
v -0.032652058 1.6264501 0.08585062
v -0.029177662 1.62541 0.087809116
v -0.029722156 1.6370462 0.08500522
v -0.025575645 1.6354824 0.086991385
v -0.028091408 1.6407728 0.08440647
v -0.0236712 1.6394643 0.08618648
v -0.025842093 1.6452696 0.08274907
v -0.02183818 1.6422604 0.0852044
v -0.023484409 1.6479642 0.08136644
v -0.01947665 1.6450952 0.084066525
v -0.020583233 1.6505653 0.079997726
v -0.017237434 1.6472223 0.08279333
v -0.017799973 1.6521723 0.078825384
v -0.014616837 1.6488594 0.08142421
v -0.01447865 1.6537416 0.07725619
v -0.0116178375 1.6502348 0.07953888
v -0.011623819 1.6545634 0.07495908
v -0.008693271 1.65129 0.077186726
v -0.0084652575 1.6542262 0.07128491
v -0.005767042 1.6508245 0.07354298
v -0.0032768713 1.6496449 0.06920596
v -0.0056282664 1.6524729 0.06682145
v -0.00035749873 1.6464361 0.061254032
v -0.002195416 1.6498576 0.0610646
vt 0.981238 0.692171
vt 0.985467 0.692973
vt 0.983944 0.67812896
vt 0.979393 0.70431
vt 0.987513 0.704692
vt 0.978161 0.717093
vt 0.987192 0.71608603
vt 0.977418 0.730568
vt 0.987192 0.728425
vt 0.977302 0.747553
vt 0.987192 0.745287
vt 0.976573 0.762918
vt 0.987192 0.761003
vt 0.975765 0.778895
vt 0.987192 0.777749
vt 0.975383 0.791548
vt 0.987192 0.79203904
vt 0.974793 0.805634
vt 0.987192 0.805277
vt 0.974706 0.817823
vt 0.987192 0.81793296
vt 0.97531 0.828405
vt 0.987192 0.828391
vt 0.975703 0.838505
vt 0.987192 0.838937
vt 0.975825 0.84621
vt 0.987192 0.846891
vt 0.975704 0.853159
vt 0.987192 0.853444
vt 0.976828 0.860065
vt 0.987192 0.859656
vt 0.97763 0.867491
vt 0.987192 0.866187
vt 0.933105 0.669729
vt 0.939818 0.670122
vt 0.936767 0.654939
vt 0.931701 0.681286
vt 0.940207 0.68353903
vt 0.930725 0.694066
vt 0.940207 0.697564
vt 0.929766 0.708233
vt 0.940207 0.712642
vt 0.929554 0.727968
vt 0.940207 0.732516
vt 0.928957 0.74628496
vt 0.940207 0.750535
vt 0.928642 0.765743
vt 0.940207 0.769455
vt 0.927811 0.782822
vt 0.940207 0.784142
vt 0.927883 0.79851604
vt 0.940207 0.800334
vt 0.928105 0.81356
vt 0.940207 0.814152
vt 0.928759 0.82581
vt 0.940207 0.825908
vt 0.929341 0.83772004
vt 0.940207 0.837061
vt 0.929143 0.846529
vt 0.940207 0.845367
vt 0.929105 0.853661
vt 0.940207 0.852503
vt 0.929871 0.860247
vt 0.940207 0.85937
vt 0.931217 0.866804
vt 0.940207 0.866511
vt 0.95619 0.617133
vt 0.962084 0.625021
vt 0.962084 0.617553
vt 0.95619 0.624226
vt 0.962084 0.633713
vt 0.95619 0.632385
vt 0.95619 0.64043
vt 0.962084 0.641401
vt 0.95619 0.64951503
vt 0.962084 0.649876
vt 0.962084 0.66529703
vt 0.95619 0.664882
vt 0.962084 0.678825
vt 0.95619 0.678788
vt 0.962084 0.69240904
vt 0.95619 0.691833
vt 0.962084 0.70132804
vt 0.95619 0.700788
vt 0.95619 0.711829
vt 0.962084 0.711639
vt 0.962084 0.72205603
vt 0.95619 0.722804
vt 0.962084 0.736508
vt 0.95619 0.736996
vt 0.962084 0.746016
vt 0.95619 0.748291
vt 0.959298 0.755238
vt 0.958121 0.764682
vt 0.960926 0.76493204
vt 0.956878 0.776123
vt 0.961913 0.776084
vt 0.956878 0.790987
vt 0.96253 0.790538
vt 0.956878 0.806257
vt 0.963525 0.805526
vt 0.956878 0.81196404
vt 0.964032 0.812293
vt 0.956878 0.819306
vt 0.964593 0.81775904
vt 0.956878 0.824598
vt 0.964886 0.82393
vt 0.956878 0.830276
vt 0.964724 0.829315
vt 0.956878 0.834947
vt 0.964622 0.834641
vt 0.956878 0.840387
vt 0.964443 0.840297
vt 0.956878 0.845479
vt 0.964182 0.846048
vt 0.956878 0.852051
vt 0.964223 0.853266
vt 0.963127 0.86161304
vt 0.956878 0.859618
vt 0.956878 0.87479997
vt 0.956878 0.869398
vn 0.7545985 0.027924985 0.6555923
vn 0.7655839 0.028294604 0.64271367
vn 0.7798996 0.025625048 0.6253799
vn 0.7284854 0.030348083 0.6843888
vn 0.7515891 0.030739667 0.6589149
vn 0.6953649 0.032468364 0.717923
vn 0.7259024 0.032714166 0.6870192
vn 0.66759485 0.034541875 0.7437231
vn 0.70249873 0.03470131 0.71083856
vn 0.64246154 0.03665276 0.7654409
vn 0.6788726 0.03694475 0.7333261
vn 0.61488295 0.03837664 0.7876841
vn 0.6554861 0.03876168 0.7542118
vn 0.5851778 0.061527405 0.8085674
vn 0.62671095 0.07071381 0.77603674
vn 0.56413096 0.112630054 0.8179675
vn 0.6048188 0.12996806 0.78568614
vn 0.5349018 0.16968663 0.82769954
vn 0.57781845 0.19140871 0.7934031
vn 0.5045151 0.2339694 0.83109736
vn 0.5451807 0.26160154 0.79645634
vn 0.47460464 0.30135608 0.82700354
vn 0.51127267 0.3304843 0.79333496
vn 0.43408236 0.36969376 0.8215224
vn 0.4642647 0.40356305 0.7884131
vn 0.38252243 0.43450657 0.8154021
vn 0.4055958 0.47463763 0.7811601
vn 0.30543938 0.50830173 0.8051932
vn 0.3215683 0.5476567 0.77244157
vn 0.18248276 0.58618253 0.78936064
vn 0.19703344 0.62357587 0.75652564
vn 0.055920303 0.6394529 0.7667939
vn 0.07425304 0.6702041 0.73845303
vn -0.8386453 0.02684089 0.5440162
vn -0.8230847 0.026182383 0.5673147
vn -0.8639712 0.025470402 0.5028968
vn -0.8023838 0.027861822 0.59615767
vn -0.77100277 0.027736153 0.63622755
vn -0.75560075 0.029878678 0.6543506
vn -0.7179547 0.029766688 0.6954531
vn -0.7187034 0.03183671 0.6945876
vn -0.6772518 0.031700592 0.7350681
vn -0.68004656 0.03412241 0.7323745
vn -0.63701826 0.03384064 0.7701055
vn -0.6446071 0.03609732 0.7636614
vn -0.5990169 0.03567957 0.799941
vn -0.60886896 0.038273323 0.79234695
vn -0.55956286 0.038056362 0.8279137
vn -0.5802904 0.06376617 0.8119094
vn -0.53140956 0.043191433 0.8460132
vn -0.54645115 0.12329937 0.8283649
vn -0.49532542 0.10300302 0.86257935
vn -0.5109569 0.1915913 0.83798325
vn -0.46448466 0.1576641 0.8714333
vn -0.47541037 0.26491427 0.8389311
vn -0.434292 0.2260791 0.87193966
vn -0.43161833 0.34478125 0.8335655
vn -0.39829543 0.3001817 0.8667478
vn -0.39397693 0.4140531 0.8205743
vn -0.36476249 0.36338738 0.85726196
vn -0.359881 0.4866354 0.796035
vn -0.3303124 0.44013 0.83497256
vn -0.28284484 0.5924772 0.75430065
vn -0.26610076 0.5471621 0.79360193
vn -0.19144408 0.67372173 0.71375644
vn -0.16548562 0.64542276 0.74568355
vn 0.0009921358 0.03896073 0.9992403
vn 0.04238334 0.10443764 0.9936279
vn 0.016899962 0.038914375 0.9990996
vn 0.022912258 0.09961095 0.9947626
vn 0.09727835 0.18960007 0.97703063
vn 0.06987683 0.18242797 0.98073304
vn 0.10865463 0.2713476 0.95632875
vn 0.14066434 0.27129224 0.95216286
vn 0.15600708 0.3497563 0.9237599
vn 0.18403158 0.34450194 0.92057097
vn 0.22743319 0.43947685 0.8689847
vn 0.2014392 0.44454688 0.8728118
vn 0.2569841 0.55107176 0.7939012
vn 0.22896647 0.55748785 0.797986
vn 0.29747748 0.63606983 0.7119847
vn 0.27331048 0.6376636 0.72019887
vn 0.31722626 0.6818796 0.6590961
vn 0.2815553 0.6868664 0.6700308
vn 0.31221312 0.7462334 0.58792746
vn 0.34588063 0.74042517 0.57631344
vn 0.36199623 0.77456534 0.5186591
vn 0.32422245 0.7872769 0.52447575
vn 0.30001578 0.8423593 0.4476845
vn 0.25255153 0.85826665 0.4467619
vn 0.25960493 0.8875688 0.38056123
vn 0.21290898 0.9032313 0.37261647
vn -0.30227965 0.035856195 0.95254475
vn -0.2948575 0.03725458 0.95481473
vn -0.27920437 0.03738473 0.9595037
vn -0.2818744 0.03905008 0.9586563
vn -0.25624514 0.03912695 0.9658196
vn -0.2573767 0.08482644 0.96258074
vn -0.23097844 0.078794196 0.9697631
vn -0.23137031 0.14870398 0.9614338
vn -0.20025775 0.14000657 0.9696881
vn -0.21229693 0.18243417 0.9600249
vn -0.17968997 0.17353888 0.96829534
vn -0.18924202 0.22843884 0.95498854
vn -0.16404667 0.20336394 0.9652626
vn -0.17304772 0.25745267 0.95066965
vn -0.14670104 0.23265354 0.9614318
vn -0.14675263 0.28710142 0.9465921
vn -0.12104614 0.25949785 0.9581277
vn -0.11619272 0.30946344 0.9437858
vn -0.08840897 0.28268147 0.9551309
vn -0.0624565 0.33843255 0.93891567
vn -0.039807677 0.3125613 0.94906306
vn 0.011797215 0.38983557 0.9208089
vn 0.029499903 0.36280495 0.9313981
vn 0.13635843 0.45693505 0.87898624
vn 0.15387921 0.4238224 0.8925781
vn 0.29351625 0.4967703 0.81674194
vn 0.28668433 0.5129661 0.80912167
vn 0.38732007 0.44362378 0.8081961
vn 0.34750676 0.40764746 0.8444303
g M_HairAhoge_0
f 3/3/3 2/2/2 1/1/1
f 1/1/1 2/2/2 4/4/4
f 2/2/2 5/5/5 4/4/4
f 4/4/4 5/5/5 6/6/6
f 5/5/5 7/7/7 6/6/6
f 6/6/6 7/7/7 8/8/8
f 7/7/7 9/9/9 8/8/8
f 8/8/8 9/9/9 10/10/10
f 9/9/9 11/11/11 10/10/10
f 10/10/10 11/11/11 12/12/12
f 11/11/11 13/13/13 12/12/12
f 14/14/14 12/12/12 13/13/13
f 15/15/15 14/14/14 13/13/13
f 16/16/16 14/14/14 15/15/15
f 17/17/17 16/16/16 15/15/15
f 16/16/16 17/17/17 18/18/18
f 17/17/17 19/19/19 18/18/18
f 18/18/18 19/19/19 20/20/20
f 19/19/19 21/21/21 20/20/20
f 20/20/20 21/21/21 22/22/22
f 21/21/21 23/23/23 22/22/22
f 22/22/22 23/23/23 24/24/24
f 23/23/23 25/25/25 24/24/24
f 24/24/24 25/25/25 26/26/26
f 25/25/25 27/27/27 26/26/26
f 26/26/26 27/27/27 28/28/28
f 27/27/27 29/29/29 28/28/28
f 28/28/28 29/29/29 30/30/30
f 29/29/29 31/31/31 30/30/30
f 30/30/30 31/31/31 32/32/32
f 31/31/31 33/33/33 32/32/32
f 36/36/36 35/35/35 34/34/34
f 34/34/34 35/35/35 37/37/37
f 35/35/35 38/38/38 37/37/37
f 37/37/37 38/38/38 39/39/39
f 38/38/38 40/40/40 39/39/39
f 39/39/39 40/40/40 41/41/41
f 40/40/40 42/42/42 41/41/41
f 41/41/41 42/42/42 43/43/43
f 42/42/42 44/44/44 43/43/43
f 43/43/43 44/44/44 45/45/45
f 44/44/44 46/46/46 45/45/45
f 47/47/47 45/45/45 46/46/46
f 48/48/48 47/47/47 46/46/46
f 49/49/49 47/47/47 48/48/48
f 50/50/50 49/49/49 48/48/48
f 49/49/49 50/50/50 51/51/51
f 50/50/50 52/52/52 51/51/51
f 51/51/51 52/52/52 53/53/53
f 52/52/52 54/54/54 53/53/53
f 53/53/53 54/54/54 55/55/55
f 54/54/54 56/56/56 55/55/55
f 55/55/55 56/56/56 57/57/57
f 56/56/56 58/58/58 57/57/57
f 57/57/57 58/58/58 59/59/59
f 58/58/58 60/60/60 59/59/59
f 59/59/59 60/60/60 61/61/61
f 60/60/60 62/62/62 61/61/61
f 61/61/61 62/62/62 63/63/63
f 62/62/62 64/64/64 63/63/63
f 63/63/63 64/64/64 65/65/65
f 64/64/64 66/66/66 65/65/65
f 69/69/69 68/68/68 67/67/67
f 67/67/67 68/68/68 70/70/70
f 71/71/71 70/70/70 68/68/68
f 72/72/72 70/70/70 71/71/71
f 71/71/71 73/73/73 72/72/72
f 71/71/71 74/74/74 73/73/73
f 75/75/75 73/73/73 74/74/74
f 75/75/75 74/74/74 76/76/76
f 75/75/75 76/76/76 77/77/77
f 78/78/78 75/75/75 77/77/77
f 78/78/78 77/77/77 79/79/79
f 79/79/79 80/80/80 78/78/78
f 79/79/79 81/81/81 80/80/80
f 80/80/80 81/81/81 82/82/82
f 83/83/83 82/82/82 81/81/81
f 84/84/84 82/82/82 83/83/83
f 84/84/84 83/83/83 85/85/85
f 83/83/83 86/86/86 85/85/85
f 85/85/85 86/86/86 87/87/87
f 88/88/88 85/85/85 87/87/87
f 87/87/87 89/89/89 88/88/88
f 88/88/88 89/89/89 90/90/90
f 91/91/91 90/90/90 89/89/89
f 92/92/92 90/90/90 91/91/91
f 95/95/95 94/94/94 93/93/93
f 96/96/96 94/94/94 95/95/95
f 97/97/97 96/96/96 95/95/95
f 98/98/98 96/96/96 97/97/97
f 99/99/99 98/98/98 97/97/97
f 100/100/100 98/98/98 99/99/99
f 101/101/101 100/100/100 99/99/99
f 101/101/101 102/102/102 100/100/100
f 101/101/101 103/103/103 102/102/102
f 102/102/102 103/103/103 104/104/104
f 105/105/105 104/104/104 103/103/103
f 104/104/104 105/105/105 106/106/106
f 107/107/107 106/106/106 105/105/105
f 106/106/106 107/107/107 108/108/108
f 109/109/109 108/108/108 107/107/107
f 108/108/108 109/109/109 110/110/110
f 111/111/111 110/110/110 109/109/109
f 110/110/110 111/111/111 112/112/112
f 113/113/113 112/112/112 111/111/111
f 112/112/112 113/113/113 114/114/114
f 115/115/115 114/114/114 113/113/113
f 114/114/114 115/115/115 116/116/116
f 117/117/117 116/116/116 115/115/115
f 117/117/117 118/118/118 116/116/116
f 116/116/116 118/118/118 119/119/119
f 120/120/120 119/119/119 118/118/118
f 121/121/121 119/119/119 120/120/120
