g M_HairBK02
v 0.02924866 1.4565531 -0.06583038
v 0.028772417 1.4564075 -0.06864006
v 0.028867718 1.4513794 -0.071235865
v 0.029609445 1.4599459 -0.06698083
v 0.029981198 1.459868 -0.06263442
v 0.031922683 1.4664322 -0.06580983
v 0.031529617 1.4653102 -0.058454495
v 0.03462007 1.472956 -0.064154014
v 0.03345665 1.4733447 -0.053763922
v 0.037956107 1.478852 -0.053384025
v 0.03825109 1.481692 -0.06504387
v 0.035081472 1.4727893 -0.047542978
v 0.034681644 1.4700239 -0.04926788
v 0.03322704 1.4702083 -0.05445011
v 0.03459736 1.466608 -0.051819667
v 0.03363987 1.4676129 -0.054816674
v 0.03468924 1.4646298 -0.053629722
v 0.033970404 1.4646466 -0.05516543
v 0.0346506 1.461525 -0.056357995
v 0.035640374 1.4821649 -0.043474156
v 0.038755227 1.481816 -0.05071082
v 0.039776955 1.4822634 -0.05719671
v 0.045706168 1.4950546 -0.049015846
v 0.04225098 1.4962547 -0.04016144
v 0.04695445 1.4943571 -0.05825634
v 0.047615428 1.4935097 -0.06939296
v 0.056828573 1.5081832 -0.060039777
v 0.05286287 1.5087379 -0.04812513
v 0.04225098 1.4962547 -0.04016144
v 0.05015834 1.5088319 -0.03866437
v 0.05885334 1.5082948 -0.07383694
v 0.04420938 1.4916278 -0.08198453
v 0.055572815 1.5074098 -0.092685156
v 0.03554588 1.4818935 -0.075326115
v 0.03450382 1.4943665 -0.09392572
v 0.039501213 1.507077 -0.10328804
v 0.028484646 1.4812762 -0.085885644
v 0.023557266 1.4738394 -0.0764106
v 0.032970488 1.474844 -0.070364304
v 0.03462007 1.472956 -0.064154014
v 0.02423268 1.4687666 -0.06585882
v 0.031922683 1.4664322 -0.06580983
v 0.024326507 1.4637709 -0.067318544
v 0.029609445 1.4599459 -0.06698083
v 0.02486217 1.4610629 -0.06799755
v 0.028772417 1.4564075 -0.06864006
v 0.026294244 1.4566026 -0.06917412
v 0.028867718 1.4513794 -0.071235865
v 0.02423268 1.4687666 -0.06585882
v 0.021594018 1.4644755 -0.06875377
v 0.01672383 1.4736731 -0.08056238
v 0.013757064 1.4810569 -0.09516066
v 0.0195187 1.4664809 -0.07634921
v 0.017939482 1.460028 -0.071846984
v 0.014448013 1.4694542 -0.077658884
v 0.008596349 1.473166 -0.082830295
v 0.012341325 1.4644241 -0.07507287
v 0.008507319 1.4683295 -0.07979487
v 0.01570308 1.4607838 -0.076570615
v 0.013871048 1.4551405 -0.07455607
v 0.010986988 1.460323 -0.07468119
v 0.012130918 1.455614 -0.07715362
v 0.009267326 1.4502705 -0.07783879
v 0.009492915 1.4552629 -0.07513354
v -0.00033151865 1.4739741 -0.08239451
v -0.00019200429 1.4812558 -0.09653092
v -0.015029126 1.4809796 -0.0960004
v -0.008761403 1.4735969 -0.08191318
v -0.00022320091 1.4699731 -0.07816164
v 0.0015454144 1.4672788 -0.07725024
v 0.008507319 1.4683295 -0.07979487
v 0.003835418 1.4622904 -0.07549105
v 0.00849824 1.4642297 -0.07901988
v 0.008282644 1.459734 -0.07789436
v 0.006401788 1.458101 -0.075733684
v 0.008572544 1.4529135 -0.0763552
v -0.0015762455 1.467288 -0.07727184
v -0.008555972 1.4680156 -0.08002243
v -0.003816145 1.4618754 -0.07565765
v -0.008435854 1.4628557 -0.0795693
v -0.008155331 1.4576882 -0.07865422
v -0.0063354606 1.4570576 -0.07611827
v -0.008508392 1.4519044 -0.07672716
v -0.022518698 1.4798738 -0.08464583
v -0.034548756 1.484617 -0.09082651
v -0.030554619 1.482077 -0.07814889
v -0.025177693 1.4757783 -0.07581953
v -0.05037375 1.4922296 -0.08369913
v -0.030599974 1.477584 -0.06883254
v -0.038492765 1.4816056 -0.0652424
v -0.034491025 1.4729992 -0.064812675
v -0.023750093 1.4687856 -0.06584491
v -0.031183168 1.4664613 -0.065788515
v -0.024299087 1.4646324 -0.06784763
v -0.02930466 1.459958 -0.06697205
v -0.024631826 1.4610701 -0.06827436
v -0.028642999 1.4564127 -0.06863633
v -0.026215503 1.4566057 -0.06917185
v -0.028858623 1.4513797 -0.071235605
v -0.021549642 1.4637774 -0.06901107
v -0.019190522 1.4660314 -0.07704421
v -0.017779844 1.4575168 -0.072772585
v -0.015508562 1.4577239 -0.077698454
v -0.013596592 1.4508231 -0.07614739
v -0.011840501 1.4510455 -0.07883751
v -0.008941403 1.4451433 -0.079728544
v -0.009198583 1.4506327 -0.07684012
v -0.010770253 1.4569117 -0.07593873
v -0.012217848 1.4623163 -0.07586917
v -0.013874188 1.4693699 -0.07587276
v -0.017544927 1.4756323 -0.08031955
v -0.008555972 1.4680156 -0.08002243
v -0.008435854 1.4628557 -0.0795693
v -0.010770253 1.4569117 -0.07593873
v -0.008155331 1.4576882 -0.07865422
v -0.008508392 1.4519044 -0.07672716
v 0.012341325 1.4644241 -0.07507287
v 0.014448013 1.4694542 -0.077658884
v 0.00849824 1.4642297 -0.07901988
v 0.010986988 1.460323 -0.07468119
v 0.008282644 1.459734 -0.07789436
v 0.008572544 1.4529135 -0.0763552
v -0.028642999 1.4564127 -0.06863633
v -0.029065711 1.4565604 -0.065825105
v -0.028858623 1.4513797 -0.071235605
v -0.02930466 1.459958 -0.06697205
v -0.029591464 1.4598833 -0.06262319
v -0.031183168 1.4664613 -0.065788515
v -0.030888315 1.4653698 -0.05884692
v -0.034491025 1.4729992 -0.064812675
v -0.03291652 1.4735943 -0.054233417
v -0.035989605 1.4789001 -0.053323153
v -0.038492765 1.4816056 -0.0652424
v -0.03790245 1.482709 -0.052888863
v -0.037378266 1.4823331 -0.042660277
v -0.034661215 1.4742419 -0.04786377
v -0.034823034 1.4710705 -0.05011917
v -0.033020895 1.47073 -0.05469639
v -0.034887772 1.4676073 -0.05276079
v -0.033319756 1.4681623 -0.055160806
v -0.03475547 1.4654183 -0.05438161
v -0.033876132 1.4653094 -0.055864792
v -0.03439577 1.4619551 -0.056877766
v -0.040667124 1.4933258 -0.05171042
v -0.038492765 1.4816056 -0.0652424
v -0.041019354 1.4924682 -0.064689614
v -0.03790245 1.482709 -0.052888863
v -0.040259626 1.4926519 -0.039683674
v -0.037378266 1.4823331 -0.042660277
vt 0.138782 0.029618979
vt 0.146797 0.029080987
vt 0.1533 0.014048994
vt 0.141092 0.039461017
vt 0.128998 0.03740698
vt 0.133367 0.057464004
vt 0.115938 0.048870027
vt 0.123122 0.076253
vt 0.0962857 0.064248025
vt 0.0876233 0.08093399
vt 0.11298 0.100537
vt 0.0803888 0.058519006
vt 0.0866613 0.05279702
vt 0.100082 0.056683004
vt 0.0950144 0.045715988
vt 0.102229 0.050064027
vt 0.100316 0.041732013
vt 0.104295 0.042678
vt 0.107657 0.035369992
vt 0.0605414 0.076729
vt 0.0756019 0.08617401
vt 0.094701 0.093587995
vt 0.0506133 0.10950601
vt 0.0364277 0.092402995
vt 0.0656313 0.125153
vt 0.0901991 0.13742799
vt 0.0405406 0.15582198
vt 0.0230638 0.132487
vt 0.0364277 0.092402995
vt 0.00947443 0.11414999
vt 0.061134 0.18076402
vt 0.120788 0.15648699
vt 0.101721 0.21375102
vt 0.13595 0.11907703
vt 0.15821 0.176772
vt 0.153175 0.221385
vt 0.168028 0.13206398
vt 0.175023 0.092886984
vt 0.137602 0.091483
vt 0.123122 0.076253
vt 0.154856 0.064951
vt 0.133367 0.057464004
vt 0.155465 0.050628006
vt 0.141092 0.039461017
vt 0.154443 0.043735027
vt 0.146797 0.029080987
vt 0.153775 0.031437993
vt 0.1533 0.014048994
vt 0.154856 0.064951
vt 0.170141 0.06022203
vt 0.198428 0.09964502
vt 0.213692 0.15026802
vt 0.186412 0.07632798
vt 0.185052 0.053744018
vt 0.20419 0.085022986
vt 0.225385 0.10480797
vt 0.207279 0.0704
vt 0.224174 0.08607298
vt 0.196776 0.05985397
vt 0.197416 0.043820977
vt 0.209799 0.059530973
vt 0.20498 0.045614004
vt 0.211559 0.031391025
vt 0.213894 0.045706987
vt 0.252859 0.104815006
vt 0.253047 0.152264
vt 0.295336 0.15187699
vt 0.280326 0.10432899
vt 0.252638 0.08197498
vt 0.246746 0.076112986
vt 0.224174 0.08607298
vt 0.237582 0.06372398
vt 0.222602 0.07288998
vt 0.221781 0.059283018
vt 0.228886 0.05292499
vt 0.219327 0.039785028
vt 0.257998 0.07624501
vt 0.280699 0.08535397
vt 0.266194 0.063932
vt 0.281365 0.072010994
vt 0.280849 0.058303
vt 0.272967 0.052776992
vt 0.280598 0.037706017
vt 0.323362 0.12454802
vt 0.353555 0.15218902
vt 0.352982 0.119328976
vt 0.333055 0.09119302
vt 0.389254 0.14111203
vt 0.369471 0.08430201
vt 0.393916 0.09055698
vt 0.382071 0.06789303
vt 0.348362 0.059147
vt 0.368793 0.049407005
vt 0.346947 0.046998978
vt 0.358215 0.03106898
vt 0.345477 0.037332
vt 0.351806 0.021142006
vt 0.345273 0.024188995
vt 0.344004 0.0067530274
vt 0.333575 0.055990994
vt 0.317771 0.074938
vt 0.318504 0.049715996
vt 0.306542 0.056728005
vt 0.304471 0.03850901
vt 0.296736 0.041978
vt 0.288395 0.027830005
vt 0.287665 0.04338503
vt 0.293123 0.05724299
vt 0.296655 0.068449974
vt 0.301014 0.08331698
vt 0.307769 0.09849697
vt 0.280699 0.08535397
vt 0.281365 0.072010994
vt 0.293123 0.05724299
vt 0.280849 0.058303
vt 0.280598 0.037706017
vt 0.207279 0.0704
vt 0.20419 0.085022986
vt 0.222602 0.07288998
vt 0.209799 0.059530973
vt 0.221781 0.059283018
vt 0.219327 0.039785028
vt 0.351806 0.021142006
vt 0.359797 0.020973027
vt 0.344004 0.0067530274
vt 0.358215 0.03106898
vt 0.370088 0.027879
vt 0.368793 0.049407005
vt 0.38479 0.03814298
vt 0.382071 0.06789303
vt 0.407658 0.051468015
vt 0.418173 0.06311399
vt 0.393916 0.09055698
vt 0.424766 0.07414299
vt 0.445642 0.05704701
vt 0.424541 0.044937015
vt 0.415359 0.039588988
vt 0.403054 0.045023024
vt 0.404909 0.03393501
vt 0.398911 0.039178014
vt 0.398317 0.030488014
vt 0.394099 0.032589972
vt 0.38791 0.025169015
vt 0.419992 0.06591803
vt 0.393916 0.09055698
vt 0.388422 0.08092499
vt 0.424766 0.07414299
vt 0.436093 0.05273801
vt 0.445642 0.05704701
vn 0.9367768 0.012074998 -0.34971896
vn 0.9204459 0.014064 -0.39061698
vn 0.9119453 0.014848906 -0.41004315
vn 0.9428879 0.0101664 -0.332955
vn 0.963473 0.00929082 -0.267644
vn 0.96517056 0.0087509565 -0.2614749
vn 0.98666763 0.008988477 -0.16249993
vn 0.92627 0.00848497 -0.37676504
vn 0.9694686 0.008456016 -0.24506989
vn 0.98503786 0.012025798 -0.17191799
vn 0.90380037 0.0069257133 -0.42789817
vn 0.97018933 0.010158104 -0.2421351
vn 0.9444275 0.01692121 -0.32828417
vn 0.9308922 0.017572703 -0.36487108
vn 0.94209576 0.018986395 -0.3348059
vn 0.92773706 0.0190664 -0.372747
vn 0.90649265 0.019438993 -0.42177382
vn 0.8773182 0.019637004 -0.4795071
vn 0.8750759 0.020766199 -0.48353994
vn 0.9837427 0.014745795 -0.17897695
vn 0.9638896 0.015716294 -0.26583788
vn 0.9204522 0.009022292 -0.39075106
vn 0.9199731 0.00688544 -0.39192107
vn 0.9156142 0.0068977308 -0.40199906
vn 0.92561305 0.006867761 -0.37840903
vn 0.92561305 0.006867761 -0.37840903
vn 0.926017 0.0115168 -0.377306
vn 0.926017 0.0115168 -0.377306
vn 0.92561305 0.006867761 -0.37840903
vn 0.926017 0.0115168 -0.377306
vn 0.926017 0.0115168 -0.377306
vn 0.7929055 0.006524376 -0.6093096
vn 0.7504898 0.011957297 -0.6607738
vn 0.82565266 0.0021242492 -0.5641747
vn 0.57667 0.00799969 -0.81693804
vn 0.53095704 0.012184402 -0.8473112
vn 0.54860085 -0.42364794 -0.7208048
vn 0.5328348 -0.10266996 -0.8399678
vn 0.7619126 0.0026112085 -0.6476747
vn 0.6302058 0.011094999 -0.7763488
vn 0.46468207 0.014297502 -0.88536215
vn 0.2831019 0.018901493 -0.9589037
vn 0.27712908 0.018973408 -0.9606454
vn 0.35914102 0.018698102 -0.93309605
vn 0.35694504 0.019866005 -0.9339141
vn 0.36854702 0.020768302 -0.92937714
vn 0.34041515 0.020332308 -0.94005543
vn 0.35850206 0.021111406 -0.9332902
vn 0.72188365 0.009167005 -0.69195366
vn 0.86630034 0.005129182 -0.49949718
vn 0.18341705 -0.6749352 -0.71471715
vn 0.124128036 -0.8931213 -0.43235013
vn 0.43334404 0.010786 -0.90116405
vn 0.7814919 0.0051946086 -0.62389386
vn 0.26830804 -0.10990502 -0.9570432
vn 0.15649305 -0.73901725 -0.65525824
vn 0.24523695 0.013225298 -0.9693729
vn 0.57787585 -0.070778094 -0.8130498
vn 0.3356149 0.013213194 -0.94190663
vn 0.68672526 0.005901991 -0.7268932
vn -0.25304198 0.018316299 -0.9672819
vn 0.05596957 0.016955491 -0.99828845
vn 0.13064693 0.01626579 -0.99129546
vn -0.42722997 0.020129098 -0.9039189
vn 0.0013610095 -0.8516108 -0.52417284
vn 0.0074588996 -0.85721 -0.514913
vn -0.14540803 -0.90238017 -0.40566805
vn -0.13301201 -0.74335915 -0.65553415
vn 0.00545691 -0.548042 -0.83643305
vn -0.47524998 -0.151319 -0.866741
vn -0.3880339 -0.07528868 -0.91856474
vn -0.38364884 0.010824696 -0.92341566
vn -0.34994587 0.012038596 -0.93669266
vn -0.3985571 0.010069704 -0.91708827
vn -0.4514149 0.009299568 -0.89226574
vn -0.46403193 0.009557299 -0.8857669
vn 0.49114493 -0.13600497 -0.86039484
vn 0.42329696 -0.055362593 -0.9042979
vn 0.441705 0.011864601 -0.897082
vn 0.4146779 0.013525896 -0.9098677
vn 0.50981295 0.00966088 -0.860231
vn 0.576276 0.0078863 -0.81721705
vn 0.5721587 0.007924366 -0.82010466
vn -0.17508806 -0.86965925 -0.46155918
vn -0.37108696 -0.86310196 -0.34256297
vn -0.41021708 -0.82908314 -0.3799251
vn -0.49928984 -0.23640592 -0.83355975
vn -0.7387966 -0.57869357 -0.34538877
vn -0.7427862 -0.24552007 -0.62288725
vn -0.93823224 0.0049340012 -0.34597105
vn -0.62095493 0.010346299 -0.78377795
vn -0.66479826 0.011380704 -0.74693626
vn -0.30079195 0.018372996 -0.9535128
vn -0.3243059 0.019623395 -0.94574875
vn -0.40900078 0.01824359 -0.9123516
vn -0.37485215 0.018075207 -0.9269084
vn -0.38057786 0.020586092 -0.92451966
vn -0.3416079 0.019765195 -0.93963474
vn -0.362064 0.021201503 -0.9319121
vn -0.87572104 0.0070487503 -0.48276606
vn -0.43282795 0.013063998 -0.9013819
vn -0.79999787 0.0074282493 -0.5999569
vn -0.3504501 0.014493403 -0.93646926
vn -0.7054817 0.0067806966 -0.70869565
vn -0.062174104 0.0167301 -0.99792504
vn -0.14353694 0.015500493 -0.9895236
vn 0.42233878 0.019296693 -0.9062326
vn 0.23981202 0.018335802 -0.9706461
vn -0.229951 0.0146471 -0.973092
vn -0.26785806 -0.04191301 -0.9625463
vn -0.21360187 -0.5174847 -0.8286035
vn -0.55660206 -0.050907608 -0.8292181
vn -0.53735423 0.012880905 -0.8432583
vn -0.56158483 0.010639796 -0.8273507
vn -0.54348403 0.010948501 -0.83934814
vn -0.5494441 0.009529302 -0.8354761
vn 0.24523695 0.013225298 -0.9693729
vn 0.265336 -0.161693 -0.950501
vn 0.579878 0.011651501 -0.8146201
vn 0.62677 0.010770899 -0.7791299
vn 0.6215872 0.011523404 -0.7832603
vn 0.62531525 0.011170704 -0.7802923
vn -0.925606 0.014465401 -0.37821203
vn -0.9417069 0.012692497 -0.33619493
vn -0.9174522 0.015109003 -0.39755908
vn -0.947984 0.011020901 -0.318127
vn -0.96573555 0.010288896 -0.25932392
vn -0.96309364 0.008454566 -0.2690339
vn -0.9872278 0.0087495595 -0.15907498
vn -0.9292717 0.008678237 -0.36929488
vn -0.97272485 0.011145699 -0.23169397
vn -0.9915175 0.008539125 -0.12969194
vn -0.93823224 0.0049340012 -0.34597105
vn -0.997609 0.0080360705 -0.0686412
vn -0.9986199 0.0113295 -0.051284295
vn -0.9747857 0.013341095 -0.22274393
vn -0.9219768 0.020369397 -0.38670892
vn -0.8805492 0.019362204 -0.4735591
vn -0.8716112 0.020571606 -0.48976612
vn -0.8390189 0.019881098 -0.543739
vn -0.8420189 0.020354798 -0.539064
vn -0.8312638 0.020176595 -0.55551183
vn -0.82916504 0.0195459 -0.55866206
vn -0.997609 0.0080360705 -0.0686412
vn -0.93823224 0.0049340012 -0.34597105
vn -0.93823224 0.0049340012 -0.34597105
vn -0.997609 0.0080360705 -0.0686412
vn -0.9986199 0.0113295 -0.051284295
vn -0.9986199 0.0113295 -0.051284295
g M_HairBK02_0
f 3/3/3 2/2/2 1/1/1
f 1/1/1 2/2/2 4/4/4
f 5/5/5 1/1/1 4/4/4
f 5/5/5 4/4/4 6/6/6
f 7/7/7 5/5/5 6/6/6
f 7/7/7 6/6/6 8/8/8
f 7/7/7 8/8/8 9/9/9
f 8/8/8 10/10/10 9/9/9
f 8/8/8 11/11/11 10/10/10
f 9/9/9 10/10/10 12/12/12
f 12/12/12 13/13/13 9/9/9
f 9/9/9 13/13/13 14/14/14
f 15/15/15 14/14/14 13/13/13
f 16/16/16 14/14/14 15/15/15
f 15/15/15 17/17/17 16/16/16
f 17/17/17 18/18/18 16/16/16
f 19/19/19 18/18/18 17/17/17
f 10/10/10 20/20/20 12/12/12
f 10/10/10 21/21/21 20/20/20
f 11/11/11 22/22/22 10/10/10
f 10/10/10 22/22/22 21/21/21
f 21/21/21 23/23/23 20/20/20
f 24/24/24 20/20/20 23/23/23
f 22/22/22 25/25/25 21/21/21
f 23/23/23 21/21/21 25/25/25
f 26/26/26 22/22/22 11/11/11
f 26/26/26 25/25/25 22/22/22
f 25/25/25 27/27/27 23/23/23
f 28/28/28 23/23/23 27/27/27
f 23/23/23 28/28/28 29/29/29
f 30/30/30 29/29/29 28/28/28
f 31/31/31 27/27/27 25/25/25
f 31/31/31 25/25/25 26/26/26
f 31/31/31 26/26/26 32/32/32
f 33/33/33 31/31/31 32/32/32
f 26/26/26 11/11/11 34/34/34
f 32/32/32 26/26/26 34/34/34
f 33/33/33 32/32/32 35/35/35
f 36/36/36 33/33/33 35/35/35
f 35/35/35 32/32/32 37/37/37
f 32/32/32 34/34/34 37/37/37
f 37/37/37 34/34/34 38/38/38
f 11/11/11 39/39/39 34/34/34
f 38/38/38 34/34/34 39/39/39
f 40/40/40 39/39/39 11/11/11
f 41/41/41 39/39/39 40/40/40
f 40/40/40 42/42/42 41/41/41
f 43/43/43 41/41/41 42/42/42
f 42/42/42 44/44/44 43/43/43
f 44/44/44 45/45/45 43/43/43
f 44/44/44 46/46/46 45/45/45
f 46/46/46 47/47/47 45/45/45
f 48/48/48 47/47/47 46/46/46
f 38/38/38 39/39/39 49/49/49
f 49/49/49 50/50/50 38/38/38
f 38/38/38 51/51/51 37/37/37
f 52/52/52 37/37/37 51/51/51
f 38/38/38 50/50/50 53/53/53
f 54/54/54 53/53/53 50/50/50
f 55/55/55 51/51/51 38/38/38
f 38/38/38 53/53/53 55/55/55
f 52/52/52 51/51/51 56/56/56
f 56/56/56 51/51/51 55/55/55
f 53/53/53 57/57/57 55/55/55
f 55/55/55 58/58/58 56/56/56
f 59/59/59 53/53/53 54/54/54
f 53/53/53 59/59/59 57/57/57
f 54/54/54 60/60/60 59/59/59
f 61/61/61 57/57/57 59/59/59
f 60/60/60 62/62/62 59/59/59
f 59/59/59 62/62/62 61/61/61
f 63/63/63 62/62/62 60/60/60
f 64/64/64 61/61/61 62/62/62
f 64/64/64 62/62/62 63/63/63
f 52/52/52 56/56/56 65/65/65
f 66/66/66 52/52/52 65/65/65
f 66/66/66 65/65/65 67/67/67
f 67/67/67 65/65/65 68/68/68
f 65/65/65 56/56/56 69/69/69
f 65/65/65 69/69/69 68/68/68
f 69/69/69 56/56/56 70/70/70
f 71/71/71 70/70/70 56/56/56
f 70/70/70 71/71/71 72/72/72
f 71/71/71 73/73/73 72/72/72
f 72/72/72 73/73/73 74/74/74
f 72/72/72 74/74/74 75/75/75
f 75/75/75 74/74/74 76/76/76
f 69/69/69 77/77/77 68/68/68
f 78/78/78 68/68/68 77/77/77
f 77/77/77 79/79/79 78/78/78
f 78/78/78 79/79/79 80/80/80
f 79/79/79 81/81/81 80/80/80
f 79/79/79 82/82/82 81/81/81
f 82/82/82 83/83/83 81/81/81
f 68/68/68 84/84/84 67/67/67
f 67/67/67 84/84/84 85/85/85
f 85/85/85 84/84/84 86/86/86
f 87/87/87 86/86/86 84/84/84
f 85/85/85 86/86/86 88/88/88
f 88/88/88 86/86/86 89/89/89
f 89/89/89 86/86/86 87/87/87
f 90/90/90 88/88/88 89/89/89
f 91/91/91 90/90/90 89/89/89
f 92/92/92 91/91/91 89/89/89
f 87/87/87 92/92/92 89/89/89
f 91/91/91 92/92/92 93/93/93
f 94/94/94 93/93/93 92/92/92
f 93/93/93 94/94/94 95/95/95
f 95/95/95 94/94/94 96/96/96
f 95/95/95 96/96/96 97/97/97
f 97/97/97 96/96/96 98/98/98
f 99/99/99 97/97/97 98/98/98
f 92/92/92 87/87/87 100/100/100
f 87/87/87 101/101/101 100/100/100
f 102/102/102 100/100/100 101/101/101
f 103/103/103 102/102/102 101/101/101
f 102/102/102 103/103/103 104/104/104
f 104/104/104 103/103/103 105/105/105
f 106/106/106 104/104/104 105/105/105
f 107/107/107 106/106/106 105/105/105
f 107/107/107 105/105/105 108/108/108
f 103/103/103 108/108/108 105/105/105
f 108/108/108 103/103/103 109/109/109
f 101/101/101 109/109/109 103/103/103
f 87/87/87 110/110/110 101/101/101
f 101/101/101 110/110/110 109/109/109
f 110/110/110 87/87/87 111/111/111
f 87/87/87 84/84/84 111/111/111
f 111/111/111 84/84/84 68/68/68
f 68/68/68 110/110/110 111/111/111
f 110/110/110 68/68/68 112/112/112
f 110/110/110 112/112/112 109/109/109
f 109/109/109 112/112/112 113/113/113
f 114/114/114 109/109/109 113/113/113
f 114/114/114 113/113/113 115/115/115
f 116/116/116 114/114/114 115/115/115
f 118/118/118 117/117/117 58/58/58
f 117/117/117 119/119/119 58/58/58
f 120/120/120 119/119/119 117/117/117
f 120/120/120 121/121/121 119/119/119
f 122/122/122 121/121/121 120/120/120
f 125/125/125 124/124/124 123/123/123
f 124/124/124 126/126/126 123/123/123
f 127/127/127 126/126/126 124/124/124
f 127/127/127 128/128/128 126/126/126
f 129/129/129 128/128/128 127/127/127
f 129/129/129 130/130/130 128/128/128
f 129/129/129 131/131/131 130/130/130
f 130/130/130 131/131/131 132/132/132
f 130/130/130 132/132/132 133/133/133
f 134/134/134 133/133/133 132/132/132
f 132/132/132 135/135/135 134/134/134
f 132/132/132 136/136/136 135/135/135
f 131/131/131 136/136/136 132/132/132
f 136/136/136 131/131/131 137/137/137
f 131/131/131 138/138/138 137/137/137
f 139/139/139 137/137/137 138/138/138
f 140/140/140 139/139/139 138/138/138
f 139/139/139 140/140/140 141/141/141
f 141/141/141 140/140/140 142/142/142
f 143/143/143 141/141/141 142/142/142
f 146/146/146 145/145/145 144/144/144
f 147/147/147 144/144/144 145/145/145
f 144/144/144 147/147/147 148/148/148
f 149/149/149 148/148/148 147/147/147
