g M_HairOP01
v -0.11187586 1.6128575 -0.0014413834
v -0.112898126 1.6078842 -0.008318977
v -0.11183867 1.6091646 -0.011843977
v -0.110278584 1.6160082 -0.00686794
v -0.11035666 1.6202085 0.006668968
v -0.10871342 1.6223929 -0.0022124648
v -0.107007034 1.6311837 0.015200996
v -0.1060144 1.6304873 0.002948084
v -0.09940006 1.6453521 0.012468404
v -0.100915104 1.6461618 0.025609778
v -0.09111626 1.6621668 0.020736298
v -0.1048485 1.6175559 0.013775367
v -0.09985214 1.6281283 0.025852079
v -0.108232774 1.6109631 0.0032745742
v -0.09059161 1.6446838 0.03882083
v -0.112898126 1.6078842 -0.008318977
v -0.11363489 1.6000236 -0.0200082
v -0.11032777 1.6064618 -0.0048389435
v -0.09139824 1.6614115 0.035663262
v -0.081295356 1.6584022 0.04715145
v -0.08066768 1.6765051 0.042228486
v -0.08090397 1.6765362 0.027308421
v -0.071857736 1.6699574 0.049875718
v -0.06771845 1.6914686 0.044417102
v -0.06771845 1.6914686 0.044417102
v -0.06885782 1.6895242 0.031904105
v -0.059057217 1.683721 0.050081786
v -0.05604785 1.7031782 0.045600604
v -0.04837845 1.6927452 0.048178215
v -0.04791831 1.7073675 0.044548567
v -0.042567052 1.6975055 0.04593906
v -0.04088889 1.7075162 0.0423756
v -0.037583455 1.7011168 0.04326912
v -0.03677109 1.7065834 0.040537346
v -0.035413865 1.7022471 0.04217697
v -0.05604785 1.7031782 0.045600604
v -0.05618033 1.6984929 0.033777848
v -0.048835997 1.7026988 0.034591902
v -0.04791831 1.7073675 0.044548567
v -0.04304586 1.7046849 0.034764327
v -0.04088889 1.7075162 0.0423756
v -0.03782615 1.7056952 0.035142478
v -0.03677109 1.7065834 0.040537346
v -0.035197165 1.7054054 0.03515419
v -0.033648904 1.7050779 0.03899313
v -0.032748695 1.703058 0.040190123
v -0.033205234 1.7045408 0.035768736
v -0.031420726 1.7027789 0.0370739
v -0.03124708 1.723124 -0.051707428
v -0.030720558 1.7246853 -0.055809896
v -0.029874897 1.726486 -0.054752693
v -0.029154815 1.7258086 -0.059747543
v -0.028198928 1.7283131 -0.058195703
v -0.026857795 1.7260427 -0.06519546
v -0.024711533 1.7296841 -0.063571855
v -0.02370346 1.7258542 -0.07105419
v -0.02039421 1.7301508 -0.06890386
v -0.0201333 1.7246286 -0.07695669
v -0.015744098 1.7292135 -0.07439864
v -0.014636118 1.7224102 -0.08565002
v -0.009251407 1.7276524 -0.08249607
v -0.008607821 1.7191334 -0.09536759
v -0.0012958567 1.7243372 -0.09255791
v -0.0018678469 1.7122837 -0.10811624
v 0.0067677256 1.719106 -0.104113825
v 0.0044052834 1.7042629 -0.11870261
v 0.014212031 1.7102046 -0.116099104
v 0.01271378 1.6914461 -0.13166763
v 0.004493404 1.7221963 -0.087787904
v 0.013749995 1.7164828 -0.098870024
v -0.0039244113 1.7252111 -0.07815851
v 0.022415156 1.7083312 -0.11098581
v -0.015744098 1.7292135 -0.07439864
v -0.011181144 1.727399 -0.071114
v -0.016551247 1.7280406 -0.0661178
v -0.02039421 1.7301508 -0.06890386
v -0.02197998 1.7282306 -0.061313324
v -0.024711533 1.7296841 -0.063571855
v -0.026196135 1.7272483 -0.0568997
v -0.028198928 1.7283131 -0.058195703
v -0.029874897 1.726486 -0.054752693
v -0.028833503 1.7258095 -0.0544112
v -0.03124708 1.723124 -0.051707428
v 0.03287498 1.6938921 -0.124845214
v 0.023441538 1.6946542 -0.13157085
v 0.040932577 1.674584 -0.13937122
v 0.030849678 1.6747049 -0.14435124
v 0.01942914 1.6721324 -0.14303097
v 0.0233607 1.653302 -0.14952968
v 0.03433906 1.6559036 -0.15214252
v 0.04426214 1.6551442 -0.14703761
v 0.035039894 1.6399665 -0.15681803
v 0.025515985 1.6383984 -0.15403932
v 0.0446862 1.6386924 -0.15066452
v 0.034938984 1.6237348 -0.16115735
v 0.0266015 1.6230092 -0.15679842
v 0.032568272 1.6128567 -0.16381331
v 0.025819892 1.612471 -0.15840445
v 0.030835776 1.6063277 -0.1658042
v 0.02543872 1.6060569 -0.16039978
v 0.028931996 1.6001334 -0.16838565
v 0.023848023 1.5987402 -0.16418079
v 0.02595686 1.5934287 -0.17190954
v 0.022113439 1.5919968 -0.16967632
v 0.021109479 1.5854799 -0.177682
v 0.034938984 1.6237348 -0.16115735
v 0.042743687 1.6227087 -0.15432249
v 0.03978798 1.6111482 -0.15798071
v 0.032568272 1.6128567 -0.16381331
v 0.036401298 1.6035637 -0.16060497
v 0.030835776 1.6063277 -0.1658042
v 0.03290393 1.5973834 -0.1634858
v 0.028931996 1.6001334 -0.16838565
v 0.02595686 1.5934287 -0.17190954
v 0.027910044 1.5911257 -0.16922878
v 0.021109479 1.5854799 -0.177682
v 0.011348833 1.7025006 0.0682056
v 0.006566086 1.6843545 0.07409023
v -0.005662212 1.6958972 0.06384647
v 0.023347441 1.6902478 0.07899479
v 0.018721428 1.6709918 0.08239969
v 0.0332272 1.6763598 0.08587842
v 0.030597823 1.6544228 0.08811659
v 0.04241485 1.6576492 0.09142612
v 0.0332272 1.6763598 0.08587842
v 0.040710524 1.6353974 0.09069839
v 0.050210923 1.6378763 0.0940472
v -0.009524536 1.7185516 0.0469767
v -0.016903533 1.7201229 0.038736343
v -0.0048395917 1.7162579 0.035596866
v -0.011516171 1.716987 0.031070938
v -0.01804267 1.7165663 0.027935456
v -0.021032466 1.7090422 0.04282115
v -0.016903533 1.7201229 0.038736343
v -0.009524536 1.7185516 0.0469767
v -0.024452211 1.7096086 0.035987176
v -0.022285456 1.7176694 0.032071546
v -0.016903533 1.7201229 0.038736343
v -0.025044518 1.7152536 0.028661994
v -0.027191468 1.7095748 0.029961623
v -0.03030672 1.708893 0.022258358
v -0.005662212 1.6958972 0.06384647
v -0.0015142417 1.7132663 0.056076698
v 0.011348833 1.7025006 0.0682056
v -0.01600784 1.7053071 0.0509157
v -0.009524536 1.7185516 0.0469767
v -0.021032466 1.7090422 0.04282115
v 0.0055076024 1.7108732 0.04533662
v -0.009524536 1.7185516 0.0469767
v -0.0048395917 1.7162579 0.035596866
v -0.0015142417 1.7132663 0.056076698
v 0.017044602 1.7023422 0.057082765
v 0.011348833 1.7025006 0.0682056
v 0.029815368 1.6886213 0.06834473
v 0.023347441 1.6902478 0.07899479
v 0.039802242 1.6747841 0.07587031
v 0.0332272 1.6763598 0.08587842
v 0.04841917 1.6577395 0.0819166
v 0.04241485 1.6576492 0.09142612
v 0.050210923 1.6378763 0.0940472
v 0.05486899 1.6382842 0.08631438
v 0.0541588 1.6241782 0.09352551
v 0.057878993 1.6246432 0.08683613
v 0.05597939 1.6127026 0.09299762
v 0.059486702 1.6131644 0.08737926
v -0.016903533 1.7201229 0.038736343
v -0.022285456 1.7176694 0.032071546
v -0.01804267 1.7165663 0.027935456
v -0.025044518 1.7152536 0.028661994
v -0.02399007 1.713985 0.025522206
v -0.03030672 1.708893 0.022258358
v 0.050210923 1.6378763 0.0940472
v 0.04567211 1.6230155 0.09065319
v 0.040710524 1.6353974 0.09069839
v 0.0541588 1.6241782 0.09352551
v 0.04915979 1.6119713 0.0903508
v 0.05597939 1.6127026 0.09299762
v 0.052237894 1.6015927 0.089475356
v 0.057915762 1.6017268 0.09145128
v 0.05486223 1.5917666 0.08886925
v 0.059164952 1.5920552 0.09023223
v 0.056859978 1.5830114 0.08751488
v 0.059273634 1.5833267 0.08832855
v 0.05873898 1.572543 0.08555533
v 0.059486702 1.6131644 0.08737926
v 0.057915762 1.6017268 0.09145128
v 0.05597939 1.6127026 0.09299762
v 0.06052093 1.6012385 0.08716571
v 0.059164952 1.5920552 0.09023223
v 0.060698703 1.5918242 0.08721585
v 0.059273634 1.5833267 0.08832855
v 0.060153443 1.5834618 0.08664377
v 0.05873898 1.572543 0.08555533
vt 0.455608 0.9092427
vt 0.468811 0.9103013
vt 0.472631 0.9051461
vt 0.459866 0.899299
vt 0.439208 0.9067638
vt 0.447616 0.894416
vt 0.419642 0.9018326
vt 0.432988 0.8884
vt 0.405688 0.87847
vt 0.390352 0.893539
vt 0.375216 0.867983
vt 0.430045 0.9201843
vt 0.406207 0.916848
vt 0.450046 0.9186639
vt 0.371823 0.9092278
vt 0.468811 0.9103013
vt 0.491623 0.91219413
vt 0.46497 0.9169199
vt 0.360467 0.885468
vt 0.343997 0.9006512
vt 0.333153 0.873958
vt 0.348345 0.85685
vt 0.320514 0.890387
vt 0.307708 0.857463
vt 0.307708 0.857463
vt 0.322511 0.844228
vt 0.295381 0.87376
vt 0.285879 0.843237
vt 0.275756 0.860833
vt 0.275444 0.836987
vt 0.265726 0.851346
vt 0.266419 0.83241403
vt 0.257735 0.84144104
vt 0.26009 0.828843
vt 0.253686 0.836278
vt 0.285879 0.843237
vt 0.300882 0.830429
vt 0.286849 0.823734
vt 0.275444 0.836987
vt 0.275609 0.820074
vt 0.266419 0.83241403
vt 0.264924 0.81823397
vt 0.26009 0.828843
vt 0.2586 0.817212
vt 0.253559 0.825449
vt 0.249011 0.829062
vt 0.252863 0.817881
vt 0.246196 0.820821
vt 0.907704 0.9147893
vt 0.897096 0.9153479
vt 0.898083 0.919912
vt 0.888631 0.9178611
vt 0.890995 0.9225561
vt 0.878958 0.9202311
vt 0.881545 0.9267932
vt 0.869042 0.9236383
vt 0.872634 0.9314282
vt 0.859116 0.9271179
vt 0.863342 0.936087
vt 0.84476 0.9322187
vt 0.849947 0.9424477
vt 0.828842 0.9377602
vt 0.833329 0.9499167
vt 0.807292 0.94270897
vt 0.814378 0.9568582
vt 0.787677 0.9475628
vt 0.793015 0.9624972
vt 0.761132 0.9541285
vt 0.836865 0.9601141
vt 0.817023 0.9688929
vt 0.85357 0.9520312
vt 0.794584 0.9756596
vt 0.863342 0.936087
vt 0.866177 0.9441456
vt 0.875484 0.938475
vt 0.872634 0.9314282
vt 0.884557 0.9319525
vt 0.881545 0.9267932
vt 0.893176 0.9264077
vt 0.890995 0.9225561
vt 0.898083 0.919912
vt 0.899717 0.9220294
vt 0.907704 0.9147893
vt 0.765164 0.9842811
vt 0.762177 0.9690653
vt 0.731033 0.9892088
vt 0.7297 0.9741633
vt 0.729662 0.9583253
vt 0.701878 0.9597564
vt 0.702188 0.9754935
vt 0.702147 0.9906751
vt 0.679693 0.9741367
vt 0.68004 0.9602524
vt 0.67889 0.9899936
vt 0.656566 0.9719296
vt 0.658193 0.958859
vt 0.640899 0.9679112
vt 0.643423 0.9557889
vt 0.630872 0.9651165
vt 0.634071 0.9545058
vt 0.620869 0.9621599
vt 0.622303 0.952474
vt 0.609547 0.9580854
vt 0.609754 0.9512551
vt 0.594666 0.9517901
vt 0.656566 0.9719296
vt 0.656262 0.9864064
vt 0.639634 0.9812258
vt 0.640899 0.9679112
vt 0.628551 0.9764546
vt 0.630872 0.9651165
vt 0.61903 0.9718631
vt 0.620869 0.9621599
vt 0.609547 0.9580854
vt 0.60779 0.9636901
vt 0.594666 0.9517901
vt 0.344994 0.9523051
vt 0.367003 0.9315245
vt 0.336711 0.925079
vt 0.37665 0.9578138
vt 0.398172 0.9377836
vt 0.402862 0.9611357
vt 0.42989 0.9440177
vt 0.433833 0.9626384
vt 0.402862 0.9611357
vt 0.460583 0.9471077
vt 0.463263 0.9627027
vt 0.302515 0.9416798
vt 0.288989 0.9356289
vt 0.294462 0.95788157
vt 0.282196 0.9484025
vt 0.273655 0.9373241
vt 0.297865 0.9183082
vt 0.288989 0.9356289
vt 0.302515 0.9416798
vt 0.284976 0.9163471
vt 0.279583 0.9293795
vt 0.288989 0.9356289
vt 0.273737 0.9231023
vt 0.27487 0.9146668
vt 0.266207 0.9134701
vt 0.336711 0.925079
vt 0.31782 0.9469564
vt 0.344994 0.9523051
vt 0.310833 0.9203924
vt 0.302515 0.9416798
vt 0.297865 0.9183082
vt 0.31591 0.9670153
vt 0.302515 0.9416798
vt 0.294462 0.95788157
vt 0.31782 0.9469564
vt 0.34247 0.9732159
vt 0.344994 0.9523051
vt 0.374754 0.9767996
vt 0.37665 0.9578138
vt 0.403754 0.9785954
vt 0.402862 0.9611357
vt 0.434005 0.9789816
vt 0.433833 0.9626384
vt 0.463263 0.9627027
vt 0.463833 0.9767368
vt 0.479915 0.9626253
vt 0.482391 0.9746836
vt 0.495511 0.9613839
vt 0.497458 0.9719434
vt 0.288989 0.9356289
vt 0.279583 0.9293795
vt 0.273655 0.9373241
vt 0.273737 0.9231023
vt 0.269149 0.9270164
vt 0.266207 0.9134701
vt 0.463263 0.9627027
vt 0.477058 0.9485864
vt 0.460583 0.9471077
vt 0.479915 0.9626253
vt 0.492707 0.9498172
vt 0.495511 0.9613839
vt 0.508268 0.9510365
vt 0.509994 0.9606222
vt 0.522473 0.9520664
vt 0.523442 0.95925367
vt 0.534998 0.9529684
vt 0.535235 0.957069
vt 0.550942 0.9533309
vt 0.497458 0.9719434
vt 0.509994 0.9606222
vt 0.495511 0.9613839
vt 0.513044 0.96838963
vt 0.523442 0.95925367
vt 0.525662 0.964458
vt 0.535235 0.957069
vt 0.536357 0.9601052
vt 0.550942 0.9533309
vn -0.9583087 0.07897848 0.27460292
vn -0.9782844 0.1560289 0.13643493
vn -0.9819457 0.15313296 0.111053966
vn -0.9708845 0.18177392 0.15601793
vn -0.934465 0.127497 0.33244497
vn -0.9553617 0.22785996 0.18805294
vn -0.8949734 0.22750513 0.38375014
vn -0.92905676 0.29817995 0.21895696
vn -0.872753 0.407185 0.269263
vn -0.8284318 0.33099392 0.4518229
vn -0.7817457 0.5128408 0.3547789
vn -0.8834889 0.05701919 0.46496895
vn -0.8325514 0.15657108 0.5313602
vn -0.91869706 0.038622 0.39307004
vn -0.73931706 0.27898902 0.6128421
vn -0.96434605 0.038636103 0.26180902
vn -0.98990494 0.039363395 0.13615699
vn -0.9418572 0.03710591 0.33395812
vn -0.73089314 0.43969908 0.5219771
vn -0.638796 0.38904804 0.663763
vn -0.62056184 0.54175884 0.56692183
vn -0.68701476 0.60602075 0.40093586
vn -0.5364651 0.4745751 0.6978422
vn -0.54353094 0.6732708 0.5012789
vn -0.47809798 0.597771 0.6435
vn -0.583856 0.70282704 0.40638202
vn -0.41828004 0.56022906 0.71497214
vn -0.362352 0.665022 0.65302896
vn -0.29275817 0.61285436 0.73396343
vn -0.27235213 0.6960004 0.6643853
vn -0.21281987 0.6500797 0.72945464
vn -0.18451896 0.714985 0.6743509
vn -0.162565 0.69046307 0.7048641
vn -0.12498197 0.73839587 0.6626848
vn -0.144124 0.72302914 0.6756161
vn -0.4402891 0.76651925 0.46754012
vn -0.47506016 0.80432624 0.35689914
vn -0.40509605 0.84238905 0.355356
vn -0.36272788 0.8212646 0.44040084
vn -0.32272297 0.8760448 0.35832295
vn -0.26972103 0.85962206 0.433936
vn -0.23442693 0.89079475 0.38926688
vn -0.181216 0.87675 0.44549996
vn -0.14195497 0.8990378 0.4142219
vn -0.0579259 0.834258 0.5483229
vn -0.06174844 0.7765905 0.62697244
vn -0.035584796 0.9002889 0.43383595
vn 0.062475078 0.8603867 0.50579786
vn -0.4774262 0.8749263 -0.08104463
vn -0.4407621 0.8863832 -0.14161102
vn -0.42996192 0.8922648 -0.13782696
vn -0.3995309 0.8920408 -0.21127796
vn -0.38136914 0.90326035 -0.19666807
vn -0.34075287 0.9024416 -0.2636029
vn -0.30439496 0.91977787 -0.247694
vn -0.27822706 0.90850824 -0.31177312
vn -0.23677704 0.92669225 -0.29185307
vn -0.22835895 0.90697575 -0.3539029
vn -0.14569798 0.9426118 -0.30042496
vn -0.18083006 0.8949183 -0.40794817
vn -0.06302951 0.94160414 -0.33077005
vn -0.121272035 0.8725603 -0.47321415
vn -0.0012334796 0.9136847 -0.40642187
vn -0.06508576 0.82189554 -0.5659077
vn 0.0574793 0.8687981 -0.491819
vn -0.014087895 0.7619898 -0.6474358
vn 0.10801798 0.7989518 -0.59161496
vn 0.0456634 0.6651481 -0.74531406
vn 0.11360798 0.9362948 -0.33233294
vn 0.18122606 0.8877473 -0.4231572
vn 0.057365224 0.96714336 -0.24767509
vn 0.22683989 0.81211656 -0.5375967
vn -0.060736775 0.9698996 -0.23580888
vn -0.0035612388 0.9804057 -0.19695695
vn -0.032504693 0.99008065 -0.13668898
vn -0.058930505 0.98614305 -0.15507801
vn -0.08804843 0.99297935 -0.078990325
vn -0.10841405 0.9892674 -0.097961135
vn -0.12207004 0.9924672 -0.010378304
vn -0.13665502 0.99018705 -0.029240904
vn -0.13444903 0.9857283 0.10130703
vn -0.11698294 0.9846305 0.12968293
vn -0.14177407 0.97265846 0.18394509
vn 0.29025108 0.70223624 -0.65009123
vn 0.17071998 0.6846299 -0.70861596
vn 0.32790703 0.54390705 -0.7724261
vn 0.21055205 0.5334271 -0.8192212
vn 0.08130513 0.51635015 -0.8525093
vn 0.08164857 0.38803086 -0.91802263
vn 0.23157299 0.39897498 -0.8872389
vn 0.3653882 0.39404523 -0.8433385
vn 0.24236009 0.28757507 -0.9265863
vn 0.075491965 0.28475988 -0.9556216
vn 0.39709014 0.2704491 -0.8770273
vn 0.19158392 0.18502292 -0.96387863
vn 0.021536106 0.18750608 -0.98202735
vn 0.049928807 0.15271601 -0.98700804
vn -0.04457201 0.14820804 -0.9879512
vn -0.000104986015 0.14948402 -0.98876417
vn -0.06822861 0.14930001 -0.9864352
vn -0.011611697 0.14846297 -0.9888498
vn -0.058217067 0.1577369 -0.9857635
vn -0.0068477085 0.14204298 -0.9898369
vn -0.036378115 0.14934708 -0.98811543
vn -0.00960066 0.099050306 -0.99503607
vn 0.273134 0.17098698 -0.94665796
vn 0.4142171 0.15307707 -0.8972132
vn 0.38524297 0.090182595 -0.918398
vn 0.33237484 0.09732295 -0.93811256
vn 0.36865905 0.04802911 -0.9283231
vn 0.33550406 0.064264014 -0.93984425
vn 0.36672992 0.039187394 -0.92950183
vn 0.33793393 0.039565295 -0.94033784
vn 0.311584 0.038211 -0.94944996
vn 0.33294213 0.037925016 -0.9421843
vn 0.25379896 0.03731869 -0.9665368
vn -0.37484634 0.40014246 0.83628714
vn -0.365044 0.32992792 0.8705691
vn -0.41470537 0.42590252 0.80413085
vn -0.3495801 0.2892057 0.89115304
vn -0.3090732 0.1983854 0.9301167
vn -0.29525036 0.1757868 0.9391093
vn -0.28237143 0.07449016 0.9564087
vn -0.2925614 0.052625068 0.95479757
vn -0.29525036 0.1757868 0.9391093
vn -0.30695608 -0.05905665 0.9498896
vn -0.31620383 -0.06800431 0.9462508
vn 0.39587313 0.9182957 0.0041807173
vn 0.17333946 0.96270734 -0.20772097
vn 0.3507437 0.93315613 -0.07873113
vn 0.17565416 0.94825715 -0.26448816
vn -0.06877553 0.9273573 -0.36780217
vn -0.69123036 0.47040907 0.548558
vn -0.6996922 0.45623595 0.5497997
vn -0.57224196 0.471314 0.6711201
vn -0.8012573 0.42841828 0.4176655
vn -0.79871786 0.4227087 0.42821386
vn -0.6996922 0.45623595 0.5497997
vn -0.8412562 0.40357903 0.3597387
vn -0.8487477 0.40003335 0.3458334
vn -0.7975306 0.60038435 0.059020817
vn -0.41470537 0.42590252 0.80413085
vn -0.47099078 0.4567981 0.7546543
vn -0.37484634 0.40014246 0.83628714
vn -0.55627275 0.46998885 0.68532556
vn -0.57224196 0.47131407 0.6711201
vn -0.69123036 0.47040907 0.548558
vn 0.47750357 0.8735399 0.094437115
vn 0.39587313 0.9182958 0.0041807177
vn 0.3507437 0.93315613 -0.07873113
vn 0.4786361 0.8666014 0.14110118
vn 0.5270345 0.8162551 0.23656349
vn 0.53805476 0.8035958 0.25442258
vn 0.63249457 0.72101337 0.28300232
vn 0.63403904 0.7205667 0.28067452
vn 0.71746254 0.5882672 0.37308058
vn 0.7103295 0.5900255 0.38379952
vn 0.76190144 0.44223166 0.4732202
vn 0.7579513 0.4387183 0.48273817
vn 0.8090896 0.30164728 0.5043639
vn 0.8138867 0.29551294 0.5002605
vn 0.8541174 0.16550092 0.4930446
vn 0.8527672 0.16532186 0.49543586
vn 0.8450645 0.104766995 0.5242994
vn 0.8410018 0.10729991 0.5302854
vn 0.17333946 0.96270734 -0.20772097
vn -0.12403787 0.91970015 -0.3725133
vn -0.06877553 0.9273573 -0.36780214
vn -0.26710042 0.8556729 -0.44326207
vn -0.323632 0.83453906 -0.44587767
vn -0.7975306 0.60038435 0.059020817
vn -0.31620383 -0.06800431 0.9462508
vn -0.30262378 -0.12272654 0.94517565
vn -0.30695608 -0.05905665 0.9498896
vn -0.31218126 -0.118077636 0.9426561
vn -0.33517763 -0.13988785 0.93171203
vn -0.3419898 -0.14062476 0.9291219
vn -0.32453927 -0.16669099 0.9310684
vn -0.31604803 -0.16620712 0.934071
vn -0.2921041 -0.17840421 0.9395995
vn -0.2863032 -0.18189053 0.94071585
vn -0.28554413 -0.2166905 0.93354684
vn -0.28659844 -0.21526113 0.93355453
vn -0.28464723 -0.22549891 0.93173283
vn 0.8410018 0.107299924 0.5302854
vn 0.8537579 0.058651514 0.5173561
vn 0.8450645 0.104766995 0.5242994
vn 0.86036265 0.0515169 0.5070721
vn 0.8847881 -0.021617245 0.46549174
vn 0.8896337 -0.037673872 0.45511827
vn 0.88376266 -0.12097003 0.45202863
vn 0.8836992 -0.12292379 0.45162553
vn 0.8803519 -0.15860622 0.4470175
g M_HairOP01_0
f 3/3/3 2/2/2 1/1/1
f 4/4/4 3/3/3 1/1/1
f 1/1/1 5/5/5 4/4/4
f 4/4/4 5/5/5 6/6/6
f 7/7/7 6/6/6 5/5/5
f 8/8/8 6/6/6 7/7/7
f 7/7/7 9/9/9 8/8/8
f 7/7/7 10/10/10 9/9/9
f 11/11/11 9/9/9 10/10/10
f 1/1/1 12/12/12 5/5/5
f 13/13/13 5/5/5 12/12/12
f 7/7/7 5/5/5 13/13/13
f 14/14/14 12/12/12 1/1/1
f 13/13/13 15/15/15 7/7/7
f 7/7/7 15/15/15 10/10/10
f 1/1/1 16/16/16 14/14/14
f 17/17/17 16/16/16 3/3/3
f 16/16/16 18/18/18 14/14/14
f 17/17/17 18/18/18 16/16/16
f 10/10/10 15/15/15 19/19/19
f 11/11/11 10/10/10 19/19/19
f 20/20/20 19/19/19 15/15/15
f 19/19/19 21/21/21 11/11/11
f 19/19/19 20/20/20 21/21/21
f 21/21/21 22/22/22 11/11/11
f 23/23/23 21/21/21 20/20/20
f 21/21/21 24/24/24 22/22/22
f 25/25/25 21/21/21 23/23/23
f 26/26/26 22/22/22 24/24/24
f 25/25/25 23/23/23 27/27/27
f 27/27/27 28/28/28 25/25/25
f 27/27/27 29/29/29 28/28/28
f 30/30/30 28/28/28 29/29/29
f 29/29/29 31/31/31 30/30/30
f 30/30/30 31/31/31 32/32/32
f 33/33/33 32/32/32 31/31/31
f 33/33/33 34/34/34 32/32/32
f 33/33/33 35/35/35 34/34/34
f 24/24/24 36/36/36 26/26/26
f 26/26/26 36/36/36 37/37/37
f 37/37/37 36/36/36 38/38/38
f 39/39/39 38/38/38 36/36/36
f 40/40/40 38/38/38 39/39/39
f 39/39/39 41/41/41 40/40/40
f 41/41/41 42/42/42 40/40/40
f 41/41/41 43/43/43 42/42/42
f 42/42/42 43/43/43 44/44/44
f 45/45/45 34/34/34 35/35/35
f 45/45/45 44/44/44 43/43/43
f 45/45/45 35/35/35 46/46/46
f 47/47/47 44/44/44 45/45/45
f 45/45/45 46/46/46 48/48/48
f 48/48/48 47/47/47 45/45/45
f 51/51/51 50/50/50 49/49/49
f 52/52/52 50/50/50 51/51/51
f 52/52/52 51/51/51 53/53/53
f 54/54/54 52/52/52 53/53/53
f 54/54/54 53/53/53 55/55/55
f 55/55/55 56/56/56 54/54/54
f 55/55/55 57/57/57 56/56/56
f 58/58/58 56/56/56 57/57/57
f 58/58/58 57/57/57 59/59/59
f 59/59/59 60/60/60 58/58/58
f 59/59/59 61/61/61 60/60/60
f 62/62/62 60/60/60 61/61/61
f 62/62/62 61/61/61 63/63/63
f 63/63/63 64/64/64 62/62/62
f 63/63/63 65/65/65 64/64/64
f 66/66/66 64/64/64 65/65/65
f 66/66/66 65/65/65 67/67/67
f 67/67/67 68/68/68 66/66/66
f 63/63/63 61/61/61 69/69/69
f 69/69/69 70/70/70 63/63/63
f 63/63/63 70/70/70 65/65/65
f 69/69/69 61/61/61 71/71/71
f 72/72/72 65/65/65 70/70/70
f 67/67/67 65/65/65 72/72/72
f 73/73/73 71/71/71 61/61/61
f 74/74/74 71/71/71 73/73/73
f 73/73/73 75/75/75 74/74/74
f 73/73/73 76/76/76 75/75/75
f 77/77/77 75/75/75 76/76/76
f 77/77/77 76/76/76 78/78/78
f 78/78/78 79/79/79 77/77/77
f 78/78/78 80/80/80 79/79/79
f 80/80/80 81/81/81 79/79/79
f 81/81/81 82/82/82 79/79/79
f 83/83/83 82/82/82 81/81/81
f 72/72/72 84/84/84 67/67/67
f 67/67/67 84/84/84 85/85/85
f 67/67/67 85/85/85 68/68/68
f 86/86/86 85/85/85 84/84/84
f 85/85/85 87/87/87 68/68/68
f 87/87/87 85/85/85 86/86/86
f 88/88/88 68/68/68 87/87/87
f 88/88/88 87/87/87 89/89/89
f 87/87/87 86/86/86 90/90/90
f 90/90/90 89/89/89 87/87/87
f 91/91/91 90/90/90 86/86/86
f 92/92/92 89/89/89 90/90/90
f 90/90/90 91/91/91 92/92/92
f 93/93/93 89/89/89 92/92/92
f 94/94/94 92/92/92 91/91/91
f 92/92/92 95/95/95 93/93/93
f 95/95/95 96/96/96 93/93/93
f 95/95/95 97/97/97 96/96/96
f 96/96/96 97/97/97 98/98/98
f 97/97/97 99/99/99 98/98/98
f 98/98/98 99/99/99 100/100/100
f 101/101/101 100/100/100 99/99/99
f 102/102/102 100/100/100 101/101/101
f 101/101/101 103/103/103 102/102/102
f 103/103/103 104/104/104 102/102/102
f 105/105/105 104/104/104 103/103/103
f 92/92/92 94/94/94 106/106/106
f 107/107/107 106/106/106 94/94/94
f 107/107/107 108/108/108 106/106/106
f 106/106/106 108/108/108 109/109/109
f 108/108/108 110/110/110 109/109/109
f 109/109/109 110/110/110 111/111/111
f 112/112/112 111/111/111 110/110/110
f 113/113/113 111/111/111 112/112/112
f 112/112/112 114/114/114 113/113/113
f 112/112/112 115/115/115 114/114/114
f 114/114/114 115/115/115 116/116/116
f 119/119/119 118/118/118 117/117/117
f 117/117/117 118/118/118 120/120/120
f 121/121/121 120/120/120 118/118/118
f 122/122/122 120/120/120 121/121/121
f 121/121/121 123/123/123 122/122/122
f 125/125/125 123/123/123 124/124/124
f 126/126/126 124/124/124 123/123/123
f 127/127/127 124/124/124 126/126/126
f 130/130/130 129/129/129 128/128/128
f 130/130/130 131/131/131 129/129/129
f 129/129/129 131/131/131 132/132/132
f 135/135/135 134/134/134 133/133/133
f 134/134/134 136/136/136 133/133/133
f 138/138/138 137/137/137 136/136/136
f 137/137/137 139/139/139 136/136/136
f 139/139/139 140/140/140 136/136/136
f 141/141/141 140/140/140 139/139/139
f 144/144/144 143/143/143 142/142/142
f 142/142/142 143/143/143 145/145/145
f 146/146/146 145/145/145 143/143/143
f 147/147/147 145/145/145 146/146/146
f 150/150/150 149/149/149 148/148/148
f 151/151/151 148/148/148 149/149/149
f 148/148/148 151/151/151 152/152/152
f 153/153/153 152/152/152 151/151/151
f 153/153/153 154/154/154 152/152/152
f 153/153/153 155/155/155 154/154/154
f 156/156/156 154/154/154 155/155/155
f 156/156/156 155/155/155 157/157/157
f 156/156/156 157/157/157 158/158/158
f 159/159/159 158/158/158 157/157/157
f 160/160/160 158/158/158 159/159/159
f 161/161/161 158/158/158 160/160/160
f 160/160/160 162/162/162 161/161/161
f 161/161/161 162/162/162 163/163/163
f 164/164/164 163/163/163 162/162/162
f 165/165/165 163/163/163 164/164/164
f 168/168/168 167/167/167 166/166/166
f 168/168/168 169/169/169 167/167/167
f 168/168/168 170/170/170 169/169/169
f 169/169/169 170/170/170 171/171/171
f 174/174/174 173/173/173 172/172/172
f 172/172/172 173/173/173 175/175/175
f 176/176/176 175/175/175 173/173/173
f 177/177/177 175/175/175 176/176/176
f 176/176/176 178/178/178 177/177/177
f 177/177/177 178/178/178 179/179/179
f 180/180/180 179/179/179 178/178/178
f 181/181/181 179/179/179 180/180/180
f 180/180/180 182/182/182 181/181/181
f 182/182/182 183/183/183 181/181/181
f 184/184/184 183/183/183 182/182/182
f 187/187/187 186/186/186 185/185/185
f 185/185/185 186/186/186 188/188/188
f 189/189/189 188/188/188 186/186/186
f 190/190/190 188/188/188 189/189/189
f 189/189/189 191/191/191 190/190/190
f 191/191/191 192/192/192 190/190/190
f 193/193/193 192/192/192 191/191/191
