g M_HairAcc
v -0.03434678 1.491596 -0.07828407
v -0.034757767 1.4951112 -0.07457222
v -0.0320759 1.4942538 -0.07768202
v -0.036841273 1.4922198 -0.07575879
v -0.036386136 1.4887375 -0.0779157
v -0.03950852 1.4962635 -0.07436916
v -0.038053513 1.4894645 -0.07577499
v -0.040231403 1.4937336 -0.07508285
v -0.04331702 1.4973974 -0.07714937
v -0.04065872 1.4917141 -0.07546895
v -0.043375663 1.4949347 -0.07826515
v -0.043767888 1.4983559 -0.08168228
v -0.044298306 1.4930269 -0.07806932
v -0.043796647 1.49561 -0.08144983
v -0.041348133 1.4973652 -0.08617238
v -0.045201752 1.4930111 -0.08131927
v -0.04212157 1.4940487 -0.08509277
v -0.03804728 1.4966884 -0.08694206
v -0.043367963 1.491479 -0.084256925
v -0.03864742 1.4927002 -0.085854106
v -0.03438818 1.4956421 -0.08645561
v -0.0407313 1.4898984 -0.0842382
v -0.03614405 1.4917995 -0.08499174
v -0.03258993 1.4943179 -0.08493593
v -0.038432024 1.4886684 -0.0836305
v -0.03454027 1.4913595 -0.08393056
v -0.031574573 1.4936979 -0.08153164
v -0.036636427 1.4879936 -0.082393415
v -0.03387637 1.49132 -0.08109163
v -0.0320759 1.4942538 -0.07768202
v -0.036107805 1.4881217 -0.0802549
v -0.03434678 1.491596 -0.07828407
v -0.036386136 1.4887375 -0.0779157
v -0.03689477 1.4990005 -0.080027625
v -0.043767888 1.4983559 -0.08168228
v -0.041348133 1.4973652 -0.08617238
v -0.04331702 1.4973974 -0.07714937
v -0.03804728 1.4966884 -0.08694206
v -0.03950852 1.4962635 -0.07436916
v -0.03438818 1.4956421 -0.08645561
v -0.034757767 1.4951112 -0.07457222
v -0.03258993 1.4943179 -0.08493593
v -0.0320759 1.4942538 -0.07768202
v -0.031574573 1.4936979 -0.08153164
v -0.03887926 1.4915386 -0.08038747
v -0.0407313 1.4898984 -0.0842382
v -0.043367963 1.491479 -0.084256925
v -0.038432024 1.4886684 -0.0836305
v -0.045201752 1.4930111 -0.08131927
v -0.036636427 1.4879936 -0.082393415
v -0.044298306 1.4930269 -0.07806932
v -0.036107805 1.4881217 -0.0802549
v -0.04065872 1.4917141 -0.07546895
v -0.036386136 1.4887375 -0.0779157
v -0.038053513 1.4894645 -0.07577499
vt 0.630218 0.9555997
vt 0.303823 0.882337
vt 0.303823 0.9729056
vt 0.650448 0.867324
vt 0.950786 0.9240517
vt 0.303823 0.776034
vt 0.950786 0.856251
vt 0.630294 0.774731
vt 0.303823 0.657448
vt 0.950786 0.77802503
vt 0.639543 0.651422
vt 0.303823 0.562701
vt 0.950786 0.659061
vt 0.585643 0.56389904
vt 0.303823 0.43550003
vt 0.950786 0.573184
vt 0.635189 0.44323403
vt 0.303823 0.355646
vt 0.950786 0.46341503
vt 0.619883 0.33933997
vt 0.303823 0.26725698
vt 0.950786 0.36524498
vt 0.612631 0.264683
vt 0.303823 0.204831
vt 0.950786 0.27374703
vt 0.585212 0.207582
vt 0.303823 0.12150401
vt 0.950786 0.19416702
vt 0.59072 0.12940598
vt 0.303823 0.031135976
vt 0.950786 0.12251103
vt 0.630218 0.055682003
vt 0.950786 0.047187984
vt 0.140331 0.812116
vt 0.199201 0.892016
vt 0.252677 0.834226
vt 0.126855 0.90948343
vt 0.245436 0.78232
vt 0.0616722 0.869874
vt 0.213967 0.732171
vt 0.0364797 0.800348
vt 0.177269 0.707954
vt 0.065893 0.74262
vt 0.118909 0.70957804
vt 0.1413 0.56409204
vt 0.240379 0.576812
vt 0.259482 0.514392
vt 0.207606 0.626891
vt 0.213033 0.448797
vt 0.162817 0.65571404
vt 0.137795 0.440659
vt 0.110508 0.648424
vt 0.0521624 0.496464
vt 0.061924 0.618507
vt 0.0278948 0.56629896
vn 0.68599164 -0.57874554 0.4409866
vn 0.30045515 -0.50873196 0.8067952
vn 0.6201914 -0.64582443 0.44527903
vn 0.32929003 -0.39441496 0.8579073
vn 0.757024 -0.4442134 0.4791546
vn -0.32981944 -0.26986602 0.9046499
vn 0.44738942 -0.25954098 0.8558512
vn -0.3400881 -0.15238094 0.92796564
vn -0.85813844 -0.10124645 0.50333637
vn -0.24072067 0.01465143 0.97048384
vn -0.8603021 0.10258755 0.49935552
vn -0.9689043 0.01159574 -0.24716367
vn -0.77004445 0.32691067 0.54786944
vn -0.9564982 0.15691283 -0.24594618
vn -0.6181834 -0.120941795 -0.7766739
vn -0.87872523 0.38978592 -0.27551565
vn -0.60420394 -0.06396863 -0.7942578
vn -0.100196145 -0.28292996 -0.9538927
vn -0.5714644 0.016969122 -0.8204513
vn -0.07068421 -0.33638045 -0.9390698
vn 0.19199643 -0.3925121 -0.89948404
vn -0.106404215 -0.37606743 -0.92046267
vn 0.20071198 -0.4586921 -0.8656305
vn 0.56067115 -0.5941699 -0.5767235
vn 0.1772864 -0.52162814 -0.8345499
vn 0.59641707 -0.6118257 -0.519573
vn 0.7404533 -0.6704416 -0.047295894
vn 0.63850373 -0.6183656 -0.45818877
vn 0.77687836 -0.62941396 -0.017268578
vn 0.6201914 -0.64582443 0.44527903
vn 0.8204084 -0.57153434 0.016690504
vn 0.68599164 -0.57874554 0.4409866
vn 0.757024 -0.4442134 0.4791546
vn 0.263719 0.9602219 0.091793574
vn -0.08638369 0.9958352 -0.02915437
vn 0.03134703 0.960006 -0.2782191
vn -0.09242446 0.9431995 0.31911176
vn 0.21070997 0.9159736 -0.34145808
vn 0.09133311 0.8792688 0.46748763
vn 0.48315156 0.83908623 -0.24999766
vn 0.4165854 0.80943155 0.41385645
vn 0.6778848 0.72829825 -0.1002686
vn 0.6599136 0.7384522 0.13857284
vn 0.6985481 0.7140501 -0.046506777
vn -0.47910073 -0.868502 0.1271489
vn -0.46411362 -0.7122799 0.526551
vn -0.31248802 -0.87237054 0.37592652
vn -0.54250467 -0.664776 0.5135773
vn -0.24975467 -0.94821537 0.19624034
vn -0.6805777 -0.636197 0.36341095
vn -0.26187697 -0.9650728 0.0074112476
vn -0.7708007 -0.6194188 0.1489515
vn -0.44533202 -0.8859568 -0.12946002
vn -0.69448584 -0.71164894 -0.10604371
vn -0.64011973 -0.7370393 -0.21684028
g M_HairAcc_0
f 3/3/3 2/2/2 1/1/1
f 2/2/2 4/4/4 1/1/1
f 1/1/1 4/4/4 5/5/5
f 2/2/2 6/6/6 4/4/4
f 4/4/4 7/7/7 5/5/5
f 6/6/6 8/8/8 4/4/4
f 4/4/4 8/8/8 7/7/7
f 6/6/6 9/9/9 8/8/8
f 8/8/8 10/10/10 7/7/7
f 9/9/9 11/11/11 8/8/8
f 8/8/8 11/11/11 10/10/10
f 9/9/9 12/12/12 11/11/11
f 11/11/11 13/13/13 10/10/10
f 12/12/12 14/14/14 11/11/11
f 11/11/11 14/14/14 13/13/13
f 14/14/14 12/12/12 15/15/15
f 14/14/14 16/16/16 13/13/13
f 17/17/17 14/14/14 15/15/15
f 16/16/16 14/14/14 17/17/17
f 17/17/17 15/15/15 18/18/18
f 19/19/19 16/16/16 17/17/17
f 20/20/20 17/17/17 18/18/18
f 19/19/19 17/17/17 20/20/20
f 20/20/20 18/18/18 21/21/21
f 22/22/22 19/19/19 20/20/20
f 23/23/23 20/20/20 21/21/21
f 22/22/22 20/20/20 23/23/23
f 23/23/23 21/21/21 24/24/24
f 25/25/25 22/22/22 23/23/23
f 26/26/26 23/23/23 24/24/24
f 25/25/25 23/23/23 26/26/26
f 26/26/26 24/24/24 27/27/27
f 28/28/28 25/25/25 26/26/26
f 29/29/29 26/26/26 27/27/27
f 28/28/28 26/26/26 29/29/29
f 27/27/27 30/30/30 29/29/29
f 31/31/31 28/28/28 29/29/29
f 30/30/30 32/32/32 29/29/29
f 29/29/29 32/32/32 31/31/31
f 32/32/32 33/33/33 31/31/31
f 36/36/36 35/35/35 34/34/34
f 35/35/35 37/37/37 34/34/34
f 38/38/38 36/36/36 34/34/34
f 37/37/37 39/39/39 34/34/34
f 40/40/40 38/38/38 34/34/34
f 39/39/39 41/41/41 34/34/34
f 34/34/34 42/42/42 40/40/40
f 41/41/41 43/43/43 34/34/34
f 44/44/44 42/42/42 34/34/34
f 43/43/43 44/44/44 34/34/34
f 47/47/47 46/46/46 45/45/45
f 46/46/46 48/48/48 45/45/45
f 49/49/49 47/47/47 45/45/45
f 48/48/48 50/50/50 45/45/45
f 51/51/51 49/49/49 45/45/45
f 45/45/45 50/50/50 52/52/52
f 53/53/53 51/51/51 45/45/45
f 52/52/52 54/54/54 45/45/45
f 55/55/55 53/53/53 45/45/45
f 54/54/54 55/55/55 45/45/45
