g M_HairAho
v -0.02615677 1.6802223 0.0008094237
v -0.028821882 1.6832168 0.000877985
v -0.027119666 1.6842649 0.00064987113
v -0.03113901 1.6850722 0.0005144272
v -0.028507635 1.6870828 -5.3196854E-05
v -0.030720072 1.690881 -0.0017057998
v -0.03394505 1.687812 -0.00076292374
v -0.037644777 1.6898226 -0.003011184
v -0.034326784 1.6938293 -0.004082386
v -0.038650822 1.6952951 -0.007101784
v -0.041925147 1.691039 -0.005817433
v -0.04328571 1.6959689 -0.010874507
v -0.04697592 1.6922768 -0.009693365
v -0.047766857 1.6964428 -0.015049225
v -0.051075295 1.6926208 -0.013632077
v -0.05274344 1.6959682 -0.0189407
v -0.054551072 1.6922927 -0.016786784
v -0.056726582 1.6945297 -0.02164085
v -0.058025405 1.6916379 -0.02087046
v -0.059629444 1.692589 -0.023950648
v -0.06010694 1.6909881 -0.023503354
v -0.06280341 1.6897383 -0.025882306
v -0.027119666 1.6842649 0.00064987113
v -0.026730226 1.6839541 -0.00077097426
v -0.02615677 1.6802223 0.0008094237
v -0.028507635 1.6870828 -5.3196854E-05
v -0.02799774 1.6869178 -0.0019104319
v -0.029644327 1.6898456 -0.0039276094
v -0.030720072 1.690881 -0.0017057998
v -0.034326784 1.6938293 -0.004082386
v -0.03197327 1.6921058 -0.0064851204
v -0.035256997 1.6937578 -0.009353606
v -0.038650822 1.6952951 -0.007101784
v -0.0398685 1.6947038 -0.01308325
v -0.04328571 1.6959689 -0.010874507
v -0.04514442 1.6950158 -0.01709671
v -0.047766857 1.6964428 -0.015049225
v -0.050598785 1.6946825 -0.020914804
v -0.05274344 1.6959682 -0.0189407
v -0.05578917 1.692934 -0.024033677
v -0.056726582 1.6945297 -0.02164085
v -0.059629444 1.692589 -0.023950648
v -0.058772154 1.6912081 -0.025006194
v -0.06280341 1.6897383 -0.025882306
v -0.026224246 1.680749 -0.0035451134
v -0.025362989 1.6832907 -0.0022490695
v -0.026884176 1.6799595 -0.00044515144
v -0.026370373 1.6832265 0.0006380986
v -0.027057828 1.6802411 0.0020855514
v -0.023229675 1.6865684 -0.00050059555
v -0.026173614 1.6817329 0.0035140542
v -0.024228934 1.6862197 0.0029837417
v -0.024882803 1.6837978 0.0058305752
v -0.017164689 1.6911799 0.0031613968
v -0.018420838 1.6908482 0.007086978
v -0.019257888 1.6872344 0.010870666
v -0.012745165 1.6882738 0.016145438
v -0.011173615 1.6933793 0.011791115
v -0.0076463507 1.6926305 0.0073204627
v -0.0064009945 1.688402 0.02059728
v -0.0035613982 1.6941316 0.016207028
v -0.00028533934 1.6917143 0.010980573
v 0.009097862 1.6900109 0.015956193
v 0.0051315157 1.6925546 0.022000408
v 0.0013797474 1.686206 0.026710834
v 0.021762732 1.6862293 0.023777777
v 0.01710597 1.6886275 0.030261187
v 0.011673572 1.6813948 0.03441485
v 0.03503453 1.6784642 0.03203128
v 0.03025533 1.68011 0.03828474
v 0.023923349 1.6732833 0.042310916
v 0.044573266 1.6701107 0.03722434
v 0.032839507 1.6645929 0.04782684
v 0.039539225 1.6698812 0.04403633
v 0.052792504 1.660929 0.041803364
v 0.04773406 1.6608578 0.04855163
v 0.039875925 1.6570241 0.051275816
v 0.059016183 1.6512158 0.045416288
v 0.05511941 1.6508349 0.051758237
v 0.04766794 1.6478293 0.05424324
v 0.053922787 1.6383511 0.055216152
v 0.060908373 1.6404839 0.053749565
v 0.06356501 1.6410469 0.048110414
v 0.0582205 1.631836 0.05555427
v 0.06426332 1.632998 0.054530516
v 0.06640177 1.633114 0.049993455
v 0.062003393 1.6250753 0.05540342
v 0.06631007 1.6256258 0.054848745
v 0.06788745 1.6255709 0.05120072
v 0.064247794 1.621097 0.0550208
v 0.068340965 1.6208318 0.051577136
v 0.067178406 1.6190176 0.05424555
v 0.06587384 1.6167893 0.054497574
v 0.068159305 1.6162457 0.052020013
v 0.06739369 1.6109642 0.052587494
v 0.0065052966 1.7146066 -0.03672074
v 0.0006947508 1.7125435 -0.03265545
v -0.00027308043 1.7143961 -0.033121724
v -0.002643111 1.7110897 -0.029773802
v -0.005723157 1.7137191 -0.02955131
v -0.006522296 1.7089252 -0.025097383
v -0.010773722 1.7124492 -0.024604794
v -0.010508636 1.7056223 -0.01934727
v -0.0155262565 1.7100962 -0.019532643
v -0.01907679 1.7076509 -0.015305115
v -0.013097516 1.7028663 -0.015025669
v -0.022500416 1.7038972 -0.009796596
v -0.015716216 1.6997297 -0.010145333
v -0.017946789 1.695795 -0.0058651953
v -0.024959158 1.6995292 -0.00624528
v -0.020266382 1.6917106 -0.0030897644
v -0.026390024 1.6929355 -0.0031781574
v -0.022272805 1.6879684 -0.0013321185
v -0.029702164 1.692719 -0.006274192
v -0.02879054 1.6974216 -0.010447639
v -0.022500416 1.7038972 -0.009796596
v -0.026373032 1.7012298 -0.01485966
v -0.01907679 1.7076509 -0.015305115
v -0.023032868 1.7051529 -0.019689525
v -0.019256454 1.7084358 -0.024634808
v -0.0155262565 1.7100962 -0.019532643
v -0.014055487 1.7117212 -0.02978446
v -0.010773722 1.7124492 -0.024604794
v -0.009433599 1.7129763 -0.03271637
v -0.005723157 1.7137191 -0.02955131
v -0.004062581 1.7135426 -0.034983646
v -0.00027308043 1.7143961 -0.033121724
v 0.000690089 1.7138782 -0.036001995
v 0.0065052966 1.7146066 -0.03672074
v -0.029825296 1.6878785 -0.004105212
v -0.026718602 1.6885182 -0.0012148995
v -0.028953487 1.6845624 -0.0018170775
v -0.026767708 1.6850575 -0.00027498294
v -0.023983335 1.6852243 -0.00038646482
v -0.026587715 1.6797305 0.00057537993
vt 0.714249 0.35303497
vt 0.713674 0.359806
vt 0.716914 0.35938603
vt 0.713138 0.364877
vt 0.718527 0.36422497
vt 0.720624 0.371185
vt 0.713527 0.37161
vt 0.713091 0.379346
vt 0.721394 0.37898803
vt 0.72093 0.38728398
vt 0.711941 0.387977
vt 0.720184 0.39707798
vt 0.711195 0.39904702
vt 0.719734 0.407566
vt 0.710524 0.409227
vt 0.717795 0.41647398
vt 0.710182 0.416057
vt 0.715476 0.422898
vt 0.709375 0.423427
vt 0.712626 0.429937
vt 0.70921 0.43053102
vt 0.708479 0.438187
vt 0.716914 0.35938603
vt 0.719098 0.35810798
vt 0.714249 0.35303497
vt 0.718527 0.36422497
vt 0.72175 0.36359698
vt 0.724742 0.36986
vt 0.720624 0.371185
vt 0.721394 0.37898803
vt 0.726953 0.37664598
vt 0.727766 0.38486397
vt 0.72093 0.38728398
vt 0.727485 0.39525998
vt 0.720184 0.39707798
vt 0.726342 0.40706402
vt 0.719734 0.407566
vt 0.723795 0.417336
vt 0.717795 0.41647398
vt 0.71971 0.42687398
vt 0.715476 0.422898
vt 0.712626 0.429937
vt 0.715402 0.432769
vt 0.708479 0.438187
vt 0.648656 0.42270303
vt 0.643095 0.424021
vt 0.649155 0.428971
vt 0.642743 0.429704
vt 0.647552 0.43373698
vt 0.635155 0.425453
vt 0.643521 0.435691
vt 0.635327 0.432091
vt 0.637782 0.438563
vt 0.619711 0.42881298
vt 0.6204 0.43623102
vt 0.623239 0.44532502
vt 0.611183 0.452729
vt 0.606756 0.442437
vt 0.601882 0.433964
vt 0.598993 0.45989603
vt 0.593772 0.44985598
vt 0.588303 0.439727
vt 0.570805 0.44887
vt 0.578026 0.45987397
vt 0.584116 0.47044098
vt 0.548761 0.46325898
vt 0.557296 0.47355002
vt 0.565392 0.485703
vt 0.523925 0.480726
vt 0.533979 0.49014902
vt 0.542612 0.501819
vt 0.506261 0.49374998
vt 0.524553 0.517035
vt 0.515715 0.504391
vt 0.488957 0.507801
vt 0.498944 0.51771
vt 0.509806 0.52845204
vt 0.473965 0.52184796
vt 0.482435 0.530949
vt 0.49264 0.5406
vt 0.476955 0.552002
vt 0.467328 0.543966
vt 0.460519 0.535976
vt 0.465679 0.55940497
vt 0.457223 0.55309
vt 0.450997 0.54739404
vt 0.455062 0.56712604
vt 0.448535 0.562346
vt 0.443266 0.558352
vt 0.443962 0.573681
vt 0.439593 0.56456196
vt 0.441192 0.570849
vt 0.43969 0.575939
vt 0.43732 0.568406
vt 0.432385 0.579799
vt 0.698631 0.44448698
vt 0.698303 0.43413103
vt 0.694885 0.435063
vt 0.69809 0.427428
vt 0.692196 0.42829698
vt 0.697539 0.41608697
vt 0.688337 0.413966
vt 0.697978 0.40257102
vt 0.68659 0.40181202
vt 0.685804 0.39195597
vt 0.698644 0.39257598
vt 0.686387 0.37999701
vt 0.69934 0.38156098
vt 0.700279 0.37058198
vt 0.687051 0.37010098
vt 0.700309 0.360901
vt 0.689825 0.358154
vt 0.70026 0.35260898
vt 0.681703 0.357365
vt 0.677081 0.36811203
vt 0.686387 0.37999701
vt 0.675021 0.379515
vt 0.685804 0.39195597
vt 0.674995 0.39198202
vt 0.675769 0.40424103
vt 0.68659 0.40181202
vt 0.678497 0.41777098
vt 0.688337 0.413966
vt 0.682302 0.42673302
vt 0.692196 0.42829698
vt 0.688771 0.43611902
vt 0.694885 0.435063
vt 0.692789 0.439529
vt 0.698631 0.44448698
vt 0.685263 0.348113
vt 0.692711 0.35018098
vt 0.690391 0.34222603
vt 0.694984 0.344249
vt 0.699576 0.346393
vt 0.698721 0.33490503
vn -0.110045016 0.6052321 0.7884062
vn -0.16023403 0.66442907 0.72997206
vn -0.14791304 0.6786982 0.71936816
vn -0.21495688 0.73854756 0.6390156
vn -0.1983859 0.75413764 0.6260346
vn -0.26247197 0.8026558 0.5355859
vn -0.28184885 0.79190266 0.5417117
vn -0.35583797 0.80747086 0.4704999
vn -0.3299289 0.8230448 0.46232486
vn -0.3857139 0.84053785 0.3804219
vn -0.40740618 0.82338536 0.39504015
vn -0.4148338 0.85506165 0.31109887
vn -0.44149 0.839266 0.317363
vn -0.44897702 0.85694903 0.253097
vn -0.4838808 0.83318365 0.26770192
vn -0.50674593 0.8358599 0.21106096
vn -0.5363929 0.8113679 0.23230298
vn -0.561272 0.808484 0.176995
vn -0.5788241 0.79363227 0.18737806
vn -0.58286 0.79599196 0.163313
vn -0.5908561 0.78845006 0.17098401
vn -0.6080432 0.7802162 0.14678605
vn 0.4486949 0.8353468 0.31759793
vn 0.4585141 0.8297851 0.31815305
vn 0.560404 0.74419093 0.36349297
vn 0.3152079 0.90112376 0.29769096
vn 0.30848697 0.9058188 0.29039297
vn 0.18935996 0.95868886 0.21226996
vn 0.17179507 0.9629214 0.20801207
vn -0.0040620496 0.987971 0.154586
vn 0.057892404 0.98581403 0.157541
vn -0.08044373 0.9926224 0.09071773
vn -0.13661605 0.98506236 0.10482404
vn -0.16800696 0.98471177 0.046003584
vn -0.19614506 0.9788213 0.058616914
vn -0.20487995 0.9785648 -0.020855397
vn -0.21961492 0.97549665 -0.013247696
vn -0.26972806 0.9572482 -0.10451202
vn -0.288405 0.95172286 -0.10510098
vn -0.38815102 0.917443 -0.087390095
vn -0.39990893 0.91297185 -0.08096499
vn -0.447463 0.889835 -0.0892779
vn -0.4227009 0.9025568 -0.08194668
vn -0.5026182 0.85883534 -0.09887804
vn -0.6464988 0.7556318 0.10516598
vn -0.5903626 0.80530345 0.05438916
vn -0.70380026 0.7048022 0.08898882
vn -0.59436584 0.7879018 0.16105896
vn -0.68088603 0.6954131 0.22977103
vn -0.41732192 0.8997537 0.12761497
vn -0.582752 0.75264007 0.30648497
vn -0.43795115 0.8645113 0.24661508
vn -0.485506 0.8072001 0.335726
vn -0.25344494 0.9421827 0.21921992
vn -0.28707698 0.9013968 0.32414594
vn -0.35007623 0.8271235 0.43967426
vn -0.22247891 0.8628046 0.45395085
vn -0.14199097 0.92523277 0.35182792
vn -0.059045304 0.9583661 0.27937102
vn -0.11861303 0.8694252 0.47961512
vn -0.038796894 0.9255827 0.37655187
vn 0.0438849 0.9596789 0.27765197
vn 0.14411703 0.9405352 0.30761006
vn 0.051532283 0.9064867 0.41907787
vn -0.032043397 0.8508239 0.52447295
vn 0.261441 0.886427 0.38196304
vn 0.15831791 0.8483315 0.5052417
vn 0.054677203 0.7774311 0.62658703
vn 0.36641598 0.7963229 0.48125795
vn 0.26540697 0.76576596 0.58579993
vn 0.16488793 0.7088687 0.68579674
vn 0.4431341 0.7110771 0.54589504
vn 0.25433403 0.618748 0.74328005
vn 0.34714895 0.6767529 0.64922494
vn 0.5165602 0.62252426 0.58790225
vn 0.4110739 0.5924299 0.69285285
vn 0.29772407 0.5450881 0.7837342
vn 0.58688384 0.5286758 0.61324483
vn 0.4837101 0.49542812 0.72150916
vn 0.36618996 0.450831 0.81403697
vn 0.40646687 0.3576959 0.84073675
vn 0.5369129 0.40051696 0.7425029
vn 0.64928204 0.43614706 0.623064
vn 0.43274707 0.28995606 0.8536132
vn 0.57420313 0.32581106 0.7510911
vn 0.6858808 0.35594186 0.63472277
vn 0.45452014 0.21925005 0.86333126
vn 0.59979683 0.24136092 0.76288176
vn 0.71787196 0.26215997 0.6449279
vn 0.5086912 0.13776505 0.8498553
vn 0.74413604 0.20890404 0.63452405
vn 0.6394244 0.15425308 0.7532214
vn 0.5705466 0.12818691 0.81119955
vn 0.7590363 0.17556308 0.6269303
vn 0.6691511 0.11019903 0.7349102
vn 0.24149095 0.9410377 0.23691793
vn 0.22992796 0.9363788 0.26519397
vn 0.21019396 0.94462776 0.25198594
vn 0.22232704 0.93288714 0.28335902
vn 0.18756594 0.94649476 0.26261494
vn 0.16388297 0.9432519 0.28882197
vn 0.10880401 0.95722806 0.26809704
vn 0.11682303 0.9407433 0.3183621
vn 0.06732802 0.9498643 0.30532712
vn 0.0375448 0.944878 0.32526296
vn 0.08629085 0.93794954 0.3358639
vn -0.0117763 0.924141 0.38187
vn 0.058750797 0.92195493 0.38281497
vn -0.0027872694 0.8744188 0.48516384
vn -0.26165706 0.8876952 0.37885708
vn -0.08024207 0.82416683 0.5606339
vn -0.298703 0.81355906 0.49889702
vn -0.11351202 0.78132814 0.61371106
vn -0.45552894 0.8049679 0.38015792
vn -0.42877716 0.8743043 0.22746906
vn -0.3426709 0.9229546 0.17530394
vn -0.3768389 0.9159918 0.13766396
vn -0.28318092 0.95194167 0.11668595
vn -0.323041 0.941902 0.092006594
vn -0.25583696 0.96565086 0.045452397
vn -0.21430206 0.97336924 0.08140633
vn -0.16813193 0.9857555 0.004191838
vn -0.13885303 0.98938924 0.04276271
vn -0.105730005 0.99379104 -0.034649704
vn -0.060511902 0.99762315 -0.032958303
vn -0.047973994 0.9954529 -0.08229249
vn -0.034013607 0.9978192 -0.05656951
vn -0.02722169 0.9959927 -0.08519077
vn 0.0029655101 0.9959971 -0.0893371
vn -0.48654583 0.7510417 0.44632885
vn -0.312569 0.768464 0.558358
vn -0.4894211 0.6899262 0.53335613
vn -0.31853506 0.6974151 0.6419872
vn -0.14126007 0.73085636 0.66775334
vn -0.33197886 0.6395187 0.6934017
g M_HairAho_0
f 3/3/3 2/2/2 1/1/1
f 4/4/4 2/2/2 3/3/3
f 4/4/4 3/3/3 5/5/5
f 5/5/5 6/6/6 4/4/4
f 7/7/7 4/4/4 6/6/6
f 7/7/7 6/6/6 8/8/8
f 6/6/6 9/9/9 8/8/8
f 8/8/8 9/9/9 10/10/10
f 11/11/11 8/8/8 10/10/10
f 10/10/10 12/12/12 11/11/11
f 11/11/11 12/12/12 13/13/13
f 14/14/14 13/13/13 12/12/12
f 15/15/15 13/13/13 14/14/14
f 14/14/14 16/16/16 15/15/15
f 16/16/16 17/17/17 15/15/15
f 16/16/16 18/18/18 17/17/17
f 18/18/18 19/19/19 17/17/17
f 18/18/18 20/20/20 19/19/19
f 20/20/20 21/21/21 19/19/19
f 22/22/22 21/21/21 20/20/20
f 25/25/25 24/24/24 23/23/23
f 23/23/23 24/24/24 26/26/26
f 27/27/27 26/26/26 24/24/24
f 27/27/27 28/28/28 26/26/26
f 29/29/29 26/26/26 28/28/28
f 28/28/28 30/30/30 29/29/29
f 28/28/28 31/31/31 30/30/30
f 30/30/30 31/31/31 32/32/32
f 33/33/33 30/30/30 32/32/32
f 32/32/32 34/34/34 33/33/33
f 35/35/35 33/33/33 34/34/34
f 35/35/35 34/34/34 36/36/36
f 37/37/37 35/35/35 36/36/36
f 36/36/36 38/38/38 37/37/37
f 39/39/39 37/37/37 38/38/38
f 38/38/38 40/40/40 39/39/39
f 41/41/41 39/39/39 40/40/40
f 41/41/41 40/40/40 42/42/42
f 43/43/43 42/42/42 40/40/40
f 44/44/44 42/42/42 43/43/43
f 47/47/47 46/46/46 45/45/45
f 47/47/47 48/48/48 46/46/46
f 49/49/49 48/48/48 47/47/47
f 50/50/50 46/46/46 48/48/48
f 49/49/49 51/51/51 48/48/48
f 50/50/50 48/48/48 52/52/52
f 52/52/52 48/48/48 51/51/51
f 52/52/52 51/51/51 53/53/53
f 50/50/50 52/52/52 54/54/54
f 52/52/52 53/53/53 55/55/55
f 55/55/55 54/54/54 52/52/52
f 56/56/56 55/55/55 53/53/53
f 57/57/57 55/55/55 56/56/56
f 55/55/55 58/58/58 54/54/54
f 57/57/57 58/58/58 55/55/55
f 59/59/59 54/54/54 58/58/58
f 57/57/57 60/60/60 58/58/58
f 58/58/58 61/61/61 59/59/59
f 60/60/60 61/61/61 58/58/58
f 62/62/62 59/59/59 61/61/61
f 63/63/63 62/62/62 61/61/61
f 64/64/64 61/61/61 60/60/60
f 64/64/64 63/63/63 61/61/61
f 64/64/64 60/60/60 65/65/65
f 63/63/63 64/64/64 66/66/66
f 64/64/64 65/65/65 67/67/67
f 67/67/67 66/66/66 64/64/64
f 68/68/68 67/67/67 65/65/65
f 66/66/66 67/67/67 69/69/69
f 68/68/68 70/70/70 67/67/67
f 70/70/70 69/69/69 67/67/67
f 71/71/71 70/70/70 68/68/68
f 69/69/69 70/70/70 72/72/72
f 71/71/71 73/73/73 70/70/70
f 72/72/72 70/70/70 74/74/74
f 74/74/74 70/70/70 73/73/73
f 72/72/72 74/74/74 75/75/75
f 74/74/74 73/73/73 76/76/76
f 76/76/76 75/75/75 74/74/74
f 77/77/77 76/76/76 73/73/73
f 75/75/75 76/76/76 78/78/78
f 76/76/76 77/77/77 79/79/79
f 79/79/79 78/78/78 76/76/76
f 80/80/80 79/79/79 77/77/77
f 81/81/81 79/79/79 80/80/80
f 78/78/78 79/79/79 82/82/82
f 81/81/81 82/82/82 79/79/79
f 78/78/78 82/82/82 83/83/83
f 84/84/84 82/82/82 81/81/81
f 83/83/83 82/82/82 85/85/85
f 84/84/84 85/85/85 82/82/82
f 83/83/83 85/85/85 86/86/86
f 87/87/87 85/85/85 84/84/84
f 86/86/86 85/85/85 88/88/88
f 87/87/87 88/88/88 85/85/85
f 86/86/86 88/88/88 89/89/89
f 90/90/90 88/88/88 87/87/87
f 89/89/89 88/88/88 91/91/91
f 90/90/90 92/92/92 88/88/88
f 92/92/92 91/91/91 88/88/88
f 90/90/90 93/93/93 92/92/92
f 94/94/94 91/91/91 92/92/92
f 92/92/92 93/93/93 95/95/95
f 94/94/94 92/92/92 95/95/95
f 98/98/98 97/97/97 96/96/96
f 99/99/99 97/97/97 98/98/98
f 99/99/99 98/98/98 100/100/100
f 99/99/99 100/100/100 101/101/101
f 102/102/102 101/101/101 100/100/100
f 103/103/103 101/101/101 102/102/102
f 103/103/103 102/102/102 104/104/104
f 104/104/104 105/105/105 103/103/103
f 103/103/103 105/105/105 106/106/106
f 107/107/107 106/106/106 105/105/105
f 108/108/108 106/106/106 107/107/107
f 108/108/108 107/107/107 109/109/109
f 110/110/110 109/109/109 107/107/107
f 109/109/109 110/110/110 111/111/111
f 112/112/112 111/111/111 110/110/110
f 113/113/113 111/111/111 112/112/112
f 112/112/112 110/110/110 114/114/114
f 114/114/114 110/110/110 115/115/115
f 116/116/116 115/115/115 110/110/110
f 117/117/117 115/115/115 116/116/116
f 116/116/116 118/118/118 117/117/117
f 119/119/119 117/117/117 118/118/118
f 120/120/120 119/119/119 118/118/118
f 120/120/120 118/118/118 121/121/121
f 120/120/120 121/121/121 122/122/122
f 123/123/123 122/122/122 121/121/121
f 122/122/122 123/123/123 124/124/124
f 125/125/125 124/124/124 123/123/123
f 126/126/126 124/124/124 125/125/125
f 125/125/125 127/127/127 126/126/126
f 127/127/127 128/128/128 126/126/126
f 129/129/129 128/128/128 127/127/127
f 114/114/114 130/130/130 112/112/112
f 130/130/130 131/131/131 112/112/112
f 112/112/112 131/131/131 113/113/113
f 130/130/130 132/132/132 131/131/131
f 131/131/131 133/133/133 113/113/113
f 132/132/132 133/133/133 131/131/131
f 133/133/133 134/134/134 113/113/113
f 135/135/135 133/133/133 132/132/132
f 135/135/135 134/134/134 133/133/133
