g M_HairOP03
v 0.022506954 1.6758633 0.022453852
v 0.031332005 1.6760861 0.019851139
v 0.028794458 1.673527 0.021280866
v 0.026839048 1.6789403 0.019257478
v 0.0387394 1.6777834 0.0118335495
v 0.035055753 1.6827054 0.01054382
v 0.043798078 1.6785748 0.0031946285
v 0.040313363 1.6833662 0.0019209237
v 0.047639873 1.6839296 -0.014094394
v 0.0514165 1.6791393 -0.012490121
v 0.05766557 1.6785556 -0.028441753
v 0.053559564 1.6829872 -0.03001125
v 0.057649788 1.680514 -0.047757458
v 0.06197593 1.676208 -0.045721143
v 0.0603847 1.6761318 -0.065383874
v 0.064556524 1.6716669 -0.06380697
v 0.0637942 1.6641313 -0.082200624
v 0.059459213 1.6683973 -0.083449416
v 0.062370647 1.6553128 -0.09966807
v 0.057864636 1.659382 -0.10058883
v 0.05761271 1.6452876 -0.11265402
v 0.053522404 1.6497427 -0.11366763
v 0.047173336 1.6384655 -0.12505713
v 0.05134779 1.6337659 -0.123875104
v 0.04038477 1.6286246 -0.13265848
v 0.044600416 1.6245183 -0.13142534
v 0.03668315 1.6151085 -0.13760076
v 0.032320037 1.6187086 -0.13892344
v 0.028103955 1.6058049 -0.14123335
v 0.023864176 1.6095581 -0.14262512
v 0.019920647 1.5965223 -0.14227925
v 0.017336672 1.6008241 -0.1427053
v 0.008092123 1.5552735 -0.14987326
v 0.0059521487 1.5577503 -0.14536527
v 0.01135219 1.5557393 -0.14813484
v 0.013814605 1.5572088 -0.15233307
v 0.009980403 1.556725 -0.15396297
v 0.016331544 1.5612063 -0.15821785
v 0.012143154 1.5607551 -0.16008142
v 0.017633846 1.5654473 -0.16194761
v 0.01342706 1.5651431 -0.16386382
v 0.018706797 1.5719 -0.1659469
v 0.01421415 1.5719332 -0.16784936
v 0.018441672 1.5788828 -0.16769722
v 0.014198618 1.5788331 -0.16947493
v 0.01765547 1.5856173 -0.16873595
v 0.01382962 1.5854836 -0.17034377
v 0.015537962 1.5936514 -0.16813526
v 0.012229853 1.5932418 -0.17003185
v 0.012714876 1.6007972 -0.16627109
v 0.009793517 1.6003627 -0.16843195
v 0.0089001665 1.6063437 -0.16230305
v 0.005788663 1.6059012 -0.164206
v 0.005119846 1.6100372 -0.15825734
v 0.0024187483 1.6095235 -0.16048111
v 0.0010483206 1.6118516 -0.1546036
v -0.0010517846 1.6118335 -0.15676323
v -0.002431855 1.6128439 -0.15166953
v -0.0037817848 1.6123881 -0.15306206
v -0.0064780056 1.6122557 -0.14923136
v 0.0039712964 1.5627882 -0.14132103
v 0.008434257 1.5580043 -0.1445339
v 0.0059521487 1.5577503 -0.14536527
vt 0.879282 0.9650198
vt 0.868119 0.9774546
vt 0.873576 0.9774546
vt 0.870647 0.9650198
vt 0.852542 0.9774546
vt 0.853113 0.9650198
vt 0.838525 0.9774546
vt 0.83904 0.9650198
vt 0.814662 0.9650198
vt 0.814388 0.9774546
vt 0.79086 0.9774546
vt 0.791203 0.9650198
vt 0.766025 0.9650199
vt 0.766375 0.9774546
vt 0.740944 0.9650199
vt 0.740787 0.9774546
vt 0.713661 0.9774546
vt 0.71408 0.9650199
vt 0.686933 0.9774546
vt 0.68752 0.9650199
vt 0.663534 0.9774546
vt 0.664321 0.9650199
vt 0.640614 0.9650199
vt 0.639864 0.9774546
vt 0.621264 0.9650199
vt 0.621337 0.9774546
vt 0.602751 0.9774546
vt 0.601887 0.9650199
vt 0.584441 0.9774546
vt 0.584254 0.9650199
vt 0.567141 0.9774546
vt 0.569514 0.9650199
vt 0.728334 0.9490217
vt 0.719062 0.9511468
vt 0.728888 0.9552326
vt 0.737152 0.9552326
vt 0.736491 0.9483723
vt 0.749432 0.9552326
vt 0.749178 0.9476354
vt 0.758851 0.9552326
vt 0.759067 0.9475873
vt 0.771329 0.9552326
vt 0.772201 0.9472777
vt 0.783045 0.9552324
vt 0.784059 0.9477126
vt 0.794193 0.9552324
vt 0.795266 0.9484938
vt 0.807818 0.9552324
vt 0.808354 0.9489422
vt 0.820831 0.9552324
vt 0.820969 0.94915867
vt 0.833739 0.9552324
vt 0.834269 0.949145
vt 0.844756 0.9552324
vt 0.844868 0.9493371
vt 0.85431 0.9552324
vt 0.854519 0.9500799
vt 0.862045 0.9552324
vt 0.862482 0.9519252
vt 0.869964 0.9552324
vt 0.70864 0.9552326
vt 0.7205 0.9552326
vt 0.719062 0.9511468
vn 0.225305 0.7149779 0.661849
vn 0.30946094 0.7414718 0.59535986
vn 0.28349593 0.67375183 0.68241376
vn 0.267827 0.756267 0.596933
vn 0.4128739 0.75463176 0.50996685
vn 0.3798771 0.7774682 0.5012351
vn 0.48352817 0.76803434 0.41990918
vn 0.44974497 0.794829 0.40740198
vn 0.51786274 0.8134626 0.26475787
vn 0.5535561 0.7840731 0.28072202
vn 0.6037478 0.7879597 0.120863944
vn 0.5676808 0.81628156 0.10687794
vn 0.5991772 0.79820323 -0.062115416
vn 0.6350971 0.7711451 -0.044575702
vn 0.6173049 0.7511739 -0.23382097
vn 0.6542878 0.72303385 -0.22165194
vn 0.6339006 0.6655715 -0.39393473
vn 0.5970422 0.6931512 -0.40383413
vn 0.5899893 0.59136325 -0.5497292
vn 0.556564 0.618282 -0.554945
vn 0.54710376 0.5042037 -0.66817373
vn 0.51653486 0.5310319 -0.67171186
vn 0.4533811 0.4432261 -0.7733022
vn 0.48724598 0.41365698 -0.76907694
vn 0.38694194 0.37142098 -0.84399194
vn 0.42077917 0.34752315 -0.8379573
vn 0.34603885 0.27319387 -0.8975646
vn 0.31096616 0.29239014 -0.9043274
vn 0.2674269 0.19359694 -0.9439296
vn 0.23039508 0.21745406 -0.94848925
vn 0.176863 0.13286 -0.975227
vn 0.14596596 0.15885796 -0.97645175
vn 0.073085465 -0.9912854 0.109597936
vn -0.13610606 -0.7781764 0.6131203
vn 0.08681797 -0.98916465 0.11838895
vn 0.26682305 -0.9006423 -0.34300008
vn 0.25823006 -0.9035582 -0.34190607
vn 0.3296941 -0.7648943 -0.5533882
vn 0.32606897 -0.7646589 -0.55585593
vn 0.3687931 -0.6052091 -0.7054882
vn 0.358266 -0.596357 -0.718334
vn 0.36875683 -0.3787108 -0.8488795
vn 0.362613 -0.35309798 -0.86245793
vn 0.38308418 -0.15921007 -0.9098894
vn 0.38401502 -0.151367 -0.9108351
vn 0.38608095 0.021940397 -0.92220384
vn 0.40074816 0.038942613 -0.9153602
vn 0.46451905 0.25151804 -0.8490941
vn 0.48038012 0.25732505 -0.8384621
vn 0.4250191 0.5387181 -0.7274211
vn 0.4148159 0.5445289 -0.72898287
vn 0.26711506 0.75769114 -0.5954441
vn 0.26441494 0.76255274 -0.59042186
vn 0.23199607 0.8717462 -0.43155113
vn 0.2432631 0.8702603 -0.42833415
vn 0.17646797 0.9544838 -0.24045695
vn 0.14699404 0.9564222 -0.25228807
vn -0.100459024 0.9819503 -0.16025506
vn -0.14956993 0.9733916 -0.17360193
vn -0.21000203 0.9710042 -0.11423703
vn -0.17791894 -0.6576178 0.73204076
vn -0.11639002 -0.7980581 0.5912331
vn -0.13610595 -0.77817684 0.61311984
g M_HairOP03_0
f 3/3/3 2/2/2 1/1/1
f 4/4/4 1/1/1 2/2/2
f 2/2/2 5/5/5 4/4/4
f 4/4/4 5/5/5 6/6/6
f 7/7/7 6/6/6 5/5/5
f 8/8/8 6/6/6 7/7/7
f 7/7/7 9/9/9 8/8/8
f 7/7/7 10/10/10 9/9/9
f 9/9/9 10/10/10 11/11/11
f 12/12/12 9/9/9 11/11/11
f 11/11/11 13/13/13 12/12/12
f 11/11/11 14/14/14 13/13/13
f 15/15/15 13/13/13 14/14/14
f 15/15/15 14/14/14 16/16/16
f 16/16/16 17/17/17 15/15/15
f 15/15/15 17/17/17 18/18/18
f 19/19/19 18/18/18 17/17/17
f 20/20/20 18/18/18 19/19/19
f 19/19/19 21/21/21 20/20/20
f 21/21/21 22/22/22 20/20/20
f 23/23/23 22/22/22 21/21/21
f 23/23/23 21/21/21 24/24/24
f 24/24/24 25/25/25 23/23/23
f 24/24/24 26/26/26 25/25/25
f 25/25/25 26/26/26 27/27/27
f 28/28/28 25/25/25 27/27/27
f 27/27/27 29/29/29 28/28/28
f 30/30/30 28/28/28 29/29/29
f 30/30/30 29/29/29 31/31/31
f 32/32/32 30/30/30 31/31/31
f 35/35/35 34/34/34 33/33/33
f 35/35/35 33/33/33 36/36/36
f 37/37/37 36/36/36 33/33/33
f 37/37/37 38/38/38 36/36/36
f 37/37/37 39/39/39 38/38/38
f 38/38/38 39/39/39 40/40/40
f 41/41/41 40/40/40 39/39/39
f 41/41/41 42/42/42 40/40/40
f 41/41/41 43/43/43 42/42/42
f 42/42/42 43/43/43 44/44/44
f 45/45/45 44/44/44 43/43/43
f 45/45/45 46/46/46 44/44/44
f 45/45/45 47/47/47 46/46/46
f 46/46/46 47/47/47 48/48/48
f 49/49/49 48/48/48 47/47/47
f 50/50/50 48/48/48 49/49/49
f 51/51/51 50/50/50 49/49/49
f 51/51/51 52/52/52 50/50/50
f 51/51/51 53/53/53 52/52/52
f 52/52/52 53/53/53 54/54/54
f 55/55/55 54/54/54 53/53/53
f 56/56/56 54/54/54 55/55/55
f 57/57/57 56/56/56 55/55/55
f 57/57/57 58/58/58 56/56/56
f 57/57/57 59/59/59 58/58/58
f 58/58/58 59/59/59 60/60/60
f 63/63/63 62/62/62 61/61/61
f 35/35/35 62/62/62 63/63/63
