g M_HairFR02
v 0.005373053 1.6178184 0.060548723
v 0.007478913 1.6166387 0.06025301
v 0.0044254246 1.6153861 0.06106125
v 0.009901636 1.6176944 0.059895743
v 0.007607454 1.622157 0.060520705
v 0.011889229 1.6197531 0.05984375
v 0.0087318905 1.6279806 0.061983284
v 0.006518501 1.6280409 0.061786212
v 0.012166013 1.6247597 0.062129326
v 0.0046059545 1.6219684 0.060631223
v 0.004317474 1.6269937 0.061613083
v 0.0029597771 1.624315 0.06150234
v -0.00037504474 1.621143 0.061147343
v -0.00020477173 1.6190809 0.060644813
v 0.01923173 1.6188213 0.05908806
v 0.010717144 1.6173059 0.05991797
v -0.00026205753 1.6176656 0.06061388
v 0.0025142082 1.6164117 0.060573496
v -0.00018829487 1.615153 0.061074566
v -0.0029543035 1.6164117 0.060573496
v -0.005845699 1.6177801 0.060350437
v -0.0050275493 1.621742 0.060739502
v -0.008901877 1.622355 0.061297186
v -0.0031567803 1.6248845 0.061134536
v -0.0053186784 1.6283032 0.061209805
v -0.00820085 1.6296704 0.061569758
v -0.011178765 1.6299325 0.06139297
v -0.010503173 1.6176747 0.05989048
v -0.007878363 1.6166044 0.060180604
v -0.004830663 1.615263 0.060419653
v -0.015901703 1.618643 0.059467923
v -0.013722428 1.6237812 0.061094474
v -0.02258655 1.630762 0.06188051
v -0.0124664875 1.6347598 0.06516426
v -0.022509642 1.6351832 0.06479427
v -0.021112863 1.6190851 0.058932
v -0.012736521 1.6153598 0.06027195
v -0.021598162 1.6249745 0.06033227
v -0.027012948 1.6257689 0.05890152
v -0.026075592 1.6205224 0.05808405
v -0.032046318 1.631392 0.061634976
v -0.032037828 1.635581 0.06372303
v -0.031762164 1.6210743 0.05673416
v -0.024550268 1.6168611 0.05820332
v -0.032848254 1.6263529 0.058563538
v -0.039600864 1.631477 0.05947269
v -0.040672276 1.6357324 0.060904007
v -0.045090724 1.6316509 0.057746258
v -0.037907593 1.620797 0.05569395
v -0.030684454 1.6171992 0.057340696
v -0.038501907 1.62643 0.057653215
v -0.043938525 1.625924 0.055787124
v -0.042393774 1.6205984 0.054659348
v -0.049988322 1.6261889 0.054825246
v -0.053347625 1.6312594 0.05446209
v -0.056965258 1.623146 0.051642075
v -0.049121182 1.6213756 0.05397516
v -0.056305833 1.6168476 0.048794325
v -0.048483852 1.6182967 0.052744083
v -0.03957061 1.6175041 0.055709366
v 0.011298723 1.575245 0.0757226
v 0.009483347 1.5678135 0.069403715
v 0.011746654 1.5763162 0.07135956
v 0.00982254 1.5674449 0.071879774
v 0.0076876734 1.5627568 0.06795093
v 0.007682757 1.5624243 0.06927275
v 0.005656338 1.5582544 0.06633106
v 0.012509544 1.5837333 0.07856149
v 0.011746654 1.5763162 0.07135956
v 0.013159379 1.5853117 0.07210602
v 0.013291901 1.5938897 0.08116481
v 0.0137582775 1.5946609 0.071375825
v 0.014564795 1.605362 0.06918555
v 0.013403407 1.6048526 0.08205385
v 0.013087748 1.6167614 0.0727343
v 0.014108108 1.6164291 0.06587997
v 0.011993851 1.6166673 0.08105768
v 0.012166013 1.6247597 0.062129326
v 0.010762948 1.6250403 0.06949268
v 0.008990266 1.6260962 0.07829456
v 0.0076113218 1.629479 0.076825865
v 0.008352986 1.6302209 0.067032814
v 0.008482175 1.6316062 0.06685898
v 0.0087318905 1.6279806 0.061983284
v 0.0061734198 1.6313329 0.06560821
v 0.006518501 1.6280409 0.061786212
v 0.0050394414 1.6320986 0.07376216
v 0.0063275173 1.6326419 0.06543272
v 0.003326291 1.6307364 0.070999525
v 0.0039605233 1.6316508 0.064049296
v 0.001769117 1.6271956 0.067233615
v 0.0024376048 1.6265974 0.062861405
v -0.00037504474 1.621143 0.061147343
v 0.0029597771 1.624315 0.06150234
v 0.004317474 1.6269937 0.061613083
v 0.004268484 1.6308204 0.06426468
v 0.006518501 1.6280409 0.061786212
v 0.0061734198 1.6313329 0.06560821
v -0.010405911 1.6336846 0.0663195
v -0.010207121 1.632755 0.06641437
v -0.012905727 1.6293577 0.06811112
v -0.008240861 1.6341293 0.065688305
v -0.008309387 1.6329398 0.06582226
v -0.0063589383 1.6334127 0.06491501
v -0.0064803753 1.6324242 0.06515602
v -0.002887197 1.6259787 0.06323532
v 0.0039605233 1.6316508 0.064049296
v 0.004268484 1.6308204 0.06426468
v 0.0024376048 1.6265974 0.062861405
v 0.0061734198 1.6313329 0.06560821
v 0.0063275173 1.6326419 0.06543272
v 0.008482175 1.6316062 0.06685898
v 0.008352986 1.6302209 0.067032814
v 0.010762948 1.6250403 0.06949268
v 0.026084976 1.618028 0.058443315
v 0.018769521 1.6154656 0.059584405
v 0.021395149 1.6246226 0.061247863
v 0.021052148 1.6314125 0.06368652
v 0.009686775 1.6299762 0.06609127
v 0.032583144 1.6301945 0.061659276
v 0.032895707 1.6248513 0.05919445
v 0.032664634 1.6201239 0.056886062
v 0.039088447 1.6281607 0.059835374
v 0.040372126 1.6217697 0.055329666
v 0.04856173 1.6215672 0.052806243
v 0.050098624 1.6282103 0.05797989
v 0.042009372 1.6178589 0.055069845
v 0.049228624 1.6166841 0.05166502
v 0.03473337 1.6178422 0.05636688
v 0.03332304 1.6150177 0.05722409
v 0.031308096 1.616968 0.057607625
v 0.029734725 1.6181731 0.05764924
v 0.0277668 1.616228 0.05840073
v -0.010247211 1.5664858 0.07049561
v -0.010344501 1.5667866 0.06766077
v -0.008839043 1.5602542 0.066165954
v -0.011813583 1.573013 0.06820801
v -0.011213531 1.5723257 0.07367616
v -0.0136252595 1.579601 0.06837368
v -0.011727848 1.5785893 0.076662436
v -0.014030495 1.5844913 0.07314621
v -0.012509544 1.5837333 0.07856149
v -0.014457626 1.5850786 0.06818569
v -0.01543705 1.5931638 0.07315759
v -0.013291901 1.5938897 0.08116481
v -0.015358467 1.5930444 0.06742864
v -0.013403407 1.6048526 0.08205385
v -0.01538391 1.6058117 0.07323396
v -0.015349312 1.6049467 0.06636261
v -0.01193282 1.616178 0.08085941
v -0.015030944 1.6158067 0.07196413
v -0.015464537 1.6150131 0.06477686
v -0.01427656 1.6224818 0.07058798
v -0.014841695 1.621769 0.063544065
v -0.01010139 1.6263571 0.078432925
v -0.012967054 1.6274934 0.062235832
v -0.012905727 1.6293577 0.06811112
v -0.00852767 1.629479 0.076825865
v -0.011178765 1.6299325 0.06139297
v -0.010405911 1.6336846 0.0663195
v -0.010207121 1.632755 0.06641437
v -0.0062399274 1.6320986 0.07376216
v -0.008309387 1.6329398 0.06582226
v -0.008240861 1.6341293 0.065688305
v -0.00820085 1.6296704 0.061569758
v -0.004564533 1.6307364 0.070999525
v -0.0064803753 1.6324242 0.06515602
v -0.0063589383 1.6334127 0.06491501
v -0.0053186784 1.6283032 0.061209805
v -0.0028892437 1.6271956 0.067233615
v -0.002887197 1.6259787 0.06323532
v -0.0031567803 1.6248845 0.061134536
v -0.00037504474 1.621143 0.061147343
vt 0.987151 0.29013598
vt 0.989416 0.294169
vt 0.991812 0.288166
vt 0.987432 0.298837
vt 0.978876 0.294398
vt 0.98353 0.302617
vt 0.967414 0.296418
vt 0.967177 0.292319
vt 0.973068 0.30338103
vt 0.979246 0.28866202
vt 0.969201 0.28771198
vt 0.974544 0.285681
vt 0.980715 0.27911
vt 0.984792 0.279496
vt 0.986055 0.316549
vt 0.988061 0.30013603
vt 0.987474 0.279405
vt 0.989834 0.284698
vt 0.992304 0.279562
vt 0.989846 0.27435303
vt 0.987301 0.26891398
vt 0.979863 0.27039802
vt 0.978753 0.26318198
vt 0.973944 0.273758
vt 0.967731 0.26964802
vt 0.965274 0.26426798
vt 0.964895 0.25876802
vt 0.987745 0.260275
vt 0.989582 0.26520997
vt 0.991896 0.27092803
vt 0.986245 0.25028098
vt 0.976321 0.254246
vt 0.963574 0.23761302
vt 0.953659 0.25616902
vt 0.953779 0.23767501
vt 0.98579 0.24066502
vt 0.992103 0.25641203
vt 0.974685 0.23958802
vt 0.974203 0.22925901
vt 0.983822 0.23133701
vt 0.962675 0.220092
vt 0.954089 0.22008002
vt 0.983702 0.22062403
vt 0.990263 0.23463702
vt 0.973497 0.21850002
vt 0.964311 0.205764
vt 0.956145 0.203569
vt 0.965399 0.19526303
vt 0.985012 0.20927203
vt 0.990658 0.22324997
vt 0.974109 0.20798498
vt 0.976401 0.19764203
vt 0.986204 0.20090401
vt 0.976846 0.18641001
vt 0.968341 0.17922598
vt 0.98432 0.173249
vt 0.985638 0.18849099
vt 0.996941 0.17423701
vt 0.99167 0.18966103
vt 0.991258 0.20701498
vt 0.722507 0.264301
vt 0.726396 0.27877998
vt 0.729663 0.265136
vt 0.722507 0.277705
vt 0.724349 0.28760898
vt 0.722507 0.28699702
vt 0.722507 0.29555303
vt 0.722507 0.25024498
vt 0.729663 0.265136
vt 0.733944 0.25021398
vt 0.722507 0.233886
vt 0.738759 0.23420697
vt 0.743696 0.21535897
vt 0.722507 0.21636802
vt 0.735905 0.1958
vt 0.748196 0.194242
vt 0.722507 0.19796097
vt 0.750324 0.17615497
vt 0.736743 0.17944801
vt 0.722507 0.18192703
vt 0.722507 0.17593902
vt 0.736096 0.16809398
vt 0.733508 0.16959101
vt 0.745789 0.16644597
vt 0.734437 0.163459
vt 0.741858 0.15904802
vt 0.722507 0.16888702
vt 0.732296 0.164177
vt 0.722507 0.16362202
vt 0.73052 0.16059703
vt 0.722507 0.15630502
vt 0.728041 0.15173602
vt 0.722507 0.14375597
vt 0.72887 0.14716703
vt 0.73525 0.15224499
vt 0.732706 0.15948802
vt 0.741858 0.15904802
vt 0.734437 0.163459
vt 0.954297 0.9737408
vt 0.955117 0.9712087
vt 0.947047 0.970617
vt 0.958563 0.9753784
vt 0.959746 0.9732053
vt 0.961807 0.9768636
vt 0.963235 0.9746571
vt 0.970917 0.9808352
vt 0.73052 0.16059703
vt 0.732706 0.15948802
vt 0.728041 0.15173602
vt 0.734437 0.163459
vt 0.732296 0.164177
vt 0.733508 0.16959101
vt 0.736096 0.16809398
vt 0.736743 0.17944801
vt 0.988275 0.329538
vt 0.992431 0.315229
vt 0.974383 0.320992
vt 0.960631 0.32071698
vt 0.960688 0.298437
vt 0.964706 0.34275198
vt 0.975926 0.343215
vt 0.98595 0.342777
vt 0.969734 0.355142
vt 0.984553 0.358002
vt 0.987081 0.37425
vt 0.970946 0.37647802
vt 0.99234 0.360179
vt 0.996652 0.375
vt 0.990696 0.34628803
vt 0.995772 0.34274298
vt 0.991577 0.33925998
vt 0.988898 0.336639
vt 0.992119 0.33227903
vt 0.840044 0.9844194
vt 0.838151 0.9800571
vt 0.827893 0.9844194
vt 0.84782 0.9754026
vt 0.851067 0.9844194
vt 0.858863 0.9702121
vt 0.862687 0.9844194
vt 0.870408 0.9749852
vt 0.871473 0.9844194
vt 0.868951 0.96555
vt 0.885849 0.9708817
vt 0.888631 0.9844194
vt 0.884453 0.9604573
vt 0.906532 0.9844194
vt 0.908077 0.9696845
vt 0.90666 0.9572547
vt 0.924724 0.9844194
vt 0.925656 0.9691866
vt 0.926166 0.9560142
vt 0.937342 0.969743
vt 0.939982 0.9571794
vt 0.940795 0.9844194
vt 0.95168 0.9598171
vt 0.947047 0.970617
vt 0.94659 0.9844194
vt 0.958741 0.9626764
vt 0.954297 0.9737408
vt 0.955117 0.9712087
vt 0.953158 0.9844194
vt 0.959746 0.9732053
vt 0.958563 0.9753784
vt 0.964999 0.9675596
vt 0.958299 0.9844194
vt 0.963235 0.9746571
vt 0.961807 0.9768636
vt 0.969898 0.9736433
vt 0.965837 0.9844194
vt 0.970917 0.9808352
vt 0.974272 0.979403
vt 0.978162 0.9844194
vn 0.10397797 0.013224897 0.9944917
vn 0.16121194 0.040591285 0.9860847
vn 0.20593894 0.12429696 0.9706387
vn 0.12741795 -0.061692875 0.98992866
vn 0.048371095 -0.15484498 0.9867539
vn 0.041893896 -0.19946097 0.97900987
vn -0.37137097 -0.608661 0.7011529
vn -0.008357013 -0.49819222 0.8670263
vn -0.06437749 -0.4199659 0.90525377
vn 0.07818659 -0.13122298 0.9882648
vn 0.30385584 -0.36175686 0.8813646
vn 0.29764584 -0.29827684 0.9068836
vn 0.10841305 -0.26771513 0.9573794
vn -0.0029825016 -0.10111405 0.9948704
vn 0.07892002 -0.20000103 0.97661215
vn 0.10013004 -0.017783908 0.9948154
vn -0.012443395 0.05987128 0.9981286
vn 0.035442498 0.046315696 0.99829787
vn 0.0018697905 0.18039103 0.98359317
vn -0.060042217 0.09691134 0.9934803
vn -0.041031696 -0.079488896 0.99599093
vn 0.019900402 -0.09739282 0.9950471
vn -0.0049123876 -0.13775994 0.9904535
vn -0.08827272 -0.072338805 0.9934662
vn -0.39036414 -0.42440116 0.81700635
vn -0.09326947 -0.48000282 0.8722947
vn -0.03702329 -0.3487139 0.9364977
vn -0.106646016 -0.21927004 0.9698182
vn -0.093410134 0.017700508 0.9954704
vn -0.08038393 -0.005005682 0.9967514
vn -0.108046986 -0.07896289 0.99100494
vn -0.073029764 -0.16405891 0.9837435
vn -0.084791265 -0.44045886 0.8937597
vn -0.022833196 -0.5994079 0.80011797
vn -0.064828776 -0.5339568 0.8430227
vn -0.17182605 -0.19584806 0.9654633
vn -0.08793119 0.15615399 0.98381096
vn -0.20611803 -0.26407704 0.9422201
vn -0.17254503 -0.3407161 0.9241973
vn -0.23211706 -0.14311802 0.9621013
vn -0.15640393 -0.46219483 0.8728767
vn -0.18989307 -0.42869315 0.88326824
vn -0.16867995 -0.15535598 0.9733507
vn -0.23659505 -0.06699021 0.96929616
vn -0.123682976 -0.4275559 0.89548784
vn -0.27778596 -0.37652594 0.88377786
vn -0.29219204 -0.37017 0.88181514
vn -0.27498993 -0.32497588 0.9048597
vn -0.19427194 -0.26785395 0.94366974
vn -0.170596 0.105888985 0.97963494
vn -0.22829998 -0.37437493 0.8987338
vn -0.20577697 -0.30866 0.92864686
vn -0.22431605 -0.16144004 0.96105117
vn -0.28012002 -0.21214204 0.9362311
vn -0.35301414 -0.16795605 0.92041934
vn -0.34335798 -0.31014997 0.8865169
vn -0.24154401 -0.31592104 0.9175241
vn -0.34568188 -0.41464388 0.8417687
vn -0.26859403 -0.353264 0.8961371
vn -0.3124929 0.03698999 0.9491997
vn -0.9798829 0.19662997 -0.034149
vn -0.9637942 0.22946404 0.13582002
vn -0.9766159 0.20945898 -0.04845919
vn -0.97062576 0.18474095 0.15413097
vn -0.9276861 0.35977703 0.09979501
vn -0.92696 0.364628 0.0882705
vn -0.919672 0.38162 0.09257169
vn -0.98946756 0.12740394 -0.068717875
vn -0.9766159 0.20945898 -0.04845919
vn -0.9916825 0.11363395 -0.06044127
vn -0.99645776 0.055777587 -0.06293488
vn -0.99705124 0.06391651 -0.042467106
vn -0.994962 -0.0392662 -0.0922433
vn -0.9940764 -0.045377817 -0.09875653
vn -0.9694341 -0.208204 -0.129803
vn -0.9705945 -0.19942589 -0.13481693
vn -0.96666926 -0.21803105 -0.13421203
vn -0.8253849 -0.549899 -0.127871
vn -0.9111982 -0.39388505 -0.12071602
vn -0.91571504 -0.37694904 -0.13919601
vn -0.8302548 -0.53148896 -0.16791797
vn -0.7939412 -0.57560414 0.19579905
vn -0.61181384 -0.77542377 -0.15621096
vn -0.47529304 -0.631685 0.61243
vn -0.53232193 -0.59297794 0.60416096
vn -0.008357013 -0.49819222 0.8670263
vn -0.18696804 -0.9712823 -0.14715205
vn 0.16289294 -0.9829186 -0.08565547
vn 0.6784161 -0.73441404 0.019685404
vn 0.7632781 -0.64544106 0.028503006
vn 0.9035253 -0.41088614 0.12171505
vn 0.73984003 -0.44298106 0.5063641
vn 0.10841305 -0.26771513 0.9573794
vn 0.29764584 -0.29827684 0.9068836
vn 0.30385613 -0.3617572 0.8813644
vn -0.14645696 -0.39149392 0.9084508
vn -0.008357013 -0.49819222 0.8670263
vn -0.53232193 -0.59297794 0.60416096
vn 0.284946 0.157437 0.94552594
vn 0.31901816 0.15504606 0.93498033
vn 0.361303 0.17082101 0.91666806
vn 0.3422551 0.09413002 0.9348802
vn 0.34374505 0.09845842 0.9338872
vn 0.45953384 0.13588496 0.8777037
vn 0.5304229 0.13874699 0.83630186
vn 0.61895883 0.11345596 0.77718574
vn -0.5780221 0.031490613 0.81541324
vn -0.46826616 -0.27537906 0.83957916
vn -0.59247524 -0.010800403 0.80551624
vn -0.5002822 -0.043670427 0.86476046
vn -0.51764387 0.17325997 0.8378698
vn -0.49258798 0.15725999 0.85593593
vn -0.51171285 0.15378696 0.8452807
vn -0.52401406 0.15398002 0.8376751
vn 0.16233897 -0.27463093 0.94774675
vn 0.10786598 0.13091698 0.9855078
vn 0.10715704 -0.34303808 0.9331893
vn 0.138674 -0.370976 0.91823006
vn 0.23925799 -0.51259094 0.8246249
vn 0.14387901 -0.39145803 0.90887815
vn 0.20589109 -0.42058218 0.88358337
vn 0.28603196 -0.21320897 0.93419886
vn 0.176715 -0.523884 0.8332571
vn 0.24063998 -0.276385 0.9304321
vn 0.29115915 -0.33821914 0.8948934
vn 0.13208693 -0.6279026 0.7670015
vn 0.2667149 0.017332694 0.9636196
vn 0.40039894 -0.15633295 0.9029068
vn 0.21334296 0.08342798 0.97340876
vn 0.17124201 0.20683603 0.9632731
vn 0.20644704 0.14667803 0.96740127
vn 0.16381992 0.18038693 0.9698575
vn 0.17525099 0.195481 0.96492195
vn 0.9745252 0.22243506 -0.02869111
vn 0.9735151 0.22843903 -0.009162481
vn 0.97394323 0.22659805 -0.009372623
vn 0.9682131 0.24096803 -0.067065306
vn 0.9700721 0.21115303 -0.119894005
vn 0.9676357 0.21190794 -0.13702597
vn 0.954721 0.21525998 -0.205356
vn 0.9682709 0.18784697 -0.16481799
vn 0.95112914 0.18627404 -0.24628301
vn 0.98807293 0.145245 -0.051143296
vn 0.98916805 0.07364461 -0.12697601
vn 0.9612092 0.077950805 -0.26457602
vn 0.9985489 0.052679498 0.011173499
vn 0.97002417 -0.06454041 -0.23428103
vn 0.9909911 -0.043361604 -0.126714
vn 0.9999275 -0.010090095 -0.0065719266
vn 0.9365777 -0.16080195 -0.31139192
vn 0.9778438 -0.096965685 -0.18552399
vn 0.99658525 -0.057489216 -0.059269514
vn 0.95742023 -0.21606404 -0.19147506
vn 0.97412497 -0.21896398 -0.055993795
vn 0.8566801 -0.3712641 -0.35813707
vn 0.91243726 -0.40060613 0.08350373
vn 0.88893193 -0.439162 -0.13014099
vn 0.667385 -0.640422 -0.380075
vn 0.63108695 -0.63217896 0.44953197
vn 0.405069 -0.848433 -0.340706
vn 0.54486704 -0.77158904 0.32828403
vn 0.034488585 -0.9492586 -0.31259984
vn 0.08026593 -0.83598125 0.5428561
vn -0.21361502 -0.9458862 -0.24427006
vn -0.09326947 -0.48000282 0.8722947
vn -0.7416832 -0.6705352 -0.016990203
vn -0.2172619 -0.7689547 0.6012537
vn -0.6747989 -0.72992486 -0.10888597
vn -0.39036414 -0.42440116 0.81700635
vn -0.87829906 -0.46530902 0.10990101
vn -0.82390994 -0.508504 0.250192
vn -0.7590759 -0.53236187 0.37469295
vn -0.80095583 -0.53346694 0.27181396
g M_HairFR02_0
f 3/3/3 2/2/2 1/1/1
f 1/1/1 2/2/2 4/4/4
f 4/4/4 5/5/5 1/1/1
f 6/6/6 5/5/5 4/4/4
f 6/6/6 7/7/7 5/5/5
f 8/8/8 5/5/5 7/7/7
f 9/9/9 7/7/7 6/6/6
f 5/5/5 8/8/8 10/10/10
f 1/1/1 5/5/5 10/10/10
f 11/11/11 10/10/10 8/8/8
f 10/10/10 11/11/11 12/12/12
f 12/12/12 13/13/13 10/10/10
f 10/10/10 14/14/14 1/1/1
f 14/14/14 10/10/10 13/13/13
f 6/6/6 15/15/15 9/9/9
f 16/16/16 15/15/15 6/6/6
f 17/17/17 1/1/1 14/14/14
f 18/18/18 1/1/1 17/17/17
f 18/18/18 17/17/17 19/19/19
f 19/19/19 17/17/17 20/20/20
f 20/20/20 17/17/17 21/21/21
f 17/17/17 14/14/14 21/21/21
f 14/14/14 13/13/13 22/22/22
f 22/22/22 21/21/21 14/14/14
f 21/21/21 22/22/22 23/23/23
f 24/24/24 22/22/22 13/13/13
f 25/25/25 22/22/22 24/24/24
f 22/22/22 25/25/25 23/23/23
f 26/26/26 23/23/23 25/25/25
f 26/26/26 27/27/27 23/23/23
f 21/21/21 23/23/23 28/28/28
f 28/28/28 29/29/29 21/21/21
f 21/21/21 29/29/29 30/30/30
f 28/28/28 23/23/23 31/31/31
f 32/32/32 23/23/23 27/27/27
f 31/31/31 23/23/23 32/32/32
f 33/33/33 32/32/32 27/27/27
f 27/27/27 34/34/34 33/33/33
f 35/35/35 33/33/33 34/34/34
f 31/31/31 32/32/32 36/36/36
f 31/31/31 36/36/36 37/37/37
f 32/32/32 38/38/38 36/36/36
f 33/33/33 38/38/38 32/32/32
f 36/36/36 38/38/38 39/39/39
f 39/39/39 38/38/38 33/33/33
f 40/40/40 36/36/36 39/39/39
f 33/33/33 35/35/35 41/41/41
f 41/41/41 39/39/39 33/33/33
f 42/42/42 41/41/41 35/35/35
f 43/43/43 40/40/40 39/39/39
f 44/44/44 40/40/40 43/43/43
f 39/39/39 45/45/45 43/43/43
f 41/41/41 45/45/45 39/39/39
f 46/46/46 41/41/41 42/42/42
f 47/47/47 46/46/46 42/42/42
f 48/48/48 46/46/46 47/47/47
f 43/43/43 45/45/45 49/49/49
f 43/43/43 49/49/49 50/50/50
f 41/41/41 51/51/51 45/45/45
f 41/41/41 46/46/46 51/51/51
f 45/45/45 51/51/51 49/49/49
f 52/52/52 51/51/51 46/46/46
f 49/49/49 51/51/51 52/52/52
f 52/52/52 46/46/46 48/48/48
f 49/49/49 52/52/52 53/53/53
f 52/52/52 48/48/48 54/54/54
f 55/55/55 54/54/54 48/48/48
f 56/56/56 54/54/54 55/55/55
f 52/52/52 54/54/54 57/57/57
f 57/57/57 54/54/54 56/56/56
f 53/53/53 52/52/52 57/57/57
f 56/56/56 58/58/58 57/57/57
f 59/59/59 57/57/57 58/58/58
f 53/53/53 57/57/57 59/59/59
f 53/53/53 59/59/59 60/60/60
f 63/63/63 62/62/62 61/61/61
f 62/62/62 64/64/64 61/61/61
f 62/62/62 65/65/65 64/64/64
f 65/65/65 66/66/66 64/64/64
f 67/67/67 66/66/66 65/65/65
f 69/69/69 61/61/61 68/68/68
f 70/70/70 69/69/69 68/68/68
f 68/68/68 71/71/71 70/70/70
f 71/71/71 72/72/72 70/70/70
f 72/72/72 71/71/71 73/73/73
f 71/71/71 74/74/74 73/73/73
f 75/75/75 73/73/73 74/74/74
f 73/73/73 75/75/75 76/76/76
f 75/75/75 74/74/74 77/77/77
f 76/76/76 75/75/75 78/78/78
f 75/75/75 77/77/77 79/79/79
f 78/78/78 75/75/75 79/79/79
f 80/80/80 79/79/79 77/77/77
f 80/80/80 81/81/81 79/79/79
f 79/79/79 82/82/82 78/78/78
f 81/81/81 83/83/83 79/79/79
f 84/84/84 78/78/78 82/82/82
f 82/82/82 85/85/85 84/84/84
f 86/86/86 84/84/84 85/85/85
f 81/81/81 87/87/87 83/83/83
f 83/83/83 87/87/87 88/88/88
f 89/89/89 88/88/88 87/87/87
f 88/88/88 89/89/89 90/90/90
f 91/91/91 90/90/90 89/89/89
f 92/92/92 90/90/90 91/91/91
f 93/93/93 92/92/92 91/91/91
f 94/94/94 92/92/92 93/93/93
f 94/94/94 95/95/95 92/92/92
f 96/96/96 92/92/92 95/95/95
f 95/95/95 97/97/97 96/96/96
f 98/98/98 96/96/96 97/97/97
f 101/101/101 100/100/100 99/99/99
f 100/100/100 102/102/102 99/99/99
f 100/100/100 103/103/103 102/102/102
f 104/104/104 102/102/102 103/103/103
f 104/104/104 103/103/103 105/105/105
f 104/104/104 105/105/105 106/106/106
f 109/109/109 108/108/108 107/107/107
f 107/107/107 108/108/108 110/110/110
f 107/107/107 110/110/110 111/111/111
f 111/111/111 110/110/110 112/112/112
f 110/110/110 113/113/113 112/112/112
f 112/112/112 113/113/113 114/114/114
f 116/116/116 115/115/115 15/15/15
f 115/115/115 117/117/117 15/15/15
f 117/117/117 9/9/9 15/15/15
f 118/118/118 9/9/9 117/117/117
f 119/119/119 9/9/9 118/118/118
f 120/120/120 118/118/118 117/117/117
f 117/117/117 115/115/115 121/121/121
f 117/117/117 121/121/121 120/120/120
f 122/122/122 121/121/121 115/115/115
f 120/120/120 121/121/121 123/123/123
f 123/123/123 121/121/121 124/124/124
f 122/122/122 124/124/124 121/121/121
f 123/123/123 124/124/124 125/125/125
f 126/126/126 123/123/123 125/125/125
f 125/125/125 124/124/124 127/127/127
f 125/125/125 127/127/127 128/128/128
f 129/129/129 127/127/127 124/124/124
f 129/129/129 124/124/124 122/122/122
f 130/130/130 127/127/127 129/129/129
f 129/129/129 122/122/122 131/131/131
f 132/132/132 131/131/131 122/122/122
f 133/133/133 131/131/131 132/132/132
f 136/136/136 135/135/135 134/134/134
f 134/134/134 135/135/135 137/137/137
f 138/138/138 134/134/134 137/137/137
f 138/138/138 137/137/137 139/139/139
f 140/140/140 138/138/138 139/139/139
f 139/139/139 141/141/141 140/140/140
f 142/142/142 140/140/140 141/141/141
f 143/143/143 141/141/141 139/139/139
f 142/142/142 141/141/141 144/144/144
f 144/144/144 141/141/141 143/143/143
f 145/145/145 142/142/142 144/144/144
f 144/144/144 143/143/143 146/146/146
f 145/145/145 144/144/144 147/147/147
f 144/144/144 146/146/146 148/148/148
f 144/144/144 148/148/148 147/147/147
f 149/149/149 148/148/148 146/146/146
f 147/147/147 148/148/148 150/150/150
f 148/148/148 149/149/149 151/151/151
f 148/148/148 151/151/151 150/150/150
f 152/152/152 151/151/151 149/149/149
f 150/150/150 151/151/151 153/153/153
f 153/153/153 151/151/151 152/152/152
f 152/152/152 154/154/154 153/153/153
f 150/150/150 153/153/153 155/155/155
f 153/153/153 154/154/154 156/156/156
f 155/155/155 153/153/153 157/157/157
f 153/153/153 156/156/156 157/157/157
f 157/157/157 158/158/158 155/155/155
f 159/159/159 157/157/157 156/156/156
f 157/157/157 160/160/160 158/158/158
f 159/159/159 161/161/161 157/157/157
f 162/162/162 158/158/158 160/160/160
f 159/159/159 163/163/163 161/161/161
f 160/160/160 164/164/164 162/162/162
f 159/159/159 165/165/165 163/163/163
f 166/166/166 162/162/162 164/164/164
f 167/167/167 163/163/163 165/165/165
f 164/164/164 168/168/168 166/166/166
f 169/169/169 167/167/167 165/165/165
f 170/170/170 166/166/166 168/168/168
f 169/169/169 171/171/171 167/167/167
f 168/168/168 171/171/171 170/170/170
f 169/169/169 172/172/172 171/171/171
f 170/170/170 171/171/171 173/173/173
f 171/171/171 172/172/172 173/173/173
