g M_HairBK02
v 0.03298689 1.4707086 -0.058222543
v 0.030040363 1.4709506 -0.060682595
v 0.03301881 1.4655315 -0.05969888
v 0.027665762 1.4769601 -0.061423667
v 0.03359108 1.4769098 -0.058613326
v 0.0366527 1.484243 -0.060186524
v 0.034377318 1.4857309 -0.06474943
v 0.043588687 1.4920808 -0.05591085
v 0.039979268 1.4840721 -0.055071585
v 0.036488615 1.4768405 -0.054956388
v 0.033712436 1.4710056 -0.05716055
v 0.035375938 1.4713781 -0.055095524
v 0.035117887 1.4649786 -0.056096885
v 0.03381728 1.4709821 -0.051866814
v 0.033450536 1.4771881 -0.048077334
v 0.03522085 1.4847398 -0.043073807
v 0.038280707 1.4932874 -0.038936384
v 0.046606515 1.5025997 -0.047867734
v 0.04575073 1.5050906 -0.037216604
v 0.053407285 1.5166603 -0.035980757
v 0.055058677 1.5134778 -0.046685103
v 0.062094726 1.5285058 -0.03464554
v 0.06640905 1.5270998 -0.043935165
v 0.0717881 1.5246713 -0.061718807
v 0.055800322 1.5107112 -0.060383547
v 0.06499633 1.5212207 -0.080111206
v 0.05474409 1.5099553 -0.0758058
v 0.0465567 1.498283 -0.0569088
v 0.042693414 1.4986153 -0.06851178
v 0.037537348 1.4971176 -0.08023355
v 0.042567343 1.5081047 -0.09149191
v 0.025407387 1.4964513 -0.09009719
v 0.022878455 1.5067372 -0.105395526
v 0.029108431 1.4851984 -0.07395233
v 0.013017481 1.4968497 -0.09522833
v 0.018953275 1.4847616 -0.079407535
v 0.024365105 1.4752165 -0.0708371
v 6.705591E-07 1.4973158 -0.09903965
v -0.00024864197 1.4851251 -0.08277684
v -0 1.5062122 -0.1139221
v -0.022711432 1.5078393 -0.10482988
v 0.008826856 1.4845573 -0.082006775
v 0.006702142 1.4745995 -0.07650034
v 0.015840206 1.4744225 -0.07342174
v -0.013170898 1.4966757 -0.09573307
v -0.025368618 1.4964634 -0.0900362
v -0.042729795 1.5090714 -0.09298702
v 0.027831502 1.4764555 -0.063935556
v 0.027665762 1.4769601 -0.061423667
v 0.024021156 1.4693326 -0.065826245
v 0.02100444 1.4680734 -0.0718427
v 0.019869821 1.4628835 -0.069510266
v 0.01638791 1.4678183 -0.07429708
v 0.014260936 1.4632318 -0.07475693
v 0.019161686 1.4628592 -0.073505715
v 0.01714092 1.4564042 -0.07581086
v 0.016501557 1.4625508 -0.074990444
v 0.0076689664 1.463344 -0.077583365
v 0.012942103 1.4557921 -0.07740758
v 0.00974751 1.4564198 -0.07838898
v 0.012515952 1.4492613 -0.079680994
v -0.00052487355 1.468662 -0.07505277
v 0.0037657195 1.4631369 -0.07469998
v -0.00056611956 1.4754841 -0.07561108
v 0.0076689664 1.463344 -0.077583365
v 0.008789018 1.4554254 -0.07883976
v -0.005045981 1.4746636 -0.07666463
v -0.00052487355 1.468662 -0.07505277
v -0.0031956239 1.4638314 -0.074066125
v -0.01160789 1.4846814 -0.08180173
v -0.006768729 1.4667578 -0.0759633
v -0.005584693 1.4593195 -0.07446535
v -0.011593837 1.4745363 -0.07631003
v -0.008620322 1.4601611 -0.076494746
v -0.0076598027 1.4557365 -0.07578088
v -0.009291832 1.456085 -0.07701238
v -0.01002801 1.451639 -0.077644
v -0.011807132 1.4674299 -0.07600674
v -0.01912326 1.4844617 -0.07970112
v -0.0152383335 1.4747949 -0.073759854
v -0.014528628 1.4672966 -0.07338161
v -0.013845338 1.4607887 -0.073990345
v -0.011835373 1.4606924 -0.07648031
v -0.010502832 1.4554408 -0.07705744
v -0.012026568 1.4557892 -0.07715928
v -0.013360439 1.4551803 -0.07593692
v -0.012989713 1.4501572 -0.078315355
v -0.028877798 1.484772 -0.07408046
v -0.037499044 1.4971367 -0.08016637
v -0.035873722 1.4854684 -0.06568278
v -0.024181632 1.4744717 -0.071095206
v -0.054776352 1.510939 -0.07668287
v -0.04583228 1.4994011 -0.06946301
v -0.07147889 1.5229471 -0.06577541
v -0.017596263 1.4747444 -0.07443491
v -0.0152383335 1.4747949 -0.073759854
v -0.01689764 1.4671092 -0.07431784
v -0.014528628 1.4672966 -0.07338161
v -0.016135683 1.4625927 -0.07498346
v -0.0143987425 1.4624563 -0.07453431
v -0.015453941 1.4605641 -0.075491644
v -0.014307006 1.4603348 -0.07512723
v -0.014239908 1.457734 -0.07620023
v -0.021777598 1.4676075 -0.07195126
v -0.01953144 1.4625343 -0.07293436
v -0.016454631 1.4624326 -0.07467203
v -0.015859054 1.4551653 -0.075038984
v -0.019740326 1.4622428 -0.07030907
v -0.0241304 1.4692215 -0.065737054
v -0.027995408 1.4757931 -0.06419858
v -0.030189592 1.477374 -0.059320085
v -0.034573957 1.4762597 -0.05504437
v -0.03366591 1.4704187 -0.055462353
v -0.030546794 1.4711653 -0.058134906
v -0.03222761 1.4654363 -0.057325408
v -0.040925425 1.4846983 -0.054324523
v -0.03892451 1.4770023 -0.052325096
v -0.034526516 1.4705431 -0.053526714
v -0.03732464 1.4715443 -0.051600255
v -0.036816426 1.4641416 -0.053233583
v -0.043588687 1.4920808 -0.05591085
v -0.049629975 1.5027949 -0.057881698
v -0.03709076 1.4960328 -0.035828494
v -0.045085467 1.508931 -0.03390211
v -0.05860059 1.531642 -0.026859252
v -0.06966792 1.5415406 -0.03446807
v -0.03732464 1.4715443 -0.051600255
v -0.036454003 1.470598 -0.047860537
v -0.036816426 1.4641416 -0.053233583
v -0.037321903 1.4764416 -0.04513433
v -0.03892451 1.4770023 -0.052325096
v -0.040925425 1.4846983 -0.054324523
v -0.03583851 1.486011 -0.04045315
v -0.043588687 1.4920808 -0.05591085
v -0.03709076 1.4960328 -0.035828494
vt 0.709692 0.032267988
vt 0.714149 0.036213994
vt 0.718081 0.027050972
vt 0.710196 0.043986976
vt 0.701462 0.040126026
vt 0.69301 0.050978005
vt 0.698543 0.058414996
vt 0.6741 0.05391699
vt 0.686788 0.04284501
vt 0.696375 0.034987986
vt 0.7068 0.032872975
vt 0.703845 0.030376017
vt 0.711712 0.026390016
vt 0.701713 0.02569902
vt 0.68997 0.025831997
vt 0.676277 0.026108027
vt 0.660319 0.028038025
vt 0.65158 0.051759005
vt 0.639855 0.037768006
vt 0.618978 0.047479987
vt 0.630724 0.062418997
vt 0.596339 0.057506025
vt 0.602431 0.073753
vt 0.615911 0.102518976
vt 0.645557 0.08135003
vt 0.643122 0.12273002
vt 0.66116 0.10290098
vt 0.665313 0.061993003
vt 0.67963 0.07782799
vt 0.69757 0.091712
vt 0.69093 0.11970401
vt 0.723159 0.103112996
vt 0.729921 0.13395602
vt 0.714301 0.069906
vt 0.746541 0.11044198
vt 0.7341 0.077591
vt 0.726685 0.055068016
vt 0.77107 0.11593503
vt 0.77107 0.08390498
vt 0.771047 0.14677101
vt 0.812876 0.135248
vt 0.752962 0.081520975
vt 0.757589 0.05976802
vt 0.740647 0.057702005
vt 0.795546 0.110386014
vt 0.818886 0.10302502
vt 0.851078 0.122494996
vt 0.713863 0.047343016
vt 0.710196 0.043986976
vt 0.725219 0.03973198
vt 0.735668 0.046415985
vt 0.73739 0.035292983
vt 0.743196 0.049395025
vt 0.746448 0.042744994
vt 0.742471 0.038806975
vt 0.750373 0.030800998
vt 0.745851 0.041055977
vt 0.757084 0.04494202
vt 0.751799 0.033234
vt 0.756568 0.034976006
vt 0.755602 0.02415502
vt 0.771868 0.049678028
vt 0.765763 0.04244697
vt 0.771267 0.061675012
vt 0.757084 0.04494202
vt 0.758961 0.03214997
vt 0.780347 0.061236024
vt 0.771868 0.049678028
vt 0.777976 0.04513198
vt 0.794295 0.08062202
vt 0.783632 0.051213026
vt 0.781524 0.041499972
vt 0.792657 0.062367022
vt 0.786794 0.04297
vt 0.784679 0.03737998
vt 0.787552 0.037859976
vt 0.788623 0.032141984
vt 0.791268 0.052357018
vt 0.807959 0.07761699
vt 0.800596 0.059423983
vt 0.796867 0.05054599
vt 0.794746 0.043226004
vt 0.790786 0.043744028
vt 0.788876 0.037832975
vt 0.790665 0.038016975
vt 0.79282 0.03732097
vt 0.79088 0.031800985
vt 0.827585 0.070014
vt 0.844253 0.09156501
vt 0.84411 0.059367
vt 0.815404 0.05550897
vt 0.880838 0.104339
vt 0.865887 0.08041
vt 0.907102 0.09515202
vt 0.80358 0.059931993
vt 0.800596 0.059423983
vt 0.799654 0.050089
vt 0.796867 0.05054599
vt 0.798418 0.045112014
vt 0.795758 0.044830978
vt 0.797469 0.041199982
vt 0.794997 0.040485024
vt 0.795102 0.034983993
vt 0.807436 0.04770702
vt 0.802714 0.040286005
vt 0.798338 0.041309
vt 0.796279 0.031834006
vt 0.807367 0.037871003
vt 0.818027 0.041224003
vt 0.828604 0.046261013
vt 0.835811 0.042393982
vt 0.842774 0.036813974
vt 0.83665 0.031466007
vt 0.831976 0.035171986
vt 0.830384 0.02671802
vt 0.857811 0.04383099
vt 0.848599 0.033878982
vt 0.838747 0.031646013
vt 0.841999 0.02907902
vt 0.832892 0.024360001
vt 0.867904 0.05337298
vt 0.884385 0.067747
vt 0.887941 0.022441983
vt 0.911584 0.033663988
vt 0.956735 0.047767997
vt 0.970028 0.07338399
vt 0.841999 0.02907902
vt 0.843384 0.024069011
vt 0.832892 0.024360001
vt 0.852198 0.023443997
vt 0.848599 0.033878982
vt 0.857811 0.04383099
vt 0.869312 0.022086978
vt 0.867904 0.05337298
vt 0.887941 0.022441983
vn 0.7044485 0.022617683 -0.7093946
vn 0.71666193 0.023553897 -0.697023
vn 0.7313479 0.023949996 -0.681584
vn 0.65912485 0.017245699 -0.7518359
vn 0.730532 0.0172793 -0.68266
vn 0.8377463 0.014498207 -0.54586715
vn 0.89112693 0.012677899 -0.453577
vn 0.9884722 0.015699705 -0.15058602
vn 0.98534507 0.0152354 -0.169891
vn 0.98348236 0.015992405 -0.18029606
vn 0.81136876 0.020215595 -0.5841849
vn 0.99433714 0.020900402 -0.10419601
vn 0.9791255 0.02190919 -0.2020719
vn 0.9684225 0.018044189 0.24866085
vn 0.96495414 0.015038402 0.26198703
vn 0.96794116 0.014621204 0.25075105
vn 0.9747279 0.014971799 0.22289297
vn 0.9919669 0.015713599 0.12551796
vn 0.9859325 0.015739193 0.16640092
vn 0.97208583 0.017220596 0.23399295
vn 0.9867144 0.01514029 0.16175692
vn 0.9521237 0.018692395 0.3051409
vn 0.97226644 0.01835971 0.2331541
vn 0.99544203 0.0165802 -0.093916506
vn 0.9937676 0.0132728955 -0.110678956
vn 0.9441098 0.016138898 -0.32923594
vn 0.9396515 0.0130308075 -0.34188515
vn 0.9885318 0.015989397 -0.15016398
vn 0.9159437 0.012536796 -0.4011109
vn 0.775783 0.0119879 -0.630886
vn 0.6892049 0.014224596 -0.72442687
vn 0.5157659 0.012682796 -0.85663575
vn 0.38713503 0.011913702 -0.92194605
vn 0.76439404 0.0142417 -0.64459205
vn 0.25865707 0.012510002 -0.96588826
vn 0.49109018 0.013997405 -0.8709963
vn 0.7540462 0.013126904 -0.65669024
vn -0.0098189 0.010483599 -0.9998969
vn -0.015082203 0.012260802 -0.9998111
vn -0.025668606 0.007132441 -0.9996451
vn -0.3825491 0.013512305 -0.92383635
vn 0.24253894 0.013571496 -0.9700467
vn 0.04181049 0.012140996 -0.99905175
vn 0.42301103 0.0145305 -0.90600806
vn -0.25740302 0.013544402 -0.9662092
vn -0.50870377 0.013255893 -0.8608396
vn -0.676426 0.0147463 -0.736363
vn 0.9871041 0.010251401 -0.15975101
vn 0.9980009 0.00977137 0.0624398
vn 0.95006776 0.010078296 -0.31188095
vn 0.7212041 0.013759502 -0.69258606
vn 0.93731254 0.010948493 -0.3483178
vn 0.402498 0.0172125 -0.915259
vn 0.3993371 0.018454207 -0.91661835
vn 0.69064504 0.016523004 -0.7230051
vn 0.7060241 0.017310102 -0.7079761
vn 0.3703998 0.019505791 -0.9286676
vn 0.36211407 0.018652802 -0.9319471
vn 0.38271895 0.021400398 -0.92361695
vn 0.35193604 0.020972 -0.9357891
vn 0.3745189 0.021634994 -0.92696685
vn -0.41438895 0.012589397 -0.9100128
vn -0.4537648 0.016454393 -0.8909696
vn 0.028481394 0.005911029 -0.99957687
vn -0.43444195 0.017339498 -0.9005329
vn -0.43180993 0.017810997 -0.9017888
vn 0.15555796 0.0115140965 -0.98775965
vn 0.50436825 0.012694806 -0.8633954
vn 0.42753798 0.013742 -0.90389293
vn -0.27727205 0.014011903 -0.96068925
vn 0.17261904 0.014131703 -0.9848873
vn 0.42475605 0.014971302 -0.9051841
vn -0.37347707 0.013150602 -0.9275462
vn 0.21559504 0.016277803 -0.9763472
vn 0.46547902 0.016502403 -0.88490504
vn 0.458249 0.0168068 -0.88866496
vn 0.47443894 0.016917897 -0.8801259
vn -0.3265621 0.016528405 -0.9450313
vn -0.514867 0.014101701 -0.8571541
vn -0.75460595 0.013074299 -0.6560479
vn -0.7347741 0.016587006 -0.67810917
vn -0.70024693 0.018385798 -0.71366394
vn -0.36884305 0.017590703 -0.9293252
vn 0.051893104 0.018829502 -0.99847513
vn -0.33571106 0.021474503 -0.9417202
vn -0.67660284 0.020989794 -0.7360489
vn -0.32468787 0.022414591 -0.94555557
vn -0.73268765 0.014545993 -0.68040967
vn -0.74722123 0.0126925055 -0.6644542
vn -0.88155216 0.011957802 -0.4719351
vn -0.7578277 0.012615696 -0.6523328
vn -0.90433836 0.015436906 -0.42653722
vn -0.9134772 0.013373102 -0.40667003
vn -0.9977919 0.018009698 -0.06393009
vn -0.24748103 0.014571302 -0.96878314
vn 0.03212609 0.016546099 -0.9993468
vn -0.21322788 0.017624788 -0.9768435
vn 0.10577404 0.019374507 -0.99420136
vn 0.089831784 0.021416495 -0.9957267
vn 0.110162996 0.0217319 -0.9936759
vn 0.13777004 0.023333507 -0.9901894
vn 0.16443707 0.023761407 -0.9861013
vn 0.17376006 0.024650905 -0.98447937
vn -0.7542818 0.0131581975 -0.6564189
vn -0.76065123 0.0133104045 -0.6490242
vn -0.4747719 0.017509794 -0.8799347
vn -0.68944687 0.013794096 -0.72420484
vn -0.9489272 0.009724602 -0.31534508
vn -0.94724417 0.010633102 -0.3203361
vn -0.9515652 0.009594912 -0.30729705
vn -0.81865394 0.009828549 -0.57420295
vn -0.7355138 0.015916396 -0.67732275
vn -0.7308021 0.021136403 -0.6822621
vn -0.69570875 0.020523192 -0.71803075
vn -0.7177051 0.022143602 -0.69599503
vn -0.88920623 0.015016205 -0.45726013
vn -0.694641 0.0174029 -0.719146
vn -0.651405 0.0223138 -0.758402
vn -0.6906167 0.02111199 -0.7229127
vn -0.63592416 0.025134306 -0.77134216
vn -0.99695444 0.01621489 -0.076281965
vn -0.99922705 0.015336601 -0.0361955
vn -0.9585831 0.016780702 0.28431803
vn -0.9628531 0.0161909 0.26954
vn -0.9570371 0.020459 0.28924304
vn -0.9741174 0.022720708 0.22489807
vn -0.9978619 0.019257596 0.062455095
vn -0.9964515 0.019067911 0.081980735
vn -0.9981725 0.01945509 0.05721038
vn -0.98818666 0.020101491 0.15193094
vn -0.9982293 0.018657908 0.056480516
vn -0.98970884 0.020182896 0.14166498
vn -0.96580684 0.020142298 0.25847894
vn -0.99695444 0.01621489 -0.076281965
vn -0.9585831 0.016780803 0.28431803
g M_HairBK02_0
f 3/3/3 2/2/2 1/1/1
f 1/1/1 2/2/2 4/4/4
f 5/5/5 1/1/1 4/4/4
f 5/5/5 4/4/4 6/6/6
f 7/7/7 6/6/6 4/4/4
f 8/8/8 6/6/6 7/7/7
f 5/5/5 6/6/6 9/9/9
f 9/9/9 6/6/6 8/8/8
f 10/10/10 5/5/5 9/9/9
f 10/10/10 11/11/11 5/5/5
f 10/10/10 12/12/12 11/11/11
f 11/11/11 12/12/12 13/13/13
f 12/12/12 14/14/14 13/13/13
f 15/15/15 14/14/14 12/12/12
f 15/15/15 12/12/12 10/10/10
f 10/10/10 9/9/9 15/15/15
f 16/16/16 15/15/15 9/9/9
f 9/9/9 8/8/8 16/16/16
f 16/16/16 8/8/8 17/17/17
f 17/17/17 8/8/8 18/18/18
f 17/17/17 18/18/18 19/19/19
f 19/19/19 18/18/18 20/20/20
f 20/20/20 18/18/18 21/21/21
f 20/20/20 21/21/21 22/22/22
f 21/21/21 23/23/23 22/22/22
f 24/24/24 23/23/23 21/21/21
f 24/24/24 21/21/21 25/25/25
f 25/25/25 21/21/21 18/18/18
f 25/25/25 26/26/26 24/24/24
f 27/27/27 26/26/26 25/25/25
f 28/28/28 18/18/18 8/8/8
f 28/28/28 25/25/25 18/18/18
f 28/28/28 8/8/8 29/29/29
f 28/28/28 29/29/29 25/25/25
f 27/27/27 25/25/25 29/29/29
f 29/29/29 8/8/8 7/7/7
f 29/29/29 30/30/30 27/27/27
f 7/7/7 30/30/30 29/29/29
f 27/27/27 30/30/30 31/31/31
f 32/32/32 31/31/31 30/30/30
f 32/32/32 33/33/33 31/31/31
f 7/7/7 34/34/34 30/30/30
f 32/32/32 30/30/30 34/34/34
f 32/32/32 35/35/35 33/33/33
f 32/32/32 34/34/34 36/36/36
f 36/36/36 35/35/35 32/32/32
f 7/7/7 37/37/37 34/34/34
f 34/34/34 37/37/37 36/36/36
f 33/33/33 35/35/35 38/38/38
f 38/38/38 35/35/35 39/39/39
f 40/40/40 33/33/33 38/38/38
f 38/38/38 41/41/41 40/40/40
f 36/36/36 42/42/42 35/35/35
f 35/35/35 42/42/42 39/39/39
f 39/39/39 42/42/42 43/43/43
f 44/44/44 42/42/42 36/36/36
f 37/37/37 44/44/44 36/36/36
f 44/44/44 43/43/43 42/42/42
f 38/38/38 45/45/45 41/41/41
f 39/39/39 45/45/45 38/38/38
f 41/41/41 45/45/45 46/46/46
f 47/47/47 41/41/41 46/46/46
f 7/7/7 48/48/48 37/37/37
f 49/49/49 48/48/48 7/7/7
f 50/50/50 48/48/48 49/49/49
f 37/37/37 48/48/48 50/50/50
f 50/50/50 51/51/51 37/37/37
f 37/37/37 51/51/51 44/44/44
f 50/50/50 52/52/52 51/51/51
f 51/51/51 53/53/53 44/44/44
f 44/44/44 54/54/54 43/43/43
f 52/52/52 55/55/55 51/51/51
f 51/51/51 55/55/55 53/53/53
f 56/56/56 55/55/55 52/52/52
f 55/55/55 57/57/57 53/53/53
f 56/56/56 57/57/57 55/55/55
f 54/54/54 58/58/58 43/43/43
f 54/54/54 59/59/59 58/58/58
f 59/59/59 60/60/60 58/58/58
f 61/61/61 60/60/60 59/59/59
f 43/43/43 63/63/63 62/62/62
f 62/62/62 64/64/64 43/43/43
f 43/43/43 65/65/65 63/63/63
f 63/63/63 65/65/65 66/66/66
f 43/43/43 64/64/64 39/39/39
f 39/39/39 64/64/64 67/67/67
f 67/67/67 64/64/64 68/68/68
f 69/69/69 67/67/67 68/68/68
f 67/67/67 70/70/70 39/39/39
f 39/39/39 70/70/70 45/45/45
f 46/46/46 45/45/45 70/70/70
f 69/69/69 71/71/71 67/67/67
f 69/69/69 72/72/72 71/71/71
f 67/67/67 73/73/73 70/70/70
f 67/67/67 71/71/71 73/73/73
f 72/72/72 74/74/74 71/71/71
f 72/72/72 75/75/75 74/74/74
f 75/75/75 76/76/76 74/74/74
f 75/75/75 77/77/77 76/76/76
f 74/74/74 78/78/78 71/71/71
f 73/73/73 71/71/71 78/78/78
f 70/70/70 73/73/73 79/79/79
f 46/46/46 70/70/70 79/79/79
f 80/80/80 73/73/73 78/78/78
f 80/80/80 79/79/79 73/73/73
f 81/81/81 80/80/80 78/78/78
f 82/82/82 81/81/81 78/78/78
f 74/74/74 83/83/83 78/78/78
f 78/78/78 83/83/83 82/82/82
f 74/74/74 84/84/84 83/83/83
f 83/83/83 85/85/85 82/82/82
f 84/84/84 85/85/85 83/83/83
f 85/85/85 86/86/86 82/82/82
f 84/84/84 87/87/87 85/85/85
f 85/85/85 87/87/87 86/86/86
f 79/79/79 88/88/88 46/46/46
f 46/46/46 88/88/88 89/89/89
f 46/46/46 89/89/89 47/47/47
f 90/90/90 89/89/89 88/88/88
f 88/88/88 91/91/91 90/90/90
f 79/79/79 91/91/91 88/88/88
f 47/47/47 89/89/89 92/92/92
f 93/93/93 92/92/92 89/89/89
f 93/93/93 89/89/89 90/90/90
f 92/92/92 93/93/93 94/94/94
f 91/91/91 79/79/79 95/95/95
f 96/96/96 95/95/95 79/79/79
f 95/95/95 96/96/96 97/97/97
f 97/97/97 96/96/96 98/98/98
f 98/98/98 99/99/99 97/97/97
f 98/98/98 100/100/100 99/99/99
f 100/100/100 101/101/101 99/99/99
f 100/100/100 102/102/102 101/101/101
f 101/101/101 102/102/102 103/103/103
f 95/95/95 97/97/97 104/104/104
f 95/95/95 104/104/104 91/91/91
f 97/97/97 105/105/105 104/104/104
f 97/97/97 106/106/106 105/105/105
f 105/105/105 106/106/106 107/107/107
f 108/108/108 105/105/105 107/107/107
f 104/104/104 105/105/105 108/108/108
f 104/104/104 108/108/108 109/109/109
f 91/91/91 104/104/104 109/109/109
f 109/109/109 110/110/110 91/91/91
f 91/91/91 110/110/110 90/90/90
f 111/111/111 110/110/110 109/109/109
f 90/90/90 110/110/110 111/111/111
f 112/112/112 90/90/90 111/111/111
f 111/111/111 113/113/113 112/112/112
f 111/111/111 114/114/114 113/113/113
f 113/113/113 114/114/114 115/115/115
f 90/90/90 112/112/112 116/116/116
f 117/117/117 116/116/116 112/112/112
f 112/112/112 118/118/118 117/117/117
f 118/118/118 119/119/119 117/117/117
f 120/120/120 119/119/119 118/118/118
f 116/116/116 121/121/121 90/90/90
f 93/93/93 90/90/90 121/121/121
f 93/93/93 121/121/121 122/122/122
f 122/122/122 121/121/121 123/123/123
f 122/122/122 123/123/123 124/124/124
f 122/122/122 94/94/94 93/93/93
f 124/124/124 125/125/125 122/122/122
f 125/125/125 94/94/94 122/122/122
f 94/94/94 125/125/125 126/126/126
f 129/129/129 128/128/128 127/127/127
f 127/127/127 128/128/128 130/130/130
f 131/131/131 127/127/127 130/130/130
f 131/131/131 130/130/130 132/132/132
f 133/133/133 132/132/132 130/130/130
f 133/133/133 134/134/134 132/132/132
f 133/133/133 135/135/135 134/134/134
