g M_HairBK04
v 0.062506996 1.535916 -0.047311697
v 0.05887219 1.5573578 -0.028866192
v 0.06519987 1.5558834 -0.03725922
v 0.05539459 1.5361707 -0.029445805
v 0.048471812 1.5104084 -0.038522687
v 0.046085786 1.5134393 -0.031202406
v 0.038006965 1.4973583 -0.031844974
v 0.03834002 1.4954264 -0.040199284
v 0.03690485 1.4878825 -0.033478025
v 0.03652959 1.4880726 -0.03854965
v 0.035087436 1.4788318 -0.037162315
v 0.03861066 1.4940859 -0.048492998
v 0.03447138 1.4892406 -0.04232857
v 0.049191967 1.505339 -0.05816241
v 0.035968248 1.4886018 -0.048988275
v 0.033944067 1.4826523 -0.045784272
v 0.035217248 1.4828138 -0.048982568
v 0.034381285 1.4771581 -0.048974752
v 0.03575381 1.4929082 -0.056979146
v 0.03269753 1.4823011 -0.053088777
v 0.07133697 1.5233057 -0.061855264
v 0.07473232 1.5524273 -0.041798435
v 0.08409982 1.5407166 -0.06926724
v 0.062180012 1.5202318 -0.08668534
v 0.073304616 1.537643 -0.09484606
v 0.042889357 1.5025254 -0.072092295
v 0.043258086 1.5154697 -0.10101238
v 0.05280386 1.5289636 -0.12023562
v 0.030633356 1.4832764 -0.05950812
v 0.028366357 1.4764538 -0.058303542
v 0.030095913 1.4910508 -0.063903056
v 0.031090688 1.5021526 -0.08366952
v 0.019474348 1.5135523 -0.108870104
v 0.026814284 1.5257957 -0.13296184
v 0.025813332 1.4846323 -0.06317984
v 0.023590667 1.4898417 -0.07234118
v 0.015513144 1.4986507 -0.08847196
v 0.027513554 1.4771185 -0.06137498
v 0.025630921 1.4718559 -0.06294718
v 0.025044415 1.4773127 -0.06277498
v 1.276E-09 1.5140179 -0.110719986
v -0.0011090233 1.5250703 -0.1368062
v -0.019474324 1.5135525 -0.108870104
v -0.026814265 1.5257957 -0.13296185
v -0 1.4993919 -0.0910598
v 0.013704325 1.4883137 -0.076039694
v -0 1.4881297 -0.07935095
v 0.019644774 1.4820334 -0.06964347
v 0.020619495 1.4758453 -0.06586873
v 0.011912346 1.4784431 -0.071187966
v -0 1.4795052 -0.07292248
v 0.0037356715 1.474343 -0.0730219
v 0.009104823 1.4741871 -0.071243376
v 0.0064520775 1.4691049 -0.07265523
v 0.016695162 1.4754434 -0.06958983
v 0.015480422 1.469683 -0.06926159
v 0.011374148 1.4744368 -0.07010522
v 0.013133203 1.4704597 -0.070770614
v 0.008702158 1.4668355 -0.07273747
v 0.010424801 1.4709731 -0.07034039
v -0.019474324 1.5135525 -0.108870104
v -0 1.4993919 -0.0910598
v 1.276E-09 1.5140179 -0.110719986
v -0.015513144 1.4986507 -0.08847196
v -0.043258063 1.5154694 -0.101012364
v -0.026814265 1.5257957 -0.13296185
v -0.05280384 1.5289636 -0.1202356
v -0.062180012 1.5202318 -0.08668534
v -0.073304616 1.5376431 -0.094846055
v -0.013704325 1.4883137 -0.076039694
v -0 1.4881297 -0.07935095
v -0.031090688 1.5021526 -0.08366952
v -0.042889357 1.5025254 -0.072092295
v -0.07133697 1.5233057 -0.061855264
v -0.042889357 1.5025254 -0.072092295
v -0.08409982 1.5407166 -0.06926724
v -0.049191967 1.505339 -0.05816241
v -0.023590667 1.4898417 -0.07234118
v -0.042889357 1.5025254 -0.072092295
v -0.064576834 1.5338181 -0.045807343
v -0.07272014 1.553116 -0.04859721
v -0.030095913 1.4910508 -0.063903056
v -0.03575381 1.4929082 -0.056979146
v -0.038599454 1.4941248 -0.04850696
v -0.025813332 1.4846323 -0.06317984
v -0.019644774 1.4820334 -0.06964347
v -0.011912346 1.4784431 -0.071187966
v -0 1.4795052 -0.07292248
v -0.0037356715 1.474343 -0.0730219
v -0.009104823 1.4741871 -0.071243376
v -0.0064520775 1.4691049 -0.07265523
v -0.016695162 1.4754434 -0.06958983
v -0.011374148 1.4744368 -0.07010522
v -0.020619495 1.4758453 -0.06586873
v -0.015480422 1.469683 -0.06926159
v -0.013133203 1.4704597 -0.070770614
v -0.010424801 1.4709731 -0.07034039
v -0.008702158 1.4668355 -0.07273747
v -0.030633356 1.4832764 -0.05950812
v -0.025044415 1.4773127 -0.06277498
v -0.027513554 1.4771185 -0.06137498
v -0.025630921 1.4718559 -0.06294718
v -0.028366357 1.4764538 -0.058303542
v -0.03269753 1.4823011 -0.053088777
v -0.03596639 1.488606 -0.048987065
v -0.034456275 1.4892951 -0.042350926
v -0.0382969 1.4956006 -0.0402871
v -0.033942603 1.4826553 -0.04578289
v -0.035217248 1.4828138 -0.048982568
v -0.034381285 1.4771581 -0.048974752
v -0.035078976 1.4788653 -0.037179433
v -0.036509488 1.4881575 -0.03859805
v -0.03686325 1.4880644 -0.033587154
v -0.037842803 1.4978559 -0.03178027
v -0.0382969 1.4956006 -0.0402871
v -0.056439828 1.5370272 -0.030042075
v -0.06590374 1.5564117 -0.037876528
v -0.056596715 1.5578068 -0.026617011
v -0.049061935 1.5102111 -0.03700816
v -0.04905548 1.5182811 -0.030164842
v -0.049191967 1.505339 -0.05816241
v -0.037842803 1.4978559 -0.03178027
v -0.038599454 1.4941248 -0.04850696
v -0.0382969 1.4956006 -0.0402871
vt 0.343834 0.229419
vt 0.313428 0.21280801
vt 0.314179 0.225595
vt 0.342972 0.20770901
vt 0.380354 0.21854001
vt 0.374832 0.20082903
vt 0.399684 0.20169997
vt 0.404951 0.21521097
vt 0.412169 0.20358598
vt 0.414625 0.210679
vt 0.424699 0.20258301
vt 0.409078 0.22734499
vt 0.415058 0.21699202
vt 0.392029 0.24597597
vt 0.416661 0.22596502
vt 0.423915 0.22078401
vt 0.424034 0.225173
vt 0.431249 0.22419202
vt 0.415964 0.23780799
vt 0.426672 0.226978
vt 0.357283 0.26199
vt 0.312721 0.24311101
vt 0.33214 0.27879298
vt 0.377269 0.29072797
vt 0.35538 0.31392998
vt 0.406063 0.26235902
vt 0.407401 0.311756
vt 0.392972 0.344164
vt 0.430259 0.23459703
vt 0.4374 0.229065
vt 0.425676 0.245422
vt 0.424001 0.27650303
vt 0.440745 0.32159
vt 0.430156 0.36023402
vt 0.434372 0.24122697
vt 0.436599 0.254829
vt 0.446797 0.28037798
vt 0.439007 0.232624
vt 0.445676 0.230555
vt 0.441235 0.23527402
vt 0.467594 0.32476002
vt 0.468366 0.365735
vt 0.494546 0.322443
vt 0.503713 0.36147797
vt 0.468228 0.284298
vt 0.450267 0.25846398
vt 0.468582 0.262147
vt 0.444267 0.24602598
vt 0.445655 0.23762101
vt 0.454292 0.244941
vt 0.46881 0.24833298
vt 0.465224 0.24133402
vt 0.458345 0.24012798
vt 0.462881 0.23442
vt 0.450435 0.240161
vt 0.453821 0.235331
vt 0.455917 0.24119699
vt 0.455929 0.23697603
vt 0.461273 0.23536801
vt 0.457969 0.23858798
vt 0.494546 0.322443
vt 0.468228 0.284298
vt 0.467594 0.32476002
vt 0.489766 0.281056
vt 0.528237 0.31362802
vt 0.503713 0.36147797
vt 0.541454 0.34661698
vt 0.558887 0.293387
vt 0.579957 0.317335
vt 0.486993 0.259066
vt 0.468582 0.262147
vt 0.512655 0.277896
vt 0.530976 0.26429403
vt 0.579696 0.26535398
vt 0.530976 0.26429403
vt 0.604392 0.282776
vt 0.54544 0.24838
vt 0.500741 0.255884
vt 0.530976 0.26429403
vt 0.593946 0.23315
vt 0.624542 0.24769098
vt 0.51191 0.24684697
vt 0.521793 0.23956102
vt 0.528911 0.22933799
vt 0.503395 0.24241602
vt 0.493386 0.246858
vt 0.483422 0.24543399
vt 0.46881 0.24833298
vt 0.472629 0.24146497
vt 0.479539 0.24049401
vt 0.475205 0.23464102
vt 0.48743 0.240798
vt 0.481916 0.241656
vt 0.492291 0.238437
vt 0.484214 0.23584503
vt 0.482032 0.237427
vt 0.479919 0.23898798
vt 0.476676 0.23561901
vt 0.507674 0.23596197
vt 0.496772 0.236323
vt 0.499055 0.23376298
vt 0.492508 0.23154801
vt 0.500742 0.23027998
vt 0.511444 0.22850198
vt 0.521406 0.22776902
vt 0.523199 0.21884298
vt 0.533357 0.21729797
vt 0.514278 0.222449
vt 0.514075 0.22682202
vt 0.506919 0.22571701
vt 0.514497 0.20254397
vt 0.523047 0.21174699
vt 0.526344 0.20544201
vt 0.539049 0.20389098
vt 0.533357 0.21729797
vt 0.596777 0.21455902
vt 0.624057 0.23314202
vt 0.625465 0.21343303
vt 0.558149 0.221084
vt 0.56399 0.20369601
vt 0.54544 0.24838
vt 0.539049 0.20389098
vt 0.528911 0.22933799
vt 0.533357 0.21729797
vn 0.943498 0.0262874 0.330334
vn 0.87813705 0.0344941 0.477164
vn 0.87292296 0.0335239 0.48670498
vn 0.9139782 0.02920041 0.40471113
vn 0.9720919 0.020037698 0.23374298
vn 0.940845 0.022129199 0.33811396
vn 0.97207326 0.019451404 0.23387006
vn 0.9902867 0.018276494 0.13783395
vn 0.9952413 0.022958007 0.09469814
vn 0.9982316 0.02289099 0.054861173
vn 0.99919313 0.021541104 0.0338964
vn 0.9996178 0.015055898 0.023185097
vn 0.9833091 0.018233802 0.18102701
vn 0.9993826 0.012922997 -0.03266919
vn 0.9997205 0.019343091 0.013592692
vn 0.9706984 0.022105709 0.23928209
vn 0.9682843 0.022541605 0.24883208
vn 0.96789336 0.021532109 0.25043708
vn 0.9443554 0.014406607 -0.32861114
vn 0.96331406 0.0180072 -0.267772
vn 0.999585 0.020063197 0.020670498
vn 0.96870136 0.029130612 0.24651408
vn 0.99587303 0.026357703 -0.08684571
vn 0.90585315 0.017907102 -0.42321306
vn 0.8865803 0.024676312 -0.46191618
vn 0.9017372 0.008398012 -0.43220308
vn 0.71267897 0.011685499 -0.7013929
vn 0.66944885 0.019432696 -0.7426039
vn 0.8427307 0.02068589 -0.5379378
vn 0.94728464 0.017859994 -0.31989488
vn 0.8887977 0.011032896 -0.45816684
vn 0.7033819 0.0062391195 -0.71078485
vn 0.32061088 0.004840948 -0.9471986
vn 0.3363501 0.013080204 -0.9416462
vn 0.7847477 0.018842993 -0.61952883
vn 0.7072701 0.0105309 -0.7068651
vn 0.3584391 0.0030557204 -0.93354815
vn 0.8122163 0.02171121 -0.58295226
vn 0.80535024 0.021938505 -0.59239316
vn 0.62355095 0.024777997 -0.78138995
vn -0.000254465 0.0031611703 -0.999995
vn -0.0104701035 0.010651205 -0.9998884
vn -0.32263407 0.004683351 -0.94651216
vn -0.3389799 0.012854396 -0.9407057
vn -1.3399999E-07 0.0032078193 -0.9999949
vn 0.3885499 0.0116837965 -0.92135364
vn 1.2959998E-07 0.010316099 -0.99994683
vn 0.6508163 0.017332407 -0.7590374
vn 0.7581192 0.019203005 -0.6518332
vn 0.30004185 0.018350493 -0.9537496
vn 1.2950004E-07 0.016828606 -0.9998584
vn 0.2349789 0.026001988 -0.97165257
vn 0.34364784 0.02243299 -0.93883055
vn 0.32911596 0.025429502 -0.943947
vn 0.5183248 0.021259092 -0.8549196
vn 0.589463 0.0201931 -0.807543
vn 0.12821406 0.02447691 -0.9914444
vn 0.33271086 0.024649989 -0.94270664
vn 0.22938406 0.029422008 -0.9728913
vn -0.013798895 0.031076591 -0.9994217
vn -0.32061088 0.004840948 -0.9471986
vn 1.3399999E-07 0.0032078193 -0.9999949
vn 0.000254465 0.0031611703 -0.999995
vn -0.3584391 0.0030557204 -0.93354815
vn -0.71267897 0.011685499 -0.7013929
vn -0.3363501 0.013080204 -0.9416462
vn -0.66944885 0.019432696 -0.7426039
vn -0.90585315 0.017907102 -0.42321306
vn -0.8865803 0.024676312 -0.46191618
vn -0.3885499 0.0116837965 -0.92135364
vn -1.2959998E-07 0.010316099 -0.99994683
vn -0.7033819 0.0062391195 -0.71078485
vn -0.9017372 0.008398002 -0.43220308
vn -0.999585 0.020063197 0.020670498
vn -0.9017372 0.008398012 -0.43220308
vn -0.99587303 0.026357703 -0.08684571
vn -0.9993826 0.012922997 -0.03266919
vn -0.7072701 0.0105309 -0.7068651
vn -0.9017372 0.008398012 -0.43220308
vn -0.943498 0.0262874 0.330334
vn -0.96870136 0.029130612 0.24651408
vn -0.8887977 0.011032896 -0.45816684
vn -0.9443554 0.014406607 -0.32861114
vn -0.9996178 0.015055898 0.023185097
vn -0.7847477 0.018842993 -0.61952883
vn -0.6508163 0.017332407 -0.7590374
vn -0.30004185 0.018350493 -0.9537496
vn -1.2950004E-07 0.016828606 -0.9998584
vn -0.2349789 0.026001988 -0.97165257
vn -0.34364784 0.02243299 -0.93883055
vn -0.32911596 0.025429502 -0.943947
vn -0.5183248 0.021259092 -0.8549196
vn -0.12821406 0.02447691 -0.9914444
vn -0.7581192 0.019203005 -0.6518332
vn -0.589463 0.0201931 -0.807543
vn -0.33271086 0.024649989 -0.94270664
vn 0.013798895 0.031076591 -0.9994217
vn -0.22938406 0.029422008 -0.9728913
vn -0.8427307 0.02068589 -0.5379378
vn -0.62355095 0.024777997 -0.78138995
vn -0.8122163 0.02171121 -0.58295226
vn -0.80535024 0.021938505 -0.59239316
vn -0.94728464 0.017859994 -0.31989488
vn -0.96331406 0.0180072 -0.267772
vn -0.9997205 0.019343091 0.013592692
vn -0.9833091 0.018233802 0.18102701
vn -0.9902867 0.018276494 0.13783395
vn -0.9706984 0.022105709 0.23928209
vn -0.9682843 0.022541605 0.24883208
vn -0.96789336 0.021532109 0.25043708
vn -0.99919313 0.021541104 0.0338964
vn -0.9982316 0.02289099 0.054861173
vn -0.9952413 0.022958007 0.09469814
vn -0.97207326 0.019451404 0.23387006
vn -0.9902867 0.018276494 0.13783395
vn -0.9088898 0.029651392 0.4159809
vn -0.926664 0.0354534 0.374215
vn -0.868972 0.0364919 0.49351397
vn -0.9704882 0.019998904 0.24031805
vn -0.9229157 0.022293195 0.38435587
vn -0.9989404 0.012975106 -0.04415622
vn -0.9681272 0.018954404 0.24974105
vn -0.9997186 0.014752194 0.01857369
vn -0.98981106 0.0177294 0.14127901
g M_HairBK04_0
f 3/3/3 2/2/2 1/1/1
f 2/2/2 4/4/4 1/1/1
f 1/1/1 4/4/4 5/5/5
f 6/6/6 5/5/5 4/4/4
f 6/6/6 7/7/7 5/5/5
f 5/5/5 7/7/7 8/8/8
f 7/7/7 9/9/9 8/8/8
f 9/9/9 10/10/10 8/8/8
f 9/9/9 11/11/11 10/10/10
f 8/8/8 12/12/12 5/5/5
f 8/8/8 13/13/13 12/12/12
f 5/5/5 14/14/14 1/1/1
f 14/14/14 5/5/5 12/12/12
f 15/15/15 12/12/12 13/13/13
f 13/13/13 16/16/16 15/15/15
f 15/15/15 16/16/16 17/17/17
f 16/16/16 18/18/18 17/17/17
f 19/19/19 12/12/12 15/15/15
f 19/19/19 14/14/14 12/12/12
f 20/20/20 19/19/19 15/15/15
f 21/21/21 1/1/1 14/14/14
f 22/22/22 1/1/1 21/21/21
f 23/23/23 22/22/22 21/21/21
f 23/23/23 21/21/21 24/24/24
f 25/25/25 23/23/23 24/24/24
f 14/14/14 26/26/26 21/21/21
f 24/24/24 21/21/21 26/26/26
f 25/25/25 24/24/24 27/27/27
f 28/28/28 25/25/25 27/27/27
f 20/20/20 29/29/29 19/19/19
f 20/20/20 30/30/30 29/29/29
f 19/19/19 31/31/31 14/14/14
f 26/26/26 14/14/14 31/31/31
f 24/24/24 26/26/26 32/32/32
f 24/24/24 32/32/32 27/27/27
f 28/28/28 27/27/27 33/33/33
f 34/34/34 28/28/28 33/33/33
f 35/35/35 31/31/31 19/19/19
f 19/19/19 29/29/29 35/35/35
f 26/26/26 31/31/31 36/36/36
f 26/26/26 36/36/36 32/32/32
f 36/36/36 31/31/31 35/35/35
f 37/37/37 27/27/27 32/32/32
f 33/33/33 27/27/27 37/37/37
f 32/32/32 36/36/36 37/37/37
f 30/30/30 38/38/38 29/29/29
f 39/39/39 38/38/38 30/30/30
f 39/39/39 40/40/40 38/38/38
f 38/38/38 40/40/40 29/29/29
f 35/35/35 29/29/29 40/40/40
f 34/34/34 33/33/33 41/41/41
f 42/42/42 34/34/34 41/41/41
f 42/42/42 41/41/41 43/43/43
f 44/44/44 42/42/42 43/43/43
f 41/41/41 33/33/33 45/45/45
f 45/45/45 33/33/33 37/37/37
f 37/37/37 46/46/46 45/45/45
f 46/46/46 47/47/47 45/45/45
f 37/37/37 36/36/36 46/46/46
f 48/48/48 36/36/36 35/35/35
f 48/48/48 46/46/46 36/36/36
f 35/35/35 49/49/49 48/48/48
f 46/46/46 50/50/50 47/47/47
f 50/50/50 46/46/46 48/48/48
f 51/51/51 47/47/47 50/50/50
f 50/50/50 52/52/52 51/51/51
f 50/50/50 53/53/53 52/52/52
f 54/54/54 52/52/52 53/53/53
f 48/48/48 49/49/49 55/55/55
f 48/48/48 55/55/55 50/50/50
f 49/49/49 56/56/56 55/55/55
f 55/55/55 57/57/57 50/50/50
f 56/56/56 58/58/58 55/55/55
f 55/55/55 58/58/58 57/57/57
f 59/59/59 58/58/58 56/56/56
f 60/60/60 57/57/57 58/58/58
f 60/60/60 58/58/58 59/59/59
f 63/63/63 62/62/62 61/61/61
f 62/62/62 64/64/64 61/61/61
f 61/61/61 64/64/64 65/65/65
f 66/66/66 61/61/61 65/65/65
f 67/67/67 66/66/66 65/65/65
f 67/67/67 65/65/65 68/68/68
f 69/69/69 67/67/67 68/68/68
f 64/64/64 62/62/62 70/70/70
f 70/70/70 62/62/62 71/71/71
f 64/64/64 72/72/72 65/65/65
f 68/68/68 65/65/65 72/72/72
f 68/68/68 72/72/72 73/73/73
f 69/69/69 68/68/68 74/74/74
f 68/68/68 75/75/75 74/74/74
f 76/76/76 69/69/69 74/74/74
f 77/77/77 74/74/74 75/75/75
f 72/72/72 64/64/64 78/78/78
f 64/64/64 70/70/70 78/78/78
f 79/79/79 72/72/72 78/78/78
f 76/76/76 74/74/74 80/80/80
f 74/74/74 77/77/77 80/80/80
f 81/81/81 76/76/76 80/80/80
f 79/79/79 82/82/82 77/77/77
f 79/79/79 78/78/78 82/82/82
f 83/83/83 77/77/77 82/82/82
f 83/83/83 84/84/84 77/77/77
f 78/78/78 85/85/85 82/82/82
f 85/85/85 83/83/83 82/82/82
f 86/86/86 78/78/78 70/70/70
f 86/86/86 85/85/85 78/78/78
f 87/87/87 86/86/86 70/70/70
f 70/70/70 71/71/71 87/87/87
f 88/88/88 87/87/87 71/71/71
f 87/87/87 88/88/88 89/89/89
f 87/87/87 89/89/89 90/90/90
f 91/91/91 90/90/90 89/89/89
f 86/86/86 87/87/87 92/92/92
f 92/92/92 87/87/87 93/93/93
f 85/85/85 86/86/86 94/94/94
f 86/86/86 92/92/92 94/94/94
f 94/94/94 92/92/92 95/95/95
f 92/92/92 93/93/93 96/96/96
f 95/95/95 92/92/92 96/96/96
f 97/97/97 96/96/96 93/93/93
f 98/98/98 95/95/95 96/96/96
f 97/97/97 98/98/98 96/96/96
f 85/85/85 100/100/100 99/99/99
f 83/83/83 85/85/85 99/99/99
f 101/101/101 99/99/99 100/100/100
f 102/102/102 101/101/101 100/100/100
f 102/102/102 103/103/103 101/101/101
f 103/103/103 99/99/99 101/101/101
f 104/104/104 99/99/99 103/103/103
f 104/104/104 83/83/83 99/99/99
f 104/104/104 105/105/105 83/83/83
f 83/83/83 105/105/105 84/84/84
f 105/105/105 106/106/106 84/84/84
f 107/107/107 84/84/84 106/106/106
f 106/106/106 105/105/105 108/108/108
f 105/105/105 109/109/109 108/108/108
f 108/108/108 109/109/109 110/110/110
f 113/113/113 112/112/112 111/111/111
f 113/113/113 114/114/114 112/112/112
f 114/114/114 115/115/115 112/112/112
f 118/118/118 117/117/117 116/116/116
f 80/80/80 116/116/116 117/117/117
f 80/80/80 119/119/119 116/116/116
f 120/120/120 116/116/116 119/119/119
f 119/119/119 80/80/80 121/121/121
f 120/120/120 119/119/119 122/122/122
f 121/121/121 123/123/123 119/119/119
f 119/119/119 124/124/124 122/122/122
f 124/124/124 119/119/119 123/123/123
