g M_HairFR02
v 0.07381174 1.6048037 0.034552153
v 0.070247576 1.5912417 0.04715313
v 0.06801632 1.6026012 0.050618496
v 0.074015856 1.5921159 0.032353304
v 0.070247576 1.5912417 0.04715313
v 0.07139206 1.5790721 0.041556623
v 0.07348704 1.5807277 0.029722456
v 0.06995342 1.5677567 0.032027565
v 0.06902889 1.568735 0.024705963
v 0.06710159 1.5569003 0.020876769
v 0.0796905 1.593455 0.023782503
v 0.07783367 1.5809687 0.02191244
v 0.08105431 1.6049254 0.02517026
v 0.07355049 1.5679604 0.017890844
v 0.06551624 1.5492471 0.011517629
v 0.07181503 1.5680839 0.010409308
v 0.077330515 1.5821295 0.011277714
v 0.079292 1.5934206 0.011120457
v 0.080859125 1.6049743 0.011026459
v 0.08137966 1.6173098 0.026200103
v 0.081703864 1.6168426 0.009591875
v 0.07209393 1.6158569 0.03519943
v 0.06801632 1.6026012 0.050618496
v 0.07913746 1.6301049 0.025488356
v 0.08060333 1.62918 0.008100319
v 0.078964 1.6418066 0.008395472
v 0.065295294 1.613917 0.051493302
v 0.070175216 1.6268231 0.035129867
v 0.07678579 1.6440969 0.025271911
v 0.07732214 1.6543274 0.008766861
v 0.0741823 1.6545825 0.024716282
v 0.066255145 1.6410517 0.034944627
v 0.0629964 1.6539459 0.033830356
v 0.062235754 1.6259936 0.05225494
v 0.065295294 1.613917 0.051493302
v 0.05775955 1.6397421 0.05102001
v 0.052528266 1.6547656 0.048490353
v 0.062235754 1.6259936 0.05225494
v 0.032778773 1.6383151 0.05245054
v 0.03280207 1.6536374 0.04834465
v 0.038001485 1.6245232 0.053856954
v 0.042698044 1.6120793 0.054446135
v 0.047957916 1.600713 0.054200504
v 0.052982636 1.5902667 0.05169212
v 0.070247576 1.5912417 0.04715313
v 0.058486193 1.5791306 0.04539865
v 0.07139206 1.5790721 0.041556623
v 0.063373394 1.5678799 0.0345224
v 0.06995342 1.5677567 0.032027565
v 0.06710159 1.5569003 0.020876769
v 0.020921087 1.6586041 0.06384491
v 0.02320959 1.6694404 0.056259308
v 0.03487481 1.6654996 0.04557705
v 0.019629791 1.6438498 0.06909801
v 0.03041092 1.6295332 0.055482272
v 0.018293947 1.633298 0.07187332
v 0.027043609 1.6211861 0.05809059
v 0.017164106 1.622665 0.074133836
v 0.023800563 1.6106663 0.06002962
v 0.014354901 1.6128448 0.07495231
v 0.017896919 1.5943712 0.063876875
v 0.008517475 1.5958456 0.0750547
v 0.012366104 1.5807406 0.06537172
v 0.0039051746 1.5838859 0.073925644
v 0.006866188 1.5712814 0.0652055
v -0.0038829136 1.5702913 0.06895687
v -0.014946019 1.5530438 0.06217664
v -0.010463972 1.5712897 0.063213326
v -0.0038829136 1.5702913 0.06895687
v -0.014946019 1.5530438 0.06217664
v -0.0075631333 1.5875932 0.063498765
v 0.0039051746 1.5838859 0.073925644
v 0.008517475 1.5958456 0.0750547
v -0.005081558 1.6002462 0.063046075
v -0.0025606751 1.6127113 0.06157278
v 0.014354901 1.6128448 0.07495231
v -0.0016844177 1.6237798 0.059975013
v 0.017164106 1.622665 0.074133836
v 0.018293947 1.633298 0.07187332
v 0.0001108551 1.6336123 0.05843025
v 0.019629791 1.6438498 0.06909801
v 0.0023556899 1.6447942 0.0561697
v 0.020921087 1.6586041 0.06384491
v 0.0040254164 1.6572354 0.053415146
v 0.010863018 1.6703885 0.048711736
v 0.02320959 1.6694404 0.056259308
v -0.069987014 1.5551736 0.025053091
v -0.07053077 1.566849 0.03322155
v -0.06581938 1.5668596 0.033454403
v -0.06820266 1.5822239 0.044278335
v -0.077416494 1.5822085 0.035598382
v -0.05683399 1.5813901 0.04732819
v -0.07622263 1.5919218 0.038355462
v -0.06423515 1.5901713 0.0495837
v -0.052142568 1.5888288 0.052113056
v -0.059579354 1.5991359 0.05402954
v -0.04600099 1.5979272 0.054126166
v -0.074936636 1.6012206 0.040332716
v -0.045532912 1.6191772 0.059787214
v -0.02742799 1.614889 0.057581805
v -0.0706185 1.6228905 0.04333061
v -0.032935485 1.6349928 0.060485877
v -0.012709179 1.6297266 0.05824772
v -0.020461483 1.6517913 0.06015381
v 0.0023556899 1.6447942 0.0561697
v -0.05197521 1.6597342 0.042421225
v -0.06403385 1.640362 0.045220602
v -0.068977885 1.6422627 0.029779835
v -0.058018796 1.6615204 0.027645968
v -0.07318382 1.6246991 0.029165458
v -0.07531654 1.6004344 0.027830467
v -0.075432986 1.5916128 0.02731903
v -0.077416494 1.5822085 0.035598382
v -0.075027294 1.5815334 0.025850743
v -0.07406448 1.5669912 0.02959503
v -0.07053077 1.566849 0.03322155
v -0.07250065 1.5671498 0.024407616
v -0.069987014 1.5551736 0.025053091
vt 0.774446 0.12022799
vt 0.791844 0.148004
vt 0.802228 0.13084602
vt 0.766083 0.141949
vt 0.791844 0.148004
vt 0.779668 0.16665298
vt 0.758749 0.16243201
vt 0.764055 0.187495
vt 0.749412 0.18739301
vt 0.745423 0.21254498
vt 0.74809 0.13566601
vt 0.742301 0.15868002
vt 0.75363 0.115257025
vt 0.733556 0.18436098
vt 0.720189 0.224015
vt 0.718532 0.18482
vt 0.722075 0.15516198
vt 0.72425 0.13261998
vt 0.727815 0.11007202
vt 0.759998 0.094093025
vt 0.730347 0.087165
vt 0.781707 0.10137099
vt 0.802228 0.13084602
vt 0.765942 0.07144302
vt 0.734301 0.06379098
vt 0.742155 0.040962994
vt 0.810663 0.11299503
vt 0.788199 0.082255006
vt 0.773911 0.046435
vt 0.750509 0.018347979
vt 0.780289 0.027050018
vt 0.798827 0.057307005
vt 0.807536 0.033581972
vt 0.819609 0.09343803
vt 0.810663 0.11299503
vt 0.829666 0.069821
vt 0.840915 0.041969
vt 0.819609 0.09343803
vt 0.875716 0.07739699
vt 0.878367 0.046370983
vt 0.862781 0.10217202
vt 0.850468 0.12379402
vt 0.836594 0.14261597
vt 0.821675 0.15917301
vt 0.791844 0.148004
vt 0.801877 0.17635602
vt 0.779668 0.16665298
vt 0.776321 0.19417
vt 0.764055 0.187495
vt 0.745423 0.21254498
vt 0.917383 0.048587978
vt 0.913653 0.022900999
vt 0.880013 0.02104503
vt 0.918373 0.077708006
vt 0.878587 0.097962976
vt 0.919429 0.100106
vt 0.883358 0.11769098
vt 0.920104 0.11993903
vt 0.888582 0.140997
vt 0.923238 0.13807702
vt 0.901394 0.17469198
vt 0.929976 0.17145199
vt 0.91322 0.203219
vt 0.935753 0.19439203
vt 0.924398 0.22284597
vt 0.947692 0.22362602
vt 0.966573 0.263411
vt 0.965619 0.22467703
vt 0.947692 0.22362602
vt 0.966573 0.263411
vt 0.966629 0.19131601
vt 0.935753 0.19439203
vt 0.929976 0.17145199
vt 0.965928 0.16502899
vt 0.96521 0.13910598
vt 0.923238 0.13807702
vt 0.965794 0.116135
vt 0.920104 0.11993903
vt 0.919429 0.100106
vt 0.963806 0.095019996
vt 0.918373 0.077708006
vt 0.960137 0.070508
vt 0.917383 0.048587978
vt 0.956082 0.044045985
vt 0.942555 0.014853001
vt 0.913653 0.022900999
vt 0.714787 0.055227995
vt 0.685535 0.06204897
vt 0.687202 0.071776986
vt 0.649948 0.07255101
vt 0.655324 0.04925102
vt 0.650049 0.095873
vt 0.636305 0.04954201
vt 0.632252 0.08096999
vt 0.631555 0.10570699
vt 0.612798 0.08860999
vt 0.610318 0.11532003
vt 0.618061 0.049479008
vt 0.568884 0.106561005
vt 0.567875 0.14261198
vt 0.575648 0.050092995
vt 0.533047 0.12008399
vt 0.530369 0.161197
vt 0.494024 0.13201702
vt 0.49225 0.18004698
vt 0.49762 0.060397983
vt 0.540993 0.054140985
vt 0.537495 0.023189008
vt 0.493637 0.028747022
vt 0.574567 0.021889985
vt 0.623274 0.025205016
vt 0.642275 0.028055012
vt 0.655324 0.04925102
vt 0.663905 0.031717002
vt 0.687259 0.051620007
vt 0.685535 0.06204897
vt 0.692149 0.04152602
vt 0.714787 0.055227995
vn 0.78104275 0.05261619 0.6222569
vn 0.6091779 0.036157697 0.7922089
vn 0.7368587 0.055900477 0.67373174
vn 0.8132796 0.03708818 0.5806898
vn 0.7821292 0.037740514 0.6219722
vn 0.8211879 0.034862597 0.56959194
vn 0.84290165 0.033975586 0.5369938
vn 0.9104586 0.031839885 0.41237283
vn 0.8774787 0.030797789 0.4786258
vn 0.9553726 0.030833289 0.2937899
vn 0.87533385 0.03713259 0.48209092
vn 0.8852971 0.033768605 0.46379805
vn 0.8637784 0.03960132 0.5023133
vn 0.89981776 0.029743992 0.4352509
vn 0.9199502 0.025560904 0.39120105
vn 0.98316145 0.029977884 0.1802629
vn 0.96474564 0.033788785 0.2610059
vn 0.9576965 0.03664338 0.28543782
vn 0.9537626 0.039076082 0.29800984
vn 0.8391322 0.13023102 0.52810717
vn 0.9440995 0.11971307 0.30715615
vn 0.7481492 0.13623907 0.64939326
vn 0.59023213 0.03932451 0.8062752
vn 0.81316984 0.23399892 0.5329159
vn 0.9240462 0.21880803 0.31346706
vn 0.895157 0.308448 0.32179797
vn 0.70669913 0.13574901 0.6943691
vn 0.72642887 0.22225995 0.65030897
vn 0.77412957 0.32867125 0.54101634
vn 0.85261655 0.39997283 0.33625385
vn 0.7331809 0.4109819 0.54179287
vn 0.68234515 0.32594913 0.65434116
vn 0.6383839 0.41953096 0.6453369
vn 0.6756099 0.21775497 0.7043679
vn 0.539123 0.103397 0.8358561
vn 0.5168642 0.3141021 0.7963613
vn 0.4540901 0.42512006 0.7829911
vn 0.49412614 0.18808004 0.8488022
vn 0.37987277 0.28404182 0.8803505
vn 0.40406606 0.40250403 0.8214141
vn 0.2725071 0.17963807 0.94523543
vn 0.317973 0.09583241 0.94324404
vn 0.37323797 0.0391796 0.92690796
vn 0.4322289 0.035932392 0.9010477
vn 0.6091779 0.036157697 0.7922089
vn 0.48867905 0.031662002 0.871889
vn 0.568949 0.0309034 0.821792
vn 0.54905504 0.025529606 0.8353962
vn 0.593158 0.025057701 0.8046961
vn 0.5988109 0.0204652 0.8006289
vn 0.3768199 0.4218329 0.82465976
vn 0.37854797 0.48846593 0.7861949
vn 0.45910212 0.4326081 0.7759352
vn 0.38015082 0.29959586 0.87505865
vn 0.51553893 0.16118199 0.84156996
vn 0.39114785 0.20818292 0.8964727
vn 0.51802725 0.09572134 0.8499914
vn 0.4018069 0.11631897 0.9083068
vn 0.51014787 0.039488293 0.8591798
vn 0.37422308 0.039846707 0.9264822
vn 0.4242258 0.03654648 0.90481865
vn 0.29974696 0.036352098 0.95332587
vn 0.33723497 0.0331962 0.940835
vn 0.21192703 0.033932503 0.9766962
vn 0.21033892 0.03046739 0.97715366
vn 0.09834918 0.030027097 0.9946989
vn 0.046868186 0.02611689 0.99855965
vn -0.32388204 0.035637 0.9454261
vn -0.26312688 0.035510182 0.9641075
vn -0.34959 0.032867804 0.9363261
vn -0.30642003 0.0384119 0.95112103
vn -0.19219308 0.038124215 0.98061633
vn -0.15003291 0.051888574 0.98731846
vn -0.28224298 0.082304895 0.95580584
vn -0.2664749 0.14626099 0.9526798
vn -0.09957038 0.14211297 0.9848298
vn -0.24745107 0.22168708 0.94319826
vn -0.06980422 0.20574805 0.97611225
vn -0.060538974 0.2821519 0.9574577
vn -0.22424604 0.30232108 0.92645323
vn -0.04445787 0.36366975 0.9304664
vn -0.19252107 0.3829471 0.9034862
vn -0.0061358004 0.4885771 0.8724991
vn -0.15073808 0.4888142 0.8592664
vn -0.07042178 0.61703974 0.7837746
vn 0.047383588 0.5984219 0.7997788
vn -0.489419 0.024234097 0.87171197
vn -0.630501 0.028637897 0.77566
vn -0.47852495 0.026860096 0.87766296
vn -0.61609864 0.033376783 0.7869615
vn -0.72410524 0.03471531 0.68881524
vn -0.47666696 0.031952996 0.87850296
vn -0.79642487 0.037974793 0.6035439
vn -0.57307875 0.035805292 0.8187177
vn -0.402725 0.0349626 0.91465294
vn -0.5096059 0.038572494 0.85954285
vn -0.30620584 0.03659768 0.9512616
vn -0.7742158 0.04456359 0.63135093
vn -0.36961097 0.11990201 0.921418
vn -0.15437703 0.05324531 0.9865762
vn -0.7087066 0.1828819 0.6813877
vn -0.26621708 0.24690112 0.9317554
vn -0.04135708 0.15478292 0.9870825
vn -0.16129996 0.35659194 0.92023075
vn 0.07460278 0.26939496 0.9601358
vn -0.5145028 0.49951684 0.6969718
vn -0.6150078 0.3467049 0.7082098
vn -0.7490141 0.39474002 0.5321261
vn -0.641477 0.546533 0.538339
vn -0.8454875 0.21339387 0.48950374
vn -0.9087539 0.050826088 0.4142259
vn -0.93244004 0.0385062 0.35926703
vn -0.9046361 0.0363363 0.42463303
vn -0.95778906 0.0354302 0.28528
vn -0.8627939 0.030910196 0.50461
vn -0.630501 0.028637897 0.77566
vn -0.9696637 0.031928293 0.24234892
vn -0.8846489 0.0282041 0.46540397
g M_HairFR02_0
f 3/3/3 2/2/2 1/1/1
f 1/1/1 5/5/5 4/4/4
f 5/5/5 6/6/6 4/4/4
f 4/4/4 6/6/6 7/7/7
f 8/8/8 7/7/7 6/6/6
f 9/9/9 7/7/7 8/8/8
f 10/10/10 9/9/9 8/8/8
f 4/4/4 7/7/7 11/11/11
f 7/7/7 9/9/9 12/12/12
f 11/11/11 7/7/7 12/12/12
f 1/1/1 4/4/4 13/13/13
f 13/13/13 4/4/4 11/11/11
f 9/9/9 14/14/14 12/12/12
f 15/15/15 14/14/14 9/9/9
f 16/16/16 14/14/14 15/15/15
f 16/16/16 17/17/17 14/14/14
f 12/12/12 14/14/14 17/17/17
f 18/18/18 12/12/12 17/17/17
f 11/11/11 12/12/12 18/18/18
f 19/19/19 11/11/11 18/18/18
f 13/13/13 11/11/11 19/19/19
f 19/19/19 20/20/20 13/13/13
f 20/20/20 1/1/1 13/13/13
f 21/21/21 20/20/20 19/19/19
f 22/22/22 1/1/1 20/20/20
f 22/22/22 23/23/23 1/1/1
f 21/21/21 24/24/24 20/20/20
f 25/25/25 24/24/24 21/21/21
f 25/25/25 26/26/26 24/24/24
f 27/27/27 23/23/23 22/22/22
f 28/28/28 27/27/27 22/22/22
f 20/20/20 28/28/28 22/22/22
f 24/24/24 28/28/28 20/20/20
f 24/24/24 26/26/26 29/29/29
f 26/26/26 30/30/30 29/29/29
f 29/29/29 30/30/30 31/31/31
f 29/29/29 32/32/32 24/24/24
f 29/29/29 31/31/31 32/32/32
f 24/24/24 32/32/32 28/28/28
f 32/32/32 31/31/31 33/33/33
f 32/32/32 34/34/34 28/28/28
f 34/34/34 35/35/35 28/28/28
f 33/33/33 36/36/36 32/32/32
f 37/37/37 36/36/36 33/33/33
f 36/36/36 38/38/38 32/32/32
f 37/37/37 39/39/39 36/36/36
f 40/40/40 39/39/39 37/37/37
f 36/36/36 41/41/41 38/38/38
f 39/39/39 41/41/41 36/36/36
f 42/42/42 38/38/38 41/41/41
f 35/35/35 38/38/38 42/42/42
f 43/43/43 35/35/35 42/42/42
f 23/23/23 35/35/35 43/43/43
f 44/44/44 23/23/23 43/43/43
f 45/45/45 23/23/23 44/44/44
f 46/46/46 45/45/45 44/44/44
f 47/47/47 45/45/45 46/46/46
f 48/48/48 47/47/47 46/46/46
f 49/49/49 47/47/47 48/48/48
f 50/50/50 49/49/49 48/48/48
f 40/40/40 51/51/51 39/39/39
f 40/40/40 52/52/52 51/51/51
f 53/53/53 52/52/52 40/40/40
f 39/39/39 51/51/51 54/54/54
f 39/39/39 54/54/54 55/55/55
f 55/55/55 54/54/54 56/56/56
f 55/55/55 56/56/56 57/57/57
f 57/57/57 56/56/56 58/58/58
f 57/57/57 58/58/58 59/59/59
f 59/59/59 58/58/58 60/60/60
f 60/60/60 61/61/61 59/59/59
f 62/62/62 61/61/61 60/60/60
f 62/62/62 63/63/63 61/61/61
f 64/64/64 63/63/63 62/62/62
f 64/64/64 65/65/65 63/63/63
f 66/66/66 65/65/65 64/64/64
f 67/67/67 65/65/65 66/66/66
f 70/70/70 69/69/69 68/68/68
f 68/68/68 69/69/69 71/71/71
f 71/71/71 69/69/69 72/72/72
f 72/72/72 73/73/73 71/71/71
f 71/71/71 73/73/73 74/74/74
f 74/74/74 73/73/73 75/75/75
f 75/75/75 73/73/73 76/76/76
f 75/75/75 76/76/76 77/77/77
f 77/77/77 76/76/76 78/78/78
f 78/78/78 79/79/79 77/77/77
f 77/77/77 79/79/79 80/80/80
f 81/81/81 80/80/80 79/79/79
f 82/82/82 80/80/80 81/81/81
f 83/83/83 82/82/82 81/81/81
f 84/84/84 82/82/82 83/83/83
f 83/83/83 85/85/85 84/84/84
f 86/86/86 85/85/85 83/83/83
f 89/89/89 88/88/88 87/87/87
f 89/89/89 90/90/90 88/88/88
f 90/90/90 91/91/91 88/88/88
f 92/92/92 90/90/90 89/89/89
f 91/91/91 90/90/90 93/93/93
f 92/92/92 94/94/94 90/90/90
f 93/93/93 90/90/90 94/94/94
f 95/95/95 94/94/94 92/92/92
f 95/95/95 96/96/96 94/94/94
f 97/97/97 96/96/96 95/95/95
f 93/93/93 94/94/94 98/98/98
f 98/98/98 94/94/94 96/96/96
f 97/97/97 99/99/99 96/96/96
f 100/100/100 99/99/99 97/97/97
f 96/96/96 101/101/101 98/98/98
f 99/99/99 101/101/101 96/96/96
f 100/100/100 102/102/102 99/99/99
f 103/103/103 102/102/102 100/100/100
f 102/102/102 103/103/103 104/104/104
f 104/104/104 103/103/103 105/105/105
f 106/106/106 102/102/102 104/104/104
f 102/102/102 107/107/107 99/99/99
f 107/107/107 102/102/102 106/106/106
f 99/99/99 107/107/107 101/101/101
f 106/106/106 108/108/108 107/107/107
f 107/107/107 108/108/108 101/101/101
f 109/109/109 108/108/108 106/106/106
f 101/101/101 108/108/108 110/110/110
f 110/110/110 98/98/98 101/101/101
f 111/111/111 98/98/98 110/110/110
f 111/111/111 93/93/93 98/98/98
f 112/112/112 93/93/93 111/111/111
f 112/112/112 113/113/113 93/93/93
f 114/114/114 113/113/113 112/112/112
f 114/114/114 115/115/115 113/113/113
f 116/116/116 113/113/113 115/115/115
f 117/117/117 115/115/115 114/114/114
f 115/115/115 118/118/118 116/116/116
f 118/118/118 115/115/115 117/117/117
