g M_HairBK03
v -0.008996505 1.4431964 -0.09995632
v -0.013310102 1.4416411 -0.09765518
v -0.015133019 1.4375229 -0.10201381
v -0.0017526245 1.4505963 -0.09954784
v -0.010939969 1.4478233 -0.095910735
v 0.0044908905 1.4584957 -0.10159687
v -0.008201893 1.4565241 -0.09726351
v 0.011750651 1.472045 -0.10491649
v 0.017790904 1.4582986 -0.0913816
v -0.0017526245 1.4505963 -0.09954784
v 0.00781363 1.4498678 -0.09391792
v -0.008996505 1.4431964 -0.09995632
v -0.00305938 1.4431654 -0.09682703
v -0.015133019 1.4375229 -0.10201381
v -0.0030425845 1.4734236 -0.10722188
v -0.018305505 1.4564059 -0.09927992
v -0.010939969 1.4478233 -0.095910735
v -0.019774765 1.446767 -0.0962726
v -0.016755419 1.440288 -0.09481042
v -0.021931566 1.4404974 -0.09559866
v -0.025057945 1.4364058 -0.09662459
v -0.017430032 1.4740531 -0.10779646
v -0.00090351736 1.4925761 -0.117906004
v -0.02055681 1.4922513 -0.11808918
v 0.020289587 1.4911687 -0.11397663
v 0.025868433 1.472596 -0.09845822
v -0.007639484 1.513278 -0.13450728
v 0.0029530718 1.5129681 -0.13565904
v 0.017710285 1.5184065 -0.13543907
v -0.027659088 1.5154896 -0.13388503
v 0.031732462 1.5138966 -0.12438592
v -0.03677734 1.4933381 -0.111465916
v -0.05421671 1.5169045 -0.12221066
v 0.03966753 1.4941319 -0.10353455
v 0.05172278 1.5184345 -0.11120071
v -0.05316202 1.4948608 -0.09807938
v -0.06969044 1.5215306 -0.10911366
v 0.05761917 1.4967582 -0.092883945
v 0.06986044 1.5210743 -0.096239775
v -0.067939274 1.4980519 -0.08766136
v -0.08599901 1.526374 -0.090698294
v -0.079578206 1.5243156 -0.08105502
v 0.06773933 1.4980989 -0.08662125
v 0.07688301 1.5228956 -0.089696266
v 0.0795726 1.5243089 -0.08039521
v 0.04620803 1.4751527 -0.08835397
v 0.056299184 1.4823805 -0.08047793
v 0.070461795 1.5002807 -0.07513392
v 0.03306463 1.4735178 -0.09149269
v 0.069923125 1.5023925 -0.06607881
v 0.07846149 1.5276147 -0.068440944
v 0.07688206 1.5308295 -0.05778421
v 0.06416156 1.5050689 -0.0615693
v 0.06649996 1.5347391 -0.0481436
v 0.056971986 1.5067222 -0.052019104
v 0.0514756 1.4858708 -0.057291687
v 0.059135646 1.4841533 -0.06816811
v 0.05805661 1.4831816 -0.07441643
v 0.049868062 1.4660771 -0.08010473
v 0.051045492 1.4709529 -0.07683338
v 0.042531393 1.4583697 -0.088273436
v 0.04505163 1.4515555 -0.080614604
v 0.04249208 1.4494467 -0.0886941
v 0.046711314 1.4437743 -0.08281513
v 0.045504317 1.4428375 -0.08780869
v 0.04987381 1.4361409 -0.08813117
v 0.03310629 1.4571534 -0.09058462
v 0.04249208 1.4494467 -0.0886941
v 0.03583195 1.4482805 -0.08835423
v 0.045504317 1.4428375 -0.08780869
v 0.042033944 1.4408702 -0.08747617
v 0.04987381 1.4361409 -0.08813117
v 0.028491134 1.4569141 -0.094351575
v 0.03583195 1.4482805 -0.08835423
v 0.03229782 1.4497032 -0.09238981
v 0.027379794 1.4485222 -0.090029
v 0.040018406 1.440904 -0.09052355
v -0.025057945 1.4364058 -0.09662459
v -0.021931566 1.4404974 -0.09559866
v -0.023247527 1.4409297 -0.092743315
v -0.022520903 1.4471512 -0.09064256
v -0.019774765 1.446767 -0.0962726
v -0.018305505 1.4564059 -0.09927992
v -0.02497593 1.4574791 -0.09140073
v -0.028247114 1.4764313 -0.09831807
v -0.03668981 1.4764148 -0.09422329
v -0.036262576 1.4578232 -0.089109324
v -0.030162739 1.451059 -0.09050166
v -0.048711 1.4781142 -0.089234024
v -0.04106094 1.4495405 -0.08807534
v -0.036908753 1.4468417 -0.08862097
v -0.04574112 1.4451152 -0.08681537
v -0.058512878 1.4815543 -0.08151775
v -0.045581292 1.4590569 -0.08575441
v -0.039112702 1.4493241 -0.08513629
v -0.06717739 1.5010275 -0.07665794
v -0.048954647 1.4611975 -0.078610495
v -0.047875326 1.4513838 -0.07742164
v -0.046684418 1.4505386 -0.08320679
v -0.0514295 1.4401784 -0.08418339
v -0.067247555 1.5034089 -0.067882575
v -0.078480646 1.5276136 -0.0688138
v -0.07438081 1.5308912 -0.05951729
v -0.060725972 1.5055075 -0.060442388
v -0.058609508 1.4829665 -0.0743386
v -0.050921075 1.4719158 -0.07709469
v -0.057602637 1.4846671 -0.06602046
v -0.055433612 1.472716 -0.067556754
v -0.054159123 1.4670013 -0.068207264
v -0.04884459 1.4661752 -0.07422774
v -0.053642794 1.4618664 -0.06707983
v -0.050062988 1.4609786 -0.07074124
v -0.05619935 1.4569186 -0.06504131
v -0.053206515 1.4664886 -0.06536467
v -0.053642794 1.4618664 -0.06707983
v -0.05399243 1.4721295 -0.061867476
v -0.056577668 1.4846827 -0.05826515
v -0.051285513 1.4859611 -0.055725746
v -0.049790967 1.4710854 -0.0607652
v -0.04984008 1.4655756 -0.06404466
v -0.05225808 1.4612557 -0.06542902
v -0.05619935 1.4569186 -0.06504131
v -0.06466402 1.5360998 -0.048635397
v -0.07438081 1.5308912 -0.05951729
v -0.057301063 1.5060116 -0.052407417
v -0.056577668 1.4846827 -0.05826515
v -0.051285513 1.4859611 -0.055725746
v 0.054452885 1.4598674 -0.068164766
v 0.051259723 1.4589373 -0.07210621
v 0.055587895 1.4538206 -0.06564451
v 0.049584474 1.4648296 -0.07509862
v 0.05479057 1.4662037 -0.06899817
v 0.055659607 1.472434 -0.068488725
v 0.054608855 1.4651338 -0.065874994
v 0.054452885 1.4598674 -0.068164766
v 0.054458067 1.4724541 -0.06309744
v 0.05208396 1.462762 -0.06454317
v 0.052631807 1.4579866 -0.06625131
v 0.055587895 1.4538206 -0.06564451
v 0.051373243 1.4703789 -0.06086727
v 0.05806858 1.4843606 -0.061894596
vt 0.298925 0.023584008
vt 0.303781 0.02394098
vt 0.301811 0.015432
vt 0.294737 0.03575301
vt 0.306404 0.03526503
vt 0.290238 0.049602985
vt 0.307762 0.048777997
vt 0.28284 0.073672
vt 0.273329 0.046154022
vt 0.294737 0.03575301
vt 0.282333 0.03104198
vt 0.298925 0.023584008
vt 0.291819 0.02243501
vt 0.301811 0.015432
vt 0.303161 0.07760602
vt 0.32227 0.050036013
vt 0.312185 0.03293997
vt 0.322127 0.03385198
vt 0.317084 0.021920025
vt 0.322338 0.023303986
vt 0.323418 0.015976012
vt 0.323183 0.078777015
vt 0.299865 0.10851902
vt 0.327553 0.10839802
vt 0.270244 0.10325599
vt 0.261653 0.06865102
vt 0.309117 0.145374
vt 0.294712 0.146155
vt 0.273796 0.15122199
vt 0.336672 0.14755303
vt 0.252686 0.13640302
vt 0.352228 0.10396701
vt 0.376708 0.13937098
vt 0.239328 0.09707999
vt 0.219192 0.129444
vt 0.381175 0.09315997
vt 0.405679 0.131832
vt 0.210617 0.09079099
vt 0.187667 0.11943501
vt 0.409753 0.08305699
vt 0.442382 0.116068006
vt 0.446325 0.10046297
vt 0.19172 0.083890975
vt 0.174491 0.11568397
vt 0.159706 0.10614997
vt 0.229742 0.063474
vt 0.205603 0.06204897
vt 0.177679 0.07662302
vt 0.248164 0.06402898
vt 0.167094 0.06988698
vt 0.145352 0.097748995
vt 0.132497 0.09016198
vt 0.156409 0.059590995
vt 0.11661 0.07663399
vt 0.148197 0.05009103
vt 0.170102 0.030999005
vt 0.184815 0.047690988
vt 0.195421 0.05463302
vt 0.220112 0.043296993
vt 0.213637 0.045575023
vt 0.238634 0.03942603
vt 0.232364 0.027125001
vt 0.240878 0.02701199
vt 0.236117 0.019905984
vt 0.240121 0.01867503
vt 0.238798 0.0112810135
vt 0.254383 0.038783014
vt 0.240878 0.02701199
vt 0.251209 0.024827003
vt 0.240121 0.01867503
vt 0.245331 0.017416
vt 0.238798 0.0112810135
vt 0.265035 0.043389976
vt 0.26234 0.028581977
vt 0.266402 0.029766977
vt 0.272151 0.030625999
vt 0.267465 0.015313983
vt 0.323418 0.015976012
vt 0.322338 0.023303986
vt 0.327104 0.022264004
vt 0.330933 0.03006202
vt 0.322127 0.03385198
vt 0.32227 0.050036013
vt 0.335652 0.044991016
vt 0.34366 0.07295799
vt 0.35617 0.06961697
vt 0.35174 0.038646996
vt 0.337364 0.03329301
vt 0.376765 0.064936996
vt 0.350534 0.025601983
vt 0.341674 0.022206008
vt 0.351881 0.011946976
vt 0.39395 0.06160903
vt 0.367502 0.038890004
vt 0.355204 0.02579999
vt 0.42355 0.073385
vt 0.378074 0.035614014
vt 0.373408 0.023683012
vt 0.364397 0.024163008
vt 0.369773 0.0066760182
vt 0.433656 0.06489402
vt 0.459724 0.089637995
vt 0.471717 0.07997
vt 0.443182 0.05291599
vt 0.403342 0.05308801
vt 0.384318 0.046190023
vt 0.413193 0.044812024
vt 0.397664 0.036961973
vt 0.389296 0.03253001
vt 0.379822 0.03892201
vt 0.382634 0.026481986
vt 0.377996 0.030948997
vt 0.375209 0.020947993
vt 0.392431 0.027251005
vt 0.382634 0.026481986
vt 0.403235 0.028052986
vt 0.419852 0.036435008
vt 0.425844 0.026205003
vt 0.402686 0.022967994
vt 0.392433 0.02143699
vt 0.38557 0.021920979
vt 0.375209 0.020947993
vt 0.485802 0.06403798
vt 0.471717 0.07997
vt 0.450141 0.042210996
vt 0.419852 0.036435008
vt 0.425844 0.026205003
vt 0.213187 0.02581501
vt 0.218288 0.029700994
vt 0.219944 0.019446015
vt 0.217353 0.037835002
vt 0.207208 0.032611012
vt 0.199355 0.038013995
vt 0.203516 0.027764022
vt 0.213187 0.02581501
vt 0.192822 0.029904008
vt 0.202864 0.021963
vt 0.209763 0.021646023
vt 0.219944 0.019446015
vt 0.192764 0.024783015
vt 0.177329 0.040345013
vn -0.3185301 0.020438407 -0.9476924
vn -0.31903696 0.019966098 -0.9475319
vn -0.31820288 0.019715693 -0.9478176
vn -0.21475793 0.017818494 -0.9765047
vn -0.22445394 0.016636994 -0.97434264
vn 0.20123206 0.014013704 -0.9794433
vn -0.0039035683 0.013399695 -0.9999026
vn 0.26956406 0.015710104 -0.96285427
vn 0.39424813 0.013200005 -0.9189093
vn 0.579532 0.013832701 -0.81483203
vn 0.677404 0.0107353 -0.73553294
vn 0.65218717 0.017954804 -0.7578452
vn 0.705047 0.0157375 -0.708986
vn 0.6541351 0.018431803 -0.75615317
vn 0.030992111 0.016198207 -0.99938834
vn -0.041492503 0.0140463 -0.99904007
vn -0.039153516 0.0138342045 -0.9991374
vn -0.14060004 0.013930607 -0.9899685
vn -0.12919398 0.013839696 -0.9915228
vn -0.17029299 0.0142880995 -0.9852899
vn -0.17123102 0.014231202 -0.9851281
vn -0.33519614 0.016062206 -0.9420114
vn 0.042562712 0.018995704 -0.99891317
vn -0.26287794 0.019365497 -0.9646348
vn 0.35910088 0.01908339 -0.9331036
vn 0.5656408 0.015788395 -0.8245006
vn -0.09514134 0.023287112 -0.99519134
vn 0.086752325 0.022217402 -0.99598217
vn 0.27704594 0.024243394 -0.9605508
vn -0.31785092 0.024003992 -0.9478368
vn 0.48276815 0.024326708 -0.8754102
vn -0.5585488 0.018252695 -0.8292708
vn -0.62717617 0.02388201 -0.7785112
vn 0.601841 0.0200169 -0.798365
vn 0.65892404 0.025704904 -0.7517702
vn -0.74152637 0.019154008 -0.67065036
vn -0.787866 0.0251471 -0.615333
vn 0.75180256 0.021896087 -0.65902466
vn 0.7981513 0.02653971 -0.6018722
vn -0.90820193 0.0213189 -0.41798896
vn -0.9599285 0.025656788 -0.27906784
vn -0.9948984 0.02670151 -0.097284645
vn 0.8972614 0.02223911 -0.4409392
vn 0.897533 0.027111799 -0.44011298
vn 0.97687566 0.027693493 -0.21200693
vn 0.6750678 0.017004495 -0.7375598
vn 0.9287297 0.016840197 -0.37037492
vn 0.98230445 0.022157587 -0.1859759
vn 0.58496916 0.016173504 -0.81089425
vn 0.99876773 0.022323795 0.04432509
vn 0.9983601 0.028531104 -0.049628805
vn 0.9889802 0.028632706 0.14525302
vn 0.943494 0.022540597 0.330622
vn 0.9346557 0.02845269 0.3544139
vn 0.8595312 0.022649005 0.5105812
vn 0.77660775 0.019778993 0.62967384
vn 0.99872404 0.018810501 -0.046864703
vn 0.98974144 0.017512592 -0.14179291
vn 0.8505046 0.016081693 -0.5257218
vn 0.9445128 0.017635396 -0.3280009
vn 0.66508734 0.017591711 -0.7465584
vn 0.9074656 0.01992049 -0.4196538
vn 0.9325127 0.022608593 -0.3604289
vn 0.97122586 0.025127597 -0.23683096
vn 0.98283374 0.027854092 -0.18237896
vn 0.9800529 0.027777199 -0.19678596
vn 0.5579239 0.016461996 -0.8297289
vn 0.29365706 0.017844604 -0.9557442
vn 0.21213892 0.015991893 -0.97710866
vn 0.21832012 0.018469911 -0.97570246
vn 0.19928 0.017632298 -0.979784
vn 0.21446997 0.018736798 -0.9765509
vn 0.50155985 0.015741495 -0.86497974
vn 0.71758336 0.020213608 -0.69617933
vn 0.49912798 0.019936698 -0.8662989
vn 0.22550192 0.017988296 -0.9740767
vn 0.47464982 0.02278869 -0.87987965
vn -0.83915013 0.022888005 -0.5434181
vn -0.8350031 0.021088302 -0.54984105
vn -0.8531457 0.021025693 -0.5212488
vn -0.83063823 0.018318405 -0.55651116
vn -0.8209041 0.0189314 -0.5707521
vn -0.7175902 0.017278705 -0.6962512
vn -0.664566 0.014950402 -0.74708
vn -0.59373987 0.015019997 -0.8045168
vn -0.59811604 0.015472402 -0.8012602
vn -0.54534614 0.015682304 -0.8380642
vn -0.46823293 0.016667798 -0.8834479
vn -0.71675694 0.017639298 -0.6971
vn -0.37887985 0.020820092 -0.9252116
vn -0.32679108 0.019509204 -0.94489527
vn -0.32139498 0.020887097 -0.9467148
vn -0.92581564 0.017155595 -0.37758586
vn -0.72419983 0.015856797 -0.6894078
vn -0.5112659 0.016367394 -0.85926676
vn -0.9814078 0.022163799 -0.19064997
vn -0.91329306 0.0165388 -0.40696704
vn -0.8294943 0.021602906 -0.5580972
vn -0.653233 0.0203655 -0.756883
vn -0.6803158 0.02554119 -0.73247385
vn -0.999025 0.0222701 0.0381196
vn -0.9981509 0.028528595 -0.05367299
vn -0.9893003 0.028573405 0.14306805
vn -0.9455497 0.022429692 0.3247039
vn -0.98891896 0.017521597 -0.147419
vn -0.94376725 0.017617105 -0.3301411
vn -0.99848586 0.018825999 -0.05168849
vn -0.990175 0.019746501 -0.138432
vn -0.9745783 0.021067606 -0.22305407
vn -0.87537014 0.018846001 -0.48308602
vn -0.8610922 0.025854507 -0.50779116
vn -0.83955353 0.023449287 -0.5427707
vn -0.8346836 0.030296586 -0.54989576
vn -0.98484784 0.017414497 0.17254397
vn -0.95225096 0.021479698 0.30455998
vn -0.9704788 0.017529396 0.24054894
vn -0.94951874 0.018921994 0.31313893
vn -0.78082234 0.019673409 0.62444323
vn -0.919447 0.0162489 0.392878
vn -0.92960626 0.014291905 0.3682771
vn -0.9337424 0.019614007 0.3574081
vn -0.91494507 0.025276901 0.40278605
vn -0.9346557 0.02845269 0.3544139
vn -0.9889802 0.028632706 0.14525302
vn -0.8595312 0.022649005 0.5105812
vn -0.9477928 0.018989397 0.31832093
vn -0.77660775 0.019778993 0.62967384
vn 0.86055136 0.025891809 -0.5087052
vn 0.8389508 0.023515396 -0.5436989
vn 0.83368987 0.030356497 -0.5513979
vn 0.8755387 0.018908592 -0.48277783
vn 0.9753601 0.021070903 -0.21961005
vn 0.9907438 0.019734098 -0.13430297
vn 0.98352206 0.017396102 0.17994902
vn 0.9493103 0.021414505 0.3136101
vn 0.9686556 0.017518694 0.24778889
vn 0.9261782 0.014297703 0.37681505
vn 0.93037117 0.019572204 0.36609605
vn 0.91131556 0.025129488 0.4109408
vn 0.9160696 0.016250793 0.4006898
vn 0.9477928 0.018989397 0.31832093
g M_HairBK03_0
f 3/3/3 2/2/2 1/1/1
f 1/1/1 2/2/2 4/4/4
f 5/5/5 4/4/4 2/2/2
f 4/4/4 5/5/5 6/6/6
f 7/7/7 6/6/6 5/5/5
f 6/6/6 7/7/7 8/8/8
f 9/9/9 6/6/6 8/8/8
f 6/6/6 9/9/9 10/10/10
f 11/11/11 10/10/10 9/9/9
f 11/11/11 12/12/12 10/10/10
f 11/11/11 13/13/13 12/12/12
f 12/12/12 13/13/13 14/14/14
f 15/15/15 8/8/8 7/7/7
f 7/7/7 16/16/16 15/15/15
f 17/17/17 16/16/16 7/7/7
f 17/17/17 18/18/18 16/16/16
f 19/19/19 18/18/18 17/17/17
f 19/19/19 20/20/20 18/18/18
f 21/21/21 20/20/20 19/19/19
f 15/15/15 16/16/16 22/22/22
f 23/23/23 8/8/8 15/15/15
f 22/22/22 24/24/24 15/15/15
f 23/23/23 15/15/15 24/24/24
f 23/23/23 25/25/25 8/8/8
f 8/8/8 25/25/25 26/26/26
f 9/9/9 8/8/8 26/26/26
f 24/24/24 27/27/27 23/23/23
f 23/23/23 27/27/27 28/28/28
f 28/28/28 29/29/29 23/23/23
f 23/23/23 29/29/29 25/25/25
f 30/30/30 27/27/27 24/24/24
f 25/25/25 29/29/29 31/31/31
f 24/24/24 32/32/32 30/30/30
f 24/24/24 22/22/22 32/32/32
f 33/33/33 30/30/30 32/32/32
f 25/25/25 31/31/31 34/34/34
f 34/34/34 26/26/26 25/25/25
f 35/35/35 34/34/34 31/31/31
f 32/32/32 36/36/36 33/33/33
f 37/37/37 33/33/33 36/36/36
f 34/34/34 35/35/35 38/38/38
f 39/39/39 38/38/38 35/35/35
f 37/37/37 36/36/36 40/40/40
f 41/41/41 37/37/37 40/40/40
f 41/41/41 40/40/40 42/42/42
f 43/43/43 38/38/38 39/39/39
f 43/43/43 39/39/39 44/44/44
f 44/44/44 45/45/45 43/43/43
f 38/38/38 46/46/46 34/34/34
f 47/47/47 38/38/38 43/43/43
f 47/47/47 46/46/46 38/38/38
f 48/48/48 43/43/43 45/45/45
f 43/43/43 48/48/48 47/47/47
f 49/49/49 34/34/34 46/46/46
f 49/49/49 26/26/26 34/34/34
f 50/50/50 48/48/48 45/45/45
f 50/50/50 45/45/45 51/51/51
f 52/52/52 50/50/50 51/51/51
f 52/52/52 53/53/53 50/50/50
f 52/52/52 54/54/54 53/53/53
f 54/54/54 55/55/55 53/53/53
f 56/56/56 53/53/53 55/55/55
f 57/57/57 48/48/48 50/50/50
f 57/57/57 50/50/50 53/53/53
f 47/47/47 48/48/48 58/58/58
f 57/57/57 58/58/58 48/48/48
f 47/47/47 59/59/59 46/46/46
f 47/47/47 58/58/58 60/60/60
f 59/59/59 61/61/61 46/46/46
f 46/46/46 61/61/61 49/49/49
f 59/59/59 62/62/62 61/61/61
f 63/63/63 61/61/61 62/62/62
f 62/62/62 64/64/64 63/63/63
f 65/65/65 63/63/63 64/64/64
f 65/65/65 64/64/64 66/66/66
f 61/61/61 67/67/67 49/49/49
f 49/49/49 67/67/67 26/26/26
f 61/61/61 68/68/68 67/67/67
f 68/68/68 69/69/69 67/67/67
f 68/68/68 70/70/70 69/69/69
f 70/70/70 71/71/71 69/69/69
f 72/72/72 71/71/71 70/70/70
f 67/67/67 73/73/73 26/26/26
f 26/26/26 73/73/73 9/9/9
f 67/67/67 74/74/74 73/73/73
f 73/73/73 75/75/75 9/9/9
f 74/74/74 75/75/75 73/73/73
f 75/75/75 76/76/76 9/9/9
f 77/77/77 75/75/75 74/74/74
f 77/77/77 76/76/76 75/75/75
f 80/80/80 79/79/79 78/78/78
f 81/81/81 79/79/79 80/80/80
f 81/81/81 82/82/82 79/79/79
f 82/82/82 81/81/81 83/83/83
f 84/84/84 83/83/83 81/81/81
f 84/84/84 22/22/22 83/83/83
f 85/85/85 22/22/22 84/84/84
f 85/85/85 32/32/32 22/22/22
f 86/86/86 32/32/32 85/85/85
f 85/85/85 84/84/84 86/86/86
f 32/32/32 86/86/86 36/36/36
f 86/86/86 84/84/84 87/87/87
f 88/88/88 87/87/87 84/84/84
f 89/89/89 36/36/36 86/86/86
f 86/86/86 87/87/87 89/89/89
f 87/87/87 88/88/88 90/90/90
f 91/91/91 90/90/90 88/88/88
f 92/92/92 90/90/90 91/91/91
f 36/36/36 89/89/89 93/93/93
f 40/40/40 36/36/36 93/93/93
f 87/87/87 94/94/94 89/89/89
f 89/89/89 94/94/94 93/93/93
f 87/87/87 95/95/95 94/94/94
f 40/40/40 93/93/93 96/96/96
f 96/96/96 42/42/42 40/40/40
f 94/94/94 97/97/97 93/93/93
f 97/97/97 94/94/94 98/98/98
f 95/95/95 99/99/99 94/94/94
f 99/99/99 98/98/98 94/94/94
f 100/100/100 99/99/99 95/95/95
f 100/100/100 98/98/98 99/99/99
f 101/101/101 42/42/42 96/96/96
f 101/101/101 102/102/102 42/42/42
f 103/103/103 102/102/102 101/101/101
f 103/103/103 101/101/101 104/104/104
f 93/93/93 105/105/105 96/96/96
f 93/93/93 106/106/106 105/105/105
f 107/107/107 101/101/101 96/96/96
f 107/107/107 96/96/96 105/105/105
f 107/107/107 104/104/104 101/101/101
f 108/108/108 105/105/105 106/106/106
f 108/108/108 107/107/107 105/105/105
f 108/108/108 106/106/106 109/109/109
f 106/106/106 110/110/110 109/109/109
f 111/111/111 109/109/109 110/110/110
f 112/112/112 111/111/111 110/110/110
f 113/113/113 111/111/111 112/112/112
f 109/109/109 114/114/114 108/108/108
f 109/109/109 115/115/115 114/114/114
f 108/108/108 116/116/116 107/107/107
f 116/116/116 108/108/108 114/114/114
f 107/107/107 117/117/117 104/104/104
f 117/117/117 107/107/107 116/116/116
f 118/118/118 117/117/117 116/116/116
f 119/119/119 118/118/118 116/116/116
f 119/119/119 116/116/116 120/120/120
f 120/120/120 116/116/116 114/114/114
f 115/115/115 120/120/120 114/114/114
f 121/121/121 120/120/120 115/115/115
f 115/115/115 122/122/122 121/121/121
f 124/124/124 104/104/104 123/123/123
f 123/123/123 104/104/104 125/125/125
f 104/104/104 126/126/126 125/125/125
f 127/127/127 125/125/125 126/126/126
f 130/130/130 129/129/129 128/128/128
f 129/129/129 131/131/131 128/128/128
f 128/128/128 131/131/131 132/132/132
f 60/60/60 132/132/132 131/131/131
f 133/133/133 132/132/132 60/60/60
f 133/133/133 60/60/60 58/58/58
f 133/133/133 58/58/58 57/57/57
f 132/132/132 133/133/133 134/134/134
f 132/132/132 134/134/134 135/135/135
f 133/133/133 57/57/57 136/136/136
f 136/136/136 134/134/134 133/133/133
f 135/135/135 134/134/134 137/137/137
f 137/137/137 134/134/134 136/136/136
f 138/138/138 135/135/135 137/137/137
f 135/135/135 138/138/138 139/139/139
f 140/140/140 137/137/137 136/136/136
f 140/140/140 136/136/136 56/56/56
f 141/141/141 136/136/136 57/57/57
f 56/56/56 136/136/136 141/141/141
f 57/57/57 53/53/53 141/141/141
f 141/141/141 53/53/53 56/56/56
