g M_HairFR03
v 0.05463806 1.5011766 0.028965186
v 0.04375549 1.4886127 0.031111907
v 0.049766045 1.5012951 0.032021485
v 0.057150215 1.5203427 0.033185385
v 0.06565082 1.5188696 0.02616379
v 0.06256001 1.5367874 0.03420206
v 0.072264604 1.5358628 0.02563325
v 0.06579109 1.5538365 0.037581787
v 0.07787193 1.55362 0.025473062
v 0.06862955 1.5722936 0.04322345
v 0.080752335 1.5763278 0.027018765
v 0.07549133 1.5972525 0.04238348
v 0.06547699 1.5947189 0.04891861
v 0.08131092 1.599974 0.029458944
v 0.07403524 1.6099321 0.044663694
v 0.063472405 1.6064427 0.05155611
v 0.07982401 1.6137521 0.031859245
v 0.06929685 1.626552 0.047244377
v 0.059160423 1.6227396 0.05259758
v 0.07655162 1.6301858 0.03411295
v 0.06329595 1.6428827 0.04756281
v 0.05314131 1.6382762 0.053185515
v 0.06887638 1.6470841 0.038039412
v 0.05463806 1.5011766 0.028965186
v 0.053504273 1.5017036 0.024472766
v 0.04375549 1.4886127 0.031111907
v 0.059607513 1.519236 0.021729497
v 0.06565082 1.5188696 0.02616379
v 0.06437124 1.5363699 0.020272292
v 0.072264604 1.5358628 0.02563325
v 0.06892323 1.5539604 0.019789994
v 0.07787193 1.55362 0.025473062
v 0.074132845 1.5757288 0.020268554
v 0.080752335 1.5763278 0.027018765
v 0.078031726 1.6008236 0.02212027
v 0.08131092 1.599974 0.029458944
v 0.07826313 1.6142503 0.022805648
v 0.07982401 1.6137521 0.031859245
v 0.07655162 1.6301858 0.03411295
v 0.07630131 1.6313266 0.02339858
v 0.06808572 1.649327 0.025268666
v 0.06887638 1.6470841 0.038039412
v -0.044987354 1.4883898 0.032834776
v -0.05490433 1.5012438 0.029440664
v -0.051169224 1.5026188 0.03208246
v -0.0578236 1.520408 0.032778826
v -0.066037804 1.5188934 0.026461715
v -0.06295852 1.5368392 0.033719387
v -0.072264604 1.5358628 0.02563325
v -0.06821964 1.5541841 0.035149015
v -0.07713871 1.5544021 0.02465899
v -0.07178867 1.5731835 0.037365265
v -0.07949745 1.576917 0.023078488
v -0.07135516 1.5970145 0.04035326
v -0.08106073 1.5990243 0.021382002
v -0.07114085 1.6120269 0.040489525
v -0.06518829 1.6122094 0.043821305
v -0.080085374 1.6156262 0.022133993
v -0.06026069 1.6243509 0.046592433
v -0.070900194 1.6288847 0.04064255
v -0.07538471 1.632512 0.023516992
v -0.06403884 1.641673 0.042310376
v -0.053800654 1.6392199 0.04904373
v -0.07067766 1.6471745 0.025957845
v -0.053758964 1.5016831 0.024668694
v -0.05490433 1.5012438 0.029440664
v -0.044987354 1.4883898 0.032834776
v -0.060510635 1.5183018 0.020866212
v -0.066037804 1.5188934 0.026461715
v -0.06469833 1.5363361 0.017930128
v -0.072264604 1.5358628 0.02563325
v -0.06914409 1.553744 0.015481096
v -0.07713871 1.5544021 0.02465899
v -0.07949745 1.576917 0.023078488
v -0.0767086 1.5759947 0.012458
v -0.08106073 1.5990243 0.021382002
v -0.079987794 1.6009268 0.010290337
v -0.07943783 1.6157401 0.009455261
v -0.080085374 1.6156262 0.022133993
v -0.076485254 1.632597 0.010638361
v -0.07538471 1.632512 0.023516992
v -0.07160106 1.647843 0.01255434
v -0.07067766 1.6471745 0.025957845
v -0.032544527 1.6256415 0.058156986
v -0.031418916 1.6194663 0.06306015
v -0.025429675 1.6255469 0.058892064
v -0.03577652 1.61321 0.0627515
v -0.03786176 1.6255673 0.056923978
v -0.042544726 1.6169113 0.058395233
v -0.04241623 1.6257482 0.05575113
v -0.048085324 1.6189098 0.05346771
v -0.04564991 1.5973196 0.06197914
v -0.05434539 1.6047469 0.051063173
v -0.057157516 1.621417 0.05028467
v -0.05775917 1.5908124 0.049179647
v -0.04926813 1.5861125 0.061126027
v -0.06337436 1.6078575 0.044550877
v -0.06765212 1.626641 0.046223335
v -0.07374573 1.6108813 0.04311586
v -0.06686294 1.5930563 0.043560848
v -0.0779026 1.5947694 0.04151777
v -0.07839965 1.5799426 0.040556718
v -0.06817505 1.5782411 0.042902973
v -0.076495685 1.561337 0.040858686
v -0.060017392 1.5772082 0.04768463
v -0.052725118 1.5734872 0.05772099
v -0.054309152 1.5604599 0.054967422
v -0.06848871 1.5603878 0.042320937
v -0.0728906 1.5461829 0.042049408
v -0.06102634 1.5596364 0.046221845
v -0.057202034 1.5444499 0.051029433
v -0.06589979 1.5453727 0.042367514
v -0.066951126 1.5353724 0.043757576
v -0.05996549 1.5446678 0.04523223
v -0.057256315 1.5347669 0.048702136
v -0.06320892 1.5343903 0.042750206
v -0.06345952 1.52824 0.044152685
v -0.059162267 1.5345137 0.045163546
v -0.05709242 1.5284414 0.047223333
v -0.06105625 1.5283167 0.043177776
v -0.0606399 1.523235 0.044324774
v -0.058443334 1.5284681 0.044786096
v -0.05712987 1.5232959 0.045992687
v -0.05911129 1.5232644 0.043697357
v -0.056910098 1.5169301 0.04408269
v -0.05790731 1.5235162 0.04466777
vt 0.486174 0.434296
vt 0.458757 0.43194002
vt 0.474896 0.443327
vt 0.498942 0.457434
vt 0.51082 0.44124502
vt 0.519846 0.469297
vt 0.533749 0.448772
vt 0.540397 0.48327
vt 0.556612 0.45953798
vt 0.561027 0.50072
vt 0.582466 0.47602397
vt 0.596828 0.510701
vt 0.583768 0.527158
vt 0.609888 0.49424398
vt 0.609336 0.52398
vt 0.594865 0.53879
vt 0.623808 0.509171
vt 0.620553 0.54088604
vt 0.605962 0.550421
vt 0.637727 0.52409804
vt 0.641109 0.559663
vt 0.630071 0.57339203
vt 0.653591 0.547506
vt 0.486174 0.434296
vt 0.486874 0.42290002
vt 0.458757 0.43194002
vt 0.514247 0.42371303
vt 0.51082 0.44124502
vt 0.538638 0.42965502
vt 0.533749 0.448772
vt 0.565275 0.440924
vt 0.556612 0.45953798
vt 0.594242 0.459033
vt 0.582466 0.47602397
vt 0.622237 0.47839898
vt 0.609888 0.49424398
vt 0.639549 0.491441
vt 0.623808 0.509171
vt 0.637727 0.52409804
vt 0.65686 0.504483
vt 0.674277 0.531456
vt 0.653591 0.547506
vt 0.458757 0.43194002
vt 0.486174 0.434296
vt 0.474896 0.443327
vt 0.498942 0.457434
vt 0.51082 0.44124502
vt 0.519846 0.469297
vt 0.533749 0.448772
vt 0.540397 0.48327
vt 0.556612 0.45953798
vt 0.561027 0.50072
vt 0.582466 0.47602397
vt 0.583768 0.527158
vt 0.609888 0.49424398
vt 0.601096 0.533625
vt 0.596105 0.540089
vt 0.623243 0.508566
vt 0.605962 0.550421
vt 0.620553 0.54088604
vt 0.637727 0.52409804
vt 0.641109 0.559663
vt 0.630071 0.57339203
vt 0.653591 0.547506
vt 0.486874 0.42290002
vt 0.486174 0.434296
vt 0.458757 0.43194002
vt 0.514247 0.42371303
vt 0.51082 0.44124502
vt 0.538638 0.42965502
vt 0.533749 0.448772
vt 0.565275 0.440924
vt 0.556612 0.45953798
vt 0.582466 0.47602397
vt 0.594242 0.459033
vt 0.609888 0.49424398
vt 0.622237 0.47839898
vt 0.638239 0.49045402
vt 0.623243 0.508566
vt 0.65686 0.504483
vt 0.637727 0.52409804
vt 0.674277 0.531456
vt 0.653591 0.547506
vt 0.589488 0.764944
vt 0.584024 0.755717
vt 0.581542 0.769053
vt 0.585744 0.746473
vt 0.596809 0.762064
vt 0.600321 0.749084
vt 0.60413 0.759185
vt 0.61111 0.751016
vt 0.590543 0.720646
vt 0.613809 0.726655
vt 0.623916 0.751635
vt 0.614993 0.706133
vt 0.594174 0.703689
vt 0.627997 0.728106
vt 0.640107 0.752418
vt 0.645933 0.729941
vt 0.629274 0.70639
vt 0.647327 0.70671403
vt 0.645041 0.684326
vt 0.628118 0.68559504
vt 0.636794 0.65933704
vt 0.614733 0.686599
vt 0.596986 0.685302
vt 0.597086 0.666789
vt 0.622789 0.66083896
vt 0.627342 0.639826
vt 0.611711 0.662028
vt 0.597951 0.643623
vt 0.615783 0.640871
vt 0.611636 0.625961
vt 0.606639 0.641698
vt 0.59748 0.629809
vt 0.606709 0.62714
vt 0.606899 0.61834204
vt 0.602811 0.628072
vt 0.596738 0.620907
vt 0.603281 0.619223
vt 0.601798 0.612271
vt 0.600419 0.61992097
vt 0.596279 0.61364603
vt 0.599905 0.61285603
vt 0.595595 0.604468
vt 0.598408 0.61331904
vn 0.5685574 0.018309219 0.8224398
vn 0.50424266 0.01591049 0.86341536
vn 0.5307814 0.018305628 0.84731114
vn 0.5888172 0.021682676 0.8079755
vn 0.6518523 0.021744348 0.7580341
vn 0.620723 0.024629824 0.78364307
vn 0.6929318 0.024799835 0.7205766
vn 0.64766866 0.027774261 0.76141566
vn 0.7344089 0.027910179 0.67813313
vn 0.6491089 0.031214679 0.7600548
vn 0.78344285 0.032015093 0.62063867
vn 0.67621136 0.03613228 0.73582107
vn 0.5645374 0.035273332 0.82465345
vn 0.85746926 0.03703098 0.5132009
vn 0.658146 0.038759954 0.7518919
vn 0.54053336 0.037744537 0.84047544
vn 0.82225245 0.045790974 0.56727785
vn 0.6094118 0.10504068 0.78586495
vn 0.49390247 0.07670404 0.86612743
vn 0.7781944 0.15022294 0.6097923
vn 0.5692574 0.20809507 0.7953882
vn 0.45547107 0.1627923 0.8752398
vn 0.7042781 0.28034312 0.6522271
vn 0.77923644 -0.53546894 -0.32567415
vn 0.8306183 -0.4886776 -0.26695955
vn 0.7086169 -0.6575237 -0.25597778
vn 0.57696086 -0.34119368 -0.7420938
vn 0.54362136 -0.3159534 -0.777592
vn 0.54554063 -0.20092101 -0.81364375
vn 0.53825295 -0.19584829 -0.8197117
vn 0.5304576 -0.14276193 -0.8356039
vn 0.5547002 -0.12861004 -0.82205063
vn 0.69038284 -0.06014215 -0.72094
vn 0.9228266 -0.097191446 -0.37275323
vn 0.8963387 0.003391265 -0.44335702
vn 0.99979025 0.012054291 0.016562192
vn 0.9752735 0.13612503 -0.17410262
vn 0.97826946 0.13780048 0.15491873
vn 0.93591917 0.24557738 0.252482
vn 0.9624786 0.2712824 0.006396694
vn 0.9112907 0.41136974 0.018003602
vn 0.89067274 0.33249515 0.3100791
vn -0.5070183 0.017154353 0.8617645
vn -0.5657662 0.01891288 0.8243487
vn -0.53703046 0.019280033 0.8433425
vn -0.58408695 0.021905905 0.81139547
vn -0.6448735 0.021946337 0.7639741
vn -0.62068254 0.024813171 0.7836693
vn -0.69505835 0.025010016 0.71851826
vn -0.6704277 0.028098423 0.74144274
vn -0.7742819 0.028308332 0.63220745
vn -0.71493816 0.032137908 0.6984488
vn -0.8625696 0.032589037 0.50488776
vn -0.69757134 0.036468867 0.71558666
vn -0.86109877 0.036580775 0.50711995
vn -0.6551972 0.038923275 0.7544545
vn -0.55912757 0.038708564 0.8281776
vn -0.8516749 0.052070253 0.5214772
vn -0.5264607 0.07889811 0.8465306
vn -0.6610481 0.12569134 0.73974127
vn -0.8213381 0.18665037 0.53904104
vn -0.60770106 0.20939524 0.76606333
vn -0.49433956 0.16127716 0.8541769
vn -0.77573806 0.27239507 0.5692376
vn -0.8282147 -0.50393206 -0.2451791
vn -0.7867341 -0.5474324 -0.28524923
vn -0.7384492 -0.63188106 -0.23541242
vn -0.69476426 -0.39641148 -0.6001337
vn -0.6767559 -0.36771092 -0.63780105
vn -0.6804296 -0.27396494 -0.6796755
vn -0.6906368 -0.26681206 -0.67218465
vn -0.7237661 -0.28161 -0.62996715
vn -0.9621613 -0.2638601 -0.06799574
vn -0.99009234 -0.07902191 0.11607131
vn -0.94602156 -0.14648822 -0.28910968
vn -0.98642355 -0.027966188 0.16182253
vn -0.99380636 -0.041207958 -0.1032029
vn -0.9919071 0.11336591 -0.057170343
vn -0.9750292 0.11375763 0.19072874
vn -0.96425945 0.25905296 0.05563422
vn -0.9382608 0.27597535 0.20857677
vn -0.95250005 0.2934087 0.081578024
vn -0.9302614 0.2546726 0.2641128
vn 0.22473927 -0.49738708 -0.8379131
vn 0.49473146 -0.48330805 -0.7222563
vn 0.07323774 -0.61194557 -0.7875017
vn 0.4280107 -0.30994123 -0.84896594
vn 0.25305876 -0.34067753 -0.90548325
vn 0.50000983 -0.25669402 -0.82710236
vn 0.37125036 -0.27112105 -0.88806903
vn 0.53254306 -0.12193661 -0.83757347
vn 0.69268405 -0.1893466 -0.69594306
vn 0.62539256 -0.07222821 -0.7769603
vn 0.4372782 0.09714726 -0.8940638
vn 0.65985197 -0.065648355 -0.7485224
vn 0.7818373 -0.13031372 -0.60971206
vn 0.38580266 0.05364495 -0.9210203
vn 0.33514914 0.15901211 -0.9286497
vn 0.16780816 0.081140645 -0.98247474
vn 0.35215086 0.0049570743 -0.93593013
vn 0.18964471 0.052840095 -0.9804299
vn 0.21769717 0.024020737 -0.97572076
vn 0.36678582 0.014377831 -0.93019426
vn 0.18798308 -0.0012845006 -0.98217154
vn 0.6609773 -0.0036347436 -0.7503971
vn 0.8059905 -0.016399337 -0.5917013
vn 0.7977602 0.010334409 -0.6028863
vn 0.31262958 0.026030283 -0.9495183
vn 0.06489131 -0.05106379 -0.9965849
vn 0.6480016 0.042873625 -0.7604313
vn 0.88132626 0.07658251 -0.4662607
vn 0.22525309 -6.677065E-05 -0.9743002
vn -0.23232746 -0.13871047 -0.96269584
vn 0.70802015 0.089695655 -0.70047283
vn 0.87808436 0.103114866 -0.46726352
vn 0.092081 -0.04999081 -0.9944958
vn -0.35188967 -0.2092359 -0.9123563
vn 0.71697944 0.09697266 -0.69031644
vn 0.8688152 0.12258019 -0.47972304
vn 0.08212418 -0.059422452 -0.994849
vn -0.3662223 -0.21614066 -0.90507704
vn 0.7186019 0.1193871 -0.6850971
vn 0.86488044 0.13804917 -0.4826223
vn 0.23896708 -0.008574913 -0.97098976
vn 0.45309368 0.06315481 -0.88922304
vn 0.75155985 0.13086648 -0.6465538
g M_HairFR03_0
f 3/3/3 2/2/2 1/1/1
f 3/3/3 1/1/1 4/4/4
f 4/4/4 1/1/1 5/5/5
f 4/4/4 5/5/5 6/6/6
f 6/6/6 5/5/5 7/7/7
f 6/6/6 7/7/7 8/8/8
f 8/8/8 7/7/7 9/9/9
f 8/8/8 9/9/9 10/10/10
f 10/10/10 9/9/9 11/11/11
f 11/11/11 12/12/12 10/10/10
f 10/10/10 12/12/12 13/13/13
f 14/14/14 12/12/12 11/11/11
f 12/12/12 15/15/15 13/13/13
f 14/14/14 15/15/15 12/12/12
f 16/16/16 13/13/13 15/15/15
f 17/17/17 15/15/15 14/14/14
f 16/16/16 15/15/15 18/18/18
f 18/18/18 15/15/15 17/17/17
f 19/19/19 16/16/16 18/18/18
f 18/18/18 17/17/17 20/20/20
f 19/19/19 18/18/18 21/21/21
f 21/21/21 18/18/18 20/20/20
f 19/19/19 21/21/21 22/22/22
f 23/23/23 21/21/21 20/20/20
f 26/26/26 25/25/25 24/24/24
f 24/24/24 25/25/25 27/27/27
f 28/28/28 24/24/24 27/27/27
f 27/27/27 29/29/29 28/28/28
f 28/28/28 29/29/29 30/30/30
f 29/29/29 31/31/31 30/30/30
f 30/30/30 31/31/31 32/32/32
f 31/31/31 33/33/33 32/32/32
f 32/32/32 33/33/33 34/34/34
f 33/33/33 35/35/35 34/34/34
f 34/34/34 35/35/35 36/36/36
f 35/35/35 37/37/37 36/36/36
f 37/37/37 38/38/38 36/36/36
f 39/39/39 38/38/38 37/37/37
f 39/39/39 37/37/37 40/40/40
f 40/40/40 41/41/41 39/39/39
f 39/39/39 41/41/41 42/42/42
f 45/45/45 44/44/44 43/43/43
f 45/45/45 46/46/46 44/44/44
f 44/44/44 46/46/46 47/47/47
f 46/46/46 48/48/48 47/47/47
f 47/47/47 48/48/48 49/49/49
f 48/48/48 50/50/50 49/49/49
f 49/49/49 50/50/50 51/51/51
f 50/50/50 52/52/52 51/51/51
f 51/51/51 52/52/52 53/53/53
f 54/54/54 53/53/53 52/52/52
f 55/55/55 53/53/53 54/54/54
f 54/54/54 56/56/56 55/55/55
f 54/54/54 57/57/57 56/56/56
f 55/55/55 56/56/56 58/58/58
f 56/56/56 57/57/57 59/59/59
f 60/60/60 58/58/58 56/56/56
f 60/60/60 56/56/56 59/59/59
f 61/61/61 58/58/58 60/60/60
f 59/59/59 62/62/62 60/60/60
f 62/62/62 61/61/61 60/60/60
f 59/59/59 63/63/63 62/62/62
f 64/64/64 61/61/61 62/62/62
f 67/67/67 66/66/66 65/65/65
f 66/66/66 68/68/68 65/65/65
f 69/69/69 68/68/68 66/66/66
f 68/68/68 69/69/69 70/70/70
f 70/70/70 69/69/69 71/71/71
f 70/70/70 71/71/71 72/72/72
f 72/72/72 71/71/71 73/73/73
f 73/73/73 74/74/74 72/72/72
f 75/75/75 72/72/72 74/74/74
f 76/76/76 75/75/75 74/74/74
f 77/77/77 75/75/75 76/76/76
f 76/76/76 78/78/78 77/77/77
f 76/76/76 79/79/79 78/78/78
f 78/78/78 79/79/79 80/80/80
f 81/81/81 80/80/80 79/79/79
f 80/80/80 81/81/81 82/82/82
f 82/82/82 81/81/81 83/83/83
f 86/86/86 85/85/85 84/84/84
f 84/84/84 85/85/85 87/87/87
f 87/87/87 88/88/88 84/84/84
f 87/87/87 89/89/89 88/88/88
f 90/90/90 88/88/88 89/89/89
f 90/90/90 89/89/89 91/91/91
f 92/92/92 89/89/89 87/87/87
f 91/91/91 89/89/89 93/93/93
f 92/92/92 93/93/93 89/89/89
f 91/91/91 93/93/93 94/94/94
f 92/92/92 95/95/95 93/93/93
f 96/96/96 95/95/95 92/92/92
f 94/94/94 93/93/93 97/97/97
f 95/95/95 97/97/97 93/93/93
f 94/94/94 97/97/97 98/98/98
f 98/98/98 97/97/97 99/99/99
f 100/100/100 99/99/99 97/97/97
f 100/100/100 97/97/97 95/95/95
f 101/101/101 99/99/99 100/100/100
f 101/101/101 100/100/100 102/102/102
f 102/102/102 100/100/100 103/103/103
f 100/100/100 95/95/95 103/103/103
f 102/102/102 103/103/103 104/104/104
f 96/96/96 105/105/105 95/95/95
f 103/103/103 95/95/95 105/105/105
f 106/106/106 105/105/105 96/96/96
f 107/107/107 105/105/105 106/106/106
f 104/104/104 103/103/103 108/108/108
f 103/103/103 105/105/105 108/108/108
f 104/104/104 108/108/108 109/109/109
f 110/110/110 105/105/105 107/107/107
f 108/108/108 105/105/105 110/110/110
f 111/111/111 110/110/110 107/107/107
f 109/109/109 108/108/108 112/112/112
f 108/108/108 110/110/110 112/112/112
f 109/109/109 112/112/112 113/113/113
f 114/114/114 110/110/110 111/111/111
f 112/112/112 110/110/110 114/114/114
f 115/115/115 114/114/114 111/111/111
f 113/113/113 112/112/112 116/116/116
f 112/112/112 114/114/114 116/116/116
f 113/113/113 116/116/116 117/117/117
f 118/118/118 114/114/114 115/115/115
f 116/116/116 114/114/114 118/118/118
f 115/115/115 119/119/119 118/118/118
f 117/117/117 116/116/116 120/120/120
f 116/116/116 118/118/118 120/120/120
f 117/117/117 120/120/120 121/121/121
f 118/118/118 119/119/119 122/122/122
f 120/120/120 118/118/118 122/122/122
f 119/119/119 123/123/123 122/122/122
f 121/121/121 120/120/120 124/124/124
f 120/120/120 122/122/122 124/124/124
f 121/121/121 124/124/124 125/125/125
f 125/125/125 126/126/126 123/123/123
f 122/122/122 123/123/123 126/126/126
f 126/126/126 125/125/125 124/124/124
f 124/124/124 122/122/122 126/126/126
