g M_HairFR01
v -0.006058387 1.6626682 0.046258695
v 6.39575E-07 1.6656786 0.04290491
v 5.86735E-07 1.6606436 0.047785435
v -0.006740675 1.6574794 0.0508965
v -0.01815294 1.6553429 0.050466236
v 5.25005E-07 1.6547612 0.050575975
v -0.007575755 1.6495199 0.05537053
v 4.4849398E-07 1.6474018 0.053713296
v -0.014665474 1.6521901 0.053950276
v -0.007400807 1.6399547 0.058001995
v 3.70369E-07 1.6392809 0.05578893
v -0.024650445 1.6439542 0.05620248
v -0.028111693 1.6473372 0.052644882
v -0.036361538 1.6377084 0.05381163
v -0.017969651 1.6381549 0.05999143
v -0.008116957 1.630683 0.060366146
v 2.98549E-07 1.6310039 0.05673961
v -0.03267862 1.6348257 0.05795699
v -0.04199207 1.630012 0.05484138
v -0.026045319 1.6293397 0.061313875
v -0.004566283 1.624467 0.057703044
v -0.010690856 1.6160365 0.05899124
v -0.016212076 1.6216916 0.062003195
v -0.015613924 1.6085092 0.059793413
v -0.022902822 1.6132418 0.06231828
v -0.024831297 1.5974475 0.060033593
v -0.03895428 1.6267712 0.05787434
v -0.047922958 1.6167463 0.05494106
v -0.032436207 1.6213354 0.06091523
v -0.031356137 1.6031113 0.061592776
v -0.034472533 1.5858214 0.058974378
v -0.03917826 1.6107678 0.059582148
v -0.040450387 1.5913925 0.05893827
v -0.04518205 1.5743424 0.05355249
v -0.04763845 1.5996386 0.056359805
v -0.0512664 1.581707 0.05337722
v -0.05554946 1.5669175 0.044695836
v -0.051632784 1.6037254 0.05389669
v -0.055960674 1.6174349 0.051791452
v -0.0689147 1.6065704 0.04287843
v -0.06648087 1.6196685 0.044016514
v -0.070424356 1.6229433 0.0319816
v -0.055411384 1.588195 0.05202605
v -0.06076349 1.5736446 0.0448109
v -0.062631615 1.5625077 0.03563874
v -0.06937972 1.5840517 0.03863647
v -0.06683988 1.5702717 0.034050133
v -0.066471316 1.5609158 0.023344994
v -0.0705337 1.5673662 0.022579202
v -0.06870669 1.559904 0.011593075
v -0.07613167 1.5750751 0.0210464
v -0.07304008 1.5659087 0.01185054
v -0.070322454 1.5595373 0.0005752381
v -0.077286504 1.5980383 0.026979089
v -0.076948285 1.5641321 -0.0037582081
v -0.07136424 1.5588243 -0.008109895
v -0.076536745 1.5593597 -0.019214002
v -0.08155308 1.5711302 -0.008096144
v -0.079523504 1.5717428 0.0025197258
v -0.076386854 1.572586 0.013463222
v -0.07996927 1.5813868 0.007305925
v -0.081017114 1.5816984 0.0005355329
v -0.07965963 1.5933462 0.008156865
v -0.07821657 1.5909936 0.0147747295
v -0.07764367 1.6099341 0.016267132
v -0.075020194 1.608345 0.03071805
v -0.07448606 1.6251858 0.018797338
v 6.39575E-07 1.6656786 0.04290491
v 0.006072671 1.6626682 0.046258695
v 0.006755121 1.6574794 0.0508965
v 5.25005E-07 1.6547612 0.050575975
v 0.01819041 1.6553429 0.050466236
v 0.007589513 1.6495199 0.05537053
v 4.4849398E-07 1.6474018 0.053713296
v 0.014693784 1.6521901 0.053950276
v 0.0074115316 1.6399547 0.058001995
v 3.70369E-07 1.6392809 0.05578893
v 0.024690026 1.6439542 0.05620248
v 0.028160628 1.6473372 0.052644882
v 0.036411703 1.6377084 0.05381163
v 0.017994588 1.6381549 0.05999143
v 0.008126156 1.630683 0.060366146
v 0.0045705996 1.624467 0.057703044
v 0.010698486 1.6160365 0.05899124
v 0.01622609 1.6216916 0.062003195
v 0.015622286 1.6085092 0.059793413
v 0.032720342 1.6348257 0.05795699
v 0.042039096 1.630012 0.05484138
v 0.026073797 1.6293397 0.061313875
v 0.022917587 1.6132418 0.06231828
v 0.024839256 1.5974475 0.060033593
v 0.03899389 1.6267712 0.05787434
v 0.047958173 1.6167463 0.05494106
v 0.03246399 1.6213354 0.06091523
v 0.031369407 1.6031113 0.061592776
v 0.03447781 1.5858214 0.058974378
v 0.039201267 1.6107678 0.059582148
v 0.040459495 1.5913925 0.05893827
v 0.04518424 1.5743424 0.05355249
v 0.04765553 1.5996386 0.056359805
v 0.05127197 1.581707 0.05337722
v 0.055550124 1.5669175 0.044695836
v 0.051655307 1.6037254 0.05389669
v 0.05600286 1.6174349 0.051791452
v 0.068948865 1.6065704 0.04287843
v 0.06653509 1.6196685 0.044016514
v 0.0704884 1.6229433 0.0319816
v 0.055421498 1.588195 0.05202605
v 0.060766146 1.5736446 0.0448109
v 0.06263174 1.5625077 0.03563874
v 0.06938895 1.5840517 0.03863647
v 0.06684156 1.5702717 0.034050133
v 0.06647136 1.5609158 0.023344994
v 0.07053464 1.5673662 0.022579202
v 0.0687067 1.559904 0.011593075
v 0.076135635 1.5750751 0.0210464
v 0.07304072 1.5659087 0.01185054
v 0.07032246 1.5595373 0.0005752381
v 0.07731112 1.5980383 0.026979089
v 0.07694862 1.5641321 -0.0037582081
v 0.07136426 1.5588243 -0.008109895
v 0.07653677 1.5593597 -0.019214002
v 0.0815553 1.5711302 -0.008096144
v 0.07952596 1.5717428 0.0025197258
v 0.07638965 1.572586 0.013463222
v 0.07997714 1.5813868 0.007305925
v 0.081025206 1.5816984 0.0005355329
v 0.079678565 1.5933462 0.008156865
v 0.07823297 1.5909936 0.0147747295
v 0.07768593 1.6099341 0.016267132
v 0.075059816 1.608345 0.03071805
v 0.07455788 1.6251858 0.018797338
vt 0.786231 0.620523
vt 0.777655 0.632154
vt 0.791011 0.63213503
vt 0.799007 0.61946404
vt 0.802023 0.598207
vt 0.80314 0.632112
vt 0.815338 0.617755
vt 0.817581 0.632077
vt 0.810019 0.605101
vt 0.833088 0.618082
vt 0.834076 0.632077
vt 0.825028 0.58728397
vt 0.817045 0.58016396
vt 0.833977 0.565083
vt 0.836689 0.59936297
vt 0.849812 0.616157
vt 0.849013 0.632042
vt 0.841149 0.573384
vt 0.848211 0.55564
vt 0.851494 0.58533
vt 0.861004 0.623392
vt 0.875284 0.611868
vt 0.864899 0.601701
vt 0.887652 0.60221803
vt 0.878577 0.58984
vt 0.905133 0.58520997
vt 0.854606 0.56237197
vt 0.870774 0.545788
vt 0.86441 0.574142
vt 0.894656 0.574928
vt 0.923076 0.567405
vt 0.881413 0.56205
vt 0.912973 0.558447
vt 0.940769 0.546352
vt 0.898953 0.54654396
vt 0.927516 0.538044
vt 0.952341 0.523292
vt 0.891972 0.539028
vt 0.869467 0.531288
vt 0.886755 0.505965
vt 0.865606 0.509349
vt 0.860216 0.48826897
vt 0.916678 0.531708
vt 0.939799 0.517155
vt 0.959482 0.50364196
vt 0.922663 0.500858
vt 0.945951 0.497253
vt 0.964222 0.482354
vt 0.952242 0.47795498
vt 0.968369 0.462609
vt 0.938053 0.471525
vt 0.956251 0.459983
vt 0.971752 0.44431
vt 0.900847 0.47800303
vt 0.960989 0.433551
vt 0.975271 0.42994398
vt 0.973242 0.409558
vt 0.948711 0.42369097
vt 0.946105 0.44138598
vt 0.943444 0.45989102
vt 0.929535 0.447596
vt 0.929926 0.436288
vt 0.909795 0.447806
vt 0.913173 0.459109
vt 0.882035 0.46039099
vt 0.884521 0.484218
vt 0.856768 0.46545202
vt 0.777655 0.632154
vt 0.786263 0.643766
vt 0.799051 0.644782
vt 0.80314 0.632112
vt 0.802146 0.666045
vt 0.815392 0.64643204
vt 0.817581 0.632077
vt 0.810121 0.65911496
vt 0.833143 0.646048
vt 0.834076 0.632077
vt 0.825215 0.676879
vt 0.817259 0.684041
vt 0.834282 0.69904697
vt 0.836824 0.664747
vt 0.849865 0.64790404
vt 0.861012 0.640628
vt 0.875329 0.652066
vt 0.865007 0.662274
vt 0.887731 0.66163504
vt 0.841413 0.690704
vt 0.848581 0.70841
vt 0.851694 0.678703
vt 0.878735 0.67405
vt 0.905289 0.678519
vt 0.854935 0.70164
vt 0.871201 0.718117
vt 0.864667 0.689816
vt 0.894886 0.688853
vt 0.923322 0.696194
vt 0.881732 0.70179904
vt 0.913285 0.70520496
vt 0.941129 0.717112
vt 0.899353 0.717183
vt 0.927941 0.725495
vt 0.952835 0.740075
vt 0.892425 0.724736
vt 0.869991 0.732612
vt 0.887424 0.757799
vt 0.866275 0.75455403
vt 0.861025 0.775645
vt 0.917154 0.731893
vt 0.940345 0.74628496
vt 0.960096 0.759661
vt 0.923328 0.762674
vt 0.946616 0.766129
vt 0.964966 0.780902
vt 0.953023 0.785371
vt 0.969232 0.80060697
vt 0.938887 0.791883
vt 0.957139 0.80330503
vt 0.97272 0.818873
vt 0.901678 0.785643
vt 0.962029 0.829686
vt 0.976318 0.833209
vt 0.974405 0.85358703
vt 0.949819 0.839606
vt 0.947113 0.821945
vt 0.944343 0.803472
vt 0.930524 0.81584
vt 0.930982 0.827133
vt 0.910804 0.815752
vt 0.914109 0.80444
vt 0.882996 0.803354
vt 0.885329 0.77953804
vt 0.857726 0.798459
vn -0.05439821 0.6298051 0.77484614
vn 0.051576786 0.6950729 0.71708685
vn 0.0331383 0.611937 0.790212
vn -0.059718005 0.58745706 0.807049
vn -0.16165896 0.5727709 0.8036168
vn 0.081337795 0.52832395 0.8451379
vn -0.06663227 0.53020275 0.8452486
vn 0.099339 0.45846903 0.883141
vn -0.129357 0.546346 0.82751
vn -0.06540769 0.4686339 0.88096774
vn 0.11162498 0.38848987 0.91466683
vn -0.21697888 0.48853976 0.8451325
vn -0.24955007 0.51462317 0.8202973
vn -0.32381797 0.44889092 0.8328498
vn -0.157939 0.44859505 0.8796691
vn -0.071835905 0.4053331 0.9113422
vn 0.0037571401 0.41691205 0.9089391
vn -0.28720793 0.42354292 0.8591408
vn -0.37289706 0.3942971 0.8399272
vn -0.22948298 0.387574 0.892818
vn -0.038293008 0.37204808 0.92742324
vn -0.09650682 0.31215402 0.9451171
vn -0.14580198 0.34278387 0.9280307
vn -0.14468995 0.2577909 0.9553056
vn -0.20795605 0.28342906 0.9361742
vn -0.23329204 0.17736103 0.95609516
vn -0.34409186 0.37026283 0.8628477
vn -0.4295889 0.3043529 0.85018975
vn -0.28846294 0.33403495 0.8973348
vn -0.28693 0.21276897 0.9340239
vn -0.32535505 0.106130004 0.93961716
vn -0.353412 0.26353702 0.8975791
vn -0.3745761 0.13415603 0.9174393
vn -0.43426016 0.047080517 0.8995563
vn -0.4356679 0.18824998 0.8802019
vn -0.47971913 0.08445482 0.8733482
vn -0.5489289 0.034569096 0.8351539
vn -0.47101703 0.216625 0.855112
vn -0.49597394 0.30615398 0.81257594
vn -0.6228507 0.23457788 0.74634457
vn -0.588987 0.321293 0.741529
vn -0.6559613 0.3575722 0.6647233
vn -0.5130597 0.11761594 0.85025656
vn -0.583578 0.0431109 0.810912
vn -0.64351964 0.033536285 0.7646946
vn -0.66084313 0.09733873 0.74418515
vn -0.6746633 0.035625324 0.73726535
vn -0.7345708 0.033270292 0.6777159
vn -0.7551701 0.034866203 0.65460104
vn -0.8124863 0.032720815 0.5820613
vn -0.78537923 0.052233618 0.6168072
vn -0.8232008 0.034324594 0.5667119
vn -0.8741622 0.033007104 0.4845111
vn -0.74708295 0.183149 0.639002
vn -0.9088226 0.034161184 0.41578177
vn -0.9162903 0.03280521 0.39916915
vn -0.96534514 0.032817204 0.25890502
vn -0.9343353 0.035784706 0.3545941
vn -0.8859804 0.036166318 0.46231017
vn -0.8258948 0.039870083 0.5624128
vn -0.86217725 0.08856543 0.49880514
vn -0.8960289 0.09161039 0.43444195
vn -0.85017836 0.15962306 0.5017142
vn -0.81788164 0.13965595 0.55818075
vn -0.78287596 0.278196 0.556518
vn -0.70671606 0.25485504 0.66000104
vn -0.72749823 0.38561216 0.56749415
vn -0.00017861601 0.65635407 0.75445306
vn 0.05452603 0.6298023 0.77483934
vn 0.059845682 0.5874539 0.8070418
vn -0.0009150443 0.57481015 0.81828624
vn 0.16198194 0.57274276 0.8035717
vn 0.06675431 0.53019917 0.8452412
vn -0.0013515698 0.52450895 0.85140383
vn 0.12960196 0.5463308 0.8274817
vn 0.06550503 0.4686322 0.8809614
vn -0.0020150307 0.47152716 0.8818493
vn 0.21730801 0.488507 0.84506696
vn 0.24995294 0.5145719 0.8202068
vn 0.32421097 0.44883895 0.8327249
vn 0.15815207 0.44858214 0.8796374
vn 0.07192039 0.4053329 0.9113357
vn 0.038337998 0.37204897 0.927421
vn 0.09658202 0.31215408 0.9451093
vn 0.14592697 0.34277892 0.92801285
vn 0.14476995 0.2577899 0.9552937
vn 0.28754 0.42350996 0.859046
vn 0.37324998 0.394249 0.83979297
vn 0.22971994 0.38755387 0.8927657
vn 0.20808509 0.28342316 0.9361474
vn 0.23336403 0.17735901 0.956078
vn 0.34439594 0.37022895 0.86274093
vn 0.42984304 0.30432 0.8500731
vn 0.2886881 0.3340111 0.8972713
vn 0.28704107 0.21276204 0.93399125
vn 0.32539907 0.10612902 0.93960214
vn 0.35359088 0.26352295 0.89751273
vn 0.37464687 0.13415396 0.9174107
vn 0.43427584 0.047080573 0.89954865
vn 0.43579313 0.18823907 0.8801423
vn 0.47975922 0.08445394 0.8733263
vn 0.54893374 0.03456909 0.8351507
vn 0.47117394 0.21660799 0.85502994
vn 0.49625218 0.30610812 0.81242335
vn 0.62303394 0.23454197 0.74620295
vn 0.5892911 0.32122207 0.7413181
vn 0.6562805 0.35745776 0.66446954
vn 0.51312685 0.11761194 0.8502166
vn 0.5835942 0.043110117 0.8109002
vn 0.6435202 0.033536308 0.7646941
vn 0.66089 0.097335 0.7441441
vn 0.6746717 0.035625286 0.7372577
vn 0.7345708 0.033270292 0.6777159
vn 0.7551738 0.03486619 0.6545968
vn 0.8124863 0.032720815 0.5820613
vn 0.7853929 0.052232787 0.61678994
vn 0.82320285 0.034324594 0.5667089
vn 0.8741628 0.033007096 0.48450994
vn 0.74718076 0.18311694 0.63889676
vn 0.908823 0.0341612 0.415781
vn 0.9162903 0.03280521 0.39916915
vn 0.9653446 0.03281719 0.25890687
vn 0.9343377 0.035784587 0.35458785
vn 0.8859852 0.036165606 0.4623011
vn 0.8259035 0.03986952 0.5624002
vn 0.8621972 0.08855733 0.4987721
vn 0.8960439 0.09160128 0.4344129
vn 0.850229 0.159593 0.501638
vn 0.8179319 0.13964099 0.55811095
vn 0.78302175 0.27811795 0.5563519
vn 0.7068921 0.25479704 0.65983504
vn 0.7278002 0.38545004 0.5672171
g M_HairFR01_0
f 3/3/3 2/2/2 1/1/1
f 4/4/4 3/3/3 1/1/1
f 5/5/5 4/4/4 1/1/1
f 3/3/3 4/4/4 6/6/6
f 7/7/7 6/6/6 4/4/4
f 7/7/7 8/8/8 6/6/6
f 4/4/4 5/5/5 9/9/9
f 7/7/7 4/4/4 9/9/9
f 7/7/7 10/10/10 8/8/8
f 11/11/11 8/8/8 10/10/10
f 5/5/5 12/12/12 9/9/9
f 13/13/13 12/12/12 5/5/5
f 13/13/13 14/14/14 12/12/12
f 7/7/7 9/9/9 15/15/15
f 7/7/7 15/15/15 10/10/10
f 12/12/12 15/15/15 9/9/9
f 16/16/16 11/11/11 10/10/10
f 15/15/15 16/16/16 10/10/10
f 16/16/16 17/17/17 11/11/11
f 14/14/14 18/18/18 12/12/12
f 18/18/18 14/14/14 19/19/19
f 15/15/15 12/12/12 20/20/20
f 18/18/18 20/20/20 12/12/12
f 17/17/17 16/16/16 21/21/21
f 16/16/16 22/22/22 21/21/21
f 15/15/15 23/23/23 16/16/16
f 23/23/23 22/22/22 16/16/16
f 15/15/15 20/20/20 23/23/23
f 22/22/22 23/23/23 24/24/24
f 25/25/25 24/24/24 23/23/23
f 23/23/23 20/20/20 25/25/25
f 25/25/25 26/26/26 24/24/24
f 27/27/27 18/18/18 19/19/19
f 27/27/27 19/19/19 28/28/28
f 20/20/20 18/18/18 29/29/29
f 20/20/20 29/29/29 25/25/25
f 27/27/27 29/29/29 18/18/18
f 30/30/30 26/26/26 25/25/25
f 30/30/30 25/25/25 29/29/29
f 31/31/31 26/26/26 30/30/30
f 27/27/27 32/32/32 29/29/29
f 32/32/32 30/30/30 29/29/29
f 28/28/28 32/32/32 27/27/27
f 31/31/31 30/30/30 33/33/33
f 30/30/30 32/32/32 33/33/33
f 34/34/34 31/31/31 33/33/33
f 35/35/35 32/32/32 28/28/28
f 35/35/35 33/33/33 32/32/32
f 34/34/34 33/33/33 36/36/36
f 35/35/35 36/36/36 33/33/33
f 37/37/37 34/34/34 36/36/36
f 35/35/35 28/28/28 38/38/38
f 28/28/28 39/39/39 38/38/38
f 39/39/39 40/40/40 38/38/38
f 40/40/40 39/39/39 41/41/41
f 40/40/40 41/41/41 42/42/42
f 43/43/43 35/35/35 38/38/38
f 35/35/35 43/43/43 36/36/36
f 43/43/43 38/38/38 40/40/40
f 37/37/37 36/36/36 44/44/44
f 36/36/36 43/43/43 44/44/44
f 37/37/37 44/44/44 45/45/45
f 44/44/44 43/43/43 46/46/46
f 43/43/43 40/40/40 46/46/46
f 47/47/47 45/45/45 44/44/44
f 44/44/44 46/46/46 47/47/47
f 45/45/45 47/47/47 48/48/48
f 48/48/48 47/47/47 49/49/49
f 48/48/48 49/49/49 50/50/50
f 51/51/51 47/47/47 46/46/46
f 47/47/47 51/51/51 49/49/49
f 49/49/49 52/52/52 50/50/50
f 49/49/49 51/51/51 52/52/52
f 53/53/53 50/50/50 52/52/52
f 46/46/46 40/40/40 54/54/54
f 51/51/51 46/46/46 54/54/54
f 55/55/55 53/53/53 52/52/52
f 53/53/53 55/55/55 56/56/56
f 55/55/55 57/57/57 56/56/56
f 58/58/58 57/57/57 55/55/55
f 55/55/55 52/52/52 59/59/59
f 55/55/55 59/59/59 58/58/58
f 51/51/51 60/60/60 52/52/52
f 60/60/60 59/59/59 52/52/52
f 58/58/58 59/59/59 61/61/61
f 61/61/61 59/59/59 60/60/60
f 62/62/62 58/58/58 61/61/61
f 63/63/63 62/62/62 61/61/61
f 51/51/51 64/64/64 60/60/60
f 60/60/60 64/64/64 61/61/61
f 63/63/63 61/61/61 64/64/64
f 51/51/51 54/54/54 64/64/64
f 63/63/63 64/64/64 65/65/65
f 54/54/54 65/65/65 64/64/64
f 65/65/65 54/54/54 66/66/66
f 54/54/54 40/40/40 66/66/66
f 40/40/40 42/42/42 66/66/66
f 42/42/42 65/65/65 66/66/66
f 67/67/67 65/65/65 42/42/42
f 3/3/3 69/69/69 68/68/68
f 70/70/70 69/69/69 3/3/3
f 3/3/3 71/71/71 70/70/70
f 72/72/72 69/69/69 70/70/70
f 73/73/73 70/70/70 71/71/71
f 73/73/73 71/71/71 74/74/74
f 70/70/70 75/75/75 72/72/72
f 73/73/73 75/75/75 70/70/70
f 73/73/73 74/74/74 76/76/76
f 77/77/77 76/76/76 74/74/74
f 72/72/72 75/75/75 78/78/78
f 79/79/79 72/72/72 78/78/78
f 79/79/79 78/78/78 80/80/80
f 73/73/73 81/81/81 75/75/75
f 73/73/73 76/76/76 81/81/81
f 78/78/78 75/75/75 81/81/81
f 82/82/82 76/76/76 77/77/77
f 81/81/81 76/76/76 82/82/82
f 82/82/82 77/77/77 17/17/17
f 17/17/17 83/83/83 82/82/82
f 82/82/82 83/83/83 84/84/84
f 85/85/85 82/82/82 84/84/84
f 81/81/81 82/82/82 85/85/85
f 84/84/84 86/86/86 85/85/85
f 80/80/80 78/78/78 87/87/87
f 87/87/87 88/88/88 80/80/80
f 81/81/81 89/89/89 78/78/78
f 81/81/81 85/85/85 89/89/89
f 87/87/87 78/78/78 89/89/89
f 90/90/90 85/85/85 86/86/86
f 85/85/85 90/90/90 89/89/89
f 90/90/90 86/86/86 91/91/91
f 92/92/92 88/88/88 87/87/87
f 92/92/92 93/93/93 88/88/88
f 89/89/89 94/94/94 87/87/87
f 89/89/89 90/90/90 94/94/94
f 92/92/92 87/87/87 94/94/94
f 95/95/95 90/90/90 91/91/91
f 95/95/95 94/94/94 90/90/90
f 96/96/96 95/95/95 91/91/91
f 92/92/92 94/94/94 97/97/97
f 97/97/97 94/94/94 95/95/95
f 93/93/93 92/92/92 97/97/97
f 96/96/96 98/98/98 95/95/95
f 95/95/95 98/98/98 97/97/97
f 99/99/99 98/98/98 96/96/96
f 100/100/100 93/93/93 97/97/97
f 100/100/100 97/97/97 98/98/98
f 99/99/99 101/101/101 98/98/98
f 100/100/100 98/98/98 101/101/101
f 102/102/102 101/101/101 99/99/99
f 100/100/100 103/103/103 93/93/93
f 93/93/93 103/103/103 104/104/104
f 104/104/104 103/103/103 105/105/105
f 105/105/105 106/106/106 104/104/104
f 105/105/105 107/107/107 106/106/106
f 108/108/108 103/103/103 100/100/100
f 100/100/100 101/101/101 108/108/108
f 108/108/108 105/105/105 103/103/103
f 102/102/102 109/109/109 101/101/101
f 101/101/101 109/109/109 108/108/108
f 102/102/102 110/110/110 109/109/109
f 109/109/109 111/111/111 108/108/108
f 108/108/108 111/111/111 105/105/105
f 112/112/112 109/109/109 110/110/110
f 109/109/109 112/112/112 111/111/111
f 110/110/110 113/113/113 112/112/112
f 113/113/113 114/114/114 112/112/112
f 113/113/113 115/115/115 114/114/114
f 116/116/116 111/111/111 112/112/112
f 112/112/112 114/114/114 116/116/116
f 114/114/114 115/115/115 117/117/117
f 114/114/114 117/117/117 116/116/116
f 118/118/118 117/117/117 115/115/115
f 111/111/111 119/119/119 105/105/105
f 116/116/116 119/119/119 111/111/111
f 120/120/120 117/117/117 118/118/118
f 118/118/118 121/121/121 120/120/120
f 120/120/120 121/121/121 122/122/122
f 123/123/123 120/120/120 122/122/122
f 120/120/120 124/124/124 117/117/117
f 123/123/123 124/124/124 120/120/120
f 116/116/116 117/117/117 125/125/125
f 125/125/125 117/117/117 124/124/124
f 126/126/126 124/124/124 123/123/123
f 125/125/125 124/124/124 126/126/126
f 127/127/127 126/126/126 123/123/123
f 128/128/128 126/126/126 127/127/127
f 116/116/116 125/125/125 129/129/129
f 125/125/125 126/126/126 129/129/129
f 128/128/128 129/129/129 126/126/126
f 116/116/116 129/129/129 119/119/119
f 128/128/128 130/130/130 129/129/129
f 119/119/119 129/129/129 130/130/130
f 130/130/130 131/131/131 119/119/119
f 119/119/119 131/131/131 105/105/105
f 105/105/105 131/131/131 107/107/107
f 107/107/107 131/131/131 130/130/130
f 132/132/132 107/107/107 130/130/130
