g M_HairRibbon
v -0.08206941 1.4276445 0.00978569
v -0.08229502 1.4253216 0.009774551
v -0.08234352 1.4261514 0.008645897
v -0.081515364 1.426703 0.010933552
v -0.08257936 1.4256179 0.011752118
v -0.082950704 1.4243639 0.010927124
v -0.08122488 1.4265273 0.012677574
v -0.07950627 1.4266348 0.011127767
v -0.079131655 1.4259628 0.012627716
v -0.080202214 1.4277138 0.010061721
v -0.08206941 1.4276445 0.00978569
v -0.07852638 1.4272143 0.010126152
v -0.07771251 1.4258243 0.009563808
v -0.07866408 1.4252676 0.010644225
v -0.0784827 1.4241883 0.011953163
v -0.080120645 1.4249539 0.008377152
v -0.07866408 1.4252676 0.010644225
v -0.07771251 1.4258243 0.009563808
v -0.08045868 1.4243098 0.009705848
v -0.08234352 1.4261514 0.008645897
v -0.0784827 1.4241883 0.011953163
v -0.08229502 1.4253216 0.009774551
v -0.080738254 1.4232179 0.0109800715
v -0.082950704 1.4243639 0.010927124
v -0.080657564 1.4248929 0.0114512155
v -0.079131655 1.4259628 0.012627716
v -0.0784827 1.4241883 0.011953163
v -0.08122488 1.4265273 0.012677574
v -0.08257936 1.4256179 0.011752118
v -0.082950704 1.4243639 0.010927124
v -0.080657564 1.4248929 0.0114512155
v -0.0784827 1.4241883 0.011953163
v -0.080738254 1.4232179 0.0109800715
v -0.082950704 1.4243639 0.010927124
v -0.08027082 1.4262817 0.009757519
v -0.08206941 1.4276445 0.00978569
v -0.08234352 1.4261514 0.008645897
v -0.080202214 1.4277138 0.010061721
v -0.07852638 1.4272143 0.010126152
v -0.07771251 1.4258243 0.009563808
v -0.08027082 1.4262817 0.009757519
v -0.08234352 1.4261514 0.008645897
v -0.080120645 1.4249539 0.008377152
v -0.07771251 1.4258243 0.009563808
v -0.07780401 1.4120352 0.04402747
v -0.07701881 1.4067723 0.045753513
v -0.08049873 1.4089607 0.04503617
v -0.07429911 1.409867 0.04466301
v -0.076275066 1.4150968 0.040833037
v -0.07278428 1.4129338 0.041298144
v -0.07257407 1.4160582 0.03529048
v -0.075814284 1.4177499 0.035617437
v -0.07327573 1.4188353 0.028672656
v -0.07616956 1.4201744 0.02913275
v -0.076061025 1.4225236 0.019356601
v -0.07833327 1.4235247 0.019634591
v -0.08035546 1.4261454 0.011991561
v -0.0792191 1.4252665 0.011466713
v -0.08049873 1.4089607 0.04503617
v -0.07701881 1.4067723 0.045753513
v -0.07750914 1.4071783 0.04277339
v -0.081013344 1.4093368 0.042248655
v -0.07941989 1.4143302 0.034206737
v -0.07604999 1.4124926 0.03386524
v -0.0759036 1.416676 0.027116027
v -0.0790363 1.4183058 0.027662944
v -0.07719509 1.4216528 0.018578682
v -0.07965526 1.422747 0.019265579
v -0.08064965 1.4259079 0.011939952
v -0.07929363 1.4251031 0.011510734
v -0.103633195 1.4133192 0.0387092
v -0.10047587 1.4122292 0.04289977
v -0.10330845 1.4104404 0.040698968
v -0.10083515 1.4152682 0.041194573
v -0.101523705 1.4160366 0.035559654
v -0.09871329 1.4180098 0.03776104
v -0.09743823 1.4179476 0.030370397
v -0.095015965 1.4199721 0.032353006
v -0.09231064 1.4204065 0.023849506
v -0.090271 1.422173 0.025601806
v -0.08746719 1.4228293 0.017877044
v -0.0856263 1.4241525 0.018795922
v -0.08217383 1.4255229 0.011107521
v -0.081053294 1.4262745 0.012003291
v -0.10330845 1.4104404 0.040698968
v -0.10047587 1.4122292 0.04289977
v -0.097203374 1.411802 0.04078387
v -0.100289196 1.4099838 0.038642753
v -0.09243393 1.4153754 0.034456138
v -0.09524029 1.4136322 0.032257613
v -0.090556756 1.4181936 0.024198512
v -0.08801355 1.4198776 0.026424766
v -0.08643444 1.4220425 0.0176824
v -0.084338255 1.4233868 0.018760357
v -0.08109449 1.4261545 0.011858882
v -0.08218681 1.4253213 0.011173363
v -0.08067476 1.4261194 0.011866073
v -0.07943399 1.4253309 0.011793652
v -0.08129654 1.4239998 0.019986
v -0.078806944 1.4227504 0.019482225
v -0.078953505 1.4174254 0.03140888
v -0.08241011 1.4189485 0.03160202
v -0.07983981 1.4096293 0.0451739
v -0.084256135 1.4114968 0.045360513
v -0.081880786 1.39881 0.05888996
v -0.08719063 1.4008721 0.059410855
v -0.09100698 1.3890902 0.07152725
v -0.0849311 1.38667 0.071193285
v -0.0942035 1.3787887 0.0807988
v -0.088797614 1.3733814 0.08286415
v -0.08177469 1.4255456 0.0113267135
v -0.08084728 1.4262103 0.0118730925
v -0.08474915 1.4228064 0.01799694
v -0.08276497 1.4236331 0.0188546
v -0.086474225 1.4186368 0.030438403
v -0.08955761 1.4174858 0.028952293
v -0.090792924 1.4111909 0.04276638
v -0.0950539 1.4101527 0.040912323
v -0.095005564 1.4016162 0.05590679
v -0.10039001 1.4008454 0.052513465
v -0.1044359 1.3910056 0.062370148
v -0.098864704 1.3889176 0.06848377
vt 0.268159 0.720388
vt 0.237708 0.756902
vt 0.268159 0.759332
vt 0.235786 0.712428
vt 0.202867 0.733541
vt 0.202867 0.767049
vt 0.202867 0.69754803
vt 0.237253 0.665573
vt 0.202867 0.657246
vt 0.268159 0.686167
vt 0.268159 0.720388
vt 0.268159 0.659141
vt 0.268159 0.62841296
vt 0.238636 0.62335896
vt 0.202867 0.622563
vt 0.268159 0.568694
vt 0.238636 0.62335896
vt 0.268159 0.62841296
vt 0.237956 0.57009
vt 0.268159 0.514363
vt 0.202867 0.622563
vt 0.238604 0.52301097
vt 0.202867 0.569844
vt 0.202867 0.51789904
vt 0.233154 0.792533
vt 0.246398 0.9677472
vt 0.249421 0.9677472
vt 0.232965 0.9677472
vt 0.222682 0.9677472
vt 0.218981 0.9677472
vt 0.233154 0.792533
vt 0.249421 0.9677472
vt 0.23326 0.9677472
vt 0.218981 0.9677472
vt 0.233154 0.792533
vt 0.222503 0.9677472
vt 0.219539 0.9677472
vt 0.234484 0.9677472
vt 0.245006 0.9677472
vt 0.249027 0.9677472
vt 0.233154 0.792533
vt 0.219539 0.9677472
vt 0.232902 0.9677472
vt 0.249027 0.9677472
vt 0.113566 0.53628504
vt 0.16146 0.487859
vt 0.114485 0.47977102
vt 0.16146 0.535066
vt 0.114818 0.59928
vt 0.16146 0.588215
vt 0.16146 0.663261
vt 0.119539 0.66999996
vt 0.16146 0.743142
vt 0.126379 0.750969
vt 0.16146 0.858343
vt 0.134955 0.867007
vt 0.144433 0.9595844
vt 0.16146 0.9572662
vt 0.114485 0.47977102
vt 0.16146 0.487859
vt 0.16146 0.454104
vt 0.115314 0.44260502
vt 0.118375 0.33390498
vt 0.16146 0.338081
vt 0.16146 0.250116
vt 0.121849 0.24358702
vt 0.16146 0.139732
vt 0.130646 0.13559997
vt 0.143226 0.046047986
vt 0.16146 0.049570024
vt 0.02984 0.537031
vt 0.0776559 0.499043
vt 0.0312557 0.501983
vt 0.0776559 0.539063
vt 0.0323385 0.589356
vt 0.0776559 0.594809
vt 0.0349289 0.669056
vt 0.0776559 0.672948
vt 0.0408411 0.76862
vt 0.0776559 0.770534
vt 0.0504249 0.86067903
vt 0.0776559 0.867366
vt 0.0591853 0.9631938
vt 0.0776559 0.964024
vt 0.0312557 0.501983
vt 0.0776559 0.499043
vt 0.0776559 0.454265
vt 0.0313514 0.463924
vt 0.0776559 0.35498202
vt 0.0325375 0.36012697
vt 0.0340383 0.238258
vt 0.0776559 0.238329
vt 0.0465801 0.138179
vt 0.0776559 0.13329703
vt 0.0776559 0.04064101
vt 0.060077 0.042172015
vt 0.40782 0.9790934
vt 0.423874 0.9785931
vt 0.40782 0.889549
vt 0.437756 0.891979
vt 0.447911 0.753375
vt 0.40782 0.75485396
vt 0.458543 0.58585596
vt 0.40782 0.588193
vt 0.468602 0.39984602
vt 0.40782 0.398867
vt 0.40782 0.21481699
vt 0.477271 0.21361202
vt 0.40782 0.06382501
vt 0.480391 0.02083999
vt 0.34829 0.9726349
vt 0.361864 0.9721163
vt 0.337186 0.889672
vt 0.361864 0.890665
vt 0.361864 0.7513
vt 0.323608 0.749897
vt 0.361864 0.591943
vt 0.311211 0.58967304
vt 0.361864 0.413931
vt 0.294425 0.422208
vt 0.284642 0.26776397
vt 0.361864 0.22013801
vn -0.9294233 0.08855262 0.35823312
vn -0.94451106 0.32493746 0.048109826
vn -0.989027 0.09552491 0.112696856
vn -0.5150832 0.77506727 0.3660054
vn -0.78358227 0.61709434 -0.07206542
vn -0.90115863 0.3905744 -0.18805541
vn -0.117169574 0.96992433 0.21334963
vn 0.42173323 0.770329 0.4782616
vn 0.6707366 0.70859176 0.21911232
vn -0.0044950326 0.72513044 0.6885968
vn -0.12558468 0.73648465 0.6646946
vn 0.5535228 0.361195 0.7504337
vn 0.686407 0.14355786 0.71290714
vn 0.8713155 0.3200656 0.37197763
vn 0.9462458 0.3013924 0.11739507
vn 0.04885717 -0.92533225 -0.37599626
vn 0.5221501 -0.7742405 -0.35764623
vn 0.46776536 -0.865173 -0.18075238
vn 0.09083681 -0.83001864 -0.5502889
vn -0.44603458 -0.74338055 -0.49843594
vn 0.5548135 -0.64710164 -0.52291626
vn -0.39869663 -0.6989454 -0.5937308
vn 0.14875817 -0.72699904 -0.6703308
vn -0.34707442 -0.6462902 -0.6795943
vn -0.20518802 -0.4327279 0.8778636
vn -0.2521698 -0.53035754 0.8094018
vn -0.31996882 -0.36469606 0.8744237
vn -0.1330643 -0.6239163 0.77007943
vn -0.08986369 -0.5754725 0.812869
vn -0.11234588 -0.40983003 0.90521693
vn -0.20518802 -0.4327279 0.8778636
vn -0.31996882 -0.36469606 0.8744237
vn -0.222631 -0.25401762 0.9412281
vn -0.11234588 -0.40983003 0.90521693
vn 0.18289408 0.5532583 -0.81268394
vn 0.31568366 0.43408358 -0.84375066
vn 0.34719762 0.60310495 -0.71813524
vn 0.11864929 0.20090815 -0.9723982
vn 0.024011511 0.32834923 -0.9442511
vn 0.04066618 0.5737946 -0.817989
vn 0.18289408 0.5532583 -0.81268394
vn 0.34719762 0.60310495 -0.71813524
vn 0.18247227 0.71841586 -0.6712544
vn 0.04066618 0.5737946 -0.817989
vn 0.15827188 0.49804297 0.85258627
vn 0.011378492 0.3131379 0.9496395
vn 0.011378493 0.31313792 0.9496395
vn 0.15371929 0.4926149 0.8565635
vn 0.3574598 0.7163932 0.5991689
vn 0.3356239 0.69724756 0.6334054
vn 0.45517206 0.809892 0.36999083
vn 0.45673785 0.81385887 0.35919943
vn 0.44330823 0.85963184 0.25398982
vn 0.43742925 0.86528844 0.24480952
vn 0.42551386 0.8815538 0.2044525
vn 0.41553214 0.88608414 0.20539719
vn 0.57484055 0.81560904 0.0658807
vn 0.618866 0.7850921 0.025203237
vn -0.52520096 -0.8506451 -0.02380905
vn -0.5252009 -0.8506451 -0.02380905
vn -0.47479913 -0.82358867 -0.3102701
vn -0.43554398 -0.80345833 -0.40590158
vn -0.44674575 -0.74234235 -0.4993457
vn -0.45374906 -0.73977596 -0.49683338
vn -0.47251555 -0.7677513 -0.43276674
vn -0.4738195 -0.7706621 -0.42611614
vn -0.46644825 -0.8114542 -0.35209095
vn -0.4603085 -0.81720895 -0.34682244
vn -0.52033895 -0.815883 -0.25215542
vn -0.5493886 -0.803535 -0.22913666
vn -0.72229546 0.56490725 0.39896005
vn -0.7206685 0.30531418 0.62243086
vn -0.72066844 0.30531412 0.622431
vn -0.7177459 0.58751523 0.37372002
vn -0.6174478 0.7824495 0.08081488
vn -0.61324245 0.7880917 0.053340733
vn -0.56402737 0.81678647 -0.12137886
vn -0.5748764 0.8085166 -0.12576953
vn -0.5743239 0.806408 -0.14091943
vn -0.57313913 0.80737233 -0.14021955
vn -0.5476946 0.8285092 -0.116632156
vn -0.5422068 0.83323056 -0.108344294
vn -0.52027595 0.8500263 -0.08226916
vn -0.5119693 0.8554914 -0.07760154
vn 0.18657437 -0.8655698 0.46473533
vn 0.18657437 -0.8655698 0.46473527
vn 0.4280013 -0.8927546 0.14072683
vn 0.3698783 -0.8987732 0.23536527
vn 0.57336074 -0.81492853 -0.084550515
vn 0.5690233 -0.818687 -0.07722631
vn 0.6037637 -0.7911004 -0.098130435
vn 0.6050037 -0.7902294 -0.09750868
vn 0.5758683 -0.81328666 -0.083309464
vn 0.56740403 -0.8193898 -0.08156592
vn 0.5941726 -0.8040119 -0.022888929
vn 0.6077892 -0.7940911 -0.0033853492
vn 0.529511 0.81000805 0.2520021
vn 0.51271707 0.82134354 0.25003195
vn 0.43695155 0.82478195 0.35889852
vn 0.4374228 0.82597214 0.35557175
vn 0.38858855 0.80654347 0.4455181
vn 0.39115915 0.8074872 0.4415416
vn 0.3477185 0.7502157 0.56237745
vn 0.34928408 0.75410765 0.55616754
vn 0.3255305 0.6870115 0.64965
vn 0.32759693 0.68693113 0.6486954
vn 0.28932363 0.61967075 0.72958887
vn 0.2891389 0.61734617 0.73162997
vn 0.28959948 0.5837397 0.75853807
vn 0.29190886 0.5817741 0.7591628
vn -0.60368073 0.79516166 0.05733663
vn -0.56212723 0.82118946 0.09828906
vn -0.44635606 0.8666758 0.22279893
vn -0.44489482 0.8673767 0.22299407
vn -0.4238335 0.8540388 0.30163378
vn -0.42224607 0.8529272 0.30695835
vn -0.40300432 0.818028 0.4103873
vn -0.40229127 0.815437 0.41620213
vn -0.40780514 0.76559335 0.4975558
vn -0.4122008 0.7727585 0.4826331
vn -0.3954467 0.7079274 0.5852014
vn -0.3869839 0.7055545 0.5936636
g M_HairRibbon_0
f 3/3/3 2/2/2 1/1/1
f 2/2/2 4/4/4 1/1/1
f 4/4/4 2/2/2 5/5/5
f 6/6/6 5/5/5 2/2/2
f 4/4/4 5/5/5 7/7/7
f 4/4/4 7/7/7 8/8/8
f 9/9/9 8/8/8 7/7/7
f 4/4/4 8/8/8 10/10/10
f 11/11/11 4/4/4 10/10/10
f 12/12/12 10/10/10 8/8/8
f 12/12/12 8/8/8 13/13/13
f 14/14/14 13/13/13 8/8/8
f 14/14/14 8/8/8 9/9/9
f 15/15/15 14/14/14 9/9/9
f 18/18/18 17/17/17 16/16/16
f 17/17/17 19/19/19 16/16/16
f 16/16/16 19/19/19 20/20/20
f 17/17/17 21/21/21 19/19/19
f 19/19/19 22/22/22 20/20/20
f 21/21/21 23/23/23 19/19/19
f 19/19/19 23/23/23 22/22/22
f 23/23/23 24/24/24 22/22/22
f 27/27/27 26/26/26 25/25/25
f 26/26/26 28/28/28 25/25/25
f 28/28/28 29/29/29 25/25/25
f 25/25/25 29/29/29 30/30/30
f 33/33/33 32/32/32 31/31/31
f 34/34/34 33/33/33 31/31/31
f 37/37/37 36/36/36 35/35/35
f 36/36/36 38/38/38 35/35/35
f 38/38/38 39/39/39 35/35/35
f 39/39/39 40/40/40 35/35/35
f 43/43/43 42/42/42 41/41/41
f 44/44/44 43/43/43 41/41/41
f 47/47/47 46/46/46 45/45/45
f 46/46/46 48/48/48 45/45/45
f 45/45/45 48/48/48 49/49/49
f 48/48/48 50/50/50 49/49/49
f 50/50/50 51/51/51 49/49/49
f 49/49/49 51/51/51 52/52/52
f 53/53/53 52/52/52 51/51/51
f 54/54/54 52/52/52 53/53/53
f 53/53/53 55/55/55 54/54/54
f 54/54/54 55/55/55 56/56/56
f 56/56/56 55/55/55 57/57/57
f 58/58/58 57/57/57 55/55/55
f 61/61/61 60/60/60 59/59/59
f 62/62/62 61/61/61 59/59/59
f 62/62/62 63/63/63 61/61/61
f 63/63/63 64/64/64 61/61/61
f 65/65/65 64/64/64 63/63/63
f 65/65/65 63/63/63 66/66/66
f 65/65/65 66/66/66 67/67/67
f 68/68/68 67/67/67 66/66/66
f 68/68/68 69/69/69 67/67/67
f 70/70/70 67/67/67 69/69/69
f 73/73/73 72/72/72 71/71/71
f 72/72/72 74/74/74 71/71/71
f 71/71/71 74/74/74 75/75/75
f 74/74/74 76/76/76 75/75/75
f 76/76/76 77/77/77 75/75/75
f 76/76/76 78/78/78 77/77/77
f 79/79/79 77/77/77 78/78/78
f 79/79/79 78/78/78 80/80/80
f 79/79/79 80/80/80 81/81/81
f 80/80/80 82/82/82 81/81/81
f 81/81/81 82/82/82 83/83/83
f 84/84/84 83/83/83 82/82/82
f 87/87/87 86/86/86 85/85/85
f 88/88/88 87/87/87 85/85/85
f 88/88/88 89/89/89 87/87/87
f 88/88/88 90/90/90 89/89/89
f 89/89/89 90/90/90 91/91/91
f 92/92/92 89/89/89 91/91/91
f 91/91/91 93/93/93 92/92/92
f 94/94/94 92/92/92 93/93/93
f 94/94/94 93/93/93 95/95/95
f 96/96/96 95/95/95 93/93/93
f 99/99/99 98/98/98 97/97/97
f 100/100/100 98/98/98 99/99/99
f 101/101/101 100/100/100 99/99/99
f 102/102/102 101/101/101 99/99/99
f 103/103/103 101/101/101 102/102/102
f 104/104/104 103/103/103 102/102/102
f 105/105/105 103/103/103 104/104/104
f 106/106/106 105/105/105 104/104/104
f 106/106/106 107/107/107 105/105/105
f 108/108/108 105/105/105 107/107/107
f 108/108/108 107/107/107 109/109/109
f 110/110/110 108/108/108 109/109/109
f 113/113/113 112/112/112 111/111/111
f 114/114/114 112/112/112 113/113/113
f 115/115/115 114/114/114 113/113/113
f 116/116/116 115/115/115 113/113/113
f 117/117/117 115/115/115 116/116/116
f 118/118/118 117/117/117 116/116/116
f 119/119/119 117/117/117 118/118/118
f 120/120/120 119/119/119 118/118/118
f 120/120/120 121/121/121 119/119/119
f 122/122/122 119/119/119 121/121/121
