g M_HairPin
v 0.07453644 1.567321 -0.005165954
v 0.07480681 1.563552 -0.005380056
v 0.07412292 1.5638828 -0.006199065
v 0.0752184 1.5669901 -0.0043470855
v 0.076371476 1.566852 -0.004506948
v 0.07595677 1.5634136 -0.00553996
v 0.08042431 1.5685964 -0.012489047
v 0.079964705 1.5651497 -0.013459913
v 0.08347025 1.5705574 -0.021860102
v 0.08309705 1.5671144 -0.022757327
v 0.08470748 1.5723726 -0.030334804
v 0.08427948 1.5689945 -0.031237075
v 0.0852883 1.5742226 -0.038905594
v 0.08481214 1.5709077 -0.03981243
v 0.079964705 1.5651497 -0.013459913
v 0.07480681 1.563552 -0.005380056
v 0.07595677 1.5634136 -0.00553996
v 0.07809657 1.5655926 -0.01401993
v 0.07412292 1.5638828 -0.006199065
v 0.08119842 1.5675306 -0.023203168
v 0.08309705 1.5671144 -0.022757327
v 0.08427948 1.5689945 -0.031237075
v 0.08236377 1.5693798 -0.031573147
v 0.08481214 1.5709077 -0.03981243
v 0.08287884 1.571264 -0.040039025
v 0.07855493 1.5690396 -0.013049199
v 0.0752184 1.5669901 -0.0043470855
v 0.07453644 1.567321 -0.005165954
v 0.08042431 1.5685964 -0.012489047
v 0.076371476 1.566852 -0.004506948
v 0.08156985 1.5709727 -0.022305962
v 0.08347025 1.5705574 -0.021860102
v 0.08470748 1.5723726 -0.030334804
v 0.082791336 1.5727582 -0.030670946
v 0.0852883 1.5742226 -0.038905594
v 0.08335418 1.5745791 -0.03913229
v 0.08481214 1.5709077 -0.03981243
v 0.08335418 1.5745791 -0.03913229
v 0.08287884 1.571264 -0.040039025
v 0.0852883 1.5742226 -0.038905594
v 0.07453644 1.567321 -0.005165954
v 0.07412292 1.5638828 -0.006199065
v 0.07855493 1.5690396 -0.013049199
v 0.07809657 1.5655926 -0.01401993
v 0.08156985 1.5709727 -0.022305962
v 0.08119842 1.5675306 -0.023203168
v 0.082791336 1.5727582 -0.030670946
v 0.08236377 1.5693798 -0.031573147
v 0.08335418 1.5745791 -0.03913229
v 0.08287884 1.571264 -0.040039025
v 0.075682975 1.5760897 -0.0010712675
v 0.07616557 1.5722272 -0.0012273559
v 0.075538665 1.5725045 -0.0021032
v 0.07631827 1.5757104 -0.000262136
v 0.077490896 1.5756209 -0.00033263184
v 0.07733608 1.5721378 -0.0012980193
v 0.08216105 1.5773464 -0.008038986
v 0.081962936 1.5738559 -0.008943609
v 0.085830614 1.5792294 -0.017204044
v 0.08564251 1.5757328 -0.01803528
v 0.08768793 1.5809108 -0.025593106
v 0.08741052 1.5774772 -0.026436714
v 0.08898289 1.5827287 -0.035577893
v 0.08865044 1.5793566 -0.036431678
v 0.081962936 1.5738559 -0.008943609
v 0.07616557 1.5722272 -0.0012273559
v 0.07733608 1.5721378 -0.0012980193
v 0.080123216 1.5741976 -0.009652244
v 0.075538665 1.5725045 -0.0021032
v 0.083757825 1.576046 -0.018631674
v 0.08564251 1.5757328 -0.01803528
v 0.08741052 1.5774772 -0.026436714
v 0.08550583 1.5777627 -0.026924334
v 0.08865044 1.5793566 -0.036431678
v 0.08672202 1.5796146 -0.036810946
v 0.08032077 1.577688 -0.008747462
v 0.07631827 1.5757104 -0.000262136
v 0.075682975 1.5760897 -0.0010712675
v 0.08216105 1.5773464 -0.008038986
v 0.077490896 1.5756209 -0.00033263184
v 0.0839448 1.5795426 -0.01780062
v 0.085830614 1.5792294 -0.017204044
v 0.08768793 1.5809108 -0.025593106
v 0.085781455 1.5811969 -0.026080927
v 0.08898289 1.5827287 -0.035577893
v 0.087053895 1.5829874 -0.0359573
v 0.08865044 1.5793566 -0.036431678
v 0.087053895 1.5829874 -0.0359573
v 0.08672202 1.5796146 -0.036810946
v 0.08898289 1.5827287 -0.035577893
v 0.075682975 1.5760897 -0.0010712675
v 0.075538665 1.5725045 -0.0021032
v 0.08032077 1.577688 -0.008747462
v 0.080123216 1.5741976 -0.009652244
v 0.0839448 1.5795426 -0.01780062
v 0.083757825 1.576046 -0.018631674
v 0.085781455 1.5811969 -0.026080927
v 0.08550583 1.5777627 -0.026924334
v 0.087053895 1.5829874 -0.0359573
v 0.08672202 1.5796146 -0.036810946
vt 0.178829 0.9753014
vt 0.0928703 0.9485397
vt 0.0928703 0.9753014
vt 0.179258 0.9487083
vt 0.178937 0.9213172
vt 0.0928703 0.9210558
vt 0.177268 0.709817
vt 0.0928703 0.709817
vt 0.176229 0.47398698
vt 0.0928703 0.47398698
vt 0.175481 0.267798
vt 0.0928703 0.267798
vt 0.175366 0.061236024
vt 0.0928703 0.061236024
vt 0.0928703 0.709817
vt 0.0689427 0.9351891
vt 0.0928703 0.9210558
vt 0.045883 0.709817
vt 0.0447831 0.9234098
vt 0.0460717 0.47398698
vt 0.0928703 0.47398698
vt 0.0928703 0.267798
vt 0.0460893 0.267798
vt 0.0928703 0.061236024
vt 0.0455009 0.061236024
vt 0.223955 0.709817
vt 0.203022 0.9350744
vt 0.227068 0.9230344
vt 0.177268 0.709817
vt 0.178937 0.9213172
vt 0.222734 0.47398698
vt 0.176229 0.47398698
vt 0.175481 0.267798
vt 0.221987 0.267798
vt 0.175366 0.061236024
vt 0.222733 0.061236024
vt 0.0928703 0.061236024
vt 0.175377 0.014809012
vt 0.0928703 0.014809012
vt 0.175366 0.061236024
vt 0.227068 0.9230344
vt 0.313369 0.9208549
vt 0.223955 0.709817
vt 0.309767 0.709817
vt 0.222734 0.47398698
vt 0.308134 0.47398698
vt 0.221987 0.267798
vt 0.306044 0.267798
vt 0.222733 0.061236024
vt 0.305639 0.061236024
vt 0.178829 0.9753014
vt 0.0928703 0.9485397
vt 0.0928703 0.9753014
vt 0.179258 0.9487083
vt 0.178937 0.9213172
vt 0.0928703 0.9210558
vt 0.177268 0.709817
vt 0.0928703 0.709817
vt 0.176229 0.47398698
vt 0.0928703 0.47398698
vt 0.175481 0.267798
vt 0.0928703 0.267798
vt 0.175366 0.061236024
vt 0.0928703 0.061236024
vt 0.0928703 0.709817
vt 0.0689427 0.9351891
vt 0.0928703 0.9210558
vt 0.045883 0.709817
vt 0.0447831 0.9234098
vt 0.0460717 0.47398698
vt 0.0928703 0.47398698
vt 0.0928703 0.267798
vt 0.0460893 0.267798
vt 0.0928703 0.061236024
vt 0.0455009 0.061236024
vt 0.223955 0.709817
vt 0.203022 0.9350744
vt 0.227068 0.9230344
vt 0.177268 0.709817
vt 0.178937 0.9213172
vt 0.222734 0.47398698
vt 0.176229 0.47398698
vt 0.175481 0.267798
vt 0.221987 0.267798
vt 0.175366 0.061236024
vt 0.222733 0.061236024
vt 0.0928703 0.061236024
vt 0.175377 0.014809012
vt 0.0928703 0.014809012
vt 0.175366 0.061236024
vt 0.227068 0.9230344
vt 0.313369 0.9208549
vt 0.223955 0.709817
vt 0.309767 0.709817
vt 0.222734 0.47398698
vt 0.308134 0.47398698
vt 0.221987 0.267798
vt 0.306044 0.267798
vt 0.222733 0.061236024
vt 0.305639 0.061236024
vn -0.7828614 -0.09112334 0.6154873
vn -0.38462904 -0.22292998 0.895747
vn -0.782191 -0.091123596 0.616339
vn -0.3986221 -0.21979406 0.8903882
vn 0.5536392 -0.30012113 0.7767953
vn 0.5697901 -0.2992121 0.7653832
vn 0.9177787 -0.2158139 0.33332685
vn 0.91815156 -0.21328193 0.33392885
vn 0.9671748 -0.15961397 0.19772796
vn 0.9677104 -0.15830407 0.19615407
vn 0.9871644 -0.14216706 0.07276653
vn 0.9869647 -0.14548096 0.06881848
vn 0.98877895 -0.146268 0.0303607
vn 0.98834467 -0.14963394 0.02800879
vn -0.14688501 -0.95292205 -0.265263
vn -0.14179696 -0.9495866 -0.2796049
vn -0.15350606 -0.94613534 -0.2850681
vn -0.14585301 -0.9529081 -0.26588202
vn -0.13140202 -0.9524291 -0.27497703
vn -0.15268604 -0.9578743 -0.24323608
vn -0.15272702 -0.9577272 -0.24378903
vn -0.15336205 -0.96121424 -0.22923206
vn -0.15306301 -0.9614492 -0.22844502
vn -0.15165792 -0.96280855 -0.2236059
vn -0.151259 -0.962895 -0.223504
vn 0.14653304 0.95329523 0.26411408
vn 0.14179696 0.94968367 0.2792749
vn 0.13193 0.952385 0.274877
vn 0.14748196 0.9533379 0.26343098
vn 0.15290593 0.9464146 0.2844629
vn 0.15347393 0.9589166 0.2385889
vn 0.15342405 0.9587704 0.23920809
vn 0.154689 0.9623601 0.22346
vn 0.15437901 0.96258414 0.22270803
vn 0.15269606 0.9639904 0.21773009
vn 0.15224594 0.96408856 0.21761093
vn 0.15647404 0.23964104 -0.95816916
vn 0.15648103 0.23964405 -0.9581672
vn 0.15646599 0.23963895 -0.9581709
vn 0.15648793 0.23964593 -0.95816565
vn -0.8867288 0.22756796 -0.40239897
vn -0.886777 0.228312 -0.401871
vn -0.9173723 0.21573406 -0.33449513
vn -0.9177539 0.21315096 -0.3351039
vn -0.967108 0.159341 -0.198274
vn -0.96766204 0.158031 -0.19661202
vn -0.9872463 0.14183903 -0.07229372
vn -0.9870467 0.14520195 -0.068228975
vn -0.98889005 0.145725 -0.029335205
vn -0.9884544 0.14910208 -0.02695531
vn -0.81135386 -0.12445599 0.5711529
vn -0.43913904 -0.22582701 0.86957407
vn -0.82510024 -0.12535603 0.5509041
vn -0.46014512 -0.21830706 0.8605862
vn 0.50037 -0.25181 0.82838494
vn 0.520642 -0.249702 0.81644404
vn 0.8964878 -0.15793295 0.41396487
vn 0.8970173 -0.15687805 0.41321814
vn 0.95474464 -0.11744995 0.2732549
vn 0.9553343 -0.11911704 0.27045807
vn 0.9827156 -0.11207595 0.14733993
vn 0.9828966 -0.11640496 0.14270295
vn 0.987677 -0.11920999 0.101406
vn 0.98746824 -0.12253003 0.09946253
vn -0.0840191 -0.96506006 -0.248193
vn -0.07764421 -0.96172214 -0.26279604
vn -0.08952029 -0.958797 -0.269619
vn -0.0830185 -0.96498114 -0.24883603
vn -0.067234 -0.964056 -0.257052
vn -0.08904841 -0.9696581 -0.22767
vn -0.0889089 -0.96957695 -0.22806999
vn -0.09269322 -0.97358626 -0.20865704
vn -0.09279677 -0.97397363 -0.20679493
vn -0.09296382 -0.97649825 -0.19444503
vn -0.09252732 -0.9765662 -0.19431205
vn 0.08671113 0.9644952 0.24946004
vn 0.13101996 0.94968766 0.2844769
vn 0.17579503 0.93717325 0.30133408
vn 0.08422222 0.9652644 0.24732807
vn 0.089419484 0.9589999 0.26892996
vn 0.09018516 0.9703195 0.2243809
vn 0.0900376 0.9702241 0.22485201
vn 0.09439692 0.97453624 0.20339204
vn 0.09442838 0.97488683 0.20168996
vn 0.09435868 0.9773458 0.18945098
vn 0.09389446 0.9774186 0.18930595
vn 0.21650188 0.21947987 -0.95129144
vn 0.21652688 0.21948989 -0.95128345
vn 0.21647803 0.21947005 -0.95129925
vn 0.21655004 0.21949904 -0.9512761
vn -0.85850585 0.17345695 -0.48257688
vn -0.8585142 0.17350405 -0.48254508
vn -0.8960079 0.15823598 -0.41488695
vn -0.89668006 0.15689999 -0.413941
vn -0.954675 0.117233 -0.273591
vn -0.9552854 0.118869044 -0.2707401
vn -0.9827795 0.11152295 -0.14733292
vn -0.98297393 0.115899995 -0.14258099
vn -0.9878159 0.11872199 -0.10062198
vn -0.9876024 0.12213693 -0.09861035
g M_HairPin_0
f 3/3/3 2/2/2 1/1/1
f 2/2/2 4/4/4 1/1/1
f 5/5/5 4/4/4 2/2/2
f 5/5/5 2/2/2 6/6/6
f 5/5/5 6/6/6 7/7/7
f 7/7/7 6/6/6 8/8/8
f 7/7/7 8/8/8 9/9/9
f 9/9/9 8/8/8 10/10/10
f 9/9/9 10/10/10 11/11/11
f 11/11/11 10/10/10 12/12/12
f 11/11/11 12/12/12 13/13/13
f 13/13/13 12/12/12 14/14/14
f 17/17/17 16/16/16 15/15/15
f 15/15/15 16/16/16 18/18/18
f 18/18/18 16/16/16 19/19/19
f 20/20/20 15/15/15 18/18/18
f 21/21/21 15/15/15 20/20/20
f 20/20/20 22/22/22 21/21/21
f 23/23/23 22/22/22 20/20/20
f 23/23/23 24/24/24 22/22/22
f 25/25/25 24/24/24 23/23/23
f 28/28/28 27/27/27 26/26/26
f 26/26/26 27/27/27 29/29/29
f 29/29/29 27/27/27 30/30/30
f 26/26/26 29/29/29 31/31/31
f 31/31/31 29/29/29 32/32/32
f 32/32/32 33/33/33 31/31/31
f 31/31/31 33/33/33 34/34/34
f 33/33/33 35/35/35 34/34/34
f 34/34/34 35/35/35 36/36/36
f 39/39/39 38/38/38 37/37/37
f 37/37/37 38/38/38 40/40/40
f 43/43/43 42/42/42 41/41/41
f 44/44/44 42/42/42 43/43/43
f 45/45/45 44/44/44 43/43/43
f 46/46/46 44/44/44 45/45/45
f 47/47/47 46/46/46 45/45/45
f 48/48/48 46/46/46 47/47/47
f 49/49/49 48/48/48 47/47/47
f 50/50/50 48/48/48 49/49/49
f 53/53/53 52/52/52 51/51/51
f 52/52/52 54/54/54 51/51/51
f 55/55/55 54/54/54 52/52/52
f 55/55/55 52/52/52 56/56/56
f 55/55/55 56/56/56 57/57/57
f 57/57/57 56/56/56 58/58/58
f 57/57/57 58/58/58 59/59/59
f 59/59/59 58/58/58 60/60/60
f 59/59/59 60/60/60 61/61/61
f 61/61/61 60/60/60 62/62/62
f 61/61/61 62/62/62 63/63/63
f 63/63/63 62/62/62 64/64/64
f 67/67/67 66/66/66 65/65/65
f 65/65/65 66/66/66 68/68/68
f 68/68/68 66/66/66 69/69/69
f 70/70/70 65/65/65 68/68/68
f 71/71/71 65/65/65 70/70/70
f 70/70/70 72/72/72 71/71/71
f 73/73/73 72/72/72 70/70/70
f 73/73/73 74/74/74 72/72/72
f 75/75/75 74/74/74 73/73/73
f 78/78/78 77/77/77 76/76/76
f 76/76/76 77/77/77 79/79/79
f 79/79/79 77/77/77 80/80/80
f 76/76/76 79/79/79 81/81/81
f 81/81/81 79/79/79 82/82/82
f 82/82/82 83/83/83 81/81/81
f 81/81/81 83/83/83 84/84/84
f 83/83/83 85/85/85 84/84/84
f 84/84/84 85/85/85 86/86/86
f 89/89/89 88/88/88 87/87/87
f 87/87/87 88/88/88 90/90/90
f 93/93/93 92/92/92 91/91/91
f 94/94/94 92/92/92 93/93/93
f 95/95/95 94/94/94 93/93/93
f 96/96/96 94/94/94 95/95/95
f 97/97/97 96/96/96 95/95/95
f 98/98/98 96/96/96 97/97/97
f 99/99/99 98/98/98 97/97/97
f 100/100/100 98/98/98 99/99/99
