g M_HairBK01
v 0.025563497 1.4552046 -0.07086697
v 0.019920796 1.4552352 -0.076064855
v 0.025750741 1.444067 -0.07648582
v 0.018981857 1.4641467 -0.076474644
v 0.026163502 1.4639016 -0.06787834
v 0.018479457 1.473725 -0.07670872
v 0.028226838 1.4719102 -0.06518959
v 0.021795487 1.4822727 -0.07554684
v 0.030898064 1.4810401 -0.064872436
v 0.02374794 1.4912024 -0.07710857
v 0.033713873 1.4901142 -0.06602253
v 0.036722258 1.4722568 -0.056767024
v 0.038040604 1.4806739 -0.05413541
v 0.03441986 1.4623914 -0.062645994
v 0.033713873 1.4901142 -0.06602253
v 0.029875621 1.4625196 -0.06751784
v 0.031566236 1.450476 -0.07183116
v 0.03960329 1.4906219 -0.052214503
v 0.042533875 1.5037465 -0.052249048
v 0.036162034 1.5039285 -0.0670369
v 0.038876247 1.5049093 -0.035774346
v 0.03461256 1.4904585 -0.038531005
v 0.038040604 1.4806739 -0.05413541
v 0.034387432 1.478911 -0.04333538
v 0.036722258 1.4722568 -0.056767024
v 0.03479595 1.4692599 -0.050704878
v 0.03353684 1.4610955 -0.05745679
v 0.031566236 1.450476 -0.07183116
v -0.036162034 1.5039285 -0.0670369
v -0.042533875 1.5037465 -0.052249048
v -0.033713873 1.4901142 -0.06602253
v -0.03960329 1.4906219 -0.052214503
v -0.038876247 1.5049093 -0.035774346
v -0.03461256 1.4904585 -0.038531005
v -0.038040604 1.4806739 -0.05413541
v -0.034387432 1.478911 -0.04333538
v -0.036722258 1.4722568 -0.056767024
v -0.03479595 1.4692599 -0.050704878
v -0.038040604 1.4806739 -0.05413541
v -0.030435257 1.4806567 -0.066113114
v -0.03441986 1.4623914 -0.062645994
v -0.028226838 1.4719102 -0.06518959
v -0.03353684 1.4610955 -0.05745679
v -0.036722258 1.4722568 -0.056767024
v -0.031566236 1.450476 -0.07183116
v -0.029875621 1.4625196 -0.06751784
v -0.026163502 1.4639016 -0.06787834
v -0.018479457 1.473725 -0.07670872
v -0.021795487 1.4822727 -0.07554684
v -0.018981857 1.4641467 -0.076474644
v -0.030435257 1.4806567 -0.066113114
v -0.02374794 1.4912024 -0.07710857
v -0.033713873 1.4901142 -0.06602253
v -0.025563497 1.4552046 -0.07086697
v -0.019920796 1.4552352 -0.076064855
v -0.025750741 1.444067 -0.07648582
v -0.014912833 1.4542658 -0.075339735
v -0.019920796 1.4552352 -0.076064855
v -0.01162672 1.4620342 -0.07529689
v -0.018981857 1.4641467 -0.076474644
v -0.008109894 1.4735707 -0.07507976
v -0.018479457 1.473725 -0.07670872
v 0.010718994 1.449159 -0.07854116
v 0.005434494 1.4500803 -0.08100727
v 0.0014767742 1.4423275 -0.083793335
v 0.008591177 1.4574746 -0.07979481
v 0.015659833 1.4562279 -0.074711986
v 0.00971337 1.465956 -0.07972722
v 0.016550245 1.4649351 -0.07552505
v 0.020618286 1.4642006 -0.07091437
v 0.018479457 1.473725 -0.07670872
v 0.025189366 1.4734942 -0.06731399
v 0.011478175 1.4734955 -0.07975128
v 0.0009879571 1.4652756 -0.08262246
v 0.0018477249 1.4736862 -0.0835524
v -0.00016982436 1.458077 -0.08213234
v 0.004756794 1.4503759 -0.08057001
v -0.0017446136 1.4515982 -0.08226369
v -0.0044816397 1.4404516 -0.08367271
v -0.007456169 1.4501257 -0.07975459
v -0.010406837 1.4570065 -0.07811172
v -0.006903591 1.4651227 -0.080676265
v -0.014481964 1.4643075 -0.07635666
v -0.018479457 1.473725 -0.07670872
v -0.0082656285 1.4738979 -0.081550635
v -0.009487281 1.4815695 -0.08260374
v -0.021795487 1.4822727 -0.07554684
v 0.0022545813 1.4814107 -0.08427185
v 0.012522209 1.4813993 -0.08081314
v 0.018479457 1.473725 -0.07670872
v 0.021795487 1.4822727 -0.07554684
vt 0.243271 0.19001502
vt 0.232934 0.186907
vt 0.233552 0.20463097
vt 0.235191 0.174492
vt 0.250266 0.17909801
vt 0.238167 0.161327
vt 0.257908 0.16954398
vt 0.245627 0.15067798
vt 0.2643 0.15767401
vt 0.249215 0.13812602
vt 0.269111 0.14500803
vt 0.27426 0.17382598
vt 0.281902 0.163513
vt 0.262229 0.185278
vt 0.269111 0.14500803
vt 0.253357 0.18238801
vt 0.245359 0.19849002
vt 0.289775 0.15096003
vt 0.296941 0.13309199
vt 0.275186 0.125952
vt 0.319504 0.14149398
vt 0.308435 0.16027302
vt 0.281902 0.163513
vt 0.295664 0.17252898
vt 0.27426 0.17382598
vt 0.281018 0.18110001
vt 0.268678 0.18925798
vt 0.245359 0.19849002
vt 0.440505 0.113566995
vt 0.417713 0.111217976
vt 0.438285 0.13345802
vt 0.416963 0.13047898
vt 0.393665 0.10966802
vt 0.396099 0.13134903
vt 0.41903 0.14520001
vt 0.402744 0.14720201
vt 0.421623 0.15775698
vt 0.412501 0.16162002
vt 0.41903 0.14520001
vt 0.439201 0.14759499
vt 0.428035 0.17308098
vt 0.438345 0.16036898
vt 0.420505 0.17412001
vt 0.421623 0.15775698
vt 0.438174 0.192033
vt 0.437349 0.174012
vt 0.441321 0.17224401
vt 0.459733 0.16113198
vt 0.457402 0.14832503
vt 0.45698 0.174375
vt 0.439201 0.14759499
vt 0.459299 0.135378
vt 0.438285 0.13345802
vt 0.443082 0.18506497
vt 0.453854 0.18686002
vt 0.445074 0.20248699
vt 0.460919 0.18877298
vt 0.453854 0.18686002
vt 0.466902 0.178859
vt 0.45698 0.174375
vt 0.474261 0.163611
vt 0.459733 0.16113198
vt 0.351067 0.136307
vt 0.359188 0.13807398
vt 0.366528 0.12750602
vt 0.353846 0.14819801
vt 0.341712 0.145738
vt 0.351882 0.16014302
vt 0.340554 0.15810502
vt 0.332035 0.15611601
vt 0.338359 0.17073703
vt 0.322372 0.168091
vt 0.349144 0.17080998
vt 0.36507 0.15959501
vt 0.363809 0.171677
vt 0.366743 0.14915699
vt 0.359276 0.13831002
vt 0.368812 0.13970101
vt 0.37222 0.12370503
vt 0.377713 0.13784802
vt 0.382448 0.14746797
vt 0.376723 0.15924
vt 0.389059 0.15748501
vt 0.394503 0.17092502
vt 0.378474 0.17184502
vt 0.379945 0.18287802
vt 0.400049 0.18277103
vt 0.363162 0.18267602
vt 0.347866 0.18212098
vt 0.338359 0.17073703
vt 0.332824 0.18249601
vn 0.6976342 0.021418346 -0.716134
vn 0.5368848 0.02018606 -0.84341395
vn 0.5659454 0.021299085 -0.8241676
vn 0.48543534 0.019714791 -0.87405026
vn 0.7528168 0.020308226 -0.6579167
vn 0.5311007 0.018207004 -0.84711313
vn 0.7478176 0.019890778 -0.6636062
vn 0.65065813 0.018243274 -0.75915164
vn 0.7768379 0.017510833 -0.629457
vn 0.6909683 0.018213961 -0.7226556
vn 0.83959645 0.018731646 -0.5428877
vn 0.97571075 0.017711477 -0.21834566
vn 0.98200524 0.019137658 -0.18788119
vn 0.92799026 0.019518403 -0.37209302
vn 0.8420647 0.019021824 -0.5390411
vn 0.7408074 0.024433846 -0.67127305
vn 0.8684314 0.018399943 -0.49546775
vn 0.9960115 0.019435452 -0.08708223
vn 0.9920385 0.021568244 -0.124074936
vn 0.8920685 0.02209386 -0.4513598
vn 0.9675404 0.0203651 0.25189453
vn 0.96080226 0.017963134 0.27665204
vn 0.9660075 0.019755566 -0.2577584
vn 0.976994 0.01820835 0.21248798
vn 0.9552685 0.019444762 -0.29509994
vn 0.9954912 0.015758257 0.093536004
vn 0.99963295 0.013282512 -0.023611875
vn 0.8684314 0.018399943 -0.49546775
vn -0.8920685 0.02209386 -0.4513598
vn -0.9920385 0.021568244 -0.124074936
vn -0.84226954 0.019045986 -0.53872
vn -0.9960115 0.019435452 -0.08708223
vn -0.9675404 0.0203651 0.25189453
vn -0.96080226 0.017963134 0.27665204
vn -0.9660075 0.019755566 -0.2577584
vn -0.976994 0.01820835 0.21248798
vn -0.9552685 0.019444762 -0.29509994
vn -0.9954912 0.015758257 0.093536004
vn -0.97047454 0.019610537 -0.24040495
vn -0.7823424 0.016668273 -0.6226256
vn -0.92799026 0.019518403 -0.37209302
vn -0.752685 0.019899754 -0.65808004
vn -0.99963295 0.013282512 -0.023611875
vn -0.96625227 0.018592795 -0.25692558
vn -0.8684314 0.018399943 -0.49546775
vn -0.7408074 0.024433846 -0.67127305
vn -0.75281686 0.020308224 -0.6579167
vn -0.5032253 0.018399395 -0.86395943
vn -0.64027697 0.01813029 -0.76793015
vn -0.48543534 0.019714791 -0.87405026
vn -0.7823424 0.016668273 -0.6226256
vn -0.67750907 0.018678715 -0.7352772
vn -0.84397215 0.019247238 -0.5360415
vn -0.6976342 0.021418346 -0.716134
vn -0.5368848 0.02018606 -0.84341395
vn -0.5659454 0.021299085 -0.8241676
vn 0.0072969864 0.016292443 -0.9998406
vn -0.39375073 0.019131983 -0.9190181
vn 0.036587343 0.017679328 -0.99917406
vn -0.3732788 0.019064937 -0.9275233
vn 0.066049874 0.019817395 -0.99761945
vn -0.47005886 0.01859902 -0.8824392
vn 0.43426344 0.016948322 -0.9006265
vn 0.35643557 0.01744661 -0.9341571
vn 0.33260664 0.01707217 -0.94291115
vn 0.37867802 0.017088357 -0.92537075
vn 0.56179035 0.016285572 -0.82711935
vn 0.38438213 0.017480558 -0.92300856
vn 0.5730626 0.015684899 -0.81936145
vn 0.7231472 0.015507615 -0.69051987
vn 0.5939251 0.01768315 -0.80432594
vn 0.78733546 0.017105585 -0.61628765
vn 0.3660168 0.017737547 -0.9304392
vn 0.038613427 0.017398471 -0.9991027
vn 0.07431899 0.018639795 -0.99706024
vn -0.02551557 0.017109659 -0.99952793
vn 0.22051072 0.016610282 -0.9752431
vn -0.07188443 0.01822397 -0.9972465
vn -0.115408 0.017793436 -0.9931589
vn -0.36957175 0.018779611 -0.9290124
vn -0.3784007 0.01707657 -0.92548436
vn -0.30883315 0.016601842 -0.9509713
vn -0.4577818 0.015908124 -0.8889222
vn -0.47005886 0.01859902 -0.8824392
vn -0.28044248 0.017728025 -0.95970714
vn -0.29234117 0.01886706 -0.956128
vn -0.64027697 0.01813029 -0.7679301
vn 0.0829604 0.019473322 -0.9963625
vn 0.36897218 0.019087091 -0.9292444
vn 0.56740916 0.017920282 -0.82324094
vn 0.65065813 0.018243274 -0.75915164
g M_HairBK01_0
f 3/3/3 2/2/2 1/1/1
f 2/2/2 4/4/4 1/1/1
f 1/1/1 4/4/4 5/5/5
f 6/6/6 5/5/5 4/4/4
f 7/7/7 5/5/5 6/6/6
f 6/6/6 8/8/8 7/7/7
f 9/9/9 7/7/7 8/8/8
f 9/9/9 8/8/8 10/10/10
f 11/11/11 9/9/9 10/10/10
f 7/7/7 9/9/9 12/12/12
f 13/13/13 12/12/12 9/9/9
f 12/12/12 14/14/14 7/7/7
f 13/13/13 9/9/9 15/15/15
f 16/16/16 7/7/7 14/14/14
f 16/16/16 14/14/14 17/17/17
f 18/18/18 13/13/13 15/15/15
f 15/15/15 19/19/19 18/18/18
f 20/20/20 19/19/19 15/15/15
f 21/21/21 18/18/18 19/19/19
f 22/22/22 18/18/18 21/21/21
f 22/22/22 23/23/23 18/18/18
f 22/22/22 24/24/24 23/23/23
f 25/25/25 23/23/23 24/24/24
f 25/25/25 24/24/24 26/26/26
f 26/26/26 14/14/14 25/25/25
f 26/26/26 27/27/27 14/14/14
f 14/14/14 27/27/27 28/28/28
f 31/31/31 30/30/30 29/29/29
f 31/31/31 32/32/32 30/30/30
f 33/33/33 30/30/30 32/32/32
f 33/33/33 32/32/32 34/34/34
f 32/32/32 35/35/35 34/34/34
f 34/34/34 35/35/35 36/36/36
f 37/37/37 36/36/36 35/35/35
f 38/38/38 36/36/36 37/37/37
f 32/32/32 31/31/31 39/39/39
f 31/31/31 40/40/40 39/39/39
f 37/37/37 41/41/41 38/38/38
f 39/39/39 40/40/40 42/42/42
f 41/41/41 43/43/43 38/38/38
f 44/44/44 39/39/39 42/42/42
f 44/44/44 42/42/42 41/41/41
f 45/45/45 43/43/43 41/41/41
f 45/45/45 41/41/41 46/46/46
f 46/46/46 41/41/41 42/42/42
f 48/48/48 47/47/47 42/42/42
f 42/42/42 49/49/49 48/48/48
f 48/48/48 50/50/50 47/47/47
f 42/42/42 51/51/51 49/49/49
f 52/52/52 49/49/49 51/51/51
f 52/52/52 51/51/51 53/53/53
f 54/54/54 47/47/47 50/50/50
f 54/54/54 50/50/50 55/55/55
f 54/54/54 55/55/55 56/56/56
f 56/56/56 58/58/58 57/57/57
f 57/57/57 58/58/58 59/59/59
f 58/58/58 60/60/60 59/59/59
f 59/59/59 60/60/60 61/61/61
f 61/61/61 60/60/60 62/62/62
f 65/65/65 64/64/64 63/63/63
f 63/63/63 64/64/64 66/66/66
f 67/67/67 63/63/63 66/66/66
f 66/66/66 68/68/68 67/67/67
f 67/67/67 68/68/68 69/69/69
f 69/69/69 70/70/70 67/67/67
f 69/69/69 71/71/71 70/70/70
f 72/72/72 70/70/70 71/71/71
f 71/71/71 69/69/69 73/73/73
f 73/73/73 69/69/69 68/68/68
f 66/66/66 74/74/74 68/68/68
f 73/73/73 68/68/68 75/75/75
f 75/75/75 68/68/68 74/74/74
f 76/76/76 74/74/74 66/66/66
f 66/66/66 77/77/77 76/76/76
f 77/77/77 78/78/78 76/76/76
f 79/79/79 78/78/78 77/77/77
f 79/79/79 80/80/80 78/78/78
f 78/78/78 80/80/80 81/81/81
f 76/76/76 78/78/78 81/81/81
f 81/81/81 82/82/82 76/76/76
f 76/76/76 82/82/82 74/74/74
f 81/81/81 83/83/83 82/82/82
f 82/82/82 83/83/83 84/84/84
f 85/85/85 74/74/74 82/82/82
f 75/75/75 74/74/74 85/85/85
f 85/85/85 82/82/82 84/84/84
f 84/84/84 86/86/86 85/85/85
f 84/84/84 87/87/87 86/86/86
f 85/85/85 86/86/86 88/88/88
f 85/85/85 88/88/88 75/75/75
f 75/75/75 88/88/88 73/73/73
f 73/73/73 88/88/88 89/89/89
f 73/73/73 89/89/89 90/90/90
f 90/90/90 89/89/89 91/91/91
