g M_HairOP01
v 0.032290183 1.6739104 0.02162465
v 0.036294527 1.6744839 0.024445452
v 0.025085798 1.6654603 0.029981874
v 0.036248073 1.6818167 0.012216982
v 0.04597633 1.6808249 0.015751923
v 0.038278498 1.6878635 0.0026673314
v 0.05047875 1.6877187 0.0040451223
v 0.050161224 1.6931562 -0.0056777564
v 0.039235096 1.6911066 -0.0062043997
v 0.04913611 1.6963239 -0.014250402
v 0.039601766 1.6938019 -0.015071014
v 0.039547253 1.6977787 -0.022564316
v 0.046906386 1.7001942 -0.023084797
v 0.038859125 1.7021184 -0.030187378
v 0.044762306 1.7039917 -0.03133819
v 0.03726724 1.7074827 -0.03659545
v 0.04056441 1.7101856 -0.037935294
v 0.03713477 1.7151601 -0.041219898
v 0.034822162 1.7136065 -0.04089686
v 0.03472707 1.7188749 -0.043278016
v 0.033235844 1.7177823 -0.04340301
v 0.031913888 1.7244394 -0.04539347
v 0.028312504 1.6741427 0.020248672
v 0.032008074 1.6738681 0.021742549
v 0.025085798 1.6654603 0.029981874
v 0.03590832 1.6809825 0.012594424
v 0.030016039 1.6824106 0.012173512
v 0.03837625 1.6876439 0.0010581543
v 0.02981485 1.6891111 0.0020221525
v 0.038666826 1.6767205 0.01017393
v 0.032008074 1.6738681 0.021742549
v 0.033748772 1.6718928 0.019221775
v 0.025085798 1.6654603 0.029981874
v 0.043070186 1.6811284 -0.0013522912
v 0.042783014 1.6856289 -0.0142125
v 0.036382485 1.6940364 -0.011097935
v 0.028862486 1.6951019 -0.008616861
v 0.025280971 1.6989722 -0.02369093
v 0.03353123 1.6966234 -0.026986277
v 0.03777888 1.6891433 -0.030350296
v 0.023304844 1.699232 -0.031592485
v 0.033739325 1.6908556 -0.037627757
v 0.030052086 1.6973032 -0.035058655
v 0.020334924 1.6989397 -0.04093283
v 0.027767304 1.6939322 -0.04633983
v 0.025272544 1.697858 -0.0434537
v 0.018792918 1.6986936 -0.046288732
v 0.021827692 1.6979709 -0.048673406
v 0.023789035 1.6948333 -0.051191825
v 0.016795468 1.6981587 -0.051737145
v 0.018490072 1.697814 -0.05353646
v 0.019380987 1.6955713 -0.05513657
v 0.014292434 1.6978897 -0.05569383
v 0.01527093 1.6975214 -0.056613524
v 0.015636444 1.6959411 -0.0579568
v 0.010704653 1.6973808 -0.06101668
v 0.039958905 1.6697253 0.022193879
v 0.025085798 1.6654603 0.029981874
v 0.036294527 1.6744839 0.024445452
v 0.04597633 1.6808249 0.015751923
v 0.04688026 1.6736617 0.01252948
v 0.05047875 1.6877187 0.0040451223
v 0.05098102 1.6784232 -0.00083502877
v 0.050161224 1.6931562 -0.0056777564
v 0.05321682 1.6824799 -0.010529227
v 0.04913611 1.6963239 -0.014250402
v 0.052133784 1.6869043 -0.021172795
v 0.049628608 1.691758 -0.030669898
v 0.046906386 1.7001942 -0.023084797
v 0.04621516 1.6968131 -0.037656177
v 0.044762306 1.7039917 -0.03133819
v 0.04056441 1.7101856 -0.037935294
v 0.04223395 1.7052984 -0.043108836
v 0.03713477 1.7151601 -0.041219898
v 0.037602667 1.7130784 -0.045237914
v 0.03472707 1.7188749 -0.043278016
v 0.034398973 1.7176685 -0.04562928
v 0.031913888 1.7244394 -0.04539347
v -0.02042767 1.5375913 0.062695704
v -0.016767006 1.5426495 0.06674718
v -0.0154404305 1.5427274 0.066086434
v -0.012010802 1.5468916 0.06864965
v -0.013751583 1.5468757 0.0698141
v -0.007818933 1.5528531 0.0718092
v -0.009758644 1.553136 0.07334417
v -0.0037822165 1.5587541 0.07468297
v -0.006164951 1.5591073 0.07661544
v 0.0016118424 1.5684276 0.07751213
v -0.0008261161 1.5690614 0.0798256
v 0.0059412736 1.5792902 0.078674495
v 0.00317749 1.5798092 0.0811117
v 0.010740801 1.5929366 0.07887246
v 0.007805812 1.5938363 0.081111155
v 0.014015032 1.6044967 0.07618162
v 0.010985923 1.6054685 0.078576885
v 0.016750824 1.614635 0.07261147
v 0.01344929 1.6160886 0.07486268
v 0.018623585 1.6251208 0.067424245
v -0.008235723 1.5604565 0.07584333
v -0.0039198175 1.5704836 0.078225456
v -0.0113697825 1.5542458 0.07308086
v -6.847557E-05 1.5806541 0.07970061
v -0.009758644 1.553136 0.07334417
v 0.004342524 1.5944138 0.079528704
v -0.014624444 1.5478913 0.069586895
v 0.0072287577 1.6057032 0.077244565
v -0.013751583 1.5468757 0.0698141
v -0.017030563 1.5435181 0.06675401
v -0.016767006 1.5426495 0.06674718
v -0.02042767 1.5375913 0.062695704
v 0.0094611375 1.6164314 0.07363995
v 0.015459725 1.6269633 0.069233604
v 0.011522842 1.6273187 0.067713425
v 0.0126340315 1.6379635 0.060063977
v 0.016125007 1.6380583 0.06131968
v 0.018913021 1.6364504 0.059411213
v 0.0140383765 1.6490176 0.051331036
v 0.016219415 1.6485865 0.05195036
v 0.018456277 1.648085 0.0511979
v 0.016090067 1.657238 0.04023843
v -0.055148806 1.6239533 0.050453633
v -0.053429928 1.6230874 0.053899758
v -0.0605587 1.6136559 0.049636777
v -0.049849384 1.6332103 0.049920257
v -0.059153046 1.612445 0.05317646
v -0.06473776 1.6039228 0.04899202
v -0.063541345 1.6023784 0.052184865
v -0.06829172 1.5947326 0.04649681
v -0.06748329 1.5931023 0.0497051
v -0.07099183 1.5858084 0.043530025
v -0.07069928 1.5843524 0.046049174
v -0.07296691 1.5781844 0.038581245
v -0.07327525 1.5768906 0.041218612
v -0.07403602 1.5707366 0.03336789
v -0.070771925 1.5766296 0.041268315
v -0.06774586 1.583589 0.046395063
v -0.063848644 1.5919262 0.050214477
v -0.060386952 1.6004887 0.053283133
v -0.055732172 1.610628 0.054293938
v -0.04983988 1.6212902 0.05474818
v -0.048011765 1.6325291 0.053394504
v -0.044461794 1.6305958 0.05439764
v -0.039634235 1.6382486 0.053803265
v -0.042322434 1.6406915 0.052383542
v -0.04341089 1.6412699 0.048995033
v -0.034887142 1.649362 0.045806218
v -0.033926833 1.6495214 0.04931169
v -0.03159911 1.647273 0.050964613
v -0.025965724 1.6564289 0.041892655
v -0.024918968 1.6565129 0.045002945
v -0.023185764 1.6538618 0.046495862
v -0.0124120945 1.663624 0.03632184
v -0.009852501 1.6622702 0.040217128
vt 0.928147 0.9585256
vt 0.920609 0.9582485
vt 0.928147 0.9802103
vt 0.928147 0.9385407
vt 0.912474 0.9375173
vt 0.928147 0.9208975
vt 0.910285 0.9188158
vt 0.910805 0.90400827
vt 0.928147 0.9056835
vt 0.911373 0.889377
vt 0.928147 0.889795
vt 0.928147 0.874363
vt 0.913687 0.872311
vt 0.928147 0.857799
vt 0.915291 0.855452
vt 0.928147 0.841368
vt 0.920022 0.837392
vt 0.92289 0.823869
vt 0.928147 0.82528
vt 0.92354 0.81053
vt 0.928147 0.81132
vt 0.928147 0.785603
vt 0.878655 0.9567636
vt 0.872189 0.9577294
vt 0.878526 0.9786661
vt 0.868762 0.9385409
vt 0.878495 0.9373308
vt 0.865631 0.9173089
vt 0.879512 0.9172563
vt 0.859725 0.9392128
vt 0.872189 0.9577294
vt 0.866229 0.9569218
vt 0.878526 0.9786661
vt 0.852578 0.91885567
vt 0.850669 0.896402
vt 0.867701 0.895368
vt 0.88025 0.896733
vt 0.880639 0.870061
vt 0.865963 0.868944
vt 0.851767 0.868016
vt 0.879752 0.856184
vt 0.854494 0.85383
vt 0.866931 0.854653
vt 0.878772 0.839377
vt 0.860653 0.835888
vt 0.869215 0.838431
vt 0.877849 0.82943404
vt 0.871034 0.827556
vt 0.863775 0.825031
vt 0.877205 0.818401
vt 0.872586 0.816599
vt 0.867676 0.814537
vt 0.878209 0.808163
vt 0.874979 0.807419
vt 0.870977 0.80495703
vt 0.878526 0.791808
vt 0.910977 0.9600244
vt 0.928147 0.9802103
vt 0.920609 0.9582485
vt 0.912474 0.9375173
vt 0.902257 0.9414681
vt 0.910285 0.9188158
vt 0.896011 0.9195074
vt 0.910805 0.90400827
vt 0.893403 0.9031718
vt 0.911373 0.889377
vt 0.893078 0.884887
vt 0.894435 0.865843
vt 0.913687 0.872311
vt 0.899186 0.850558
vt 0.915291 0.855452
vt 0.920022 0.837392
vt 0.907738 0.834536
vt 0.92289 0.823869
vt 0.914612 0.821385
vt 0.92354 0.81053
vt 0.915641 0.808922
vt 0.928147 0.785603
vt 0.973971 0.74300504
vt 0.973309 0.754177
vt 0.976184 0.754075
vt 0.976372 0.762187
vt 0.972856 0.761985
vt 0.976723 0.774055
vt 0.972528 0.773932
vt 0.977206 0.786053
vt 0.972603 0.785831
vt 0.978627 0.80347
vt 0.973365 0.80362403
vt 0.979035 0.82232296
vt 0.973198 0.821995
vt 0.979309 0.846287
vt 0.973241 0.846272
vt 0.979926 0.867316
vt 0.973332 0.867133
vt 0.981115 0.886855
vt 0.973971 0.887262
vt 0.980659 0.9083706
vt 0.967831 0.785779
vt 0.968077 0.803658
vt 0.968324 0.773964
vt 0.967467 0.821571
vt 0.972528 0.773932
vt 0.967116 0.845827
vt 0.969265 0.76194
vt 0.966729 0.866641
vt 0.972856 0.761985
vt 0.970349 0.753578
vt 0.973309 0.754177
vt 0.973971 0.74300504
vt 0.966885 0.887626
vt 0.973971 0.9095916
vt 0.967213 0.910801
vt 0.968175 0.9336431
vt 0.973971 0.9333531
vt 0.979896 0.9330665
vt 0.969283 0.9569263
vt 0.973971 0.9562572
vt 0.97854 0.9562219
vt 0.973971 0.9795601
vt 0.94077 0.878426
vt 0.947241 0.87839997
vt 0.940626 0.857869
vt 0.940634 0.897017
vt 0.947238 0.85731304
vt 0.941531 0.838987
vt 0.947729 0.838085
vt 0.941655 0.820499
vt 0.947839 0.82007504
vt 0.944151 0.802911
vt 0.949078 0.803095
vt 0.946218 0.786429
vt 0.950445 0.78815603
vt 0.954014 0.772797
vt 0.954014 0.789087
vt 0.954014 0.803963
vt 0.954014 0.820603
vt 0.954014 0.837279
vt 0.954014 0.856797
vt 0.954014 0.878147
vt 0.947138 0.897053
vt 0.954014 0.896822
vt 0.954014 0.9122538
vt 0.947701 0.9133874
vt 0.941982 0.9142128
vt 0.942449 0.9338642
vt 0.948219 0.9333371
vt 0.954014 0.9325821
vt 0.943278 0.9530034
vt 0.948464 0.9522572
vt 0.954014 0.9512108
vt 0.94627 0.9785899
vt 0.954014 0.9780818
vn -0.43072614 0.78649527 0.44260615
vn -0.38981792 0.7982828 0.4591149
vn -0.41757694 0.80539095 0.42068392
vn -0.28108394 0.8245468 0.49103388
vn -0.24503796 0.83931285 0.48529392
vn -0.23465909 0.8746032 0.4242691
vn -0.20853595 0.87800276 0.4308409
vn -0.24803905 0.8971061 0.36561906
vn -0.27806705 0.90281427 0.3280321
vn -0.2949991 0.87033325 0.3943291
vn -0.313641 0.86955196 0.381456
vn -0.29308897 0.8239528 0.48497492
vn -0.273048 0.839189 0.47032598
vn -0.188232 0.808188 0.558033
vn -0.17524204 0.80795723 0.5625791
vn -0.137872 0.640964 0.7550871
vn -0.11166998 0.5985119 0.7932928
vn -0.13258192 0.48452377 0.8646726
vn -0.17963794 0.4867788 0.8548547
vn -0.25308606 0.34286907 0.9046482
vn -0.29094404 0.35009405 0.89038515
vn -0.23919107 0.26005507 0.93549925
vn -0.13006702 0.7771861 0.615682
vn -0.17304602 0.79132915 0.5863901
vn -0.1830901 0.7732203 0.6071313
vn 0.54914093 0.57848597 0.6031569
vn 0.16168793 0.7571566 0.6329066
vn 0.5854557 0.6877367 0.42925486
vn 0.22935009 0.8315533 0.50588316
vn 0.84354186 0.28047597 0.45800692
vn 0.82313627 -0.011940803 0.56771827
vn 0.8429571 0.020264203 0.5375991
vn 0.79879117 -0.09412812 0.59419906
vn 0.8259274 0.4632702 0.32128614
vn 0.81997 0.56653297 0.0817898
vn 0.557878 0.79679406 0.23214501
vn 0.26308703 0.8901361 0.37207907
vn 0.2992958 0.94703245 0.11641094
vn 0.60622907 0.7947002 -0.030626407
vn 0.8141891 0.55682707 -0.16443801
vn 0.27767596 0.9605789 0.013565899
vn 0.78181386 0.57174593 -0.24874397
vn 0.559847 0.8188499 -0.126713
vn 0.22506197 0.9743368 -0.0038526796
vn 0.6808722 0.67025214 -0.29525408
vn 0.46396318 0.87254125 -0.15300305
vn 0.18672901 0.9817261 -0.036690403
vn 0.41728708 0.88757217 -0.19515903
vn 0.61909497 0.702236 -0.351548
vn 0.13331303 0.98999727 -0.046185616
vn 0.38721088 0.8737437 -0.29434592
vn 0.5689451 0.6465541 -0.50820214
vn 0.17319998 0.9754558 -0.13596898
vn 0.38184404 0.8504421 -0.36186105
vn 0.5447689 0.64811987 -0.5321349
vn 0.4297528 0.8150686 -0.3885558
vn 0.61436266 -0.04763587 0.78758454
vn 0.47855198 -0.08511801 0.87392396
vn 0.5377299 -0.0243685 0.8427649
vn 0.90265274 -0.12963995 0.4103799
vn 0.91007906 -0.166393 0.37956503
vn 0.98995274 -0.012590197 0.14083695
vn 0.98550147 0.019956889 0.1684889
vn 0.986217 0.16174299 0.0348598
vn 0.9790196 0.18605494 0.08309157
vn 0.96268487 0.26946196 -0.025061397
vn 0.9585733 0.28370306 -0.025494007
vn 0.92930317 0.35085505 -0.11531002
vn 0.94148576 0.32077292 -0.10348497
vn 0.9248011 0.34852102 -0.15256503
vn 0.9340996 0.30504388 -0.18548894
vn 0.88771164 0.43824682 -0.14109494
vn 0.90104854 0.4274538 -0.073448464
vn 0.8644786 0.4889038 -0.11683296
vn 0.8577658 0.49463987 -0.13988997
vn 0.8612357 0.44287986 -0.24925989
vn 0.8363786 0.45816877 -0.30091882
vn 0.89670616 0.3527681 -0.26734406
vn 0.41701192 -0.75660884 0.50363094
vn 0.442003 -0.7358719 0.512958
vn 0.4356588 -0.7162508 0.54514784
vn 0.5707338 -0.6949697 0.43735582
vn 0.5773629 -0.70567185 0.4107059
vn 0.63970506 -0.66322005 0.38848004
vn 0.4665498 -0.65279377 0.5968178
vn 0.58777374 -0.54279083 0.59991676
vn -0.00036434503 -0.34502602 0.9385931
vn 0.585664 -0.385622 0.712947
vn 0.059789613 -0.21222003 0.9753912
vn 0.60941076 -0.2716469 0.7448667
vn -0.021655906 -0.07786943 0.9967283
vn 0.5924323 -0.10445906 0.79881936
vn 0.12246698 0.045021895 0.99145085
vn 0.63090396 0.023796996 0.7754959
vn 0.18611406 0.17181806 0.9673883
vn 0.62128174 0.15010996 0.76907474
vn 0.20974809 0.2916421 0.9332474
vn 0.6303492 0.2984811 0.71663725
vn -0.5681879 -0.00025335795 0.8228988
vn -0.47133473 0.02429729 0.88161963
vn -0.60246414 -0.11429403 0.7899201
vn -0.38698307 0.04345961 0.9210621
vn -0.60935867 -0.10570894 0.78581655
vn -0.37552702 0.17586403 0.9099732
vn -0.7099688 -0.053959697 0.7021628
vn -0.3005251 0.26897812 0.91506034
vn -0.68082005 -0.06737771 0.7293451
vn -0.75316596 0.035646997 0.6568639
vn -0.8075159 0.162744 0.56695
vn -0.83056843 0.48367724 0.27606612
vn -0.245908 0.36679405 0.8972131
vn 0.21129994 0.44795588 0.86872774
vn -0.27003202 0.49596107 0.82529104
vn -0.29509085 0.5555868 0.7773317
vn 0.38008192 0.5313189 0.75712484
vn 0.67094487 0.41737592 0.6128869
vn -0.059529897 0.723225 0.688042
vn 0.18107705 0.67842025 0.71200925
vn 0.38445193 0.62432295 0.68001294
vn 0.19086905 0.77562517 0.6016432
vn -0.78356326 0.3658891 0.5021491
vn -0.5301201 0.23093703 0.8158681
vn -0.8277252 0.3163271 0.46347415
vn -0.74384993 0.46057796 0.48430893
vn -0.605389 0.18899702 0.77316505
vn -0.85854006 0.23714101 0.45461303
vn -0.64409506 0.10107801 0.758238
vn -0.91260403 0.19783501 0.35779202
vn -0.6727362 -0.035145406 0.7390472
vn -0.95943207 0.162949 0.23008202
vn -0.72549695 -0.13468999 0.67491686
vn -0.9792246 0.20218793 0.015464693
vn -0.64001805 -0.4406781 0.6294281
vn -0.78396595 -0.44593695 0.43189996
vn -0.08561638 -0.65530485 0.7504968
vn -0.19817899 -0.40049297 0.89461195
vn -0.21890901 -0.280703 0.93449706
vn -0.32741585 -0.06721587 0.9424865
vn -0.28063488 0.03281269 0.95925355
vn -0.19461295 0.058840282 0.97911376
vn -0.5095012 0.32109615 0.79831433
vn -0.185212 0.11992099 0.97535396
vn -0.17881092 0.28255287 0.94243854
vn -0.47124487 0.52043986 0.7120888
vn -0.67159164 0.65341264 0.3493088
vn -0.6418222 0.74717325 0.17261606
vn -0.39475012 0.6570152 0.6422642
vn -0.11466598 0.4563159 0.8823988
vn -0.49744081 0.8531958 0.15687495
vn -0.2583639 0.77508867 0.5766157
vn 0.06600192 0.4833722 0.8729233
vn -0.223913 0.8796679 0.41957995
vn -0.16162296 0.8385798 0.52025187
g M_HairOP01_0
f 3/3/3 2/2/2 1/1/1
f 2/2/2 4/4/4 1/1/1
f 2/2/2 5/5/5 4/4/4
f 6/6/6 4/4/4 5/5/5
f 6/6/6 5/5/5 7/7/7
f 7/7/7 8/8/8 6/6/6
f 6/6/6 8/8/8 9/9/9
f 10/10/10 9/9/9 8/8/8
f 11/11/11 9/9/9 10/10/10
f 10/10/10 12/12/12 11/11/11
f 10/10/10 13/13/13 12/12/12
f 14/14/14 12/12/12 13/13/13
f 14/14/14 13/13/13 15/15/15
f 15/15/15 16/16/16 14/14/14
f 15/15/15 17/17/17 16/16/16
f 17/17/17 18/18/18 16/16/16
f 18/18/18 19/19/19 16/16/16
f 18/18/18 20/20/20 19/19/19
f 20/20/20 21/21/21 19/19/19
f 22/22/22 21/21/21 20/20/20
f 25/25/25 24/24/24 23/23/23
f 23/23/23 24/24/24 26/26/26
f 27/27/27 23/23/23 26/26/26
f 27/27/27 26/26/26 28/28/28
f 27/27/27 28/28/28 29/29/29
f 28/28/28 26/26/26 30/30/30
f 26/26/26 31/31/31 30/30/30
f 31/31/31 32/32/32 30/30/30
f 33/33/33 32/32/32 31/31/31
f 34/34/34 28/28/28 30/30/30
f 35/35/35 28/28/28 34/34/34
f 29/29/29 28/28/28 36/36/36
f 35/35/35 36/36/36 28/28/28
f 29/29/29 36/36/36 37/37/37
f 37/37/37 36/36/36 38/38/38
f 35/35/35 39/39/39 36/36/36
f 38/38/38 36/36/36 39/39/39
f 40/40/40 39/39/39 35/35/35
f 39/39/39 41/41/41 38/38/38
f 40/40/40 42/42/42 39/39/39
f 39/39/39 43/43/43 41/41/41
f 39/39/39 42/42/42 43/43/43
f 44/44/44 41/41/41 43/43/43
f 45/45/45 43/43/43 42/42/42
f 44/44/44 43/43/43 46/46/46
f 46/46/46 43/43/43 45/45/45
f 46/46/46 47/47/47 44/44/44
f 45/45/45 48/48/48 46/46/46
f 46/46/46 48/48/48 47/47/47
f 45/45/45 49/49/49 48/48/48
f 50/50/50 47/47/47 48/48/48
f 51/51/51 48/48/48 49/49/49
f 50/50/50 48/48/48 51/51/51
f 51/51/51 49/49/49 52/52/52
f 51/51/51 53/53/53 50/50/50
f 52/52/52 54/54/54 51/51/51
f 51/51/51 54/54/54 53/53/53
f 52/52/52 55/55/55 54/54/54
f 53/53/53 54/54/54 56/56/56
f 54/54/54 55/55/55 56/56/56
f 59/59/59 58/58/58 57/57/57
f 59/59/59 57/57/57 60/60/60
f 57/57/57 61/61/61 60/60/60
f 60/60/60 61/61/61 62/62/62
f 63/63/63 62/62/62 61/61/61
f 63/63/63 64/64/64 62/62/62
f 63/63/63 65/65/65 64/64/64
f 66/66/66 64/64/64 65/65/65
f 66/66/66 65/65/65 67/67/67
f 67/67/67 68/68/68 66/66/66
f 66/66/66 68/68/68 69/69/69
f 70/70/70 69/69/69 68/68/68
f 71/71/71 69/69/69 70/70/70
f 70/70/70 72/72/72 71/71/71
f 70/70/70 73/73/73 72/72/72
f 73/73/73 74/74/74 72/72/72
f 73/73/73 75/75/75 74/74/74
f 75/75/75 76/76/76 74/74/74
f 75/75/75 77/77/77 76/76/76
f 76/76/76 77/77/77 78/78/78
f 81/81/81 80/80/80 79/79/79
f 82/82/82 80/80/80 81/81/81
f 82/82/82 83/83/83 80/80/80
f 84/84/84 83/83/83 82/82/82
f 84/84/84 85/85/85 83/83/83
f 86/86/86 85/85/85 84/84/84
f 86/86/86 87/87/87 85/85/85
f 88/88/88 87/87/87 86/86/86
f 88/88/88 89/89/89 87/87/87
f 90/90/90 89/89/89 88/88/88
f 90/90/90 91/91/91 89/89/89
f 92/92/92 91/91/91 90/90/90
f 92/92/92 93/93/93 91/91/91
f 94/94/94 93/93/93 92/92/92
f 94/94/94 95/95/95 93/93/93
f 96/96/96 95/95/95 94/94/94
f 96/96/96 97/97/97 95/95/95
f 98/98/98 97/97/97 96/96/96
f 99/99/99 87/87/87 89/89/89
f 99/99/99 89/89/89 100/100/100
f 100/100/100 89/89/89 91/91/91
f 101/101/101 87/87/87 99/99/99
f 100/100/100 91/91/91 102/102/102
f 102/102/102 91/91/91 93/93/93
f 101/101/101 103/103/103 87/87/87
f 102/102/102 93/93/93 104/104/104
f 104/104/104 93/93/93 95/95/95
f 105/105/105 103/103/103 101/101/101
f 104/104/104 95/95/95 106/106/106
f 106/106/106 95/95/95 97/97/97
f 105/105/105 107/107/107 103/103/103
f 108/108/108 107/107/107 105/105/105
f 108/108/108 109/109/109 107/107/107
f 110/110/110 109/109/109 108/108/108
f 106/106/106 97/97/97 111/111/111
f 111/111/111 97/97/97 112/112/112
f 111/111/111 112/112/112 113/113/113
f 98/98/98 112/112/112 97/97/97
f 113/113/113 112/112/112 114/114/114
f 98/98/98 115/115/115 112/112/112
f 114/114/114 112/112/112 115/115/115
f 116/116/116 115/115/115 98/98/98
f 114/114/114 115/115/115 117/117/117
f 116/116/116 118/118/118 115/115/115
f 117/117/117 115/115/115 118/118/118
f 119/119/119 118/118/118 116/116/116
f 117/117/117 118/118/118 120/120/120
f 120/120/120 118/118/118 119/119/119
f 123/123/123 122/122/122 121/121/121
f 121/121/121 122/122/122 124/124/124
f 123/123/123 125/125/125 122/122/122
f 123/123/123 126/126/126 125/125/125
f 127/127/127 125/125/125 126/126/126
f 128/128/128 127/127/127 126/126/126
f 128/128/128 129/129/129 127/127/127
f 128/128/128 130/130/130 129/129/129
f 131/131/131 129/129/129 130/130/130
f 130/130/130 132/132/132 131/131/131
f 133/133/133 131/131/131 132/132/132
f 134/134/134 133/133/133 132/132/132
f 135/135/135 133/133/133 134/134/134
f 136/136/136 133/133/133 135/135/135
f 136/136/136 131/131/131 133/133/133
f 136/136/136 137/137/137 131/131/131
f 129/129/129 131/131/131 137/137/137
f 138/138/138 129/129/129 137/137/137
f 138/138/138 127/127/127 129/129/129
f 138/138/138 139/139/139 127/127/127
f 125/125/125 127/127/127 139/139/139
f 140/140/140 125/125/125 139/139/139
f 140/140/140 122/122/122 125/125/125
f 140/140/140 141/141/141 122/122/122
f 142/142/142 141/141/141 140/140/140
f 124/124/124 122/122/122 141/141/141
f 143/143/143 141/141/141 142/142/142
f 124/124/124 141/141/141 144/144/144
f 143/143/143 144/144/144 141/141/141
f 124/124/124 144/144/144 145/145/145
f 145/145/145 144/144/144 146/146/146
f 143/143/143 147/147/147 144/144/144
f 146/146/146 144/144/144 147/147/147
f 148/148/148 147/147/147 143/143/143
f 146/146/146 147/147/147 149/149/149
f 148/148/148 150/150/150 147/147/147
f 149/149/149 147/147/147 150/150/150
f 151/151/151 150/150/150 148/148/148
f 149/149/149 150/150/150 152/152/152
f 153/153/153 150/150/150 151/151/151
f 153/153/153 152/152/152 150/150/150
