g M_HairOp01
v -0.06703768 1.630431 0.0663076
v -0.064474106 1.6306076 0.06942001
v -0.06656334 1.621494 0.07203289
v -0.060887527 1.6378008 0.066953585
v -0.064238474 1.6380452 0.06199766
v -0.05756023 1.6428787 0.064290844
v -0.06083593 1.6439526 0.059309214
v -0.051502302 1.6495379 0.06070236
v -0.05454221 1.6511612 0.055196002
v -0.045171652 1.653395 0.058077164
v -0.046738606 1.6558278 0.05249542
v -0.03967422 1.6536015 0.055138394
v -0.040755536 1.6561415 0.049599
v -0.035940837 1.652407 0.05238113
v -0.036991443 1.6550715 0.0473555
v -0.033753358 1.6487145 0.049475364
v -0.034875527 1.6522053 0.044399872
v -0.038313482 1.6571372 0.04116508
v -0.035320546 1.65539 0.04008232
v -0.042350937 1.6589079 0.04239253
v -0.04899245 1.6588867 0.043728445
v -0.05768368 1.6544363 0.044155538
v -0.067400806 1.6467662 0.04637989
v -0.061844956 1.6445042 0.056782644
v -0.072787516 1.6388775 0.047925606
v -0.067077614 1.6381348 0.05906349
v -0.076218724 1.630908 0.050483465
v -0.07013324 1.6312807 0.060785558
v -0.07753772 1.6210328 0.05465171
v -0.07216901 1.6218204 0.06322281
v -0.07588065 1.6121025 0.05865062
v -0.07281328 1.6128503 0.064677685
v -0.07058189 1.6011268 0.06637605
v -0.048997376 1.7090181 -0.0020199204
v -0.050956685 1.7070253 -0.004085045
v -0.045181103 1.7119647 -0.011748256
v -0.054448437 1.7028154 0.0016058931
v -0.052493356 1.7060444 0.0055066054
v -0.057452567 1.6979024 0.007235398
v -0.054087028 1.7019198 0.011755841
v -0.058809835 1.6915683 0.012821803
v -0.0535943 1.6963612 0.017682211
v -0.057357337 1.6847862 0.017294968
v -0.052110456 1.688881 0.022075491
v -0.052747816 1.6780673 0.019652
v -0.04722274 1.6816351 0.02322884
v -0.04584165 1.6720004 0.02115497
v -0.04262019 1.6749914 0.022787128
v -0.035434995 1.6649748 0.020195782
v 0.035913695 1.6271712 0.08205444
v 0.03900772 1.6287439 0.0794722
v 0.039781585 1.6176665 0.081204705
v 0.030766506 1.6364164 0.08188298
v 0.03554651 1.6387248 0.0777388
v 0.029973792 1.6469904 0.075581
v 0.024485087 1.6443048 0.080037385
v 0.020608786 1.6558285 0.07120384
v 0.015474321 1.6526425 0.07604008
v 0.0070408247 1.658535 0.07086418
v 0.011185761 1.6621314 0.06599972
v -0.0013875961 1.6624739 0.06569925
v 0.0025416946 1.6663606 0.060774975
v -0.009744851 1.6652856 0.060569838
v -0.0061661336 1.66925 0.055589788
v -0.014942188 1.6704903 0.0506349
v -0.018183269 1.666339 0.055312045
v -0.02242607 1.669771 0.047038727
v -0.024300613 1.6662049 0.05198452
v -0.027422072 1.6675489 0.04497905
v -0.028632754 1.6650485 0.05001663
v -0.031107422 1.6643304 0.04363042
v -0.032247048 1.661898 0.04841526
v -0.03426739 1.6601317 0.042131614
v -0.03465992 1.6576147 0.047012556
v -0.035993192 1.6546375 0.040701408
v -0.035699826 1.6515293 0.04483554
v -0.08978682 1.5572071 -0.017305037
v -0.08985579 1.5571533 -0.014109452
v -0.08818037 1.5507467 -0.020593148
v -0.091199644 1.5628964 -0.014729604
v -0.09218956 1.5632782 -0.009651886
v -0.092573725 1.5704167 -0.011329868
v -0.09371689 1.5705264 -0.005560567
v -0.09422045 1.579282 -0.007602803
v -0.09593127 1.5807741 -8.006303E-06
v -0.09540667 1.5887016 -0.0035148691
v -0.096569516 1.5891484 0.004010245
v -0.09579274 1.5973054 -1.5581956E-05
v -0.09683688 1.5988148 0.00793397
v -0.0954472 1.6077578 0.0036736573
v -0.0958983 1.6077641 0.011761487
v -0.09474128 1.6169833 0.007323321
v -0.09474996 1.617258 0.015893292
v -0.09191811 1.628816 0.012640234
v -0.0912383 1.6281171 0.020815877
v -0.087216884 1.6418911 0.01755924
v -0.085830465 1.6416346 0.025716105
v -0.08029001 1.6526743 0.021198668
v -0.07948821 1.651319 0.029076476
v -0.072079465 1.6617377 0.023839891
v -0.07180234 1.6594759 0.03165812
v -0.064537525 1.6645672 0.03260256
v -0.06428855 1.6670494 0.025564961
v -0.056627214 1.666902 0.03300696
v -0.05677256 1.6695142 0.0267639
v -0.047949165 1.6703409 0.027117895
v -0.04812595 1.6668364 0.033095907
v -0.040681347 1.6683607 0.026999453
v -0.040726002 1.6643933 0.031912882
v -0.035313807 1.6631718 0.026220977
v -0.034746163 1.6596824 0.03078048
vt 0.975241 0.89121103
vt 0.98132 0.894344
vt 0.989296 0.879943
vt 0.975846 0.9075085
vt 0.966336 0.90399647
vt 0.971079 0.917688
vt 0.961105 0.9152587
vt 0.965785 0.9332427
vt 0.954872 0.9317739
vt 0.963625 0.946398
vt 0.953091 0.9476748
vt 0.962549 0.9569997
vt 0.952199 0.9588353
vt 0.961641 0.9651616
vt 0.951876 0.9664296
vt 0.962012 0.9740124
vt 0.951313 0.9742723
vt 0.940776 0.9684864
vt 0.942133 0.9745315
vt 0.939035 0.9608989
vt 0.93709 0.9495894
vt 0.934794 0.9332972
vt 0.936063 0.9123197
vt 0.956007 0.9149385
vt 0.938965 0.896361
vt 0.959408 0.9009394
vt 0.944372 0.882091
vt 0.96326 0.88853
vt 0.95425 0.866744
vt 0.969962 0.87305903
vt 0.965512 0.85441697
vt 0.97601 0.858911
vt 0.985808 0.841074
vt 0.952001 0.846431
vt 0.945908 0.845761
vt 0.944061 0.86522603
vt 0.947238 0.833014
vt 0.955331 0.832523
vt 0.947515 0.821118
vt 0.957485 0.82015
vt 0.94761 0.806557
vt 0.958323 0.80736697
vt 0.945665 0.794249
vt 0.957693 0.793091
vt 0.945862 0.779905
vt 0.955995 0.778311
vt 0.946621 0.76614404
vt 0.954058 0.765226
vt 0.949778 0.74402404
vt 0.90615 0.794571
vt 0.913153 0.796596
vt 0.913153 0.778287
vt 0.901928 0.81289
vt 0.913153 0.814039
vt 0.913153 0.830661
vt 0.900537 0.831092
vt 0.913153 0.852829
vt 0.900288 0.852929
vt 0.900985 0.872213
vt 0.913153 0.873169
vt 0.900815 0.89023197
vt 0.913153 0.891036
vt 0.900866 0.9078951
vt 0.913153 0.9082316
vt 0.913153 0.9248302
vt 0.901237 0.9256704
vt 0.913153 0.9385139
vt 0.902112 0.9388013
vt 0.913153 0.948082
vt 0.902995 0.9487185
vt 0.913153 0.9563985
vt 0.90366 0.9583154
vt 0.913153 0.9653575
vt 0.904042 0.9672754
vt 0.913153 0.9750883
vt 0.905005 0.9782925
vt 0.926116 0.70408404
vt 0.930205 0.707649
vt 0.930205 0.692055
vt 0.923346 0.71540797
vt 0.930205 0.72098804
vt 0.921562 0.72994
vt 0.930205 0.735228
vt 0.919814 0.74667704
vt 0.930205 0.755195
vt 0.91875 0.764693
vt 0.930205 0.770838
vt 0.918519 0.780851
vt 0.930205 0.788365
vt 0.917556 0.799583
vt 0.930205 0.804848
vt 0.917023 0.816319
vt 0.930205 0.822356
vt 0.917076 0.838946
vt 0.930205 0.843257
vt 0.917076 0.86401796
vt 0.930205 0.868982
vt 0.916845 0.88663
vt 0.930205 0.889042
vt 0.916556 0.907848
vt 0.930205 0.9080613
vt 0.930205 0.92279303
vt 0.917636 0.9239752
vt 0.930205 0.9364993
vt 0.918942 0.9368233
vt 0.918922 0.9509279
vt 0.930205 0.9507091
vt 0.919905 0.9626341
vt 0.930205 0.96409297
vt 0.921523 0.9742433
vt 0.930205 0.9767296
vn -0.7064903 0.45019868 0.5460701
vn -0.70847726 0.43063536 0.5591183
vn -0.7360074 0.33705255 0.58710194
vn -0.6555036 0.58443946 0.47827345
vn -0.6492812 0.5814588 0.4902444
vn -0.5645711 0.6630979 0.49148816
vn -0.5516914 0.6627145 0.5064051
vn -0.42488536 0.7777892 0.4631592
vn -0.44265184 0.78864145 0.4267365
vn -0.13177863 0.8971282 0.42165798
vn -0.12556638 0.9125047 0.38931757
vn 0.28788581 0.8938483 0.34373972
vn 0.27547783 0.9046759 0.32507455
vn 0.68263316 0.69991904 0.21006022
vn 0.66010547 0.7269835 0.18909174
vn 0.87285703 0.4777507 0.09937301
vn 0.8087128 0.5675476 0.15451
vn 0.5758309 0.78257227 0.23664196
vn 0.5660083 0.69023734 0.4507847
vn 0.24641845 0.9253341 0.28815752
vn -0.17297913 0.91176695 0.37250394
vn -0.45673367 0.80563706 0.3772842
vn -0.6106756 0.6522114 0.44910532
vn -0.6060034 0.66611016 0.43480682
vn -0.7207276 0.5389308 0.43601066
vn -0.71641386 0.56515205 0.40908968
vn -0.79860425 0.39607716 0.45316002
vn -0.8006328 0.38120994 0.46224034
vn -0.83816296 0.21498568 0.50126237
vn -0.8480762 0.20071693 0.49038693
vn -0.8779917 0.03554819 0.47735426
vn -0.891803 0.013183957 0.45223176
vn -0.8815442 -0.10097854 0.4611758
vn -0.724728 0.688371 -0.030242879
vn -0.7147349 0.699388 0.003219255
vn -0.6861661 0.7257695 -0.049343348
vn -0.8146812 0.57844484 -0.04118625
vn -0.8224932 0.5685896 -0.014519043
vn -0.85971534 0.47700566 0.1826337
vn -0.8393143 0.47648144 0.26175743
vn -0.8065168 0.32131967 0.49627042
vn -0.7818818 0.32029212 0.5348587
vn -0.7005831 0.05192549 0.7116789
vn -0.6608765 0.03488944 0.7496832
vn -0.47990844 -0.19494875 0.8553846
vn -0.40887848 -0.20861757 0.8884239
vn -0.24820827 -0.2906026 0.92409027
vn -0.20737983 -0.28697836 0.9352203
vn -0.14817396 -0.34597102 0.92647094
vn 0.54993963 0.23433632 0.8016563
vn 0.54562455 0.25244993 0.7991013
vn 0.58109 0.16522864 0.7968902
vn 0.46916237 0.407051 0.78370667
vn 0.47573784 0.41099918 0.7776588
vn 0.33986276 0.567458 0.74998987
vn 0.32960972 0.5736853 0.7498285
vn 0.20505024 0.69866884 0.6854313
vn 0.20643774 0.70198077 0.6816205
vn 0.07387546 0.7738451 0.6290519
vn 0.06616784 0.7705657 0.6339166
vn -0.0350593 0.8015147 0.59694636
vn -0.039033886 0.7981164 0.60123754
vn -0.14094047 0.8158742 0.56078964
vn -0.1321729 0.8196076 0.5574707
vn -0.26402533 0.81199056 0.52054006
vn -0.27241945 0.8098041 0.51962024
vn -0.39757332 0.8054999 0.43943754
vn -0.36464915 0.82889104 0.42422938
vn -0.56582445 0.7747454 0.2821565
vn -0.5485959 0.7931297 0.2645523
vn -0.74474573 0.65024763 0.15010606
vn -0.7862308 0.5975846 0.15726958
vn -0.90321815 0.41663882 0.10299999
vn -0.93945915 0.3163974 0.13156442
vn -0.9750864 0.18838409 0.11712337
vn -0.98159677 0.11255101 0.15427311
vn -0.97295004 -0.22967272 -0.024870284
vn -0.9706087 -0.23323332 -0.05933737
vn -0.97303784 -0.22930084 -0.02486591
vn -0.96983373 -0.19192518 -0.15029061
vn -0.97372466 -0.13735652 -0.18164113
vn -0.9768593 -0.09837901 -0.1899149
vn -0.97599006 -0.100182176 -0.19340883
vn -0.9760217 -0.08013536 -0.2023858
vn -0.98033684 -0.0424857 -0.19270352
vn -0.985544 -0.002340887 -0.16940317
vn -0.98885137 0.013783431 -0.14826645
vn -0.9886706 0.043629427 -0.14362115
vn -0.9899365 0.07780915 -0.11820067
vn -0.9913659 0.105189905 -0.078286454
vn -0.99241745 0.11560958 -0.041735943
vn -0.9873537 0.15730882 -0.019665554
vn -0.97934693 0.201495 0.016709546
vn -0.9586069 0.27330574 0.07985517
vn -0.95045453 0.28866485 0.115363374
vn -0.9104594 0.3834789 0.1549435
vn -0.8889588 0.4264687 0.16696349
vn -0.811063 0.557777 0.17624342
vn -0.7976291 0.5740691 0.18502034
vn -0.6701138 0.7072282 0.225335
vn -0.6645203 0.71122134 0.22929664
vn -0.4473384 0.8488943 0.28154358
vn -0.4500005 0.8417652 0.29821286
vn -0.18859437 0.89986074 0.3932973
vn -0.225906 0.8967738 0.38047755
vn 0.09470806 0.87165487 0.48088259
vn 0.1425939 0.8363371 0.52934617
vn 0.446113 0.71787643 0.53444993
vn 0.50473934 0.6815243 0.52987057
vn 0.62288594 0.63578653 0.45583832
vn 0.6067786 0.6658901 0.4340623
g M_HairOp01_0
f 3/3/3 2/2/2 1/1/1
f 2/2/2 4/4/4 1/1/1
f 1/1/1 4/4/4 5/5/5
f 4/4/4 6/6/6 5/5/5
f 5/5/5 6/6/6 7/7/7
f 6/6/6 8/8/8 7/7/7
f 7/7/7 8/8/8 9/9/9
f 10/10/10 9/9/9 8/8/8
f 11/11/11 9/9/9 10/10/10
f 12/12/12 11/11/11 10/10/10
f 13/13/13 11/11/11 12/12/12
f 14/14/14 13/13/13 12/12/12
f 15/15/15 13/13/13 14/14/14
f 16/16/16 15/15/15 14/14/14
f 17/17/17 15/15/15 16/16/16
f 17/17/17 18/18/18 15/15/15
f 19/19/19 18/18/18 17/17/17
f 20/20/20 15/15/15 18/18/18
f 13/13/13 15/15/15 20/20/20
f 21/21/21 13/13/13 20/20/20
f 11/11/11 13/13/13 21/21/21
f 22/22/22 11/11/11 21/21/21
f 9/9/9 11/11/11 22/22/22
f 23/23/23 9/9/9 22/22/22
f 24/24/24 9/9/9 23/23/23
f 25/25/25 24/24/24 23/23/23
f 26/26/26 24/24/24 25/25/25
f 27/27/27 26/26/26 25/25/25
f 28/28/28 26/26/26 27/27/27
f 29/29/29 28/28/28 27/27/27
f 30/30/30 28/28/28 29/29/29
f 29/29/29 31/31/31 30/30/30
f 30/30/30 31/31/31 32/32/32
f 33/33/33 32/32/32 31/31/31
f 36/36/36 35/35/35 34/34/34
f 34/34/34 35/35/35 37/37/37
f 38/38/38 34/34/34 37/37/37
f 37/37/37 39/39/39 38/38/38
f 38/38/38 39/39/39 40/40/40
f 41/41/41 40/40/40 39/39/39
f 42/42/42 40/40/40 41/41/41
f 41/41/41 43/43/43 42/42/42
f 44/44/44 42/42/42 43/43/43
f 44/44/44 43/43/43 45/45/45
f 46/46/46 44/44/44 45/45/45
f 45/45/45 47/47/47 46/46/46
f 46/46/46 47/47/47 48/48/48
f 49/49/49 48/48/48 47/47/47
f 52/52/52 51/51/51 50/50/50
f 51/51/51 53/53/53 50/50/50
f 54/54/54 53/53/53 51/51/51
f 55/55/55 53/53/53 54/54/54
f 56/56/56 53/53/53 55/55/55
f 55/55/55 57/57/57 56/56/56
f 56/56/56 57/57/57 58/58/58
f 58/58/58 57/57/57 59/59/59
f 59/59/59 57/57/57 60/60/60
f 59/59/59 60/60/60 61/61/61
f 61/61/61 60/60/60 62/62/62
f 61/61/61 62/62/62 63/63/63
f 63/63/63 62/62/62 64/64/64
f 64/64/64 65/65/65 63/63/63
f 63/63/63 65/65/65 66/66/66
f 65/65/65 67/67/67 66/66/66
f 66/66/66 67/67/67 68/68/68
f 69/69/69 68/68/68 67/67/67
f 70/70/70 68/68/68 69/69/69
f 71/71/71 70/70/70 69/69/69
f 72/72/72 70/70/70 71/71/71
f 73/73/73 72/72/72 71/71/71
f 74/74/74 72/72/72 73/73/73
f 75/75/75 74/74/74 73/73/73
f 76/76/76 74/74/74 75/75/75
f 79/79/79 78/78/78 77/77/77
f 77/77/77 78/78/78 80/80/80
f 81/81/81 80/80/80 78/78/78
f 81/81/81 82/82/82 80/80/80
f 81/81/81 83/83/83 82/82/82
f 82/82/82 83/83/83 84/84/84
f 85/85/85 84/84/84 83/83/83
f 85/85/85 86/86/86 84/84/84
f 85/85/85 87/87/87 86/86/86
f 86/86/86 87/87/87 88/88/88
f 89/89/89 88/88/88 87/87/87
f 89/89/89 90/90/90 88/88/88
f 89/89/89 91/91/91 90/90/90
f 90/90/90 91/91/91 92/92/92
f 93/93/93 92/92/92 91/91/91
f 92/92/92 93/93/93 94/94/94
f 94/94/94 93/93/93 95/95/95
f 94/94/94 95/95/95 96/96/96
f 96/96/96 95/95/95 97/97/97
f 96/96/96 97/97/97 98/98/98
f 98/98/98 97/97/97 99/99/99
f 98/98/98 99/99/99 100/100/100
f 100/100/100 99/99/99 101/101/101
f 101/101/101 102/102/102 100/100/100
f 100/100/100 102/102/102 103/103/103
f 102/102/102 104/104/104 103/103/103
f 103/103/103 104/104/104 105/105/105
f 104/104/104 106/106/106 105/105/105
f 107/107/107 106/106/106 104/104/104
f 107/107/107 108/108/108 106/106/106
f 109/109/109 108/108/108 107/107/107
f 109/109/109 110/110/110 108/108/108
f 111/111/111 110/110/110 109/109/109
