g M_HairAho
v 0.008012563 1.7092384 -0.032969706
v 0.01260449 1.7084146 -0.03211672
v 0.014622268 1.7020832 -0.036507048
v 0.010810277 1.7153106 -0.029138187
v 0.008012563 1.7092384 -0.032969706
v 0.005206545 1.7146231 -0.031842347
v 0.0097401785 1.7229817 -0.028338905
v 0.0033591767 1.72176 -0.03280568
v 0.009461863 1.7330208 -0.02998479
v 0.0025450047 1.7314047 -0.0358083
v 0.011050331 1.7418554 -0.03469086
v 0.004618028 1.740893 -0.040998857
v 0.014775461 1.7469134 -0.04061968
v 0.00941098 1.7467942 -0.046831787
v 0.020806212 1.7502431 -0.04902218
v 0.016528342 1.750505 -0.053429443
v 0.02253501 1.7516692 -0.057790697
v 0.025792858 1.7512602 -0.05431829
v 0.027849548 1.7515152 -0.061324466
v 0.030218435 1.75129 -0.05954556
v 0.0366139 1.7494547 -0.06601188
v 0.030218435 1.75129 -0.05954556
v 0.0366139 1.7494547 -0.06601188
v 0.030763885 1.7493172 -0.059360087
v 0.027025875 1.7483075 -0.05556132
v 0.025792858 1.7512602 -0.05431829
v 0.02283365 1.7463635 -0.050783668
v 0.020806212 1.7502431 -0.04902218
v 0.014775461 1.7469134 -0.04061968
v 0.018638456 1.7425255 -0.04535365
v 0.011050331 1.7418554 -0.03469086
v 0.016090436 1.7368917 -0.04041277
v 0.009461863 1.7330208 -0.02998479
v 0.014637781 1.7311543 -0.03727452
v 0.0097401785 1.7229817 -0.028338905
v 0.013955901 1.7223507 -0.03534794
v 0.010810277 1.7153106 -0.029138187
v 0.0142176915 1.7148944 -0.035155017
v 0.01260449 1.7084146 -0.03211672
v 0.014161754 1.7086564 -0.03569481
v 0.014622268 1.7020832 -0.036507048
vt 0.0185336 0.859385
vt 0.0272075 0.857036
vt 0.0283316 0.841645
vt 0.0267296 0.870384
vt 0.0185336 0.859385
vt 0.0159426 0.871311
vt 0.0283385 0.88211703
vt 0.0158065 0.88454
vt 0.0319915 0.896417
vt 0.0185466 0.9010184
vt 0.0373086 0.9096504
vt 0.0255685 0.9176454
vt 0.0447186 0.9199704
vt 0.0359716 0.9309244
vt 0.0575775 0.9337713
vt 0.0504306 0.9430813
vt 0.0628645 0.9515884
vt 0.0690135 0.9434034
vt 0.0755055 0.9594074
vt 0.0807915 0.9547693
vt 0.0975135 0.9693184
vt 0.0807915 0.9547693
vt 0.0975135 0.9693184
vt 0.0849055 0.9521653
vt 0.0764295 0.9407214
vt 0.0690135 0.9434034
vt 0.0656975 0.9294794
vt 0.0575775 0.9337713
vt 0.0447186 0.9199704
vt 0.0574025 0.9170524
vt 0.0373086 0.9096504
vt 0.0509835 0.9044724
vt 0.0319915 0.896417
vt 0.0462806 0.893536
vt 0.0283385 0.88211703
vt 0.0417035 0.878858
vt 0.0267296 0.870384
vt 0.0382805 0.865501
vt 0.0272075 0.857036
vt 0.0341576 0.853497
vt 0.0283316 0.841645
vn -0.2826517 -0.46591607 0.83846897
vn -0.24634476 -0.5393755 0.80522573
vn -0.24900363 -0.60422105 0.7569109
vn -0.37812716 -0.30360013 0.87455523
vn -0.28397506 -0.5036582 0.8158963
vn -0.45462 -0.24562399 0.85614806
vn -0.564133 -9.85694E-05 0.82568395
vn -0.61496705 0.0431169 0.7873731
vn -0.65550804 0.29465201 0.6953341
vn -0.673678 0.315861 0.668124
vn -0.59598964 0.62504065 0.5041037
vn -0.5859069 0.64826894 0.48627198
vn -0.24204494 0.95036376 0.19550696
vn -0.09136856 0.99516356 0.036074482
vn 0.14675099 0.9819198 -0.11957297
vn 0.11297896 0.98138857 -0.15528093
vn 0.15927806 0.96917635 -0.18795708
vn 0.18493806 0.9695022 -0.16082107
vn 0.19820507 0.9564844 -0.21413209
vn 0.21631594 0.95550567 -0.20053996
vn 0.26134196 0.93271995 -0.24846298
vn 0.719028 0.189672 0.668598
vn 0.73441297 0.23351598 0.637266
vn 0.7045432 0.22688507 0.67241514
vn 0.7574303 0.031115407 0.6521742
vn 0.7570301 0.012085502 0.6532681
vn 0.7656341 0.04081631 0.6419801
vn 0.77419907 0.07966901 0.6279081
vn 0.81552386 0.056631595 0.575946
vn 0.80778545 0.03638388 0.58835256
vn 0.8213156 0.12374694 0.5568908
vn 0.823114 0.120952 0.5548459
vn 0.8342859 0.11032499 0.540181
vn 0.84582293 0.07592629 0.528033
vn 0.8632569 0.0631436 0.50079995
vn 0.8750239 0.037911296 0.4825929
vn 0.88041866 0.030845584 0.47319278
vn 0.8935837 0.006884578 0.44884387
vn 0.9138669 -0.013724797 0.40578192
vn 0.9271928 -0.020720394 0.37401095
vn 0.9267104 0.0073149637 0.37570518
g M_HairAho_0
f 3/3/3 2/2/2 1/1/1
f 5/5/5 2/2/2 4/4/4
f 6/6/6 5/5/5 4/4/4
f 4/4/4 7/7/7 6/6/6
f 6/6/6 7/7/7 8/8/8
f 7/7/7 9/9/9 8/8/8
f 8/8/8 9/9/9 10/10/10
f 11/11/11 10/10/10 9/9/9
f 12/12/12 10/10/10 11/11/11
f 11/11/11 13/13/13 12/12/12
f 12/12/12 13/13/13 14/14/14
f 15/15/15 14/14/14 13/13/13
f 16/16/16 14/14/14 15/15/15
f 15/15/15 17/17/17 16/16/16
f 15/15/15 18/18/18 17/17/17
f 19/19/19 17/17/17 18/18/18
f 19/19/19 18/18/18 20/20/20
f 19/19/19 20/20/20 21/21/21
f 24/24/24 23/23/23 22/22/22
f 22/22/22 25/25/25 24/24/24
f 22/22/22 26/26/26 25/25/25
f 27/27/27 25/25/25 26/26/26
f 27/27/27 26/26/26 28/28/28
f 28/28/28 29/29/29 27/27/27
f 27/27/27 29/29/29 30/30/30
f 31/31/31 30/30/30 29/29/29
f 32/32/32 30/30/30 31/31/31
f 31/31/31 33/33/33 32/32/32
f 32/32/32 33/33/33 34/34/34
f 35/35/35 34/34/34 33/33/33
f 36/36/36 34/34/34 35/35/35
f 37/37/37 36/36/36 35/35/35
f 38/38/38 36/36/36 37/37/37
f 37/37/37 39/39/39 38/38/38
f 39/39/39 40/40/40 38/38/38
f 41/41/41 40/40/40 39/39/39
