g M_HairTL03
v -0.00080669404 1.6433301 -0.12785788
v -0.0081830975 1.6567096 -0.12637363
v -0.0046014786 1.6586225 -0.12654075
v -0.0068531036 1.6670626 -0.12928529
v -0.012644114 1.6651821 -0.1304533
v -0.010104179 1.6756746 -0.13591099
v -0.017285882 1.6717912 -0.13620754
v -0.014419784 1.6803776 -0.14554816
v -0.022325935 1.675147 -0.14318916
v -0.027510485 1.675231 -0.15344493
v -0.020415954 1.682173 -0.1566713
v -0.03369373 1.6723809 -0.16407561
v -0.026835594 1.6790723 -0.16889895
v -0.032609556 1.6736562 -0.18037727
v -0.039688606 1.6667409 -0.17470016
v -0.03903119 1.6621865 -0.19484626
v -0.04552679 1.6561724 -0.18707363
v -0.051830653 1.6358839 -0.20079464
v -0.044235695 1.6415043 -0.21091162
v -0.04734394 1.6193957 -0.22390811
v -0.05711506 1.6145853 -0.21375415
v -0.060373515 1.5887189 -0.22715789
v -0.05067867 1.5951595 -0.23746634
v -0.062427558 1.563437 -0.23920383
v -0.05238716 1.5687495 -0.25074065
v -0.062409494 1.5380478 -0.24971855
v -0.051768836 1.5432676 -0.2608663
v -0.061661895 1.5140818 -0.25911406
v -0.048787918 1.5172225 -0.26933852
v -0.05653542 1.4882963 -0.26802942
v -0.043855336 1.4917916 -0.2772404
v -0.05079805 1.4599192 -0.27890402
v -0.03586848 1.4664047 -0.28492743
v -0.02640928 1.4399927 -0.29481548
v -0.04277252 1.4326472 -0.29088196
v -0.03345972 1.4088116 -0.3020001
v -0.013293639 1.4104868 -0.30487546
v -0.016436959 1.3735762 -0.3209157
v 0.0058314893 1.3768399 -0.3181608
v -0.00015441896 1.3468066 -0.33408758
v 0.020757293 1.3499893 -0.32931328
v 0.013663787 1.3218942 -0.34716827
v 0.033983555 1.3233471 -0.3385186
v 0.02743641 1.2943472 -0.3611288
v 0.04787548 1.2943283 -0.34869388
v 0.0369876 1.2704792 -0.37392277
v 0.057421226 1.2652731 -0.359194
v 0.04733639 1.2375431 -0.39133185
v 0.06542614 1.2317923 -0.37126616
v 0.053922042 1.2045295 -0.40651226
v 0.070327185 1.1952596 -0.38460982
v 0.054918572 1.1718453 -0.42050764
v 0.07033464 1.1630182 -0.39633575
v 0.06635339 1.1268623 -0.4067908
v 0.049380455 1.1366689 -0.42757514
v 0.057216447 1.0971646 -0.41125578
v 0.04197054 1.1039333 -0.4316663
v 0.045753114 1.0731426 -0.41414896
v 0.030211143 1.0785334 -0.43005905
v 0.032368794 1.0549585 -0.4138568
v 0.020471582 1.061807 -0.42720836
v 0.010816774 1.0417413 -0.41174823
v 0.0065137064 1.046152 -0.42131913
v -0.012904548 1.0302368 -0.40902486
v -0.0016468676 1.6279562 -0.13687727
v -0.0072223353 1.6301254 -0.13510366
v -0.0006491671 1.6361074 -0.12661752
v -0.0016789737 1.6269462 -0.13784894
v -0.008295029 1.6277598 -0.13641901
v -0.0018756374 1.6247603 -0.13908564
v -0.009336548 1.6252859 -0.13766837
v -0.0022226837 1.621554 -0.13959646
v -0.010904884 1.6217933 -0.13895115
v -0.0026722832 1.618139 -0.14011617
v -0.013226127 1.617663 -0.14048174
v -0.0034651365 1.6120371 -0.1412265
v -0.015049209 1.6114129 -0.14232448
v -0.0181468 1.5979513 -0.14501786
v -0.005001727 1.5984722 -0.14173433
v -0.007729174 1.5796783 -0.14265542
v -0.022140656 1.5817252 -0.14695626
v -0.013726494 1.543534 -0.14458086
v -0.027269246 1.5441856 -0.15132748
v -0.028588135 1.5181749 -0.15403533
v -0.01529207 1.5170605 -0.14588517
v -0.027931064 1.4941248 -0.15803602
v -0.013340112 1.4940557 -0.1481094
v -0.022678657 1.4631838 -0.16585787
v -0.008762843 1.4639431 -0.15301074
v -0.014280281 1.4362811 -0.1736002
v 0.0003119656 1.4361122 -0.16132055
v -0.0009674263 1.4064234 -0.18317294
v 0.013371429 1.4100224 -0.17346683
v 0.0134374965 1.3799634 -0.19156566
v 0.02932044 1.3826551 -0.18552761
v 0.027220514 1.3448262 -0.20072319
v 0.044343386 1.3478502 -0.19904697
v 0.034644473 1.3143895 -0.21028873
v 0.05283703 1.3171152 -0.21426167
v 0.057520825 1.2876534 -0.2269403
v 0.038465966 1.2853055 -0.21827646
v 0.058322225 1.2541481 -0.23643282
v 0.040294774 1.2528582 -0.22163455
v 0.058189392 1.2230319 -0.23904201
v 0.040956944 1.2214943 -0.2201682
v 0.053463854 1.187325 -0.23662291
v 0.03755289 1.1861691 -0.21575917
v 0.047263883 1.1562593 -0.23455903
v 0.033087745 1.1602211 -0.2132497
v 0.040184606 1.1326452 -0.23493324
v 0.02522045 1.1369481 -0.21303125
v 0.028108489 1.1070101 -0.23571493
v 0.014668769 1.1127902 -0.21378629
v -0.0007641029 1.0853877 -0.2165048
v 0.007791767 1.0800924 -0.23837571
v -0.021398032 1.0620997 -0.2213301
v -0.014498508 1.0606908 -0.2429899
v -0.037182312 1.050668 -0.22857782
v -0.030146437 1.0476736 -0.24689487
v -0.051195573 1.041562 -0.23698436
v -0.045006484 1.0383066 -0.2521328
v -0.06116985 1.0331051 -0.24652703
v -0.055989645 1.0305885 -0.25671765
v -0.07624709 1.0223873 -0.26429912
v 0.058287203 1.2938355 -0.17877433
v 0.055636168 1.2911814 -0.18700866
v 0.042686824 1.2725548 -0.16762945
v 0.064754926 1.3104565 -0.1997718
v 0.067606844 1.3131318 -0.18762104
v 0.0697672 1.3261249 -0.2080585
v 0.07428033 1.3284885 -0.19478643
v 0.0746041 1.3415263 -0.2171087
v 0.0790631 1.3445995 -0.20142311
v 0.08408658 1.3651217 -0.20972063
v 0.07871062 1.36328 -0.22788452
v 0.08862379 1.3900526 -0.2190407
v 0.07981239 1.3880099 -0.23765513
v 0.09022052 1.4152652 -0.22758636
v 0.080110624 1.4165508 -0.24779785
v 0.09055039 1.4436307 -0.23500071
v 0.078817554 1.441396 -0.2531388
v 0.08641666 1.4778811 -0.2412239
v 0.07309774 1.4790324 -0.25897372
v 0.07871408 1.5156661 -0.24558501
v 0.06431461 1.5139855 -0.25903842
v 0.069255754 1.54798 -0.24360466
v 0.055118978 1.5449301 -0.25588095
v 0.05602605 1.5836694 -0.23874876
v 0.043368563 1.5795317 -0.246909
v 0.046330314 1.6061375 -0.2318006
v 0.03256274 1.6036434 -0.23865014
v 0.037674204 1.6255022 -0.22450858
v 0.022532983 1.6227251 -0.22953922
v 0.026921138 1.6461102 -0.21199065
v 0.013449051 1.642953 -0.21689057
v 0.02013801 1.6595492 -0.20315574
v 0.00837868 1.6559258 -0.20636362
v 0.014725531 1.6693827 -0.19281526
v 0.003159565 1.6672565 -0.19420893
v -0.0013491751 1.6769558 -0.18185441
v 0.009786059 1.6787962 -0.17997526
v 0.006880739 1.6831256 -0.17016861
v -0.0029149752 1.6814551 -0.1710452
v -0.0031843185 1.682952 -0.16360757
v 0.005140686 1.6844324 -0.16160873
v 0.004384842 1.6849862 -0.15412723
v -0.003106823 1.6838316 -0.15519926
v -0.0018117523 1.6821806 -0.14464708
v 0.0030889343 1.6825649 -0.14473237
v 0.0025109863 1.6774684 -0.13584563
v -0.0017958832 1.6767154 -0.13569726
v 0.0020926285 1.6696578 -0.13100782
v -0.0014279174 1.6701155 -0.13060243
v -0.0004080963 1.6566737 -0.12693919
v 0.0023004722 1.656195 -0.12710972
v 0.00026251792 1.6474464 -0.12729286
vt 0.840945 0.380031
vt 0.840945 0.372324
vt 0.832673 0.372622
vt 0.829854 0.368302
vt 0.840945 0.36768198
vt 0.82963 0.36364597
vt 0.840945 0.363118
vt 0.826848 0.359609
vt 0.840945 0.35882598
vt 0.840945 0.35425597
vt 0.82662 0.35469598
vt 0.840945 0.348301
vt 0.826742 0.348543
vt 0.827236 0.343006
vt 0.840945 0.34268302
vt 0.826906 0.335711
vt 0.840945 0.33494103
vt 0.840945 0.323987
vt 0.823784 0.32447797
vt 0.820046 0.31320602
vt 0.840945 0.313079
vt 0.840945 0.299936
vt 0.820208 0.30098498
vt 0.840945 0.28762197
vt 0.818653 0.28779602
vt 0.840945 0.27540803
vt 0.81847 0.27554798
vt 0.840945 0.26401
vt 0.817548 0.263255
vt 0.840945 0.25190598
vt 0.815377 0.25100398
vt 0.840945 0.23839301
vt 0.815892 0.238181
vt 0.817486 0.22431803
vt 0.840945 0.22467601
vt 0.840945 0.21245301
vt 0.818802 0.20926899
vt 0.840945 0.19313103
vt 0.821102 0.19092101
vt 0.840945 0.17815799
vt 0.819507 0.17528898
vt 0.840945 0.16452003
vt 0.821125 0.162768
vt 0.840945 0.14885098
vt 0.818256 0.14911401
vt 0.840945 0.13679701
vt 0.815162 0.13439399
vt 0.840945 0.12000197
vt 0.814845 0.11907798
vt 0.840945 0.10396999
vt 0.811427 0.10313803
vt 0.840945 0.088979006
vt 0.815206 0.089317024
vt 0.815684 0.073122025
vt 0.840945 0.07317001
vt 0.815501 0.058879018
vt 0.840945 0.058284998
vt 0.814604 0.04702401
vt 0.840945 0.04619497
vt 0.818828 0.038106024
vt 0.840945 0.036756992
vt 0.828113 0.027490973
vt 0.840945 0.027274013
vt 0.840945 0.015402973
vt 0.336736 0.312603
vt 0.326234 0.31360602
vt 0.336736 0.31840903
vt 0.336736 0.31198502
vt 0.324555 0.31230098
vt 0.336736 0.310875
vt 0.323234 0.310965
vt 0.336736 0.309439
vt 0.321251 0.30922598
vt 0.336736 0.307907
vt 0.318019 0.307191
vt 0.336736 0.305161
vt 0.315916 0.30426002
vt 0.312862 0.29805
vt 0.336736 0.29917598
vt 0.336736 0.290945
vt 0.311786 0.29054397
vt 0.336736 0.275199
vt 0.310802 0.274485
vt 0.311576 0.26367998
vt 0.336736 0.26373702
vt 0.311125 0.253636
vt 0.336736 0.25364602
vt 0.313181 0.239914
vt 0.336736 0.23974103
vt 0.312252 0.22784603
vt 0.336736 0.22645801
vt 0.31573 0.21356499
vt 0.336736 0.21233702
vt 0.308918 0.20025098
vt 0.336736 0.19791502
vt 0.309441 0.18165499
vt 0.336736 0.17953998
vt 0.306826 0.16639298
vt 0.336736 0.16567999
vt 0.336736 0.152408
vt 0.307138 0.15206599
vt 0.336736 0.136926
vt 0.306642 0.136828
vt 0.336736 0.123429
vt 0.306887 0.12256497
vt 0.336736 0.108021975
vt 0.305793 0.106875
vt 0.336736 0.094618976
vt 0.309546 0.092797995
vt 0.336736 0.084675014
vt 0.310298 0.08401501
vt 0.336736 0.07364398
vt 0.311166 0.07387698
vt 0.315125 0.05827999
vt 0.336736 0.060112
vt 0.317842 0.044404984
vt 0.336736 0.045382023
vt 0.31914 0.034910023
vt 0.336736 0.037096024
vt 0.322833 0.028274
vt 0.336736 0.029160976
vt 0.328289 0.023231983
vt 0.336736 0.023525
vt 0.336736 0.017655015
vt 0.968639 0.693908
vt 0.985368 0.694238
vt 0.985368 0.679107
vt 0.985368 0.706182
vt 0.962803 0.704944
vt 0.985368 0.715203
vt 0.962177 0.713537
vt 0.985368 0.723709
vt 0.961951 0.722592
vt 0.959476 0.733289
vt 0.985368 0.73557997
vt 0.957312 0.747067
vt 0.985368 0.74925697
vt 0.958269 0.760382
vt 0.985368 0.763597
vt 0.960866 0.77420497
vt 0.985368 0.775636
vt 0.960127 0.792126
vt 0.985368 0.794497
vt 0.961245 0.811123
vt 0.985368 0.81196797
vt 0.962469 0.827675
vt 0.985368 0.82750297
vt 0.962962 0.846662
vt 0.985368 0.846544
vt 0.96383 0.859156
vt 0.985368 0.859658
vt 0.964909 0.870087
vt 0.985368 0.87091804
vt 0.964147 0.883024
vt 0.985368 0.88319
vt 0.965473 0.891819
vt 0.985368 0.891521
vt 0.967002 0.899761
vt 0.985368 0.899952
vt 0.985368 0.9079137
vt 0.967209 0.907874
vt 0.968326 0.913427
vt 0.985368 0.9136759
vt 0.985368 0.9173665
vt 0.970757 0.9181753
vt 0.972306 0.921825
vt 0.985368 0.921477
vt 0.985368 0.9267376
vt 0.973663 0.9267894
vt 0.975209 0.9316404
vt 0.985368 0.931871
vt 0.976976 0.9361976
vt 0.985368 0.9359561
vt 0.985368 0.9428644
vt 0.978929 0.9431777
vt 0.985368 0.9474494
vn 0.08137207 -0.06546583 0.9945314
vn -0.04660476 0.11342777 0.99245256
vn -0.027043294 0.13713582 0.99018306
vn -0.28161547 0.3919922 0.87580526
vn -0.30271593 0.415836 0.85757995
vn -0.3682529 0.62063193 0.6922469
vn -0.34800017 0.6432107 0.682038
vn -0.4419329 0.7755528 0.45079166
vn -0.41243303 0.81075895 0.41541412
vn -0.58942074 0.766209 0.25594327
vn -0.5923081 0.75028396 0.2936754
vn -0.6722622 0.7362447 0.077505924
vn -0.66646934 0.74116606 0.08056942
vn -0.72569144 0.6843182 -0.071277685
vn -0.7346541 0.67259425 -0.0888835
vn -0.79505 0.5541917 -0.24650949
vn -0.8015646 0.54340684 -0.24940565
vn -0.8088266 0.43648303 -0.39405847
vn -0.82230693 0.419912 -0.38403794
vn -0.7645527 0.41112113 -0.49642578
vn -0.744392 0.42514223 -0.5149124
vn -0.7772201 0.34772056 -0.5244228
vn -0.7816436 0.35387293 -0.51362157
vn -0.78417 0.27743036 -0.5550765
vn -0.7797326 0.277092 -0.5614598
vn -0.7601456 0.22423093 -0.6098354
vn -0.7359181 0.21444964 -0.64221174
vn -0.6603802 0.16414477 -0.7327717
vn -0.6318927 0.15071356 -0.7602612
vn -0.61338514 0.14965056 -0.77547616
vn -0.5774081 0.14668845 -0.80317014
vn -0.4453368 0.18460193 -0.8761263
vn -0.42759734 0.15762809 -0.89012015
vn -0.3235123 0.26458085 -0.90848047
vn -0.34382686 0.28716797 -0.89404565
vn -0.19585565 0.3197973 -0.92702216
vn -0.12308954 0.34946612 -0.9288284
vn 0.015428808 0.42501783 -0.90505344
vn 0.06706571 0.4309074 -0.8999005
vn 0.10758327 0.4766373 -0.87249225
vn 0.17030512 0.47063243 -0.86573744
vn 0.26821476 0.5067832 -0.8192873
vn 0.34302157 0.4911602 -0.80068576
vn 0.4151988 0.5292433 -0.7399401
vn 0.48590046 0.4940865 -0.7209572
vn 0.55614847 0.50086045 -0.66320264
vn 0.6259944 0.45378134 -0.634203
vn 0.70899695 0.41667658 -0.5689499
vn 0.75699645 0.36557242 -0.541584
vn 0.8066464 0.29049432 -0.51471806
vn 0.8311011 0.2503196 -0.49659935
vn 0.8362219 0.122210085 -0.5346006
vn 0.8561324 0.11663147 -0.50342256
vn 0.77665275 -0.052716225 -0.6277192
vn 0.76867044 -0.051188223 -0.63759357
vn 0.7474922 -0.18837003 -0.63700247
vn 0.73567176 -0.19849159 -0.6476019
vn 0.6278645 -0.3600835 -0.69001895
vn 0.58813506 -0.3843224 -0.71161324
vn 0.47224918 -0.5453938 -0.6924784
vn 0.47967273 -0.5566954 -0.67823625
vn 0.3886771 -0.733216 -0.55796456
vn 0.4436421 -0.7213149 -0.53187084
vn 0.32629707 -0.7941584 -0.5126817
vn -0.06334728 -0.7242378 0.68663436
vn -0.00055184716 -0.67008847 0.74228114
vn -0.102348566 -0.77398664 0.62487555
vn 0.0736037 -0.56560224 0.82138705
vn 0.12377845 -0.50555867 0.85386735
vn 0.15163966 -0.33556196 0.9297331
vn 0.103785634 -0.39745167 0.91173494
vn 0.10638417 -0.19688341 0.974638
vn 0.022003282 -0.32883248 0.9441319
vn 0.013506997 -0.1948948 0.98073125
vn -0.04615381 -0.27232134 0.96109885
vn -0.09689346 -0.15624125 0.9829549
vn -0.08099847 -0.21052404 0.97422737
vn -0.2266528 -0.04914897 0.9727348
vn -0.24194102 -0.010482756 0.97023433
vn -0.27821028 -0.016800256 0.9603733
vn -0.31002662 -0.027107578 0.95034134
vn -0.44122493 -0.041468285 0.89643794
vn -0.447379 -0.05732706 0.8925053
vn -0.51340467 -0.09263173 0.8531324
vn -0.5324237 -0.078959905 0.84278727
vn -0.54421073 -0.21639206 0.81056094
vn -0.570826 -0.19878724 0.7966438
vn -0.61762404 -0.31910828 0.71882576
vn -0.6337301 -0.30580425 0.71054196
vn -0.5869113 -0.43203068 0.68475145
vn -0.55297214 -0.4504876 0.7009156
vn -0.4283219 -0.49534872 0.75575787
vn -0.36570686 -0.5113553 0.77767235
vn -0.2850688 -0.42804247 0.85762197
vn -0.22444053 -0.42251506 0.8781272
vn -0.065537155 -0.33969963 0.9382478
vn 0.018254654 -0.35075346 0.9362899
vn 0.23958956 -0.3276072 0.9139312
vn 0.25020364 -0.35984668 0.89883727
vn 0.3977502 -0.24200858 0.88500094
vn 0.4671807 -0.17744571 0.8661727
vn 0.60239536 -0.09095926 0.7929983
vn 0.65932864 -0.030711142 0.7512274
vn 0.71781814 -0.02417363 0.69581085
vn 0.750936 0.0038102104 0.66036403
vn 0.7835247 -0.06364365 0.6180927
vn 0.8023218 -0.059871733 0.5938814
vn 0.79892683 -0.17376518 0.5757791
vn 0.8032235 -0.17097057 0.5706147
vn 0.75913924 -0.30620393 0.5744099
vn 0.75999707 -0.30782956 0.5724033
vn 0.72914845 -0.42983842 0.53252363
vn 0.7310998 -0.39918998 0.55329967
vn 0.67763513 -0.58639395 0.44379357
vn 0.66949886 -0.6382033 0.38008913
vn 0.57061577 -0.775919 0.2689746
vn 0.5699076 -0.77978384 0.25911862
vn 0.4695012 -0.83642477 0.28277597
vn 0.4760948 -0.815521 0.32902762
vn 0.39750677 -0.8565091 0.32921192
vn 0.40352437 -0.8409815 0.36044168
vn 0.34129888 -0.8661526 0.36509565
vn 0.3223385 -0.86780727 0.37816453
vn 0.23827149 -0.90774405 0.3452933
vn 0.83229744 -0.54743683 -0.08714218
vn 0.8348589 -0.54238576 -0.09395903
vn 0.7904421 -0.60979104 -0.05793284
vn 0.9020675 -0.41357583 -0.1234073
vn 0.88659 -0.44320723 -0.13238369
vn 0.8839705 -0.41931784 -0.20680581
vn 0.8782495 -0.4298992 -0.20943874
vn 0.9173774 -0.33502674 -0.21488585
vn 0.9224583 -0.33193958 -0.1971972
vn 0.9288855 -0.28415313 -0.23754722
vn 0.922464 -0.2615402 -0.2840019
vn 0.9049003 -0.21045184 -0.36995316
vn 0.8905221 -0.18958761 -0.41355386
vn 0.88434255 -0.15785398 -0.4393409
vn 0.8721203 -0.13055442 -0.47155252
vn 0.85275155 -0.050721902 -0.5198481
vn 0.83430356 -0.027098645 -0.5506389
vn 0.8080157 0.051278085 -0.58692527
vn 0.7796007 0.07894162 -0.6212817
vn 0.683818 0.18534316 -0.7057201
vn 0.64824957 0.20541614 -0.7331962
vn 0.60077673 0.28281227 -0.7477195
vn 0.57387984 0.29189882 -0.7651516
vn 0.42959234 0.38631487 -0.8162177
vn 0.39739546 0.39123115 -0.8300693
vn 0.3415041 0.444331 -0.8282179
vn 0.30375817 0.4577366 -0.8355886
vn 0.20443931 0.5278511 -0.8243651
vn 0.17384607 0.5401268 -0.8234322
vn 0.15391281 0.5836414 -0.7972914
vn 0.12766051 0.59238595 -0.7954758
vn 0.02208005 0.66954166 -0.7424463
vn -0.009776757 0.6747642 -0.73796856
vn -0.046671994 0.74967355 -0.66015995
vn -0.05802574 0.7485626 -0.66052026
vn -0.07151331 0.85378003 -0.51569915
vn -0.05408299 0.85459363 -0.5164735
vn -0.11861007 0.9442986 -0.3069718
vn -0.13377838 0.94354737 -0.30302104
vn -0.1424446 0.978438 -0.14956121
vn -0.14339527 0.9811716 -0.12938382
vn -0.14732955 0.9878286 0.049885016
vn -0.15480924 0.98778105 0.01796112
vn -0.09730457 0.92834306 0.35876313
vn -0.06674079 0.93096757 0.35895002
vn -0.09273113 0.730196 0.6769155
vn -0.06715025 0.7049738 0.7060473
vn 0.12248606 0.43113723 0.89393395
vn 0.16042797 0.46108887 0.8727313
vn 0.09106657 0.14689377 0.9849513
vn 0.08305763 0.117459185 0.9895983
vn 0.05678719 -0.034116324 0.9978033
g M_HairTL03_0
f 3/3/3 2/2/2 1/1/1
f 3/3/3 4/4/4 2/2/2
f 2/2/2 4/4/4 5/5/5
f 4/4/4 6/6/6 5/5/5
f 5/5/5 6/6/6 7/7/7
f 6/6/6 8/8/8 7/7/7
f 8/8/8 9/9/9 7/7/7
f 10/10/10 9/9/9 8/8/8
f 10/10/10 8/8/8 11/11/11
f 10/10/10 11/11/11 12/12/12
f 12/12/12 11/11/11 13/13/13
f 13/13/13 14/14/14 12/12/12
f 14/14/14 15/15/15 12/12/12
f 14/14/14 16/16/16 15/15/15
f 17/17/17 15/15/15 16/16/16
f 16/16/16 18/18/18 17/17/17
f 19/19/19 18/18/18 16/16/16
f 19/19/19 20/20/20 18/18/18
f 21/21/21 18/18/18 20/20/20
f 20/20/20 22/22/22 21/21/21
f 20/20/20 23/23/23 22/22/22
f 24/24/24 22/22/22 23/23/23
f 24/24/24 23/23/23 25/25/25
f 25/25/25 26/26/26 24/24/24
f 25/25/25 27/27/27 26/26/26
f 28/28/28 26/26/26 27/27/27
f 28/28/28 27/27/27 29/29/29
f 29/29/29 30/30/30 28/28/28
f 29/29/29 31/31/31 30/30/30
f 32/32/32 30/30/30 31/31/31
f 32/32/32 31/31/31 33/33/33
f 33/33/33 34/34/34 32/32/32
f 32/32/32 34/34/34 35/35/35
f 35/35/35 34/34/34 36/36/36
f 37/37/37 36/36/36 34/34/34
f 36/36/36 37/37/37 38/38/38
f 39/39/39 38/38/38 37/37/37
f 39/39/39 40/40/40 38/38/38
f 39/39/39 41/41/41 40/40/40
f 42/42/42 40/40/40 41/41/41
f 42/42/42 41/41/41 43/43/43
f 43/43/43 44/44/44 42/42/42
f 43/43/43 45/45/45 44/44/44
f 46/46/46 44/44/44 45/45/45
f 46/46/46 45/45/45 47/47/47
f 46/46/46 47/47/47 48/48/48
f 49/49/49 48/48/48 47/47/47
f 48/48/48 49/49/49 50/50/50
f 51/51/51 50/50/50 49/49/49
f 50/50/50 51/51/51 52/52/52
f 53/53/53 52/52/52 51/51/51
f 53/53/53 54/54/54 52/52/52
f 55/55/55 52/52/52 54/54/54
f 56/56/56 55/55/55 54/54/54
f 57/57/57 55/55/55 56/56/56
f 56/56/56 58/58/58 57/57/57
f 57/57/57 58/58/58 59/59/59
f 60/60/60 59/59/59 58/58/58
f 61/61/61 59/59/59 60/60/60
f 60/60/60 62/62/62 61/61/61
f 62/62/62 63/63/63 61/61/61
f 64/64/64 63/63/63 62/62/62
f 67/67/67 66/66/66 65/65/65
f 66/66/66 68/68/68 65/65/65
f 69/69/69 68/68/68 66/66/66
f 69/69/69 70/70/70 68/68/68
f 71/71/71 70/70/70 69/69/69
f 71/71/71 72/72/72 70/70/70
f 73/73/73 72/72/72 71/71/71
f 73/73/73 74/74/74 72/72/72
f 75/75/75 74/74/74 73/73/73
f 75/75/75 76/76/76 74/74/74
f 77/77/77 76/76/76 75/75/75
f 78/78/78 76/76/76 77/77/77
f 79/79/79 76/76/76 78/78/78
f 78/78/78 80/80/80 79/79/79
f 81/81/81 80/80/80 78/78/78
f 80/80/80 81/81/81 82/82/82
f 82/82/82 81/81/81 83/83/83
f 83/83/83 84/84/84 82/82/82
f 82/82/82 84/84/84 85/85/85
f 86/86/86 85/85/85 84/84/84
f 87/87/87 85/85/85 86/86/86
f 86/86/86 88/88/88 87/87/87
f 87/87/87 88/88/88 89/89/89
f 90/90/90 89/89/89 88/88/88
f 91/91/91 89/89/89 90/90/90
f 90/90/90 92/92/92 91/91/91
f 91/91/91 92/92/92 93/93/93
f 94/94/94 93/93/93 92/92/92
f 95/95/95 93/93/93 94/94/94
f 94/94/94 96/96/96 95/95/95
f 95/95/95 96/96/96 97/97/97
f 96/96/96 98/98/98 97/97/97
f 99/99/99 97/97/97 98/98/98
f 100/100/100 99/99/99 98/98/98
f 100/100/100 98/98/98 101/101/101
f 100/100/100 101/101/101 102/102/102
f 103/103/103 102/102/102 101/101/101
f 102/102/102 103/103/103 104/104/104
f 105/105/105 104/104/104 103/103/103
f 105/105/105 106/106/106 104/104/104
f 105/105/105 107/107/107 106/106/106
f 108/108/108 106/106/106 107/107/107
f 108/108/108 107/107/107 109/109/109
f 109/109/109 110/110/110 108/108/108
f 109/109/109 111/111/111 110/110/110
f 112/112/112 110/110/110 111/111/111
f 112/112/112 111/111/111 113/113/113
f 113/113/113 114/114/114 112/112/112
f 112/112/112 114/114/114 115/115/115
f 116/116/116 115/115/115 114/114/114
f 117/117/117 115/115/115 116/116/116
f 116/116/116 118/118/118 117/117/117
f 117/117/117 118/118/118 119/119/119
f 120/120/120 119/119/119 118/118/118
f 121/121/121 119/119/119 120/120/120
f 120/120/120 122/122/122 121/121/121
f 122/122/122 123/123/123 121/121/121
f 124/124/124 123/123/123 122/122/122
f 127/127/127 126/126/126 125/125/125
f 125/125/125 126/126/126 128/128/128
f 129/129/129 125/125/125 128/128/128
f 128/128/128 130/130/130 129/129/129
f 129/129/129 130/130/130 131/131/131
f 132/132/132 131/131/131 130/130/130
f 133/133/133 131/131/131 132/132/132
f 132/132/132 134/134/134 133/133/133
f 132/132/132 135/135/135 134/134/134
f 136/136/136 134/134/134 135/135/135
f 136/136/136 135/135/135 137/137/137
f 137/137/137 138/138/138 136/136/136
f 137/137/137 139/139/139 138/138/138
f 140/140/140 138/138/138 139/139/139
f 140/140/140 139/139/139 141/141/141
f 141/141/141 142/142/142 140/140/140
f 141/141/141 143/143/143 142/142/142
f 144/144/144 142/142/142 143/143/143
f 144/144/144 143/143/143 145/145/145
f 144/144/144 145/145/145 146/146/146
f 147/147/147 146/146/146 145/145/145
f 146/146/146 147/147/147 148/148/148
f 149/149/149 148/148/148 147/147/147
f 149/149/149 150/150/150 148/148/148
f 149/149/149 151/151/151 150/150/150
f 152/152/152 150/150/150 151/151/151
f 152/152/152 151/151/151 153/153/153
f 152/152/152 153/153/153 154/154/154
f 155/155/155 154/154/154 153/153/153
f 154/154/154 155/155/155 156/156/156
f 157/157/157 156/156/156 155/155/155
f 156/156/156 157/157/157 158/158/158
f 159/159/159 158/158/158 157/157/157
f 159/159/159 160/160/160 158/158/158
f 161/161/161 158/158/158 160/160/160
f 161/161/161 160/160/160 162/162/162
f 163/163/163 162/162/162 160/160/160
f 164/164/164 162/162/162 163/163/163
f 165/165/165 162/162/162 164/164/164
f 166/166/166 165/165/165 164/164/164
f 166/166/166 164/164/164 167/167/167
f 167/167/167 168/168/168 166/166/166
f 169/169/169 166/166/166 168/168/168
f 169/169/169 168/168/168 170/170/170
f 170/170/170 168/168/168 171/171/171
f 170/170/170 171/171/171 172/172/172
f 172/172/172 171/171/171 173/173/173
f 173/173/173 174/174/174 172/172/172
f 174/174/174 175/175/175 172/172/172
f 176/176/176 175/175/175 174/174/174
