g M_HairBK01
v -0.062278144 1.5340136 -0.028044688
v -0.064318076 1.5290775 -0.03898821
v -0.069582045 1.5440861 -0.029175708
v 0.03988716 1.5026345 -0.026284348
v 0.039630737 1.4988374 -0.02941783
v 0.038716793 1.4948498 -0.024476634
v 0.040810112 1.503549 -0.03268243
v 0.041652814 1.5093528 -0.026517324
v 0.042708587 1.5087631 -0.034823995
v 0.044307403 1.515228 -0.026206808
v 0.054270107 1.5185105 -0.037486628
v 0.04802089 1.5206958 -0.025392847
v 0.05156105 1.5249306 -0.023202458
v 0.044810526 1.5072657 -0.045195855
v 0.037432335 1.4994121 -0.03722636
v 0.06380682 1.5286843 -0.03860168
v 0.06174309 1.5337968 -0.027742235
v 0.06857378 1.5438328 -0.028752463
v 0.05368814 1.5165982 -0.04798866
v 0.06568599 1.5271301 -0.051988296
v 0.058422048 1.5266137 -0.06098297
v 0.03826184 1.4956999 -0.045242876
v 0.037445355 1.4919336 -0.056779575
v 0.035834506 1.4889686 -0.039468244
v 0.044212226 1.5043501 -0.056450307
v 0.050248116 1.5141981 -0.058017462
v 0.035568774 1.4853271 -0.048345856
v 0.035095442 1.4817024 -0.047923654
v 0.035418376 1.4834158 -0.04081262
v 0.034928225 1.478361 -0.047666628
v 0.035306435 1.4795605 -0.042440448
v 0.03493572 1.475448 -0.047666628
v 0.035415914 1.4762192 -0.044068273
v 0.035704747 1.4711642 -0.04706691
v 0.032983303 1.4808652 -0.052755754
v 0.04468194 1.5123253 -0.06608913
v 0.052919395 1.5248038 -0.08119171
v 0.036870856 1.5018185 -0.064347796
v 0.037000977 1.5113714 -0.07519919
v 0.03671751 1.5243177 -0.09181978
v 0.03344248 1.4831544 -0.058978993
v 0.03129285 1.4780945 -0.05585128
v 0.031499054 1.4927284 -0.06290981
v 0.027564079 1.4843446 -0.062910214
v 0.03183004 1.4789762 -0.059995554
v 0.030037574 1.4751047 -0.058851928
v 0.025905851 1.4914172 -0.07097953
v 0.027489427 1.4792793 -0.061947238
v 0.027840529 1.4757446 -0.061731342
v 0.03063479 1.4754328 -0.060998067
v 0.029390834 1.4715222 -0.06205776
v 0.029777424 1.500175 -0.072288476
v 0.017647494 1.4984972 -0.07767044
v 0.021452906 1.4838064 -0.07101921
v 0.023617422 1.4789516 -0.066141486
v 0.02019107 1.5107586 -0.087511316
v 0.02357681 1.5221615 -0.10305464
v -3.644285E-05 1.5110078 -0.09238924
v -4.5620272E-05 1.5224476 -0.1067296
v -2.0598345E-06 1.4988607 -0.08211185
v 0.014826392 1.4906808 -0.07406029
v 2.3786254E-10 1.4885799 -0.075359985
v 0.012135846 1.4822625 -0.07199473
v 0.0034864976 1.4819947 -0.073679544
v 0.0058887666 1.4771129 -0.0736154
v 0.011343591 1.4774699 -0.07211858
v 0.0108860135 1.4743795 -0.07274301
v 0.007852866 1.4742111 -0.073812306
v 0.01075533 1.4694004 -0.07432304
v 0.018852195 1.4778683 -0.071556926
v 0.013244367 1.476768 -0.071794726
v 0.019638058 1.4737467 -0.06916478
v 0.01735383 1.4731283 -0.07171461
v 0.014690295 1.472287 -0.07162743
v 0.01602306 1.4679269 -0.07187584
v -0.039690986 1.4988651 -0.029435689
v -0.03995101 1.502664 -0.02630264
v -0.03872166 1.4948521 -0.02447774
v -0.04097847 1.50363 -0.03274193
v -0.041806884 1.509425 -0.02656844
v -0.042971235 1.5089155 -0.034930103
v -0.044551596 1.5153487 -0.026288485
v -0.05435253 1.5188375 -0.037715655
v -0.04818149 1.5208495 -0.025501877
v -0.051684063 1.5250868 -0.023329223
v -0.045020394 1.5075157 -0.045364983
v -0.03756272 1.499474 -0.03727643
v -0.064318076 1.5290775 -0.03898821
v -0.062278144 1.5340136 -0.028044688
v -0.05379275 1.5170422 -0.048274312
v -0.066206925 1.5277183 -0.05244591
v -0.05860002 1.5272909 -0.061413538
v -0.038433403 1.4957881 -0.045312203
v -0.03762984 1.4920382 -0.056861743
v -0.035855494 1.488978 -0.03947523
v -0.04444698 1.5046551 -0.056649484
v -0.03560221 1.4853413 -0.048360832
v -0.03509941 1.4817042 -0.047925215
v -0.035419077 1.4834161 -0.04081278
v -0.034928225 1.478361 -0.047666628
v -0.035306435 1.4795605 -0.042440448
v -0.03493572 1.475448 -0.047666628
v -0.035415914 1.4762192 -0.044068273
v -0.035704747 1.4711642 -0.04706691
v -0.032987144 1.4808668 -0.05275822
v -0.050393432 1.5146902 -0.058316812
v -0.05860002 1.5272909 -0.061413538
v -0.033481076 1.4831713 -0.059001334
v -0.03129295 1.4780945 -0.05585136
v -0.03183542 1.478978 -0.059999708
v -0.030037574 1.4751047 -0.058851928
v -0.03063479 1.4754328 -0.060998067
v -0.029390834 1.4715222 -0.06205776
v -0.027840529 1.4757446 -0.061731342
v -0.027491698 1.4792801 -0.061948996
v -0.027589092 1.4843545 -0.062928915
v -0.031642884 1.4928133 -0.062986225
v -0.03724813 1.5020686 -0.06451623
v -0.025987608 1.4914659 -0.07103646
v -0.031642884 1.4928133 -0.062986225
v -0.04490234 1.5127866 -0.06637652
v -0.05860002 1.5272909 -0.061413538
v -0.02146783 1.4838116 -0.07103074
v -0.02361794 1.4789517 -0.06614189
v -0.018852195 1.4778683 -0.071556926
v -0.019638058 1.4737467 -0.06916478
v -0.01735383 1.4731283 -0.07171461
v -0.01602306 1.4679269 -0.07187584
v -0.014690295 1.472287 -0.07162743
v -0.013244367 1.476768 -0.071794726
v -0.012135846 1.4822625 -0.07199473
v -0.014852511 1.4906905 -0.07408067
v -0.03734667 1.511756 -0.075445145
v -0.030013243 1.5003395 -0.072417125
v -0.017721793 1.4985434 -0.07773208
v -0.053015657 1.5255041 -0.08156555
v -0.037063252 1.5247803 -0.09209558
v -0.020358188 1.5108998 -0.08763667
v -0.02375659 1.522355 -0.103201024
v -3.644285E-05 1.5110078 -0.09238924
v -4.5620272E-05 1.5224476 -0.1067296
v -2.0598345E-06 1.4988607 -0.08211185
v 2.3786254E-10 1.4885799 -0.075359985
v -0.0034864976 1.4819947 -0.073679544
v -0.0058887666 1.4771129 -0.0736154
v -0.011343591 1.4774699 -0.07211858
v -0.0108860135 1.4743795 -0.07274301
v -0.007852866 1.4742111 -0.073812306
v -0.01075533 1.4694004 -0.07432304
vt 0.969533 0.061381996
vt 0.951073 0.079849005
vt 0.991715 0.07460499
vt 0.611632 0.01807201
vt 0.618991 0.021555007
vt 0.621604 0.009132981
vt 0.614326 0.03310901
vt 0.600744 0.026054978
vt 0.609209 0.042572975
vt 0.587917 0.03171003
vt 0.585341 0.06385201
vt 0.574575 0.036565006
vt 0.56196 0.038572013
vt 0.621192 0.061888993
vt 0.63084 0.036947012
vt 0.561175 0.079849005
vt 0.542715 0.061381996
vt 0.520534 0.07460499
vt 0.601177 0.081369996
vt 0.577155 0.10395402
vt 0.598194 0.11749798
vt 0.643063 0.04951501
vt 0.662969 0.06415999
vt 0.648252 0.034720004
vt 0.639621 0.07832199
vt 0.621152 0.09550297
vt 0.658528 0.044098973
vt 0.664723 0.041532993
vt 0.658704 0.03419602
vt 0.670387 0.03925401
vt 0.666779 0.034150004
vt 0.674883 0.037602007
vt 0.673161 0.03470099
vt 0.68094 0.035443008
vt 0.674197 0.04559201
vt 0.640707 0.10685599
vt 0.62884 0.152228
vt 0.662818 0.08662599
vt 0.664034 0.12027401
vt 0.666527 0.167472
vt 0.681997 0.054755986
vt 0.686598 0.044535995
vt 0.679344 0.07176602
vt 0.693736 0.061580002
vt 0.691108 0.049368978
vt 0.69572 0.04301399
vt 0.699207 0.08024502
vt 0.698365 0.053416014
vt 0.701437 0.047613025
vt 0.698285 0.04519099
vt 0.705638 0.040593028
vt 0.685274 0.09652001
vt 0.714978 0.102898
vt 0.711888 0.06689501
vt 0.706454 0.054319978
vt 0.70767 0.13886899
vt 0.70152 0.18261498
vt 0.756124 0.14668399
vt 0.756124 0.18805999
vt 0.756124 0.11030102
vt 0.722933 0.08409202
vt 0.756124 0.083042026
vt 0.730572 0.06603199
vt 0.749675 0.067681015
vt 0.745744 0.056433022
vt 0.733383 0.05583501
vt 0.73542 0.049190998
vt 0.742447 0.049495995
vt 0.737865 0.038034976
vt 0.71925 0.05570197
vt 0.730025 0.055314004
vt 0.71779 0.047122
vt 0.723663 0.047324
vt 0.728707 0.046666026
vt 0.72768 0.038488984
vt 0.893258 0.021553993
vt 0.900617 0.01807201
vt 0.890644 0.009132981
vt 0.897922 0.03310901
vt 0.911505 0.026054978
vt 0.903039 0.042572975
vt 0.924332 0.03171003
vt 0.926907 0.06385201
vt 0.937674 0.036565006
vt 0.950288 0.038572013
vt 0.891057 0.061888993
vt 0.881409 0.036947012
vt 0.951073 0.079849005
vt 0.969533 0.061381996
vt 0.911071 0.081369996
vt 0.935094 0.10395402
vt 0.914055 0.11749798
vt 0.869185 0.04951501
vt 0.84928 0.06415999
vt 0.863997 0.034720004
vt 0.872628 0.07832301
vt 0.85372 0.044098973
vt 0.847525 0.04153198
vt 0.853544 0.034195006
vt 0.841862 0.039255023
vt 0.84547 0.034150004
vt 0.837365 0.037602007
vt 0.839087 0.03470099
vt 0.831308 0.035443008
vt 0.838051 0.04559201
vt 0.891096 0.095503986
vt 0.914055 0.11749798
vt 0.830252 0.054755986
vt 0.82565 0.044535995
vt 0.82114 0.049368978
vt 0.816528 0.043015003
vt 0.813963 0.04519099
vt 0.80661 0.040593028
vt 0.810811 0.04761201
vt 0.813883 0.053416014
vt 0.818513 0.061580002
vt 0.832904 0.07176602
vt 0.84943 0.08662599
vt 0.813042 0.08024502
vt 0.832904 0.07176602
vt 0.871541 0.10685599
vt 0.914055 0.11749798
vt 0.800361 0.06689501
vt 0.805795 0.054319978
vt 0.792998 0.05570197
vt 0.794458 0.047123015
vt 0.788586 0.047325015
vt 0.784568 0.03848797
vt 0.783542 0.04666698
vt 0.782224 0.055314004
vt 0.781676 0.06603199
vt 0.789315 0.08409202
vt 0.848214 0.12027502
vt 0.826974 0.09652102
vt 0.79727 0.102898
vt 0.883409 0.152228
vt 0.845722 0.167472
vt 0.804578 0.13886899
vt 0.810729 0.18261498
vt 0.756124 0.14668399
vt 0.756124 0.18805999
vt 0.756124 0.11030102
vt 0.756124 0.083042026
vt 0.762573 0.067681015
vt 0.766504 0.056433022
vt 0.778865 0.05583501
vt 0.776828 0.049190998
vt 0.769802 0.049495995
vt 0.774383 0.038034976
vn -0.95729625 0.025227107 0.28800607
vn -0.9870198 0.022534793 0.15900995
vn -0.9705804 0.02892121 0.23903409
vn 0.9963664 0.026127983 0.08106316
vn 0.99750155 0.026210986 0.06560147
vn 0.99577916 0.025950205 0.08803591
vn 0.99756396 0.024584396 0.065283395
vn 0.9936679 0.024392895 0.109676994
vn 0.98510635 0.019055508 0.17088705
vn 0.94967675 0.020211793 0.31257895
vn 0.9869451 0.018917602 0.15994203
vn 0.9098387 0.019389596 0.41450888
vn 0.92050457 0.02022529 0.39020786
vn 0.9991048 0.018182099 0.038195893
vn 0.9879033 0.021635905 0.15355405
vn 0.9873563 0.022799907 0.15686804
vn 0.958477 0.025538202 0.284024
vn 0.9712791 0.029215602 0.23614302
vn 0.98877186 0.019277398 -0.14818399
vn 0.96941715 0.018769603 -0.24470006
vn 0.9117067 0.022172395 -0.4102429
vn 0.9997009 0.021859197 0.010965399
vn 0.88035953 0.02537299 -0.47362775
vn 0.9996519 0.023827394 0.011331999
vn 0.9306983 0.020724906 -0.3652001
vn 0.9186427 0.022413692 -0.39445287
vn 0.9896965 0.02383299 -0.14118393
vn 0.9884377 0.025834294 -0.14940995
vn 0.99173355 0.026324388 -0.12558495
vn 0.9797933 0.026500706 -0.19824904
vn 0.98054564 0.02735519 -0.19437593
vn 0.9474266 0.029698187 -0.31859192
vn 0.944557 0.029925002 -0.326981
vn 0.9346242 0.030389404 -0.35433605
vn 0.951671 0.026683997 -0.305958
vn 0.8475914 0.01973561 -0.53028226
vn 0.7781817 0.020675689 -0.6276987
vn 0.79634684 0.020375496 -0.60449696
vn 0.66731024 0.019278308 -0.7445303
vn 0.57583064 0.020358087 -0.81731546
vn 0.8096839 0.027060997 -0.58624196
vn 0.9362526 0.026327288 -0.35033983
vn 0.7563249 0.023694197 -0.65376693
vn 0.6881751 0.025021607 -0.72511303
vn 0.7851382 0.026504805 -0.61875325
vn 0.91346204 0.0259612 -0.40609503
vn 0.5961561 0.021441305 -0.80258214
vn 0.5731662 0.026536308 -0.8190093
vn 0.45296988 0.026236495 -0.8911397
vn 0.7370641 0.026087303 -0.67531914
vn 0.66674 0.0254745 -0.7448549
vn 0.6107901 0.022099601 -0.7914841
vn 0.34188306 0.020209206 -0.9395252
vn 0.49842405 0.022966402 -0.86662906
vn 0.7298389 0.021940397 -0.6832669
vn 0.39981413 0.017647108 -0.9164263
vn 0.39274096 0.018256297 -0.91946787
vn -0 0.016781203 -0.9998592
vn 1.2309995E-07 0.018567892 -0.9998276
vn -1.3000005E-07 0.018584905 -0.9998273
vn 0.24143195 0.021754598 -0.97017384
vn -0 0.020589901 -0.999788
vn 0.18398806 0.024856605 -0.9826142
vn 0.15836994 0.02588199 -0.9870406
vn 0.20725696 0.027855696 -0.97788984
vn 0.26060694 0.026876897 -0.96507084
vn 0.279734 0.029405504 -0.9596271
vn 0.27736494 0.03020619 -0.9602897
vn 0.29360414 0.02944871 -0.95547336
vn 0.43102783 0.024176788 -0.9020146
vn 0.11171203 0.025659706 -0.9934093
vn 0.69014996 0.021703897 -0.72334087
vn 0.40273687 0.023586797 -0.9150118
vn 0.07418367 0.02510159 -0.99692863
vn 0.3572368 0.023286587 -0.93372357
vn -0.99750155 0.026210986 0.06560147
vn -0.9963664 0.026127983 0.08106316
vn -0.99577916 0.025950205 0.08803591
vn -0.99756396 0.024584396 0.065283395
vn -0.9936679 0.024392895 0.109676994
vn -0.98510635 0.019055508 0.17088705
vn -0.94967675 0.020211793 0.31257895
vn -0.9869451 0.018917602 0.15994203
vn -0.9098387 0.019389596 0.41450888
vn -0.92050457 0.02022529 0.39020786
vn -0.9991048 0.018182099 0.038195893
vn -0.9879033 0.021635905 0.15355405
vn -0.9873563 0.022799907 0.15686804
vn -0.958477 0.025538202 0.284024
vn -0.98877186 0.019277398 -0.14818399
vn -0.96941715 0.018769603 -0.24470006
vn -0.9117067 0.022172395 -0.4102429
vn -0.9997009 0.021859197 0.010965399
vn -0.8803589 0.025373196 -0.47362897
vn -0.9996519 0.023827394 0.011331999
vn -0.9306983 0.020724906 -0.3652001
vn -0.9896965 0.02383299 -0.14118393
vn -0.9884377 0.025834294 -0.14940995
vn -0.99173355 0.026324388 -0.12558495
vn -0.9797933 0.026500706 -0.19824904
vn -0.98054564 0.02735519 -0.19437593
vn -0.9474266 0.029698187 -0.31859192
vn -0.944557 0.029925002 -0.326981
vn -0.9346242 0.030389404 -0.35433605
vn -0.951671 0.026683997 -0.305958
vn -0.9186427 0.022413692 -0.39445287
vn -0.9117071 0.022172403 -0.41024202
vn -0.8096839 0.027060997 -0.58624196
vn -0.9362526 0.026327288 -0.35033983
vn -0.78945714 0.025898702 -0.6132591
vn -0.91346204 0.0259612 -0.40609503
vn -0.74229515 0.025036704 -0.6696051
vn -0.66674 0.0254745 -0.7448549
vn -0.40966982 0.02671259 -0.9118427
vn -0.557051 0.026414003 -0.8300581
vn -0.6881751 0.025021607 -0.72511303
vn -0.75973713 0.022408701 -0.64984405
vn -0.79634684 0.020375496 -0.60449696
vn -0.5961561 0.021441305 -0.80258214
vn -0.75289 0.0249793 -0.6576721
vn -0.8475914 0.01973561 -0.53028226
vn -0.9117067 0.022172395 -0.4102429
vn -0.49842405 0.022966402 -0.86662906
vn -0.7298389 0.021940397 -0.6832669
vn -0.43102783 0.024176788 -0.9020146
vn -0.69014996 0.021703897 -0.72334087
vn -0.40273687 0.023586797 -0.9150118
vn -0.3572368 0.023286587 -0.93372357
vn -0.07418367 0.02510159 -0.99692863
vn -0.11171203 0.025659706 -0.9934093
vn -0.18398806 0.024856605 -0.9826142
vn -0.24143195 0.021754598 -0.97017384
vn -0.66731024 0.019278308 -0.7445303
vn -0.6107901 0.022099601 -0.7914841
vn -0.34188306 0.020209206 -0.9395252
vn -0.7781817 0.020675689 -0.6276987
vn -0.57583064 0.020358087 -0.81731546
vn -0.39981413 0.017647108 -0.9164263
vn -0.39274096 0.018256297 -0.91946787
vn -0 0.016781203 -0.9998592
vn -1.2309995E-07 0.018567892 -0.9998276
vn 1.3000005E-07 0.018584905 -0.9998273
vn -0 0.020589901 -0.999788
vn -0.15836994 0.02588199 -0.9870406
vn -0.20725696 0.027855696 -0.97788984
vn -0.26060694 0.026876897 -0.96507084
vn -0.279734 0.029405504 -0.9596271
vn -0.27736494 0.03020619 -0.9602897
vn -0.29360414 0.02944871 -0.95547336
g M_HairBK01_0
f 3/3/3 2/2/2 1/1/1
f 6/6/6 5/5/5 4/4/4
f 5/5/5 7/7/7 4/4/4
f 4/4/4 7/7/7 8/8/8
f 9/9/9 8/8/8 7/7/7
f 10/10/10 8/8/8 9/9/9
f 9/9/9 11/11/11 10/10/10
f 12/12/12 10/10/10 11/11/11
f 12/12/12 11/11/11 13/13/13
f 9/9/9 14/14/14 11/11/11
f 15/15/15 14/14/14 9/9/9
f 11/11/11 16/16/16 13/13/13
f 17/17/17 13/13/13 16/16/16
f 18/18/18 17/17/17 16/16/16
f 11/11/11 19/19/19 16/16/16
f 19/19/19 11/11/11 14/14/14
f 20/20/20 16/16/16 19/19/19
f 20/20/20 19/19/19 21/21/21
f 22/22/22 14/14/14 15/15/15
f 23/23/23 14/14/14 22/22/22
f 22/22/22 15/15/15 24/24/24
f 19/19/19 14/14/14 25/25/25
f 23/23/23 25/25/25 14/14/14
f 26/26/26 21/21/21 19/19/19
f 19/19/19 25/25/25 26/26/26
f 27/27/27 22/22/22 24/24/24
f 23/23/23 22/22/22 27/27/27
f 27/27/27 24/24/24 28/28/28
f 29/29/29 28/28/28 24/24/24
f 28/28/28 29/29/29 30/30/30
f 31/31/31 30/30/30 29/29/29
f 30/30/30 31/31/31 32/32/32
f 33/33/33 32/32/32 31/31/31
f 34/34/34 32/32/32 33/33/33
f 35/35/35 23/23/23 27/27/27
f 26/26/26 36/36/36 21/21/21
f 37/37/37 21/21/21 36/36/36
f 36/36/36 26/26/26 38/38/38
f 25/25/25 38/38/38 26/26/26
f 37/37/37 36/36/36 39/39/39
f 39/39/39 36/36/36 38/38/38
f 37/37/37 39/39/39 40/40/40
f 35/35/35 41/41/41 23/23/23
f 35/35/35 42/42/42 41/41/41
f 23/23/23 43/43/43 25/25/25
f 38/38/38 25/25/25 43/43/43
f 44/44/44 43/43/43 23/23/23
f 23/23/23 41/41/41 44/44/44
f 42/42/42 45/45/45 41/41/41
f 42/42/42 46/46/46 45/45/45
f 38/38/38 43/43/43 47/47/47
f 47/47/47 43/43/43 44/44/44
f 48/48/48 44/44/44 41/41/41
f 41/41/41 45/45/45 48/48/48
f 48/48/48 45/45/45 49/49/49
f 46/46/46 50/50/50 45/45/45
f 50/50/50 49/49/49 45/45/45
f 51/51/51 50/50/50 46/46/46
f 51/51/51 49/49/49 50/50/50
f 38/38/38 47/47/47 52/52/52
f 39/39/39 38/38/38 52/52/52
f 39/39/39 52/52/52 53/53/53
f 52/52/52 47/47/47 53/53/53
f 54/54/54 47/47/47 44/44/44
f 44/44/44 55/55/55 54/54/54
f 56/56/56 39/39/39 53/53/53
f 56/56/56 40/40/40 39/39/39
f 57/57/57 40/40/40 56/56/56
f 58/58/58 57/57/57 56/56/56
f 56/56/56 53/53/53 58/58/58
f 59/59/59 57/57/57 58/58/58
f 58/58/58 53/53/53 60/60/60
f 53/53/53 47/47/47 61/61/61
f 53/53/53 61/61/61 60/60/60
f 54/54/54 61/61/61 47/47/47
f 61/61/61 62/62/62 60/60/60
f 61/61/61 63/63/63 62/62/62
f 63/63/63 61/61/61 54/54/54
f 64/64/64 62/62/62 63/63/63
f 65/65/65 64/64/64 63/63/63
f 63/63/63 66/66/66 65/65/65
f 66/66/66 67/67/67 65/65/65
f 67/67/67 68/68/68 65/65/65
f 69/69/69 68/68/68 67/67/67
f 54/54/54 70/70/70 63/63/63
f 54/54/54 55/55/55 70/70/70
f 70/70/70 71/71/71 63/63/63
f 72/72/72 70/70/70 55/55/55
f 70/70/70 73/73/73 71/71/71
f 73/73/73 70/70/70 72/72/72
f 74/74/74 71/71/71 73/73/73
f 73/73/73 72/72/72 75/75/75
f 73/73/73 75/75/75 74/74/74
f 78/78/78 77/77/77 76/76/76
f 76/76/76 77/77/77 79/79/79
f 77/77/77 80/80/80 79/79/79
f 81/81/81 79/79/79 80/80/80
f 82/82/82 81/81/81 80/80/80
f 81/81/81 82/82/82 83/83/83
f 84/84/84 83/83/83 82/82/82
f 84/84/84 85/85/85 83/83/83
f 81/81/81 83/83/83 86/86/86
f 87/87/87 81/81/81 86/86/86
f 83/83/83 85/85/85 88/88/88
f 89/89/89 88/88/88 85/85/85
f 83/83/83 88/88/88 90/90/90
f 90/90/90 86/86/86 83/83/83
f 91/91/91 90/90/90 88/88/88
f 91/91/91 92/92/92 90/90/90
f 93/93/93 87/87/87 86/86/86
f 94/94/94 93/93/93 86/86/86
f 93/93/93 95/95/95 87/87/87
f 90/90/90 96/96/96 86/86/86
f 94/94/94 86/86/86 96/96/96
f 97/97/97 95/95/95 93/93/93
f 94/94/94 97/97/97 93/93/93
f 97/97/97 98/98/98 95/95/95
f 99/99/99 95/95/95 98/98/98
f 98/98/98 100/100/100 99/99/99
f 101/101/101 99/99/99 100/100/100
f 100/100/100 102/102/102 101/101/101
f 103/103/103 101/101/101 102/102/102
f 104/104/104 103/103/103 102/102/102
f 105/105/105 97/97/97 94/94/94
f 90/90/90 106/106/106 96/96/96
f 106/106/106 90/90/90 107/107/107
f 105/105/105 94/94/94 108/108/108
f 105/105/105 108/108/108 109/109/109
f 109/109/109 108/108/108 110/110/110
f 109/109/109 110/110/110 111/111/111
f 111/111/111 110/110/110 112/112/112
f 113/113/113 111/111/111 112/112/112
f 113/113/113 112/112/112 114/114/114
f 112/112/112 115/115/115 114/114/114
f 110/110/110 115/115/115 112/112/112
f 108/108/108 115/115/115 110/110/110
f 115/115/115 108/108/108 116/116/116
f 94/94/94 116/116/116 108/108/108
f 94/94/94 96/96/96 117/117/117
f 116/116/116 94/94/94 117/117/117
f 118/118/118 117/117/117 96/96/96
f 96/96/96 106/106/106 118/118/118
f 118/118/118 119/119/119 117/117/117
f 119/119/119 116/116/116 120/120/120
f 121/121/121 118/118/118 106/106/106
f 106/106/106 122/122/122 121/121/121
f 123/123/123 116/116/116 119/119/119
f 116/116/116 123/123/123 124/124/124
f 123/123/123 125/125/125 124/124/124
f 126/126/126 124/124/124 125/125/125
f 127/127/127 126/126/126 125/125/125
f 127/127/127 128/128/128 126/126/126
f 127/127/127 129/129/129 128/128/128
f 129/129/129 127/127/127 130/130/130
f 125/125/125 130/130/130 127/127/127
f 125/125/125 131/131/131 130/130/130
f 123/123/123 131/131/131 125/125/125
f 123/123/123 119/119/119 132/132/132
f 131/131/131 123/123/123 132/132/132
f 133/133/133 118/118/118 121/121/121
f 118/118/118 134/134/134 119/119/119
f 133/133/133 134/134/134 118/118/118
f 134/134/134 135/135/135 119/119/119
f 135/135/135 132/132/132 119/119/119
f 133/133/133 135/135/135 134/134/134
f 136/136/136 133/133/133 121/121/121
f 136/136/136 121/121/121 107/107/107
f 136/136/136 137/137/137 133/133/133
f 138/138/138 133/133/133 137/137/137
f 138/138/138 135/135/135 133/133/133
f 139/139/139 138/138/138 137/137/137
f 140/140/140 138/138/138 139/139/139
f 138/138/138 140/140/140 135/135/135
f 141/141/141 140/140/140 139/139/139
f 140/140/140 142/142/142 135/135/135
f 135/135/135 142/142/142 132/132/132
f 132/132/132 142/142/142 143/143/143
f 132/132/132 143/143/143 131/131/131
f 144/144/144 131/131/131 143/143/143
f 145/145/145 131/131/131 144/144/144
f 131/131/131 145/145/145 146/146/146
f 146/146/146 145/145/145 147/147/147
f 147/147/147 145/145/145 148/148/148
f 149/149/149 147/147/147 148/148/148
