g M_HairOP02
v 0.011287661 1.5712258 0.079426534
v 0.013991441 1.5732037 0.08085044
v 0.022063939 1.565456 0.07236114
v 0.008868929 1.579867 0.08501206
v 0.004475411 1.5776712 0.08295847
v 0.0015919494 1.5894432 0.08762806
v -0.00386246 1.5881087 0.08602902
v -0.002671536 1.5996554 0.08887736
v -0.0115698315 1.5989442 0.08784945
v -0.00652911 1.609216 0.089385256
v -0.01667582 1.6083715 0.08799904
v -0.008743436 1.6209055 0.08787835
v -0.0205867 1.621752 0.086920545
v -0.009727623 1.6319823 0.08571798
v -0.022111949 1.6323537 0.08477341
v -0.008992978 1.643389 0.08163024
v -0.021198753 1.6441358 0.08044283
v -0.0030991745 1.6202397 0.08157791
v -0.00083764014 1.60873 0.08349856
v -0.0035688782 1.6287738 0.079419285
v -0.002671536 1.5996554 0.08887736
v 0.0022635092 1.5994467 0.083371095
v 0.0015919494 1.5894432 0.08762806
v 0.0058539296 1.5901827 0.08306535
v 0.008868929 1.579867 0.08501206
v 0.010671519 1.5813922 0.08134813
v 0.013991441 1.5732037 0.08085044
v 0.015040494 1.575086 0.07862052
v 0.022063939 1.565456 0.07236114
v -0.0032193374 1.6397547 0.07552707
v -0.00777574 1.6555182 0.07558374
v -0.0014427775 1.6504462 0.06976419
v -0.0055402685 1.6650451 0.06940995
v 6.0433147E-05 1.6596042 0.06381942
v -0.0017423439 1.6741296 0.06053413
v 0.0020574187 1.6669235 0.055990905
v 0.0010057449 1.6801234 0.05226965
v 0.0042534065 1.6721598 0.0487809
v 0.003187648 1.6835155 0.04557066
v 0.0059592817 1.6760186 0.043221626
v 0.005943399 1.6844996 0.037881143
v 0.0077498625 1.6794302 0.036356658
v 0.007612286 1.6846356 0.032735318
v 0.009031944 1.6811906 0.031819
v 0.009763396 1.6822859 0.02507369
v 0.0034874056 1.6879617 0.0304083
v -0.0015231706 1.6902413 0.034924425
v -0.005369291 1.6884093 0.041823044
v -0.008956041 1.6837457 0.049079914
v -0.012648029 1.6769601 0.057373066
v -0.016071396 1.6667677 0.06613056
v -0.01873711 1.656 0.073218584
v -0.029533653 1.6440514 0.07279518
v -0.024890631 1.6330944 0.083690375
v -0.031971548 1.6325363 0.078210406
v -0.026726386 1.6244016 0.084443994
v -0.026819248 1.6539519 0.06666675
v -0.02335761 1.6641165 0.060164202
v -0.016071396 1.6667677 0.06613056
v -0.027945824 1.6502568 0.06074211
v -0.029197028 1.6403002 0.06526946
v -0.025004396 1.6602339 0.05405964
v -0.030817851 1.6309018 0.07118549
v -0.019113433 1.6746436 0.051477227
v -0.012648029 1.6769601 0.057373066
v -0.020437699 1.6694497 0.04661313
v -0.031639073 1.6231946 0.081555314
v -0.031420134 1.6228126 0.0754776
v -0.014883156 1.68104 0.043793257
v -0.008956041 1.6837457 0.049079914
v -0.0153929135 1.6755077 0.040161762
v -0.005369291 1.6884093 0.041823044
v -0.030822715 1.614761 0.08411494
v -0.027815336 1.6158004 0.08484797
v -0.03105628 1.6149496 0.08011453
v -0.02710789 1.6066709 0.08477508
v -0.009945901 1.6859174 0.037616175
v -0.010474553 1.6798717 0.034756277
v -0.0015231706 1.6902413 0.034924425
v -0.004256477 1.687788 0.031622086
v -0.003366332 1.6831251 0.029447082
v 0.0014634704 1.6870618 0.028290596
v 0.0034874056 1.6879617 0.0304083
v 0.0026160097 1.6834316 0.027015528
v 0.009763396 1.6822859 0.02507369
vt 0.914363 0.81914496
vt 0.909084 0.815698
vt 0.897567 0.837139
vt 0.914123 0.80104697
vt 0.923494 0.804343
vt 0.92377 0.781828
vt 0.933334 0.78264403
vt 0.926689 0.762973
vt 0.942195 0.760903
vt 0.929448 0.745524
vt 0.946171 0.74291897
vt 0.928309 0.72481203
vt 0.944412 0.719198
vt 0.925251 0.70548904
vt 0.940035 0.70134604
vt 0.918217 0.686046
vt 0.933705 0.679874
vt 0.91217 0.72760403
vt 0.915429 0.748011
vt 0.909861 0.71234703
vt 0.926689 0.762973
vt 0.914025 0.76530397
vt 0.92377 0.781828
vt 0.912394 0.782691
vt 0.914123 0.80104697
vt 0.90816 0.800316
vt 0.909084 0.815698
vt 0.90384 0.814487
vt 0.897567 0.837139
vt 0.903043 0.692544
vt 0.909262 0.66517496
vt 0.894439 0.67286897
vt 0.901323 0.648528
vt 0.887665 0.654752
vt 0.891313 0.631065
vt 0.878542 0.638296
vt 0.884228 0.617186
vt 0.871603 0.624436
vt 0.87906 0.607094
vt 0.867421 0.613039
vt 0.872077 0.59704804
vt 0.863188 0.599878
vt 0.867293 0.589321
vt 0.861258 0.58924496
vt 0.862332 0.57644796
vt 0.873393 0.58495104
vt 0.879773 0.58978
vt 0.888014 0.597803
vt 0.895061 0.608474
vt 0.904243 0.622016
vt 0.915047 0.63969696
vt 0.924672 0.658346
vt 0.949123 0.66895604
vt 0.946756 0.69582
vt 0.959005 0.685928
vt 0.958196 0.706461
vt 0.939459 0.650351
vt 0.928285 0.631989
vt 0.915047 0.63969696
vt 0.951085 0.643515
vt 0.960441 0.660185
vt 0.938695 0.625054
vt 0.969197 0.67772496
vt 0.916104 0.61350703
vt 0.904243 0.622016
vt 0.926141 0.607828
vt 0.967256 0.700081
vt 0.975125 0.69326496
vt 0.905778 0.60097504
vt 0.895061 0.608474
vt 0.914292 0.594591
vt 0.888014 0.597803
vt 0.974844 0.71348596
vt 0.969418 0.71742
vt 0.980191 0.709078
vt 0.98334 0.72634
vt 0.895193 0.591939
vt 0.902994 0.58529496
vt 0.879773 0.58978
vt 0.884669 0.583291
vt 0.889148 0.57749
vt 0.876606 0.580093
vt 0.873393 0.58495104
vt 0.876145 0.57430196
vt 0.862332 0.57644796
vn 0.08226949 0.030016998 0.99615794
vn 0.098252915 0.030624706 0.9946902
vn 0.19245496 0.027339097 0.9809249
vn 0.03715531 0.03309571 0.9987613
vn -0.00024171194 0.032341994 0.99947685
vn -0.04005099 0.035753593 0.99855775
vn -0.07056458 0.035795294 0.99686474
vn 0.00471225 0.041270502 0.999137
vn -0.09938559 0.038601495 0.9942999
vn 0.019710002 0.08937361 0.9958032
vn -0.13430697 0.06759258 0.9886318
vn 0.0218546 0.15878099 0.98707193
vn -0.15103206 0.15214506 0.9767503
vn 0.016598606 0.24469006 0.9694593
vn -0.16063505 0.24575108 0.95593035
vn 0.027913308 0.3400991 0.93997526
vn -0.21167299 0.36229694 0.9077089
vn 0.22994201 0.18884103 0.95470715
vn 0.21441394 0.12724698 0.9684188
vn 0.23798405 0.23203203 0.94314617
vn 0.10646802 0.047305312 0.9931902
vn 0.23935503 0.07297031 0.9681862
vn 0.19224906 0.039562214 0.9805484
vn 0.24169299 0.043328196 0.9693849
vn 0.307341 0.038304403 0.95082814
vn 0.3431629 0.038687993 0.9384787
vn 0.36179784 0.03683308 0.9315286
vn 0.37725973 0.037238173 0.9253585
vn 0.44095483 0.035884883 0.8968116
vn 0.24972999 0.30685797 0.91840786
vn 0.0242978 0.44286704 0.89625806
vn 0.25428298 0.38779297 0.8859779
vn 0.07570148 0.51858586 0.85166776
vn 0.30754 0.45794094 0.8340919
vn 0.15099 0.600973 0.784878
vn 0.39688903 0.50841105 0.7641971
vn 0.20940797 0.6614569 0.72015494
vn 0.43467295 0.5439409 0.7177658
vn 0.230136 0.72042805 0.654233
vn 0.46043786 0.5780639 0.67367584
vn 0.32777497 0.74767596 0.57753295
vn 0.4927648 0.61736983 0.61321884
vn 0.37740085 0.7789358 0.5008269
vn 0.50724703 0.66722906 0.545441
vn 0.44406497 0.80447495 0.39449495
vn 0.18189801 0.9264861 0.32944903
vn 0.13404599 0.8341939 0.53493196
vn -0.070531875 0.81361574 0.5771088
vn -0.13072397 0.74479383 0.6543648
vn -0.16586407 0.6659352 0.72733724
vn -0.19918002 0.5633591 0.80184406
vn -0.2128259 0.47300676 0.8549676
vn -0.5445158 0.3890698 0.74305266
vn -0.29554993 0.26753095 0.91710275
vn -0.48328885 0.25542495 0.83737075
vn -0.29003292 0.18533795 0.9388987
vn -0.666752 0.48972702 0.56179106
vn -0.649897 0.554297 0.5199891
vn -0.26859286 0.58817166 0.76283157
vn -0.9339897 0.3199499 0.15904494
vn -0.7601341 0.30385405 0.5743421
vn -0.9385203 0.3450291 0.011603903
vn -0.78174114 0.19533001 0.592222
vn -0.7600789 0.61445993 0.21146896
vn -0.34108493 0.7483219 0.56892496
vn -0.89791715 0.4003181 -0.18300302
vn -0.5471838 0.14689997 0.82402074
vn -0.70134073 0.14021495 0.6988998
vn -0.803291 0.5933259 -0.0518447
vn -0.2793819 0.84106576 0.46319985
vn -0.875168 0.335133 -0.348951
vn -0.29424608 0.93651515 0.19067903
vn -0.45604596 0.07349781 0.88691604
vn -0.23490208 0.108162045 0.96598244
vn -0.64468026 0.049497016 0.76284826
vn -0.43360886 0.045182787 0.89996773
vn -0.701093 0.6710871 -0.241062
vn -0.7689542 0.30382505 -0.5624941
vn -0.39730895 0.8731418 -0.28243393
vn -0.51859087 0.6406049 -0.56629395
vn -0.52975893 0.24810295 -0.81104887
vn -0.14139403 0.62936413 -0.76413906
vn 0.38266593 0.90029186 -0.20746396
vn -0.27520707 0.23965105 -0.9310362
vn -0.00462716 0.55311203 -0.83309406
g M_HairOP02_0
f 3/3/3 2/2/2 1/1/1
f 1/1/1 2/2/2 4/4/4
f 5/5/5 1/1/1 4/4/4
f 5/5/5 4/4/4 6/6/6
f 5/5/5 6/6/6 7/7/7
f 7/7/7 6/6/6 8/8/8
f 7/7/7 8/8/8 9/9/9
f 9/9/9 8/8/8 10/10/10
f 9/9/9 10/10/10 11/11/11
f 11/11/11 10/10/10 12/12/12
f 12/12/12 13/13/13 11/11/11
f 14/14/14 13/13/13 12/12/12
f 14/14/14 15/15/15 13/13/13
f 14/14/14 16/16/16 15/15/15
f 17/17/17 15/15/15 16/16/16
f 18/18/18 12/12/12 10/10/10
f 18/18/18 10/10/10 19/19/19
f 20/20/20 12/12/12 18/18/18
f 20/20/20 14/14/14 12/12/12
f 19/19/19 10/10/10 21/21/21
f 19/19/19 21/21/21 22/22/22
f 22/22/22 21/21/21 23/23/23
f 22/22/22 23/23/23 24/24/24
f 24/24/24 23/23/23 25/25/25
f 24/24/24 25/25/25 26/26/26
f 25/25/25 27/27/27 26/26/26
f 27/27/27 28/28/28 26/26/26
f 29/29/29 28/28/28 27/27/27
f 30/30/30 14/14/14 20/20/20
f 30/30/30 16/16/16 14/14/14
f 31/31/31 16/16/16 30/30/30
f 32/32/32 31/31/31 30/30/30
f 31/31/31 17/17/17 16/16/16
f 32/32/32 33/33/33 31/31/31
f 34/34/34 33/33/33 32/32/32
f 34/34/34 35/35/35 33/33/33
f 36/36/36 35/35/35 34/34/34
f 36/36/36 37/37/37 35/35/35
f 36/36/36 38/38/38 37/37/37
f 37/37/37 38/38/38 39/39/39
f 40/40/40 39/39/39 38/38/38
f 40/40/40 41/41/41 39/39/39
f 40/40/40 42/42/42 41/41/41
f 43/43/43 41/41/41 42/42/42
f 43/43/43 42/42/42 44/44/44
f 45/45/45 43/43/43 44/44/44
f 45/45/45 46/46/46 43/43/43
f 43/43/43 46/46/46 41/41/41
f 41/41/41 46/46/46 47/47/47
f 41/41/41 47/47/47 39/39/39
f 39/39/39 47/47/47 48/48/48
f 39/39/39 48/48/48 37/37/37
f 37/37/37 48/48/48 49/49/49
f 37/37/37 49/49/49 35/35/35
f 35/35/35 49/49/49 50/50/50
f 35/35/35 50/50/50 33/33/33
f 33/33/33 50/50/50 51/51/51
f 33/33/33 51/51/51 31/31/31
f 31/31/31 51/51/51 52/52/52
f 31/31/31 52/52/52 17/17/17
f 17/17/17 52/52/52 53/53/53
f 17/17/17 53/53/53 54/54/54
f 55/55/55 54/54/54 53/53/53
f 54/54/54 55/55/55 56/56/56
f 57/57/57 53/53/53 52/52/52
f 57/57/57 52/52/52 58/58/58
f 58/58/58 52/52/52 59/59/59
f 57/57/57 60/60/60 53/53/53
f 57/57/57 58/58/58 60/60/60
f 61/61/61 53/53/53 60/60/60
f 53/53/53 61/61/61 55/55/55
f 62/62/62 60/60/60 58/58/58
f 63/63/63 55/55/55 61/61/61
f 58/58/58 59/59/59 64/64/64
f 62/62/62 58/58/58 64/64/64
f 64/64/64 59/59/59 65/65/65
f 64/64/64 66/66/66 62/62/62
f 55/55/55 63/63/63 67/67/67
f 67/67/67 56/56/56 55/55/55
f 68/68/68 67/67/67 63/63/63
f 64/64/64 65/65/65 69/69/69
f 64/64/64 69/69/69 66/66/66
f 69/69/69 65/65/65 70/70/70
f 71/71/71 66/66/66 69/69/69
f 70/70/70 72/72/72 69/69/69
f 67/67/67 73/73/73 56/56/56
f 67/67/67 68/68/68 73/73/73
f 73/73/73 74/74/74 56/56/56
f 75/75/75 73/73/73 68/68/68
f 76/76/76 74/74/74 73/73/73
f 76/76/76 73/73/73 75/75/75
f 69/69/69 77/77/77 71/71/71
f 77/77/77 69/69/69 72/72/72
f 78/78/78 71/71/71 77/77/77
f 72/72/72 79/79/79 77/77/77
f 77/77/77 80/80/80 78/78/78
f 80/80/80 77/77/77 79/79/79
f 81/81/81 78/78/78 80/80/80
f 80/80/80 79/79/79 82/82/82
f 81/81/81 80/80/80 82/82/82
f 82/82/82 79/79/79 83/83/83
f 82/82/82 84/84/84 81/81/81
f 82/82/82 83/83/83 85/85/85
f 85/85/85 84/84/84 82/82/82
