g M_HairBK01
v 0.030585546 1.4927869 -0.058976796
v 0.03824951 1.5017941 -0.055084925
v 0.03369083 1.5023441 -0.05869156
v 0.046636976 1.514853 -0.053791635
v 0.04249532 1.5121216 -0.06321299
v 0.053180628 1.5237056 -0.056190476
v 0.05023573 1.5223366 -0.06494289
v 0.057621058 1.5362909 -0.06883957
v 0.064232945 1.53674 -0.062400527
v 0.05226453 1.5348612 -0.077870294
v 0.06324344 1.5383139 -0.0519351
v 0.04498923 1.521673 -0.07339328
v 0.044393197 1.5342665 -0.08353575
v 0.03877592 1.5213492 -0.07970722
v 0.03622785 1.5328835 -0.092199035
v 0.03288469 1.5131489 -0.076334
v 0.030300092 1.5222342 -0.08768232
v 0.023225607 1.5337595 -0.09456111
v 0.019765351 1.5233724 -0.090679444
v -0.0023632904 1.5338022 -0.10305906
v 0.030495677 1.5042725 -0.07190155
v 0.017550655 1.5062749 -0.08042824
v 0.028931977 1.4944334 -0.06814271
v 0.019883428 1.5134263 -0.083793215
v -0.001475741 1.5136446 -0.08926596
v -0.0036332 1.5216235 -0.09606247
v -0.021940636 1.5226316 -0.0901775
v -0.024771094 1.5332491 -0.09405958
v 0.023874028 1.4928962 -0.06932117
v 0.02554111 1.4889649 -0.06808039
v -0.029533986 1.52211 -0.08565184
v -0.036259845 1.5329111 -0.09220219
v 0.020265557 1.4920837 -0.07280189
v 0.020621773 1.4874399 -0.06867822
v 0.022525227 1.4836466 -0.06814972
v 0.02035201 1.4829671 -0.06867155
v 0.018554147 1.4781054 -0.0693294
v 0.023763191 1.4839315 -0.066146545
v 0.02554111 1.4889649 -0.06808039
v 0.028545873 1.4917766 -0.062161837
v 0.028931977 1.4944334 -0.06814271
v 0.03369083 1.5023441 -0.05869156
v 0.04249532 1.5121216 -0.06321299
v 0.016379423 1.4851102 -0.07203418
v 0.01569187 1.4809556 -0.06979259
v 0.010644302 1.4757344 -0.072839715
v 0.012155312 1.4840037 -0.07353108
v 0.012815226 1.4905914 -0.073523946
v 0.007300144 1.4906416 -0.076620884
v 0.009222594 1.4826989 -0.07330361
v -0.0007062423 1.5045193 -0.083073474
v 0.005983896 1.4825864 -0.07457407
v 0.0032106377 1.473884 -0.074037775
v 0.0017924124 1.4825249 -0.07415117
v -0.00047012186 1.4903461 -0.07467954
v -0.0081413705 1.49003 -0.074568555
v -0.0022926084 1.4841133 -0.07319619
v -0.017550655 1.5062749 -0.08042824
v -0.006035103 1.4839851 -0.07323508
v -0.0032325317 1.476582 -0.07295585
v -0.010072144 1.4841151 -0.07210862
v -0.013565566 1.490873 -0.07195412
v -0.018630028 1.51281 -0.08475101
v -0.021243742 1.491549 -0.07141321
v -0.030495677 1.5042725 -0.07190155
v -0.03466341 1.5113826 -0.07548034
v -0.01664673 1.4843467 -0.070894115
v -0.012692656 1.4843246 -0.071743056
v -0.011448766 1.4759715 -0.07251833
v -0.020025069 1.4859583 -0.067793734
v -0.01406874 1.4775149 -0.07103772
v -0.025653528 1.4939845 -0.066794746
v -0.03900051 1.5213413 -0.07998648
v -0.04435958 1.534262 -0.083569564
v -0.04443898 1.5221956 -0.07254565
v -0.05143478 1.5351547 -0.076783955
v -0.041525688 1.513181 -0.061438464
v -0.04956959 1.5227138 -0.0660164
v -0.055752873 1.5362371 -0.069693014
v -0.034462336 1.5016377 -0.055528607
v -0.029052429 1.492447 -0.059519522
v -0.023259947 1.4889486 -0.06642533
v -0.02592565 1.4866453 -0.062863074
v -0.020962777 1.4850128 -0.067273825
v -0.024066066 1.484501 -0.06443469
v -0.018151984 1.479245 -0.06882285
v -0.055262517 1.5246484 -0.05651633
v -0.06140411 1.536909 -0.06271617
v -0.06378526 1.538215 -0.052720323
v -0.05836601 1.5269815 -0.048542712
v -0.046201058 1.5130622 -0.053875845
v -0.04011616 1.5043575 -0.054244366
v -0.034462336 1.5016377 -0.055528607
v -0.03291823 1.4938296 -0.05715323
v -0.06283833 1.5395614 -0.0419183
v -0.06610529 1.5514755 -0.039828546
v -0.062199898 1.5404692 -0.03463545
v -0.06566746 1.5520028 -0.031572264
v -0.05725391 1.535489 -0.02886547
v -0.058496326 1.5330284 -0.036329985
v -0.052162886 1.5275246 -0.03226624
v -0.05465918 1.5259906 -0.03785345
v -0.050324406 1.5205461 -0.0369901
v -0.04876899 1.5218884 -0.032679494
v -0.046134856 1.5164263 -0.03184328
v -0.045395788 1.5176795 -0.040086288
v -0.046129234 1.5150028 -0.03364175
v -0.042726982 1.5110883 -0.02920726
v -0.045631785 1.5148411 -0.03589221
v -0.039309286 1.5087261 -0.046464875
v -0.04011616 1.5043575 -0.054244366
v -0.035452843 1.5005441 -0.051880375
v -0.03291823 1.4938296 -0.05715323
v 0.030585546 1.4927869 -0.058976796
v 0.03438734 1.4991009 -0.05204045
v 0.03824951 1.5017941 -0.055084925
v 0.037034016 1.504242 -0.04840761
v 0.046636976 1.514853 -0.053791635
v 0.0445636 1.5173746 -0.041152112
v 0.05311565 1.5261015 -0.045156367
v 0.05020833 1.5199544 -0.036895573
v 0.045956753 1.5144006 -0.033601996
v 0.04544409 1.514225 -0.03582401
v 0.042527217 1.5105093 -0.029217323
v 0.045978505 1.515848 -0.031815812
v 0.04866185 1.5213429 -0.032625444
v 0.052114 1.5270405 -0.032204628
v 0.054608915 1.5254506 -0.03773896
v 0.058340177 1.5328162 -0.038509045
v 0.057284996 1.5351666 -0.028831078
v 0.06178672 1.5400625 -0.036716938
v 0.06979759 1.5487111 -0.04302062
v 0.065742314 1.5520033 -0.031497236
vt 0.732944 0.047197998
vt 0.719548 0.06386399
vt 0.729623 0.06421697
vt 0.706992 0.08770001
vt 0.72528 0.08829498
vt 0.702276 0.10619998
vt 0.716996 0.10870099
vt 0.71202 0.134045
vt 0.698991 0.134045
vt 0.72693 0.134045
vt 0.683877 0.12796903
vt 0.732343 0.110946
vt 0.740551 0.134045
vt 0.746056 0.112029016
vt 0.757472 0.134045
vt 0.752321 0.09505397
vt 0.763654 0.11596501
vt 0.777161 0.134045
vt 0.780871 0.116593
vt 0.815834 0.134045
vt 0.752886 0.07709998
vt 0.780525 0.083136976
vt 0.752535 0.05807799
vt 0.777944 0.09714699
vt 0.814594 0.09937501
vt 0.817753 0.11519903
vt 0.847588 0.115854025
vt 0.850491 0.134045
vt 0.762351 0.054557025
vt 0.758381 0.047297
vt 0.861349 0.11408597
vt 0.86732 0.134045
vt 0.77203 0.054776013
vt 0.76766 0.043798983
vt 0.763578 0.03697902
vt 0.767649 0.03556502
vt 0.770863 0.026538014
vt 0.759228 0.036774993
vt 0.758381 0.047297
vt 0.745173 0.048726976
vt 0.752535 0.05807799
vt 0.729623 0.06421697
vt 0.72528 0.08829498
vt 0.778677 0.040862978
vt 0.777696 0.031687975
vt 0.789982 0.022796988
vt 0.787367 0.038827002
vt 0.786251 0.051391006
vt 0.798264 0.053238988
vt 0.793599 0.036909997
vt 0.813431 0.08072901
vt 0.800106 0.036907017
vt 0.804607 0.020209014
vt 0.808106 0.036224008
vt 0.813676 0.050731003
vt 0.82868 0.05067599
vt 0.817529 0.038569987
vt 0.84429 0.083244026
vt 0.824694 0.038383007
vt 0.818943 0.024263978
vt 0.832799 0.038022995
vt 0.840597 0.05045402
vt 0.844259 0.09691501
vt 0.85546 0.05290401
vt 0.871969 0.07718098
vt 0.875634 0.09260899
vt 0.847511 0.038210988
vt 0.83973 0.037742972
vt 0.837958 0.021493971
vt 0.856664 0.03972602
vt 0.841571 0.02560103
vt 0.86877 0.054452002
vt 0.878872 0.112195015
vt 0.884541 0.134045
vt 0.89352 0.110578
vt 0.898715 0.134045
vt 0.902311 0.087188005
vt 0.90668 0.10964
vt 0.910737 0.134045
vt 0.898322 0.060597003
vt 0.882048 0.04702401
vt 0.864155 0.04513198
vt 0.871013 0.038815975
vt 0.858288 0.03880799
vt 0.865663 0.036015987
vt 0.85006 0.029689014
vt 0.924842 0.10958898
vt 0.923688 0.134045
vt 0.9408 0.13150197
vt 0.939482 0.10975897
vt 0.917891 0.08479899
vt 0.9085 0.067321
vt 0.898322 0.060597003
vt 0.896538 0.045853972
vt 0.958391 0.125745
vt 0.970081 0.143498
vt 0.970188 0.12181699
vt 0.983257 0.13839197
vt 0.975754 0.107382
vt 0.962245 0.109845996
vt 0.964675 0.09383702
vt 0.954603 0.09804201
vt 0.951322 0.08614701
vt 0.959383 0.08356601
vt 0.956601 0.073479
vt 0.942496 0.07901502
vt 0.952805 0.07265401
vt 0.957198 0.061894
vt 0.948864 0.07304603
vt 0.924711 0.06654602
vt 0.9085 0.067321
vt 0.909932 0.05540198
vt 0.896538 0.045853972
vt 0.732944 0.047197998
vt 0.717112 0.05460298
vt 0.719548 0.06386399
vt 0.707639 0.061599016
vt 0.706992 0.08770001
vt 0.686523 0.080128014
vt 0.68476 0.10106599
vt 0.676094 0.086103976
vt 0.675046 0.07387298
vt 0.678656 0.074105024
vt 0.670837 0.064053
vt 0.671557 0.07475698
vt 0.669064 0.084034026
vt 0.66491 0.09321499
vt 0.673618 0.09676498
vt 0.669583 0.10883498
vt 0.65468 0.10474002
vt 0.661642 0.11906701
vt 0.663528 0.13975
vt 0.645402 0.13255298
vn 0.6587008 0.017044699 -0.75221187
vn 0.69593424 0.017038705 -0.71790326
vn 0.7247419 0.015818594 -0.68883884
vn 0.960821 0.0143152 -0.27679998
vn 0.9048364 0.010324405 -0.4256342
vn 0.9869444 0.0135389045 -0.16049106
vn 0.91182303 0.014762499 -0.410318
vn 0.865433 0.017385 -0.500723
vn 0.9482589 0.014672798 -0.31715894
vn 0.7818861 0.018489601 -0.6231471
vn 0.99972266 0.017021595 -0.016270796
vn 0.78095174 0.014422296 -0.6244249
vn 0.69374627 0.01935911 -0.7199593
vn 0.68707186 0.014893796 -0.72643685
vn 0.5181062 0.018858608 -0.8551084
vn 0.639367 0.012144899 -0.7688059
vn 0.45011598 0.0150688 -0.892843
vn 0.29494107 0.020003103 -0.9553061
vn 0.28499886 0.016573295 -0.9583846
vn -0.021960799 0.0193749 -0.999571
vn 0.639978 0.014359101 -0.76825905
vn 0.35553306 0.014107002 -0.9345572
vn 0.67785776 0.013139195 -0.7350758
vn 0.35396188 0.012988896 -0.93516964
vn -0.0068574306 0.011954601 -0.999905
vn -0.06136519 0.014719098 -0.9980069
vn -0.39038318 0.016844507 -0.92049843
vn -0.34929588 0.019253893 -0.9368146
vn 0.5339651 0.012833701 -0.8454091
vn 0.32269585 0.016231192 -0.9463635
vn -0.46124688 0.015307095 -0.88713974
vn -0.49894914 0.017566806 -0.8664533
vn 0.50379777 0.011961595 -0.8637387
vn 0.5035489 0.013647198 -0.8638589
vn 0.58808 0.013265299 -0.808694
vn 0.30374196 0.018943598 -0.9525659
vn 0.54072493 0.013695698 -0.84108794
vn 0.84906375 0.009620197 -0.52820283
vn 0.9014231 0.010325402 -0.43281603
vn 0.947702 0.010612999 -0.31898
vn 0.79010653 0.010553596 -0.6128786
vn 0.9973571 0.008018391 -0.07221191
vn 0.9048364 0.010324405 -0.4256342
vn 0.5150872 0.0134526035 -0.8570323
vn 0.7231248 0.009804187 -0.69064784
vn 0.5254752 0.011927304 -0.8507253
vn 0.34322187 0.016875396 -0.93910277
vn 0.33614388 0.013858195 -0.9417087
vn 0.15793504 0.013050403 -0.9873633
vn 0.36020106 0.014098803 -0.93276817
vn -0.018990705 0.012507903 -0.9997414
vn 0.13710196 0.015497895 -0.9904357
vn 0.08769405 0.015522192 -0.9960265
vn -0.06204009 0.017292496 -0.99792385
vn -0.07847334 0.012612005 -0.9968364
vn -0.25068006 0.011865402 -0.96799725
vn -0.009131516 0.016037095 -0.99982965
vn -0.35438913 0.012594604 -0.93501323
vn -0.15346104 0.015925605 -0.98802626
vn -0.10856398 0.016117498 -0.99395883
vn -0.27039802 0.016450003 -0.9626081
vn -0.29980108 0.012921602 -0.9539142
vn -0.3461501 0.012984603 -0.93808925
vn -0.5485662 0.010870505 -0.83603644
vn -0.7328609 0.010918899 -0.6802909
vn -0.7041301 0.011842701 -0.70997214
vn -0.46820104 0.015269501 -0.88349
vn -0.24078791 0.018902892 -0.97039366
vn -0.2316801 0.018539509 -0.97261536
vn -0.7451994 0.010091204 -0.66676533
vn -0.6610779 0.0128011 -0.750208
vn -0.83170694 0.0106337 -0.555113
vn -0.6884664 0.015834209 -0.7250954
vn -0.73014104 0.019534905 -0.68301713
vn -0.8125551 0.014544001 -0.582703
vn -0.7979191 0.018775802 -0.6024721
vn -0.8648561 0.010542902 -0.5019091
vn -0.8613949 0.014249998 -0.50773597
vn -0.86141896 0.0192255 -0.507531
vn -0.91307557 0.010818195 -0.4076468
vn -0.8398198 0.014751695 -0.5426648
vn -0.735556 0.0148113 -0.677302
vn -0.7327429 0.017289596 -0.6802859
vn -0.646332 0.01621 -0.762884
vn -0.66160595 0.017784297 -0.7496409
vn -0.6199017 0.015688093 -0.78452265
vn -0.9467493 0.014910205 -0.32162613
vn -0.91662335 0.018509109 -0.39932317
vn -0.9928918 0.021157796 -0.11712497
vn -0.99828786 0.015685897 -0.056349393
vn -0.98417825 0.009082942 -0.17694803
vn -0.83211905 0.0122381 -0.5544621
vn -0.4206899 0.020888694 -0.9069639
vn -0.32998702 0.023726404 -0.9436872
vn -0.9988285 0.022216488 0.042988576
vn -0.9993395 0.025293386 0.026090285
vn -0.9866741 0.0219932 0.161216
vn -0.9926069 0.025164597 0.11873698
vn -0.9583418 0.018017696 0.28505498
vn -0.9818781 0.018039402 0.18865302
vn -0.93371266 0.015539096 0.35768586
vn -0.9693879 0.015399299 0.24505097
vn -0.9933421 0.010674701 0.11470602
vn -0.9399366 0.016930493 0.34092885
vn -0.9581667 0.016393496 0.2857409
vn -0.9994097 0.005937518 -0.03383979
vn -0.9984262 0.012060303 0.05476851
vn -0.986728 0.0117335 0.161957
vn -0.9904784 0.017528607 -0.13654806
vn -0.9664062 0.008250912 0.25688705
vn -0.9944411 0.008354312 0.10496302
vn -0.94838375 0.006473519 0.31705895
vn -0.9541338 0.0049949284 0.29933894
vn 0.99071294 0.00091838 0.13596699
vn 0.9780638 0.003939339 0.20826796
vn 0.982206 0.00705872 0.187674
vn 0.97620606 0.00880338 0.21666603
vn 0.99865 0.010992001 -0.0507687
vn 0.995477 0.009097211 -0.0945662
vn 0.99696046 0.012929693 -0.07682836
vn 0.99992 0.010862799 0.0064759594
vn 0.9987307 0.011846297 0.048955586
vn 0.9890547 0.019115197 -0.14630596
vn 0.9863809 0.011452299 0.164078
vn 0.9566903 0.016154205 0.2906591
vn 0.93770915 0.016780004 0.34701607
vn 0.94460106 0.016255101 0.327818
vn 0.9963289 0.015893599 0.08411949
vn 0.9970511 0.0175807 0.0746985
vn 0.9781782 0.018443301 0.20694703
vn 0.98925555 0.02018879 0.14479592
vn 0.99104214 0.020722304 0.13193202
vn 0.9671049 0.023009298 0.253335
g M_HairBK01_0
f 3/3/3 2/2/2 1/1/1
f 2/2/2 3/3/3 4/4/4
f 5/5/5 4/4/4 3/3/3
f 6/6/6 4/4/4 5/5/5
f 7/7/7 6/6/6 5/5/5
f 7/7/7 8/8/8 6/6/6
f 8/8/8 9/9/9 6/6/6
f 10/10/10 8/8/8 7/7/7
f 9/9/9 11/11/11 6/6/6
f 12/12/12 10/10/10 7/7/7
f 5/5/5 12/12/12 7/7/7
f 13/13/13 10/10/10 12/12/12
f 14/14/14 13/13/13 12/12/12
f 15/15/15 13/13/13 14/14/14
f 5/5/5 16/16/16 12/12/12
f 14/14/14 12/12/12 16/16/16
f 17/17/17 15/15/15 14/14/14
f 14/14/14 16/16/16 17/17/17
f 18/18/18 15/15/15 17/17/17
f 19/19/19 18/18/18 17/17/17
f 20/20/20 18/18/18 19/19/19
f 16/16/16 5/5/5 21/21/21
f 16/16/16 21/21/21 22/22/22
f 23/23/23 21/21/21 5/5/5
f 24/24/24 17/17/17 16/16/16
f 19/19/19 17/17/17 24/24/24
f 16/16/16 22/22/22 24/24/24
f 25/25/25 19/19/19 24/24/24
f 24/24/24 22/22/22 25/25/25
f 26/26/26 20/20/20 19/19/19
f 26/26/26 19/19/19 25/25/25
f 27/27/27 20/20/20 26/26/26
f 26/26/26 25/25/25 27/27/27
f 28/28/28 20/20/20 27/27/27
f 29/29/29 21/21/21 23/23/23
f 23/23/23 30/30/30 29/29/29
f 27/27/27 31/31/31 28/28/28
f 32/32/32 28/28/28 31/31/31
f 33/33/33 21/21/21 29/29/29
f 33/33/33 22/22/22 21/21/21
f 34/34/34 29/29/29 30/30/30
f 33/33/33 29/29/29 34/34/34
f 30/30/30 35/35/35 34/34/34
f 34/34/34 35/35/35 36/36/36
f 35/35/35 37/37/37 36/36/36
f 38/38/38 37/37/37 35/35/35
f 39/39/39 38/38/38 35/35/35
f 40/40/40 38/38/38 39/39/39
f 40/40/40 39/39/39 41/41/41
f 42/42/42 40/40/40 41/41/41
f 42/42/42 41/41/41 43/43/43
f 34/34/34 44/44/44 33/33/33
f 34/34/34 45/45/45 44/44/44
f 44/44/44 45/45/45 46/46/46
f 47/47/47 44/44/44 46/46/46
f 48/48/48 44/44/44 47/47/47
f 48/48/48 33/33/33 44/44/44
f 48/48/48 22/22/22 33/33/33
f 48/48/48 49/49/49 22/22/22
f 50/50/50 49/49/49 48/48/48
f 51/51/51 22/22/22 49/49/49
f 22/22/22 51/51/51 25/25/25
f 50/50/50 52/52/52 49/49/49
f 53/53/53 52/52/52 50/50/50
f 54/54/54 52/52/52 53/53/53
f 55/55/55 52/52/52 54/54/54
f 55/55/55 49/49/49 52/52/52
f 51/51/51 49/49/49 55/55/55
f 55/55/55 56/56/56 51/51/51
f 57/57/57 56/56/56 55/55/55
f 25/25/25 51/51/51 58/58/58
f 51/51/51 56/56/56 58/58/58
f 57/57/57 59/59/59 56/56/56
f 60/60/60 59/59/59 57/57/57
f 61/61/61 59/59/59 60/60/60
f 62/62/62 59/59/59 61/61/61
f 62/62/62 56/56/56 59/59/59
f 62/62/62 58/58/58 56/56/56
f 25/25/25 58/58/58 63/63/63
f 27/27/27 25/25/25 63/63/63
f 63/63/63 31/31/31 27/27/27
f 62/62/62 64/64/64 58/58/58
f 63/63/63 58/58/58 65/65/65
f 65/65/65 58/58/58 64/64/64
f 63/63/63 66/66/66 31/31/31
f 63/63/63 65/65/65 66/66/66
f 62/62/62 67/67/67 64/64/64
f 68/68/68 67/67/67 62/62/62
f 69/69/69 67/67/67 68/68/68
f 70/70/70 64/64/64 67/67/67
f 67/67/67 71/71/71 70/70/70
f 72/72/72 64/64/64 70/70/70
f 65/65/65 64/64/64 72/72/72
f 73/73/73 31/31/31 66/66/66
f 32/32/32 31/31/31 73/73/73
f 74/74/74 32/32/32 73/73/73
f 73/73/73 75/75/75 74/74/74
f 66/66/66 75/75/75 73/73/73
f 74/74/74 75/75/75 76/76/76
f 65/65/65 77/77/77 66/66/66
f 66/66/66 77/77/77 75/75/75
f 78/78/78 76/76/76 75/75/75
f 78/78/78 75/75/75 77/77/77
f 79/79/79 76/76/76 78/78/78
f 80/80/80 65/65/65 72/72/72
f 80/80/80 77/77/77 65/65/65
f 72/72/72 81/81/81 80/80/80
f 72/72/72 82/82/82 81/81/81
f 82/82/82 83/83/83 81/81/81
f 84/84/84 83/83/83 82/82/82
f 85/85/85 83/83/83 84/84/84
f 84/84/84 86/86/86 85/85/85
f 87/87/87 79/79/79 78/78/78
f 87/87/87 88/88/88 79/79/79
f 89/89/89 88/88/88 87/87/87
f 87/87/87 90/90/90 89/89/89
f 91/91/91 87/87/87 78/78/78
f 77/77/77 91/91/91 78/78/78
f 90/90/90 87/87/87 91/91/91
f 92/92/92 91/91/91 77/77/77
f 92/92/92 77/77/77 93/93/93
f 94/94/94 92/92/92 93/93/93
f 90/90/90 95/95/95 89/89/89
f 89/89/89 95/95/95 96/96/96
f 96/96/96 95/95/95 97/97/97
f 98/98/98 96/96/96 97/97/97
f 98/98/98 97/97/97 99/99/99
f 97/97/97 95/95/95 100/100/100
f 99/99/99 97/97/97 100/100/100
f 90/90/90 100/100/100 95/95/95
f 99/99/99 100/100/100 101/101/101
f 100/100/100 102/102/102 101/101/101
f 100/100/100 90/90/90 102/102/102
f 101/101/101 102/102/102 103/103/103
f 103/103/103 102/102/102 90/90/90
f 101/101/101 103/103/103 104/104/104
f 104/104/104 103/103/103 105/105/105
f 103/103/103 90/90/90 106/106/106
f 106/106/106 90/90/90 91/91/91
f 105/105/105 103/103/103 107/107/107
f 106/106/106 107/107/107 103/103/103
f 105/105/105 107/107/107 108/108/108
f 108/108/108 107/107/107 109/109/109
f 109/109/109 107/107/107 106/106/106
f 110/110/110 106/106/106 91/91/91
f 110/110/110 91/91/91 111/111/111
f 111/111/111 112/112/112 110/110/110
f 113/113/113 112/112/112 111/111/111
f 116/116/116 115/115/115 114/114/114
f 117/117/117 115/115/115 116/116/116
f 116/116/116 118/118/118 117/117/117
f 117/117/117 118/118/118 119/119/119
f 6/6/6 119/119/119 118/118/118
f 119/119/119 6/6/6 120/120/120
f 6/6/6 11/11/11 120/120/120
f 119/119/119 120/120/120 121/121/121
f 119/119/119 121/121/121 122/122/122
f 119/119/119 122/122/122 123/123/123
f 123/123/123 122/122/122 124/124/124
f 124/124/124 122/122/122 125/125/125
f 125/125/125 122/122/122 121/121/121
f 125/125/125 121/121/121 126/126/126
f 126/126/126 121/121/121 127/127/127
f 120/120/120 128/128/128 121/121/121
f 121/121/121 128/128/128 127/127/127
f 129/129/129 128/128/128 120/120/120
f 127/127/127 128/128/128 129/129/129
f 120/120/120 11/11/11 129/129/129
f 127/127/127 129/129/129 130/130/130
f 131/131/131 129/129/129 11/11/11
f 129/129/129 131/131/131 130/130/130
f 11/11/11 132/132/132 131/131/131
f 130/130/130 131/131/131 133/133/133
f 131/131/131 132/132/132 133/133/133
