g M_HairOP01
v -0.11110565 1.6027637 -0.039242152
v -0.113282576 1.6084527 -0.030520976
v -0.11190721 1.6070794 -0.029044783
v -0.11175144 1.6133304 -0.020340752
v -0.11411041 1.6157191 -0.02313464
v -0.11124459 1.6229773 -0.012363611
v -0.1138142 1.6259648 -0.015998201
v -0.10693207 1.636244 -0.0036933087
v -0.10997522 1.6412125 -0.008518852
v -0.10299982 1.6476846 0.0011090396
v -0.1058408 1.6528685 -0.0037754832
v -0.097710036 1.6575166 0.0047774054
v -0.101065636 1.6627395 -0.00033361214
v -0.0921935 1.6678176 0.008524814
v -0.094872914 1.6727911 0.002732544
v -0.08378721 1.6794969 0.012167204
v -0.0861036 1.6839781 0.0063729594
v -0.07332138 1.6901324 0.01509798
v -0.07382135 1.6951106 0.009720078
v -0.060539167 1.699026 0.017449608
v -0.061907448 1.7035825 0.012071857
v -0.049664997 1.7036281 0.018290417
v -0.049950734 1.708342 0.012301487
v -0.037711788 1.7070286 0.018425783
v -0.038047142 1.7107872 0.011951978
v -0.029827418 1.7116263 0.012226087
v -0.030119678 1.7083359 0.018172948
v -0.021182712 1.7095398 0.012336014
v -0.021696467 1.7064985 0.017644165
v -0.016981354 1.7026167 0.016329601
v -0.014886934 1.7054052 0.01190116
v -0.013300722 1.6990541 0.015297526
v -0.011162896 1.7012507 0.011826866
v -0.012139923 1.700707 0.006566796
v -0.016065264 1.704626 0.0061383424
v -0.021020355 1.7075359 0.0054798317
v -0.029591767 1.7089893 0.004426911
v -0.037914965 1.708482 0.004352913
v -0.048159327 1.7058924 0.0043444824
v -0.061907448 1.7035825 0.012071857
v -0.05927131 1.7005293 0.004050636
v -0.07382135 1.6951106 0.009720078
v -0.07027918 1.6929272 0.0027879374
v -0.0861036 1.6839781 0.0063729594
v -0.08092081 1.6834793 0.00062432693
v -0.09087041 1.6723281 -0.002493019
v -0.094872914 1.6727911 0.002732544
v -0.097814426 1.6621581 -0.005526217
v -0.101065636 1.6627395 -0.00033361214
v -0.10248879 1.651996 -0.008568133
v -0.1058408 1.6528685 -0.0037754832
v -0.10687604 1.6414933 -0.012661208
v -0.10997522 1.6412125 -0.008518852
v -0.11023236 1.6272913 -0.019658808
v -0.1138142 1.6259648 -0.015998201
v -0.11157015 1.617046 -0.025749318
v -0.11411041 1.6157191 -0.02313464
v -0.111815006 1.6100831 -0.031923614
v -0.113282576 1.6084527 -0.030520976
v -0.11110565 1.6027637 -0.039242152
v -0.013313273 1.7113448 -0.024139622
v -0.0055204034 1.7145263 -0.023957826
v -0.0134016415 1.7096945 -0.021366024
v -0.0063569313 1.7167214 -0.027210508
v -0.013215532 1.7111627 -0.027823243
v 0.0011348855 1.7169371 -0.025964297
v -0.0074763307 1.7155031 -0.030885523
v 0.00041619182 1.7195051 -0.030039119
v 0.007220192 1.7189615 -0.028093329
v -0.00022299767 1.7185574 -0.034486692
v 0.0071094893 1.7213124 -0.03276825
v 0.017037496 1.7195202 -0.03164345
v 0.006992998 1.7204221 -0.038297355
v 0.017372245 1.722196 -0.03705462
v 0.01696144 1.7207903 -0.043372765
v 0.030171394 1.7177743 -0.03720165
v 0.029848041 1.7214584 -0.04336109
v 0.028267287 1.7203857 -0.049430285
v 0.042802334 1.716724 -0.057665262
v 0.045208015 1.7176133 -0.05098174
v 0.046074525 1.7132236 -0.044853337
v 0.0588212 1.7091311 -0.068196796
v 0.061729755 1.7084156 -0.061047375
v 0.06070464 1.7047057 -0.05376855
v 0.0761343 1.6916804 -0.06409171
v 0.0733572 1.6954507 -0.07877162
v 0.077533774 1.6957479 -0.07138602
v 0.08974603 1.6716353 -0.076827504
v 0.09126487 1.6745694 -0.084888875
v 0.08641488 1.6745095 -0.09224109
v 0.0961742 1.6504775 -0.08744121
v 0.09657173 1.6530153 -0.095308505
v 0.09127833 1.6538264 -0.102507904
v 0.09732352 1.6273425 -0.0962055
v 0.097864866 1.6298556 -0.104160465
v 0.09295931 1.6313068 -0.1112278
v 0.095499344 1.6063434 -0.10364485
v 0.09710063 1.6095347 -0.11122705
v 0.09242592 1.6121932 -0.117622
v 0.0903132 1.587444 -0.124511085
v 0.095286116 1.5849878 -0.11904054
v 0.095286116 1.5849878 -0.11904054
v 0.09395366 1.5823625 -0.111808375
v 0.09000708 1.5684024 -0.13081151
v 0.09449437 1.5652308 -0.12644552
v 0.09449437 1.5652308 -0.12644552
v 0.0920887 1.5625744 -0.120714016
v 0.09258447 1.5494453 -0.13380364
v 0.09015142 1.5465987 -0.12968417
v 0.088214904 1.552079 -0.13724071
v 0.09258447 1.5494453 -0.13380364
v 0.08990871 1.5406176 -0.13870536
v 0.088004895 1.5395209 -0.13453893
v 0.08535307 1.5337887 -0.1378368
v 0.08706455 1.5344507 -0.14229764
v 0.08990871 1.5406176 -0.13870536
v 0.085995235 1.5429107 -0.14124268
v 0.08336827 1.5373734 -0.14372596
v 0.08706455 1.5344507 -0.14229764
v 0.081668645 1.5288424 -0.14157
v 0.08324518 1.5293603 -0.14540854
v 0.079092406 1.5252359 -0.14784394
v 0.076654814 1.5244955 -0.14564838
v 0.074754715 1.5225421 -0.15027457
v 0.071955815 1.5219402 -0.14878975
v 0.06808704 1.5204828 -0.15148029
v 0.07973204 1.5322298 -0.14648902
v 0.08324518 1.5293603 -0.14540854
v 0.079092406 1.5252359 -0.14784394
v 0.07653145 1.5283949 -0.14821154
v 0.074754715 1.5225421 -0.15027457
v 0.07229374 1.5242628 -0.15020692
v 0.06808704 1.5204828 -0.15148029
vt 0.589283 0.885541
vt 0.578241 0.898286
vt 0.58071 0.9011646
vt 0.569698 0.9143159
vt 0.565921 0.9087045
vt 0.554953 0.9243604
vt 0.550978 0.91791487
vt 0.535265 0.936991
vt 0.528642 0.928173
vt 0.517405 0.9455122
vt 0.509817 0.9351294
vt 0.499239 0.9519399
vt 0.493464 0.9409838
vt 0.481283 0.9571307
vt 0.476412 0.9463275
vt 0.460482 0.9630978
vt 0.456757 0.9528477
vt 0.43933 0.968658
vt 0.434165 0.95961547
vt 0.417496 0.9747233
vt 0.414474 0.9650729
vt 0.400326 0.9785429
vt 0.39672 0.9678673
vt 0.381638 0.9820607
vt 0.378749 0.970236
vt 0.366885 0.9725287
vt 0.369181 0.9832894
vt 0.353566 0.9754621
vt 0.355176 0.9855175
vt 0.344536 0.9874239
vt 0.34158 0.9780177
vt 0.335151 0.9895587
vt 0.332296 0.9810279
vt 0.329573 0.9709212
vt 0.339837 0.9677501
vt 0.349893 0.9640341
vt 0.363755 0.9604852
vt 0.377287 0.9582247
vt 0.393592 0.9557158
vt 0.414474 0.9650729
vt 0.411708 0.95263183
vt 0.434165 0.95961547
vt 0.430853 0.9486277
vt 0.456757 0.9528477
vt 0.450952 0.9434688
vt 0.472536 0.9374133
vt 0.476412 0.9463275
vt 0.491127 0.9318526
vt 0.493464 0.9409838
vt 0.508799 0.926206
vt 0.509817 0.9351294
vt 0.526541 0.9208874
vt 0.528642 0.928173
vt 0.54759 0.9111789
vt 0.550978 0.91791487
vt 0.563206 0.9030503
vt 0.565921 0.9087045
vt 0.575602 0.894979
vt 0.578241 0.898286
vt 0.589283 0.885541
vt 0.739548 0.985874
vt 0.734209 0.9704329
vt 0.733451 0.9897896
vt 0.741078 0.968316
vt 0.747683 0.983707
vt 0.734176 0.9582206
vt 0.748078 0.9687987
vt 0.741574 0.9559857
vt 0.734268 0.9477092
vt 0.748767 0.9549316
vt 0.741894 0.9447242
vt 0.733234 0.9310691
vt 0.750306 0.9420509
vt 0.74232 0.9272245
vt 0.752519 0.9240603
vt 0.733542 0.907934
vt 0.744121 0.9057856
vt 0.753407 0.9038138
vt 0.754739 0.87869
vt 0.744708 0.88047
vt 0.733879 0.880998
vt 0.756193 0.849399
vt 0.745434 0.850538
vt 0.734319 0.853668
vt 0.733696 0.821855
vt 0.756349 0.817962
vt 0.744986 0.81977
vt 0.733548 0.784247
vt 0.745027 0.781638
vt 0.756721 0.779415
vt 0.732842 0.750557
vt 0.744678 0.748765
vt 0.756899 0.746558
vt 0.731485 0.71545196
vt 0.743275 0.714329
vt 0.755487 0.71242297
vt 0.729723 0.683312
vt 0.741884 0.68364596
vt 0.754017 0.683394
vt 0.752162 0.648033
vt 0.739597 0.64816797
vt 0.739597 0.64816797
vt 0.726991 0.648473
vt 0.750815 0.620894
vt 0.737911 0.61893904
vt 0.737911 0.61893904
vt 0.725369 0.618093
vt 0.739295 0.58989596
vt 0.729418 0.58732796
vt 0.750524 0.591272
vt 0.739295 0.58989596
vt 0.741982 0.56962204
vt 0.731545 0.569643
vt 0.734442 0.553457
vt 0.744877 0.553952
vt 0.741982 0.56962204
vt 0.753346 0.570849
vt 0.755261 0.555965
vt 0.744877 0.553952
vt 0.738575 0.537516
vt 0.748344 0.53979397
vt 0.751629 0.52544296
vt 0.744965 0.522025
vt 0.756623 0.515503
vt 0.753845 0.50825
vt 0.763039 0.499812
vt 0.757424 0.543284
vt 0.748344 0.53979397
vt 0.751629 0.52544296
vt 0.760439 0.53084004
vt 0.756623 0.515503
vt 0.762517 0.51674104
vt 0.763039 0.499812
vn -0.9957616 0.035690684 0.08476397
vn -0.986845 0.0377387 0.15720302
vn -0.98413706 0.037479904 0.17340602
vn -0.9663883 0.039508414 0.2540331
vn -0.9725844 0.046286322 0.2278971
vn -0.9411568 0.12076098 0.31565893
vn -0.948482 0.14023 0.28410798
vn -0.89492786 0.23909399 0.37674695
vn -0.90067637 0.27432612 0.3369381
vn -0.8472188 0.33701095 0.41066295
vn -0.8511444 0.3718322 0.37053218
vn -0.7975859 0.41050795 0.4419729
vn -0.80446625 0.44494313 0.3935221
vn -0.7430579 0.49597195 0.44930694
vn -0.7487533 0.5303272 0.39764515
vn -0.6654589 0.58668697 0.46147898
vn -0.6716958 0.61527884 0.41262192
vn -0.57308584 0.6717427 0.46939778
vn -0.569124 0.70122594 0.429395
vn -0.4642049 0.73810095 0.4896129
vn -0.46737593 0.7632229 0.4461509
vn -0.37029 0.7857781 0.49541706
vn -0.37578213 0.8408823 0.38949314
vn -0.2750208 0.8289875 0.4869737
vn -0.27751693 0.8811857 0.3827479
vn -0.191068 0.902247 0.386579
vn -0.19732203 0.8510661 0.48657006
vn -0.055265076 0.9135917 0.40285984
vn -0.051743273 0.86061364 0.50662285
vn 0.048457477 0.8312946 0.55371577
vn 0.08411109 0.89971983 0.4282869
vn 0.09933598 0.8036208 0.5867929
vn 0.16422395 0.87552077 0.4544159
vn 0.22618705 0.94436914 0.23876004
vn 0.11288396 0.9621117 0.24818994
vn -0.03300341 0.9674163 0.25103107
vn -0.18431792 0.95304656 0.24026892
vn -0.28629202 0.92481923 0.25049207
vn -0.38761395 0.8909708 0.23648794
vn -0.4872427 0.8228255 0.29249382
vn -0.49443084 0.84307075 0.21158893
vn -0.58693796 0.76629895 0.261323
vn -0.58785474 0.7874787 0.18521394
vn -0.6883828 0.6933128 0.21318194
vn -0.67534673 0.72142273 0.15315394
vn -0.7617606 0.63364965 0.13494092
vn -0.76808465 0.6112627 0.19079791
vn -0.83023506 0.544033 0.121399
vn -0.82906324 0.53203917 0.17201304
vn -0.8728659 0.48229194 0.074159
vn -0.8725656 0.47228083 0.12481994
vn -0.9153494 0.39894614 0.054566026
vn -0.9177329 0.3844679 0.09975339
vn -0.9505772 0.31016907 -0.014080704
vn -0.9567429 0.28979596 0.025715495
vn -0.96924543 0.2424111 -0.042428315
vn -0.97504765 0.22137395 -0.016601296
vn -0.9829177 0.17434396 -0.058964983
vn -0.98654723 0.15722504 -0.04477461
vn -0.9854467 0.13228096 -0.10675497
vn -0.21590492 0.95329064 0.21123892
vn -0.10039102 0.9550852 0.27880806
vn -0.18573998 0.9429569 0.27628398
vn -0.13851102 0.9763081 0.16624403
vn -0.27578604 0.9575032 0.08443712
vn -0.017844688 0.96827143 0.24926288
vn -0.19486097 0.97943693 0.052272897
vn -0.05441501 0.98954517 0.13356403
vn 0.04964649 0.9770298 0.20723897
vn -0.09097914 0.99556834 0.02379931
vn 0.026866289 0.9943895 0.10231194
vn 0.1559879 0.97253644 0.17274491
vn 0.0012244501 0.9999881 -0.00472684
vn 0.13369103 0.9887411 0.067214705
vn 0.09984792 0.9939122 -0.04657261
vn 0.28117698 0.94931984 0.14046797
vn 0.23954105 0.97071326 0.018324008
vn 0.22599098 0.9735649 -0.033159
vn 0.32928884 0.9341656 -0.13748996
vn 0.37516898 0.9263928 -0.032322798
vn 0.42626205 0.9007191 0.08370022
vn 0.47991994 0.8555419 -0.19422899
vn 0.52328795 0.8464269 -0.09864659
vn 0.5606521 0.82780105 0.020365302
vn 0.69849265 0.7142496 -0.044220675
vn 0.58774096 0.75238484 -0.29745197
vn 0.6445713 0.74171036 -0.18545508
vn 0.8245011 0.54342604 -0.15775302
vn 0.7646068 0.57060075 -0.2996519
vn 0.6994949 0.58410794 -0.41173393
vn 0.89306605 0.359895 -0.27001604
vn 0.82725686 0.39741594 -0.39712292
vn 0.7584052 0.41867307 -0.49953416
vn 0.92544824 0.17000504 -0.33859107
vn 0.859595 0.217297 -0.46246994
vn 0.7879714 0.24775714 -0.5636644
vn 0.9320117 0.04434399 -0.35970488
vn 0.85956293 0.087420896 -0.50349694
vn 0.78355175 0.11760997 -0.61009383
vn 0.7489749 0.038638297 -0.66147095
vn 0.88537675 0.036780898 -0.46341684
vn 0.8292188 0.037465293 -0.5576669
vn 0.99713814 -0.0676549 -0.033738703
vn 0.7230368 0.03561739 -0.6898908
vn 0.938522 -0.21645199 0.268933
vn 0.74981904 0.035065603 -0.6607131
vn 0.9279611 -0.23532303 0.28898302
vn 0.8975615 -0.33573246 0.2857745
vn 0.8880319 -0.35903805 0.28721237
vn 0.68403316 0.032931313 -0.72870725
vn 0.7107363 0.032523517 -0.7027063
vn 0.8425001 -0.47718722 0.24997202
vn 0.8392428 -0.4789765 0.25739658
vn 0.78101623 -0.58718586 0.21266486
vn 0.76908094 -0.60340714 0.2107472
vn 0.6743702 0.030880414 -0.7377473
vn 0.6503821 0.031103803 -0.75897014
vn 0.62008494 0.030208198 -0.7839529
vn 0.6393322 0.029898308 -0.7683492
vn 0.66908467 -0.7165695 0.19711387
vn 0.6812359 -0.7085105 0.1842025
vn 0.50366306 -0.83478415 0.22239372
vn 0.44430923 -0.86461437 0.23458746
vn 0.34049547 -0.916778 0.20876038
vn 0.29147854 -0.9417557 0.16773912
vn 0.27190477 -0.9540587 0.12585633
vn 0.583571 0.029252302 -0.81153506
vn 0.60540104 0.028860906 -0.7953971
vn 0.5729771 0.028197903 -0.8190862
vn 0.55333817 0.02886961 -0.8324563
vn 0.52608925 0.028183011 -0.84996235
vn 0.50312465 0.028572777 -0.8637414
vn 0.4725391 0.027894605 -0.8808682
g M_HairOP01_0
f 3/3/3 2/2/2 1/1/1
f 3/3/3 4/4/4 2/2/2
f 2/2/2 4/4/4 5/5/5
f 6/6/6 5/5/5 4/4/4
f 7/7/7 5/5/5 6/6/6
f 8/8/8 7/7/7 6/6/6
f 8/8/8 9/9/9 7/7/7
f 10/10/10 9/9/9 8/8/8
f 10/10/10 11/11/11 9/9/9
f 12/12/12 11/11/11 10/10/10
f 12/12/12 13/13/13 11/11/11
f 14/14/14 13/13/13 12/12/12
f 14/14/14 15/15/15 13/13/13
f 14/14/14 16/16/16 15/15/15
f 17/17/17 15/15/15 16/16/16
f 18/18/18 17/17/17 16/16/16
f 18/18/18 19/19/19 17/17/17
f 18/18/18 20/20/20 19/19/19
f 21/21/21 19/19/19 20/20/20
f 20/20/20 22/22/22 21/21/21
f 23/23/23 21/21/21 22/22/22
f 22/22/22 24/24/24 23/23/23
f 25/25/25 23/23/23 24/24/24
f 26/26/26 25/25/25 24/24/24
f 26/26/26 24/24/24 27/27/27
f 27/27/27 28/28/28 26/26/26
f 29/29/29 28/28/28 27/27/27
f 30/30/30 28/28/28 29/29/29
f 31/31/31 28/28/28 30/30/30
f 32/32/32 31/31/31 30/30/30
f 33/33/33 31/31/31 32/32/32
f 34/34/34 31/31/31 33/33/33
f 35/35/35 31/31/31 34/34/34
f 35/35/35 28/28/28 31/31/31
f 36/36/36 28/28/28 35/35/35
f 36/36/36 26/26/26 28/28/28
f 37/37/37 26/26/26 36/36/36
f 37/37/37 25/25/25 26/26/26
f 37/37/37 38/38/38 25/25/25
f 23/23/23 25/25/25 38/38/38
f 23/23/23 38/38/38 39/39/39
f 39/39/39 40/40/40 23/23/23
f 41/41/41 40/40/40 39/39/39
f 40/40/40 41/41/41 42/42/42
f 43/43/43 42/42/42 41/41/41
f 42/42/42 43/43/43 44/44/44
f 45/45/45 44/44/44 43/43/43
f 45/45/45 46/46/46 44/44/44
f 46/46/46 47/47/47 44/44/44
f 48/48/48 47/47/47 46/46/46
f 48/48/48 49/49/49 47/47/47
f 50/50/50 49/49/49 48/48/48
f 50/50/50 51/51/51 49/49/49
f 52/52/52 51/51/51 50/50/50
f 52/52/52 53/53/53 51/51/51
f 54/54/54 53/53/53 52/52/52
f 54/54/54 55/55/55 53/53/53
f 54/54/54 56/56/56 55/55/55
f 55/55/55 56/56/56 57/57/57
f 58/58/58 57/57/57 56/56/56
f 59/59/59 57/57/57 58/58/58
f 60/60/60 59/59/59 58/58/58
f 63/63/63 62/62/62 61/61/61
f 61/61/61 62/62/62 64/64/64
f 61/61/61 64/64/64 65/65/65
f 66/66/66 64/64/64 62/62/62
f 65/65/65 64/64/64 67/67/67
f 68/68/68 64/64/64 66/66/66
f 68/68/68 67/67/67 64/64/64
f 69/69/69 68/68/68 66/66/66
f 70/70/70 67/67/67 68/68/68
f 71/71/71 68/68/68 69/69/69
f 71/71/71 70/70/70 68/68/68
f 69/69/69 72/72/72 71/71/71
f 73/73/73 70/70/70 71/71/71
f 74/74/74 71/71/71 72/72/72
f 71/71/71 74/74/74 73/73/73
f 75/75/75 73/73/73 74/74/74
f 72/72/72 76/76/76 74/74/74
f 74/74/74 77/77/77 75/75/75
f 74/74/74 76/76/76 77/77/77
f 75/75/75 77/77/77 78/78/78
f 78/78/78 77/77/77 79/79/79
f 77/77/77 76/76/76 80/80/80
f 80/80/80 79/79/79 77/77/77
f 81/81/81 80/80/80 76/76/76
f 79/79/79 80/80/80 82/82/82
f 80/80/80 81/81/81 83/83/83
f 83/83/83 82/82/82 80/80/80
f 84/84/84 83/83/83 81/81/81
f 85/85/85 83/83/83 84/84/84
f 82/82/82 83/83/83 86/86/86
f 85/85/85 87/87/87 83/83/83
f 86/86/86 83/83/83 87/87/87
f 85/85/85 88/88/88 87/87/87
f 87/87/87 89/89/89 86/86/86
f 87/87/87 88/88/88 89/89/89
f 86/86/86 89/89/89 90/90/90
f 88/88/88 91/91/91 89/89/89
f 89/89/89 92/92/92 90/90/90
f 89/89/89 91/91/91 92/92/92
f 90/90/90 92/92/92 93/93/93
f 91/91/91 94/94/94 92/92/92
f 92/92/92 95/95/95 93/93/93
f 92/92/92 94/94/94 95/95/95
f 93/93/93 95/95/95 96/96/96
f 94/94/94 97/97/97 95/95/95
f 95/95/95 98/98/98 96/96/96
f 95/95/95 97/97/97 98/98/98
f 96/96/96 98/98/98 99/99/99
f 98/98/98 100/100/100 99/99/99
f 97/97/97 101/101/101 98/98/98
f 102/102/102 100/100/100 98/98/98
f 103/103/103 101/101/101 97/97/97
f 102/102/102 104/104/104 100/100/100
f 103/103/103 105/105/105 101/101/101
f 106/106/106 104/104/104 102/102/102
f 107/107/107 105/105/105 103/103/103
f 105/105/105 107/107/107 108/108/108
f 108/108/108 107/107/107 109/109/109
f 104/104/104 106/106/106 110/110/110
f 110/110/110 106/106/106 111/111/111
f 109/109/109 112/112/112 108/108/108
f 109/109/109 113/113/113 112/112/112
f 112/112/112 113/113/113 114/114/114
f 115/115/115 112/112/112 114/114/114
f 111/111/111 116/116/116 110/110/110
f 116/116/116 117/117/117 110/110/110
f 118/118/118 117/117/117 116/116/116
f 118/118/118 116/116/116 119/119/119
f 114/114/114 120/120/120 115/115/115
f 120/120/120 121/121/121 115/115/115
f 122/122/122 121/121/121 120/120/120
f 122/122/122 120/120/120 123/123/123
f 123/123/123 124/124/124 122/122/122
f 123/123/123 125/125/125 124/124/124
f 124/124/124 125/125/125 126/126/126
f 119/119/119 127/127/127 118/118/118
f 119/119/119 128/128/128 127/127/127
f 127/127/127 128/128/128 129/129/129
f 130/130/130 127/127/127 129/129/129
f 129/129/129 131/131/131 130/130/130
f 131/131/131 132/132/132 130/130/130
f 133/133/133 132/132/132 131/131/131
