g M_HairOP02
v 0.044890538 1.6565931 -0.14315113
v 0.048779342 1.6613388 -0.15148039
v 0.04699997 1.6540267 -0.14402157
v 0.040052336 1.6536252 -0.13815922
v 0.042131595 1.6495237 -0.13905297
v 0.034304045 1.6451492 -0.13420878
v 0.032472987 1.650964 -0.13364883
v 0.025679588 1.6429591 -0.13224418
v 0.023768881 1.6495726 -0.12988617
v 0.018193169 1.6419315 -0.13134709
v 0.015398483 1.6470034 -0.12888168
v 0.01056385 1.6420236 -0.1301224
v 0.0010302925 1.6504414 -0.12655386
v 0.011328259 1.6521773 -0.12675475
v 0.019067725 1.6545854 -0.12808768
v 0.028246356 1.6533144 -0.13201092
v 0.025006294 1.6579844 -0.13030274
v 0.031965636 1.6577048 -0.13397318
v 0.028553657 1.6609789 -0.13233395
v 0.035190657 1.6627032 -0.1363723
v 0.031481285 1.6652387 -0.13477032
v 0.036836777 1.6691874 -0.13925165
v 0.0330209 1.6705232 -0.13765024
v 0.036275882 1.6746141 -0.14171898
v 0.032938972 1.6752872 -0.14031096
v 0.03433132 1.6800414 -0.14422417
v 0.031721067 1.6800853 -0.14299655
v 0.029186478 1.6871306 -0.1477088
vt 0.594261 0.048213005
vt 0.607458 0.057045996
vt 0.600504 0.046303988
vt 0.582492 0.042712986
vt 0.589766 0.039296985
vt 0.57405 0.031812012
vt 0.566406 0.037091017
vt 0.557539 0.026726007
vt 0.547904 0.032787025
vt 0.543313 0.022870004
vt 0.533002 0.02712202
vt 0.527835 0.020097017
vt 0.501538 0.024980009
vt 0.520354 0.030856013
vt 0.534324 0.036082983
vt 0.555244 0.038276017
vt 0.544657 0.04169798
vt 0.560634 0.04415399
vt 0.550755 0.046114028
vt 0.565065 0.050603986
vt 0.555195 0.051747978
vt 0.566004 0.05833298
vt 0.556764 0.058291018
vt 0.563212 0.06454903
vt 0.555441 0.06404698
vt 0.557762 0.07066202
vt 0.551887 0.069765985
vt 0.545584 0.078643024
vn 0.66792506 0.32132307 0.6712881
vn 0.72102404 0.40098304 0.56509906
vn 0.67597 0.307754 0.669591
vn 0.559811 0.118896 0.820046
vn 0.5669599 0.109507985 0.8164339
vn 0.36195806 0.0228215 0.93191504
vn 0.3978462 -0.017117608 0.9172924
vn 0.262644 -0.207805 0.94225
vn 0.30836594 -0.15766595 0.93811077
vn 0.17161196 -0.33290496 0.9272129
vn 0.15384902 -0.30791903 0.9388911
vn 0.10183098 -0.3324629 0.93760276
vn 0.07642629 -0.31999096 0.94433296
vn 0.119888954 -0.2838319 0.9513496
vn 0.28294387 -0.09585496 0.9543346
vn 0.42777893 -0.006925469 0.9038569
vn 0.42372602 -0.028235206 0.90535015
vn 0.4841651 0.055413116 0.8732202
vn 0.47992194 0.07969639 0.8736838
vn 0.504102 0.180778 0.84451205
vn 0.490446 0.21192099 0.8453119
vn 0.47852707 0.34210202 0.8086891
vn 0.457451 0.36932802 0.80891
vn 0.4335358 0.46077278 0.7744256
vn 0.41460603 0.478686 0.773926
vn 0.37132415 0.5534492 0.7455283
vn 0.35880312 0.56531215 0.74275327
vn 0.34731492 0.6044689 0.7169308
g M_HairOP02_0
f 3/3/3 2/2/2 1/1/1
f 4/4/4 3/3/3 1/1/1
f 5/5/5 3/3/3 4/4/4
f 5/5/5 4/4/4 6/6/6
f 6/6/6 4/4/4 7/7/7
f 6/6/6 7/7/7 8/8/8
f 8/8/8 7/7/7 9/9/9
f 9/9/9 10/10/10 8/8/8
f 9/9/9 11/11/11 10/10/10
f 10/10/10 11/11/11 12/12/12
f 13/13/13 12/12/12 11/11/11
f 13/13/13 11/11/11 14/14/14
f 14/14/14 11/11/11 9/9/9
f 15/15/15 14/14/14 9/9/9
f 15/15/15 9/9/9 16/16/16
f 16/16/16 17/17/17 15/15/15
f 16/16/16 18/18/18 17/17/17
f 17/17/17 18/18/18 19/19/19
f 20/20/20 19/19/19 18/18/18
f 21/21/21 19/19/19 20/20/20
f 21/21/21 20/20/20 22/22/22
f 21/21/21 22/22/22 23/23/23
f 22/22/22 24/24/24 23/23/23
f 23/23/23 24/24/24 25/25/25
f 26/26/26 25/25/25 24/24/24
f 27/27/27 25/25/25 26/26/26
f 26/26/26 28/28/28 27/27/27
