g M_HairBK03
v 0.012113386 1.4985958 -0.0757285
v 0.003469925 1.4995477 -0.07859157
v 0.0072713494 1.4914738 -0.074930124
v 0.013396727 1.502732 -0.081207156
v 0.020881193 1.5013902 -0.07671543
v -0 1.5038811 -0.08179115
v 0.017363701 1.4959444 -0.073943086
v 0.014292207 1.494423 -0.07349049
v 0.015773581 1.4884764 -0.07129042
v 0.020794528 1.4946512 -0.06975321
v 0.026148262 1.5005989 -0.06792812
v 0.015122334 1.5056913 -0.08904432
v -1.888511E-05 1.506096 -0.091008306
v -0 1.5038811 -0.08179115
v -0.013396727 1.502732 -0.081207156
v -0.015122334 1.5056913 -0.08904432
v 0.03188342 1.5063814 -0.07169483
v 0.024487324 1.5059811 -0.08214092
v 0.030555572 1.5116426 -0.08871726
v 0.016695708 1.5111065 -0.098189406
v 0.036272526 1.5069453 -0.06341851
v 0.040128604 1.5130394 -0.07465856
v 0.044043444 1.5219313 -0.093814865
v 0.033019986 1.5212283 -0.10368787
v 0.01872276 1.5208056 -0.111312084
v -0 1.5119302 -0.10066412
v -0 1.5204343 -0.11411876
v -0.01872276 1.5208056 -0.111312084
v -0.016695708 1.5111065 -0.098189406
v -0.033019986 1.5212283 -0.10368787
v 0.030061582 1.4992644 -0.06456982
v 0.02524103 1.4908057 -0.06466121
v 0.031032447 1.4991229 -0.059478138
v 0.038163744 1.507473 -0.05452691
v 0.044099454 1.5153533 -0.062597446
v 0.040128604 1.5130394 -0.07465856
v 0.055672508 1.5242835 -0.065884866
v 0.046693802 1.5193406 -0.04781845
v 0.046766624 1.518131 -0.042370223
v -0.030555572 1.5116426 -0.08871726
v 0.05137146 1.5226982 -0.081730105
v 0.06108285 1.5360599 -0.0962876
v 0.06744691 1.5370235 -0.08086654
v 0.051693052 1.53481 -0.10776757
v 0.033019986 1.5212283 -0.10368787
v 0.05922573 1.5249007 -0.04952084
v 0.058676373 1.5264294 -0.043345675
v 0.049163513 1.5207498 -0.038471833
v 0.054742772 1.5281851 -0.036332205
v 0.06966792 1.5415406 -0.03446807
v 0.07262821 1.5394671 -0.04114341
v 0.079089805 1.5645242 -0.02766766
v 0.088890664 1.5622811 -0.037064917
v 0.08879934 1.5625203 -0.048786122
v 0.07231481 1.5396324 -0.04981329
v 0.094838716 1.5626174 -0.062314052
v 0.07183109 1.5385216 -0.06377983
v 0.09457504 1.564028 -0.078966215
v 0.08792606 1.5627813 -0.09328527
v 0.081680484 1.5626364 -0.10674205
v 0.06604542 1.5595385 -0.124625035
v 0.052389283 1.5574433 -0.13118972
v 0.037820894 1.5346932 -0.11759993
v 0.042256337 1.5576651 -0.13668098
v 0.024369236 1.5566914 -0.14445582
v 0.02016881 1.5337503 -0.124570236
v 0.01872276 1.5208056 -0.111312084
v -0 1.5204343 -0.11411876
v -0 1.5333772 -0.12891743
v -0 1.5333772 -0.12891743
v 0.00012386798 1.556972 -0.14856489
v -0.02016881 1.5337503 -0.124570236
v -0.024515409 1.5567476 -0.14501785
v -0.01872276 1.5208056 -0.111312084
v -0.037820894 1.5346932 -0.11759993
v -0.04267 1.5574664 -0.13726132
v -0.052782133 1.5575032 -0.1314978
v -0.051693052 1.53481 -0.10776757
v -0.06502336 1.559593 -0.12641779
v -0.044043444 1.5219313 -0.093814865
v -0.06108285 1.5360599 -0.0962876
v -0.07813429 1.5627911 -0.109228484
v -0.08665448 1.5631138 -0.09308282
v -0.067401305 1.5370245 -0.08086655
v -0.09208284 1.5635588 -0.08018267
v -0.0716657 1.5385249 -0.06377989
v -0.06108285 1.5360599 -0.0962876
v -0.09414906 1.5625744 -0.06412486
v -0.05137146 1.5226982 -0.081730105
v -0.067401305 1.5370245 -0.08086655
v -0.040128604 1.5130394 -0.07465856
v -0.055672508 1.5242835 -0.065884866
v -0.07209502 1.5396366 -0.049813364
v -0.09105496 1.5620815 -0.04879788
v -0.0713859 1.5403191 -0.041894723
v -0.08820316 1.562413 -0.037312504
v -0.078681216 1.564286 -0.027446948
v -0.06966792 1.5415406 -0.03446807
v -0.054740965 1.5281851 -0.036332205
v -0.05860448 1.5264355 -0.043026242
v -0.059252415 1.5248867 -0.04936792
v -0.055672508 1.5242835 -0.065884866
v -0.044099454 1.5153533 -0.062597446
v -0.046693802 1.5193406 -0.04781845
v -0.059252415 1.5248867 -0.04936792
v -0.05860448 1.5264355 -0.043026242
v -0.049163513 1.5207498 -0.038471833
v -0.054740965 1.5281851 -0.036332205
v -0.038163744 1.507473 -0.05452691
v -0.046766624 1.518131 -0.042370223
v -0.036272526 1.5069453 -0.06341851
v -0.030061582 1.4992644 -0.06456982
v -0.031032447 1.4991229 -0.059478138
v -0.02524103 1.4908057 -0.06466121
v -0.026148262 1.5005989 -0.06792812
v -0.03188342 1.5063814 -0.07169483
v -0.020881193 1.5013902 -0.07671543
v -0.036272526 1.5069453 -0.06341851
v -0.020794528 1.4946512 -0.06975321
v -0.024487324 1.5059811 -0.08214092
v -0.013396727 1.502732 -0.081207156
v -0.017363701 1.4959444 -0.073943086
v -0.015773581 1.4884764 -0.07129042
v -0.014292207 1.494423 -0.07349049
v -0.012113386 1.4985958 -0.0757285
v -0.003469925 1.4995477 -0.07859157
v -0 1.5038811 -0.08179115
v -0.0072713494 1.4914738 -0.074930124
vt 0.862586 0.27525902
vt 0.86943 0.26490802
vt 0.856361 0.265364
vt 0.871224 0.27945203
vt 0.862666 0.288028
vt 0.877792 0.26231098
vt 0.856379 0.280433
vt 0.856159 0.275905
vt 0.848237 0.27372003
vt 0.850073 0.28392398
vt 0.850653 0.29467797
vt 0.88094 0.284101
vt 0.889489 0.265849
vt 0.877792 0.26231098
vt 0.881825 0.24439698
vt 0.892492 0.24591601
vt 0.856562 0.30441803
vt 0.870635 0.29583
vt 0.880264 0.30604
vt 0.89308 0.289531
vt 0.846275 0.311189
vt 0.862527 0.31857997
vt 0.889025 0.326944
vt 0.902246 0.313886
vt 0.914167 0.297666
vt 0.902332 0.26973498
vt 0.923094 0.27601802
vt 0.927671 0.253052
vt 0.905609 0.24813002
vt 0.926741 0.23294699
vt 0.84461 0.29794598
vt 0.840896 0.28587198
vt 0.838244 0.300147
vt 0.835062 0.315448
vt 0.847442 0.326667
vt 0.862527 0.31857997
vt 0.854379 0.345078
vt 0.829139 0.335456
vt 0.821901 0.33523297
vt 0.904099 0.22728503
vt 0.873896 0.336671
vt 0.895493 0.35415
vt 0.876876 0.363926
vt 0.90963 0.342135
vt 0.902246 0.313886
vt 0.834176 0.35250598
vt 0.826333 0.354531
vt 0.817493 0.34132499
vt 0.815675 0.354073
vt 0.818394 0.38002402
vt 0.828036 0.37906897
vt 0.810998 0.41202903
vt 0.828264 0.415065
vt 0.843053 0.41298097
vt 0.838947 0.377267
vt 0.861827 0.41479897
vt 0.856247 0.3728
vt 0.882902 0.41212702
vt 0.900216 0.40185797
vt 0.916866 0.393054
vt 0.938696 0.37204802
vt 0.948381 0.355227
vt 0.923711 0.326441
vt 0.957411 0.34360498
vt 0.970163 0.32252997
vt 0.935561 0.306095
vt 0.914167 0.297666
vt 0.923094 0.27601802
vt 0.946146 0.282997
vt 0.946146 0.282997
vt 0.982753 0.294258
vt 0.950158 0.257899
vt 0.988593 0.26349002
vt 0.927671 0.253052
vt 0.951569 0.234389
vt 0.989498 0.23860198
vt 0.988438 0.22379702
vt 0.94853 0.21353298
vt 0.990379 0.206878
vt 0.922975 0.21476299
vt 0.943372 0.195741
vt 0.983533 0.18014097
vt 0.973282 0.159414
vt 0.933318 0.17736602
vt 0.964653 0.14385003
vt 0.92107 0.15860897
vt 0.943372 0.195741
vt 0.950501 0.12885398
vt 0.91579 0.19830102
vt 0.933318 0.17736602
vt 0.896312 0.20701098
vt 0.904268 0.18051302
vt 0.909182 0.14524698
vt 0.934225 0.11736703
vt 0.901795 0.13812101
vt 0.922069 0.108411014
vt 0.905871 0.10136902
vt 0.894273 0.131648
vt 0.877469 0.151384
vt 0.886096 0.15683001
vt 0.891586 0.162965
vt 0.904268 0.18051302
vt 0.888281 0.19190198
vt 0.878025 0.17439097
vt 0.891586 0.162965
vt 0.886096 0.15683001
vt 0.871721 0.16296
vt 0.877469 0.151384
vt 0.871748 0.1943
vt 0.871895 0.17052698
vt 0.878694 0.20410502
vt 0.869925 0.214198
vt 0.865852 0.208812
vt 0.860094 0.222184
vt 0.873142 0.22028899
vt 0.883482 0.215469
vt 0.879455 0.23250502
vt 0.878694 0.20410502
vt 0.866683 0.228926
vt 0.890422 0.230434
vt 0.881825 0.24439698
vt 0.87 0.23534101
vt 0.859484 0.23641902
vt 0.867302 0.23899901
vt 0.872304 0.24309897
vt 0.872267 0.25551498
vt 0.877792 0.26231098
vt 0.861635 0.24788898
vn 0.29253697 -0.14837499 -0.94467294
vn 0.105052024 -0.20988406 -0.9720662
vn 0.24670409 0.012420803 -0.9690113
vn 0.34126213 -0.27656612 -0.8983604
vn 0.54137516 -0.115930036 -0.8327503
vn -1.0129998E-07 -0.38802493 -0.9216488
vn 0.43969974 0.010231295 -0.89808655
vn 0.38632807 0.012683502 -0.92227423
vn 0.42200693 0.013715698 -0.90648884
vn 0.57196724 0.011103204 -0.8202013
vn 0.77341086 0.010459197 -0.6338188
vn 0.34286115 -0.33406615 -0.87797844
vn -1.2720005E-07 -0.4200362 -0.90750736
vn 1.0129998E-07 -0.38802493 -0.9216488
vn -0.34126312 -0.27656505 -0.89836025
vn -0.34286115 -0.33406615 -0.87797844
vn 0.85359585 0.006128439 -0.5208999
vn 0.5893967 -0.13513094 -0.79646164
vn 0.63911396 -0.15707798 -0.7529009
vn 0.36081797 -0.296661 -0.884196
vn 0.9418567 0.008239547 -0.33591387
vn 0.90523154 0.0051956074 -0.42488673
vn 0.7483277 0.010395495 -0.66324776
vn 0.5385609 0.011433399 -0.842509
vn 0.30172688 0.011857696 -0.9533207
vn 3.3079988E-07 -0.16828893 -0.9857377
vn -0 0.010124797 -0.99994874
vn -0.30172688 0.011857696 -0.9533207
vn -0.36081797 -0.296661 -0.884196
vn -0.5385609 0.011433399 -0.842509
vn 0.8116998 0.013923198 -0.5839089
vn 0.80094475 0.013152597 -0.5985939
vn 0.9617491 0.010930101 -0.273714
vn 0.9879423 0.010958102 -0.15443404
vn 0.988318 0.00875294 -0.152154
vn 0.90523195 0.00519561 -0.42488596
vn 0.97809875 0.009597437 -0.20791994
vn 0.9988136 0.008287997 -0.047985382
vn 0.9946695 0.01622089 -0.101829946
vn -0.63911396 -0.15707798 -0.7529009
vn 0.8971973 0.010325704 -0.44150916
vn 0.82090884 0.018203698 -0.57076895
vn 0.9270992 0.017692603 -0.37439808
vn 0.6657629 0.018663397 -0.7459299
vn 0.5385617 0.011433394 -0.84250844
vn 0.9999449 0.0070253396 0.0077958293
vn 0.94975406 0.0095907 0.31285
vn 0.974356 0.0048762094 0.22495899
vn 0.88030976 0.014596496 0.4741749
vn 0.92426306 0.0211092 0.381172
vn 0.98313105 0.019749302 0.18183301
vn 0.8714863 0.02699771 0.48967618
vn 0.9747892 0.026393803 0.22156103
vn 0.9985404 0.02650921 0.04705722
vn 0.9987733 0.018964406 -0.045739915
vn 0.9948756 0.025960186 -0.09771696
vn 0.98540086 0.017370397 -0.16936196
vn 0.9506246 0.02589749 -0.30926087
vn 0.8884288 0.026891295 -0.4582259
vn 0.81662333 0.02691381 -0.57654315
vn 0.65293497 0.026846498 -0.756938
vn 0.51149106 0.0264633 -0.85888106
vn 0.47150567 0.019223487 -0.8816534
vn 0.42233178 0.026814388 -0.90604466
vn 0.2549741 0.026475407 -0.9665853
vn 0.27551496 0.018697597 -0.9611149
vn 0.30172783 0.011857691 -0.9533203
vn -0 0.010124797 -0.99994874
vn 0.0012803605 0.018433306 -0.9998293
vn -0.0012803605 0.018433306 -0.9998293
vn 0.0041511916 0.02653251 -0.9996394
vn -0.27570105 0.018559407 -0.9610643
vn -0.251089 0.026425304 -0.9676032
vn -0.30172783 0.011857691 -0.9533203
vn -0.4720171 0.019067204 -0.88138324
vn -0.42573807 0.026609205 -0.9044551
vn -0.513522 0.026305305 -0.8576731
vn -0.66655576 0.018574093 -0.74522376
vn -0.64576787 0.026922999 -0.7630589
vn -0.7483277 0.010395495 -0.66324776
vn -0.8230218 0.018517394 -0.5677079
vn -0.8026293 0.027318507 -0.5958522
vn -0.88420886 0.027304597 -0.46629292
vn -0.9266486 0.018053392 -0.37549484
vn -0.94118357 0.026349591 -0.33686686
vn -0.98332894 0.018124798 -0.18092999
vn -0.82090884 0.018203698 -0.57076895
vn -0.9879409 0.026012698 -0.15263098
vn -0.8971973 0.010325704 -0.44150916
vn -0.9270992 0.017692603 -0.37439808
vn -0.90523154 0.0051956074 -0.42488673
vn -0.97809875 0.009597437 -0.20791994
vn -0.99974996 0.018778998 0.012138999
vn -0.998718 0.0255935 0.0436734
vn -0.98341435 0.019729305 0.18029706
vn -0.9623119 0.025519898 0.27074796
vn -0.8916689 0.026394896 0.45191795
vn -0.97163874 0.021237295 0.23551495
vn -0.890524 0.015442999 0.454674
vn -0.9503584 0.011390404 0.31094915
vn -0.99905795 0.0071765496 0.042798698
vn -0.9758288 0.0092607895 -0.21833995
vn -0.988318 0.00875294 -0.152154
vn -0.9988136 0.008287997 -0.047985382
vn -0.9999449 0.0070253396 0.0077958293
vn -0.94975406 0.0095907 0.31285
vn -0.974356 0.0048762094 0.22495899
vn -0.88030976 0.014596496 0.4741749
vn -0.9879423 0.010958102 -0.15443404
vn -0.9946695 0.01622089 -0.101829946
vn -0.9418567 0.008239547 -0.33591387
vn -0.8116998 0.013923198 -0.5839089
vn -0.9617491 0.010930101 -0.273714
vn -0.80094475 0.013152597 -0.5985939
vn -0.77341086 0.010459197 -0.6338188
vn -0.85359585 0.006128439 -0.5208999
vn -0.54137516 -0.115930036 -0.8327503
vn -0.9418567 0.008239547 -0.33591387
vn -0.57196724 0.011103204 -0.8202013
vn -0.5893967 -0.13513094 -0.79646164
vn -0.34126213 -0.27656612 -0.8983604
vn -0.43969974 0.010231295 -0.89808655
vn -0.42200693 0.013715698 -0.90648884
vn -0.38632807 0.012683502 -0.92227423
vn -0.29253697 -0.14837499 -0.94467294
vn -0.105052024 -0.20988406 -0.9720662
vn 1.0129998E-07 -0.38802493 -0.9216488
vn -0.24670409 0.012420803 -0.9690113
g M_HairBK03_0
f 3/3/3 2/2/2 1/1/1
f 2/2/2 4/4/4 1/1/1
f 1/1/1 4/4/4 5/5/5
f 2/2/2 6/6/6 4/4/4
f 5/5/5 7/7/7 1/1/1
f 7/7/7 8/8/8 1/1/1
f 9/9/9 8/8/8 7/7/7
f 9/9/9 7/7/7 10/10/10
f 10/10/10 7/7/7 5/5/5
f 11/11/11 10/10/10 5/5/5
f 4/4/4 12/12/12 5/5/5
f 12/12/12 4/4/4 13/13/13
f 14/14/14 13/13/13 4/4/4
f 14/14/14 15/15/15 13/13/13
f 16/16/16 13/13/13 15/15/15
f 5/5/5 17/17/17 11/11/11
f 5/5/5 12/12/12 18/18/18
f 5/5/5 18/18/18 17/17/17
f 18/18/18 12/12/12 19/19/19
f 17/17/17 18/18/18 19/19/19
f 20/20/20 12/12/12 13/13/13
f 20/20/20 19/19/19 12/12/12
f 17/17/17 21/21/21 11/11/11
f 22/22/22 17/17/17 19/19/19
f 17/17/17 22/22/22 21/21/21
f 19/19/19 23/23/23 22/22/22
f 20/20/20 24/24/24 19/19/19
f 24/24/24 23/23/23 19/19/19
f 20/20/20 25/25/25 24/24/24
f 26/26/26 25/25/25 20/20/20
f 20/20/20 13/13/13 26/26/26
f 26/26/26 27/27/27 25/25/25
f 26/26/26 28/28/28 27/27/27
f 29/29/29 26/26/26 13/13/13
f 26/26/26 29/29/29 28/28/28
f 29/29/29 13/13/13 16/16/16
f 29/29/29 30/30/30 28/28/28
f 11/11/11 21/21/21 31/31/31
f 11/11/11 31/31/31 32/32/32
f 32/32/32 31/31/31 33/33/33
f 33/33/33 31/31/31 34/34/34
f 34/34/34 31/31/31 21/21/21
f 34/34/34 21/21/21 35/35/35
f 35/35/35 21/21/21 36/36/36
f 36/36/36 37/37/37 35/35/35
f 38/38/38 34/34/34 35/35/35
f 35/35/35 37/37/37 38/38/38
f 39/39/39 34/34/34 38/38/38
f 29/29/29 16/16/16 40/40/40
f 29/29/29 40/40/40 30/30/30
f 36/36/36 41/41/41 37/37/37
f 41/41/41 36/36/36 23/23/23
f 41/41/41 23/23/23 42/42/42
f 41/41/41 43/43/43 37/37/37
f 42/42/42 43/43/43 41/41/41
f 42/42/42 23/23/23 44/44/44
f 45/45/45 44/44/44 23/23/23
f 38/38/38 37/37/37 46/46/46
f 46/46/46 47/47/47 38/38/38
f 38/38/38 47/47/47 48/48/48
f 49/49/49 48/48/48 47/47/47
f 49/49/49 47/47/47 50/50/50
f 51/51/51 50/50/50 47/47/47
f 51/51/51 47/47/47 46/46/46
f 52/52/52 50/50/50 51/51/51
f 51/51/51 53/53/53 52/52/52
f 54/54/54 53/53/53 51/51/51
f 55/55/55 51/51/51 46/46/46
f 55/55/55 54/54/54 51/51/51
f 46/46/46 37/37/37 55/55/55
f 56/56/56 54/54/54 55/55/55
f 57/57/57 55/55/55 37/37/37
f 56/56/56 55/55/55 57/57/57
f 57/57/57 37/37/37 43/43/43
f 57/57/57 43/43/43 56/56/56
f 58/58/58 56/56/56 43/43/43
f 59/59/59 58/58/58 43/43/43
f 43/43/43 42/42/42 59/59/59
f 59/59/59 42/42/42 60/60/60
f 60/60/60 42/42/42 61/61/61
f 44/44/44 61/61/61 42/42/42
f 62/62/62 61/61/61 44/44/44
f 44/44/44 63/63/63 62/62/62
f 64/64/64 62/62/62 63/63/63
f 44/44/44 45/45/45 63/63/63
f 64/64/64 63/63/63 65/65/65
f 63/63/63 45/45/45 66/66/66
f 66/66/66 65/65/65 63/63/63
f 67/67/67 66/66/66 45/45/45
f 67/67/67 68/68/68 66/66/66
f 66/66/66 68/68/68 69/69/69
f 65/65/65 66/66/66 70/70/70
f 65/65/65 70/70/70 71/71/71
f 68/68/68 72/72/72 69/69/69
f 73/73/73 71/71/71 70/70/70
f 73/73/73 70/70/70 72/72/72
f 74/74/74 72/72/72 68/68/68
f 74/74/74 30/30/30 72/72/72
f 72/72/72 75/75/75 73/73/73
f 75/75/75 72/72/72 30/30/30
f 76/76/76 73/73/73 75/75/75
f 76/76/76 75/75/75 77/77/77
f 78/78/78 77/77/77 75/75/75
f 78/78/78 75/75/75 30/30/30
f 77/77/77 78/78/78 79/79/79
f 30/30/30 80/80/80 78/78/78
f 30/30/30 40/40/40 80/80/80
f 78/78/78 81/81/81 79/79/79
f 82/82/82 79/79/79 81/81/81
f 83/83/83 82/82/82 81/81/81
f 84/84/84 83/83/83 81/81/81
f 83/83/83 84/84/84 85/85/85
f 86/86/86 85/85/85 84/84/84
f 87/87/87 78/78/78 80/80/80
f 85/85/85 86/86/86 88/88/88
f 89/89/89 87/87/87 80/80/80
f 87/87/87 89/89/89 90/90/90
f 89/89/89 80/80/80 91/91/91
f 40/40/40 91/91/91 80/80/80
f 89/89/89 92/92/92 90/90/90
f 86/86/86 90/90/90 92/92/92
f 91/91/91 92/92/92 89/89/89
f 88/88/88 86/86/86 93/93/93
f 88/88/88 93/93/93 94/94/94
f 93/93/93 95/95/95 94/94/94
f 94/94/94 95/95/95 96/96/96
f 95/95/95 97/97/97 96/96/96
f 97/97/97 95/95/95 98/98/98
f 98/98/98 95/95/95 99/99/99
f 99/99/99 95/95/95 100/100/100
f 95/95/95 101/101/101 100/100/100
f 93/93/93 101/101/101 95/95/95
f 101/101/101 93/93/93 86/86/86
f 101/101/101 86/86/86 102/102/102
f 91/91/91 103/103/103 92/92/92
f 103/103/103 104/104/104 92/92/92
f 104/104/104 105/105/105 92/92/92
f 105/105/105 104/104/104 106/106/106
f 104/104/104 107/107/107 106/106/106
f 108/108/108 106/106/106 107/107/107
f 104/104/104 103/103/103 109/109/109
f 110/110/110 104/104/104 109/109/109
f 103/103/103 91/91/91 111/111/111
f 109/109/109 103/103/103 111/111/111
f 109/109/109 111/111/111 112/112/112
f 113/113/113 109/109/109 112/112/112
f 114/114/114 113/113/113 112/112/112
f 115/115/115 114/114/114 112/112/112
f 115/115/115 112/112/112 111/111/111
f 116/116/116 115/115/115 111/111/111
f 117/117/117 115/115/115 116/116/116
f 116/116/116 118/118/118 91/91/91
f 91/91/91 40/40/40 116/116/116
f 115/115/115 117/117/117 119/119/119
f 116/116/116 40/40/40 120/120/120
f 117/117/117 116/116/116 120/120/120
f 120/120/120 40/40/40 16/16/16
f 117/117/117 120/120/120 16/16/16
f 121/121/121 117/117/117 16/16/16
f 119/119/119 117/117/117 122/122/122
f 123/123/123 119/119/119 122/122/122
f 123/123/123 122/122/122 124/124/124
f 122/122/122 125/125/125 124/124/124
f 117/117/117 125/125/125 122/122/122
f 125/125/125 117/117/117 121/121/121
f 126/126/126 125/125/125 121/121/121
f 126/126/126 121/121/121 127/127/127
f 128/128/128 125/125/125 126/126/126
