g M_Hair_Aho
v -0.013922543 1.6847559 -0.07488521
v -0.016184201 1.6854807 -0.076210104
v -0.00976531 1.68093 -0.07990173
v -0.017086932 1.6870533 -0.06934423
v -0.02049774 1.6877356 -0.07097799
v -0.019645037 1.6887019 -0.063125364
v -0.02402224 1.6892703 -0.06498133
v -0.02208945 1.6897252 -0.05630022
v -0.027205663 1.6902368 -0.05812845
v -0.02512084 1.6910206 -0.044764403
v -0.03167999 1.6914649 -0.046732146
v -0.028145017 1.6919268 -0.033028565
v -0.035522614 1.6920649 -0.03541195
v -0.031128092 1.6922264 -0.02048502
v -0.039386842 1.6914489 -0.021734953
v -0.033677623 1.6908765 -0.007999649
v -0.04305126 1.6894838 -0.008494501
v -0.04593115 1.6864747 0.0057583996
v -0.035385497 1.6870954 0.005966759
v -0.035754528 1.682012 0.019706381
v -0.04674652 1.679696 0.021938954
v -0.034996755 1.6756603 0.030720506
v -0.043935165 1.6729562 0.031848695
v -0.031636994 1.6684442 0.0368634
v -0.03815607 1.664856 0.039271545
v -0.03226354 1.6579958 0.04339793
v -0.027525501 1.6614407 0.040595755
v -0.026558684 1.6519591 0.045242403
v -0.023487713 1.6547942 0.041904517
v -0.022815246 1.6478332 0.04526821
v -0.021009274 1.650359 0.041942406
v -0.019251078 1.6472535 0.041650582
v -0.01904891 1.6435378 0.04462139
v -0.00976531 1.68093 -0.07990173
v -0.016184201 1.6854807 -0.076210104
v -0.016013443 1.6826267 -0.07576133
v -0.02112068 1.6842097 -0.071177326
v -0.02049774 1.6877356 -0.07097799
v -0.025190849 1.6852006 -0.06554695
v -0.02402224 1.6892703 -0.06498133
v -0.029193802 1.6860242 -0.05840809
v -0.027205663 1.6902368 -0.05812845
v -0.0339975 1.686345 -0.047891025
v -0.03167999 1.6914649 -0.046732146
v -0.038480263 1.6861312 -0.037236024
v -0.035522614 1.6920649 -0.03541195
v -0.042964093 1.6850082 -0.024212055
v -0.0460865 1.6826253 -0.0106215095
v -0.04593115 1.6864747 0.0057583996
v -0.04821337 1.6793864 0.002658652
v -0.04674652 1.679696 0.021938954
v -0.048336904 1.6735933 0.017673263
v -0.046108503 1.6685793 0.027032584
v -0.043935165 1.6729562 0.031848695
v -0.04045677 1.6620867 0.03520835
v -0.03815607 1.664856 0.039271545
v -0.034350496 1.6555635 0.040057804
v -0.03226354 1.6579958 0.04339793
v -0.028021926 1.6497198 0.0431578
v -0.026558684 1.6519591 0.045242403
v -0.024012854 1.6458399 0.04411674
v -0.022815246 1.6478332 0.04526821
v -0.020229645 1.6428213 0.043870885
v -0.01904891 1.6435378 0.04462139
vt 0.273508 0.38807797
vt 0.279541 0.38665497
vt 0.266572 0.370516
vt 0.281679 0.402192
vt 0.289047 0.39846897
vt 0.289516 0.41500598
vt 0.297646 0.409988
vt 0.29753 0.42719197
vt 0.306121 0.42177403
vt 0.308288 0.44640303
vt 0.318717 0.44009697
vt 0.31931 0.464759
vt 0.330101 0.457192
vt 0.331024 0.483225
vt 0.343184 0.47670603
vt 0.342736 0.500771
vt 0.356247 0.494403
vt 0.369061 0.512693
vt 0.354944 0.520132
vt 0.367053 0.539292
vt 0.383219 0.534014
vt 0.377862 0.555768
vt 0.390665 0.549618
vt 0.385094 0.570188
vt 0.396991 0.566928
vt 0.401314 0.58187604
vt 0.390863 0.58391297
vt 0.404779 0.59545004
vt 0.395654 0.59682703
vt 0.407316 0.60483
vt 0.399041 0.605886
vt 0.402098 0.612882
vt 0.410824 0.61478496
vt 0.266572 0.370516
vt 0.279541 0.38665497
vt 0.282577 0.380776
vt 0.294046 0.392631
vt 0.289047 0.39846897
vt 0.303717 0.40410203
vt 0.297646 0.409988
vt 0.313336 0.41695303
vt 0.306121 0.42177403
vt 0.326495 0.433504
vt 0.318717 0.44009697
vt 0.338971 0.449632
vt 0.330101 0.457192
vt 0.352843 0.468405
vt 0.36627 0.487177
vt 0.369061 0.512693
vt 0.378763 0.505388
vt 0.383219 0.534014
vt 0.39177 0.52660596
vt 0.398975 0.54312
vt 0.390665 0.549618
vt 0.404119 0.561882
vt 0.396991 0.566928
vt 0.408291 0.578616
vt 0.401314 0.58187604
vt 0.410584 0.59437
vt 0.404779 0.59545004
vt 0.41207 0.604652
vt 0.407316 0.60483
vt 0.413444 0.613433
vt 0.410824 0.61478496
vn -0.015393894 0.9480607 -0.3177169
vn -0.041573986 0.9463977 -0.3203169
vn 0.022651289 0.93052864 -0.36551785
vn -0.06751652 0.96149737 -0.2663911
vn -0.09833174 0.9564514 -0.27482986
vn -0.103130005 0.97083604 -0.21642901
vn -0.13772501 0.9642621 -0.22634102
vn -0.12936804 0.97780836 -0.16478705
vn -0.16730294 0.9702296 -0.17511193
vn -0.15820794 0.9838817 -0.08334857
vn -0.20535594 0.9740968 -0.09468008
vn -0.18800503 0.98216313 0.0031277305
vn -0.27920902 0.9599351 -0.023811301
vn -0.223366 0.96964407 0.09948881
vn -0.33317202 0.9398341 0.07555201
vn -0.24375196 0.9498598 0.19583495
vn -0.36185402 0.91566706 0.17497301
vn -0.31806698 0.8992619 0.30026898
vn -0.24590091 0.91930366 0.30726787
vn -0.250553 0.87584394 0.41245696
vn -0.32503888 0.8447378 0.4251679
vn -0.24788201 0.8188671 0.51769805
vn -0.30886498 0.794771 0.52243793
vn -0.21399811 0.77044934 0.60051024
vn -0.25890297 0.74567896 0.6139479
vn -0.18827198 0.703684 0.685115
vn -0.14558603 0.7302331 0.66750604
vn -0.07775652 0.6784511 0.73051906
vn -0.0209294 0.7009919 0.712862
vn 0.04477681 0.6735862 0.7377511
vn 0.088981345 0.68229336 0.72564334
vn 0.10944601 0.6877061 0.71769214
vn 0.0990204 0.68410283 0.7226329
vn -0.31076404 0.69561505 -0.64772314
vn -0.34883288 0.7567908 -0.5527958
vn -0.373093 0.706087 -0.601866
vn -0.36466396 0.821178 -0.438961
vn -0.32751295 0.8554828 -0.4011039
vn -0.3749941 0.8623602 -0.3401681
vn -0.34237605 0.88482124 -0.3160221
vn -0.40305197 0.87497693 -0.268262
vn -0.36122087 0.8981827 -0.25057393
vn -0.41809097 0.8917449 -0.17317899
vn -0.36986405 0.91672915 -0.15102401
vn -0.4333989 0.8976348 -0.08010698
vn -0.35933396 0.9320979 -0.04552489
vn -0.45740977 0.88876355 0.029589484
vn -0.4950098 0.8582027 0.13584295
vn -0.45520404 0.849187 0.267714
vn -0.525304 0.814702 0.24559398
vn -0.47600904 0.77940303 0.40736502
vn -0.546167 0.745671 0.38167596
vn -0.52927417 0.68374217 0.50236017
vn -0.47333398 0.70471597 0.52851695
vn -0.5101153 0.58807737 0.62765235
vn -0.4689011 0.60092306 0.64732003
vn -0.48235714 0.48964113 0.7263492
vn -0.438945 0.51513 0.736185
vn -0.40914994 0.42526495 0.8073079
vn -0.3715231 0.45264015 0.8106093
vn -0.289852 0.385883 0.875831
vn -0.26993588 0.4136968 0.86947656
vn -0.26272288 0.33762285 0.9038736
vn -0.26138413 0.3408231 0.9030604
g M_Hair_Aho_0
f 3/3/3 2/2/2 1/1/1
f 1/1/1 2/2/2 4/4/4
f 5/5/5 4/4/4 2/2/2
f 5/5/5 6/6/6 4/4/4
f 5/5/5 7/7/7 6/6/6
f 8/8/8 6/6/6 7/7/7
f 8/8/8 7/7/7 9/9/9
f 8/8/8 9/9/9 10/10/10
f 11/11/11 10/10/10 9/9/9
f 10/10/10 11/11/11 12/12/12
f 13/13/13 12/12/12 11/11/11
f 13/13/13 14/14/14 12/12/12
f 13/13/13 15/15/15 14/14/14
f 16/16/16 14/14/14 15/15/15
f 16/16/16 15/15/15 17/17/17
f 17/17/17 18/18/18 16/16/16
f 19/19/19 16/16/16 18/18/18
f 19/19/19 18/18/18 20/20/20
f 20/20/20 18/18/18 21/21/21
f 20/20/20 21/21/21 22/22/22
f 22/22/22 21/21/21 23/23/23
f 22/22/22 23/23/23 24/24/24
f 24/24/24 23/23/23 25/25/25
f 25/25/25 26/26/26 24/24/24
f 24/24/24 26/26/26 27/27/27
f 28/28/28 27/27/27 26/26/26
f 29/29/29 27/27/27 28/28/28
f 28/28/28 30/30/30 29/29/29
f 30/30/30 31/31/31 29/29/29
f 31/31/31 30/30/30 32/32/32
f 33/33/33 32/32/32 30/30/30
f 36/36/36 35/35/35 34/34/34
f 36/36/36 37/37/37 35/35/35
f 38/38/38 35/35/35 37/37/37
f 37/37/37 39/39/39 38/38/38
f 38/38/38 39/39/39 40/40/40
f 41/41/41 40/40/40 39/39/39
f 42/42/42 40/40/40 41/41/41
f 43/43/43 42/42/42 41/41/41
f 43/43/43 44/44/44 42/42/42
f 45/45/45 44/44/44 43/43/43
f 45/45/45 46/46/46 44/44/44
f 45/45/45 47/47/47 46/46/46
f 46/46/46 47/47/47 15/15/15
f 15/15/15 47/47/47 17/17/17
f 48/48/48 17/17/17 47/47/47
f 17/17/17 48/48/48 49/49/49
f 50/50/50 49/49/49 48/48/48
f 50/50/50 51/51/51 49/49/49
f 52/52/52 51/51/51 50/50/50
f 52/52/52 53/53/53 51/51/51
f 54/54/54 51/51/51 53/53/53
f 53/53/53 55/55/55 54/54/54
f 56/56/56 54/54/54 55/55/55
f 55/55/55 57/57/57 56/56/56
f 56/56/56 57/57/57 58/58/58
f 59/59/59 58/58/58 57/57/57
f 60/60/60 58/58/58 59/59/59
f 59/59/59 61/61/61 60/60/60
f 62/62/62 60/60/60 61/61/61
f 61/61/61 63/63/63 62/62/62
f 64/64/64 62/62/62 63/63/63
