g M_HairBK01
v -0.01896028 1.4929637 -0.071085535
v -0.01791002 1.4855566 -0.07191734
v -0.011370446 1.4933703 -0.07363016
v -0.021870086 1.5033474 -0.074424006
v -0.01896028 1.4929637 -0.071085535
v -0.025425393 1.4929575 -0.06466101
v -0.02271305 1.4852318 -0.06654591
v -0.01791002 1.4855566 -0.07191734
v -0.019738613 1.4798245 -0.06882398
v -0.016049564 1.4804573 -0.07249217
v -0.01562787 1.4750723 -0.07155934
v -0.013264882 1.4762148 -0.07343324
v -0.009337763 1.4716008 -0.07500649
v -0.010945607 1.4765595 -0.072796464
v -0.011377548 1.4802662 -0.072061785
v -0.01791002 1.4855566 -0.07191734
v -0.011528313 1.4851977 -0.07239355
v -0.011370446 1.4933703 -0.07363016
v -0.029252747 1.5032017 -0.06676336
v -0.028267303 1.5146623 -0.08011492
v -0.042760924 1.516783 -0.062953115
v -0.016106201 1.5139223 -0.08703359
v -0.013134603 1.5031179 -0.07924303
v -0.021870086 1.5033474 -0.074424006
v -0.025944177 1.529686 -0.0995729
v -0.04403718 1.5306998 -0.08697748
v -0.05361867 1.5349429 -0.07342248
v -0.046939313 1.5242093 -0.067077786
v -0.061363257 1.5366795 -0.05443297
v -0.05360009 1.5259706 -0.052318677
v -0.046444733 1.5151628 -0.050385036
v -0.037694093 1.5035789 -0.058051
v 0.03697115 1.499561 -0.027030962
v 0.03708013 1.4974775 -0.029608244
v 0.03655716 1.493727 -0.025733745
v 0.03829876 1.5010449 -0.033578303
v 0.039082214 1.5057307 -0.027527861
v 0.038730096 1.5045947 -0.036397584
v 0.043411903 1.5127707 -0.02776973
v 0.04650994 1.5176091 -0.036558136
v 0.04633049 1.5180389 -0.026513595
v 0.050303 1.5266198 -0.023842277
v 0.05361733 1.5271271 -0.037958313
v 0.05767272 1.5358033 -0.028831188
v 0.061096754 1.5395734 -0.039041694
v 0.05360009 1.5259706 -0.052318677
v 0.061363257 1.5366795 -0.05443297
v 0.046444733 1.5151628 -0.050385036
v 0.03895549 1.5041815 -0.0470506
v 0.038730096 1.5045947 -0.036397584
v 1.5046062E-08 1.5143416 -0.092136696
v 0.025944177 1.529686 -0.0995729
v -0 1.528824 -0.10628023
v 0.016106201 1.5139223 -0.08703359
v 0.013134603 1.5031179 -0.07924303
v -9.4035946E-05 1.5036621 -0.08377988
v 7.218122E-07 1.4930806 -0.078431495
v 0.011370446 1.4933703 -0.07363016
v 0.007979765 1.4858176 -0.07346659
v -0.013134603 1.5031179 -0.07924303
v -0.016106201 1.5139223 -0.08703359
v -0.025944177 1.529686 -0.0995729
v -0 1.528824 -0.10628023
v -0.011370446 1.4933703 -0.07363016
v -0.009742456 1.4847847 -0.0731326
v 0.0006360799 1.4849555 -0.077124156
v 0.0060691824 1.4789864 -0.07375062
v -0.0074523925 1.4790864 -0.07390886
v 0.0011284652 1.4794058 -0.076758705
v 0.0057086777 1.4751318 -0.07457594
v -0.0019987698 1.4749658 -0.07594767
v -0.0037299346 1.4737538 -0.07504651
v 0.00019108427 1.4701241 -0.07605256
v 0.0023165517 1.4751298 -0.07675159
v 0.0052065086 1.4686183 -0.0755636
v 0.034831103 1.4912804 -0.047674216
v 0.038730096 1.5045947 -0.036397584
v 0.03895549 1.5041815 -0.0470506
v 0.03517418 1.4912248 -0.041866083
v 0.034831103 1.4912804 -0.047674216
v 0.034546424 1.4835659 -0.04650644
v 0.03517418 1.4912248 -0.041866083
v 0.034513712 1.4843663 -0.04940869
v 0.03496121 1.4788967 -0.050992493
v -0.03708013 1.4974775 -0.029608244
v -0.03697115 1.499561 -0.027030962
v -0.03655716 1.493727 -0.025733745
v -0.03829876 1.5010449 -0.033578303
v -0.039934993 1.5057307 -0.027527861
v -0.04031456 1.5045947 -0.036397584
v -0.04279883 1.5127707 -0.02776973
v -0.047707766 1.5176091 -0.036558136
v -0.045717414 1.5180389 -0.026513595
v -0.050303 1.5266198 -0.023842277
v -0.05361733 1.5271271 -0.037958313
v -0.05767272 1.5358033 -0.028831188
v -0.060295638 1.5393255 -0.038596116
v -0.05360009 1.5259706 -0.052318677
v -0.061363257 1.5366795 -0.05443297
v -0.046444733 1.5151628 -0.050385036
v -0.039436363 1.5041815 -0.0470506
v -0.04031456 1.5045947 -0.036397584
v -0.039436363 1.5041815 -0.0470506
v -0.037694093 1.5035789 -0.058051
v -0.034036215 1.4912858 -0.051228657
v -0.034831878 1.4912804 -0.047674216
v -0.0335264 1.4859407 -0.051311906
v -0.034831878 1.4912804 -0.047674216
v -0.04031456 1.5045947 -0.036397584
v -0.03520436 1.4912248 -0.041866083
v -0.039436363 1.5041815 -0.0470506
v -0.034435485 1.4835659 -0.046027828
v -0.034831878 1.4912804 -0.047674216
v -0.03520436 1.4912248 -0.041866083
v -0.034402777 1.4843663 -0.048930075
v -0.035274573 1.4788967 -0.050992493
v -0.029252747 1.5032017 -0.06676336
v -0.042760924 1.516783 -0.062953115
v -0.037694093 1.5035789 -0.058051
v -0.025425393 1.4929575 -0.06466101
v 0.033242617 1.4836292 -0.053907566
v 0.034372613 1.4859407 -0.051311906
v 0.03285467 1.4924251 -0.058783006
v 0.030404888 1.4848078 -0.06041609
v 0.03085874 1.4795495 -0.05829572
v 0.025425393 1.4929575 -0.06466101
v 0.025152806 1.485557 -0.0638426
v 0.029208655 1.4806325 -0.06218693
v 0.025279952 1.4814565 -0.063916676
v 0.02808642 1.476336 -0.0622376
v 0.025379708 1.4778976 -0.0641725
v 0.027350144 1.4773949 -0.06389986
v 0.025998697 1.4738638 -0.06528145
v 0.03721322 1.5035789 -0.058051
v 0.025425393 1.4929575 -0.06466101
v 0.029252747 1.5032017 -0.06676336
v 0.042760924 1.516783 -0.062953115
v 0.034932204 1.4912858 -0.051228657
v 0.034372613 1.4859407 -0.051311906
v 0.034831103 1.4912804 -0.047674216
v 0.03895549 1.5041815 -0.0470506
v 0.046444733 1.5151628 -0.050385036
v 0.05360009 1.5259706 -0.052318677
v 0.046939313 1.5242093 -0.067077786
v 0.028267303 1.5146623 -0.08011492
v 0.061363257 1.5366795 -0.05443297
v 0.05361867 1.5349429 -0.07342248
v 0.04403718 1.5306998 -0.08697748
v 0.025944177 1.529686 -0.0995729
v 0.029252747 1.5032017 -0.06676336
v 0.016106201 1.5139223 -0.08703359
v 0.021870086 1.5033474 -0.074424006
v 0.013134603 1.5031179 -0.07924303
v 0.025425393 1.4929575 -0.06466101
v 0.011370446 1.4933703 -0.07363016
v 0.01896028 1.4929637 -0.071085535
v 0.02271305 1.4852318 -0.06654591
v 0.01791002 1.4855566 -0.07191734
v 0.011528313 1.4851977 -0.07239355
v 0.019738613 1.4798245 -0.06882398
v 0.011377548 1.4802662 -0.072061785
v 0.016049564 1.4804573 -0.07249217
v 0.01562787 1.4750723 -0.07155934
v 0.013264882 1.4762148 -0.07343324
v 0.010945607 1.4765595 -0.072796464
v 0.009337763 1.4716008 -0.07500649
v -0.03285467 1.4924251 -0.058783006
v -0.0335264 1.4859407 -0.051311906
v -0.032617874 1.4836292 -0.053907566
v -0.030404888 1.4848078 -0.06041609
v -0.030309325 1.4795495 -0.05829572
v -0.029208655 1.4806325 -0.06218693
v -0.02808642 1.476336 -0.0622376
v -0.027350144 1.4773949 -0.06389986
v -0.025998697 1.4738638 -0.06528145
v -0.025379708 1.4778976 -0.0641725
v -0.025279952 1.4814565 -0.063916676
v -0.025152806 1.485557 -0.0638426
v -0.037694093 1.5035789 -0.058051
v -0.034036215 1.4912858 -0.051228657
v -0.0335264 1.4859407 -0.051311906
vt 0.688043 0.09117901
vt 0.691804 0.102202
vt 0.707287 0.09472698
vt 0.6864181 0.072063744
vt 0.688043 0.09117901
vt 0.667501 0.090255976
vt 0.676064 0.10201299
vt 0.691804 0.102202
vt 0.683936 0.111766994
vt 0.696102 0.111301005
vt 0.694903 0.12255597
vt 0.702348 0.12055302
vt 0.710242 0.13095802
vt 0.70747 0.11966598
vt 0.706453 0.11147499
vt 0.691804 0.102202
vt 0.706272 0.10315597
vt 0.707287 0.09472698
vt 0.6661396 0.06994802
vt 0.682064 0.042994976
vt 0.64803 0.041812003
vt 0.706442 0.043012977
vt 0.707397 0.072431564
vt 0.6864181 0.072063744
vt 0.700973 0.012498975
vt 0.671641 0.012498975
vt 0.646154 0.012498975
vt 0.647238 0.029444993
vt 0.623779 0.012498975
vt 0.625759 0.028155982
vt 0.627418 0.041270018
vt 0.6455559 0.07152593
vt 0.875965 0.07420999
vt 0.872492 0.078004
vt 0.878611 0.08322698
vt 0.86594504 0.07227498
vt 0.877164 0.065349996
vt 0.859289 0.06927025
vt 0.878667 0.052196026
vt 0.859306 0.041359007
vt 0.879345 0.043675005
vt 0.8811 0.030623972
vt 0.861857 0.029434979
vt 0.874939 0.012498975
vt 0.86548 0.012498975
vt 0.839007 0.028026998
vt 0.840993 0.012498975
vt 0.837343 0.04103303
vt 0.8397911 0.07301223
vt 0.859289 0.06927025
vt 0.733069 0.042015016
vt 0.765312 0.012498975
vt 0.73308 0.012498975
vt 0.759561 0.04277599
vt 0.7588131 0.07136202
vt 0.7331535 0.072022974
vt 0.733347 0.090470016
vt 0.759342 0.09395301
vt 0.753862 0.10298401
vt 0.707397 0.072431564
vt 0.706442 0.043012977
vt 0.700973 0.012498975
vt 0.73308 0.012498975
vt 0.707287 0.09472698
vt 0.711469 0.102872014
vt 0.735202 0.10178697
vt 0.748013 0.11203802
vt 0.71809 0.11252898
vt 0.736517 0.11159903
vt 0.746524 0.11964297
vt 0.73005 0.12042099
vt 0.72624 0.122841
vt 0.734668 0.12980503
vt 0.738752 0.119793
vt 0.744329 0.132056
vt 0.836221 0.09069699
vt 0.859289 0.06927025
vt 0.8397911 0.07301223
vt 0.846518 0.09047401
vt 0.836221 0.09069699
vt 0.839571 0.09991199
vt 0.846518 0.09047401
vt 0.834148 0.09899801
vt 0.829919 0.107371986
vt 0.591758 0.078269005
vt 0.588298 0.074422
vt 0.585556 0.083471
vt 0.598396 0.07256597
vt 0.587174 0.06549603
vt 0.60511416 0.06961298
vt 0.585779 0.052250028
vt 0.605344 0.041493
vt 0.585197 0.04369098
vt 0.583534 0.030601025
vt 0.602843 0.029514015
vt 0.589833 0.012498975
vt 0.599292 0.012498975
vt 0.625759 0.028155982
vt 0.623779 0.012498975
vt 0.627418 0.041270018
vt 0.6247391 0.07361597
vt 0.60511416 0.06961298
vt 0.6247391 0.07361597
vt 0.6455559 0.07152593
vt 0.635042 0.09112698
vt 0.628163 0.091651976
vt 0.633493 0.096192
vt 0.628163 0.091651976
vt 0.60511416 0.06961298
vt 0.617701 0.09123403
vt 0.6247391 0.07361597
vt 0.624588 0.10095698
vt 0.628163 0.091651976
vt 0.617701 0.09123403
vt 0.630118 0.10013002
vt 0.634264 0.108726025
vt 0.6661396 0.06994802
vt 0.64803 0.041812003
vt 0.6455559 0.07152593
vt 0.667501 0.090255976
vt 0.825664 0.09944999
vt 0.830942 0.095074
vt 0.815965 0.08890599
vt 0.811786 0.097105026
vt 0.816015 0.106554985
vt 0.797847 0.088945985
vt 0.799392 0.09690702
vt 0.806807 0.10446298
vt 0.799713 0.10399002
vt 0.807258 0.112634
vt 0.799873 0.11018503
vt 0.803474 0.110899985
vt 0.800223 0.11731899
vt 0.8192987 0.07076073
vt 0.797847 0.088945985
vt 0.79911405 0.06912136
vt 0.816891 0.04144597
vt 0.829487 0.09010202
vt 0.830942 0.095074
vt 0.836221 0.09069699
vt 0.8397911 0.07301223
vt 0.837343 0.04103303
vt 0.839007 0.028026998
vt 0.817619 0.029233992
vt 0.783363 0.042560995
vt 0.840993 0.012498975
vt 0.818618 0.012498975
vt 0.793132 0.012498975
vt 0.765312 0.012498975
vt 0.79911405 0.06912136
vt 0.759561 0.04277599
vt 0.77934754 0.07127762
vt 0.7588131 0.07136202
vt 0.797847 0.088945985
vt 0.759342 0.09395301
vt 0.778 0.090035975
vt 0.789732 0.10037601
vt 0.774547 0.10083097
vt 0.760537 0.102093995
vt 0.78233 0.109925985
vt 0.760553 0.11014998
vt 0.770572 0.10974002
vt 0.77198 0.12059498
vt 0.764733 0.118833005
vt 0.759757 0.11809701
vt 0.757343 0.12909001
vt 0.648855 0.09007299
vt 0.633493 0.096192
vt 0.638822 0.10073203
vt 0.653072 0.09852201
vt 0.648614 0.108159006
vt 0.65811 0.106134
vt 0.657542 0.114531994
vt 0.661462 0.11279303
vt 0.664739 0.119445026
vt 0.665181 0.11209899
vt 0.665417 0.10572702
vt 0.665827 0.09843999
vt 0.6455559 0.07152593
vt 0.635042 0.09112698
vt 0.633493 0.096192
vn -0.5235748 -0.20094082 -0.8279445
vn -0.46887594 -0.061328687 -0.8811323
vn -0.32944798 -0.31340778 -0.89064
vn -0.4973939 -0.50987446 -0.70187426
vn -0.5235748 -0.20094082 -0.8279445
vn -0.6537079 -0.21936683 -0.7242542
vn -0.72741956 -0.0787363 -0.6816609
vn -0.46887594 -0.061328687 -0.8811323
vn -0.7019466 -0.15391509 -0.6954
vn -0.34042135 -0.0052669235 -0.94025826
vn -0.59218544 -0.18467526 -0.7843542
vn -0.22993296 0.06411632 -0.9710921
vn -0.21089152 0.14986856 -0.9659524
vn 0.20341386 0.3324604 -0.9209196
vn 0.07429078 0.14981091 -0.9859196
vn -0.46887589 -0.061328687 -0.8811323
vn -0.07997924 -0.10720782 -0.99101454
vn -0.32944798 -0.31340778 -0.89064
vn -0.6669811 -0.45374638 -0.59097415
vn -0.526689 -0.6437003 -0.5552014
vn -0.731363 -0.55411154 -0.39757827
vn -0.30210212 -0.654771 -0.69282705
vn -0.37876594 -0.5331351 -0.75650734
vn -0.4973939 -0.50987446 -0.70187426
vn -0.32888883 -0.6944455 -0.63998246
vn -0.5797121 -0.72726667 -0.36744684
vn -0.69586974 -0.65611607 -0.29202232
vn -0.69943297 -0.61989796 -0.35569647
vn -0.79978764 -0.5969747 -0.06293583
vn -0.81130916 -0.5744832 -0.10838081
vn -0.82637876 -0.55952996 -0.06343789
vn -0.81023866 -0.43479013 -0.39302796
vn 0.97636026 -0.17927419 0.12075367
vn 0.9861232 -0.106233135 0.1275757
vn 0.99510753 -0.051924393 0.08405326
vn 0.97931015 -0.19522615 0.0532764
vn 0.92896277 -0.36718434 0.046946798
vn 0.9461821 -0.3235649 -0.0067243692
vn 0.889343 -0.45696944 -0.015749414
vn 0.83423406 -0.5441662 0.08908835
vn 0.88338184 -0.46657777 -0.044065006
vn 0.8134937 -0.57084763 0.11118002
vn 0.8126643 -0.57180136 0.112338506
vn 0.8358415 -0.53222764 0.13454641
vn 0.84620935 -0.52558786 0.08767605
vn 0.81130916 -0.5744833 -0.10838082
vn 0.79978764 -0.5969747 -0.06293583
vn 0.82637876 -0.5595299 -0.06343788
vn 0.8985233 -0.43888664 -0.0058629187
vn 0.9133945 -0.40556324 0.03505631
vn 8.2824E-05 -0.6663249 -0.7456615
vn 0.32888883 -0.6944455 -0.63998246
vn -0 -0.6986867 -0.71542776
vn 0.30210212 -0.65477085 -0.69282705
vn 0.30551952 -0.57135916 -0.76171285
vn -0.06298862 -0.54264736 -0.8375955
vn 0.0049802847 -0.34736323 -0.9377174
vn 0.32944798 -0.31340778 -0.89064
vn 0.4272307 -0.13446404 -0.894088
vn -0.30652028 -0.5708794 -0.7616706
vn -0.30210197 -0.65477085 -0.69282717
vn -0.32888877 -0.69444555 -0.6399824
vn -0 -0.6986867 -0.71542776
vn -0.33314446 -0.29378706 -0.8959374
vn -0.36888131 -0.09271608 -0.9248406
vn 0.06972216 -0.10932622 -0.9915577
vn 0.5016951 0.027427815 -0.86460954
vn -0.34630024 -0.024460336 -0.93780476
vn 0.112537414 0.0032296379 -0.9936422
vn 0.532495 0.11443083 -0.8386624
vn -0.3104677 -0.08291917 -0.9469605
vn -0.392923 -0.11694516 -0.9121049
vn -0.3726852 -0.14872034 -0.9159629
vn 0.17711887 -0.0321521 -0.98366416
vn 0.25238165 -0.06413616 -0.96549994
vn 0.8985233 -0.43888664 -0.0058629187
vn 0.9651078 -0.23623914 0.11295103
vn 0.9133945 -0.40556324 0.03505631
vn 0.9775339 -0.21031104 0.014031532
vn 0.9775339 -0.21031104 0.014031532
vn 0.9993718 -0.027183423 0.02274083
vn 0.9651078 -0.23623914 0.11295103
vn 0.99962425 -0.021372676 -0.017160404
vn 0.99943393 0.03358203 -0.0020039687
vn -0.9861232 -0.106233135 0.1275757
vn -0.97636026 -0.17927419 0.12075367
vn -0.99510753 -0.051924393 0.08405326
vn -0.97931015 -0.19522615 0.0532764
vn -0.92896277 -0.36718434 0.046946798
vn -0.9461821 -0.3235649 -0.0067243692
vn -0.889343 -0.45696944 -0.015749417
vn -0.83423406 -0.5441662 0.08908835
vn -0.88338184 -0.46657777 -0.044065006
vn -0.8134937 -0.57084763 0.111180015
vn -0.821426 -0.56023973 0.106728286
vn -0.84716254 -0.5184275 0.11639796
vn -0.8615616 -0.5014282 0.07925549
vn -0.81454486 -0.57067376 -0.1041544
vn -0.8013922 -0.5959331 -0.051326666
vn -0.82637876 -0.5595299 -0.06343788
vn -0.8985233 -0.43888664 -0.00586292
vn -0.9133945 -0.40556324 0.03505631
vn -0.8985233 -0.43888664 -0.0058629187
vn -0.81023866 -0.43479013 -0.3930279
vn -0.9675424 -0.20640562 -0.14580297
vn -0.9775339 -0.210311 0.01403152
vn -0.9767592 -0.117101 -0.17952412
vn -0.9651078 -0.23623914 0.11295103
vn -0.8985233 -0.43888664 -0.00586292
vn -0.9133945 -0.40556324 0.03505631
vn -0.9775339 -0.210311 0.01403152
vn -0.9993718 -0.027183423 0.02274083
vn -0.9775339 -0.210311 0.01403152
vn -0.9651078 -0.23623914 0.11295103
vn -0.99962425 -0.021372676 -0.017160404
vn -0.99943393 0.03358203 -0.0020039687
vn -0.6601778 -0.48845232 -0.5705957
vn -0.731363 -0.55411154 -0.39757827
vn -0.81023866 -0.43479013 -0.3930279
vn -0.6537079 -0.21936683 -0.7242542
vn 0.9421474 -0.16918698 -0.28936827
vn 0.9767592 -0.11710099 -0.17952411
vn 0.8251155 -0.19971709 -0.5284859
vn 0.79765177 -0.07961657 -0.5978401
vn 0.92900574 -0.17441562 -0.32638544
vn 0.6537079 -0.21936683 -0.7242542
vn 0.5146135 -0.0112764165 -0.85734814
vn 0.75767004 -0.03493659 -0.65170217
vn 0.41121647 0.049996857 -0.91016555
vn 0.87209266 -0.19518045 -0.44873038
vn 0.27850455 0.24219225 -0.9293967
vn 0.5823892 0.097069964 -0.80709374
vn 0.59914434 0.082292266 -0.7964006
vn 0.81023866 -0.43479013 -0.3930279
vn 0.6537079 -0.21936683 -0.7242542
vn 0.6601778 -0.48845232 -0.5705957
vn 0.731363 -0.55411154 -0.39757827
vn 0.9675424 -0.20640562 -0.14580297
vn 0.9767592 -0.11710099 -0.17952411
vn 0.9775339 -0.21031104 0.014031532
vn 0.8985233 -0.43888664 -0.0058629187
vn 0.82637876 -0.55952996 -0.06343789
vn 0.81130916 -0.5744832 -0.10838081
vn 0.69943297 -0.61989796 -0.35569647
vn 0.526689 -0.6437003 -0.5552014
vn 0.79978764 -0.5969747 -0.06293583
vn 0.69586974 -0.65611607 -0.29202232
vn 0.5797121 -0.72726667 -0.36744684
vn 0.32888883 -0.6944455 -0.63998246
vn 0.6669811 -0.45374638 -0.59097415
vn 0.30210212 -0.654771 -0.69282705
vn 0.4973939 -0.50987446 -0.70187426
vn 0.37876594 -0.5331352 -0.75650734
vn 0.6537079 -0.21936683 -0.7242542
vn 0.32944798 -0.31340778 -0.89064
vn 0.5235748 -0.20094082 -0.8279445
vn 0.72741956 -0.0787363 -0.6816609
vn 0.46887589 -0.061328687 -0.8811323
vn 0.07997924 -0.10720782 -0.99101454
vn 0.7019466 -0.15391509 -0.6954
vn -0.07429078 0.14981091 -0.9859196
vn 0.34042135 -0.0052669235 -0.94025826
vn 0.59218544 -0.18467526 -0.7843542
vn 0.22993298 0.06411632 -0.9710921
vn -0.20341387 0.3324604 -0.9209196
vn 0.21089156 0.14986856 -0.9659524
vn -0.8251155 -0.19971706 -0.5284859
vn -0.9767592 -0.117101 -0.17952412
vn -0.9421474 -0.169187 -0.28936827
vn -0.79765177 -0.07961656 -0.5978401
vn -0.92900574 -0.17441562 -0.32638544
vn -0.7576699 -0.03493659 -0.65170217
vn -0.87209266 -0.19518045 -0.44873038
vn -0.5823891 0.09706995 -0.80709374
vn -0.59914434 0.082292266 -0.7964006
vn -0.27850455 0.24219225 -0.9293967
vn -0.41121647 0.049996857 -0.91016555
vn -0.5146135 -0.0112764165 -0.85734814
vn -0.81023866 -0.43479013 -0.39302796
vn -0.9675424 -0.20640562 -0.14580297
vn -0.9767592 -0.11710099 -0.17952411
g M_HairBK01_0
f 3/3/3 2/2/2 1/1/1
f 5/5/5 4/4/4 3/3/3
f 6/6/6 4/4/4 5/5/5
f 5/5/5 7/7/7 6/6/6
f 5/5/5 8/8/8 7/7/7
f 9/9/9 7/7/7 8/8/8
f 9/9/9 8/8/8 10/10/10
f 10/10/10 11/11/11 9/9/9
f 10/10/10 12/12/12 11/11/11
f 11/11/11 12/12/12 13/13/13
f 13/13/13 12/12/12 14/14/14
f 14/14/14 12/12/12 15/15/15
f 10/10/10 15/15/15 12/12/12
f 10/10/10 16/16/16 15/15/15
f 16/16/16 17/17/17 15/15/15
f 18/18/18 17/17/17 16/16/16
f 6/6/6 19/19/19 4/4/4
f 4/4/4 19/19/19 20/20/20
f 20/20/20 19/19/19 21/21/21
f 20/20/20 22/22/22 4/4/4
f 23/23/23 4/4/4 22/22/22
f 24/24/24 23/23/23 18/18/18
f 22/22/22 20/20/20 25/25/25
f 26/26/26 25/25/25 20/20/20
f 26/26/26 20/20/20 27/27/27
f 20/20/20 28/28/28 27/27/27
f 21/21/21 28/28/28 20/20/20
f 27/27/27 28/28/28 29/29/29
f 30/30/30 29/29/29 28/28/28
f 30/30/30 28/28/28 21/21/21
f 31/31/31 30/30/30 21/21/21
f 21/21/21 32/32/32 31/31/31
f 35/35/35 34/34/34 33/33/33
f 34/34/34 36/36/36 33/33/33
f 33/33/33 36/36/36 37/37/37
f 38/38/38 37/37/37 36/36/36
f 39/39/39 37/37/37 38/38/38
f 38/38/38 40/40/40 39/39/39
f 40/40/40 41/41/41 39/39/39
f 42/42/42 41/41/41 40/40/40
f 40/40/40 43/43/43 42/42/42
f 42/42/42 43/43/43 44/44/44
f 45/45/45 44/44/44 43/43/43
f 43/43/43 46/46/46 45/45/45
f 47/47/47 45/45/45 46/46/46
f 48/48/48 46/46/46 43/43/43
f 40/40/40 48/48/48 43/43/43
f 48/48/48 40/40/40 49/49/49
f 50/50/50 49/49/49 40/40/40
f 53/53/53 52/52/52 51/51/51
f 51/51/51 52/52/52 54/54/54
f 54/54/54 55/55/55 51/51/51
f 51/51/51 55/55/55 56/56/56
f 57/57/57 56/56/56 55/55/55
f 58/58/58 57/57/57 55/55/55
f 58/58/58 59/59/59 57/57/57
f 51/51/51 56/56/56 60/60/60
f 60/60/60 56/56/56 57/57/57
f 51/51/51 60/60/60 61/61/61
f 51/51/51 61/61/61 62/62/62
f 63/63/63 51/51/51 62/62/62
f 64/64/64 60/60/60 57/57/57
f 57/57/57 65/65/65 64/64/64
f 57/57/57 59/59/59 66/66/66
f 57/57/57 66/66/66 65/65/65
f 67/67/67 66/66/66 59/59/59
f 68/68/68 65/65/65 66/66/66
f 67/67/67 69/69/69 66/66/66
f 66/66/66 69/69/69 68/68/68
f 67/67/67 70/70/70 69/69/69
f 68/68/68 69/69/69 71/71/71
f 71/71/71 72/72/72 68/68/68
f 73/73/73 72/72/72 71/71/71
f 74/74/74 69/69/69 70/70/70
f 74/74/74 71/71/71 69/69/69
f 74/74/74 70/70/70 75/75/75
f 75/75/75 71/71/71 74/74/74
f 78/78/78 77/77/77 76/76/76
f 79/79/79 76/76/76 77/77/77
f 82/82/82 81/81/81 80/80/80
f 81/81/81 83/83/83 80/80/80
f 84/84/84 83/83/83 81/81/81
f 87/87/87 86/86/86 85/85/85
f 85/85/85 86/86/86 88/88/88
f 86/86/86 89/89/89 88/88/88
f 90/90/90 88/88/88 89/89/89
f 91/91/91 90/90/90 89/89/89
f 90/90/90 91/91/91 92/92/92
f 92/92/92 91/91/91 93/93/93
f 94/94/94 92/92/92 93/93/93
f 94/94/94 95/95/95 92/92/92
f 94/94/94 96/96/96 95/95/95
f 97/97/97 95/95/95 96/96/96
f 95/95/95 97/97/97 98/98/98
f 99/99/99 98/98/98 97/97/97
f 95/95/95 98/98/98 100/100/100
f 92/92/92 95/95/95 100/100/100
f 100/100/100 101/101/101 92/92/92
f 102/102/102 92/92/92 101/101/101
f 100/100/100 104/104/104 103/103/103
f 103/103/103 104/104/104 105/105/105
f 103/103/103 105/105/105 106/106/106
f 106/106/106 105/105/105 107/107/107
f 110/110/110 109/109/109 108/108/108
f 111/111/111 108/108/108 109/109/109
f 114/114/114 113/113/113 112/112/112
f 112/112/112 113/113/113 115/115/115
f 116/116/116 112/112/112 115/115/115
f 119/119/119 118/118/118 117/117/117
f 119/119/119 117/117/117 120/120/120
f 123/123/123 122/122/122 121/121/121
f 121/121/121 124/124/124 123/123/123
f 121/121/121 125/125/125 124/124/124
f 123/123/123 124/124/124 126/126/126
f 127/127/127 126/126/126 124/124/124
f 125/125/125 128/128/128 124/124/124
f 124/124/124 128/128/128 127/127/127
f 128/128/128 129/129/129 127/127/127
f 125/125/125 130/130/130 128/128/128
f 129/129/129 128/128/128 131/131/131
f 130/130/130 132/132/132 128/128/128
f 132/132/132 131/131/131 128/128/128
f 133/133/133 132/132/132 130/130/130
f 133/133/133 131/131/131 132/132/132
f 135/135/135 134/134/134 123/123/123
f 135/135/135 136/136/136 134/134/134
f 134/134/134 136/136/136 137/137/137
f 123/123/123 134/134/134 138/138/138
f 123/123/123 138/138/138 139/139/139
f 139/139/139 138/138/138 140/140/140
f 140/140/140 138/138/138 141/141/141
f 141/141/141 138/138/138 134/134/134
f 142/142/142 141/141/141 134/134/134
f 142/142/142 134/134/134 137/137/137
f 142/142/142 137/137/137 143/143/143
f 137/137/137 144/144/144 143/143/143
f 145/145/145 144/144/144 137/137/137
f 143/143/143 144/144/144 146/146/146
f 147/147/147 146/146/146 144/144/144
f 147/147/147 144/144/144 145/145/145
f 148/148/148 147/147/147 145/145/145
f 148/148/148 145/145/145 149/149/149
f 145/145/145 137/137/137 150/150/150
f 151/151/151 149/149/149 145/145/145
f 145/145/145 150/150/150 152/152/152
f 145/145/145 152/152/152 151/151/151
f 153/153/153 151/151/151 152/152/152
f 154/154/154 152/152/152 150/150/150
f 155/155/155 153/153/153 152/152/152
f 156/156/156 152/152/152 154/154/154
f 156/156/156 155/155/155 152/152/152
f 154/154/154 157/157/157 156/156/156
f 156/156/156 158/158/158 155/155/155
f 156/156/156 157/157/157 158/158/158
f 158/158/158 159/159/159 155/155/155
f 160/160/160 158/158/158 157/157/157
f 161/161/161 159/159/159 158/158/158
f 162/162/162 158/158/158 160/160/160
f 162/162/162 161/161/161 158/158/158
f 160/160/160 163/163/163 162/162/162
f 162/162/162 164/164/164 161/161/161
f 163/163/163 164/164/164 162/162/162
f 165/165/165 161/161/161 164/164/164
f 166/166/166 164/164/164 163/163/163
f 165/165/165 164/164/164 166/166/166
f 169/169/169 168/168/168 167/167/167
f 169/169/169 167/167/167 170/170/170
f 169/169/169 170/170/170 171/171/171
f 171/171/171 170/170/170 172/172/172
f 171/171/171 172/172/172 173/173/173
f 173/173/173 172/172/172 174/174/174
f 175/175/175 173/173/173 174/174/174
f 175/175/175 174/174/174 176/176/176
f 174/174/174 172/172/172 176/176/176
f 177/177/177 176/176/176 172/172/172
f 172/172/172 178/178/178 177/177/177
f 170/170/170 178/178/178 172/172/172
f 178/178/178 170/170/170 6/6/6
f 167/167/167 6/6/6 170/170/170
f 167/167/167 179/179/179 6/6/6
f 167/167/167 180/180/180 179/179/179
f 181/181/181 180/180/180 167/167/167
