g M_HairAcc
v 0.03453007 1.4976496 -0.06982
v 0.027069988 1.4954416 -0.07495013
v 0.02555318 1.4949788 -0.069205284
v 0.029619131 1.4971833 -0.077486955
v 0.03330591 1.4992388 -0.07826776
v 0.037396215 1.5013218 -0.077127025
v 0.03937787 1.5019854 -0.07364422
v 0.03976706 1.5026534 -0.06892472
v 0.0391971 1.5031592 -0.06351045
v 0.03453007 1.4976496 -0.06982
v 0.02555318 1.4949788 -0.069205284
v 0.027204152 1.4965128 -0.06323583
v 0.03165323 1.4995207 -0.060606465
v 0.035615347 1.5015028 -0.060585175
v 0.0391971 1.5031592 -0.06351045
v 0.02559008 1.5021574 -0.065471776
v 0.02521768 1.4980006 -0.0696439
v 0.023695221 1.5005769 -0.07011108
v 0.026815927 1.4993545 -0.06422636
v 0.02555318 1.4949788 -0.069205284
v 0.027204152 1.4965128 -0.06323583
v 0.03165323 1.4995207 -0.060606465
v 0.030616483 1.5018296 -0.06288252
v 0.028376814 1.5039691 -0.0648612
v 0.030738285 1.5008188 -0.061321758
v 0.034639653 1.5029118 -0.061025783
v 0.035615347 1.5015028 -0.060585175
v 0.0391971 1.5031592 -0.06351045
v 0.034639653 1.5029118 -0.061025783
v 0.03371106 1.5028754 -0.06297283
v 0.031549066 1.5053506 -0.065173246
v 0.03743417 1.5042455 -0.06470842
v 0.0391971 1.5031592 -0.06351045
v 0.036695965 1.504376 -0.065688364
v 0.03380792 1.5061207 -0.06705474
v 0.034492258 1.5061215 -0.07034485
v 0.038354382 1.5040693 -0.0687189
v 0.03976706 1.5026534 -0.06892472
v 0.034685574 1.5043359 -0.07407806
v 0.032747533 1.5056524 -0.07446963
v 0.03808493 1.5035672 -0.07363692
v 0.03937787 1.5019854 -0.07364422
v 0.037396215 1.5013218 -0.077127025
v 0.0342465 1.5028322 -0.07712555
v 0.03330591 1.4992388 -0.07826776
v 0.03242401 1.5035402 -0.07553487
v 0.029403647 1.5043133 -0.07593277
v 0.031289328 1.5015551 -0.07785282
v 0.029566994 1.5022169 -0.076019585
v 0.025122814 1.5019457 -0.07347408
v 0.02917725 1.4999928 -0.07697676
v 0.029619131 1.4971833 -0.077486955
v 0.027069988 1.4954416 -0.07495013
v 0.02661231 1.4985564 -0.07400278
v 0.02555318 1.4949788 -0.069205284
v 0.02521768 1.4980006 -0.0696439
v 0.023695221 1.5005769 -0.07011108
vt 0.866637 0.20464897
vt 0.928835 0.474056
vt 0.936647 0.474056
vt 0.905818 0.474056
vt 0.87123 0.474056
vt 0.831796 0.474056
vt 0.810396 0.474056
vt 0.799973 0.474056
vt 0.797001 0.474056
vt 0.866637 0.20464897
vt 0.936647 0.474056
vt 0.913028 0.474056
vt 0.865527 0.474056
vt 0.827873 0.474056
vt 0.797001 0.474056
vt 0.145372 0.171529
vt 0.0394084 0.094280005
vt 0.0394084 0.171529
vt 0.154846 0.08883101
vt 0.0394084 0.027566016
vt 0.148897 0.027566016
vt 0.250854 0.027566016
vt 0.256471 0.09297401
vt 0.231783 0.171529
vt 0.249884 0.05823201
vt 0.324405 0.05145198
vt 0.323608 0.027566016
vt 0.404321 0.027566016
vt 0.324405 0.05145198
vt 0.326147 0.08306998
vt 0.327198 0.171529
vt 0.407558 0.06605703
vt 0.404321 0.027566016
vt 0.416183 0.08769399
vt 0.419464 0.171529
vt 0.517557 0.171529
vt 0.486018 0.066603005
vt 0.497701 0.027566016
vt 0.612585 0.12484801
vt 0.638479 0.171529
vt 0.582736 0.06018901
vt 0.578045 0.027566016
vt 0.647206 0.027566016
vt 0.67597 0.08087301
vt 0.726808 0.027566016
vt 0.685676 0.12790799
vt 0.755561 0.171529
vt 0.73747 0.08226001
vt 0.768787 0.12855703
vt 0.878867 0.171529
vt 0.785938 0.079376996
vt 0.797272 0.027566016
vt 0.864354 0.027566016
vt 0.869547 0.088543
vt 0.959078 0.027566016
vt 0.959078 0.094280005
vt 0.959078 0.171529
vn 0.49137002 -0.86982197 0.04433245
vn 0.34861478 -0.9312353 -0.1061529
vn 0.28937835 -0.95364416 0.0826018
vn 0.41999415 -0.88158923 -0.21541925
vn 0.4632829 -0.8563149 -0.2282405
vn 0.5302039 -0.8226021 -0.20545009
vn 0.6280452 -0.77391535 -0.08132736
vn 0.6785972 -0.7278618 0.09860594
vn 0.6110269 -0.76223636 0.21363972
vn 0.49137002 -0.86982197 0.04433245
vn 0.28937835 -0.95364416 0.0826018
vn 0.35226625 -0.90576845 0.2355671
vn 0.41537502 -0.8574097 0.30382907
vn 0.49766713 -0.81971294 0.2835456
vn 0.6110269 -0.76223636 0.21363972
vn -0.73664814 -0.030873494 0.6755711
vn -0.9653081 -0.26109996 -0.002618594
vn -0.85219216 -0.51754737 -0.0768982
vn -0.78355867 0.06750115 0.6176402
vn -0.9961201 -0.08753211 0.009108583
vn -0.83210766 0.07773008 0.5491402
vn -0.39738187 0.21186952 0.8928599
vn -0.40486655 0.627046 0.66550475
vn -0.31601807 0.4444731 0.8381983
vn -0.5137959 0.4175733 0.74943066
vn 0.08402932 0.3766086 0.9225535
vn 0.15497263 0.39102086 0.907241
vn 0.40862843 0.8452526 0.34434116
vn -0.24203497 0.93617845 0.25492927
vn -0.17857544 0.89583135 0.406936
vn 0.013464742 0.6831979 0.7301091
vn 0.1645719 0.9606019 0.22396451
vn 0.40862843 0.8452526 0.34434116
vn 0.17481479 0.9547046 0.2407884
vn 0.35610732 0.8654542 0.35238707
vn 0.5292889 0.83247536 -0.16382302
vn 0.5570447 0.82976353 -0.03455121
vn 0.7125917 0.6986265 -0.06429643
vn 0.36585972 0.8158568 -0.4477994
vn 0.4407051 0.53912973 -0.7177173
vn 0.51028323 0.80228823 -0.30974913
vn 0.73320645 0.60080963 -0.3184902
vn 0.36093235 0.5987923 -0.71496546
vn 0.096918784 0.6663718 -0.7392939
vn -0.059994876 0.16487835 -0.9844876
vn 0.052333232 0.64432865 -0.76295596
vn -0.0949686 0.114993125 -0.98881626
vn -0.26897484 0.39910612 -0.8765654
vn -0.4480962 0.2878624 -0.84637165
vn -0.696428 -0.24291003 -0.675265
vn -0.6170659 0.19931437 -0.76125115
vn -0.5478546 0.06528729 -0.83402216
vn -0.8774564 -0.0021909052 -0.47965136
vn -0.84430045 -0.070684716 -0.5311878
vn -0.9961201 -0.08753211 0.009108583
vn -0.9653081 -0.26109996 -0.002618594
vn -0.85219216 -0.51754737 -0.0768982
g M_HairAcc_0
f 3/3/3 2/2/2 1/1/1
f 2/2/2 4/4/4 1/1/1
f 4/4/4 5/5/5 1/1/1
f 5/5/5 6/6/6 1/1/1
f 1/1/1 6/6/6 7/7/7
f 7/7/7 8/8/8 1/1/1
f 8/8/8 9/9/9 1/1/1
f 12/12/12 11/11/11 10/10/10
f 13/13/13 12/12/12 10/10/10
f 14/14/14 13/13/13 10/10/10
f 15/15/15 14/14/14 10/10/10
f 18/18/18 17/17/17 16/16/16
f 16/16/16 17/17/17 19/19/19
f 20/20/20 19/19/19 17/17/17
f 21/21/21 19/19/19 20/20/20
f 22/22/22 19/19/19 21/21/21
f 16/16/16 19/19/19 23/23/23
f 16/16/16 23/23/23 24/24/24
f 22/22/22 25/25/25 19/19/19
f 19/19/19 25/25/25 23/23/23
f 25/25/25 22/22/22 26/26/26
f 27/27/27 26/26/26 22/22/22
f 28/28/28 26/26/26 27/27/27
f 23/23/23 25/25/25 29/29/29
f 24/24/24 23/23/23 30/30/30
f 23/23/23 29/29/29 30/30/30
f 24/24/24 30/30/30 31/31/31
f 30/30/30 29/29/29 32/32/32
f 33/33/33 32/32/32 29/29/29
f 31/31/31 30/30/30 34/34/34
f 30/30/30 32/32/32 34/34/34
f 31/31/31 34/34/34 35/35/35
f 35/35/35 34/34/34 36/36/36
f 37/37/37 32/32/32 33/33/33
f 34/34/34 32/32/32 37/37/37
f 36/36/36 34/34/34 37/37/37
f 38/38/38 37/37/37 33/33/33
f 36/36/36 37/37/37 39/39/39
f 36/36/36 39/39/39 40/40/40
f 41/41/41 37/37/37 38/38/38
f 41/41/41 39/39/39 37/37/37
f 42/42/42 41/41/41 38/38/38
f 43/43/43 41/41/41 42/42/42
f 43/43/43 44/44/44 41/41/41
f 44/44/44 39/39/39 41/41/41
f 43/43/43 45/45/45 44/44/44
f 39/39/39 46/46/46 40/40/40
f 44/44/44 46/46/46 39/39/39
f 40/40/40 46/46/46 47/47/47
f 48/48/48 44/44/44 45/45/45
f 44/44/44 48/48/48 46/46/46
f 46/46/46 49/49/49 47/47/47
f 48/48/48 49/49/49 46/46/46
f 47/47/47 49/49/49 50/50/50
f 51/51/51 48/48/48 45/45/45
f 51/51/51 49/49/49 48/48/48
f 52/52/52 51/51/51 45/45/45
f 52/52/52 53/53/53 51/51/51
f 51/51/51 54/54/54 49/49/49
f 53/53/53 54/54/54 51/51/51
f 50/50/50 49/49/49 54/54/54
f 53/53/53 55/55/55 54/54/54
f 56/56/56 54/54/54 55/55/55
f 50/50/50 54/54/54 56/56/56
f 57/57/57 50/50/50 56/56/56
