g M_Hair02
v 0.023213949 1.4809815 -0.06697337
v 0.018000383 1.4825196 -0.070284575
v 0.021031126 1.4710464 -0.07018138
v 0.024974518 1.491289 -0.06919167
v 0.017432421 1.4909747 -0.072172284
v 0.017808316 1.5009112 -0.076625876
v 0.026718525 1.4848117 -0.061129846
v 0.026936721 1.4782382 -0.0621124
v 0.02512667 1.4773248 -0.065417364
v 0.028024754 1.4730129 -0.06446679
v 0.028389968 1.4917971 -0.061009865
v 0.03314178 1.5039185 -0.062158372
v 0.0290033 1.5004807 -0.07332644
v 0.037648097 1.5143188 -0.08260743
v 0.020053465 1.5141418 -0.093412146
v 0.008876981 1.5010597 -0.07956433
v 0.015703162 1.4885505 -0.07252216
v 0.01150463 1.4892256 -0.07417294
v 0.013201318 1.4792454 -0.07260328
v 0.027927356 1.526941 -0.10785488
v 3.1422016E-05 1.5145661 -0.09818367
v 0.049684227 1.5284768 -0.09425243
v 0.050680842 1.5184271 -0.06572553
v -2.205E-09 1.5259842 -0.11640485
v 0.036354855 1.5393498 -0.123169966
v 0.059245944 1.5399379 -0.108175464
v 0.06674156 1.5313753 -0.075128004
v 0.052190177 1.5229897 -0.046368998
v 0.040559024 1.5100695 -0.055825755
v 0.06949227 1.5545512 -0.12251721
v 0.04693546 1.5488726 -0.13952631
v 0.079604916 1.5430695 -0.08031658
v 0.09683694 1.5744436 -0.088246934
v 0.097720385 1.5686483 -0.06705558
v 0.032709084 1.4971623 -0.056134824
v 0.03055535 1.4947482 -0.06034336
v 0.031413935 1.4881722 -0.055621985
v 0.030498078 1.4879613 -0.058494788
v 0.032230843 1.4811697 -0.0559478
v 0.07036665 1.539472 -0.049161177
v 0.080675825 1.5512375 -0.0484704
v 0.08966127 1.5636876 -0.049907427
v 0.082305886 1.5594403 -0.03487387
v 0.084231235 1.5701333 -0.029252585
v 0.07067993 1.5420375 -0.033677023
v 0.064703114 1.5366597 -0.03468821
v 0.053538483 1.5242976 -0.03946857
v 0.049012654 1.5183134 -0.039275892
v 0.048712056 1.5182873 -0.04278204
v 0.046999272 1.5121204 -0.036868274
v 0.041875415 1.5106987 -0.0494147
v 0.037661113 1.5041391 -0.050760705
v 0.03686823 1.5040635 -0.0535559
v 0.03619899 1.497744 -0.052637663
v 0.008536733 1.4910079 -0.07643227
v 0.008504409 1.4963831 -0.07784622
v 0.0039151637 1.4964337 -0.07817952
v 0.00020805358 1.5009847 -0.082144514
v -0.008876981 1.5010597 -0.07956433
v -0.0039151637 1.4964337 -0.07817952
v -0.008504409 1.4963831 -0.07784622
v -0.008536733 1.4910079 -0.07643227
v -0.019911945 1.5143992 -0.09270597
v -0.026755981 1.5272453 -0.108538404
v -0.029208822 1.5384098 -0.12584253
v -0.00013277557 1.5386055 -0.13385214
v -0.030468347 1.5577164 -0.150099
v -0.00019979474 1.5571378 -0.15555997
v -0.027736181 1.5177392 -0.09678445
v -0.035837512 1.5126022 -0.082245976
v -0.0478698 1.5275105 -0.09390407
v -0.045257982 1.5182354 -0.073206306
v -0.017808316 1.5009112 -0.076625876
v -0.015703162 1.4885505 -0.07252216
v -0.01150463 1.4892256 -0.07417294
v -0.013201318 1.4792454 -0.07260328
v -0.0290033 1.5004807 -0.07332644
v -0.024974518 1.491289 -0.06919167
v -0.017432421 1.4909747 -0.072172284
v -0.018000383 1.4825196 -0.070284575
v -0.023213949 1.4809815 -0.06697337
v -0.021031126 1.4710464 -0.07018138
v -0.03314178 1.5039185 -0.062158372
v -0.0290033 1.5004807 -0.07332644
v -0.024974518 1.491289 -0.06919167
v -0.028389968 1.4917971 -0.061009865
v -0.026718525 1.4848117 -0.061129846
v -0.023213949 1.4809815 -0.06697337
v -0.026937198 1.4782382 -0.0621124
v -0.02512667 1.4773248 -0.065417364
v -0.028024754 1.4730129 -0.06446679
v -0.047941677 1.519248 -0.065565154
v -0.062169414 1.5337722 -0.07272605
v -0.040559024 1.5100695 -0.055825755
v -0.03055535 1.4947482 -0.06034336
v -0.05226879 1.5229897 -0.046368998
v -0.041925576 1.5106987 -0.0494147
v -0.03769752 1.5041391 -0.050760705
v -0.05226879 1.5229897 -0.046368998
v -0.036753066 1.5047754 -0.05358748
v -0.036224592 1.497744 -0.052637663
v -0.032709084 1.4971623 -0.056134824
v -0.031424087 1.4881722 -0.055621985
v -0.030498078 1.4879613 -0.058494788
v -0.032235738 1.4811697 -0.0559478
v -0.07059246 1.5392665 -0.0487403
v -0.07299079 1.5466903 -0.078200795
v -0.07960702 1.5531721 -0.05014097
v -0.08395645 1.559591 -0.08279807
v -0.08947423 1.566383 -0.052186847
v -0.082417116 1.559444 -0.034873866
v -0.084366165 1.5685372 -0.029539993
v -0.07080106 1.5420375 -0.033677023
v -0.06481716 1.5366597 -0.03468821
v -0.053627376 1.5242976 -0.03946857
v -0.049089994 1.5183134 -0.039275892
v -0.048785657 1.5182873 -0.04278204
v -0.047068 1.5121204 -0.036868274
v -0.08395645 1.559591 -0.08279807
v -0.07299079 1.5466903 -0.078200795
v -0.07135933 1.5449549 -0.11416144
v -0.06118094 1.5366236 -0.105637036
v -0.05880489 1.546078 -0.13151641
v -0.062169414 1.5337722 -0.07272605
v -0.029208822 1.5384098 -0.12584253
v -0.030468347 1.5577164 -0.150099
v -0.048973303 1.5280726 -0.09495239
v -0.026755981 1.5272453 -0.108538404
v -0.045257982 1.5182354 -0.073206306
v -0.027736181 1.5177392 -0.09678445
v -0.042602308 1.5149 -0.08848017
v -0.039521005 1.5092076 -0.07494127
v -0.03835502 1.5074024 -0.08501836
v -0.034032997 1.4992975 -0.076950185
v -0.035358567 1.5006596 -0.08299389
v -0.03353219 1.4895016 -0.0797512
v -0.03835502 1.5074024 -0.08501836
v -0.02845269 1.5090737 -0.08761257
v -0.030268067 1.499175 -0.08303857
v -0.035358567 1.5006596 -0.08299389
v -0.03353219 1.4895016 -0.0797512
v -0.00013277557 1.5386055 -0.13385214
v 0.025327224 1.5511327 -0.14645532
v -0.00019979474 1.5571378 -0.15555997
v 0.020450626 1.5385333 -0.12968707
v -2.205E-09 1.5259842 -0.11640485
v 0.036354855 1.5393498 -0.123169966
v 0.04693546 1.5488726 -0.13952631
v 0.017474474 1.5257467 -0.11704714
v 0.027927356 1.526941 -0.10785488
v 0.0034181396 1.5176327 -0.107260495
v 0.025085563 1.5205601 -0.10196258
v 0.016084548 1.5148476 -0.10839974
v 0.016084548 1.5148476 -0.10839974
v 0.006986002 1.5086706 -0.10098445
v 0.02328534 1.512659 -0.09828184
v 0.016870715 1.5073541 -0.10528749
v 0.016870715 1.5073541 -0.10528749
v 0.010769889 1.5011114 -0.09866439
v 0.02166807 1.5049566 -0.0974796
v 0.018525384 1.4999353 -0.10314146
v 0.015771674 1.4954395 -0.09968703
v 0.022577714 1.4906355 -0.10145875
v 0.018525384 1.4999353 -0.10314146
v 0.021783551 1.4987038 -0.097931914
v 0.022577714 1.4906355 -0.10145875
vt 0.257421 0.054991007
vt 0.262006 0.060056984
vt 0.267752 0.048914015
vt 0.249495 0.063736975
vt 0.258469 0.067781985
vt 0.256885 0.07819599
vt 0.246745 0.050208986
vt 0.253754 0.046781003
vt 0.259019 0.05019802
vt 0.261424 0.044194996
vt 0.239203 0.052887976
vt 0.22566 0.05959201
vt 0.241777 0.07350099
vt 0.228554 0.090570986
vt 0.254247 0.10211998
vt 0.267986 0.08103001
vt 0.26068 0.06356901
vt 0.266335 0.06575298
vt 0.266399 0.053013027
vt 0.243797 0.12629098
vt 0.280242 0.107864976
vt 0.212402 0.111745
vt 0.202908 0.06961799
vt 0.280204 0.13397902
vt 0.233475 0.15269601
vt 0.200311 0.13590097
vt 0.182683 0.088554025
vt 0.184596 0.04267901
vt 0.211214 0.05136299
vt 0.185839 0.16213298
vt 0.222159 0.17893898
vt 0.163938 0.10328001
vt 0.12647 0.13523299
vt 0.118764 0.105165005
vt 0.229076 0.048551023
vt 0.235578 0.05339098
vt 0.239118 0.04443401
vt 0.241549 0.048556983
vt 0.247176 0.04079503
vt 0.157315 0.059929013
vt 0.137417 0.06854701
vt 0.119402 0.07891798
vt 0.120491 0.056089997
vt 0.105268 0.053361
vt 0.144889 0.044116974
vt 0.157062 0.039469004
vt 0.178954 0.035063982
vt 0.187818 0.03139001
vt 0.189389 0.03514099
vt 0.193744 0.024183989
vt 0.205683 0.04245299
vt 0.215359 0.04170102
vt 0.218179 0.04653001
vt 0.22522 0.042702973
vt 0.269298 0.06851202
vt 0.26889 0.07523501
vt 0.275188 0.07605797
vt 0.280242 0.08305699
vt 0.292608 0.080874026
vt 0.285272 0.07592398
vt 0.291634 0.07501799
vt 0.291143 0.068212986
vt 0.308678 0.10166001
vt 0.317139 0.12681597
vt 0.319941 0.15458602
vt 0.280558 0.16313398
vt 0.321351 0.19816399
vt 0.280133 0.20481801
vt 0.318334 0.108300984
vt 0.331275 0.089362025
vt 0.347236 0.11145598
vt 0.351159 0.080486
vt 0.3041 0.077829
vt 0.300028 0.06268698
vt 0.29418 0.06500399
vt 0.294009 0.05178702
vt 0.319911 0.07320899
vt 0.312355 0.062730014
vt 0.302714 0.06668699
vt 0.29933 0.058284998
vt 0.304475 0.053140998
vt 0.293819 0.04613298
vt 0.337427 0.05982703
vt 0.319911 0.07320899
vt 0.312355 0.062730014
vt 0.323722 0.052020013
vt 0.315985 0.048732996
vt 0.304475 0.053140998
vt 0.308809 0.044718027
vt 0.303075 0.04800999
vt 0.300884 0.041563988
vt 0.359605 0.07158798
vt 0.379 0.090518
vt 0.353118 0.052567005
vt 0.327651 0.052497983
vt 0.380795 0.047033012
vt 0.359703 0.044306993
vt 0.350113 0.042418003
vt 0.380795 0.047033012
vt 0.346728 0.04691899
vt 0.340129 0.042274
vt 0.334863 0.048069
vt 0.32481 0.042801976
vt 0.321841 0.046868026
vt 0.316745 0.038101017
vt 0.406245 0.067484975
vt 0.394766 0.10778099
vt 0.423762 0.080936015
vt 0.410663 0.125126
vt 0.441117 0.09430802
vt 0.442224 0.067947984
vt 0.454733 0.06712502
vt 0.419958 0.05293101
vt 0.408672 0.047087014
vt 0.387272 0.04010898
vt 0.378871 0.035436988
vt 0.376885 0.038981974
vt 0.373822 0.027621984
vt 0.200281 0.196419
vt 0.181981 0.18190598
vt 0.159969 0.22904098
vt 0.147452 0.21317202
vt 0.13843 0.249987
vt 0.163965 0.167283
vt 0.100656 0.23426503
vt 0.0968306 0.277052
vt 0.133265 0.19370002
vt 0.100854 0.206869
vt 0.135668 0.16036499
vt 0.102644 0.18963802
vt 0.120018 0.17846501
vt 0.122686 0.15964001
vt 0.11222 0.17050397
vt 0.109531 0.156501
vt 0.104964 0.16415799
vt 0.0937745 0.15131599
vt 0.11222 0.17050397
vt 0.101525 0.176831
vt 0.0984206 0.16589999
vt 0.104964 0.16415799
vt 0.0937745 0.15131599
vt 0.0754621 0.121511996
vt 0.0424833 0.148754
vt 0.0773442 0.16276997
vt 0.0477352 0.11900097
vt 0.0735651 0.092709005
vt 0.0253145 0.11382502
vt 0.0127546 0.13979203
vt 0.0511884 0.09425199
vt 0.0344513 0.08708298
vt 0.0702936 0.07771498
vt 0.036714 0.07653898
vt 0.0531622 0.07602298
vt 0.0531622 0.07602298
vt 0.0665761 0.06577897
vt 0.039482 0.06770402
vt 0.0528914 0.065420985
vt 0.0528914 0.065420985
vt 0.0627151 0.056907
vt 0.0429068 0.060269
vt 0.0517394 0.05609399
vt 0.0560498 0.05110103
vt 0.0486577 0.044896007
vt 0.0517394 0.05609399
vt 0.0454065 0.054216027
vt 0.0486577 0.044896007
vn 0.7835381 0.021749701 -0.620963
vn 0.58059 0.020138098 -0.81394696
vn 0.6651881 0.023935108 -0.74629205
vn 0.7765253 0.016180107 -0.6298782
vn 0.46627188 0.016965495 -0.88447875
vn 0.42555898 0.0103947995 -0.9048709
vn 0.9275326 0.020942692 -0.37315485
vn 0.87093735 0.027262012 -0.4906372
vn 0.86502916 0.02818711 -0.5009291
vn 0.85931814 0.029889908 -0.5105671
vn 0.95549864 0.018095093 -0.29443988
vn 0.97532076 0.013181698 -0.22039895
vn 0.797382 0.008777501 -0.603411
vn 0.8110756 0.007838316 -0.58488876
vn 0.37529805 0.006107501 -0.9268841
vn 0.2998351 0.009746512 -0.9539412
vn 0.41863522 0.018335009 -0.9079694
vn 0.38239393 0.017380798 -0.9238359
vn 0.42042604 0.019735606 -0.9071122
vn 0.5514279 0.010785597 -0.8341528
vn 0.0017312501 0.0038709303 -0.99999106
vn 0.77914494 0.010905599 -0.626749
vn 0.99700207 0.008882631 -0.0768629
vn -0.03425629 0.009418646 -0.9993687
vn 0.5110979 0.013537596 -0.85941577
vn 0.7453068 0.016083295 -0.6665277
vn 0.9809856 0.012272994 -0.19369191
vn 0.9914027 0.013148497 0.13018395
vn 0.9993137 0.012066297 -0.035019994
vn 0.7649791 0.023477703 -0.64362705
vn 0.5195398 0.0140556935 -0.8543306
vn 0.97257376 0.021271592 -0.23161992
vn 0.9526819 0.031352095 -0.30234796
vn 0.9975586 0.029565185 -0.06326727
vn 0.97794527 0.018025303 -0.20808205
vn 0.9674571 0.019889202 -0.25225204
vn 0.9707672 0.024326704 -0.23878704
vn 0.9694764 0.024254208 -0.24398212
vn 0.9720843 0.02562041 -0.23322907
vn 0.9869933 0.017456803 0.15981105
vn 0.98499775 0.023979796 0.17089295
vn 0.9853483 0.028507506 0.16815504
vn 0.95563567 0.027994592 0.29321784
vn 0.9402728 0.031568494 0.33895493
vn 0.96650535 0.018977208 0.2559441
vn 0.9710532 0.0150286015 0.23839006
vn 0.9958847 0.0151350945 0.08935577
vn 0.99820495 0.019420197 0.056654096
vn 0.9994468 0.016999198 0.028585596
vn 0.99760383 0.021501198 0.06576039
vn 0.9993364 0.013981606 -0.033634115
vn 0.9977456 0.023944387 -0.06269327
vn 0.9857022 0.019095106 -0.16741104
vn 0.9852292 0.023190202 -0.16966304
vn 0.15003908 0.018096508 -0.9885145
vn 0.147909 0.0178989 -0.988839
vn 0.18616296 0.015682997 -0.98239374
vn -0.02876769 0.0062375283 -0.9995666
vn -0.29720402 0.009755721 -0.9547641
vn -0.17189798 0.015563397 -0.98499185
vn -0.11699296 0.018053195 -0.9929686
vn -0.11822897 0.018237196 -0.9928188
vn -0.36514893 0.0036923492 -0.9309418
vn -0.4416011 0.009869122 -0.8971572
vn -0.34784096 0.012964899 -0.93746394
vn -0.023182493 0.015400395 -0.9996126
vn -0.2666899 0.023468088 -0.9634966
vn -0.02818559 0.023832591 -0.9993186
vn -0.42973396 0.008867729 -0.9029119
vn -0.79818314 0.0067446004 -0.60237706
vn -0.80247515 0.012985904 -0.5965442
vn -0.9681903 0.012652404 -0.24989508
vn -0.40508398 0.011022599 -0.914213
vn -0.41770807 0.018634604 -0.90839016
vn -0.38485694 0.017833898 -0.92280394
vn -0.41476405 0.019402303 -0.90972215
vn -0.7764008 0.0101414975 -0.63015777
vn -0.767502 0.0160748 -0.64084506
vn -0.46561897 0.0173056 -0.884816
vn -0.55222595 0.019947698 -0.83345586
vn -0.7701872 0.021538304 -0.6374541
vn -0.62679625 0.023044309 -0.7788423
vn -0.9745409 0.014293899 -0.22375397
vn -0.78700507 0.00946087 -0.616874
vn -0.77203286 0.016127896 -0.6353779
vn -0.9557025 0.017855609 -0.29379216
vn -0.9275326 0.020942692 -0.37315485
vn -0.7701872 0.021538304 -0.6374541
vn -0.8709376 0.027261889 -0.49063674
vn -0.86502993 0.028187096 -0.5009279
vn -0.85931814 0.029889908 -0.5105671
vn -0.9967338 0.011661397 -0.07991118
vn -0.9864521 0.016129702 -0.16325504
vn -0.99847776 0.0127468975 -0.053663284
vn -0.968574 0.0196657 -0.247947
vn -0.9939812 0.013237303 0.10874801
vn -0.9993364 0.013981606 -0.033634115
vn -0.9992768 0.030741394 0.022380797
vn -0.99609643 0.013320005 0.08726054
vn -0.997086 0.0438517 0.0624221
vn -0.9904041 0.06209751 -0.12346501
vn -0.9867703 0.016924804 -0.16123904
vn -0.9707672 0.024326704 -0.23878704
vn -0.9694764 0.024254208 -0.24398212
vn -0.9720843 0.02562041 -0.23322907
vn -0.9963915 0.01889559 0.08274636
vn -0.9864211 0.021545803 -0.16281603
vn -0.9973763 0.024560608 0.06809772
vn -0.9843849 0.025516799 -0.17416999
vn -0.99722517 0.028505208 0.06877132
vn -0.9729646 0.02824339 0.2292209
vn -0.95660514 0.031628605 0.28966603
vn -0.9732184 0.020430207 0.22897309
vn -0.9711585 0.015384393 0.2379379
vn -0.9959306 0.014715593 0.088914365
vn -0.9982589 0.019439396 0.055689294
vn -0.99944526 0.017112903 0.028570507
vn -0.99760383 0.021501198 0.065760486
vn -0.9843849 0.025516799 -0.17416999
vn -0.9864211 0.021545803 -0.16281603
vn -0.86172974 0.017842093 -0.5070538
vn -0.84469783 0.010326197 -0.53514385
vn -0.534248 0.0153747 -0.84518796
vn -0.9864521 0.016129702 -0.16325504
vn -0.34784096 0.012964899 -0.93746394
vn -0.2666899 0.023468088 -0.9634966
vn -0.80246276 0.010888497 -0.5966028
vn -0.4416011 0.009869122 -0.8971572
vn -0.9681903 0.012652404 -0.24989508
vn -0.42973396 0.008867729 -0.9029119
vn -0.8249517 0.016241394 -0.56496984
vn -0.9907204 0.016434807 -0.13491806
vn -0.93150574 0.015343796 -0.3634029
vn -0.9991429 0.019639798 -0.036440097
vn -0.9982262 0.019666703 -0.056192614
vn -0.9997683 0.021368807 0.002603231
vn -0.5277989 0.016763197 -0.8492038
vn -0.266281 0.012055901 -0.9638201
vn -0.26567298 0.0181728 -0.9638919
vn -0.280206 0.018690698 -0.959758
vn -0.26528198 0.017346796 -0.96401477
vn -0.023182493 0.015400395 -0.9996126
vn 0.23847306 0.019751506 -0.9709482
vn -0.02818559 0.023832591 -0.9993186
vn 0.277317 0.015896 -0.96064705
vn -0.03425629 0.009418646 -0.9993687
vn 0.5110979 0.013537596 -0.85941577
vn 0.5195398 0.0140556935 -0.8543306
vn 0.2987949 0.013794096 -0.95421773
vn 0.5514279 0.010785597 -0.8341528
vn -0.104393 0.013607601 -0.994443
vn 0.6794891 0.018071001 -0.73346305
vn 0.19855092 0.019086294 -0.97990465
vn 0.391305 0.0172674 -0.920099
vn -0.23894507 0.016191402 -0.9708981
vn 0.711449 0.021911401 -0.702396
vn -0.24235494 0.018734096 -0.97000676
vn 0.69322777 0.024389891 -0.72030574
vn -0.32222402 0.0174846 -0.94650203
vn 0.7517601 0.024749206 -0.6589721
vn -0.28317794 0.018456297 -0.9588897
vn -0.2987359 0.017702993 -0.95417166
vn -0.23266406 0.016734801 -0.9724132
vn 0.7444386 0.027446086 -0.66712666
vn 0.7735269 0.028037995 -0.6331429
vn 0.77361506 0.028822402 -0.633
g M_Hair02_0
f 3/3/3 2/2/2 1/1/1
f 1/1/1 2/2/2 4/4/4
f 4/4/4 2/2/2 5/5/5
f 5/5/5 6/6/6 4/4/4
f 1/1/1 4/4/4 7/7/7
f 7/7/7 8/8/8 1/1/1
f 8/8/8 9/9/9 1/1/1
f 10/10/10 9/9/9 8/8/8
f 7/7/7 4/4/4 11/11/11
f 11/11/11 4/4/4 12/12/12
f 4/4/4 6/6/6 13/13/13
f 13/13/13 12/12/12 4/4/4
f 6/6/6 14/14/14 13/13/13
f 14/14/14 12/12/12 13/13/13
f 6/6/6 15/15/15 14/14/14
f 16/16/16 15/15/15 6/6/6
f 6/6/6 17/17/17 16/16/16
f 17/17/17 18/18/18 16/16/16
f 19/19/19 18/18/18 17/17/17
f 20/20/20 14/14/14 15/15/15
f 16/16/16 21/21/21 15/15/15
f 21/21/21 20/20/20 15/15/15
f 22/22/22 14/14/14 20/20/20
f 23/23/23 12/12/12 14/14/14
f 22/22/22 23/23/23 14/14/14
f 24/24/24 20/20/20 21/21/21
f 25/25/25 22/22/22 20/20/20
f 26/26/26 22/22/22 25/25/25
f 27/27/27 23/23/23 22/22/22
f 26/26/26 27/27/27 22/22/22
f 27/27/27 28/28/28 23/23/23
f 12/12/12 23/23/23 29/29/29
f 29/29/29 23/23/23 28/28/28
f 25/25/25 30/30/30 26/26/26
f 31/31/31 30/30/30 25/25/25
f 26/26/26 30/30/30 32/32/32
f 32/32/32 27/27/27 26/26/26
f 33/33/33 32/32/32 30/30/30
f 33/33/33 34/34/34 32/32/32
f 29/29/29 35/35/35 12/12/12
f 35/35/35 36/36/36 12/12/12
f 35/35/35 37/37/37 36/36/36
f 37/37/37 38/38/38 36/36/36
f 39/39/39 38/38/38 37/37/37
f 27/27/27 32/32/32 40/40/40
f 40/40/40 28/28/28 27/27/27
f 41/41/41 32/32/32 34/34/34
f 40/40/40 32/32/32 41/41/41
f 41/41/41 34/34/34 42/42/42
f 43/43/43 41/41/41 42/42/42
f 44/44/44 43/43/43 42/42/42
f 43/43/43 45/45/45 41/41/41
f 40/40/40 41/41/41 45/45/45
f 45/45/45 46/46/46 40/40/40
f 46/46/46 28/28/28 40/40/40
f 46/46/46 47/47/47 28/28/28
f 47/47/47 48/48/48 28/28/28
f 48/48/48 49/49/49 28/28/28
f 50/50/50 49/49/49 48/48/48
f 29/29/29 28/28/28 51/51/51
f 51/51/51 52/52/52 29/29/29
f 52/52/52 53/53/53 29/29/29
f 54/54/54 53/53/53 52/52/52
f 57/57/57 56/56/56 55/55/55
f 16/16/16 56/56/56 57/57/57
f 16/16/16 57/57/57 58/58/58
f 58/58/58 21/21/21 16/16/16
f 58/58/58 59/59/59 21/21/21
f 59/59/59 58/58/58 60/60/60
f 59/59/59 60/60/60 61/61/61
f 60/60/60 62/62/62 61/61/61
f 21/21/21 59/59/59 63/63/63
f 63/63/63 24/24/24 21/21/21
f 64/64/64 24/24/24 63/63/63
f 64/64/64 65/65/65 24/24/24
f 24/24/24 65/65/65 66/66/66
f 67/67/67 66/66/66 65/65/65
f 68/68/68 66/66/66 67/67/67
f 64/64/64 63/63/63 69/69/69
f 63/63/63 70/70/70 69/69/69
f 71/71/71 69/69/69 70/70/70
f 71/71/71 70/70/70 72/72/72
f 59/59/59 73/73/73 63/63/63
f 73/73/73 70/70/70 63/63/63
f 73/73/73 59/59/59 74/74/74
f 74/74/74 59/59/59 75/75/75
f 76/76/76 74/74/74 75/75/75
f 77/77/77 70/70/70 73/73/73
f 73/73/73 78/78/78 77/77/77
f 79/79/79 78/78/78 73/73/73
f 80/80/80 78/78/78 79/79/79
f 81/81/81 78/78/78 80/80/80
f 82/82/82 81/81/81 80/80/80
f 83/83/83 72/72/72 70/70/70
f 83/83/83 70/70/70 84/84/84
f 84/84/84 85/85/85 83/83/83
f 86/86/86 83/83/83 85/85/85
f 85/85/85 87/87/87 86/86/86
f 88/88/88 87/87/87 85/85/85
f 87/87/87 88/88/88 89/89/89
f 88/88/88 90/90/90 89/89/89
f 89/89/89 90/90/90 91/91/91
f 92/92/92 72/72/72 83/83/83
f 93/93/93 72/72/72 92/92/92
f 83/83/83 94/94/94 92/92/92
f 95/95/95 94/94/94 83/83/83
f 94/94/94 96/96/96 92/92/92
f 94/94/94 97/97/97 96/96/96
f 97/97/97 94/94/94 98/98/98
f 99/99/99 93/93/93 92/92/92
f 98/98/98 94/94/94 100/100/100
f 101/101/101 98/98/98 100/100/100
f 102/102/102 94/94/94 95/95/95
f 102/102/102 95/95/95 103/103/103
f 103/103/103 95/95/95 104/104/104
f 105/105/105 103/103/103 104/104/104
f 106/106/106 93/93/93 99/99/99
f 93/93/93 106/106/106 107/107/107
f 107/107/107 106/106/106 108/108/108
f 108/108/108 109/109/109 107/107/107
f 110/110/110 109/109/109 108/108/108
f 111/111/111 110/110/110 108/108/108
f 112/112/112 110/110/110 111/111/111
f 111/111/111 108/108/108 113/113/113
f 113/113/113 108/108/108 106/106/106
f 113/113/113 106/106/106 114/114/114
f 114/114/114 106/106/106 99/99/99
f 114/114/114 99/99/99 115/115/115
f 115/115/115 99/99/99 116/116/116
f 116/116/116 99/99/99 117/117/117
f 118/118/118 116/116/116 117/117/117
f 121/121/121 120/120/120 119/119/119
f 122/122/122 120/120/120 121/121/121
f 121/121/121 123/123/123 122/122/122
f 120/120/120 122/122/122 124/124/124
f 125/125/125 122/122/122 123/123/123
f 125/125/125 123/123/123 126/126/126
f 124/124/124 122/122/122 127/127/127
f 122/122/122 125/125/125 127/127/127
f 127/127/127 125/125/125 128/128/128
f 127/127/127 129/129/129 124/124/124
f 128/128/128 130/130/130 127/127/127
f 127/127/127 131/131/131 129/129/129
f 127/127/127 130/130/130 131/131/131
f 132/132/132 129/129/129 131/131/131
f 131/131/131 133/133/133 132/132/132
f 132/132/132 133/133/133 134/134/134
f 134/134/134 133/133/133 135/135/135
f 135/135/135 136/136/136 134/134/134
f 131/131/131 130/130/130 137/137/137
f 138/138/138 137/137/137 130/130/130
f 139/139/139 137/137/137 138/138/138
f 140/140/140 137/137/137 139/139/139
f 139/139/139 141/141/141 140/140/140
f 144/144/144 143/143/143 142/142/142
f 143/143/143 145/145/145 142/142/142
f 142/142/142 145/145/145 146/146/146
f 147/147/147 145/145/145 143/143/143
f 148/148/148 147/147/147 143/143/143
f 149/149/149 146/146/146 145/145/145
f 149/149/149 145/145/145 147/147/147
f 150/150/150 149/149/149 147/147/147
f 149/149/149 151/151/151 146/146/146
f 150/150/150 152/152/152 149/149/149
f 149/149/149 153/153/153 151/151/151
f 154/154/154 149/149/149 152/152/152
f 155/155/155 151/151/151 153/153/153
f 154/154/154 152/152/152 156/156/156
f 153/153/153 157/157/157 155/155/155
f 154/154/154 156/156/156 158/158/158
f 159/159/159 155/155/155 157/157/157
f 160/160/160 158/158/158 156/156/156
f 159/159/159 157/157/157 161/161/161
f 162/162/162 159/159/159 161/161/161
f 161/161/161 163/163/163 162/162/162
f 164/164/164 158/158/158 160/160/160
f 164/164/164 160/160/160 165/165/165
f 165/165/165 166/166/166 164/164/164
