g M_Pierce
v 0.05330034 1.523516 -0.019854993
v 0.052602742 1.5249116 -0.021325877
v 0.05238191 1.5227127 -0.022810595
v 0.053107418 1.5217292 -0.020996654
v 0.05288224 1.5203904 -0.024008531
v 0.053508155 1.519868 -0.021952527
v 0.054488495 1.5183502 -0.024601903
v 0.054795764 1.5182415 -0.022432059
v 0.05659104 1.5167245 -0.024750892
v 0.05648087 1.5169461 -0.02255903
v 0.059103254 1.5160713 -0.024154471
v 0.058490105 1.5164255 -0.022082875
v 0.061575573 1.5160975 -0.02316566
v 0.06046759 1.5164468 -0.021294732
v 0.06351998 1.5172132 -0.02173012
v 0.06202165 1.5173359 -0.02014162
v 0.06491132 1.5188757 -0.020183908
v 0.063133635 1.5186613 -0.01890207
v 0.06514922 1.5211045 -0.018751545
v 0.06332635 1.5204474 -0.017757365
v 0.06464459 1.5234286 -0.017554112
v 0.062925406 1.5223079 -0.016803242
v 0.0630392 1.5254642 -0.016963251
v 0.061637916 1.5239342 -0.016321568
v 0.06093663 1.5270876 -0.016815642
v 0.05995293 1.52523 -0.016197292
v 0.058428593 1.527739 -0.017411375
v 0.057943735 1.5257505 -0.01667083
v 0.05595902 1.5277145 -0.018398115
v 0.05596628 1.5257291 -0.01746119
v 0.054015193 1.5266005 -0.01983241
v 0.054412283 1.5248405 -0.018612478
v 0.052602742 1.5249116 -0.021325877
v 0.05330034 1.523516 -0.019854993
v 0.051520843 1.5232981 -0.018568384
v 0.05330034 1.523516 -0.019854993
v 0.053107418 1.5217292 -0.020996654
v 0.05128388 1.5210713 -0.02000078
v 0.053508155 1.519868 -0.021952527
v 0.051788572 1.5187472 -0.021200344
v 0.054795764 1.5182415 -0.022432059
v 0.053395376 1.5167137 -0.021792527
v 0.05648087 1.5169461 -0.02255903
v 0.055498354 1.5150901 -0.021943357
v 0.058490105 1.5164255 -0.022082875
v 0.05800767 1.5144409 -0.02134863
v 0.06046759 1.5164468 -0.021294732
v 0.060477275 1.5144656 -0.020364195
v 0.06202165 1.5173359 -0.02014162
v 0.062421884 1.515581 -0.018929837
v 0.063133635 1.5186613 -0.01890207
v 0.06381384 1.5172383 -0.017386653
v 0.06332635 1.5204474 -0.017757365
v 0.06398864 1.5194372 -0.015995566
v 0.062925406 1.5223079 -0.016803242
v 0.06342876 1.5217297 -0.014836575
v 0.061637916 1.5239342 -0.016321568
v 0.061880752 1.5237973 -0.014200862
v 0.05995293 1.52523 -0.016197292
v 0.05984298 1.5254519 -0.014005752
v 0.057943735 1.5257505 -0.01667083
v 0.057330627 1.5261047 -0.014599486
v 0.05596628 1.5257291 -0.01746119
v 0.054857206 1.5260764 -0.015587566
v 0.054412283 1.5248405 -0.018612478
v 0.052912932 1.5249614 -0.017021531
v 0.05330034 1.523516 -0.019854993
v 0.051520843 1.5232981 -0.018568384
v 0.05128388 1.5210713 -0.02000078
v 0.051593915 1.5243554 -0.020018455
v 0.051520843 1.5232981 -0.018568384
v 0.05133398 1.5219502 -0.021556841
v 0.052602742 1.5249116 -0.021325877
v 0.051788572 1.5187472 -0.021200344
v 0.05238191 1.5227127 -0.022810595
v 0.051873773 1.5194446 -0.02284435
v 0.053395376 1.5167137 -0.021792527
v 0.05288224 1.5203904 -0.024008531
v 0.053605895 1.5172509 -0.023485184
v 0.055498354 1.5150901 -0.021943357
v 0.054488495 1.5183502 -0.024601903
v 0.055873767 1.5155027 -0.023651084
v 0.05800767 1.5144409 -0.02134863
v 0.05659104 1.5167245 -0.024750892
v 0.0585796 1.5147997 -0.023008712
v 0.060477275 1.5144656 -0.020364195
v 0.059103254 1.5160713 -0.024154471
v 0.06124329 1.5148275 -0.021946775
v 0.062421884 1.515581 -0.018929837
v 0.061575573 1.5160975 -0.02316566
v 0.063339144 1.5160306 -0.020400677
v 0.06381384 1.5172383 -0.017386653
v 0.06351998 1.5172132 -0.02173012
v 0.06483985 1.517821 -0.018738043
v 0.06398864 1.5194372 -0.015995566
v 0.06491132 1.5188757 -0.020183908
v 0.0650998 1.5202262 -0.0171974
v 0.06342876 1.5217297 -0.014836575
v 0.06514922 1.5211045 -0.018751545
v 0.06456002 1.522732 -0.0159124
v 0.061880752 1.5237973 -0.014200862
v 0.06464459 1.5234286 -0.017554112
v 0.06282796 1.524926 -0.0152694
v 0.05984298 1.5254519 -0.014005752
v 0.0630392 1.5254642 -0.016963251
v 0.060560133 1.5266742 -0.015106055
v 0.057330627 1.5261047 -0.014599486
v 0.06093663 1.5270876 -0.016815642
v 0.05785422 1.5273765 -0.015745478
v 0.054857206 1.5260764 -0.015587566
v 0.058428593 1.527739 -0.017411375
v 0.05519045 1.5273483 -0.016809244
v 0.052912932 1.5249614 -0.017021531
v 0.05595902 1.5277145 -0.018398115
v 0.053094607 1.5261456 -0.018353172
v 0.051520843 1.5232981 -0.018568384
v 0.054015193 1.5266005 -0.01983241
v 0.051593915 1.5243554 -0.020018455
v 0.052602742 1.5249116 -0.021325877
vt 0.941668 0.19450402
vt 0.941668 0.13884002
vt 0.879417 0.13884002
vt 0.879417 0.19450402
vt 0.817167 0.13884002
vt 0.817167 0.19450402
vt 0.75687 0.13884002
vt 0.75687 0.19450402
vt 0.696573 0.13884002
vt 0.696573 0.19450402
vt 0.641326 0.13884002
vt 0.641326 0.19450402
vt 0.586079 0.13884002
vt 0.586079 0.19450402
vt 0.534642 0.13884002
vt 0.534642 0.19450402
vt 0.483205 0.13884002
vt 0.483205 0.19450402
vt 0.432947 0.13884002
vt 0.432947 0.19450402
vt 0.382688 0.13884002
vt 0.382688 0.19450402
vt 0.330542 0.13884002
vt 0.330542 0.19450402
vt 0.278396 0.13884002
vt 0.278396 0.19450402
vt 0.22268 0.13884002
vt 0.22268 0.19450402
vt 0.166964 0.13884002
vt 0.166964 0.19450402
vt 0.110852 0.13884002
vt 0.110852 0.19450402
vt 0.054741 0.13884002
vt 0.054741 0.19450402
vt 0.941668 0.249556
vt 0.941668 0.19450402
vt 0.879417 0.19450402
vt 0.879417 0.249556
vt 0.817167 0.19450402
vt 0.817167 0.249556
vt 0.75687 0.19450402
vt 0.75687 0.249556
vt 0.696573 0.19450402
vt 0.696573 0.249556
vt 0.641326 0.19450402
vt 0.641326 0.249556
vt 0.586079 0.19450402
vt 0.586079 0.249556
vt 0.534642 0.19450402
vt 0.534642 0.249556
vt 0.483205 0.19450402
vt 0.483205 0.249556
vt 0.432947 0.19450402
vt 0.432947 0.249556
vt 0.382688 0.19450402
vt 0.382688 0.249556
vt 0.330542 0.19450402
vt 0.330542 0.249556
vt 0.278396 0.19450402
vt 0.278396 0.249556
vt 0.22268 0.19450402
vt 0.22268 0.249556
vt 0.166964 0.19450402
vt 0.166964 0.249556
vt 0.110852 0.19450402
vt 0.110852 0.249556
vt 0.054741 0.19450402
vt 0.054741 0.249556
vt 0.879417 0.039804995
vt 0.941668 0.090232015
vt 0.941668 0.039804995
vt 0.879417 0.090232015
vt 0.941668 0.13884002
vt 0.817167 0.039804995
vt 0.879417 0.13884002
vt 0.817167 0.090232015
vt 0.75687 0.039804995
vt 0.817167 0.13884002
vt 0.75687 0.090232015
vt 0.696573 0.039804995
vt 0.75687 0.13884002
vt 0.696573 0.090232015
vt 0.641326 0.039804995
vt 0.696573 0.13884002
vt 0.641326 0.090232015
vt 0.586079 0.039804995
vt 0.641326 0.13884002
vt 0.586079 0.090232015
vt 0.534642 0.039804995
vt 0.586079 0.13884002
vt 0.534642 0.090232015
vt 0.483205 0.039804995
vt 0.534642 0.13884002
vt 0.483205 0.090232015
vt 0.432947 0.039804995
vt 0.483205 0.13884002
vt 0.432947 0.090232015
vt 0.382688 0.039804995
vt 0.432947 0.13884002
vt 0.382688 0.090232015
vt 0.330542 0.039804995
vt 0.382688 0.13884002
vt 0.330542 0.090232015
vt 0.278396 0.039804995
vt 0.330542 0.13884002
vt 0.278396 0.090232015
vt 0.22268 0.039804995
vt 0.278396 0.13884002
vt 0.22268 0.090232015
vt 0.166964 0.039804995
vt 0.22268 0.13884002
vt 0.166964 0.090232015
vt 0.110852 0.039804995
vt 0.166964 0.13884002
vt 0.110852 0.090232015
vt 0.054741 0.039804995
vt 0.110852 0.13884002
vt 0.054741 0.090232015
vt 0.054741 0.13884002
vn 0.8947646 -0.035940856 -0.44508928
vn 0.8954376 -0.0343065 -0.44386336
vn 0.9402234 0.21404885 -0.2648835
vn 0.94030863 0.2124153 -0.26589373
vn 0.8662702 0.4786452 -0.14309002
vn 0.86705077 0.47703725 -0.14372988
vn 0.69418764 0.71708214 -0.062424425
vn 0.6949901 0.7162924 -0.06256229
vn 0.44621235 0.89240205 -0.06717867
vn 0.44703475 0.89199704 -0.06709147
vn 0.16111268 0.979658 -0.119635835
vn 0.16109033 0.97966087 -0.11964299
vn -0.11307732 0.9626679 -0.24593526
vn -0.11387363 0.96246374 -0.24636632
vn -0.3505746 0.84857607 -0.3962526
vn -0.35130233 0.8479824 -0.39687863
vn -0.49382022 0.6503151 -0.5772625
vn -0.49443367 0.64888555 -0.57834494
vn -0.5454491 0.3955672 -0.73892623
vn -0.5453906 0.39445454 -0.73956394
vn -0.46922252 0.13261013 -0.8730663
vn -0.46846056 0.13099043 -0.87371975
vn -0.30519256 -0.116459586 -0.9451427
vn -0.30440223 -0.117268994 -0.94529754
vn -0.0514506 -0.2905548 -0.95547414
vn -0.050604068 -0.29098058 -0.9553898
vn 0.23430707 -0.3884788 -0.89117026
vn 0.23430575 -0.38847858 -0.8911706
vn 0.5189481 -0.36305007 -0.7738782
vn 0.5181414 -0.36326325 -0.77431864
vn 0.74884677 -0.25093523 -0.61340034
vn 0.74857426 -0.25118083 -0.61363244
vn 0.8954376 -0.0343065 -0.44386336
vn 0.8947646 -0.035940856 -0.44508928
vn 0.49481663 -0.6503133 0.5764106
vn 0.49542382 -0.6488964 0.57748485
vn 0.5461572 -0.39432022 0.73906964
vn 0.5462188 -0.39543685 0.73842716
vn 0.4686998 -0.13121958 0.8735571
vn 0.4695279 -0.13297369 0.87284684
vn 0.30448997 0.116678864 0.94534224
vn 0.3053426 0.11580925 0.94517416
vn 0.05046388 0.28968635 0.9557904
vn 0.051391054 0.2892217 0.95588166
vn -0.23441127 0.38683888 0.89185596
vn -0.234359 0.38683233 0.8918725
vn -0.51794285 0.3611796 0.7754254
vn -0.5187022 0.3609785 0.77501136
vn -0.7519551 0.24974254 0.6100756
vn -0.7526773 0.2491251 0.6094371
vn -0.90005654 0.04103417 0.433837
vn -0.9003827 0.040272765 0.43323106
vn -0.949152 -0.20637804 0.23773637
vn -0.9492324 -0.20383671 0.23960046
vn -0.87812483 -0.46741942 0.1020583
vn -0.8785507 -0.46653894 0.102420405
vn -0.7084952 -0.7048186 0.0355707
vn -0.70566565 -0.70765287 0.035543863
vn -0.45161703 -0.89015007 0.06062081
vn -0.4494813 -0.89120984 0.060922008
vn -0.16065529 -0.97973335 0.11963481
vn -0.16062203 -0.9797376 0.11964544
vn 0.11447638 -0.9625233 0.24585378
vn 0.113715954 -0.962718 0.24544366
vn 0.35211515 -0.84812117 0.3958603
vn 0.35140345 -0.8487001 0.39525145
vn 0.49542382 -0.6488964 0.57748485
vn 0.49481663 -0.6503133 0.5764106
vn -0.99842936 -0.0284163 -0.048284017
vn -0.8918735 0.4431913 -0.09023924
vn -0.94727224 0.2796054 0.1565127
vn -0.9464102 0.119001746 -0.30024374
vn -0.7532867 0.56793237 -0.33168048
vn -0.91223633 -0.35786042 -0.19940117
vn -0.8109661 0.2552936 -0.52645904
vn -0.856844 -0.22352588 -0.46460152
vn -0.70067334 -0.650139 -0.29389837
vn -0.72475845 -0.070355296 -0.68540156
vn -0.6367752 -0.5318468 -0.558262
vn -0.3994581 -0.8673353 -0.29692203
vn -0.5178409 -0.36813492 -0.77221596
vn -0.3197463 -0.7589681 -0.5672123
vn -0.049872164 -0.97239774 -0.22793733
vn -0.21149847 -0.5826428 -0.7847265
vn 0.045848943 -0.8709884 -0.4891595
vn 0.2898042 -0.9539166 -0.077824995
vn 0.13742867 -0.693413 -0.70731294
vn 0.40458238 -0.85007113 -0.33718273
vn 0.57572937 -0.8100583 0.11109111
vn 0.4822767 -0.6692217 -0.5652889
vn 0.70160913 -0.6999477 -0.13348302
vn 0.7515897 -0.5659797 0.3387916
vn 0.76587343 -0.52843064 -0.3663316
vn 0.8912816 -0.44340238 0.09492796
vn 0.78804034 -0.26279846 0.55671304
vn 0.94731426 -0.27921936 -0.15694618
vn 0.9394593 -0.1220713 0.3201792
vn 0.6889532 0.034798957 0.72396994
vn 0.99843913 0.028669853 0.047929622
vn 0.8455521 0.20848502 0.49150363
vn 0.5054494 0.33101752 0.79683644
vn 0.91218543 0.35800254 0.19937876
vn 0.6347252 0.51499623 0.5761101
vn 0.21291643 0.57168436 0.7923658
vn 0.7006179 0.65012753 0.29405594
vn 0.32087007 0.75494313 0.57192945
vn -0.13744353 0.6934795 0.707245
vn 0.39914623 0.8673138 0.297404
vn -0.045932338 0.8708994 0.48931026
vn -0.4822716 0.66943455 0.56504107
vn 0.0494301 0.97219807 0.22888365
vn -0.40461126 0.8500443 0.33721575
vn -0.76579905 0.5287549 0.3660192
vn -0.29056868 0.95357066 0.07920151
vn -0.7017607 0.69978184 0.13355663
vn -0.94727224 0.2796054 0.1565127
vn -0.5747426 0.81068856 -0.111602284
vn -0.8918735 0.4431913 -0.09023924
vn -0.7532867 0.56793237 -0.33168048
g M_Pierce_0
f 3/3/3 2/2/2 1/1/1
f 4/4/4 3/3/3 1/1/1
f 5/5/5 3/3/3 4/4/4
f 6/6/6 5/5/5 4/4/4
f 7/7/7 5/5/5 6/6/6
f 8/8/8 7/7/7 6/6/6
f 9/9/9 7/7/7 8/8/8
f 10/10/10 9/9/9 8/8/8
f 11/11/11 9/9/9 10/10/10
f 12/12/12 11/11/11 10/10/10
f 13/13/13 11/11/11 12/12/12
f 14/14/14 13/13/13 12/12/12
f 15/15/15 13/13/13 14/14/14
f 16/16/16 15/15/15 14/14/14
f 17/17/17 15/15/15 16/16/16
f 18/18/18 17/17/17 16/16/16
f 19/19/19 17/17/17 18/18/18
f 20/20/20 19/19/19 18/18/18
f 21/21/21 19/19/19 20/20/20
f 22/22/22 21/21/21 20/20/20
f 23/23/23 21/21/21 22/22/22
f 24/24/24 23/23/23 22/22/22
f 25/25/25 23/23/23 24/24/24
f 26/26/26 25/25/25 24/24/24
f 27/27/27 25/25/25 26/26/26
f 28/28/28 27/27/27 26/26/26
f 29/29/29 27/27/27 28/28/28
f 30/30/30 29/29/29 28/28/28
f 31/31/31 29/29/29 30/30/30
f 32/32/32 31/31/31 30/30/30
f 33/33/33 31/31/31 32/32/32
f 34/34/34 33/33/33 32/32/32
f 37/37/37 36/36/36 35/35/35
f 38/38/38 37/37/37 35/35/35
f 39/39/39 37/37/37 38/38/38
f 40/40/40 39/39/39 38/38/38
f 39/39/39 40/40/40 41/41/41
f 40/40/40 42/42/42 41/41/41
f 41/41/41 42/42/42 43/43/43
f 42/42/42 44/44/44 43/43/43
f 43/43/43 44/44/44 45/45/45
f 44/44/44 46/46/46 45/45/45
f 45/45/45 46/46/46 47/47/47
f 46/46/46 48/48/48 47/47/47
f 49/49/49 47/47/47 48/48/48
f 50/50/50 49/49/49 48/48/48
f 51/51/51 49/49/49 50/50/50
f 52/52/52 51/51/51 50/50/50
f 53/53/53 51/51/51 52/52/52
f 54/54/54 53/53/53 52/52/52
f 55/55/55 53/53/53 54/54/54
f 56/56/56 55/55/55 54/54/54
f 57/57/57 55/55/55 56/56/56
f 58/58/58 57/57/57 56/56/56
f 59/59/59 57/57/57 58/58/58
f 60/60/60 59/59/59 58/58/58
f 61/61/61 59/59/59 60/60/60
f 62/62/62 61/61/61 60/60/60
f 63/63/63 61/61/61 62/62/62
f 64/64/64 63/63/63 62/62/62
f 65/65/65 63/63/63 64/64/64
f 66/66/66 65/65/65 64/64/64
f 67/67/67 65/65/65 66/66/66
f 68/68/68 67/67/67 66/66/66
f 71/71/71 70/70/70 69/69/69
f 70/70/70 72/72/72 69/69/69
f 70/70/70 73/73/73 72/72/72
f 69/69/69 72/72/72 74/74/74
f 73/73/73 75/75/75 72/72/72
f 72/72/72 76/76/76 74/74/74
f 72/72/72 75/75/75 76/76/76
f 74/74/74 76/76/76 77/77/77
f 75/75/75 78/78/78 76/76/76
f 76/76/76 79/79/79 77/77/77
f 79/79/79 76/76/76 78/78/78
f 77/77/77 79/79/79 80/80/80
f 81/81/81 79/79/79 78/78/78
f 79/79/79 82/82/82 80/80/80
f 82/82/82 79/79/79 81/81/81
f 80/80/80 82/82/82 83/83/83
f 84/84/84 82/82/82 81/81/81
f 82/82/82 85/85/85 83/83/83
f 85/85/85 82/82/82 84/84/84
f 83/83/83 85/85/85 86/86/86
f 87/87/87 85/85/85 84/84/84
f 85/85/85 88/88/88 86/86/86
f 88/88/88 85/85/85 87/87/87
f 86/86/86 88/88/88 89/89/89
f 90/90/90 88/88/88 87/87/87
f 88/88/88 91/91/91 89/89/89
f 88/88/88 90/90/90 91/91/91
f 89/89/89 91/91/91 92/92/92
f 90/90/90 93/93/93 91/91/91
f 91/91/91 94/94/94 92/92/92
f 91/91/91 93/93/93 94/94/94
f 92/92/92 94/94/94 95/95/95
f 93/93/93 96/96/96 94/94/94
f 94/94/94 97/97/97 95/95/95
f 94/94/94 96/96/96 97/97/97
f 95/95/95 97/97/97 98/98/98
f 96/96/96 99/99/99 97/97/97
f 97/97/97 100/100/100 98/98/98
f 97/97/97 99/99/99 100/100/100
f 98/98/98 100/100/100 101/101/101
f 99/99/99 102/102/102 100/100/100
f 100/100/100 103/103/103 101/101/101
f 100/100/100 102/102/102 103/103/103
f 101/101/101 103/103/103 104/104/104
f 102/102/102 105/105/105 103/103/103
f 103/103/103 106/106/106 104/104/104
f 103/103/103 105/105/105 106/106/106
f 104/104/104 106/106/106 107/107/107
f 105/105/105 108/108/108 106/106/106
f 106/106/106 109/109/109 107/107/107
f 106/106/106 108/108/108 109/109/109
f 107/107/107 109/109/109 110/110/110
f 108/108/108 111/111/111 109/109/109
f 109/109/109 112/112/112 110/110/110
f 109/109/109 111/111/111 112/112/112
f 110/110/110 112/112/112 113/113/113
f 111/111/111 114/114/114 112/112/112
f 112/112/112 115/115/115 113/113/113
f 112/112/112 114/114/114 115/115/115
f 113/113/113 115/115/115 116/116/116
f 114/114/114 117/117/117 115/115/115
f 115/115/115 118/118/118 116/116/116
f 115/115/115 117/117/117 118/118/118
f 117/117/117 119/119/119 118/118/118
