g M_Pierce
v 0.061945036 1.5209658 -0.018320201
v 0.06506655 1.5251309 -0.018676957
v 0.06177736 1.5235693 -0.016615419
v 0.065234095 1.5225282 -0.020381447
v 0.06305027 1.5180835 -0.018741447
v 0.06633911 1.5196443 -0.020803139
v 0.0647965 1.5156909 -0.01776698
v 0.0680856 1.5172533 -0.019828476
v 0.066716366 1.5144323 -0.015657539
v 0.070005484 1.5159942 -0.01771899
v 0.06829466 1.5146471 -0.012976898
v 0.07158391 1.5162094 -0.015038447
v 0.069109134 1.5162741 -0.010445123
v 0.07239827 1.5178361 -0.012506668
v 0.06894157 1.5188762 -0.008740491
v 0.07223052 1.5204393 -0.010801696
v 0.06783657 1.5217606 -0.008318956
v 0.07112542 1.5233214 -0.010380527
v 0.06609009 1.5241516 -0.009293538
v 0.06937914 1.5257134 -0.011355052
v 0.06251035 1.5228403 -0.01599795
v 0.06579949 1.5244033 -0.01805901
v 0.06593382 1.5223193 -0.019423611
v 0.062644765 1.520756 -0.01736232
v 0.066818066 1.520011 -0.019761149
v 0.06352889 1.5184492 -0.017699806
v 0.06821515 1.5180978 -0.018981332
v 0.06492603 1.5165374 -0.016919727
v 0.06975092 1.5170932 -0.017293189
v 0.06646183 1.5155312 -0.015231827
v 0.07101355 1.517263 -0.015149493
v 0.067724474 1.5157007 -0.013088052
v 0.071665354 1.5185645 -0.013124098
v 0.068376295 1.5170008 -0.011062912
v 0.07153091 1.5206479 -0.011759669
v 0.06824175 1.5190858 -0.0096983155
v 0.07064676 1.5229552 -0.011422283
v 0.06735761 1.5213939 -0.0093608685
v 0.06924966 1.5248674 -0.012202302
v 0.06596061 1.5233052 -0.0101407
v 0.06506655 1.5251309 -0.018676957
v 0.06593382 1.5223193 -0.019423611
v 0.06579949 1.5244033 -0.01805901
v 0.065234095 1.5225282 -0.020381447
v 0.066818066 1.520011 -0.019761149
v 0.06633911 1.5196443 -0.020803139
v 0.06821515 1.5180978 -0.018981332
v 0.0680856 1.5172533 -0.019828476
v 0.06975092 1.5170932 -0.017293189
v 0.070005484 1.5159942 -0.01771899
v 0.07101355 1.517263 -0.015149493
v 0.07158391 1.5162094 -0.015038447
v 0.071665354 1.5185645 -0.013124098
v 0.07239827 1.5178361 -0.012506668
v 0.07153091 1.5206479 -0.011759669
v 0.07223052 1.5204393 -0.010801696
v 0.07064676 1.5229552 -0.011422283
v 0.07112542 1.5233214 -0.010380527
v 0.06924966 1.5248674 -0.012202302
v 0.06937914 1.5257134 -0.011355052
v 0.062644765 1.520756 -0.01736232
v 0.06177736 1.5235693 -0.016615419
v 0.06251035 1.5228403 -0.01599795
v 0.061945036 1.5209658 -0.018320201
v 0.06352889 1.5184492 -0.017699806
v 0.06305027 1.5180835 -0.018741447
v 0.06492603 1.5165374 -0.016919727
v 0.0647965 1.5156909 -0.01776698
v 0.06646183 1.5155312 -0.015231827
v 0.066716366 1.5144323 -0.015657539
v 0.067724474 1.5157007 -0.013088052
v 0.06829466 1.5146471 -0.012976898
v 0.068376295 1.5170008 -0.011062912
v 0.069109134 1.5162741 -0.010445123
v 0.06824175 1.5190858 -0.0096983155
v 0.06894157 1.5188762 -0.008740491
v 0.06735761 1.5213939 -0.0093608685
v 0.06783657 1.5217606 -0.008318956
v 0.06596061 1.5233052 -0.0101407
v 0.06609009 1.5241516 -0.009293538
vt 0.0325139 0.12005699
vt 0.524771 0.013171971
vt 0.0325139 0.013171971
vt 0.524771 0.12001598
vt 0.0325139 0.22694099
vt 0.524771 0.22696197
vt 0.0325139 0.333888
vt 0.524771 0.333888
vt 0.0325139 0.44083297
vt 0.524771 0.44083297
vt 0.0325139 0.54777896
vt 0.524771 0.54777896
vt 0.0325139 0.65472496
vt 0.524771 0.65472496
vt 0.0325139 0.76159
vt 0.524771 0.76163
vt 0.0325139 0.868515
vt 0.524771 0.868495
vt 0.0325139 0.9754401
vt 0.524771 0.9754208
vt 0.886468 0.502598
vt 0.560032 0.502598
vt 0.560032 0.55313504
vt 0.886468 0.55313504
vt 0.560032 0.60586596
vt 0.886468 0.60586596
vt 0.560032 0.658597
vt 0.886468 0.658597
vt 0.560032 0.711164
vt 0.886468 0.711164
vt 0.560032 0.76373
vt 0.886468 0.76373
vt 0.560032 0.81626
vt 0.886468 0.81626
vt 0.560032 0.86886203
vt 0.886468 0.86886203
vt 0.560032 0.92104447
vt 0.886468 0.92104447
vt 0.560032 0.9735933
vt 0.886468 0.9735933
vt 0.565655 0.01614201
vt 0.66157 0.066680014
vt 0.66157 0.01614201
vt 0.565655 0.066680014
vt 0.66157 0.11940998
vt 0.565655 0.11940998
vt 0.66157 0.17214102
vt 0.565655 0.17214102
vt 0.66157 0.22470802
vt 0.565655 0.22470802
vt 0.66157 0.277274
vt 0.565655 0.277274
vt 0.66157 0.329804
vt 0.565655 0.329804
vt 0.66157 0.382407
vt 0.565655 0.382407
vt 0.66157 0.43458903
vt 0.565655 0.43458903
vt 0.66157 0.48713797
vt 0.565655 0.48713797
vt 0.66157 0.066680014
vt 0.565655 0.01614201
vt 0.66157 0.01614201
vt 0.565655 0.066680014
vt 0.66157 0.11940998
vt 0.565655 0.11940998
vt 0.66157 0.17214102
vt 0.565655 0.17214102
vt 0.66157 0.22470802
vt 0.565655 0.22470802
vt 0.66157 0.277274
vt 0.565655 0.277274
vt 0.66157 0.329804
vt 0.565655 0.329804
vt 0.66157 0.382407
vt 0.565655 0.382407
vt 0.66157 0.43458903
vt 0.565655 0.43458903
vt 0.66157 0.48713797
vt 0.565655 0.48713797
vn -0.5808502 0.17346157 -0.7953139
vn -0.61577016 0.40352607 -0.6767523
vn -0.61577016 0.4035261 -0.67675227
vn -0.5808605 0.17350608 -0.7952966
vn -0.3973724 -0.3054398 -0.8653333
vn -0.3973392 -0.3055012 -0.8653268
vn -0.10746561 -0.70240444 -0.7036186
vn -0.10750009 -0.7023701 -0.7036477
vn 0.21151063 -0.91136104 -0.3531068
vn 0.21152765 -0.9113661 -0.3530834
vn 0.4736651 -0.8758808 0.09205567
vn 0.47368526 -0.8758652 0.0920997
vn 0.6087645 -0.6059396 0.5120966
vn 0.60876447 -0.6059402 0.5120958
vn 0.58089405 -0.17355128 0.7952622
vn 0.5808708 -0.17345119 0.795301
vn 0.39733 0.30552077 0.86532426
vn 0.39736807 0.30545014 0.86533153
vn 0.26133373 0.52174854 0.8120857
vn 0.26133373 0.52174854 0.8120857
vn 0.615831 -0.40338588 0.6767805
vn 0.615831 -0.40338588 0.6767805
vn 0.5808761 -0.17353615 0.7952787
vn 0.58084714 -0.17341137 0.79532707
vn 0.39731196 0.30551848 0.86533326
vn 0.39731956 0.30550453 0.86533475
vn 0.10725809 0.7027402 0.7033149
vn 0.10732819 0.70267045 0.70337397
vn -0.2113919 0.91136926 0.35315672
vn -0.21139105 0.91136897 0.35315785
vn -0.47353327 0.8760059 -0.09154226
vn -0.47353318 0.876006 -0.09154199
vn -0.60883284 0.60585934 -0.51211023
vn -0.60881776 0.60595816 -0.51201123
vn -0.5808545 0.1734412 -0.79531515
vn -0.5808623 0.17347461 -0.79530215
vn -0.39726287 -0.30555946 -0.86534137
vn -0.3972266 -0.30562666 -0.86533433
vn -0.26105955 -0.52203166 -0.811992
vn -0.26105955 -0.52203166 -0.811992
vn 0.78601176 0.37331584 -0.49276853
vn 0.78604096 0.3732614 -0.49276322
vn 0.78601176 0.37331578 -0.4927686
vn 0.78604096 0.3732614 -0.49276322
vn 0.78608996 0.37327245 -0.49267673
vn 0.7860898 0.37327236 -0.4926768
vn 0.78606987 0.37330717 -0.49268237
vn 0.7860699 0.37330726 -0.49268225
vn 0.78605473 0.37326843 -0.4927359
vn 0.7860547 0.3732684 -0.49273595
vn 0.7860182 0.37332907 -0.4927481
vn 0.7860182 0.37332913 -0.4927481
vn 0.78599393 0.37338385 -0.49274543
vn 0.785994 0.37338388 -0.49274537
vn 0.7860709 0.37335423 -0.492645
vn 0.78607094 0.37335423 -0.492645
vn 0.7861136 0.37331548 -0.4926063
vn 0.7861136 0.3733155 -0.4926063
vn 0.7861162 0.37329242 -0.49261963
vn 0.78611624 0.37329242 -0.49261963
vn -0.78618544 -0.3732857 0.49251413
vn -0.7861873 -0.3731791 0.4925921
vn -0.7861873 -0.3731791 0.49259204
vn -0.78618544 -0.3732856 0.4925143
vn -0.7861369 -0.37332305 0.49256334
vn -0.7861369 -0.37332323 0.4925631
vn -0.78608805 -0.3731418 0.4927787
vn -0.78608805 -0.37314168 0.4927787
vn -0.78610057 -0.37314677 0.49275488
vn -0.78610057 -0.37314677 0.49275488
vn -0.7860238 -0.37336594 0.4927114
vn -0.7860237 -0.37336606 0.4927114
vn -0.7859533 -0.3734097 0.49279073
vn -0.78595334 -0.37340957 0.49279076
vn -0.7860506 -0.3732622 0.49274722
vn -0.78605056 -0.37326223 0.49274722
vn -0.7860496 -0.37323743 0.49276754
vn -0.7860497 -0.37323734 0.49276745
vn -0.7859724 -0.37330195 0.49284175
vn -0.7859724 -0.37330195 0.49284175
g M_Pierce_0
f 3/3/3 2/2/2 1/1/1
f 2/2/2 4/4/4 1/1/1
f 1/1/1 4/4/4 5/5/5
f 4/4/4 6/6/6 5/5/5
f 5/5/5 6/6/6 7/7/7
f 6/6/6 8/8/8 7/7/7
f 7/7/7 8/8/8 9/9/9
f 8/8/8 10/10/10 9/9/9
f 9/9/9 10/10/10 11/11/11
f 10/10/10 12/12/12 11/11/11
f 11/11/11 12/12/12 13/13/13
f 12/12/12 14/14/14 13/13/13
f 13/13/13 14/14/14 15/15/15
f 14/14/14 16/16/16 15/15/15
f 15/15/15 16/16/16 17/17/17
f 16/16/16 18/18/18 17/17/17
f 17/17/17 18/18/18 19/19/19
f 18/18/18 20/20/20 19/19/19
f 23/23/23 22/22/22 21/21/21
f 24/24/24 23/23/23 21/21/21
f 25/25/25 23/23/23 24/24/24
f 26/26/26 25/25/25 24/24/24
f 27/27/27 25/25/25 26/26/26
f 28/28/28 27/27/27 26/26/26
f 29/29/29 27/27/27 28/28/28
f 30/30/30 29/29/29 28/28/28
f 31/31/31 29/29/29 30/30/30
f 32/32/32 31/31/31 30/30/30
f 33/33/33 31/31/31 32/32/32
f 34/34/34 33/33/33 32/32/32
f 35/35/35 33/33/33 34/34/34
f 36/36/36 35/35/35 34/34/34
f 37/37/37 35/35/35 36/36/36
f 38/38/38 37/37/37 36/36/36
f 39/39/39 37/37/37 38/38/38
f 40/40/40 39/39/39 38/38/38
f 43/43/43 42/42/42 41/41/41
f 42/42/42 44/44/44 41/41/41
f 42/42/42 45/45/45 44/44/44
f 45/45/45 46/46/46 44/44/44
f 45/45/45 47/47/47 46/46/46
f 47/47/47 48/48/48 46/46/46
f 47/47/47 49/49/49 48/48/48
f 49/49/49 50/50/50 48/48/48
f 49/49/49 51/51/51 50/50/50
f 51/51/51 52/52/52 50/50/50
f 51/51/51 53/53/53 52/52/52
f 53/53/53 54/54/54 52/52/52
f 53/53/53 55/55/55 54/54/54
f 55/55/55 56/56/56 54/54/54
f 55/55/55 57/57/57 56/56/56
f 57/57/57 58/58/58 56/56/56
f 57/57/57 59/59/59 58/58/58
f 59/59/59 60/60/60 58/58/58
f 63/63/63 62/62/62 61/61/61
f 62/62/62 64/64/64 61/61/61
f 61/61/61 64/64/64 65/65/65
f 64/64/64 66/66/66 65/65/65
f 65/65/65 66/66/66 67/67/67
f 66/66/66 68/68/68 67/67/67
f 67/67/67 68/68/68 69/69/69
f 68/68/68 70/70/70 69/69/69
f 69/69/69 70/70/70 71/71/71
f 70/70/70 72/72/72 71/71/71
f 71/71/71 72/72/72 73/73/73
f 72/72/72 74/74/74 73/73/73
f 73/73/73 74/74/74 75/75/75
f 74/74/74 76/76/76 75/75/75
f 75/75/75 76/76/76 77/77/77
f 76/76/76 78/78/78 77/77/77
f 77/77/77 78/78/78 79/79/79
f 78/78/78 80/80/80 79/79/79
