g M_PupALL_L_A_Def
v 0.01923177 0.043976594 0.08792521
v 0.019797955 0.025928345 0.08620451
v 0.015656304 0.032827146 0.086444356
v 0.022074206 0.04841217 0.088423826
v 0.023197556 0.023991698 0.08575003
v 0.027059015 0.050058287 0.088550426
v 0.027484588 0.021796264 0.08502836
v 0.032064505 0.0505661 0.088196225
v 0.032754615 0.021360015 0.08412245
v 0.03776137 0.050114743 0.08722701
v 0.037299063 0.021229248 0.08286993
v 0.042371385 0.049082335 0.085868396
v 0.04250511 0.023039093 0.081522405
v 0.045602024 0.04774109 0.084499456
v 0.04704614 0.02585022 0.080154605
v 0.048897903 0.045482025 0.082649246
v 0.05156725 0.042508088 0.08071024
v 0.050550878 0.029023131 0.07874586
v 0.05321357 0.036340483 0.07832901
vt 0.273681 0.603651
vt 0.282974 0.307409
vt 0.214993 0.420645
vt 0.320336 0.676456
vt 0.338775 0.275621
vt 0.402157 0.703476
vt 0.409142 0.239586
vt 0.484317 0.711811
vt 0.495644 0.23242402
vt 0.577825 0.70440304
vt 0.570236 0.23027802
vt 0.653493 0.687456
vt 0.655688 0.25998503
vt 0.706521 0.665442
vt 0.730224 0.306126
vt 0.760619 0.628363
vt 0.804434 0.579548
vt 0.787751 0.35820597
vt 0.831456 0.47831303
vn -0.03736572 -0.09600375 0.9946794
vn 0.03771775 -0.10381649 0.993881
vn -0.10534837 -0.09765554 0.9896288
vn 0.009925382 -0.107030034 0.9942062
vn 0.089839555 -0.116658375 0.9891004
vn 0.05838864 -0.11729419 0.99137926
vn 0.13489944 -0.12839928 0.9825049
vn 0.12608802 -0.1285058 0.9836606
vn 0.20171009 -0.13966605 0.96943617
vn 0.19856948 -0.1399877 0.970038
vn 0.2741507 -0.15122215 0.9497228
vn 0.27629519 -0.15055698 0.9492068
vn 0.320094 -0.15604149 0.93444675
vn 0.35334626 -0.15379056 0.9227648
vn 0.39236635 -0.15736009 0.9062485
vn 0.4180354 -0.15321352 0.8954172
vn 0.47314534 -0.15563011 0.867129
vn 0.4978276 -0.16164525 0.8520789
vn 0.5673045 -0.16042228 0.80773145
g M_PupALL_L_A_Def_0
f 3/3/3 2/2/2 1/1/1
f 1/1/1 2/2/2 4/4/4
f 5/5/5 4/4/4 2/2/2
f 4/4/4 5/5/5 6/6/6
f 7/7/7 6/6/6 5/5/5
f 8/8/8 6/6/6 7/7/7
f 7/7/7 9/9/9 8/8/8
f 10/10/10 8/8/8 9/9/9
f 10/10/10 9/9/9 11/11/11
f 10/10/10 11/11/11 12/12/12
f 13/13/13 12/12/12 11/11/11
f 14/14/14 12/12/12 13/13/13
f 13/13/13 15/15/15 14/14/14
f 16/16/16 14/14/14 15/15/15
f 17/17/17 16/16/16 15/15/15
f 18/18/18 17/17/17 15/15/15
f 19/19/19 17/17/17 18/18/18
