g M_PupALL_R_A_Def
v -0.051858123 0.034046326 0.07521868
v -0.049336057 0.023991546 0.074401766
v -0.052841194 0.030010527 0.07281659
v -0.049477458 0.037505187 0.07787453
v -0.046217017 0.022246093 0.07570258
v -0.046015404 0.040326994 0.080371894
v -0.04129407 0.02093338 0.077804096
v -0.04161017 0.041718293 0.082116105
v -0.036526754 0.020060118 0.079397894
v -0.036230743 0.042828977 0.083495274
v -0.031023778 0.020489806 0.080509864
v -0.031179037 0.04350647 0.08418604
v -0.026629085 0.043645628 0.08494356
v -0.026927289 0.021357268 0.081286296
v -0.02275566 0.04253906 0.08534086
v -0.022432756 0.023344422 0.08158136
v -0.018640077 0.026685027 0.08253263
v -0.019121608 0.040955048 0.085312515
vt 0.1506 0.509776
vt 0.200554 0.28922302
vt 0.131128 0.42125
vt 0.197753 0.585649
vt 0.262331 0.250938
vt 0.266324 0.647545
vt 0.359837 0.22214103
vt 0.353576 0.678064
vt 0.454261 0.202986
vt 0.460124 0.702427
vt 0.563255 0.21241099
vt 0.56018 0.717289
vt 0.650299 0.72034
vt 0.644393 0.231439
vt 0.727017 0.696068
vt 0.733413 0.275029
vt 0.808533 0.34830397
vt 0.798995 0.661322
vn -0.5997281 -0.21309629 0.771308
vn -0.5133836 -0.22341062 0.828568
vn -0.7012271 -0.23069723 0.67458093
vn -0.4683789 -0.2180977 0.8561861
vn -0.44272605 -0.22131532 0.8689149
vn -0.35454214 -0.20595543 0.9120759
vn -0.3737488 -0.2055056 0.90447736
vn -0.2545107 -0.18213825 0.9497631
vn -0.2460924 -0.18132286 0.9521347
vn -0.16287999 -0.16463566 0.97281307
vn -0.16576195 -0.16554126 0.9721724
vn -0.13563502 -0.15715359 0.97821563
vn -0.15201482 -0.15751222 0.9757465
vn -0.097404525 -0.16926391 0.9807457
vn -0.11245221 -0.17118546 0.97880036
vn -0.005327608 -0.1922933 0.981323
vn -0.07555599 -0.19290149 0.97830486
vn -0.07655684 -0.19313887 0.97818017
g M_PupALL_R_A_Def_0
f 3/3/3 2/2/2 1/1/1
f 1/1/1 2/2/2 4/4/4
f 2/2/2 5/5/5 4/4/4
f 4/4/4 5/5/5 6/6/6
f 5/5/5 7/7/7 6/6/6
f 6/6/6 7/7/7 8/8/8
f 9/9/9 8/8/8 7/7/7
f 8/8/8 9/9/9 10/10/10
f 9/9/9 11/11/11 10/10/10
f 12/12/12 10/10/10 11/11/11
f 13/13/13 12/12/12 11/11/11
f 14/14/14 13/13/13 11/11/11
f 13/13/13 14/14/14 15/15/15
f 16/16/16 15/15/15 14/14/14
f 16/16/16 17/17/17 15/15/15
f 18/18/18 15/15/15 17/17/17
