g M_PupALL_R_A_Def
v -0.05565973 0.03759155 0.07891802
v -0.051355947 0.025377044 0.0788986
v -0.056076072 0.030752562 0.07747985
v -0.051638797 0.041190796 0.081187725
v -0.045576386 0.022733307 0.08090162
v -0.047686823 0.043502197 0.08287571
v -0.04170563 0.02201416 0.08200796
v -0.042327303 0.044602506 0.084719144
v -0.03673657 0.021998137 0.08278646
v -0.03647719 0.045309447 0.085890904
v -0.031604026 0.022457276 0.08329107
v -0.030293772 0.04462982 0.086135745
v -0.025221009 0.04322464 0.08638048
v -0.027337901 0.023096314 0.08325905
v -0.021633191 0.040472258 0.08610384
v -0.024654984 0.024127807 0.08348032
v -0.020080209 0.027853088 0.08420254
v -0.018071217 0.033753358 0.08544323
vt 0.156953 0.530649
vt 0.232326 0.31673402
vt 0.149662 0.410877
vt 0.227372 0.593683
vt 0.333544 0.27043498
vt 0.296584 0.634163
vt 0.401333 0.257841
vt 0.390446 0.65343297
vt 0.488357 0.257559
vt 0.4929 0.66581297
vt 0.578244 0.26560003
vt 0.601191 0.653912
vt 0.690031 0.629303
vt 0.652957 0.276793
vt 0.752865 0.58109903
vt 0.699944 0.29485703
vt 0.780062 0.360098
vt 0.815246 0.46343
vn -0.39606616 -0.14099598 0.90733224
vn -0.38616785 -0.14049779 0.9116659
vn -0.44513485 -0.1582441 0.88137037
vn -0.3496204 -0.12842454 0.9280478
vn -0.325678 -0.126693 0.93695396
vn -0.30946195 -0.12193284 0.9430619
vn -0.21306628 -0.12161925 0.9694388
vn -0.23103528 -0.12513773 0.9648644
vn -0.123560786 -0.12678035 0.98420507
vn -0.11814852 -0.12661141 0.9848911
vn -0.048361823 -0.13672465 0.98942786
vn -0.06470295 -0.12322502 0.9902672
vn -0.062172204 -0.13215749 0.989277
vn 0.016113395 -0.15549496 0.98770523
vn -0.04313614 -0.15069579 0.9876387
vn -0.025294987 -0.1538737 0.98776674
vn -0.041274384 -0.15382338 0.98723596
vn -0.12583156 -0.16292585 0.97858137
g M_PupALL_R_A_Def_0
f 3/3/3 2/2/2 1/1/1
f 4/4/4 1/1/1 2/2/2
f 2/2/2 5/5/5 4/4/4
f 4/4/4 5/5/5 6/6/6
f 5/5/5 7/7/7 6/6/6
f 8/8/8 6/6/6 7/7/7
f 7/7/7 9/9/9 8/8/8
f 10/10/10 8/8/8 9/9/9
f 9/9/9 11/11/11 10/10/10
f 12/12/12 10/10/10 11/11/11
f 12/12/12 11/11/11 13/13/13
f 14/14/14 13/13/13 11/11/11
f 13/13/13 14/14/14 15/15/15
f 16/16/16 15/15/15 14/14/14
f 17/17/17 15/15/15 16/16/16
f 17/17/17 18/18/18 15/15/15
