g M_PupALL_R_A_Def
v -0.058596876 0.039823607 0.07841883
v -0.06054965 0.028190766 0.07476551
v -0.060881976 0.038201597 0.07608734
v -0.05771379 0.023187561 0.07642087
v -0.05449004 0.042329405 0.08207015
v -0.053110644 0.019943237 0.07844656
v -0.04857036 0.016265716 0.08010169
v -0.048554387 0.043484498 0.08457661
v -0.042967193 0.015683135 0.08201146
v -0.04245459 0.044168547 0.08650644
v -0.03561018 0.04417221 0.08772919
v -0.036181808 0.016418304 0.08322831
v -0.028833823 0.043453675 0.0882505
v -0.030102741 0.017471466 0.08406109
v -0.02390389 0.04244995 0.088182144
v -0.024812598 0.0186557 0.08436064
v -0.02065195 0.041321106 0.088071115
v -0.020316469 0.021289367 0.084900424
v -0.017990746 0.039148863 0.08765641
vt 0.181613 0.618448
vt 0.149878 0.42940098
vt 0.144478 0.592089
vt 0.195964 0.348095
vt 0.248354 0.65917003
vt 0.270771 0.29536998
vt 0.344555 0.23560703
vt 0.344815 0.67794204
vt 0.435613 0.22613901
vt 0.443943 0.689058
vt 0.555173 0.689119
vt 0.545883 0.238087
vt 0.665296 0.677441
vt 0.644675 0.25520098
vt 0.745413 0.661129
vt 0.730646 0.274446
vt 0.798261 0.642784
vt 0.803713 0.31724697
vt 0.841508 0.607483
vn -0.6237204 -0.12527528 0.77154326
vn -0.6552926 -0.12400652 0.7451269
vn -0.6663144 -0.11930829 0.73606426
vn -0.5265862 -0.15958402 0.8350089
vn -0.42535838 -0.14964592 0.8925673
vn -0.46834964 -0.1692278 0.86718553
vn -0.36244923 -0.15638964 0.9187888
vn -0.31951123 -0.14798966 0.93595487
vn -0.24096332 -0.15340804 0.95833325
vn -0.22271137 -0.14804436 0.9635779
vn -0.1330744 -0.1543595 0.97901195
vn -0.13663997 -0.15459692 0.9784832
vn -0.06539912 -0.15761921 0.98533195
vn -0.07618634 -0.15497245 0.98497677
vn -0.019475183 -0.1580757 0.9872349
vn -0.022100901 -0.1575161 0.98726904
vn -0.010679115 -0.1572591 0.98749965
vn -0.024677005 -0.1566927 0.98733914
vn 0.026656512 -0.15584585 0.98742163
g M_PupALL_R_A_Def_0
f 3/3/3 2/2/2 1/1/1
f 2/2/2 4/4/4 1/1/1
f 1/1/1 4/4/4 5/5/5
f 4/4/4 6/6/6 5/5/5
f 6/6/6 7/7/7 5/5/5
f 8/8/8 5/5/5 7/7/7
f 7/7/7 9/9/9 8/8/8
f 10/10/10 8/8/8 9/9/9
f 10/10/10 9/9/9 11/11/11
f 12/12/12 11/11/11 9/9/9
f 11/11/11 12/12/12 13/13/13
f 12/12/12 14/14/14 13/13/13
f 15/15/15 13/13/13 14/14/14
f 14/14/14 16/16/16 15/15/15
f 17/17/17 15/15/15 16/16/16
f 16/16/16 18/18/18 17/17/17
f 17/17/17 18/18/18 19/19/19
