g M_PupALL_L_A_Def
v 0.018459387 0.03769516 0.08755531
v 0.01886581 0.020619506 0.08434599
v 0.01692833 0.026517028 0.0854282
v 0.021948433 0.040637817 0.08806965
v 0.020735377 0.017592773 0.08388551
v 0.024091072 0.015979767 0.08363287
v 0.02549719 0.04275665 0.08847017
v 0.03082652 0.04469696 0.08879498
v 0.028068917 0.014889983 0.083170004
v 0.033546 0.013804931 0.08252018
v 0.035617065 0.04502121 0.08829639
v 0.039026853 0.014124603 0.08185829
v 0.041217603 0.044728696 0.087209165
v 0.045684442 0.044190064 0.08549902
v 0.044083323 0.014804382 0.08072405
v 0.05098421 0.042196043 0.082797125
v 0.049214583 0.018289795 0.07899478
v 0.05493535 0.037372284 0.07960917
v 0.05493535 0.037372284 0.07960917
v 0.052940685 0.021563414 0.07779061
v 0.056604665 0.030228728 0.07715897
vt 0.234128 0.632196
vt 0.240668 0.357454
vt 0.209494 0.452343
vt 0.290266 0.679544
vt 0.270749 0.30875403
vt 0.324741 0.28280097
vt 0.347365 0.71363604
vt 0.433113 0.744854
vt 0.388704 0.26516902
vt 0.476789 0.247612
vt 0.510192 0.750072
vt 0.564887 0.25219297
vt 0.600303 0.745365
vt 0.672174 0.73669803
vt 0.64615 0.26254302
vt 0.757446 0.704615
vt 0.72852 0.317823
vt 0.820999 0.626953
vt 0.820999 0.626953
vt 0.78859 0.37107497
vt 0.847813 0.511801
vn 0.009840197 -0.18447816 0.9827874
vn -0.0370048 -0.17752595 0.98342013
vn -0.014328327 -0.18502384 0.98262966
vn -0.003298495 -0.17874567 0.9838898
vn -0.016325165 -0.17778678 0.9839336
vn 0.03585441 -0.18598294 0.9818986
vn 0.0024133974 -0.17789693 0.98404616
vn 0.07308646 -0.1853251 0.9799556
vn 0.071996 -0.19138657 0.97887063
vn 0.105977565 -0.19008678 0.9760307
vn 0.14665775 -0.18514253 0.97170657
vn 0.18246229 -0.18075831 0.9664543
vn 0.24600881 -0.18399726 0.95164305
vn 0.3568868 -0.17677553 0.91726893
vn 0.2993861 -0.17018043 0.9388326
vn 0.41756415 -0.1695629 0.8926862
vn 0.4243943 -0.17106315 0.889172
vn 0.48358738 -0.17104037 0.858422
vn 0.48358738 -0.17104037 0.858422
vn 0.43632376 -0.15697193 0.88599175
vn 0.5280253 -0.16250785 0.83353496
g M_PupALL_L_A_Def_0
f 3/3/3 2/2/2 1/1/1
f 1/1/1 2/2/2 4/4/4
f 5/5/5 4/4/4 2/2/2
f 6/6/6 4/4/4 5/5/5
f 4/4/4 6/6/6 7/7/7
f 7/7/7 6/6/6 8/8/8
f 9/9/9 8/8/8 6/6/6
f 10/10/10 8/8/8 9/9/9
f 11/11/11 8/8/8 10/10/10
f 10/10/10 12/12/12 11/11/11
f 13/13/13 11/11/11 12/12/12
f 13/13/13 12/12/12 14/14/14
f 15/15/15 14/14/14 12/12/12
f 16/16/16 14/14/14 15/15/15
f 15/15/15 17/17/17 16/16/16
f 18/18/18 16/16/16 17/17/17
f 20/20/20 19/19/19 17/17/17
f 21/21/21 19/19/19 20/20/20
