g M_PupALL_R_A_Def
v -0.019508114 0.024811858 0.082251474
v -0.01867113 0.03363922 0.083730295
v -0.016759949 0.029236296 0.08324316
v -0.022905964 0.02258667 0.08217771
v -0.02086916 0.036258087 0.08435032
v -0.02363555 0.037673492 0.08472548
v -0.026166039 0.021610107 0.08177526
v -0.02733424 0.038805693 0.08477202
v -0.030649386 0.021206664 0.08154969
v -0.031711884 0.039882507 0.08460493
v -0.037117895 0.041621093 0.08433959
v -0.036321066 0.021732787 0.080676384
v -0.04175386 0.02237442 0.079458214
v -0.042437147 0.0418898 0.08235178
v -0.04696927 0.039803468 0.07991391
v -0.04666271 0.024200745 0.077020876
v -0.0510429 0.037120055 0.07693398
v -0.04937795 0.026050873 0.075539336
v -0.052313574 0.03012924 0.07395689
v -0.053608626 0.03275757 0.07361924
vt 0.778982 0.303191
vt 0.795173 0.46582
vt 0.832144 0.38470298
vt 0.713252 0.26219398
vt 0.752654 0.514068
vt 0.699138 0.54014397
vt 0.650187 0.24420202
vt 0.627589 0.56100297
vt 0.563459 0.23677099
vt 0.542905 0.580843
vt 0.438328 0.61287296
vt 0.453742 0.24646401
vt 0.348648 0.25828397
vt 0.33543 0.61782503
vt 0.248441 0.580077
vt 0.254371 0.29262203
vt 0.169638 0.53064
vt 0.201162 0.326016
vt 0.14099 0.40142602
vt 0.116677 0.449737
vn 0.06665235 -0.17100145 0.98301363
vn 0.05810097 -0.1669565 0.9842509
vn -0.1056587 -0.15454707 0.9823194
vn -0.030648526 -0.16986153 0.98499125
vn 0.05734816 -0.16501634 0.9846222
vn -0.018764991 -0.17135923 0.9850299
vn -0.044923287 -0.17261171 0.9839649
vn -0.061930735 -0.16904683 0.98366034
vn -0.107633255 -0.17837991 0.9780571
vn -0.09339067 -0.16591378 0.98170805
vn -0.24392577 -0.1630537 0.9559884
vn -0.1983057 -0.18522327 0.96247965
vn -0.3399032 -0.17442647 0.92414355
vn -0.37781227 -0.14872701 0.9138589
vn -0.44870424 -0.15519117 0.8801024
vn -0.49986264 -0.17035593 0.84918565
vn -0.52931637 -0.17153127 0.8309038
vn -0.5878636 -0.18756723 0.78691477
vn -0.65226734 -0.19353679 0.7328648
vn -0.6209191 -0.20888773 0.7555299
g M_PupALL_R_A_Def_0
f 3/3/3 2/2/2 1/1/1
f 1/1/1 2/2/2 4/4/4
f 5/5/5 4/4/4 2/2/2
f 5/5/5 6/6/6 4/4/4
f 7/7/7 4/4/4 6/6/6
f 8/8/8 7/7/7 6/6/6
f 7/7/7 8/8/8 9/9/9
f 10/10/10 9/9/9 8/8/8
f 10/10/10 11/11/11 9/9/9
f 12/12/12 9/9/9 11/11/11
f 12/12/12 11/11/11 13/13/13
f 14/14/14 13/13/13 11/11/11
f 14/14/14 15/15/15 13/13/13
f 16/16/16 13/13/13 15/15/15
f 15/15/15 17/17/17 16/16/16
f 18/18/18 16/16/16 17/17/17
f 18/18/18 17/17/17 19/19/19
f 20/20/20 19/19/19 17/17/17
