g M_PupALL_R_A_Def
v -0.053107586 0.038174134 0.08278509
v -0.053765982 0.028746184 0.08021004
v -0.056266088 0.034239043 0.08000043
v -0.051565282 0.02556244 0.08047948
v -0.049472332 0.0237088 0.0810369
v -0.050259158 0.04059662 0.0846068
v -0.045303963 0.020578614 0.08193075
v -0.04620266 0.042073514 0.08630667
v -0.042121895 0.019289399 0.08229414
v -0.041624106 0.042716216 0.08731893
v -0.037429042 0.018641815 0.08350128
v -0.036014117 0.042463835 0.087982394
v -0.031731 0.018896485 0.0847633
v -0.031759534 0.04147232 0.0882327
v -0.026910102 0.03972473 0.08842009
v -0.027212951 0.019796904 0.08548311
v -0.023107624 0.03743118 0.08837942
v -0.022462226 0.021340178 0.08605951
v -0.019645238 0.033645935 0.08781835
v -0.019496974 0.023267517 0.08633719
v -0.017618984 0.029197996 0.087257676
v -0.0162352 0.026035156 0.08691214
vt 0.193465 0.620995
vt 0.181876 0.455051
vt 0.137871 0.551731
vt 0.220611 0.399014
vt 0.257449 0.36638802
vt 0.2436 0.663633
vt 0.330818 0.311293
vt 0.314999 0.68962896
vt 0.386826 0.28860098
vt 0.395587 0.70094097
vt 0.469425 0.27720302
vt 0.49433 0.696499
vt 0.569718 0.281685
vt 0.569215 0.679047
vt 0.654571 0.648287
vt 0.649241 0.29753298
vt 0.721499 0.607918
vt 0.732859 0.32469702
vt 0.782441 0.541292
vt 0.785051 0.35862
vt 0.818106 0.46300298
vt 0.842462 0.40733302
vn -0.41183403 -0.20637529 0.88758206
vn -0.43556806 -0.20874006 0.87561864
vn -0.50018615 -0.19547269 0.84356636
vn -0.42166504 -0.21270932 0.88144964
vn -0.3620583 -0.20951383 0.90830487
vn -0.33534774 -0.20379916 0.91978675
vn -0.24617942 -0.20542209 0.94720507
vn -0.23552714 -0.20269246 0.95049596
vn -0.24336049 -0.19886813 0.94932985
vn -0.15834159 -0.18871808 0.96918184
vn -0.22474664 -0.18076827 0.9575029
vn -0.121633634 -0.16778567 0.9782909
vn -0.16957171 -0.15937743 0.9725453
vn -0.09290531 -0.15135223 0.9841043
vn -0.09039571 -0.14877836 0.9847303
vn -0.10778029 -0.14360783 0.983748
vn -0.06122187 -0.1440912 0.9876688
vn -0.05728341 -0.14452711 0.9878413
vn 0.001620858 -0.14240511 0.98980707
vn -0.009575801 -0.14068763 0.99000776
vn -0.041263364 -0.14047222 0.9892244
vn -0.060291555 -0.13443099 0.9890871
g M_PupALL_R_A_Def_0
f 3/3/3 2/2/2 1/1/1
f 2/2/2 4/4/4 1/1/1
f 4/4/4 5/5/5 1/1/1
f 6/6/6 1/1/1 5/5/5
f 5/5/5 7/7/7 6/6/6
f 8/8/8 6/6/6 7/7/7
f 7/7/7 9/9/9 8/8/8
f 10/10/10 8/8/8 9/9/9
f 9/9/9 11/11/11 10/10/10
f 12/12/12 10/10/10 11/11/11
f 11/11/11 13/13/13 12/12/12
f 14/14/14 12/12/12 13/13/13
f 14/14/14 13/13/13 15/15/15
f 13/13/13 16/16/16 15/15/15
f 17/17/17 15/15/15 16/16/16
f 18/18/18 17/17/17 16/16/16
f 17/17/17 18/18/18 19/19/19
f 20/20/20 19/19/19 18/18/18
f 19/19/19 20/20/20 21/21/21
f 22/22/22 21/21/21 20/20/20
