g M_PupALL_R_A_Def
v -0.018331356 0.024541778 0.083516054
v -0.017236665 0.03718048 0.08702078
v -0.014649214 0.030861204 0.08584314
v -0.020520737 0.041260682 0.08709922
v -0.023221206 0.022117615 0.08308118
v -0.02363922 0.04303848 0.0869783
v -0.029434547 0.04429291 0.08689428
v -0.027853241 0.021132201 0.08294134
v -0.034352835 0.04426132 0.086289614
v -0.033401165 0.021007996 0.08190024
v -0.03995478 0.043409575 0.084912926
v -0.038551558 0.02135849 0.08047083
v -0.043431897 0.04207489 0.08367177
v -0.04331623 0.021984406 0.078744106
v -0.046639252 0.040049437 0.081696525
v -0.04638172 0.023852691 0.07771586
v -0.049454212 0.037691496 0.07966702
v -0.04957155 0.026777647 0.07631811
v -0.051959503 0.032582853 0.076114975
vt 0.773196 0.301821
vt 0.792273 0.522068
vt 0.837363 0.411945
vt 0.735043 0.593172
vt 0.687984 0.259575
vt 0.680699 0.624153
vt 0.579707 0.646013
vt 0.607263 0.24240297
vt 0.493998 0.64546204
vt 0.510583 0.24023801
vt 0.396376 0.630619
vt 0.420829 0.24634701
vt 0.335782 0.60736096
vt 0.337798 0.257254
vt 0.27989 0.57206297
vt 0.284377 0.28981203
vt 0.230835 0.53097296
vt 0.22879 0.340784
vt 0.187176 0.441948
vn -0.016642615 -0.21348998 0.97680354
vn -0.25648275 -0.23758648 0.9368935
vn -0.17464113 -0.24903505 0.9526185
vn -0.14247607 -0.19583102 0.9702324
vn -0.0027153203 -0.18183927 0.9833245
vn -0.07531169 -0.18406306 0.980025
vn -0.085629545 -0.17811893 0.9802761
vn -0.09400267 -0.17986903 0.97918874
vn -0.16893123 -0.18382959 0.9683331
vn -0.21769635 -0.19641975 0.9560479
vn -0.22837248 -0.19635461 0.95356745
vn -0.3068129 -0.2137854 0.927449
vn -0.31283206 -0.2128654 0.9256481
vn -0.3768792 -0.22369951 0.898844
vn -0.41628602 -0.22013892 0.8821818
vn -0.45930687 -0.22548707 0.8591814
vn -0.47502217 -0.22336425 0.8511536
vn -0.5719438 -0.2350061 0.78590864
vn -0.61311674 -0.22571121 0.7570616
g M_PupALL_R_A_Def_0
f 3/3/3 2/2/2 1/1/1
f 2/2/2 4/4/4 1/1/1
f 5/5/5 1/1/1 4/4/4
f 4/4/4 6/6/6 5/5/5
f 6/6/6 7/7/7 5/5/5
f 8/8/8 5/5/5 7/7/7
f 7/7/7 9/9/9 8/8/8
f 10/10/10 8/8/8 9/9/9
f 11/11/11 10/10/10 9/9/9
f 10/10/10 11/11/11 12/12/12
f 11/11/11 13/13/13 12/12/12
f 14/14/14 12/12/12 13/13/13
f 14/14/14 13/13/13 15/15/15
f 14/14/14 15/15/15 16/16/16
f 17/17/17 16/16/16 15/15/15
f 16/16/16 17/17/17 18/18/18
f 19/19/19 18/18/18 17/17/17
