g M_PupALL_L_A_Def
v 0.06587478 0.022266082 0.06697118
v 0.06671048 0.040667266 0.0706251
v 0.07007966 0.030140076 0.06566601
v 0.06319458 0.018526 0.067677245
v 0.057231743 0.012376403 0.07000851
v 0.06280753 0.04716568 0.073739
v 0.056953568 0.051499173 0.07730416
v 0.05168437 0.008932953 0.072259374
v 0.05045576 0.05507843 0.08069477
v 0.044332325 0.008001708 0.07501932
v 0.044174198 0.057306975 0.08273915
v 0.03820811 0.008578186 0.076843
v 0.037248924 0.056638334 0.08364286
v 0.03165338 0.010430908 0.07838123
v 0.03235269 0.054360807 0.08399224
v 0.026199589 0.051257323 0.083833255
v 0.025593156 0.014285126 0.079186045
v 0.02252723 0.047935944 0.083464384
v 0.017607367 0.028468322 0.080650665
vt 0.804543 0.371149
vt 0.824602 0.636487
vt 0.864456 0.482821
vt 0.766972 0.31843698
vt 0.68444 0.23251802
vt 0.775674 0.732231
vt 0.699669 0.797652
vt 0.60876 0.18548203
vt 0.614709 0.852497
vt 0.510218 0.17560202
vt 0.53198 0.887729
vt 0.428789 0.186899
vt 0.439259 0.881435
vt 0.342232 0.21683699
vt 0.372831 0.85092
vt 0.289234 0.80908597
vt 0.263243 0.27543902
vt 0.23863 0.762901
vt 0.163564 0.48414302
vn 0.5177174 -0.18919306 0.8343708
vn 0.45062792 -0.16795632 0.87676966
vn 0.5876481 -0.18318208 0.7881078
vn 0.52120906 -0.19343215 0.8312191
vn 0.4589782 -0.16426995 0.8731291
vn 0.42454275 -0.16353364 0.8905168
vn 0.39966983 -0.15786225 0.90296376
vn 0.39117706 -0.15863742 0.9065399
vn 0.30936763 -0.1519562 0.93872297
vn 0.3174085 -0.15336561 0.93580496
vn 0.19798048 -0.14226075 0.9698276
vn 0.22965848 -0.14158137 0.9629183
vn 0.14071351 -0.13357767 0.98099774
vn 0.14837398 -0.1315607 0.9801413
vn 0.09295283 -0.1276044 0.9874598
vn 0.035026833 -0.12673752 0.99131763
vn 0.03456627 -0.12627482 0.99139297
vn 0.0004357527 -0.12608485 0.99201936
vn -0.050092723 -0.13045564 0.9901878
g M_PupALL_L_A_Def_0
f 3/3/3 2/2/2 1/1/1
f 1/1/1 2/2/2 4/4/4
f 4/4/4 2/2/2 5/5/5
f 6/6/6 5/5/5 2/2/2
f 6/6/6 7/7/7 5/5/5
f 5/5/5 7/7/7 8/8/8
f 9/9/9 8/8/8 7/7/7
f 8/8/8 9/9/9 10/10/10
f 11/11/11 10/10/10 9/9/9
f 10/10/10 11/11/11 12/12/12
f 13/13/13 12/12/12 11/11/11
f 12/12/12 13/13/13 14/14/14
f 15/15/15 14/14/14 13/13/13
f 15/15/15 16/16/16 14/14/14
f 14/14/14 16/16/16 17/17/17
f 18/18/18 17/17/17 16/16/16
f 17/17/17 18/18/18 19/19/19
