g M_PupALL_L_A_Def
v 0.020541457 0.034495696 0.08883923
v 0.01969674 0.015402527 0.08515651
v 0.017155403 0.027162628 0.08713314
v 0.024321126 0.014131774 0.0842494
v 0.024982147 0.038593598 0.08959687
v 0.029726272 0.041708067 0.08992704
v 0.031412724 0.0128781125 0.08359537
v 0.036468018 0.043680724 0.08971737
v 0.03724373 0.01223236 0.082870826
v 0.04250469 0.04492767 0.088927165
v 0.045080185 0.011480712 0.08043999
v 0.049726304 0.04441696 0.085818306
v 0.051624563 0.013645477 0.07782617
v 0.055059593 0.04265747 0.082375035
v 0.057955865 0.01860504 0.07491041
v 0.059514597 0.04024414 0.078748025
v 0.061980188 0.026888274 0.072743274
v 0.06356742 0.03274368 0.07188517
vt 0.182891 0.586895
vt 0.168533 0.26236302
vt 0.125337 0.462254
vt 0.247135 0.24076498
vt 0.25837 0.656548
vt 0.339007 0.709486
vt 0.367672 0.21945602
vt 0.453598 0.743015
vt 0.466783 0.20848101
vt 0.556205 0.76421
vt 0.599981 0.19570398
vt 0.678952 0.755529
vt 0.711217 0.23250002
vt 0.769603 0.725622
vt 0.818832 0.31679702
vt 0.845326 0.684603
vt 0.887234 0.45758998
vt 0.914213 0.55711603
vn 0.028887708 -0.21048957 0.9771692
vn 0.118460365 -0.19310816 0.9740002
vn -0.09321013 -0.1845893 0.97838575
vn 0.07076237 -0.20786446 0.9755947
vn 0.06267966 -0.21475783 0.97465396
vn 0.08407284 -0.20998685 0.97408277
vn 0.07695209 -0.21023358 0.97461796
vn 0.13517219 -0.20714083 0.96892786
vn 0.2035695 -0.2145817 0.9552561
vn 0.2903644 -0.20523444 0.9346482
vn 0.33943444 -0.21109617 0.9166366
vn 0.4141062 -0.19831908 0.88836116
vn 0.45835137 -0.19983687 0.86601347
vn 0.5078035 -0.18984216 0.84029496
vn 0.5576713 -0.18973792 0.8080855
vn 0.59736365 -0.17893277 0.78175426
vn 0.72780764 -0.16491833 0.66565615
vn 0.7882158 -0.12536967 0.6024934
g M_PupALL_L_A_Def_0
f 3/3/3 2/2/2 1/1/1
f 2/2/2 4/4/4 1/1/1
f 1/1/1 4/4/4 5/5/5
f 6/6/6 5/5/5 4/4/4
f 7/7/7 6/6/6 4/4/4
f 6/6/6 7/7/7 8/8/8
f 9/9/9 8/8/8 7/7/7
f 8/8/8 9/9/9 10/10/10
f 11/11/11 10/10/10 9/9/9
f 12/12/12 10/10/10 11/11/11
f 13/13/13 12/12/12 11/11/11
f 14/14/14 12/12/12 13/13/13
f 15/15/15 14/14/14 13/13/13
f 16/16/16 14/14/14 15/15/15
f 17/17/17 16/16/16 15/15/15
f 18/18/18 16/16/16 17/17/17
