g M_PupALL_L_A_Def
v 0.021339275 0.03031967 0.08680337
v 0.017384775 0.035834655 0.08766652
v 0.021556744 0.04140564 0.08862805
v 0.025221268 0.04527664 0.08914891
v 0.025311878 0.028198548 0.08617364
v 0.029240621 0.047580414 0.089255914
v 0.029824566 0.027053375 0.08542655
v 0.03374733 0.049315337 0.08882252
v 0.033454955 0.026436767 0.08480829
v 0.03780782 0.026311187 0.084069826
v 0.03926935 0.04964584 0.08765661
v 0.04310877 0.026655883 0.082787186
v 0.043943048 0.049406126 0.08638961
v 0.04754726 0.027905272 0.08158613
v 0.04852744 0.048624266 0.08469759
v 0.052181125 0.031477813 0.08047042
v 0.052464418 0.04706131 0.08297707
v 0.05523181 0.034635313 0.07967644
v 0.055655565 0.04393219 0.08094018
v 0.05741864 0.037684478 0.07928087
vt 0.259771 0.31511098
vt 0.194538 0.40608603
vt 0.263359 0.49798602
vt 0.323809 0.56184196
vt 0.325304 0.28012103
vt 0.390113 0.599846
vt 0.399746 0.26123
vt 0.464456 0.628466
vt 0.459633 0.251059
vt 0.531438 0.24898702
vt 0.555548 0.633917
vt 0.618883 0.254673
vt 0.632645 0.62996304
vt 0.692101 0.275284
vt 0.70827 0.617065
vt 0.768542 0.334215
vt 0.773215 0.591282
vt 0.818866 0.386303
vt 0.825856 0.539665
vt 0.85494 0.436602
vn 0.049383726 -0.16900599 0.984377
vn -0.010826685 -0.16219258 0.9866997
vn 0.022343462 -0.16279487 0.98640686
vn 0.06667233 -0.16997412 0.98319054
vn 0.09811256 -0.17610371 0.97947
vn 0.13733867 -0.17556293 0.9748414
vn 0.12961692 -0.17580321 0.9758548
vn 0.1905568 -0.16740619 0.96729696
vn 0.15025026 -0.17271881 0.9734439
vn 0.20832488 -0.16622293 0.96383125
vn 0.23012608 -0.16111985 0.9597304
vn 0.26589835 -0.16122828 0.95042276
vn 0.27950072 -0.15860587 0.94695485
vn 0.31505665 -0.15813579 0.9358057
vn 0.3268249 -0.15543173 0.93221587
vn 0.3515074 -0.15497221 0.92326933
vn 0.358001 -0.15340102 0.92103386
vn 0.39402327 -0.15090774 0.906627
vn 0.42561895 -0.1409038 0.8938649
vn 0.36411875 -0.14172265 0.9205065
g M_PupALL_L_A_Def_0
f 3/3/3 2/2/2 1/1/1
f 3/3/3 1/1/1 4/4/4
f 1/1/1 5/5/5 4/4/4
f 4/4/4 5/5/5 6/6/6
f 7/7/7 6/6/6 5/5/5
f 8/8/8 6/6/6 7/7/7
f 7/7/7 9/9/9 8/8/8
f 9/9/9 10/10/10 8/8/8
f 11/11/11 8/8/8 10/10/10
f 10/10/10 12/12/12 11/11/11
f 13/13/13 11/11/11 12/12/12
f 12/12/12 14/14/14 13/13/13
f 15/15/15 13/13/13 14/14/14
f 16/16/16 15/15/15 14/14/14
f 17/17/17 15/15/15 16/16/16
f 18/18/18 17/17/17 16/16/16
f 17/17/17 18/18/18 19/19/19
f 20/20/20 19/19/19 18/18/18
