g M_PupALL_L_A_Def
v 0.018648261 0.036085814 0.085202195
v 0.020574216 0.026447905 0.08388589
v 0.017039908 0.030035552 0.08412699
v 0.020977326 0.039528504 0.08545443
v 0.023098852 0.024642333 0.08351095
v 0.02358071 0.041621245 0.0857354
v 0.027928293 0.043142088 0.08581017
v 0.02689434 0.023749694 0.08298135
v 0.032372065 0.043885496 0.08564211
v 0.032210376 0.023451842 0.082209565
v 0.03588132 0.023518981 0.08160913
v 0.03685253 0.043496244 0.0845207
v 0.03891739 0.023740234 0.08106039
v 0.041570887 0.042682342 0.08296655
v 0.04269169 0.025091704 0.08006002
v 0.04548618 0.04131195 0.08122663
v 0.045730036 0.026570128 0.078464605
v 0.049125418 0.03985565 0.07909293
v 0.04818736 0.028250884 0.07723713
v 0.051275022 0.03428253 0.07627775
vt 0.189659 0.519561
vt 0.226813 0.333636
vt 0.158633 0.402844
vt 0.23459 0.585974
vt 0.275516 0.298805
vt 0.284811 0.62634504
vt 0.368681 0.65568304
vt 0.348735 0.281586
vt 0.454406 0.670025
vt 0.451287 0.27583897
vt 0.522103 0.277135
vt 0.540838 0.662516
vt 0.580672 0.281403
vt 0.63186 0.646816
vt 0.653482 0.307473
vt 0.70739 0.620378
vt 0.712095 0.335994
vt 0.777596 0.592286
vt 0.7595 0.36841798
vt 0.819064 0.484774
vn 0.047307972 -0.12588157 0.99091667
vn 0.036983162 -0.12610327 0.9913276
vn -0.086981036 -0.15184887 0.9845691
vn 0.011337008 -0.12812467 0.9916932
vn 0.08385969 -0.14183924 0.9863312
vn 0.022140626 -0.13048866 0.9912026
vn 0.054560687 -0.14245236 0.9882968
vn 0.11651158 -0.15792559 0.9805532
vn 0.1511718 -0.15244524 0.97668195
vn 0.1450655 -0.16502744 0.97556233
vn 0.17850947 -0.15756653 0.97124004
vn 0.25248796 -0.14472547 0.9567154
vn 0.24532326 -0.14345208 0.9587691
vn 0.31425333 -0.13380675 0.939862
vn 0.36692733 -0.14049807 0.91957843
vn 0.40259022 -0.1397283 0.9046531
vn 0.5112468 -0.15533748 0.8452793
vn 0.47706804 -0.1608002 0.8640309
vn 0.54476905 -0.17518127 0.8200842
vn 0.5857481 -0.17394063 0.79160845
g M_PupALL_L_A_Def_0
f 3/3/3 2/2/2 1/1/1
f 1/1/1 2/2/2 4/4/4
f 2/2/2 5/5/5 4/4/4
f 6/6/6 4/4/4 5/5/5
f 6/6/6 5/5/5 7/7/7
f 8/8/8 7/7/7 5/5/5
f 7/7/7 8/8/8 9/9/9
f 10/10/10 9/9/9 8/8/8
f 10/10/10 11/11/11 9/9/9
f 12/12/12 9/9/9 11/11/11
f 11/11/11 13/13/13 12/12/12
f 14/14/14 12/12/12 13/13/13
f 15/15/15 14/14/14 13/13/13
f 16/16/16 14/14/14 15/15/15
f 17/17/17 16/16/16 15/15/15
f 18/18/18 16/16/16 17/17/17
f 19/19/19 18/18/18 17/17/17
f 20/20/20 18/18/18 19/19/19
