g M_PupALL_R_A_Def
v -0.017485421 0.037405852 0.08439399
v -0.013557653 0.029133147 0.08327516
v -0.019429913 0.024027709 0.08226302
v -0.020371875 0.040379334 0.08449765
v -0.024370551 0.022197876 0.08186054
v -0.02362291 0.042525634 0.08429468
v -0.027897434 0.021718139 0.08170848
v -0.027663035 0.044293214 0.0840779
v -0.033065367 0.021691283 0.08118211
v -0.03199437 0.04483322 0.083510265
v -0.03683611 0.044698484 0.08269909
v -0.03827691 0.021986084 0.079865165
v -0.040760353 0.044176787 0.08179426
v -0.04475093 0.04310089 0.08043718
v -0.04338684 0.022912292 0.07824433
v -0.046805646 0.0254158 0.07730757
v -0.04766338 0.04191986 0.079301886
v -0.049765244 0.0287706 0.07645464
v -0.050600655 0.039522246 0.07739145
v -0.052489564 0.03378082 0.07556951
vt 0.789709 0.547279
vt 0.860634 0.39789402
vt 0.754595 0.30570102
vt 0.737586 0.600973
vt 0.665379 0.272659
vt 0.67888 0.63973
vt 0.601692 0.263995
vt 0.605925 0.671649
vt 0.508371 0.26351
vt 0.527711 0.6814
vt 0.44028 0.678967
vt 0.414264 0.268834
vt 0.369418 0.669546
vt 0.297358 0.65011704
vt 0.32199 0.285559
vt 0.260255 0.33076602
vt 0.244765 0.628791
vt 0.206811 0.39134598
vt 0.191726 0.585495
vt 0.157616 0.48182
vn -0.089201525 -0.14402018 0.98554623
vn -0.0382917 -0.1517587 0.98767555
vn -0.035201363 -0.14057414 0.9894441
vn -0.11869745 -0.120687254 0.9855686
vn -0.03405993 -0.124839164 0.9915923
vn -0.1056442 -0.106504366 0.988684
vn -0.07810785 -0.10741539 0.9911413
vn -0.120597124 -0.09755444 0.98789656
vn -0.17539607 -0.102500804 0.9791475
vn -0.15189394 -0.09197507 0.9841082
vn -0.18856317 -0.09902098 0.9770562
vn -0.27496052 -0.11198824 0.9549112
vn -0.24925964 -0.111524194 0.9619938
vn -0.30295467 -0.11996157 0.9454246
vn -0.32682902 -0.12385098 0.93693316
vn -0.35683385 -0.12589441 0.9256458
vn -0.35491732 -0.12692079 0.9262423
vn -0.42191428 -0.1273825 0.8976425
vn -0.47719416 -0.11301472 0.8715007
vn -0.48941332 -0.113366805 0.86465174
g M_PupALL_R_A_Def_0
f 3/3/3 2/2/2 1/1/1
f 1/1/1 4/4/4 3/3/3
f 3/3/3 4/4/4 5/5/5
f 5/5/5 4/4/4 6/6/6
f 5/5/5 6/6/6 7/7/7
f 8/8/8 7/7/7 6/6/6
f 8/8/8 9/9/9 7/7/7
f 10/10/10 9/9/9 8/8/8
f 10/10/10 11/11/11 9/9/9
f 12/12/12 9/9/9 11/11/11
f 13/13/13 12/12/12 11/11/11
f 13/13/13 14/14/14 12/12/12
f 15/15/15 12/12/12 14/14/14
f 15/15/15 14/14/14 16/16/16
f 17/17/17 16/16/16 14/14/14
f 16/16/16 17/17/17 18/18/18
f 19/19/19 18/18/18 17/17/17
f 18/18/18 19/19/19 20/20/20
