g M_PupALL_L_A_Def
v 0.05737388 0.026844786 0.07855998
v 0.055241026 0.036584016 0.082762405
v 0.057709254 0.035462797 0.080681436
v 0.055696264 0.023882903 0.07877569
v 0.052261014 0.019617613 0.07962165
v 0.051988643 0.037727203 0.0847758
v 0.04816101 0.016404876 0.08070836
v 0.047474183 0.03916809 0.08660664
v 0.043079413 0.015764618 0.08244368
v 0.042433027 0.03980499 0.087971546
v 0.036898036 0.015870208 0.08324266
v 0.036358595 0.039758604 0.088641346
v 0.031150984 0.016673584 0.083484955
v 0.030033661 0.039448395 0.08850746
v 0.026344594 0.017367247 0.08342906
v 0.026354562 0.038650665 0.08800988
v 0.023348665 0.0374736 0.08729593
v 0.02242601 0.020830536 0.0837847
v 0.020526733 0.035042115 0.08643103
v 0.019800197 0.028213043 0.08483362
vt 0.799144 0.44038397
vt 0.763784 0.601847
vt 0.804704 0.58325803
vt 0.771331 0.39127898
vt 0.71438 0.32056803
vt 0.709864 0.61892104
vt 0.646408 0.26730502
vt 0.635021 0.644686
vt 0.562162 0.256689
vt 0.551446 0.655245
vt 0.459683 0.25844002
vt 0.45074 0.654476
vt 0.364405 0.27175897
vt 0.345882 0.649334
vt 0.284722 0.28325802
vt 0.284888 0.63610804
vt 0.235054 0.61659396
vt 0.219758 0.340675
vt 0.18827 0.576284
vt 0.176225 0.463068
vn 0.5298422 -0.23552138 0.8147373
vn 0.4734396 -0.23597191 0.84862953
vn 0.5695993 -0.21729791 0.79267806
vn 0.50716186 -0.24150723 0.82732165
vn 0.43551725 -0.2421976 0.86698616
vn 0.3494133 -0.23402843 0.9072712
vn 0.35694113 -0.23065974 0.9052011
vn 0.26522535 -0.22019234 0.93870705
vn 0.21673249 -0.22293322 0.9504356
vn 0.16095258 -0.2154922 0.96314967
vn 0.07153026 -0.21983385 0.97291136
vn 0.05127956 -0.2170004 0.9748238
vn -0.011916567 -0.2186802 0.9757238
vn -0.03277609 -0.21435004 0.97620684
vn -0.058572415 -0.21318832 0.97525376
vn -0.10780519 -0.2091368 0.9719259
vn -0.13893816 -0.20535213 0.96877587
vn -0.094010234 -0.20087738 0.97509503
vn -0.13077977 -0.19835463 0.9713661
vn -0.19081146 -0.20428683 0.9601343
g M_PupALL_L_A_Def_0
f 3/3/3 2/2/2 1/1/1
f 1/1/1 2/2/2 4/4/4
f 4/4/4 2/2/2 5/5/5
f 2/2/2 6/6/6 5/5/5
f 5/5/5 6/6/6 7/7/7
f 6/6/6 8/8/8 7/7/7
f 9/9/9 7/7/7 8/8/8
f 8/8/8 10/10/10 9/9/9
f 11/11/11 9/9/9 10/10/10
f 10/10/10 12/12/12 11/11/11
f 11/11/11 12/12/12 13/13/13
f 14/14/14 13/13/13 12/12/12
f 13/13/13 14/14/14 15/15/15
f 16/16/16 15/15/15 14/14/14
f 17/17/17 15/15/15 16/16/16
f 18/18/18 15/15/15 17/17/17
f 19/19/19 18/18/18 17/17/17
f 18/18/18 19/19/19 20/20/20
