g M_PupALL_L_A_Def
v 0.05627815 0.026327513 0.076166674
v 0.0535137 0.04009033 0.0807013
v 0.058915667 0.035451658 0.07578606
v 0.05370823 0.022707367 0.07710148
v 0.050718155 0.018993072 0.07819484
v 0.04921445 0.042114563 0.08313179
v 0.04467 0.042072907 0.08520703
v 0.046103552 0.015264739 0.079386584
v 0.040394705 0.013649597 0.080864176
v 0.03979855 0.041827697 0.086489044
v 0.034617703 0.013648834 0.08157432
v 0.034330897 0.04131302 0.086780034
v 0.029335402 0.015042267 0.08205865
v 0.029332362 0.039084014 0.08635364
v 0.024683455 0.016947784 0.08249707
v 0.024879169 0.036529846 0.08574932
v 0.022076728 0.018845519 0.08264182
v 0.021511354 0.031986695 0.08479821
v 0.019844072 0.021388702 0.082993254
v 0.017525336 0.026686858 0.08361368
vt 0.798397 0.38031203
vt 0.752107 0.62899804
vt 0.842562 0.533094
vt 0.755365 0.31969
vt 0.708216 0.25695598
vt 0.680117 0.670996
vt 0.604021 0.6703
vt 0.628157 0.195009
vt 0.532968 0.16777402
vt 0.52245 0.666197
vt 0.436482 0.16764599
vt 0.430896 0.657574
vt 0.347974 0.19100702
vt 0.346178 0.62044
vt 0.268733 0.22412503
vt 0.270499 0.56995
vt 0.225967 0.254902
vt 0.21527 0.480273
vt 0.188395 0.29757297
vt 0.14949 0.38632798
vn 0.5526175 -0.15858509 0.81820816
vn 0.46738636 -0.15900065 0.8696372
vn 0.5979548 -0.1399292 0.7892211
vn 0.5201211 -0.16761342 0.8374841
vn 0.39917895 -0.17453626 0.9001073
vn 0.41657558 -0.16384225 0.89421505
vn 0.32442236 -0.17749542 0.9291101
vn 0.32347983 -0.18421297 0.9281306
vn 0.20093864 -0.19042046 0.9609182
vn 0.16621533 -0.18520321 0.9685413
vn 0.08375988 -0.18836106 0.9785216
vn 0.04548725 -0.18160954 0.98231804
vn 0.031903625 -0.18106173 0.9829541
vn -0.011218656 -0.17317674 0.9848269
vn 0.0010930544 -0.1727187 0.9849706
vn -0.042683695 -0.16338137 0.9856391
vn -0.058713846 -0.16300963 0.984876
vn -0.059446428 -0.16281694 0.9848638
vn -0.043823685 -0.16102703 0.98597646
vn -0.08801634 -0.1537696 0.98417884
g M_PupALL_L_A_Def_0
f 3/3/3 2/2/2 1/1/1
f 1/1/1 2/2/2 4/4/4
f 4/4/4 2/2/2 5/5/5
f 6/6/6 5/5/5 2/2/2
f 6/6/6 7/7/7 5/5/5
f 8/8/8 5/5/5 7/7/7
f 8/8/8 7/7/7 9/9/9
f 10/10/10 9/9/9 7/7/7
f 9/9/9 10/10/10 11/11/11
f 12/12/12 11/11/11 10/10/10
f 11/11/11 12/12/12 13/13/13
f 14/14/14 13/13/13 12/12/12
f 13/13/13 14/14/14 15/15/15
f 16/16/16 15/15/15 14/14/14
f 15/15/15 16/16/16 17/17/17
f 18/18/18 17/17/17 16/16/16
f 19/19/19 17/17/17 18/18/18
f 20/20/20 19/19/19 18/18/18
