g M_PupALL_L_A_Def
v 0.01825115 0.036931608 0.08574681
v 0.02086378 0.02533142 0.08451133
v 0.018847538 0.027773436 0.08496396
v 0.02014118 0.038695678 0.08580367
v 0.023861496 0.02377533 0.08404497
v 0.023504633 0.040316924 0.08574254
v 0.028098311 0.041151274 0.085429706
v 0.028164323 0.022835692 0.08339674
v 0.032006342 0.041198883 0.085091166
v 0.033675067 0.022269286 0.08250618
v 0.036217757 0.04053177 0.08451875
v 0.03787065 0.021943359 0.0815594
v 0.040381745 0.040020294 0.08322699
v 0.042366922 0.022078399 0.08022266
v 0.044144 0.03889572 0.081599236
v 0.045871776 0.023679962 0.079234906
v 0.047639154 0.03711502 0.07978413
v 0.048767753 0.025700836 0.07789748
v 0.04962419 0.035198364 0.07848937
v 0.050368875 0.028215332 0.07724545
v 0.05152739 0.03160187 0.07672553
vt 0.176168 0.587682
vt 0.227743 0.35869002
vt 0.187941 0.406896
vt 0.213479 0.62250996
vt 0.28692 0.327972
vt 0.279875 0.654515
vt 0.370557 0.67098296
vt 0.37186 0.309425
vt 0.447704 0.671924
vt 0.480646 0.298244
vt 0.53084 0.658755
vt 0.563469 0.29180598
vt 0.61304 0.64866
vt 0.652229 0.29447502
vt 0.687309 0.626458
vt 0.721417 0.32608902
vt 0.756306 0.591312
vt 0.778585 0.365983
vt 0.795491 0.55347
vt 0.810192 0.41562003
vt 0.833062 0.48247498
vn 0.060292065 -0.09227564 0.99390644
vn 0.10690488 -0.08892788 0.9902844
vn 0.12982053 -0.07605425 0.9886164
vn 0.0670925 -0.09853403 0.99286944
vn 0.113776796 -0.10418589 0.9880284
vn 0.07933672 -0.100072436 0.9918121
vn 0.089831606 -0.1056482 0.9903377
vn 0.1347628 -0.115890354 0.98407745
vn 0.1071072 -0.11782817 0.98724097
vn 0.1709895 -0.1277488 0.97695595
vn 0.19141412 -0.12665015 0.97330385
vn 0.25168103 -0.1310666 0.9588943
vn 0.31067154 -0.12247924 0.9425933
vn 0.3020014 -0.1210476 0.9455911
vn 0.3779854 -0.10787665 0.9195052
vn 0.36253318 -0.106274255 0.92589164
vn 0.43260416 -0.09344554 0.8967283
vn 0.47586298 -0.09805556 0.8740364
vn 0.4889971 -0.09589174 0.8669986
vn 0.5195752 -0.09583308 0.8490333
vn 0.592488 -0.07961409 0.80163556
g M_PupALL_L_A_Def_0
f 3/3/3 2/2/2 1/1/1
f 1/1/1 2/2/2 4/4/4
f 2/2/2 5/5/5 4/4/4
f 6/6/6 4/4/4 5/5/5
f 6/6/6 5/5/5 7/7/7
f 8/8/8 7/7/7 5/5/5
f 7/7/7 8/8/8 9/9/9
f 10/10/10 9/9/9 8/8/8
f 11/11/11 9/9/9 10/10/10
f 10/10/10 12/12/12 11/11/11
f 13/13/13 11/11/11 12/12/12
f 14/14/14 13/13/13 12/12/12
f 15/15/15 13/13/13 14/14/14
f 16/16/16 15/15/15 14/14/14
f 17/17/17 15/15/15 16/16/16
f 18/18/18 17/17/17 16/16/16
f 19/19/19 17/17/17 18/18/18
f 18/18/18 20/20/20 19/19/19
f 19/19/19 20/20/20 21/21/21
