g M_PupALL_L_A_Def
v 0.018817253 0.030036468 0.08525675
v 0.0217978 0.017103424 0.08355424
v 0.017758796 0.023220824 0.0841078
v 0.020825423 0.034248658 0.08617548
v 0.02352335 0.03708618 0.0868371
v 0.025545998 0.013810577 0.08315918
v 0.026815794 0.03882843 0.08731249
v 0.03009366 0.011354065 0.08246912
v 0.030843941 0.040509187 0.08750795
v 0.03637347 0.010394439 0.08163847
v 0.035609636 0.041371457 0.087262206
v 0.040021762 0.041451566 0.08648964
v 0.04309019 0.010027465 0.08028066
v 0.044313878 0.040560607 0.08500099
v 0.046926502 0.01191101 0.07904049
v 0.04907382 0.039114837 0.08276142
v 0.051817212 0.015188751 0.07723142
v 0.053088862 0.036884308 0.08040691
v 0.055275783 0.019474944 0.07597855
v 0.056903977 0.03329132 0.07728216
v 0.0576521 0.026020203 0.075714946
vt 0.203609 0.559404
vt 0.253517 0.34284198
vt 0.185885 0.445278
vt 0.237235 0.629938
vt 0.282412 0.67745197
vt 0.316281 0.287704
vt 0.337543 0.706625
vt 0.392431 0.246571
vt 0.404994 0.73477
vt 0.497585 0.230501
vt 0.484795 0.749208
vt 0.558676 0.750549
vt 0.610056 0.22435802
vt 0.630547 0.73563004
vt 0.674295 0.255898
vt 0.710251 0.71142197
vt 0.756189 0.310781
vt 0.777483 0.674072
vt 0.814102 0.38255298
vt 0.841366 0.613907
vt 0.853893 0.492153
vn -0.11683701 -0.15604052 0.9808163
vn -0.04340011 -0.15836373 0.9864266
vn -0.09421807 -0.151246 0.98399574
vn -0.08442476 -0.15526576 0.98425865
vn -0.059176937 -0.15967254 0.9853947
vn 0.036546826 -0.16489415 0.9856339
vn 0.004824547 -0.16805974 0.98576504
vn 0.08944194 -0.170594 0.98127365
vn 0.06492298 -0.17402282 0.98259914
vn 0.15054461 -0.17280813 0.97338253
vn 0.12785275 -0.1741068 0.9763916
vn 0.22381069 -0.16646098 0.9603121
vn 0.2495151 -0.1678076 0.9537205
vn 0.33129412 -0.15658273 0.93044406
vn 0.39449036 -0.15606308 0.9055504
vn 0.39834616 -0.15502223 0.9040401
vn 0.4441213 -0.15540275 0.88238674
vn 0.45853448 -0.15304501 0.875399
vn 0.5032651 -0.15239653 0.85058767
vn 0.5410708 -0.14197259 0.82890654
vn 0.4766489 -0.13808574 0.86818093
g M_PupALL_L_A_Def_0
f 3/3/3 2/2/2 1/1/1
f 1/1/1 2/2/2 4/4/4
f 4/4/4 2/2/2 5/5/5
f 6/6/6 5/5/5 2/2/2
f 7/7/7 5/5/5 6/6/6
f 8/8/8 7/7/7 6/6/6
f 9/9/9 7/7/7 8/8/8
f 8/8/8 10/10/10 9/9/9
f 11/11/11 9/9/9 10/10/10
f 12/12/12 11/11/11 10/10/10
f 13/13/13 12/12/12 10/10/10
f 12/12/12 13/13/13 14/14/14
f 15/15/15 14/14/14 13/13/13
f 16/16/16 14/14/14 15/15/15
f 17/17/17 16/16/16 15/15/15
f 18/18/18 16/16/16 17/17/17
f 19/19/19 18/18/18 17/17/17
f 18/18/18 19/19/19 20/20/20
f 21/21/21 20/20/20 19/19/19
