g M_PupALL_L_A_Def
v 0.021471325 0.045121003 0.08756326
v 0.019864282 0.027265014 0.08437105
v 0.017881531 0.03581314 0.08557951
v 0.023457298 0.021662291 0.08339301
v 0.024777737 0.04863983 0.08831823
v 0.027830366 0.01797409 0.082600705
v 0.02775137 0.051267087 0.088805445
v 0.032234397 0.052364502 0.08888927
v 0.03219869 0.01632614 0.08195427
v 0.038998798 0.052384946 0.08843744
v 0.038109884 0.015691223 0.08104509
v 0.045635182 0.0513797 0.087042004
v 0.04544669 0.01562973 0.07943853
v 0.051097043 0.050005034 0.085035376
v 0.05086492 0.016104735 0.077836126
v 0.05469236 0.04904846 0.08329092
v 0.055557363 0.018274078 0.07573391
v 0.059626147 0.0451593 0.07986486
v 0.060497817 0.0222052 0.07357529
v 0.06279119 0.039087523 0.07612906
v 0.063911006 0.028638458 0.072323285
vt 0.255525 0.660217
vt 0.233262 0.41284603
vt 0.205793 0.531269
vt 0.283038 0.335226
vt 0.301332 0.708967
vt 0.343622 0.28412998
vt 0.342528 0.745365
vt 0.404634 0.760567
vt 0.40414 0.261299
vt 0.498347 0.760851
vt 0.486032 0.252504
vt 0.590286 0.74692297
vt 0.587675 0.251652
vt 0.665953 0.72788
vt 0.662738 0.258232
vt 0.715762 0.714628
vt 0.727746 0.28828597
vt 0.784114 0.660748
vt 0.79619 0.34274697
vt 0.827962 0.576632
vt 0.843475 0.431871
vn -0.03843792 -0.17693299 0.983472
vn -0.014209747 -0.174728 0.9845142
vn -0.113824666 -0.16490589 0.97971934
vn 0.02014425 -0.18009643 0.9834426
vn -0.004880833 -0.18201317 0.983284
vn 0.058962878 -0.18642764 0.98069775
vn 0.02038905 -0.18312821 0.9828775
vn 0.05403842 -0.18693535 0.9808848
vn 0.10519677 -0.194688 0.9752078
vn 0.120681755 -0.19417232 0.97351587
vn 0.17152584 -0.20188397 0.9642727
vn 0.22078449 -0.20004104 0.95458776
vn 0.24432987 -0.20301808 0.9482017
vn 0.32173312 -0.19869581 0.92574716
vn 0.36566502 -0.1999645 0.90901226
vn 0.4134535 -0.19708873 0.8889389
vn 0.48657086 -0.19999574 0.85044134
vn 0.46363634 -0.2017412 0.8627524
vn 0.53752226 -0.2054817 0.8178307
vn 0.5719978 -0.19810857 0.795972
vn 0.6458465 -0.19922274 0.737016
g M_PupALL_L_A_Def_0
f 3/3/3 2/2/2 1/1/1
f 4/4/4 1/1/1 2/2/2
f 1/1/1 4/4/4 5/5/5
f 4/4/4 6/6/6 5/5/5
f 7/7/7 5/5/5 6/6/6
f 7/7/7 6/6/6 8/8/8
f 6/6/6 9/9/9 8/8/8
f 8/8/8 9/9/9 10/10/10
f 11/11/11 10/10/10 9/9/9
f 10/10/10 11/11/11 12/12/12
f 13/13/13 12/12/12 11/11/11
f 12/12/12 13/13/13 14/14/14
f 15/15/15 14/14/14 13/13/13
f 16/16/16 14/14/14 15/15/15
f 17/17/17 16/16/16 15/15/15
f 18/18/18 16/16/16 17/17/17
f 19/19/19 18/18/18 17/17/17
f 20/20/20 18/18/18 19/19/19
f 21/21/21 20/20/20 19/19/19
