g M_PupALL_R_A_Def
v -0.01771059 0.037537992 0.086258985
v -0.016334383 0.030790253 0.08506698
v -0.01959233 0.026406402 0.084393136
v -0.02043603 0.04020889 0.08689378
v -0.022739477 0.024655761 0.0840521
v -0.025324997 0.04270523 0.08711898
v -0.027463712 0.023644561 0.08361612
v -0.031836618 0.04487625 0.08685705
v -0.033372052 0.023235016 0.08300796
v -0.03721203 0.02304016 0.08256131
v -0.035820648 0.0459906 0.08630181
v -0.039687194 0.02316986 0.08218437
v -0.03904052 0.045856323 0.08574985
v -0.041760497 0.04559784 0.08505328
v -0.042204283 0.023476409 0.08148941
v -0.045447852 0.044577483 0.08375524
v -0.045324784 0.024564667 0.08050183
v -0.0483667 0.027505951 0.07922136
v -0.047505215 0.043273926 0.08229883
v -0.0510923 0.031520538 0.0780234
v -0.04978363 0.04140335 0.08021784
v -0.05368015 0.037712097 0.07708063
vt 0.798825 0.53153896
vt 0.824183 0.40720397
vt 0.764152 0.32642603
vt 0.748606 0.58075297
vt 0.706163 0.294169
vt 0.658521 0.626752
vt 0.619113 0.275537
vt 0.538536 0.666754
vt 0.510245 0.26798898
vt 0.439489 0.264399
vt 0.465126 0.687288
vt 0.393881 0.26678902
vt 0.405797 0.684812
vt 0.355678 0.68005
vt 0.347501 0.27243698
vt 0.287734 0.66124797
vt 0.290002 0.29249
vt 0.233951 0.34668702
vt 0.249825 0.63723004
vt 0.183729 0.42066002
vt 0.207843 0.602762
vt 0.136045 0.534745
vn 0.053953208 -0.17393519 0.983278
vn 0.023866173 -0.16918653 0.98529506
vn 0.0010576483 -0.17731827 0.984153
vn -0.027855815 -0.17389067 0.9843709
vn -0.04321919 -0.17535824 0.9835556
vn -0.080561854 -0.17080836 0.98200524
vn -0.07846404 -0.17052889 0.98222363
vn -0.13178608 -0.1597843 0.9783156
vn -0.0965108 -0.16765185 0.9811109
vn -0.13318819 -0.15801261 0.97841346
vn -0.16976789 -0.14828402 0.97426426
vn -0.21560286 -0.14856635 0.9651132
vn -0.19126864 -0.14706853 0.97045714
vn -0.2636509 -0.14560483 0.9535657
vn -0.30817157 -0.14944597 0.9395191
vn -0.3436642 -0.14576516 0.92771095
vn -0.39909357 -0.14951806 0.90463734
vn -0.51094145 -0.13939388 0.8482382
vn -0.53543544 -0.12972938 0.83455336
vn -0.5572704 -0.12505451 0.82085997
vn -0.6091181 -0.094195046 0.7874658
vn -0.5590422 -0.108496316 0.8220099
g M_PupALL_R_A_Def_0
f 3/3/3 2/2/2 1/1/1
f 1/1/1 4/4/4 3/3/3
f 5/5/5 3/3/3 4/4/4
f 4/4/4 6/6/6 5/5/5
f 7/7/7 5/5/5 6/6/6
f 6/6/6 8/8/8 7/7/7
f 9/9/9 7/7/7 8/8/8
f 9/9/9 8/8/8 10/10/10
f 11/11/11 10/10/10 8/8/8
f 10/10/10 11/11/11 12/12/12
f 12/12/12 11/11/11 13/13/13
f 14/14/14 12/12/12 13/13/13
f 12/12/12 14/14/14 15/15/15
f 14/14/14 16/16/16 15/15/15
f 17/17/17 15/15/15 16/16/16
f 18/18/18 17/17/17 16/16/16
f 19/19/19 18/18/18 16/16/16
f 20/20/20 18/18/18 19/19/19
f 20/20/20 19/19/19 21/21/21
f 22/22/22 20/20/20 21/21/21
