g M_PupALL_L_A_Def
v 0.061691 0.02404724 0.072391085
v 0.061133377 0.043025207 0.07533017
v 0.06392695 0.031395264 0.07178992
v 0.05886444 0.01845993 0.073723055
v 0.056990236 0.046968535 0.078054205
v 0.054055452 0.016342163 0.07569313
v 0.052388143 0.049269408 0.08078324
v 0.049526423 0.014756927 0.07716983
v 0.046795316 0.05115448 0.08319566
v 0.043863762 0.01388916 0.07880385
v 0.03756486 0.014263305 0.079908825
v 0.040015485 0.051555175 0.084585175
v 0.031922217 0.01578186 0.081170596
v 0.033792887 0.05086792 0.08495992
v 0.027807998 0.047959592 0.08482374
v 0.026636934 0.01792694 0.08158741
v 0.023801379 0.044617917 0.08460922
v 0.022012748 0.02210861 0.08174123
v 0.01906086 0.026210632 0.08196585
v 0.020107107 0.040143583 0.08386435
v 0.018143337 0.03719574 0.08318879
v 0.017622005 0.03258606 0.08255813
vt 0.826042 0.362177
vt 0.817159 0.664497
vt 0.861661 0.479231
vt 0.781015 0.27317
vt 0.751158 0.727314
vt 0.704407 0.23943502
vt 0.677847 0.763968
vt 0.632259 0.21418202
vt 0.588753 0.793997
vt 0.542053 0.20035702
vt 0.441711 0.20631802
vt 0.480749 0.800381
vt 0.351823 0.23050898
vt 0.381623 0.789433
vt 0.286283 0.743103
vt 0.267628 0.26468098
vt 0.222457 0.689869
vt 0.193964 0.331295
vt 0.146941 0.39664102
vt 0.163607 0.618593
vt 0.132324 0.571634
vt 0.124019 0.498201
vn 0.58716214 -0.107008174 0.80236524
vn 0.48614195 -0.101797834 0.8679304
vn 0.5751253 -0.10867041 0.8108155
vn 0.43884242 -0.10893803 0.891936
vn 0.464657 -0.10970614 0.87866855
vn 0.37906176 -0.119563475 0.9176147
vn 0.38895926 -0.12242088 0.9130848
vn 0.315682 -0.13131076 0.9397353
vn 0.2545924 -0.13173562 0.9580337
vn 0.22234122 -0.13134581 0.96608114
vn 0.17361848 -0.13119958 0.97603446
vn 0.14542559 -0.12566441 0.98135614
vn 0.1242729 -0.12417305 0.9844477
vn 0.056666795 -0.11018973 0.99229383
vn 0.031862438 -0.108817905 0.9935509
vn 0.012397953 -0.1108649 0.9937581
vn 0.019231545 -0.1113777 0.99359196
vn -0.078158386 -0.11989161 0.98970556
vn -0.08931744 -0.11953499 0.9888043
vn -0.05078492 -0.13109373 0.9900684
vn -0.15328401 -0.12197416 0.9806255
vn -0.12761779 -0.12026009 0.9845055
g M_PupALL_L_A_Def_0
f 3/3/3 2/2/2 1/1/1
f 1/1/1 2/2/2 4/4/4
f 2/2/2 5/5/5 4/4/4
f 6/6/6 4/4/4 5/5/5
f 5/5/5 7/7/7 6/6/6
f 8/8/8 6/6/6 7/7/7
f 7/7/7 9/9/9 8/8/8
f 10/10/10 8/8/8 9/9/9
f 11/11/11 10/10/10 9/9/9
f 9/9/9 12/12/12 11/11/11
f 11/11/11 12/12/12 13/13/13
f 14/14/14 13/13/13 12/12/12
f 15/15/15 13/13/13 14/14/14
f 13/13/13 15/15/15 16/16/16
f 17/17/17 16/16/16 15/15/15
f 16/16/16 17/17/17 18/18/18
f 18/18/18 17/17/17 19/19/19
f 20/20/20 19/19/19 17/17/17
f 20/20/20 21/21/21 19/19/19
f 19/19/19 21/21/21 22/22/22
