g M_PupALL_L_A_Def
v 0.01940262 0.031831052 0.084100634
v 0.0197313 0.03708557 0.08504521
v 0.02211822 0.040216215 0.08548873
v 0.02211822 0.040216215 0.08548873
v 0.021206575 0.027666625 0.083601594
v 0.025448203 0.04226898 0.0856664
v 0.023903212 0.025581054 0.083302595
v 0.02756197 0.024711609 0.08297198
v 0.029391188 0.04383621 0.08573203
v 0.031698722 0.024489287 0.08267032
v 0.0328672 0.04470108 0.08535509
v 0.036927924 0.04512329 0.08512109
v 0.036382336 0.024227599 0.08198826
v 0.041421823 0.044877164 0.084260985
v 0.041458003 0.024556732 0.08118159
v 0.04653795 0.043796387 0.08268175
v 0.04613479 0.02634613 0.08008234
v 0.049280066 0.042943265 0.08138387
v 0.049990095 0.02932205 0.07876787
v 0.051847678 0.031838987 0.078281276
v 0.052029308 0.041641235 0.079860836
v 0.053916372 0.03806091 0.07790287
vt 0.225974 0.410343
vt 0.231533 0.499214
vt 0.271902 0.55216
vt 0.271902 0.55216
vt 0.256484 0.33991098
vt 0.328221 0.58687997
vt 0.302091 0.30463803
vt 0.36397 0.289936
vt 0.394907 0.61338
vt 0.433934 0.286175
vt 0.453695 0.628012
vt 0.522373 0.635149
vt 0.513146 0.28175402
vt 0.598377 0.630987
vt 0.598989 0.28731298
vt 0.684904 0.612709
vt 0.678085 0.31757897
vt 0.73128 0.598278
vt 0.743289 0.367908
vt 0.774705 0.41047502
vt 0.777777 0.57626
vt 0.809692 0.51570296
vn -0.05480099 -0.14577359 0.9877989
vn 0.05346272 -0.17991468 0.98222834
vn 0.0347505 -0.15218781 0.98774046
vn 0.0347505 -0.15218781 0.98774046
vn -0.002618089 -0.14162295 0.9899172
vn 0.04057295 -0.14698853 0.9883058
vn 0.038264 -0.14361738 0.98889333
vn 0.059136245 -0.14715701 0.9873438
vn 0.09786793 -0.14241324 0.98495704
vn 0.10295879 -0.1483497 0.9835608
vn 0.09827943 -0.13661835 0.98573655
vn 0.13435209 -0.14497298 0.9802715
vn 0.15056913 -0.14912397 0.97728753
vn 0.2175844 -0.14733797 0.9648567
vn 0.20923346 -0.14745842 0.96668375
vn 0.29749367 -0.144738 0.94368875
vn 0.31576598 -0.14841579 0.9371577
vn 0.39920008 -0.14676806 0.9050405
vn 0.4227433 -0.14962325 0.89381266
vn 0.44762573 -0.14788283 0.8819081
vn 0.4502927 -0.1501757 0.8801611
vn 0.57152927 -0.14085758 0.80840176
g M_PupALL_L_A_Def_0
f 3/3/3 2/2/2 1/1/1
f 1/1/1 5/5/5 4/4/4
f 4/4/4 5/5/5 6/6/6
f 7/7/7 6/6/6 5/5/5
f 7/7/7 8/8/8 6/6/6
f 6/6/6 8/8/8 9/9/9
f 10/10/10 9/9/9 8/8/8
f 11/11/11 9/9/9 10/10/10
f 12/12/12 11/11/11 10/10/10
f 10/10/10 13/13/13 12/12/12
f 14/14/14 12/12/12 13/13/13
f 15/15/15 14/14/14 13/13/13
f 16/16/16 14/14/14 15/15/15
f 17/17/17 16/16/16 15/15/15
f 18/18/18 16/16/16 17/17/17
f 19/19/19 18/18/18 17/17/17
f 20/20/20 18/18/18 19/19/19
f 21/21/21 18/18/18 20/20/20
f 22/22/22 21/21/21 20/20/20
