g M_PupALL_L_A_Def
v 0.06005966 0.028482514 0.07553461
v 0.057710722 0.03782852 0.07837011
v 0.062458303 0.034840394 0.07512494
v 0.05662008 0.023638304 0.07661148
v 0.05394207 0.038272858 0.08075668
v 0.051751003 0.019658508 0.07867338
v 0.047626283 0.0177182 0.08048994
v 0.048847027 0.03893936 0.08332227
v 0.0429146 0.016863404 0.081952035
v 0.04293119 0.039506223 0.085416526
v 0.03580901 0.017202454 0.08334195
v 0.03709126 0.040042877 0.08676863
v 0.03580901 0.017202454 0.08334195
v 0.032438327 0.040614318 0.087412134
v 0.029455222 0.018866882 0.08415815
v 0.027548008 0.04085281 0.08808454
v 0.02589425 0.020487975 0.084685035
v 0.0238984 0.0391687 0.087772354
v 0.021346655 0.037597504 0.0874295
v 0.02166914 0.023773193 0.08535525
vt 0.872253 0.441397
vt 0.830702 0.606718
vt 0.914682 0.553862
vt 0.81141 0.355707
vt 0.764038 0.614578
vt 0.72528 0.28530902
vt 0.652318 0.25098598
vt 0.673912 0.626369
vt 0.568973 0.23586702
vt 0.569266 0.636396
vt 0.443281 0.24186301
vt 0.465963 0.64588904
vt 0.443281 0.24186301
vt 0.383657 0.65599597
vt 0.330889 0.27130502
vt 0.297152 0.660215
vt 0.267898 0.29997998
vt 0.232594 0.630426
vt 0.187456 0.602633
vt 0.19316 0.35809302
vn 0.48040754 -0.14184456 0.865499
vn 0.5090393 -0.14212969 0.84892774
vn 0.50050634 -0.13371193 0.85534465
vn 0.4895407 -0.15166572 0.8586894
vn 0.46033236 -0.1455186 0.87573886
vn 0.46792766 -0.15250541 0.8705089
vn 0.3663056 -0.14593512 0.91897947
vn 0.36756095 -0.1439011 0.91879886
vn 0.23676398 -0.1470214 0.96037877
vn 0.25628066 -0.1500241 0.954889
vn 0.14500801 -0.15364383 0.9774284
vn 0.16648486 -0.15542996 0.9737168
vn 0.14500801 -0.15364383 0.9774284
vn 0.11772309 -0.15912403 0.9802146
vn 0.08390078 -0.16162203 0.9832797
vn 0.081328504 -0.16443534 0.9830293
vn 0.054819096 -0.16516371 0.9847415
vn -0.015017226 -0.1645988 0.98624635
vn -0.021242034 -0.16384836 0.9862568
vn 0.042235367 -0.14728695 0.98819166
g M_PupALL_L_A_Def_0
f 3/3/3 2/2/2 1/1/1
f 1/1/1 2/2/2 4/4/4
f 2/2/2 5/5/5 4/4/4
f 4/4/4 5/5/5 6/6/6
f 6/6/6 5/5/5 7/7/7
f 5/5/5 8/8/8 7/7/7
f 7/7/7 8/8/8 9/9/9
f 8/8/8 10/10/10 9/9/9
f 11/11/11 9/9/9 10/10/10
f 10/10/10 12/12/12 11/11/11
f 14/14/14 13/13/13 12/12/12
f 13/13/13 14/14/14 15/15/15
f 16/16/16 15/15/15 14/14/14
f 15/15/15 16/16/16 17/17/17
f 18/18/18 17/17/17 16/16/16
f 19/19/19 17/17/17 18/18/18
f 17/17/17 19/19/19 20/20/20
