g M_PupALL_R_A_Def
v -0.021136506 0.040006865 0.08256593
v -0.02110898 0.029790038 0.08078967
v -0.022956189 0.026179045 0.08004676
v -0.02359693 0.04451248 0.08391199
v -0.02651465 0.024367064 0.079596944
v -0.027265217 0.048743438 0.0845885
v -0.032138117 0.022763213 0.0792311
v -0.03177645 0.051615752 0.0850247
v -0.03736385 0.021442719 0.07826147
v -0.037178706 0.0529245 0.08467187
v -0.042578194 0.020522155 0.07684117
v -0.0422258 0.053700864 0.08311862
v -0.04760269 0.020930022 0.07520755
v -0.048153747 0.053886414 0.08048488
v -0.05239415 0.05055389 0.077804014
v -0.052629795 0.023849182 0.07320238
v -0.055923745 0.04556961 0.0750159
v -0.055236205 0.026829986 0.07186404
v -0.057627685 0.03927063 0.072665505
v -0.05816629 0.031433564 0.070087686
vt 0.808345 0.539743
vt 0.808844 0.35445398
vt 0.775343 0.288967
vt 0.763723 0.621456
vt 0.710808 0.256105
vt 0.697196 0.698189
vt 0.608822 0.227018
vt 0.615381 0.75028
vt 0.51405 0.20306998
vt 0.517407 0.774015
vt 0.419484 0.18637502
vt 0.425875 0.788095
vt 0.328361 0.193771
vt 0.318367 0.79146004
vt 0.241464 0.731022
vt 0.23719 0.24671203
vt 0.177452 0.640629
vt 0.189921 0.300772
vt 0.14655 0.526392
vt 0.136782 0.38426
vn 0.16114886 -0.19737516 0.9669923
vn -0.0609682 -0.17112799 0.98336065
vn -0.01131487 -0.20507918 0.9786799
vn -0.032222543 -0.20217043 0.97882015
vn -0.010783439 -0.20201348 0.9793234
vn -0.03204758 -0.19772945 0.97973263
vn -0.08485327 -0.19648193 0.976829
vn -0.087906346 -0.19718367 0.97641754
vn -0.1874908 -0.1937562 0.96296716
vn -0.22035342 -0.18611173 0.9575003
vn -0.28098163 -0.18124768 0.9424429
vn -0.36008802 -0.1624367 0.9186681
vn -0.37099493 -0.16250813 0.91430515
vn -0.41639322 -0.15054142 0.8966348
vn -0.44788414 -0.14837636 0.88169396
vn -0.45889094 -0.14949805 0.875825
vn -0.48636413 -0.14604716 0.8614639
vn -0.598554 -0.1584854 0.78524876
vn -0.5646679 -0.16069864 0.80952215
vn -0.7003488 -0.17914253 0.6909556
g M_PupALL_R_A_Def_0
f 3/3/3 2/2/2 1/1/1
f 1/1/1 4/4/4 3/3/3
f 3/3/3 4/4/4 5/5/5
f 4/4/4 6/6/6 5/5/5
f 5/5/5 6/6/6 7/7/7
f 8/8/8 7/7/7 6/6/6
f 7/7/7 8/8/8 9/9/9
f 8/8/8 10/10/10 9/9/9
f 9/9/9 10/10/10 11/11/11
f 12/12/12 11/11/11 10/10/10
f 11/11/11 12/12/12 13/13/13
f 14/14/14 13/13/13 12/12/12
f 14/14/14 15/15/15 13/13/13
f 16/16/16 13/13/13 15/15/15
f 17/17/17 16/16/16 15/15/15
f 16/16/16 17/17/17 18/18/18
f 19/19/19 18/18/18 17/17/17
f 20/20/20 18/18/18 19/19/19
