g M_PupALL_L_A_Def
v 0.04751938 0.024977112 0.07429765
v 0.051776886 0.037925873 0.073423974
v 0.051826544 0.030374145 0.07201695
v 0.048998125 0.040266722 0.075996645
v 0.044104364 0.022460021 0.07573698
v 0.0458085 0.041190032 0.07781703
v 0.041662455 0.0414386 0.08000433
v 0.040825184 0.02166809 0.07675913
v 0.036882143 0.041523285 0.081478365
v 0.036851194 0.021825561 0.07779906
v 0.031941727 0.040995024 0.08202792
v 0.031212386 0.022147827 0.078531966
v 0.027885877 0.039779358 0.08244693
v 0.02727646 0.022806397 0.07912834
v 0.024421997 0.037554014 0.08206831
v 0.022727966 0.023569489 0.07978185
v 0.019468898 0.025476074 0.080287226
v 0.021148453 0.034703217 0.08166562
v 0.019282112 0.031411894 0.080766276
vt 0.69454 0.29286402
vt 0.765003 0.511729
vt 0.765824 0.38408703
vt 0.719013 0.55129397
vt 0.63802 0.250319
vt 0.666224 0.56690097
vt 0.597606 0.571101
vt 0.583749 0.236934
vt 0.518491 0.57253397
vt 0.517978 0.23959601
vt 0.436725 0.563604
vt 0.424654 0.24504298
vt 0.3696 0.54305696
vt 0.359515 0.25617498
vt 0.312271 0.505444
vt 0.284236 0.269073
vt 0.230296 0.30129802
vt 0.258094 0.457259
vt 0.227206 0.40162802
vn 0.5007827 -0.1430268 0.8536745
vn 0.6025411 -0.14516215 0.7847752
vn 0.5972218 -0.14311677 0.78920454
vn 0.50950503 -0.14193022 0.8486817
vn 0.38610247 -0.15644051 0.9090936
vn 0.45737818 -0.13915512 0.8783173
vn 0.3584583 -0.15634766 0.92036027
vn 0.28421724 -0.17238738 0.9431347
vn 0.20569727 -0.17586961 0.9626829
vn 0.17537099 -0.182385 0.96746093
vn 0.13683808 -0.1840303 0.9733489
vn 0.11837589 -0.18825495 0.97496015
vn 0.11390756 -0.18880326 0.9753863
vn 0.107652955 -0.18660529 0.97651905
vn 0.031083332 -0.18486303 0.9822726
vn 0.09196524 -0.17151281 0.9808801
vn 0.04164312 -0.16447793 0.98550135
vn -0.011171364 -0.14574571 0.98925906
vn -0.30510637 -0.086142324 0.9484142
g M_PupALL_L_A_Def_0
f 3/3/3 2/2/2 1/1/1
f 2/2/2 4/4/4 1/1/1
f 1/1/1 4/4/4 5/5/5
f 6/6/6 5/5/5 4/4/4
f 6/6/6 7/7/7 5/5/5
f 8/8/8 5/5/5 7/7/7
f 7/7/7 9/9/9 8/8/8
f 10/10/10 8/8/8 9/9/9
f 9/9/9 11/11/11 10/10/10
f 12/12/12 10/10/10 11/11/11
f 11/11/11 13/13/13 12/12/12
f 12/12/12 13/13/13 14/14/14
f 15/15/15 14/14/14 13/13/13
f 14/14/14 15/15/15 16/16/16
f 16/16/16 15/15/15 17/17/17
f 18/18/18 17/17/17 15/15/15
f 19/19/19 17/17/17 18/18/18
