g M_PupALL_L_A_Def
v 0.047876794 0.027814636 0.077528484
v 0.04891502 0.039105073 0.07912091
v 0.05145863 0.034818724 0.07652317
v 0.046282243 0.040502775 0.08073591
v 0.044736594 0.025105895 0.07862051
v 0.04109537 0.023154449 0.07984221
v 0.043129086 0.041285094 0.0821087
v 0.039289653 0.04161987 0.083670646
v 0.03774519 0.022394713 0.08087219
v 0.03577223 0.041438904 0.08471795
v 0.034949124 0.022036895 0.081441745
v 0.030572264 0.040816497 0.085835114
v 0.030253075 0.022522582 0.08254658
v 0.026551519 0.04008545 0.0862413
v 0.025774244 0.02303955 0.08293359
v 0.02305459 0.03883911 0.086198255
v 0.02133904 0.023719788 0.083506756
v 0.01896028 0.036300965 0.085959375
v 0.017307945 0.024898835 0.08379629
v 0.016520604 0.033141784 0.08558352
v 0.013936274 0.02819519 0.08462831
vt 0.784986 0.37971097
vt 0.804387 0.590693
vt 0.851919 0.51059496
vt 0.755189 0.616812
vt 0.726306 0.329094
vt 0.658263 0.29262698
vt 0.696267 0.63143003
vt 0.624521 0.637686
vt 0.59566 0.278431
vt 0.558791 0.634304
vt 0.54341 0.271744
vt 0.461621 0.62267303
vt 0.455657 0.28082103
vt 0.386487 0.60901296
vt 0.371962 0.29048198
vt 0.321141 0.58572197
vt 0.289083 0.30319202
vt 0.244631 0.53829396
vt 0.213755 0.32522398
vt 0.199042 0.479258
vt 0.150749 0.386824
vn 0.4641996 -0.16585568 0.87006354
vn 0.48035914 -0.16564968 0.861287
vn 0.55365264 -0.16600692 0.8160334
vn 0.38983235 -0.15911481 0.9070354
vn 0.40641585 -0.16428646 0.898797
vn 0.34720567 -0.16133939 0.9238062
vn 0.36103815 -0.15544347 0.91950464
vn 0.32426745 -0.15838142 0.9326124
vn 0.27293938 -0.16633092 0.94754314
vn 0.2511626 -0.16728452 0.9533799
vn 0.21407998 -0.17401184 0.9611918
vn 0.18881088 -0.17442584 0.96639854
vn 0.15026383 -0.18304339 0.9715533
vn 0.09866865 -0.18441123 0.97788393
vn 0.075438894 -0.18999368 0.97888273
vn 0.060682964 -0.18837611 0.9802203
vn 0.070067696 -0.18588649 0.98006976
vn 0.055165995 -0.18357158 0.98145723
vn 0.023882572 -0.19246301 0.9810136
vn 0.094720654 -0.2022934 0.9747335
vn 0.037508707 -0.20832427 0.97734034
g M_PupALL_L_A_Def_0
f 3/3/3 2/2/2 1/1/1
f 2/2/2 4/4/4 1/1/1
f 5/5/5 1/1/1 4/4/4
f 5/5/5 4/4/4 6/6/6
f 7/7/7 6/6/6 4/4/4
f 7/7/7 8/8/8 6/6/6
f 6/6/6 8/8/8 9/9/9
f 8/8/8 10/10/10 9/9/9
f 9/9/9 10/10/10 11/11/11
f 10/10/10 12/12/12 11/11/11
f 13/13/13 11/11/11 12/12/12
f 12/12/12 14/14/14 13/13/13
f 15/15/15 13/13/13 14/14/14
f 14/14/14 16/16/16 15/15/15
f 17/17/17 15/15/15 16/16/16
f 18/18/18 17/17/17 16/16/16
f 17/17/17 18/18/18 19/19/19
f 20/20/20 19/19/19 18/18/18
f 20/20/20 21/21/21 19/19/19
