g M_PupALL_L_A_Def
v 0.02134559 0.036979675 0.08763019
v 0.021735089 0.022109527 0.0853986
v 0.018157864 0.028516235 0.08576561
v 0.025919417 0.04090805 0.08756128
v 0.026489725 0.018973693 0.08490865
v 0.030658722 0.04296356 0.08807653
v 0.03626486 0.044012602 0.088249415
v 0.033527475 0.017678527 0.08389579
v 0.039301526 0.017266387 0.08307803
v 0.0410957 0.044078827 0.087557845
v 0.048373107 0.044047087 0.08603201
v 0.044218376 0.017333373 0.0816436
v 0.048191812 0.018139495 0.08040733
v 0.05331626 0.042734373 0.08368029
v 0.051881187 0.018925475 0.07882673
v 0.054935813 0.020452423 0.07725781
v 0.057050113 0.04062317 0.08090269
v 0.057725657 0.023244934 0.07633635
v 0.060735684 0.037492063 0.07765949
v 0.06107499 0.028021088 0.074719265
v 0.06311963 0.03333313 0.07384778
vt 0.17452 0.559975
vt 0.188425 0.28725803
vt 0.114532 0.41619003
vt 0.267188 0.62314904
vt 0.25758 0.24223602
vt 0.331969 0.651694
vt 0.434092 0.676926
vt 0.38552 0.21198797
vt 0.491354 0.20321298
vt 0.51407 0.675381
vt 0.650617 0.666506
vt 0.583443 0.19999403
vt 0.65428 0.20650601
vt 0.771553 0.63439
vt 0.741169 0.21527201
vt 0.797972 0.24297702
vt 0.836331 0.600037
vt 0.854121 0.28672498
vt 0.903198 0.552123
vt 0.91584 0.38034898
vt 0.946937 0.47672898
vn 0.10411174 -0.14493626 0.9839483
vn 0.01147256 -0.12472122 0.9921256
vn -0.16980621 -0.15060353 0.97390175
vn -0.016118575 -0.12512644 0.9920099
vn 0.073381975 -0.15534198 0.98513144
vn -0.0205414 -0.12737776 0.9916415
vn 0.08863967 -0.15924999 0.98325104
vn 0.116816565 -0.17379995 0.97782797
vn 0.1931188 -0.18363853 0.96383715
vn 0.1786162 -0.17376147 0.968454
vn 0.2763156 -0.1865506 0.9427877
vn 0.29650754 -0.19954072 0.9339523
vn 0.36651063 -0.20353189 0.90787935
vn 0.4181544 -0.20113866 0.88582736
vn 0.46141514 -0.20383033 0.8634519
vn 0.5150617 -0.20157549 0.83311397
vn 0.5170095 -0.20153892 0.8319155
vn 0.51737237 -0.20342997 0.83122927
vn 0.5784395 -0.19194849 0.7928199
vn 0.66173625 -0.20056237 0.7224125
vn 0.7365053 -0.17634776 0.6530401
g M_PupALL_L_A_Def_0
f 3/3/3 2/2/2 1/1/1
f 1/1/1 2/2/2 4/4/4
f 2/2/2 5/5/5 4/4/4
f 4/4/4 5/5/5 6/6/6
f 6/6/6 5/5/5 7/7/7
f 8/8/8 7/7/7 5/5/5
f 8/8/8 9/9/9 7/7/7
f 10/10/10 7/7/7 9/9/9
f 10/10/10 9/9/9 11/11/11
f 9/9/9 12/12/12 11/11/11
f 11/11/11 12/12/12 13/13/13
f 11/11/11 13/13/13 14/14/14
f 15/15/15 14/14/14 13/13/13
f 15/15/15 16/16/16 14/14/14
f 17/17/17 14/14/14 16/16/16
f 18/18/18 17/17/17 16/16/16
f 19/19/19 17/17/17 18/18/18
f 20/20/20 19/19/19 18/18/18
f 20/20/20 21/21/21 19/19/19
