g M_PupALL_L_A_Def
v 0.05005726 0.027976684 0.07574753
v 0.05275721 0.03634552 0.07605199
v 0.05269889 0.031109465 0.075316906
v 0.049890593 0.03861343 0.078176856
v 0.04654209 0.026314849 0.07681875
v 0.046267968 0.040284727 0.08036199
v 0.042580068 0.02518219 0.07805348
v 0.04188031 0.04114502 0.082103066
v 0.037187014 0.024691619 0.079621494
v 0.036377106 0.041862946 0.08371748
v 0.03181746 0.025047302 0.08111082
v 0.03164136 0.042190704 0.084513985
v 0.027543094 0.041949615 0.08505471
v 0.026334042 0.025635986 0.08168302
v 0.024982877 0.04136444 0.085147016
v 0.022690875 0.040242765 0.08517439
v 0.02230585 0.026243133 0.081963025
v 0.019861106 0.038287353 0.084861964
v 0.01857894 0.027168427 0.08240295
v 0.017614441 0.03615616 0.08438711
v 0.015058994 0.031074828 0.08282883
vt 0.775299 0.349194
vt 0.825002 0.503258
vt 0.823929 0.406866
vt 0.77223 0.545008
vt 0.710587 0.31860203
vt 0.705541 0.575775
vt 0.63765 0.29775
vt 0.624768 0.591612
vt 0.538368 0.288719
vt 0.523458 0.604828
vt 0.439519 0.295267
vt 0.436277 0.610863
vt 0.360832 0.606424
vt 0.338574 0.30610502
vt 0.3137 0.595652
vt 0.271506 0.575003
vt 0.264418 0.31728202
vt 0.219413 0.53900504
vt 0.195809 0.334314
vt 0.178053 0.499771
vt 0.13101 0.40622902
vn 0.38360128 -0.19560003 0.90254676
vn 0.47438923 -0.18436383 0.86079323
vn 0.3138056 -0.13542838 0.9397794
vn 0.4370045 -0.20737351 0.8752276
vn 0.362644 -0.21762156 0.90616226
vn 0.3582796 -0.2184785 0.907691
vn 0.31066185 -0.22323495 0.9239347
vn 0.27972448 -0.21687122 0.93526524
vn 0.2657038 -0.21766073 0.9391621
vn 0.20794077 -0.2044503 0.9565359
vn 0.16960658 -0.20884927 0.96312803
vn 0.14492151 -0.19122447 0.9707889
vn 0.11292191 -0.19889891 0.97349256
vn 0.066968165 -0.21239218 0.9748871
vn 0.09412704 -0.20640971 0.97392774
vn 0.08218838 -0.21337706 0.9735067
vn 0.04271227 -0.22367574 0.9737273
vn 0.042080954 -0.22303203 0.9739024
vn 0.020410819 -0.22342946 0.9745063
vn -0.033988666 -0.21892428 0.9751497
vn -0.1357509 -0.22744541 0.9642823
g M_PupALL_L_A_Def_0
f 3/3/3 2/2/2 1/1/1
f 2/2/2 4/4/4 1/1/1
f 1/1/1 4/4/4 5/5/5
f 4/4/4 6/6/6 5/5/5
f 5/5/5 6/6/6 7/7/7
f 6/6/6 8/8/8 7/7/7
f 7/7/7 8/8/8 9/9/9
f 8/8/8 10/10/10 9/9/9
f 11/11/11 9/9/9 10/10/10
f 10/10/10 12/12/12 11/11/11
f 12/12/12 13/13/13 11/11/11
f 11/11/11 13/13/13 14/14/14
f 13/13/13 15/15/15 14/14/14
f 14/14/14 15/15/15 16/16/16
f 17/17/17 14/14/14 16/16/16
f 18/18/18 17/17/17 16/16/16
f 18/18/18 19/19/19 17/17/17
f 18/18/18 20/20/20 19/19/19
f 21/21/21 19/19/19 20/20/20
