g M_PupALL_R_A_Def
v -0.021587746 0.028836211 0.084600225
v -0.024222365 0.040707245 0.08780194
v -0.021292256 0.036122132 0.08689298
v -0.023967132 0.025083007 0.0831737
v -0.027640833 0.022967529 0.082833424
v -0.027704922 0.043042906 0.088185705
v -0.031106465 0.0215625 0.0825082
v -0.031518705 0.044312134 0.088134445
v -0.03599726 0.02082733 0.08206266
v -0.036700163 0.045792084 0.08745163
v -0.041812867 0.020864716 0.08131807
v -0.041526835 0.04671295 0.08626551
v -0.046390764 0.046153106 0.084771775
v -0.047399893 0.02244995 0.080226436
v -0.0517658 0.045306243 0.08279512
v -0.051276222 0.02388809 0.078918286
v -0.054792255 0.026006164 0.077790774
v -0.05615976 0.043972928 0.08071223
v -0.05751762 0.029856414 0.07714187
v -0.05615976 0.043972928 0.08071223
v -0.05915486 0.035612486 0.077493675
v -0.05978871 0.03995407 0.077896215
vt 0.802112 0.36914098
vt 0.755049 0.5812
vt 0.807391 0.49929398
vt 0.759608 0.302095
vt 0.693983 0.26430702
vt 0.692838 0.622923
vt 0.632075 0.23920798
vt 0.62471 0.645596
vt 0.544708 0.22607398
vt 0.532151 0.672033
vt 0.44082 0.22674203
vt 0.44593 0.688482
vt 0.359043 0.678482
vt 0.341017 0.25506002
vt 0.263026 0.663355
vt 0.271772 0.28074998
vt 0.208963 0.318586
vt 0.184534 0.639536
vt 0.160278 0.38736498
vt 0.184534 0.639536
vt 0.131031 0.49019098
vt 0.119709 0.567745
vn -0.12497503 -0.28412396 0.9506076
vn -0.06381661 -0.2621263 0.96292126
vn -0.16161023 -0.29025513 0.94320416
vn 0.04445177 -0.2830742 0.95806736
vn 0.023712471 -0.26391095 0.9642556
vn -0.08002226 -0.24647544 0.9658396
vn -0.037349768 -0.24512118 0.96877277
vn -0.14869781 -0.22341542 0.96331435
vn -0.104351014 -0.22262557 0.96930325
vn -0.22112098 -0.19601081 0.95534563
vn -0.18655077 -0.19349392 0.9632024
vn -0.2684028 -0.17822705 0.94667584
vn -0.2879311 -0.17241664 0.94200224
vn -0.27916673 -0.17304495 0.9445217
vn -0.34023842 -0.16938756 0.9249571
vn -0.37954667 -0.17317857 0.90881985
vn -0.40142965 -0.17355292 0.8992962
vn -0.38977313 -0.17572695 0.90398943
vn -0.45540062 -0.1768782 0.872539
vn -0.38977313 -0.17572695 0.90398943
vn -0.4489964 -0.17636828 0.87595457
vn -0.4956565 -0.15165399 0.85517585
g M_PupALL_R_A_Def_0
f 3/3/3 2/2/2 1/1/1
f 4/4/4 1/1/1 2/2/2
f 5/5/5 4/4/4 2/2/2
f 2/2/2 6/6/6 5/5/5
f 5/5/5 6/6/6 7/7/7
f 8/8/8 7/7/7 6/6/6
f 7/7/7 8/8/8 9/9/9
f 10/10/10 9/9/9 8/8/8
f 9/9/9 10/10/10 11/11/11
f 12/12/12 11/11/11 10/10/10
f 13/13/13 11/11/11 12/12/12
f 14/14/14 11/11/11 13/13/13
f 15/15/15 14/14/14 13/13/13
f 16/16/16 14/14/14 15/15/15
f 17/17/17 16/16/16 15/15/15
f 18/18/18 17/17/17 15/15/15
f 19/19/19 17/17/17 18/18/18
f 21/21/21 19/19/19 20/20/20
f 20/20/20 22/22/22 21/21/21
