g M_PupALL_L_A_Def
v 0.02202816 0.03209259 0.08589537
v 0.02480951 0.01879013 0.083898164
v 0.022099053 0.021379853 0.084546104
v 0.025564078 0.036394194 0.08647721
v 0.02202816 0.03209259 0.08589537
v 0.0277698 0.018377837 0.0837065
v 0.028443236 0.038082734 0.086758934
v 0.025564078 0.036394194 0.08647721
v 0.031967398 0.017950287 0.08317767
v 0.03276893 0.03986862 0.08664976
v 0.03716251 0.017338714 0.08205797
v 0.03838184 0.04078293 0.08590153
v 0.04406141 0.041057434 0.084813066
v 0.042330112 0.017137146 0.08064576
v 0.04620258 0.017765654 0.0793827
v 0.04850352 0.040317077 0.08313148
v 0.04872046 0.01831726 0.078840956
v 0.05267069 0.039617766 0.08110763
v 0.05044961 0.019828033 0.07802711
v 0.052717865 0.02289093 0.077579856
v 0.05579315 0.03900711 0.07934515
v 0.055953134 0.027941741 0.07694786
v 0.06006459 0.036341704 0.07533239
vt 0.236668 0.54055
vt 0.284055 0.31156498
vt 0.235767 0.366293
vt 0.297172 0.61254704
vt 0.236668 0.54055
vt 0.334681 0.302258
vt 0.34636 0.64151204
vt 0.297172 0.61254704
vt 0.406403 0.29407102
vt 0.420271 0.67242396
vt 0.495243 0.28577602
vt 0.516153 0.688065
vt 0.613173 0.692755
vt 0.583598 0.28414297
vt 0.649749 0.294878
vt 0.689054 0.680107
vt 0.69276 0.30430198
vt 0.760238 0.66816103
vt 0.722297 0.330109
vt 0.761044 0.38243097
vt 0.813577 0.65773
vt 0.81631 0.46871
vt 0.886543 0.6122
vn 0.018569063 -0.14465031 0.9893086
vn 0.05070317 -0.1432184 0.98839146
vn 0.11772442 -0.12332611 0.9853586
vn 0.00084115454 -0.15075909 0.98857015
vn 0.018569063 -0.14465031 0.9893086
vn 0.08289671 -0.15286131 0.9847647
vn 0.06917429 -0.15751414 0.985091
vn 0.00084115454 -0.15075909 0.98857015
vn 0.1568217 -0.15891987 0.97475713
vn 0.13829654 -0.1644421 0.9766436
vn 0.2162947 -0.17253508 0.9609622
vn 0.17699853 -0.16818853 0.9697341
vn 0.25404158 -0.17802909 0.95066744
vn 0.28491804 -0.18449482 0.94062924
vn 0.30500266 -0.18491347 0.93422717
vn 0.3552103 -0.18052618 0.9171891
vn 0.33071804 -0.18419833 0.925579
vn 0.4247801 -0.17517406 0.8881869
vn 0.5209959 -0.18807566 0.8325808
vn 0.43224847 -0.18488638 0.8825975
vn 0.51848114 -0.17405611 0.8371869
vn 0.500623 -0.17637308 0.8475076
vn 0.62233 -0.1571325 0.76682127
g M_PupALL_L_A_Def_0
f 3/3/3 2/2/2 1/1/1
f 5/5/5 2/2/2 4/4/4
f 6/6/6 4/4/4 2/2/2
f 8/8/8 6/6/6 7/7/7
f 9/9/9 7/7/7 6/6/6
f 10/10/10 7/7/7 9/9/9
f 9/9/9 11/11/11 10/10/10
f 12/12/12 10/10/10 11/11/11
f 11/11/11 13/13/13 12/12/12
f 11/11/11 14/14/14 13/13/13
f 14/14/14 15/15/15 13/13/13
f 16/16/16 13/13/13 15/15/15
f 16/16/16 15/15/15 17/17/17
f 18/18/18 16/16/16 17/17/17
f 19/19/19 18/18/18 17/17/17
f 19/19/19 20/20/20 18/18/18
f 21/21/21 18/18/18 20/20/20
f 20/20/20 22/22/22 21/21/21
f 23/23/23 21/21/21 22/22/22
