g M_PupALL_R_A_Def
v -0.056500204 0.042722166 0.078361794
v -0.05717133 0.031256713 0.07525973
v -0.06008272 0.038214415 0.0742538
v -0.053940628 0.027618255 0.07649603
v -0.04790453 0.024484864 0.079054125
v -0.051665258 0.044084776 0.08102493
v -0.04644449 0.044499967 0.083134554
v -0.043437824 0.02302765 0.080378056
v -0.04156517 0.043941498 0.084179625
v -0.03683729 0.02284729 0.08148866
v -0.03619628 0.043281708 0.08512379
v -0.030409358 0.041907195 0.085282885
v -0.031797007 0.023560485 0.08176854
v -0.02664719 0.040273283 0.08519258
v -0.026806861 0.025028685 0.08205749
v -0.02212748 0.03710449 0.08457909
v -0.02268591 0.025813445 0.08254195
vt 0.218771 0.594841
vt 0.210466 0.39956897
vt 0.161226 0.517241
vt 0.265105 0.338032
vt 0.367192 0.285038
vt 0.300837 0.617777
vt 0.391885 0.62354696
vt 0.442735 0.26039302
vt 0.474407 0.614101
vt 0.554368 0.257343
vt 0.565209 0.602943
vt 0.663081 0.579697
vt 0.639612 0.269405
vt 0.72671 0.552063
vt 0.724009 0.294235
vt 0.80315 0.49847
vt 0.793705 0.307508
vn -0.47749487 -0.17472391 0.86108667
vn -0.55890644 -0.18592694 0.808118
vn -0.6476886 -0.16342922 0.744171
vn -0.4729878 -0.18652518 0.86109865
vn -0.37492812 -0.17068607 0.9112053
vn -0.39773303 -0.16702935 0.90216935
vn -0.29635432 -0.15903972 0.9417433
vn -0.22585094 -0.16295233 0.9604363
vn -0.20345633 -0.16031536 0.9658698
vn -0.12031259 -0.1704753 0.9779894
vn -0.13275714 -0.16955425 0.97653824
vn -0.061275277 -0.17713776 0.98227674
vn -0.020881146 -0.19044305 0.9814761
vn -0.03478265 -0.19127753 0.98091954
vn -0.017132306 -0.19540368 0.98057324
vn -0.015824823 -0.19849984 0.9799732
vn -0.08243968 -0.17299952 0.9814657
g M_PupALL_R_A_Def_0
f 3/3/3 2/2/2 1/1/1
f 2/2/2 4/4/4 1/1/1
f 4/4/4 5/5/5 1/1/1
f 6/6/6 1/1/1 5/5/5
f 6/6/6 5/5/5 7/7/7
f 8/8/8 7/7/7 5/5/5
f 7/7/7 8/8/8 9/9/9
f 8/8/8 10/10/10 9/9/9
f 11/11/11 9/9/9 10/10/10
f 11/11/11 10/10/10 12/12/12
f 13/13/13 12/12/12 10/10/10
f 12/12/12 13/13/13 14/14/14
f 13/13/13 15/15/15 14/14/14
f 16/16/16 14/14/14 15/15/15
f 15/15/15 17/17/17 16/16/16
