g M_PupALL_L_A_Def
v 0.02110898 0.029790038 0.08078967
v 0.021136506 0.040006865 0.08256593
v 0.022956189 0.026179045 0.08004676
v 0.02359693 0.04451248 0.08391199
v 0.02651465 0.024367064 0.079596944
v 0.027265217 0.048743438 0.0845885
v 0.032138117 0.022763213 0.0792311
v 0.03177645 0.051615752 0.0850247
v 0.03736385 0.021442719 0.07826147
v 0.037178706 0.0529245 0.08467187
v 0.042578194 0.020522155 0.07684117
v 0.0422258 0.053700864 0.08311862
v 0.04760269 0.020930022 0.07520755
v 0.048153747 0.053886414 0.08048488
v 0.05239415 0.05055389 0.077804014
v 0.052629795 0.023849182 0.07320238
v 0.055923745 0.04556961 0.0750159
v 0.055236205 0.026829986 0.07186404
v 0.057627685 0.03927063 0.072665505
v 0.05816629 0.031433564 0.070087686
vt 0.188411 0.354416
vt 0.18891 0.53970504
vt 0.221911 0.288929
vt 0.233532 0.621418
vt 0.286446 0.25606698
vt 0.300058 0.69814897
vt 0.388432 0.22697997
vt 0.381873 0.75023997
vt 0.483204 0.20303202
vt 0.479846 0.773975
vt 0.577769 0.186337
vt 0.571378 0.788055
vt 0.668892 0.193735
vt 0.678886 0.79142
vt 0.755788 0.730982
vt 0.760062 0.24667501
vt 0.8198 0.640589
vt 0.807331 0.30073398
vt 0.850702 0.526354
vt 0.86047 0.38422197
vn 0.0609682 -0.17112796 0.98336065
vn -0.16114889 -0.19737516 0.9669923
vn 0.011314871 -0.2050792 0.9786799
vn 0.03222255 -0.20217046 0.97882015
vn 0.0107834395 -0.20201346 0.9793234
vn 0.032047585 -0.19772945 0.97973263
vn 0.084853284 -0.19648194 0.976829
vn 0.08790634 -0.19718367 0.97641754
vn 0.18749082 -0.19375621 0.96296716
vn 0.22035342 -0.18611173 0.9575003
vn 0.28098163 -0.1812477 0.9424429
vn 0.36008802 -0.16243672 0.9186681
vn 0.37099493 -0.1625081 0.91430515
vn 0.41639325 -0.15054141 0.89663476
vn 0.4478841 -0.14837635 0.881694
vn 0.45889094 -0.14949805 0.875825
vn 0.48636413 -0.14604716 0.8614639
vn 0.598554 -0.1584854 0.78524876
vn 0.5646678 -0.16069862 0.80952215
vn 0.7003488 -0.17914253 0.6909556
g M_PupALL_L_A_Def_0
f 3/3/3 2/2/2 1/1/1
f 2/2/2 3/3/3 4/4/4
f 3/3/3 5/5/5 4/4/4
f 4/4/4 5/5/5 6/6/6
f 5/5/5 7/7/7 6/6/6
f 8/8/8 6/6/6 7/7/7
f 7/7/7 9/9/9 8/8/8
f 8/8/8 9/9/9 10/10/10
f 9/9/9 11/11/11 10/10/10
f 12/12/12 10/10/10 11/11/11
f 11/11/11 13/13/13 12/12/12
f 14/14/14 12/12/12 13/13/13
f 14/14/14 13/13/13 15/15/15
f 16/16/16 15/15/15 13/13/13
f 17/17/17 15/15/15 16/16/16
f 16/16/16 18/18/18 17/17/17
f 19/19/19 17/17/17 18/18/18
f 20/20/20 19/19/19 18/18/18
