g M_PupALL_L_A_Def
v 0.05260398 0.035498045 0.07833019
v 0.051712148 0.045192108 0.08099001
v 0.055121284 0.040826872 0.07773462
v 0.051048413 0.033564758 0.078687645
v 0.048266582 0.030291136 0.079575025
v 0.049097948 0.04702087 0.08270578
v 0.046388976 0.048365477 0.08449694
v 0.045747697 0.029118346 0.08048559
v 0.043158773 0.027901152 0.08103597
v 0.042941455 0.04911087 0.08595655
v 0.039650217 0.026477661 0.08176899
v 0.038433876 0.049266204 0.0871332
v 0.03486198 0.02579193 0.082619675
v 0.034203015 0.048805237 0.08753673
v 0.029444942 0.026064452 0.08347852
v 0.02981989 0.048034057 0.0877637
v 0.025602153 0.027071532 0.08398783
v 0.026151972 0.047266997 0.087853536
v 0.02220617 0.027716368 0.08432613
v 0.021768102 0.04401474 0.08743025
v 0.019023104 0.029521484 0.084809236
v 0.017797865 0.04027542 0.08681012
v 0.014409153 0.032711487 0.08542442
vt 0.774952 0.39444202
vt 0.759794 0.559214
vt 0.817739 0.48501801
vt 0.748512 0.36158198
vt 0.701229 0.30593902
vt 0.715359 0.590298
vt 0.669315 0.613153
vt 0.658415 0.28600502
vt 0.614433 0.265316
vt 0.610716 0.625822
vt 0.555419 0.24115801
vt 0.534347 0.628475
vt 0.475512 0.22958201
vt 0.463549 0.620703
vt 0.387799 0.233675
vt 0.390023 0.60764897
vt 0.328951 0.249619
vt 0.327686 0.594612
vt 0.275297 0.259512
vt 0.25932 0.538893
vt 0.225193 0.28941298
vt 0.20011 0.473988
vt 0.146432 0.343777
vn 0.4854572 -0.18951188 0.8534732
vn 0.46607938 -0.18481025 0.8652255
vn 0.5562565 -0.17190367 0.81303614
vn 0.49232173 -0.19602838 0.84805197
vn 0.43329015 -0.19663307 0.8795425
vn 0.46657428 -0.18504277 0.8649091
vn 0.3791473 -0.2025827 0.9028884
vn 0.34093234 -0.20267789 0.9179797
vn 0.28916878 -0.21136265 0.9336527
vn 0.27999473 -0.21023907 0.93669766
vn 0.22789687 -0.21410166 0.94985443
vn 0.18375507 -0.20844726 0.9606164
vn 0.16631953 -0.20790714 0.9639048
vn 0.10614369 -0.19964649 0.974102
vn 0.11709269 -0.1985075 0.97307974
vn 0.077459365 -0.19123903 0.9784823
vn 0.07169632 -0.19089407 0.97898877
vn 0.057926387 -0.18835351 0.9803915
vn 0.05468492 -0.18793337 0.9806583
vn 0.039230183 -0.18510519 0.9819354
vn 0.031239292 -0.18449369 0.9823371
vn 0.014691799 -0.18128352 0.9833211
vn 0.0050063482 -0.18236752 0.9832177
g M_PupALL_L_A_Def_0
f 3/3/3 2/2/2 1/1/1
f 2/2/2 4/4/4 1/1/1
f 5/5/5 4/4/4 2/2/2
f 2/2/2 6/6/6 5/5/5
f 6/6/6 7/7/7 5/5/5
f 8/8/8 5/5/5 7/7/7
f 8/8/8 7/7/7 9/9/9
f 7/7/7 10/10/10 9/9/9
f 11/11/11 9/9/9 10/10/10
f 10/10/10 12/12/12 11/11/11
f 13/13/13 11/11/11 12/12/12
f 12/12/12 14/14/14 13/13/13
f 13/13/13 14/14/14 15/15/15
f 16/16/16 15/15/15 14/14/14
f 15/15/15 16/16/16 17/17/17
f 18/18/18 17/17/17 16/16/16
f 19/19/19 17/17/17 18/18/18
f 18/18/18 20/20/20 19/19/19
f 21/21/21 19/19/19 20/20/20
f 22/22/22 21/21/21 20/20/20
f 22/22/22 23/23/23 21/21/21
