g M_PupALL_L_A_Def
v 0.01801754 0.03943985 0.08737183
v 0.019197537 0.029529724 0.08602776
v 0.016052151 0.034519196 0.08652364
v 0.022465555 0.04407211 0.08810943
v 0.022416467 0.02631134 0.08562811
v 0.025864858 0.045747373 0.08834346
v 0.025462998 0.024713134 0.08529036
v 0.029697424 0.04702499 0.08848737
v 0.030362396 0.023681946 0.08451162
v 0.034034643 0.047467954 0.088152446
v 0.035426155 0.02351715 0.083655834
v 0.039514348 0.04762146 0.08720007
v 0.039674275 0.02350662 0.08261862
v 0.043994952 0.046501618 0.08597051
v 0.044092543 0.024198456 0.081434935
v 0.047905803 0.04513565 0.084111005
v 0.047851373 0.025865935 0.08027109
v 0.05079685 0.028039398 0.079020955
v 0.05125354 0.04164551 0.08154966
v 0.052985623 0.03039917 0.07819103
v 0.053185727 0.03942337 0.07969206
v 0.054867294 0.033637084 0.077386074
vt 0.23089 0.541945
vt 0.251047 0.372658
vt 0.197317 0.457888
vt 0.306871 0.621073
vt 0.306033 0.31768
vt 0.364939 0.649691
vt 0.358074 0.290379
vt 0.430408 0.671515
vt 0.441767 0.27276403
vt 0.504497 0.67908096
vt 0.528267 0.26994902
vt 0.598102 0.68170404
vt 0.600834 0.26977003
vt 0.67464 0.662575
vt 0.676307 0.28158802
vt 0.741446 0.63924
vt 0.740516 0.310072
vt 0.790832 0.347198
vt 0.798633 0.57962
vt 0.828221 0.38750798
vt 0.831639 0.541662
vt 0.860364 0.44282
vn -0.02651449 -0.1374484 0.99015397
vn -0.020122522 -0.13845925 0.9901636
vn -0.06997792 -0.14224435 0.9873548
vn -0.0047466434 -0.13812262 0.9904038
vn 0.01953487 -0.14240107 0.9896163
vn 0.009085186 -0.14245439 0.9897597
vn 0.09284773 -0.1574486 0.9831527
vn 0.070095696 -0.1582447 0.98490876
vn 0.13915026 -0.16857828 0.9758169
vn 0.14227779 -0.16945502 0.9752138
vn 0.19139758 -0.17613924 0.9655786
vn 0.19482793 -0.17605083 0.9649083
vn 0.25254107 -0.1843566 0.9498609
vn 0.27603552 -0.18288323 0.9435879
vn 0.31261212 -0.18765926 0.9311594
vn 0.39074796 -0.18212721 0.9023003
vn 0.4046059 -0.17981774 0.896638
vn 0.49162868 -0.17243014 0.85356265
vn 0.48812035 -0.17339055 0.85537964
vn 0.52440333 -0.16832511 0.83466625
vn 0.5936271 -0.1448346 0.79159945
vn 0.589734 -0.14521849 0.794434
g M_PupALL_L_A_Def_0
f 3/3/3 2/2/2 1/1/1
f 1/1/1 2/2/2 4/4/4
f 2/2/2 5/5/5 4/4/4
f 4/4/4 5/5/5 6/6/6
f 7/7/7 6/6/6 5/5/5
f 6/6/6 7/7/7 8/8/8
f 9/9/9 8/8/8 7/7/7
f 8/8/8 9/9/9 10/10/10
f 11/11/11 10/10/10 9/9/9
f 12/12/12 10/10/10 11/11/11
f 11/11/11 13/13/13 12/12/12
f 14/14/14 12/12/12 13/13/13
f 15/15/15 14/14/14 13/13/13
f 16/16/16 14/14/14 15/15/15
f 17/17/17 16/16/16 15/15/15
f 17/17/17 18/18/18 16/16/16
f 19/19/19 16/16/16 18/18/18
f 18/18/18 20/20/20 19/19/19
f 21/21/21 19/19/19 20/20/20
f 22/22/22 21/21/21 20/20/20
