g M_PupALL_R_A_Def
v -0.019824179 0.03708557 0.08504521
v -0.0194955 0.031831052 0.084100634
v -0.022211103 0.040216215 0.08548873
v -0.021299448 0.027666625 0.083601594
v -0.022211103 0.040216215 0.08548873
v -0.025541076 0.04226898 0.0856664
v -0.023996081 0.025581054 0.083302595
v -0.027654847 0.024711609 0.08297198
v -0.029484067 0.04383621 0.08573203
v -0.031791605 0.024489287 0.08267032
v -0.032960076 0.04470108 0.08535509
v -0.037020795 0.04512329 0.08512109
v -0.036475196 0.024227599 0.08198826
v -0.041514702 0.044877164 0.084260985
v -0.041550897 0.024556732 0.08118159
v -0.046630844 0.043796387 0.08268175
v -0.04622766 0.02634613 0.08008234
v -0.049372945 0.042943265 0.08138387
v -0.050082978 0.02932205 0.07876787
v -0.051940553 0.031838987 0.078281276
v -0.052122194 0.041641235 0.079860836
v -0.054009255 0.03806091 0.07790287
vt 0.769665 0.499214
vt 0.775224 0.410343
vt 0.729296 0.55216
vt 0.744714 0.33991098
vt 0.729296 0.55216
vt 0.672977 0.58687997
vt 0.699107 0.30463803
vt 0.637227 0.289936
vt 0.606291 0.61338
vt 0.567264 0.286175
vt 0.547502 0.628012
vt 0.478825 0.635149
vt 0.488052 0.28175402
vt 0.402821 0.630987
vt 0.402209 0.28731298
vt 0.316294 0.612709
vt 0.323112 0.31757897
vt 0.269917 0.598278
vt 0.257909 0.367908
vt 0.226493 0.41047502
vt 0.22342 0.57626
vt 0.191505 0.51570296
vn -0.053462543 -0.17991437 0.98222846
vn 0.054801043 -0.1457736 0.9877989
vn -0.034750633 -0.15218793 0.98774046
vn 0.0026180958 -0.14162314 0.9899172
vn -0.034750633 -0.15218793 0.98774046
vn -0.040572923 -0.14698862 0.9883057
vn -0.038263954 -0.14361735 0.98889333
vn -0.059136156 -0.14715695 0.9873438
vn -0.097867966 -0.14241335 0.98495704
vn -0.10295902 -0.1483496 0.9835608
vn -0.0982795 -0.13661847 0.98573655
vn -0.13435206 -0.14497305 0.9802715
vn -0.15056902 -0.14912388 0.97728765
vn -0.21758391 -0.14733787 0.9648568
vn -0.20923291 -0.14745851 0.96668375
vn -0.2974937 -0.14473785 0.94368875
vn -0.31576702 -0.14841612 0.93715733
vn -0.39920068 -0.14676817 0.9050403
vn -0.42274243 -0.14962336 0.8938131
vn -0.44762626 -0.14788204 0.88190794
vn -0.4502915 -0.15017626 0.88016176
vn -0.5715294 -0.14085963 0.8084013
g M_PupALL_R_A_Def_0
f 3/3/3 2/2/2 1/1/1
f 2/2/2 5/5/5 4/4/4
f 5/5/5 6/6/6 4/4/4
f 7/7/7 4/4/4 6/6/6
f 7/7/7 6/6/6 8/8/8
f 6/6/6 9/9/9 8/8/8
f 10/10/10 8/8/8 9/9/9
f 11/11/11 10/10/10 9/9/9
f 12/12/12 10/10/10 11/11/11
f 10/10/10 12/12/12 13/13/13
f 14/14/14 13/13/13 12/12/12
f 15/15/15 13/13/13 14/14/14
f 16/16/16 15/15/15 14/14/14
f 17/17/17 15/15/15 16/16/16
f 18/18/18 17/17/17 16/16/16
f 19/19/19 17/17/17 18/18/18
f 20/20/20 19/19/19 18/18/18
f 21/21/21 20/20/20 18/18/18
f 22/22/22 20/20/20 21/21/21
