g M_PupALL_L_A_Def
v 0.06379894 0.03194992 0.07511528
v 0.063658066 0.045824125 0.07814465
v 0.06595041 0.04018753 0.075408064
v 0.061231688 0.026636353 0.07595322
v 0.059927944 0.048858184 0.08096319
v 0.05799274 0.023412323 0.07715791
v 0.052515313 0.021067962 0.07933019
v 0.054545555 0.051374815 0.083907984
v 0.049008895 0.052725982 0.085913636
v 0.04720559 0.02006607 0.08094923
v 0.042196415 0.053527374 0.08754236
v 0.039978478 0.019909667 0.08258335
v 0.03601981 0.053256836 0.0886351
v 0.033549726 0.02031433 0.08378679
v 0.029002722 0.021201782 0.08455099
v 0.030690793 0.052250367 0.0888326
v 0.025055299 0.02410141 0.08514731
v 0.026101641 0.050075836 0.08865509
v 0.022184458 0.028501129 0.08570365
v 0.022870263 0.046362303 0.08804533
v 0.020783216 0.040267486 0.08699758
v 0.019615456 0.03476181 0.08634316
vt 0.817817 0.394001
vt 0.815735 0.599087
vt 0.84962 0.515766
vt 0.779868 0.31545597
vt 0.760597 0.643934
vt 0.731991 0.26779902
vt 0.651025 0.233145
vt 0.681035 0.681135
vt 0.599193 0.701107
vt 0.572537 0.21833599
vt 0.498493 0.71295404
vt 0.465708 0.21602398
vt 0.407191 0.708956
vt 0.370679 0.22200602
vt 0.303466 0.23512298
vt 0.328419 0.69407797
vt 0.245116 0.27798498
vt 0.260583 0.661934
vt 0.20268 0.34302098
vt 0.212817 0.60704
vt 0.181967 0.516949
vt 0.164705 0.435566
vn 0.5935931 -0.1659141 0.7874768
vn 0.51466787 -0.16194533 0.84195644
vn 0.5503447 -0.17277122 0.8168664
vn 0.4959052 -0.16504326 0.85254836
vn 0.43308267 -0.16301957 0.8864897
vn 0.43587503 -0.16544619 0.8846697
vn 0.3540953 -0.16196862 0.92107683
vn 0.34726867 -0.16276103 0.9235331
vn 0.24742152 -0.15981643 0.9556366
vn 0.25722006 -0.15806131 0.9533387
vn 0.1968969 -0.15666372 0.9678265
vn 0.19859341 -0.15633164 0.96753347
vn 0.13727552 -0.15011515 0.9790918
vn 0.15750471 -0.1553385 0.97522414
vn 0.10194122 -0.14846848 0.9836489
vn 0.052704785 -0.13842484 0.98896956
vn 0.037178442 -0.13793005 0.9897439
vn 0.017287206 -0.13410276 0.9908166
vn -0.01672585 -0.13235837 0.9910608
vn -0.045580145 -0.12813623 0.9907086
vn -0.12445088 -0.123092815 0.98456085
vn -0.026667947 -0.11240909 0.9933041
g M_PupALL_L_A_Def_0
f 3/3/3 2/2/2 1/1/1
f 1/1/1 2/2/2 4/4/4
f 2/2/2 5/5/5 4/4/4
f 6/6/6 4/4/4 5/5/5
f 6/6/6 5/5/5 7/7/7
f 8/8/8 7/7/7 5/5/5
f 9/9/9 7/7/7 8/8/8
f 10/10/10 7/7/7 9/9/9
f 9/9/9 11/11/11 10/10/10
f 12/12/12 10/10/10 11/11/11
f 11/11/11 13/13/13 12/12/12
f 12/12/12 13/13/13 14/14/14
f 14/14/14 13/13/13 15/15/15
f 16/16/16 15/15/15 13/13/13
f 15/15/15 16/16/16 17/17/17
f 18/18/18 17/17/17 16/16/16
f 17/17/17 18/18/18 19/19/19
f 20/20/20 19/19/19 18/18/18
f 21/21/21 19/19/19 20/20/20
f 22/22/22 19/19/19 21/21/21
