g M_PupALL_R_A_Def
v -0.019162178 0.03778671 0.084853835
v -0.017550439 0.030333098 0.08394255
v -0.020919913 0.025315093 0.08264791
v -0.022237856 0.04104187 0.08561407
v -0.023623705 0.024266815 0.08239933
v -0.026101278 0.042637635 0.08583794
v -0.026259545 0.023752136 0.082122326
v -0.030594608 0.043519437 0.08563585
v -0.03043203 0.023202209 0.08138571
v -0.035171922 0.043897398 0.08472374
v -0.034757383 0.022824248 0.080561176
v -0.039616507 0.022523956 0.079378605
v -0.040583715 0.043740083 0.08311125
v -0.043955192 0.02321167 0.07844831
v -0.043681946 0.043305814 0.08191236
v -0.047405727 0.023712158 0.077357
v -0.04715991 0.042025298 0.08033491
v -0.04984493 0.025795745 0.07659827
v -0.05044519 0.039608918 0.07839933
v -0.052895766 0.029538726 0.074872956
v -0.053422432 0.035323028 0.07537711
vt 0.779842 0.540674
vt 0.809883 0.401743
vt 0.747079 0.30821103
vt 0.722512 0.60134804
vt 0.696681 0.28867102
vt 0.650501 0.631092
vt 0.647552 0.27907902
vt 0.566748 0.647529
vt 0.56978 0.26882797
vt 0.48143 0.65457404
vt 0.489156 0.261783
vt 0.398585 0.25618702
vt 0.380558 0.651641
vt 0.317715 0.269004
vt 0.322808 0.643547
vt 0.253399 0.278333
vt 0.257981 0.619679
vt 0.207933 0.31717002
vt 0.196745 0.574638
vt 0.142034 0.386936
vt 0.132218 0.494752
vn 0.030067554 -0.17820089 0.98353463
vn -0.14939378 -0.15176247 0.9770618
vn -0.0299469 -0.18161254 0.98291403
vn -0.0072233835 -0.18563743 0.98259175
vn -0.04499974 -0.18981484 0.9807881
vn -0.06208582 -0.19022621 0.9797752
vn -0.11426602 -0.19920884 0.9732723
vn -0.15720712 -0.19863746 0.9673826
vn -0.16018853 -0.19898462 0.966822
vn -0.2390967 -0.18985654 0.95225376
vn -0.19736128 -0.1937081 0.96100235
vn -0.2320914 -0.18528011 0.95488477
vn -0.29023308 -0.1724606 0.94128746
vn -0.27312526 -0.16891241 0.94703275
vn -0.34528792 -0.15191543 0.9261198
vn -0.34580052 -0.15177847 0.925951
vn -0.3795644 -0.14257354 0.9141136
vn -0.45910272 -0.13853142 0.87751573
vn -0.46335536 -0.13403782 0.875977
vn -0.6041264 -0.12839492 0.78647697
vn -0.61346596 -0.12383573 0.7799514
g M_PupALL_R_A_Def_0
f 3/3/3 2/2/2 1/1/1
f 1/1/1 4/4/4 3/3/3
f 5/5/5 3/3/3 4/4/4
f 4/4/4 6/6/6 5/5/5
f 5/5/5 6/6/6 7/7/7
f 6/6/6 8/8/8 7/7/7
f 9/9/9 7/7/7 8/8/8
f 8/8/8 10/10/10 9/9/9
f 11/11/11 9/9/9 10/10/10
f 11/11/11 10/10/10 12/12/12
f 13/13/13 12/12/12 10/10/10
f 12/12/12 13/13/13 14/14/14
f 15/15/15 14/14/14 13/13/13
f 14/14/14 15/15/15 16/16/16
f 17/17/17 16/16/16 15/15/15
f 18/18/18 16/16/16 17/17/17
f 19/19/19 18/18/18 17/17/17
f 18/18/18 19/19/19 20/20/20
f 21/21/21 20/20/20 19/19/19
