g M_PupALL_R_A_Def
v -0.062733054 0.04470703 0.075729616
v -0.061301574 0.02855545 0.07461626
v -0.06420725 0.036413115 0.072504476
v -0.05817251 0.049356688 0.079052486
v -0.058481388 0.024155883 0.075635396
v -0.053806763 0.020786438 0.07727112
v -0.053829014 0.052696686 0.0813299
v -0.04862894 0.019065093 0.079009846
v -0.049474888 0.05423477 0.082981974
v -0.04355608 0.018985748 0.08049683
v -0.04392724 0.054750975 0.084522456
v -0.039680097 0.018966064 0.081250094
v -0.039991174 0.054807585 0.08520931
v -0.03593179 0.054124143 0.08568128
v -0.034524575 0.020081025 0.081952706
v -0.02980935 0.021705322 0.08256021
v -0.030091766 0.052849576 0.08598654
v -0.025689125 0.022882232 0.082750015
v -0.026194265 0.050223082 0.08560407
v -0.02165148 0.029481964 0.0832934
v -0.021208227 0.04489914 0.084811665
vt 0.197037 0.598656
vt 0.216574 0.378218
vt 0.176917 0.48545998
vt 0.259279 0.662115
vt 0.255064 0.31817198
vt 0.318863 0.27218598
vt 0.31856 0.707699
vt 0.389531 0.24869299
vt 0.377985 0.728691
vt 0.458765 0.24760997
vt 0.4537 0.735735
vt 0.511665 0.24734098
vt 0.507419 0.736507
vt 0.562822 0.72718
vt 0.582028 0.26255798
vt 0.646381 0.28472698
vt 0.642527 0.709785
vt 0.702614 0.300789
vt 0.69572 0.673939
vt 0.75772 0.390863
vt 0.76377 0.601278
vn -0.5403211 -0.10543313 0.8348275
vn -0.5189841 -0.11134126 0.84750134
vn -0.7637001 -0.1115166 0.6358664
vn -0.4123172 -0.11475742 0.90378386
vn -0.41714498 -0.11709388 0.9012652
vn -0.36585805 -0.11825357 0.9231273
vn -0.34142599 -0.11508148 0.93283683
vn -0.31022984 -0.115996666 0.94355834
vn -0.28031352 -0.112177424 0.9533313
vn -0.24091506 -0.11314289 0.9639287
vn -0.2196208 -0.11044125 0.96931386
vn -0.14912823 -0.112163976 0.9824357
vn -0.15183347 -0.10982552 0.9822856
vn -0.105299816 -0.11014395 0.98832196
vn -0.10170956 -0.11246303 0.98843676
vn -0.0622506 -0.11108172 0.99185973
vn -0.052283883 -0.10849973 0.9927207
vn -0.0019335668 -0.10784527 0.9941658
vn 0.0319161 -0.1027014 0.9942001
vn 0.035919055 -0.102875315 0.9940455
vn 0.05184328 -0.099349104 0.9937012
g M_PupALL_R_A_Def_0
f 3/3/3 2/2/2 1/1/1
f 1/1/1 2/2/2 4/4/4
f 5/5/5 4/4/4 2/2/2
f 5/5/5 6/6/6 4/4/4
f 4/4/4 6/6/6 7/7/7
f 6/6/6 8/8/8 7/7/7
f 7/7/7 8/8/8 9/9/9
f 9/9/9 8/8/8 10/10/10
f 9/9/9 10/10/10 11/11/11
f 12/12/12 11/11/11 10/10/10
f 12/12/12 13/13/13 11/11/11
f 13/13/13 12/12/12 14/14/14
f 15/15/15 14/14/14 12/12/12
f 15/15/15 16/16/16 14/14/14
f 17/17/17 14/14/14 16/16/16
f 16/16/16 18/18/18 17/17/17
f 19/19/19 17/17/17 18/18/18
f 18/18/18 20/20/20 19/19/19
f 21/21/21 19/19/19 20/20/20
