g M_PupALL_L_A_Def
v 0.016338438 0.024366455 0.08453488
v 0.015551483 0.033393096 0.08554634
v 0.017570732 0.035891876 0.08607076
v 0.021232402 0.021480255 0.08417144
v 0.02209864 0.040291138 0.08637855
v 0.025841808 0.02006958 0.083571985
v 0.026773753 0.04204132 0.08638689
v 0.03206236 0.042665098 0.08601813
v 0.03120436 0.019543609 0.083001986
v 0.03704766 0.04272949 0.085060865
v 0.036857646 0.019577635 0.08176189
v 0.0415338 0.04252075 0.08380669
v 0.04278691 0.021253662 0.08004376
v 0.044998758 0.04093628 0.08231786
v 0.046822686 0.023205413 0.07810399
v 0.04970394 0.03881424 0.07970701
v 0.04973521 0.02643036 0.07652499
v 0.05239822 0.03594925 0.07643288
vt 0.164576 0.32897502
vt 0.150236 0.49345797
vt 0.18703 0.538991
vt 0.253753 0.276384
vt 0.269538 0.619153
vt 0.337745 0.250677
vt 0.354727 0.65104604
vt 0.451096 0.662412
vt 0.435462 0.24109298
vt 0.541938 0.663586
vt 0.538475 0.24171299
vt 0.623684 0.659781
vt 0.646518 0.272254
vt 0.686822 0.63090897
vt 0.720058 0.307818
vt 0.772559 0.59224296
vt 0.773129 0.366583
vt 0.821655 0.540035
vn -0.0073126396 -0.13132058 0.99131304
vn -0.10784223 -0.119985566 0.986901
vn 0.03358136 -0.12010146 0.99219346
vn 0.06786964 -0.122459546 0.9901502
vn 0.05032396 -0.12576202 0.9907832
vn 0.08806082 -0.1282217 0.98782814
vn 0.070165545 -0.12969029 0.9890689
vn 0.14008887 -0.13247162 0.98123723
vn 0.15397468 -0.13590863 0.9786831
vn 0.22415873 -0.13653512 0.96494097
vn 0.25637123 -0.14285496 0.95596355
vn 0.28954905 -0.14163518 0.946626
vn 0.36444724 -0.14980061 0.91909623
vn 0.37660483 -0.15438657 0.9134186
vn 0.5012685 -0.16241188 0.84991306
vn 0.47826344 -0.17386726 0.8608334
vn 0.6316097 -0.19144474 0.7512777
vn 0.6751921 -0.18197322 0.7148436
g M_PupALL_L_A_Def_0
f 3/3/3 2/2/2 1/1/1
f 4/4/4 3/3/3 1/1/1
f 3/3/3 4/4/4 5/5/5
f 6/6/6 5/5/5 4/4/4
f 7/7/7 5/5/5 6/6/6
f 8/8/8 7/7/7 6/6/6
f 6/6/6 9/9/9 8/8/8
f 10/10/10 8/8/8 9/9/9
f 9/9/9 11/11/11 10/10/10
f 12/12/12 10/10/10 11/11/11
f 13/13/13 12/12/12 11/11/11
f 14/14/14 12/12/12 13/13/13
f 15/15/15 14/14/14 13/13/13
f 15/15/15 16/16/16 14/14/14
f 15/15/15 17/17/17 16/16/16
f 18/18/18 16/16/16 17/17/17
