g M_PupALL_L_A_Def
v 0.047786243 0.03917633 0.07735491
v 0.05233395 0.036428373 0.073445015
v 0.049958263 0.03070343 0.073608235
v 0.047496356 0.02777542 0.07490866
v 0.045302212 0.039992828 0.07924656
v 0.044357292 0.025779266 0.07639706
v 0.040728264 0.024814606 0.07798418
v 0.04148988 0.040668335 0.08074777
v 0.036535475 0.024440154 0.07937353
v 0.036914352 0.040699005 0.08176558
v 0.032107938 0.024681397 0.08027145
v 0.032306705 0.04036209 0.08227471
v 0.027604677 0.025164183 0.0807411
v 0.028068755 0.039413758 0.082666956
v 0.024498627 0.025503082 0.08115993
v 0.024719864 0.037789308 0.08267922
v 0.021585217 0.026371917 0.08157425
v 0.02176701 0.03574402 0.082628794
v 0.01764151 0.030463103 0.08220383
vt 0.732113 0.535496
vt 0.817095 0.484142
vt 0.772338 0.37713403
vt 0.725997 0.32239002
vt 0.685695 0.550751
vt 0.667308 0.285084
vt 0.599788 0.267084
vt 0.614455 0.56337404
vt 0.521819 0.260118
vt 0.528954 0.56395
vt 0.439138 0.264633
vt 0.442852 0.55764997
vt 0.354987 0.273655
vt 0.364021 0.53957903
vt 0.296946 0.279984
vt 0.300687 0.509363
vt 0.242504 0.29622102
vt 0.245873 0.471834
vt 0.16839 0.372236
vn 0.5637483 -0.19302158 0.8030757
vn 0.561288 -0.2100966 0.8005093
vn 0.6010159 -0.18929298 0.7764972
vn 0.5465538 -0.19545805 0.8142942
vn 0.40898177 -0.1852982 0.89353144
vn 0.46727684 -0.20354709 0.86036086
vn 0.3618458 -0.18659718 0.91337234
vn 0.27595037 -0.16327766 0.947202
vn 0.2453944 -0.15962693 0.95619076
vn 0.17452644 -0.13953589 0.9747155
vn 0.13649341 -0.13636981 0.98120993
vn 0.116359666 -0.1303229 0.9846199
vn 0.10263403 -0.13164772 0.98596907
vn 0.10802683 -0.1338206 0.9851002
vn 0.107948124 -0.13078912 0.9855158
vn 0.06641253 -0.121776566 0.99033326
vn 0.081150286 -0.11959708 0.98950046
vn 0.05559131 -0.11270586 0.99207205
vn 0.041766316 -0.112516284 0.9927717
g M_PupALL_L_A_Def_0
f 3/3/3 2/2/2 1/1/1
f 1/1/1 4/4/4 3/3/3
f 1/1/1 5/5/5 4/4/4
f 6/6/6 4/4/4 5/5/5
f 6/6/6 5/5/5 7/7/7
f 5/5/5 8/8/8 7/7/7
f 7/7/7 8/8/8 9/9/9
f 8/8/8 10/10/10 9/9/9
f 11/11/11 9/9/9 10/10/10
f 10/10/10 12/12/12 11/11/11
f 11/11/11 12/12/12 13/13/13
f 14/14/14 13/13/13 12/12/12
f 13/13/13 14/14/14 15/15/15
f 16/16/16 15/15/15 14/14/14
f 16/16/16 17/17/17 15/15/15
f 16/16/16 18/18/18 17/17/17
f 19/19/19 17/17/17 18/18/18
