g M_PupALL_L_A_Def
v 0.055479996 0.020841522 0.073496915
v 0.055869997 0.037021637 0.07681692
v 0.060859997 0.030411528 0.070456915
v 0.05106 0.016311646 0.075526915
v 0.052719995 0.040241547 0.07904691
v 0.046409998 0.014121551 0.07777692
v 0.04764 0.044361573 0.08180691
v 0.04144 0.012621612 0.07973692
v 0.04243 0.046071623 0.08375692
v 0.03622 0.012811584 0.08137691
v 0.035380002 0.046571653 0.08563692
v 0.029539999 0.04509155 0.086976916
v 0.02947 0.014631652 0.08261692
v 0.02512 0.04164154 0.08700692
v 0.023659999 0.0166716 0.083086915
v 0.02093 0.03709152 0.08694691
v 0.01931 0.020571593 0.08420692
v 0.014769999 0.028021544 0.08582692
vt 0.74802 0.37805003
vt 0.75366 0.61604
vt 0.82709 0.5188
vt 0.68298 0.31136
vt 0.70731 0.66335
vt 0.61461 0.27918
vt 0.63268 0.72391
vt 0.54139 0.25706
vt 0.55598 0.74914
vt 0.4646 0.25996
vt 0.45226 0.75643003
vt 0.36635 0.73468
vt 0.36537 0.28662997
vt 0.30132 0.68386
vt 0.27988 0.31667
vt 0.2397 0.61703
vt 0.21601 0.37409002
vt 0.1491 0.48360997
vn 0.5967455 -0.17506869 0.78310025
vn 0.5348276 -0.16351834 0.8289881
vn 0.6877093 -0.1617955 0.7077275
vn 0.50025415 -0.1636282 0.85027736
vn 0.40310988 -0.1426899 0.90395904
vn 0.42269605 -0.14340638 0.8948535
vn 0.34027198 -0.12806186 0.93156594
vn 0.33456117 -0.12819922 0.9336133
vn 0.27451238 -0.11831602 0.95427686
vn 0.2282899 -0.12877938 0.96503866
vn 0.248963 -0.11515019 0.96164334
vn 0.20706287 -0.12412905 0.97042096
vn 0.10839078 -0.14525379 0.98343927
vn 0.11740826 -0.14626162 0.98225397
vn 0.04389707 -0.15936846 0.9862428
vn 0.14449891 -0.1641942 0.97578704
vn 0.09165235 -0.17167677 0.98088074
vn 0.07167302 -0.17004065 0.9828272
g M_PupALL_L_A_Def_0
f 3/3/3 2/2/2 1/1/1
f 1/1/1 2/2/2 4/4/4
f 2/2/2 5/5/5 4/4/4
f 6/6/6 4/4/4 5/5/5
f 5/5/5 7/7/7 6/6/6
f 8/8/8 6/6/6 7/7/7
f 8/8/8 7/7/7 9/9/9
f 8/8/8 9/9/9 10/10/10
f 11/11/11 10/10/10 9/9/9
f 11/11/11 12/12/12 10/10/10
f 13/13/13 10/10/10 12/12/12
f 12/12/12 14/14/14 13/13/13
f 15/15/15 13/13/13 14/14/14
f 14/14/14 16/16/16 15/15/15
f 17/17/17 15/15/15 16/16/16
f 18/18/18 17/17/17 16/16/16
