g M_PupALL_R_A_Def
v -0.01886581 0.020619506 0.08434599
v -0.018459387 0.03769516 0.08755531
v -0.01692833 0.026517028 0.0854282
v -0.021948433 0.040637817 0.08806965
v -0.020735377 0.017592773 0.08388551
v -0.024091072 0.015979767 0.08363287
v -0.02549719 0.04275665 0.08847017
v -0.03082652 0.04469696 0.08879498
v -0.02806643 0.0148838805 0.083167955
v -0.033541042 0.013792724 0.0825161
v -0.035617065 0.04502121 0.08829639
v -0.039016455 0.014077453 0.08184187
v -0.041217603 0.044728696 0.087209165
v -0.045684442 0.044190064 0.08549902
v -0.04406704 0.014720611 0.080693685
v -0.05098421 0.042196043 0.082797125
v -0.049186423 0.018156433 0.078945406
v -0.05493411 0.037369233 0.07960779
v -0.05493411 0.037369233 0.07960779
v -0.052919846 0.021466063 0.077754475
v -0.05660063 0.030212402 0.077152655
vt 0.759296 0.357454
vt 0.765835 0.632196
vt 0.79047 0.452343
vt 0.709697 0.679544
vt 0.729215 0.30875403
vt 0.675223 0.28280097
vt 0.652599 0.71363604
vt 0.566851 0.744854
vt 0.61126 0.26516902
vt 0.523175 0.247612
vt 0.489772 0.750072
vt 0.435077 0.25219297
vt 0.399661 0.745365
vt 0.32779 0.73669803
vt 0.353814 0.26254302
vt 0.242518 0.704615
vt 0.271444 0.317823
vt 0.178965 0.626953
vt 0.178965 0.626953
vt 0.211374 0.37107497
vt 0.152151 0.511801
vn 0.037004795 -0.17752595 0.98342013
vn -0.009840195 -0.18447816 0.9827874
vn 0.014328327 -0.18502384 0.98262966
vn 0.003298495 -0.17874566 0.9838898
vn 0.016325165 -0.17778678 0.9839336
vn -0.036016397 -0.18601759 0.981886
vn -0.0024133972 -0.17789692 0.98404616
vn -0.073122635 -0.1853695 0.97994447
vn -0.07219856 -0.19143488 0.9788463
vn -0.106687896 -0.1901687 0.97593725
vn -0.14674267 -0.1853194 0.97166014
vn -0.183947 -0.18104094 0.96611995
vn -0.24597868 -0.1842966 0.9515931
vn -0.35686386 -0.17725599 0.9171851
vn -0.30172333 -0.17102627 0.93793017
vn -0.41734704 -0.17041194 0.8926261
vn -0.42653352 -0.17239709 0.8878899
vn -0.4824497 -0.17239662 0.85879076
vn -0.4824497 -0.17239662 0.85879076
vn -0.43496767 -0.15839154 0.8864058
vn -0.52585673 -0.16387087 0.8346382
g M_PupALL_R_A_Def_0
f 3/3/3 2/2/2 1/1/1
f 2/2/2 4/4/4 1/1/1
f 5/5/5 1/1/1 4/4/4
f 6/6/6 5/5/5 4/4/4
f 4/4/4 7/7/7 6/6/6
f 7/7/7 8/8/8 6/6/6
f 9/9/9 6/6/6 8/8/8
f 10/10/10 9/9/9 8/8/8
f 11/11/11 10/10/10 8/8/8
f 10/10/10 11/11/11 12/12/12
f 13/13/13 12/12/12 11/11/11
f 13/13/13 14/14/14 12/12/12
f 15/15/15 12/12/12 14/14/14
f 16/16/16 15/15/15 14/14/14
f 15/15/15 16/16/16 17/17/17
f 18/18/18 17/17/17 16/16/16
f 20/20/20 17/17/17 19/19/19
f 21/21/21 20/20/20 19/19/19
