g M_PupALL_R_A_Def
v -0.016363041 0.01913513 0.08342831
v -0.01685674 0.034034424 0.08547344
v -0.015168786 0.025890198 0.084284924
v -0.019075865 0.015025329 0.08337167
v -0.020344019 0.038013153 0.08630468
v -0.022960061 0.011536407 0.08289379
v -0.024235925 0.042092286 0.08749765
v -0.028027048 0.010550537 0.08296236
v -0.028868474 0.04435013 0.08758522
v -0.034215707 0.010316925 0.082810804
v -0.034681186 0.04611328 0.08739145
v -0.041498575 0.046626586 0.086364724
v -0.041146316 0.010892944 0.08176351
v -0.04757135 0.04425552 0.08383482
v -0.047296677 0.012754058 0.079738386
v -0.052727107 0.040801696 0.0808053
v -0.055137943 0.019176789 0.07675308
v -0.056757864 0.033244018 0.07787498
v -0.057693146 0.02481308 0.07490717
vt 0.850256 0.360088
vt 0.841652 0.61973
vt 0.871067 0.477804
vt 0.802981 0.28846902
vt 0.780882 0.689064
vt 0.735293 0.22767103
vt 0.71306 0.760149
vt 0.646994 0.21048898
vt 0.632331 0.799496
vt 0.539148 0.20641899
vt 0.531036 0.830221
vt 0.412234 0.839165
vt 0.418372 0.21645701
vt 0.306407 0.797846
vt 0.311194 0.24888998
vt 0.216561 0.737659
vt 0.174549 0.360815
vt 0.146319 0.605955
vt 0.130021 0.45903403
vn 0.16913114 -0.12852679 0.9771773
vn 0.09957411 -0.121192805 0.9876221
vn 0.049274385 -0.1342205 0.98972565
vn 0.0129109705 -0.12695134 0.9918249
vn 0.13695918 -0.13744323 0.98099524
vn 0.037318908 -0.14301495 0.98901665
vn -0.0015293157 -0.1385598 0.9903529
vn 0.0016168725 -0.14005211 0.9901428
vn -0.060948193 -0.1308237 0.98953044
vn -0.096685156 -0.13135245 0.98660964
vn -0.12346012 -0.12753747 0.98411983
vn -0.23600382 -0.12624702 0.9635164
vn -0.2340029 -0.12669836 0.9639451
vn -0.3702668 -0.1224504 0.92081934
vn -0.37631574 -0.12234017 0.9183787
vn -0.44033775 -0.11937016 0.8898614
vn -0.45202205 -0.11983788 0.88392025
vn -0.4518705 -0.12250727 0.8836317
vn -0.76194215 -0.1382031 0.6327275
g M_PupALL_R_A_Def_0
f 3/3/3 2/2/2 1/1/1
f 1/1/1 2/2/2 4/4/4
f 2/2/2 5/5/5 4/4/4
f 4/4/4 5/5/5 6/6/6
f 5/5/5 7/7/7 6/6/6
f 6/6/6 7/7/7 8/8/8
f 7/7/7 9/9/9 8/8/8
f 8/8/8 9/9/9 10/10/10
f 11/11/11 10/10/10 9/9/9
f 12/12/12 10/10/10 11/11/11
f 10/10/10 12/12/12 13/13/13
f 14/14/14 13/13/13 12/12/12
f 13/13/13 14/14/14 15/15/15
f 16/16/16 15/15/15 14/14/14
f 15/15/15 16/16/16 17/17/17
f 18/18/18 17/17/17 16/16/16
f 19/19/19 17/17/17 18/18/18
