g M_PupALL_L_A_Def
v 0.052965526 0.037054136 0.07791195
v 0.051650528 0.04509613 0.08042639
v 0.05482816 0.04216095 0.07734207
v 0.051230304 0.033631135 0.078597166
v 0.04784722 0.046634063 0.08320181
v 0.048218574 0.030289916 0.0795481
v 0.04466355 0.028831482 0.080775395
v 0.043910604 0.047529448 0.08514921
v 0.040212717 0.0278685 0.082316644
v 0.038678482 0.047870636 0.0866939
v 0.035087947 0.027181702 0.08306364
v 0.033340693 0.0476651 0.087576844
v 0.029849814 0.02772522 0.08395399
v 0.028466454 0.046212155 0.087598786
v 0.024747929 0.044040527 0.0875313
v 0.026054878 0.028239746 0.084270306
v 0.022923585 0.028863067 0.08458472
v 0.02129957 0.041661527 0.087277964
v 0.020401992 0.030472869 0.08490583
v 0.019550513 0.039630126 0.086944155
v 0.018193074 0.03584778 0.086035915
vt 0.809733 0.47473902
vt 0.786588 0.616287
vt 0.842517 0.564625
vt 0.779191 0.41448998
vt 0.719645 0.64335597
vt 0.726182 0.35568202
vt 0.663609 0.330011
vt 0.650357 0.65911496
vt 0.58527 0.31306303
vt 0.558266 0.66512096
vt 0.495068 0.300974
vt 0.464315 0.66150296
vt 0.402872 0.310539
vt 0.378523 0.635929
vt 0.313073 0.597708
vt 0.336077 0.319597
vt 0.280963 0.33056802
vt 0.252378 0.555834
vt 0.23658 0.35890198
vt 0.221593 0.520079
vt 0.197701 0.453506
vn 0.60568196 -0.14555128 0.78228134
vn 0.55623454 -0.14993696 0.8173874
vn 0.6200159 -0.13999404 0.7719987
vn 0.4933365 -0.17552966 0.8519439
vn 0.43615925 -0.18392292 0.8808731
vn 0.41514373 -0.18948181 0.8898047
vn 0.3711235 -0.19661422 0.90752965
vn 0.3210837 -0.19030717 0.9277329
vn 0.24741562 -0.1983647 0.94838655
vn 0.21252929 -0.19331418 0.9578418
vn 0.15634213 -0.19978826 0.9672858
vn 0.12832518 -0.19560231 0.97225124
vn 0.11182441 -0.19851921 0.97369677
vn 0.07064409 -0.18785746 0.9796524
vn 0.0813031 -0.1898706 0.978437
vn 0.05636306 -0.1973271 0.9787161
vn 0.04508794 -0.19934182 0.9788922
vn 0.060305562 -0.19950224 0.97804
vn -0.0065453816 -0.20796864 0.97811365
vn 0.046139985 -0.21295343 0.9759723
vn -0.037822302 -0.22046794 0.97466063
g M_PupALL_L_A_Def_0
f 3/3/3 2/2/2 1/1/1
f 1/1/1 2/2/2 4/4/4
f 2/2/2 5/5/5 4/4/4
f 4/4/4 5/5/5 6/6/6
f 6/6/6 5/5/5 7/7/7
f 5/5/5 8/8/8 7/7/7
f 7/7/7 8/8/8 9/9/9
f 8/8/8 10/10/10 9/9/9
f 11/11/11 9/9/9 10/10/10
f 10/10/10 12/12/12 11/11/11
f 13/13/13 11/11/11 12/12/12
f 12/12/12 14/14/14 13/13/13
f 14/14/14 15/15/15 13/13/13
f 13/13/13 15/15/15 16/16/16
f 16/16/16 15/15/15 17/17/17
f 18/18/18 17/17/17 15/15/15
f 17/17/17 18/18/18 19/19/19
f 18/18/18 20/20/20 19/19/19
f 19/19/19 20/20/20 21/21/21
