g M_PupALL_L_A_Def
v 0.018725717 0.03980652 0.08606684
v 0.01890817 0.028498992 0.08488463
v 0.017041577 0.033568878 0.08513179
v 0.020737533 0.04359024 0.08690531
v 0.020919928 0.025928803 0.08473089
v 0.023457203 0.04575592 0.08747177
v 0.024408953 0.02455307 0.084622554
v 0.027423538 0.046979826 0.087659545
v 0.028242372 0.024078064 0.08437414
v 0.03231451 0.046909638 0.08759561
v 0.033309814 0.023344422 0.0838624
v 0.036303222 0.046421204 0.08720627
v 0.038850043 0.023299865 0.08305432
v 0.040129125 0.045485076 0.08654037
v 0.043305844 0.024496917 0.08201017
v 0.04423994 0.043734893 0.08509096
v 0.047538266 0.026247863 0.08050146
v 0.04769463 0.041805115 0.08314003
v 0.05178821 0.02935913 0.078745246
v 0.050955627 0.039257813 0.08091337
v 0.054871645 0.034756623 0.077550486
vt 0.254787 0.50293
vt 0.25765 0.32547402
vt 0.228357 0.405039
vt 0.28636 0.562309
vt 0.289222 0.285137
vt 0.329041 0.596296
vt 0.343977 0.26354802
vt 0.391287 0.615503
vt 0.404138 0.25609398
vt 0.468044 0.614403
vt 0.483664 0.24457902
vt 0.530641 0.606737
vt 0.57061 0.24388099
vt 0.590684 0.592047
vt 0.640538 0.262667
vt 0.655197 0.564579
vt 0.70696 0.290146
vt 0.709414 0.534294
vt 0.773657 0.33897197
vt 0.76059 0.494318
vt 0.822047 0.42367703
vn -0.20345967 -0.105056085 0.9734307
vn -0.09118852 -0.12074713 0.9884862
vn -0.15568824 -0.10520077 0.9821883
vn -0.11409578 -0.12136406 0.98602885
vn -0.03404286 -0.13205831 0.9906572
vn -0.02519577 -0.13161649 0.99098045
vn 0.018998846 -0.13769804 0.990292
vn 0.007055324 -0.13874002 0.9903037
vn 0.061305016 -0.14737907 0.9871783
vn 0.044075616 -0.14727284 0.98811334
vn 0.110337526 -0.15653858 0.98148936
vn 0.104107164 -0.15675408 0.9821354
vn 0.19099295 -0.16213995 0.96810764
vn 0.18534836 -0.1630995 0.96904314
vn 0.3127341 -0.16474168 0.93544513
vn 0.30971304 -0.16341142 0.9366827
vn 0.41871852 -0.1598344 0.89393944
vn 0.43292192 -0.15475565 0.8880481
vn 0.48583525 -0.14882208 0.8612874
vn 0.4953298 -0.14590797 0.856364
vn 0.5527283 -0.1336785 0.82257
g M_PupALL_L_A_Def_0
f 3/3/3 2/2/2 1/1/1
f 1/1/1 2/2/2 4/4/4
f 2/2/2 5/5/5 4/4/4
f 4/4/4 5/5/5 6/6/6
f 7/7/7 6/6/6 5/5/5
f 6/6/6 7/7/7 8/8/8
f 9/9/9 8/8/8 7/7/7
f 8/8/8 9/9/9 10/10/10
f 11/11/11 10/10/10 9/9/9
f 12/12/12 10/10/10 11/11/11
f 11/11/11 13/13/13 12/12/12
f 13/13/13 14/14/14 12/12/12
f 13/13/13 15/15/15 14/14/14
f 16/16/16 14/14/14 15/15/15
f 15/15/15 17/17/17 16/16/16
f 18/18/18 16/16/16 17/17/17
f 17/17/17 19/19/19 18/18/18
f 20/20/20 18/18/18 19/19/19
f 21/21/21 20/20/20 19/19/19
