g M_PupALL_L_A_Def
v 0.060022544 0.018682403 0.07040449
v 0.06269431 0.038858946 0.07172821
v 0.06434163 0.03250473 0.069292754
v 0.059141323 0.045696564 0.07505379
v 0.056612927 0.014338073 0.07191454
v 0.054329548 0.05109329 0.07819826
v 0.0513358 0.010684509 0.07423814
v 0.049052943 0.0545343 0.081069276
v 0.04520666 0.009567565 0.076474175
v 0.042864434 0.05542938 0.08326599
v 0.03613988 0.055016782 0.08479864
v 0.03856475 0.009185486 0.07800634
v 0.03056241 0.053869933 0.08543148
v 0.033256724 0.009897613 0.07872864
v 0.023989534 0.04928848 0.08513866
v 0.02510514 0.011760253 0.07953873
v 0.019798998 0.01747345 0.08107275
v 0.019609293 0.042856902 0.08413887
v 0.016464053 0.031420287 0.08190017
vt 0.816563 0.300694
vt 0.85586 0.597456
vt 0.880089 0.50399804
vt 0.803602 0.698027
vt 0.766413 0.23679501
vt 0.732829 0.777403
vt 0.688796 0.18305802
vt 0.655219 0.828014
vt 0.598647 0.16663003
vt 0.564197 0.841179
vt 0.46529 0.835112
vt 0.500955 0.16101098
vt 0.383255 0.818243
vt 0.422883 0.171484
vt 0.286579 0.750856
vt 0.302988 0.19888097
vt 0.224943 0.28291303
vt 0.222153 0.65626
vt 0.175892 0.488047
vn 0.53715914 -0.12700216 0.8338648
vn 0.54721147 -0.1267402 0.8273431
vn 0.62431794 -0.13317165 0.7697353
vn 0.4545526 -0.12484231 0.8819276
vn 0.47621912 -0.12159295 0.8708792
vn 0.42161065 -0.12020592 0.89877415
vn 0.39639443 -0.123708114 0.90970755
vn 0.34818456 -0.122199565 0.92942715
vn 0.2901798 -0.12836729 0.9483235
vn 0.26699844 -0.12781984 0.9551827
vn 0.1899289 -0.13425018 0.9725759
vn 0.1860988 -0.1355047 0.97314215
vn 0.105215535 -0.14194606 0.9842667
vn 0.09022213 -0.14421047 0.9854254
vn 0.054370113 -0.14479834 0.98796624
vn 0.07783376 -0.14487348 0.9863841
vn 0.10871212 -0.14127049 0.9839839
vn -0.06573806 -0.12014518 0.99057746
vn -0.2546779 -0.117841855 0.959819
g M_PupALL_L_A_Def_0
f 3/3/3 2/2/2 1/1/1
f 2/2/2 4/4/4 1/1/1
f 5/5/5 1/1/1 4/4/4
f 4/4/4 6/6/6 5/5/5
f 7/7/7 5/5/5 6/6/6
f 6/6/6 8/8/8 7/7/7
f 9/9/9 7/7/7 8/8/8
f 8/8/8 10/10/10 9/9/9
f 10/10/10 11/11/11 9/9/9
f 12/12/12 9/9/9 11/11/11
f 12/12/12 11/11/11 13/13/13
f 12/12/12 13/13/13 14/14/14
f 13/13/13 15/15/15 14/14/14
f 16/16/16 14/14/14 15/15/15
f 17/17/17 16/16/16 15/15/15
f 18/18/18 17/17/17 15/15/15
f 17/17/17 18/18/18 19/19/19
