g M_PupALL_L_A_Def
v 0.020856552 0.034179382 0.08581768
v 0.02179373 0.023611601 0.083727285
v 0.018666785 0.028370513 0.0853342
v 0.0232202 0.03700119 0.086275324
v 0.024852224 0.022601318 0.08327638
v 0.026192624 0.038782652 0.08628712
v 0.028278146 0.022179412 0.0829396
v 0.028897384 0.039327696 0.086062856
v 0.03175245 0.02196823 0.08253511
v 0.03259612 0.039884947 0.08550655
v 0.036422517 0.021742096 0.08155953
v 0.036953177 0.040027007 0.08468042
v 0.040679764 0.021769103 0.080613725
v 0.041132286 0.03971161 0.08340947
v 0.043233007 0.022093657 0.07980558
v 0.045217138 0.03901794 0.08177227
v 0.046618164 0.023216704 0.07853484
v 0.04829472 0.037963256 0.079888634
v 0.04905655 0.026092986 0.077545166
v 0.051011037 0.029489746 0.07694173
v 0.05234569 0.032631837 0.076628394
vt 0.22194 0.54201
vt 0.240129 0.337072
vt 0.179452 0.429371
vt 0.267814 0.595701
vt 0.299501 0.317492
vt 0.32552 0.628389
vt 0.36603 0.30934298
vt 0.378044 0.63726604
vt 0.43351 0.305282
vt 0.449861 0.64702797
vt 0.524218 0.30094397
vt 0.534335 0.648806
vt 0.606893 0.301417
vt 0.615375 0.643488
vt 0.656477 0.307743
vt 0.694736 0.631576
vt 0.722214 0.329619
vt 0.754614 0.613363
vt 0.769566 0.385405
vt 0.807508 0.451342
vt 0.833395 0.51232004
vn 0.07174661 -0.18742175 0.97965586
vn 0.10072634 -0.19080593 0.9764463
vn 0.23551673 -0.16844836 0.9571609
vn 0.097934715 -0.19101287 0.9766898
vn 0.077516116 -0.19045494 0.9786307
vn 0.11129596 -0.18550548 0.97632
vn 0.09113459 -0.1845295 0.9785926
vn 0.14776652 -0.17459926 0.9734886
vn 0.16104396 -0.17383009 0.97151834
vn 0.18213971 -0.16981629 0.9684976
vn 0.20372191 -0.16997114 0.9641614
vn 0.22662003 -0.16430368 0.9600248
vn 0.25742292 -0.16315033 0.9524261
vn 0.30613086 -0.15219373 0.9397452
vn 0.3526531 -0.15221503 0.9232911
vn 0.39150608 -0.1445886 0.9087448
vn 0.4199181 -0.14730942 0.89552706
vn 0.48772794 -0.13444899 0.86258036
vn 0.5049102 -0.13588056 0.8524096
vn 0.5031648 -0.13552977 0.8534968
vn 0.510243 -0.131988 0.84984195
g M_PupALL_L_A_Def_0
f 3/3/3 2/2/2 1/1/1
f 1/1/1 2/2/2 4/4/4
f 5/5/5 4/4/4 2/2/2
f 4/4/4 5/5/5 6/6/6
f 5/5/5 7/7/7 6/6/6
f 6/6/6 7/7/7 8/8/8
f 9/9/9 8/8/8 7/7/7
f 10/10/10 8/8/8 9/9/9
f 9/9/9 11/11/11 10/10/10
f 12/12/12 10/10/10 11/11/11
f 11/11/11 13/13/13 12/12/12
f 14/14/14 12/12/12 13/13/13
f 13/13/13 15/15/15 14/14/14
f 14/14/14 15/15/15 16/16/16
f 17/17/17 16/16/16 15/15/15
f 16/16/16 17/17/17 18/18/18
f 19/19/19 18/18/18 17/17/17
f 20/20/20 18/18/18 19/19/19
f 20/20/20 21/21/21 18/18/18
