g M_Stamp
v -0.007658144 0.037672322 -0.0076581524
v -0.0082441885 0.037672322 -0.0062433193
v -0.0082441885 0.036691274 -0.0062433193
v -0.007658144 0.036691274 -0.0076581524
v -0.007658144 -0.02304476 -0.00765815
v -0.0082441885 -0.02304476 -0.006243317
v -0.0082441885 -0.02304476 0.0062433193
v -0.0082441885 0.036691274 0.0062433165
v -0.0082441885 0.037672322 -0.0062433193
v -0.0082441885 0.037672322 0.0062433165
v -0.007658144 0.036691274 0.00765815
v -0.0082441885 0.037672322 0.0062433165
v -0.007658144 0.037672322 0.00765815
v -0.007419476 -0.02399958 -0.007419482
v -0.007987256 -0.02399958 -0.006048742
v -0.0060487366 -0.02399958 -0.007987261
v -0.007987256 -0.02399958 0.006048745
v -0.006243311 -0.02304476 -0.008244193
v 0.006048744 -0.02399958 -0.007987261
v -0.007658144 -0.02304476 0.0076581524
v -0.007419476 -0.02399958 0.007419484
v -0.006243311 0.036691274 0.008244193
v -0.007658144 0.037672322 0.00765815
v -0.006243311 0.037672322 0.008244193
v -0.006243311 -0.02304476 0.008244196
v -0.0060487366 -0.02399958 0.007987264
v 0.006243319 -0.02304476 0.008244196
v 0.006048744 -0.02399958 0.007987264
v 0.006243319 -0.02304476 -0.008244193
v 0.0074194833 -0.02399958 -0.007419482
v 0.007658152 -0.02304476 -0.00765815
v 0.006243319 0.036691274 -0.008244197
v 0.007658152 0.036691274 -0.007658154
v 0.007658152 0.037672322 -0.007658154
v 0.006243319 0.037672322 -0.008244197
v -0.006243311 0.036691274 -0.008244197
v 0.006243319 0.037672322 -0.008244197
v -0.006243311 0.037672322 -0.008244197
v -0.006243311 0.037672322 -0.008244197
v -0.007658144 0.037672322 -0.0076581524
v 0.008244196 0.037672322 -0.00624332
v 0.007658152 0.037672322 -0.007658154
v 0.007658152 0.036691274 -0.007658154
v 0.008244196 0.036691274 -0.00624332
v 0.008244196 -0.02304476 -0.006243317
v 0.007658152 -0.02304476 -0.00765815
v 0.007987264 -0.02399958 -0.006048742
v 0.0074194833 -0.02399958 -0.007419482
v 0.007987264 -0.02399958 0.006048745
v 0.008244196 -0.02304476 0.0062433193
v 0.0074194833 -0.02399958 0.007419484
v 0.008244196 0.036691274 0.006243316
v 0.007658152 -0.02304476 0.0076581524
v 0.008244196 0.037672322 0.006243316
v 0.008244196 0.037672322 -0.00624332
v 0.007658152 0.036691274 0.0076581487
v 0.007658152 0.037672322 0.0076581487
v 0.008244196 0.037672322 0.006243316
v 0.006243319 0.036691274 0.008244193
v -0.006243311 0.037672322 0.008244193
v 0.006243319 0.037672322 0.008244193
v 0.006243319 0.037672322 0.008244193
v 0.007658152 0.037672322 0.0076581487
v 0.0074194833 -0.0359922 -0.007419482
v 0.0074194833 -0.03735894 -0.007419482
v 0.007987264 -0.03735894 -0.006048742
v 0.007987264 -0.0359922 -0.006048742
v 0.0074194833 -0.02399958 -0.007419482
v 0.007987264 -0.03735894 0.006048745
v 0.007987264 -0.02399958 -0.006048742
v 0.007987264 -0.0359922 0.006048745
v 0.0074194833 -0.03735894 0.007419484
v 0.007987264 -0.02399958 0.006048745
v 0.0074194833 -0.0359922 0.007419484
v 0.006048744 -0.03735894 0.007987264
v 0.0074194833 -0.02399958 0.007419484
v 0.006048744 -0.0359922 0.007987264
v -0.0060487366 -0.03735894 0.007987264
v 0.006048744 -0.02399958 0.007987264
v -0.0060487366 -0.0359922 0.007987264
v -0.007419476 -0.03735894 0.007419484
v -0.0060487366 -0.02399958 0.007987264
v -0.007419476 -0.0359922 0.007419484
v -0.007987256 -0.03735894 0.006048745
v -0.007419476 -0.02399958 0.007419484
v -0.007987256 -0.0359922 0.006048745
v -0.007987256 -0.03735894 -0.006048742
v -0.007987256 -0.02399958 0.006048745
v -0.007987256 -0.0359922 -0.006048742
v -0.007419476 -0.03735894 -0.007419482
v -0.007987256 -0.02399958 -0.006048742
v -0.007419476 -0.0359922 -0.007419482
v -0.0060487366 -0.03735894 -0.007987261
v -0.007419476 -0.02399958 -0.007419482
v -0.0060487366 -0.0359922 -0.007987261
v 0.006048744 -0.03735894 -0.007987261
v -0.0060487366 -0.02399958 -0.007987261
v 0.006048744 -0.0359922 -0.007987261
v 0.0074194833 -0.03735894 -0.007419482
v 0.006048744 -0.02399958 -0.007987261
v 0.0074194833 -0.0359922 -0.007419482
v 0.0074194833 -0.02399958 -0.007419482
v -0.006812835 0.038776774 0.00681284
v -0.007658144 0.037672322 0.00765815
v -0.0082441885 0.037672322 0.0062433165
v -0.0060236217 0.038776774 0.007139743
v -0.006243311 0.037672322 0.008244193
v -0.007139738 0.038776774 0.0060236272
v -0.0082441885 0.037672322 -0.0062433193
v 0.006023629 0.038776774 0.007139743
v 0.006243319 0.037672322 0.008244193
v 0.0068128416 0.038776774 0.00681284
v 0.007658152 0.037672322 0.0076581487
v 0.006023629 0.038776774 0.0060236254
v 0.007139745 0.038776774 0.0060236263
v 0.008244196 0.037672322 0.006243316
v 0.007139745 0.038776774 -0.006023631
v 0.008244196 0.037672322 -0.00624332
v -0.0060236217 0.038776774 0.006023628
v -0.007139738 0.038776774 -0.0060236296
v -0.007658144 0.037672322 -0.0076581524
v 0.0068128426 0.038776774 -0.0068128435
v 0.007658152 0.037672322 -0.007658154
v 0.006023629 0.038776774 -0.006023631
v -0.0060236217 0.038776774 -0.0060236296
v 0.006023629 0.038776774 -0.0071397466
v 0.006243319 0.037672322 -0.008244197
v -0.0060236217 0.038776774 -0.0071397466
v -0.006243311 0.037672322 -0.008244197
v -0.0068128346 0.038776774 -0.0068128435
v 0.006048744 -0.03735894 -0.007987261
v 0.0058901575 -0.038156204 -0.007189999
v 0.0068092863 -0.038156204 -0.0068092835
v 0.0074194833 -0.03735894 -0.007419482
v -0.0060487366 -0.03735894 -0.007987261
v 0.0071900017 -0.038156204 -0.005890157
v 0.007987264 -0.03735894 -0.006048742
v 0.0058901575 -0.038156204 -0.005890157
v 0.0071900017 -0.038156204 0.0058901594
v 0.007987264 -0.03735894 0.006048745
v -0.00589015 -0.038156204 -0.007189999
v -0.007419476 -0.03735894 -0.007419482
v -0.005890149 -0.038156204 -0.005890157
v -0.0068092784 -0.038156204 -0.0068092835
v -0.007987256 -0.03735894 -0.006048742
v -0.0071899937 -0.038156204 -0.005890157
v -0.007987256 -0.03735894 0.006048745
v -0.005890149 -0.038156204 0.0058901594
v -0.0071899937 -0.038156204 0.0058901594
v -0.007419476 -0.03735894 0.007419484
v -0.0068092784 -0.038156204 0.006809286
v -0.0060487366 -0.03735894 0.007987264
v -0.00589015 -0.038156204 0.0071900017
v 0.006048744 -0.03735894 0.007987264
v 0.0058901575 -0.038156204 0.0058901594
v 0.0058901575 -0.038156204 0.0071900017
v 0.0074194833 -0.03735894 0.007419484
v 0.0068092863 -0.038156204 0.006809286
vt 0.5498406 0.029397829
vt 0.53289956 0.029397829
vt 0.53289956 0.05258505
vt 0.54984057 0.05258506
vt 0.5498406 0.70812994
vt 0.53289956 0.70812994
vt 0.39476645 0.70812994
vt 0.39476645 0.052585058
vt 0.53289956 0.029397829
vt 0.39476645 0.029397829
vt 0.37782532 0.052585058
vt 0.39476645 0.029397829
vt 0.37782532 0.029397829
vt 0.5498406 0.7194165
vt 0.53289956 0.7194165
vt 0.56678176 0.7194165
vt 0.39476645 0.7194165
vt 0.56678176 0.70812994
vt 0.7049148 0.7194165
vt 0.37782532 0.70812994
vt 0.37782532 0.7194165
vt 0.3608842 0.05258505
vt 0.37782532 0.029397829
vt 0.3608842 0.029397829
vt 0.3608842 0.70812994
vt 0.3608842 0.7194165
vt 0.22275119 0.70812994
vt 0.22275119 0.7194165
vt 0.7049148 0.70812994
vt 0.72185594 0.7194165
vt 0.72185594 0.70812994
vt 0.7049148 0.05258505
vt 0.7218559 0.052585058
vt 0.72185594 0.029397829
vt 0.7049148 0.029397829
vt 0.56678176 0.05258506
vt 0.7049148 0.029397829
vt 0.56678176 0.029397829
vt 0.56678176 0.029397829
vt 0.5498406 0.029397829
vt 0.05073584 0.029397829
vt 0.033794712 0.029397829
vt 0.033794712 0.05258505
vt 0.050735835 0.052585058
vt 0.05073584 0.70812994
vt 0.033794712 0.70812994
vt 0.05073584 0.7194165
vt 0.033794712 0.7194165
vt 0.18886892 0.7194165
vt 0.18886892 0.70812994
vt 0.20581006 0.7194165
vt 0.18886892 0.05258505
vt 0.20581006 0.70812994
vt 0.18886892 0.029397829
vt 0.05073584 0.029397829
vt 0.20581006 0.05258505
vt 0.20581006 0.029397829
vt 0.18886892 0.029397829
vt 0.22275119 0.05258506
vt 0.3608842 0.029397829
vt 0.22275119 0.029397829
vt 0.22275119 0.029397829
vt 0.20581006 0.029397829
vt 0.70292425 0.796955
vt 0.70292425 0.78169394
vt 0.68635744 0.78169394
vt 0.6863574 0.796955
vt 0.70292425 0.93086535
vt 0.55127615 0.78169394
vt 0.68635744 0.93086535
vt 0.5512762 0.796955
vt 0.5347093 0.78169394
vt 0.55127615 0.93086535
vt 0.5347092 0.796955
vt 0.51814246 0.78169394
vt 0.5347093 0.93086535
vt 0.51814246 0.796955
vt 0.3830612 0.78169394
vt 0.51814246 0.93086535
vt 0.38306117 0.796955
vt 0.36649436 0.78169394
vt 0.3830612 0.93086535
vt 0.36649436 0.796955
vt 0.3499275 0.78169394
vt 0.36649436 0.93086535
vt 0.34992748 0.796955
vt 0.21484622 0.78169394
vt 0.3499275 0.93086535
vt 0.21484622 0.796955
vt 0.19827938 0.78169394
vt 0.21484622 0.93086535
vt 0.19827938 0.796955
vt 0.18171254 0.78169394
vt 0.19827938 0.93086535
vt 0.18171252 0.796955
vt 0.04663131 0.78169394
vt 0.18171254 0.93086535
vt 0.046631306 0.796955
vt 0.030064471 0.78169394
vt 0.04663131 0.9308654
vt 0.03006447 0.796955
vt 0.030064471 0.9308654
vt 0.78491104 0.93451524
vt 0.771876 0.9475858
vt 0.7889085 0.95570964
vt 0.78112453 0.9265405
vt 0.7636953 0.9305745
vt 0.79290044 0.9382785
vt 0.9316976 0.95570964
vt 0.78083456 0.7916447
vt 0.7631881 0.7876362
vt 0.78464806 0.78359187
vt 0.7714689 0.7704144
vt 0.79302317 0.7918933
vt 0.7927019 0.7797767
vt 0.7886784 0.7622403
vt 0.92793036 0.7797738
vt 0.93197596 0.76224005
vt 0.7931587 0.92624223
vt 0.92772734 0.93827575
vt 0.9487386 0.9476016
vt 0.9359841 0.7835941
vt 0.9491763 0.77043086
vt 0.9276061 0.79189247
vt 0.9274723 0.92624134
vt 0.93979245 0.7916465
vt 0.95743954 0.7876605
vt 0.93950874 0.9265429
vt 0.9569349 0.93059874
vt 0.9357168 0.93451756
vt 0.8081507 0.70184195
vt 0.811061 0.68916637
vt 0.8013484 0.6847228
vt 0.79186803 0.6941197
vt 0.9458003 0.70184195
vt 0.7969823 0.67498106
vt 0.7843407 0.677785
vt 0.81129134 0.6748291
vt 0.7971838 0.5431194
vt 0.78457046 0.54026085
vt 0.94296855 0.68921745
vt 0.9620787 0.69425255
vt 0.94279873 0.6749342
vt 0.9526752 0.6848315
vt 0.9696919 0.67799044
vt 0.9570785 0.6751319
vt 0.96992165 0.5404663
vt 0.942971 0.54342216
vt 0.9572801 0.5432703
vt 0.96239436 0.5241316
vt 0.952914 0.5335285
vt 0.9461116 0.5164094
vt 0.94320124 0.529085
vt 0.808462 0.51640934
vt 0.8114636 0.5433171
vt 0.81129384 0.5290339
vt 0.7921837 0.52399874
vt 0.8015871 0.5334198
vn -0.65724725 0.36885118 -0.6572479
vn -0.9108 0.3709728 -0.18117
vn -0.98078525 0 -0.1950907
vn -0.7071066 0 -0.7071069
vn -0.69769716 -0.16259176 -0.697698
vn -0.9688079 -0.14535174 -0.20070904
vn -0.968808 -0.14535181 0.20070884
vn -0.98078525 0 0.19509064
vn -0.9108 0.3709728 -0.18117
vn -0.9108001 0.3709729 0.18116961
vn -0.7071064 0 0.70710707
vn -0.9108001 0.3709729 0.18116961
vn -0.65724725 0.3688513 0.6572478
vn -0.6666773 -0.33328798 -0.66667867
vn -0.9424568 -0.28815407 -0.16953596
vn -0.16953513 -0.2881538 -0.942457
vn -0.9424569 -0.2881541 0.16953556
vn -0.20070848 -0.14535165 -0.968808
vn 0.16953513 -0.2881538 -0.942457
vn -0.6976975 -0.16259179 0.69769776
vn -0.6666779 -0.3332881 0.6666782
vn -0.1950902 0 0.98078537
vn -0.65724725 0.3688513 0.6572478
vn -0.18116926 0.37097308 0.9108
vn -0.20070863 -0.1453516 0.968808
vn -0.16953534 -0.28815383 0.942457
vn 0.20070878 -0.14535162 0.968808
vn 0.16953534 -0.28815383 0.942457
vn 0.20070851 -0.14535165 -0.968808
vn 0.6666773 -0.33328798 -0.66667867
vn 0.6976972 -0.16259176 -0.69769794
vn 0.19509032 0 -0.98078525
vn 0.7071065 0 -0.70710707
vn 0.6572471 0.3688511 -0.6572481
vn 0.1811694 0.370973 -0.9108
vn -0.1950904 0 -0.98078525
vn 0.1811694 0.370973 -0.9108
vn -0.18116951 0.37097296 -0.9108
vn -0.18116951 0.37097296 -0.9108
vn -0.65724725 0.36885118 -0.6572479
vn 0.91079986 0.37097296 -0.18117
vn 0.6572471 0.3688511 -0.6572481
vn 0.7071065 0 -0.70710707
vn 0.98078525 0 -0.19509073
vn 0.9688079 -0.14535186 -0.20070904
vn 0.6976972 -0.16259176 -0.69769794
vn 0.9424568 -0.28815433 -0.16953595
vn 0.6666773 -0.33328798 -0.66667867
vn 0.9424568 -0.28815433 0.16953595
vn 0.9688079 -0.14535187 0.2007091
vn 0.6666776 -0.33328798 0.6666785
vn 0.98078525 0 0.19509074
vn 0.69769734 -0.16259168 0.6976978
vn 0.91079986 0.37097296 0.18117
vn 0.91079986 0.37097296 -0.18117
vn 0.70710665 0 0.7071069
vn 0.65724725 0.36885118 0.6572479
vn 0.91079986 0.37097296 0.18117
vn 0.19509053 0 0.98078525
vn -0.18116926 0.37097308 0.9108
vn 0.18116951 0.37097296 0.9108
vn 0.18116951 0.37097296 0.9108
vn 0.65724725 0.36885118 0.6572479
vn 0.7071066 0 -0.7071069
vn 0.65724736 -0.36885157 -0.6572476
vn 0.9108 -0.37097302 -0.18116967
vn 0.98078525 0 -0.1950908
vn 0.70710665 0 -0.7071068
vn 0.9108 -0.37097302 0.18116967
vn 0.98078525 0 -0.1950908
vn 0.98078525 0 0.19509082
vn 0.6572475 -0.3688516 0.6572475
vn 0.98078525 0 0.1950908
vn 0.70710665 0 0.7071068
vn 0.18116963 -0.37097332 0.91079986
vn 0.70710665 0 0.7071068
vn 0.19509068 0 0.98078525
vn -0.18116975 -0.37097362 0.9107997
vn 0.1950906 0 0.98078525
vn -0.19509067 0 0.98078525
vn -0.6572475 -0.368852 0.6572472
vn -0.1950906 0 0.98078525
vn -0.70710665 0 0.7071068
vn -0.91079986 -0.37097338 0.18116963
vn -0.70710665 0 0.7071068
vn -0.98078525 0 0.1950908
vn -0.91079986 -0.37097338 -0.18116963
vn -0.98078525 0 0.1950908
vn -0.98078525 0 -0.19509082
vn -0.6572473 -0.3688518 -0.6572475
vn -0.98078525 0 -0.1950908
vn -0.70710665 0 -0.7071069
vn -0.18116954 -0.3709734 -0.91079986
vn -0.70710665 0 -0.7071068
vn -0.19509059 0 -0.98078525
vn 0.18116954 -0.37097332 -0.91079986
vn -0.1950906 0 -0.98078525
vn 0.19509056 0 -0.98078525
vn 0.65724736 -0.36885157 -0.6572476
vn 0.1950906 0 -0.98078525
vn 0.7071066 0 -0.7071069
vn 0.70710665 0 -0.7071068
vn -0.30950373 0.89911896 0.3095036
vn -0.65724725 0.3688513 0.6572478
vn -0.9108001 0.3709729 0.18116961
vn -0.08139684 0.9088026 0.40920937
vn -0.18116926 0.37097308 0.9108
vn -0.40920973 0.9088025 0.08139684
vn -0.9108 0.3709728 -0.18117
vn 0.08139691 0.9088026 0.4092095
vn 0.18116951 0.37097296 0.9108
vn 0.3095035 0.89911896 0.3095041
vn 0.65724725 0.36885118 0.6572479
vn -0 1 0
vn 0.40920943 0.9088025 0.081397206
vn 0.91079986 0.37097296 0.18117
vn 0.40920943 0.9088026 -0.08139728
vn 0.91079986 0.37097296 -0.18117
vn -0 1 0
vn -0.40920958 0.9088025 -0.08139721
vn -0.65724725 0.36885118 -0.6572479
vn 0.30950356 0.89911884 -0.30950418
vn 0.6572471 0.3688511 -0.6572481
vn -0 1 0
vn -0 1 0
vn 0.081396885 0.9088026 -0.4092095
vn 0.1811694 0.370973 -0.9108
vn -0.08139688 0.9088026 -0.4092094
vn -0.18116951 0.37097296 -0.9108
vn -0.30950353 0.89911896 -0.30950406
vn 0.18116954 -0.37097332 -0.91079986
vn 0.08139671 -0.9088026 -0.4092094
vn 0.3095036 -0.89911914 -0.30950323
vn 0.65724736 -0.36885157 -0.6572476
vn -0.18116954 -0.3709734 -0.91079986
vn 0.40920943 -0.9088026 -0.081396855
vn 0.9108 -0.37097302 -0.18116967
vn -0 -1 -3.713112E-07
vn 0.4092095 -0.9088026 0.08139687
vn 0.9108 -0.37097302 0.18116967
vn -0.08139669 -0.9088026 -0.40920943
vn -0.6572473 -0.3688518 -0.6572475
vn -0 -1 -3.7131133E-07
vn -0.30950326 -0.8991193 -0.30950305
vn -0.91079986 -0.37097338 -0.18116963
vn -0.40920913 -0.9088027 -0.08139676
vn -0.91079986 -0.37097338 0.18116963
vn -0 -1 2.2996731E-07
vn -0.40920913 -0.9088027 0.081396945
vn -0.6572475 -0.368852 0.6572472
vn -0.30950335 -0.8991193 0.309503
vn -0.18116975 -0.37097362 0.9107997
vn -0.08139681 -0.9088029 0.40920886
vn 0.18116963 -0.37097332 0.91079986
vn -0 -1 0
vn 0.08139673 -0.9088028 0.4092091
vn 0.6572475 -0.3688516 0.6572475
vn 0.3095036 -0.89911914 0.30950323
g M_Stamp_0
f 3/3/3 2/2/2 1/1/1
f 4/4/4 3/3/3 1/1/1
f 4/4/4 5/5/5 3/3/3
f 5/5/5 6/6/6 3/3/3
f 3/3/3 6/6/6 7/7/7
f 8/8/8 3/3/3 7/7/7
f 9/9/9 3/3/3 8/8/8
f 10/10/10 9/9/9 8/8/8
f 8/8/8 7/7/7 11/11/11
f 12/12/12 8/8/8 11/11/11
f 13/13/13 12/12/12 11/11/11
f 6/6/6 5/5/5 14/14/14
f 15/15/15 6/6/6 14/14/14
f 6/6/6 15/15/15 7/7/7
f 14/14/14 5/5/5 16/16/16
f 15/15/15 17/17/17 7/7/7
f 5/5/5 18/18/18 16/16/16
f 18/18/18 5/5/5 4/4/4
f 19/19/19 16/16/16 18/18/18
f 7/7/7 17/17/17 20/20/20
f 7/7/7 20/20/20 11/11/11
f 17/17/17 21/21/21 20/20/20
f 11/11/11 20/20/20 22/22/22
f 23/23/23 11/11/11 22/22/22
f 24/24/24 23/23/23 22/22/22
f 20/20/20 21/21/21 25/25/25
f 20/20/20 25/25/25 22/22/22
f 21/21/21 26/26/26 25/25/25
f 25/25/25 26/26/26 27/27/27
f 22/22/22 25/25/25 27/27/27
f 26/26/26 28/28/28 27/27/27
f 29/29/29 19/19/19 18/18/18
f 19/19/19 29/29/29 30/30/30
f 29/29/29 31/31/31 30/30/30
f 31/31/31 29/29/29 32/32/32
f 32/32/32 29/29/29 18/18/18
f 33/33/33 31/31/31 32/32/32
f 33/33/33 32/32/32 34/34/34
f 32/32/32 35/35/35 34/34/34
f 36/36/36 32/32/32 18/18/18
f 37/37/37 32/32/32 36/36/36
f 38/38/38 37/37/37 36/36/36
f 36/36/36 18/18/18 4/4/4
f 36/36/36 4/4/4 39/39/39
f 4/4/4 40/40/40 39/39/39
f 43/43/43 42/42/42 41/41/41
f 44/44/44 43/43/43 41/41/41
f 44/44/44 45/45/45 43/43/43
f 45/45/45 46/46/46 43/43/43
f 46/46/46 45/45/45 47/47/47
f 48/48/48 46/46/46 47/47/47
f 49/49/49 47/47/47 45/45/45
f 50/50/50 49/49/49 45/45/45
f 49/49/49 50/50/50 51/51/51
f 44/44/44 52/52/52 45/45/45
f 52/52/52 50/50/50 45/45/45
f 50/50/50 53/53/53 51/51/51
f 53/53/53 50/50/50 52/52/52
f 51/51/51 53/53/53 28/28/28
f 53/53/53 27/27/27 28/28/28
f 54/54/54 52/52/52 44/44/44
f 55/55/55 54/54/54 44/44/44
f 27/27/27 53/53/53 56/56/56
f 56/56/56 53/53/53 52/52/52
f 56/56/56 52/52/52 57/57/57
f 52/52/52 58/58/58 57/57/57
f 59/59/59 27/27/27 56/56/56
f 59/59/59 22/22/22 27/27/27
f 60/60/60 22/22/22 59/59/59
f 61/61/61 60/60/60 59/59/59
f 59/59/59 56/56/56 62/62/62
f 56/56/56 63/63/63 62/62/62
f 66/66/66 65/65/65 64/64/64
f 67/67/67 66/66/66 64/64/64
f 64/64/64 68/68/68 67/67/67
f 69/69/69 66/66/66 67/67/67
f 68/68/68 70/70/70 67/67/67
f 71/71/71 69/69/69 67/67/67
f 71/71/71 67/67/67 70/70/70
f 72/72/72 69/69/69 71/71/71
f 73/73/73 71/71/71 70/70/70
f 74/74/74 72/72/72 71/71/71
f 71/71/71 73/73/73 74/74/74
f 75/75/75 72/72/72 74/74/74
f 73/73/73 76/76/76 74/74/74
f 77/77/77 75/75/75 74/74/74
f 74/74/74 76/76/76 77/77/77
f 78/78/78 75/75/75 77/77/77
f 76/76/76 79/79/79 77/77/77
f 80/80/80 78/78/78 77/77/77
f 80/80/80 77/77/77 79/79/79
f 81/81/81 78/78/78 80/80/80
f 82/82/82 80/80/80 79/79/79
f 83/83/83 81/81/81 80/80/80
f 80/80/80 82/82/82 83/83/83
f 84/84/84 81/81/81 83/83/83
f 82/82/82 85/85/85 83/83/83
f 86/86/86 84/84/84 83/83/83
f 83/83/83 85/85/85 86/86/86
f 87/87/87 84/84/84 86/86/86
f 85/85/85 88/88/88 86/86/86
f 89/89/89 87/87/87 86/86/86
f 89/89/89 86/86/86 88/88/88
f 90/90/90 87/87/87 89/89/89
f 91/91/91 89/89/89 88/88/88
f 92/92/92 90/90/90 89/89/89
f 89/89/89 91/91/91 92/92/92
f 93/93/93 90/90/90 92/92/92
f 91/91/91 94/94/94 92/92/92
f 95/95/95 93/93/93 92/92/92
f 92/92/92 94/94/94 95/95/95
f 96/96/96 93/93/93 95/95/95
f 94/94/94 97/97/97 95/95/95
f 98/98/98 96/96/96 95/95/95
f 98/98/98 95/95/95 97/97/97
f 99/99/99 96/96/96 98/98/98
f 100/100/100 98/98/98 97/97/97
f 101/101/101 99/99/99 98/98/98
f 101/101/101 98/98/98 100/100/100
f 102/102/102 101/101/101 100/100/100
f 105/105/105 104/104/104 103/103/103
f 103/103/103 104/104/104 106/106/106
f 104/104/104 107/107/107 106/106/106
f 108/108/108 105/105/105 103/103/103
f 103/103/103 106/106/106 108/108/108
f 109/109/109 105/105/105 108/108/108
f 106/106/106 107/107/107 110/110/110
f 107/107/107 111/111/111 110/110/110
f 110/110/110 111/111/111 112/112/112
f 111/111/111 113/113/113 112/112/112
f 110/110/110 114/114/114 106/106/106
f 114/114/114 110/110/110 112/112/112
f 112/112/112 113/113/113 115/115/115
f 115/115/115 114/114/114 112/112/112
f 113/113/113 116/116/116 115/115/115
f 117/117/117 115/115/115 116/116/116
f 115/115/115 117/117/117 114/114/114
f 118/118/118 117/117/117 116/116/116
f 114/114/114 119/119/119 106/106/106
f 106/106/106 119/119/119 108/108/108
f 120/120/120 109/109/109 108/108/108
f 121/121/121 109/109/109 120/120/120
f 117/117/117 118/118/118 122/122/122
f 118/118/118 123/123/123 122/122/122
f 117/117/117 124/124/124 114/114/114
f 114/114/114 124/124/124 119/119/119
f 117/117/117 122/122/122 124/124/124
f 119/119/119 125/125/125 108/108/108
f 124/124/124 125/125/125 119/119/119
f 125/125/125 120/120/120 108/108/108
f 122/122/122 123/123/123 126/126/126
f 122/122/122 126/126/126 124/124/124
f 124/124/124 126/126/126 125/125/125
f 123/123/123 127/127/127 126/126/126
f 126/126/126 128/128/128 125/125/125
f 128/128/128 126/126/126 127/127/127
f 125/125/125 128/128/128 120/120/120
f 129/129/129 128/128/128 127/127/127
f 129/129/129 121/121/121 130/130/130
f 130/130/130 121/121/121 120/120/120
f 128/128/128 129/129/129 130/130/130
f 128/128/128 130/130/130 120/120/120
f 133/133/133 132/132/132 131/131/131
f 134/134/134 133/133/133 131/131/131
f 135/135/135 131/131/131 132/132/132
f 136/136/136 133/133/133 134/134/134
f 137/137/137 136/136/136 134/134/134
f 136/136/136 138/138/138 133/133/133
f 138/138/138 132/132/132 133/133/133
f 136/136/136 137/137/137 139/139/139
f 138/138/138 136/136/136 139/139/139
f 137/137/137 140/140/140 139/139/139
f 141/141/141 135/135/135 132/132/132
f 135/135/135 141/141/141 142/142/142
f 138/138/138 143/143/143 132/132/132
f 143/143/143 141/141/141 132/132/132
f 141/141/141 144/144/144 142/142/142
f 142/142/142 144/144/144 145/145/145
f 146/146/146 144/144/144 141/141/141
f 144/144/144 146/146/146 145/145/145
f 143/143/143 146/146/146 141/141/141
f 147/147/147 145/145/145 146/146/146
f 143/143/143 138/138/138 148/148/148
f 146/146/146 143/143/143 148/148/148
f 149/149/149 147/147/147 146/146/146
f 149/149/149 146/146/146 148/148/148
f 150/150/150 147/147/147 149/149/149
f 151/151/151 150/150/150 149/149/149
f 149/149/149 148/148/148 151/151/151
f 152/152/152 150/150/150 151/151/151
f 153/153/153 152/152/152 151/151/151
f 148/148/148 153/153/153 151/151/151
f 154/154/154 152/152/152 153/153/153
f 138/138/138 155/155/155 148/148/148
f 148/148/148 155/155/155 153/153/153
f 155/155/155 138/138/138 139/139/139
f 156/156/156 154/154/154 153/153/153
f 155/155/155 156/156/156 153/153/153
f 155/155/155 139/139/139 156/156/156
f 154/154/154 156/156/156 157/157/157
f 139/139/139 158/158/158 156/156/156
f 156/156/156 158/158/158 157/157/157
f 158/158/158 139/139/139 140/140/140
f 157/157/157 158/158/158 140/140/140
