g Mat_Body_DS_mergedMesh
v 0.09128005 0.13599513 0.034901757
v 0.0721692 0.15151753 0.02212396
v 0.07355927 0.15308014 0.020398447
v 0.08871581 0.1358854 0.0376763
v 0.10502087 0.11380571 0.050938394
v 0.10765442 0.114397034 0.048710387
v 0.057586323 0.13504902 0.043128084
v 0.07169317 0.15334666 0.021245118
v 0.07266887 0.15178509 0.022308081
v 0.054468162 0.13455175 0.03978704
v 0.039001472 0.111865245 0.055592954
v 0.042129908 0.11298344 0.060909163
v 0.073987074 0.1554963 0.02421725
v 0.09069763 0.1557555 0.022328226
v 0.07437068 0.15333171 0.023770463
v 0.09104621 0.15771392 0.022840425
v 0.0734278 0.15568395 0.022415873
v 0.099226475 0.15264356 0.02017469
v 0.09130574 0.15864603 0.02051175
v 0.10026483 0.15481997 0.020697214
v 0.1028893 0.14705117 0.024826666
v 0.10126132 0.1556129 0.018654332
v 0.104621276 0.14711551 0.025068361
v 0.0999311 0.14268486 0.028124651
v 0.10623937 0.14529465 0.023160988
v 0.10083248 0.14143929 0.02975516
v 0.092069656 0.14406104 0.028749418
v 0.101479776 0.1381325 0.029388916
v 0.0915362 0.1431333 0.030736893
v 0.07427101 0.15362194 0.023131782
v 0.09027397 0.14085202 0.030634098
v 0.073371276 0.15329392 0.024486396
v 0.072596125 0.15154937 0.023336789
v 0.06995007 0.15461779 0.024716675
v 0.054525126 0.15907751 0.020884974
v 0.07033801 0.15531795 0.022667127
v 0.054710135 0.15782706 0.02263786
v 0.06983422 0.15239146 0.024311125
v 0.04288827 0.15294543 0.017576177
v 0.05516827 0.15494925 0.021967802
v 0.044317834 0.15251942 0.020596905
v 0.03816893 0.14573191 0.022486927
v 0.045538347 0.15087149 0.021273246
v 0.04032128 0.1478798 0.02452846
v 0.044092707 0.13882034 0.029744534
v 0.042682987 0.14774986 0.024838848
v 0.04440439 0.1419332 0.030194098
v 0.05538873 0.1430582 0.032099076
v 0.045616142 0.14342445 0.028453052
v 0.054746132 0.14527062 0.03196275
v 0.07218773 0.15091507 0.02346106
v 0.054861248 0.14754426 0.031147076
v 0.071410365 0.15266237 0.02460859
v 0.070512824 0.15298758 0.023255821
v -0.08871581 0.1358854 0.0376763
v -0.07355927 0.15308014 0.020398447
v -0.0721692 0.15151753 0.02212396
v -0.09128005 0.13599513 0.034901757
v -0.10765442 0.114397034 0.048710387
v -0.10502087 0.11380571 0.050938394
v -0.054468162 0.13455175 0.03978704
v -0.057586323 0.13504902 0.043128084
v -0.07266887 0.15178509 0.022308081
v -0.07169317 0.15334666 0.021245118
v -0.042129908 0.11298344 0.060909163
v -0.057586323 0.13504902 0.043128084
v -0.054468162 0.13455175 0.03978704
v -0.039001472 0.111865245 0.055592954
v -0.09130574 0.15864603 0.02051175
v -0.0734278 0.15568395 0.022415873
v -0.073987074 0.1554963 0.02421725
v -0.09104621 0.15771392 0.022840425
v -0.07437068 0.15333171 0.023770463
v -0.10126132 0.1556129 0.018654332
v -0.09069763 0.1557555 0.022328226
v -0.10026483 0.15481997 0.020697214
v -0.10623937 0.14529465 0.023160988
v -0.099226475 0.15264356 0.02017469
v -0.104621276 0.14711551 0.025068361
v -0.101479776 0.1381325 0.029388916
v -0.1028893 0.14705117 0.024826666
v -0.10083248 0.14143929 0.02975516
v -0.09027397 0.14085202 0.030634098
v -0.0999311 0.14268486 0.028124651
v -0.0915362 0.1431333 0.030736893
v -0.072596125 0.15154937 0.023336789
v -0.092069656 0.14406104 0.028749418
v -0.073371276 0.15329392 0.024486396
v -0.07427101 0.15362194 0.023131782
v -0.05516827 0.15494925 0.021967802
v -0.06983422 0.15239146 0.024311125
v -0.06995007 0.15461779 0.024716675
v -0.054710135 0.15782706 0.02263786
v -0.07033801 0.15531795 0.022667127
v -0.045538347 0.15087149 0.021273246
v -0.054525126 0.15907751 0.020884974
v -0.044317834 0.15251942 0.020596905
v -0.042682987 0.14774986 0.024838848
v -0.04288827 0.15294543 0.017576177
v -0.04032128 0.1478798 0.02452846
v -0.045616142 0.14342445 0.028453052
v -0.03816893 0.14573191 0.022486927
v -0.04440439 0.1419332 0.030194098
v -0.054861248 0.14754426 0.031147076
v -0.044092707 0.13882034 0.029744534
v -0.054746132 0.14527062 0.03196275
v -0.070512824 0.15298758 0.023255821
v -0.05538873 0.1430582 0.032099076
v -0.071410365 0.15266237 0.02460859
v -0.07218773 0.15091507 0.02346106
vt 0.408393 0.472556
vt 0.38659 0.46164602
vt 0.38659 0.46487302
vt 0.408393 0.46164602
vt 0.429006 0.46164602
vt 0.429006 0.472556
vt 0.408393 0.46164602
vt 0.38659 0.46487302
vt 0.38659 0.46164602
vt 0.408393 0.472556
vt 0.429006 0.472556
vt 0.429006 0.46164602
vt 0.373193 0.47002298
vt 0.362503 0.462744
vt 0.373193 0.462744
vt 0.362503 0.47002298
vt 0.373193 0.476184
vt 0.354734 0.462744
vt 0.362503 0.476184
vt 0.354734 0.47002298
vt 0.349197 0.462744
vt 0.354734 0.476184
vt 0.349197 0.47002298
vt 0.343751 0.462744
vt 0.349197 0.476184
vt 0.343751 0.47002298
vt 0.337516 0.462744
vt 0.343751 0.476184
vt 0.337516 0.47002298
vt 0.326313 0.462744
vt 0.337516 0.476184
vt 0.326313 0.47002298
vt 0.326313 0.476184
vt 0.373193 0.47002298
vt 0.362503 0.476184
vt 0.373193 0.476184
vt 0.362503 0.47002298
vt 0.373193 0.462744
vt 0.354734 0.476184
vt 0.362503 0.462744
vt 0.354734 0.47002298
vt 0.349197 0.476184
vt 0.354734 0.462744
vt 0.349197 0.47002298
vt 0.343751 0.476184
vt 0.349197 0.462744
vt 0.343751 0.47002298
vt 0.337516 0.476184
vt 0.343751 0.462744
vt 0.337516 0.47002298
vt 0.326313 0.476184
vt 0.337516 0.462744
vt 0.326313 0.47002298
vt 0.326313 0.462744
vt 0.408393 0.46164602
vt 0.38659 0.46487302
vt 0.38659 0.46164602
vt 0.408393 0.472556
vt 0.429006 0.472556
vt 0.429006 0.46164602
vt 0.408393 0.472556
vt 0.408393 0.46164602
vt 0.38659 0.46164602
vt 0.38659 0.46487302
vt 0.429006 0.46164602
vt 0.408393 0.46164602
vt 0.408393 0.472556
vt 0.429006 0.472556
vt 0.362503 0.476184
vt 0.373193 0.476184
vt 0.373193 0.47002298
vt 0.362503 0.47002298
vt 0.373193 0.462744
vt 0.354734 0.476184
vt 0.362503 0.462744
vt 0.354734 0.47002298
vt 0.349197 0.476184
vt 0.354734 0.462744
vt 0.349197 0.47002298
vt 0.343751 0.476184
vt 0.349197 0.462744
vt 0.343751 0.47002298
vt 0.337516 0.476184
vt 0.343751 0.462744
vt 0.337516 0.47002298
vt 0.326313 0.476184
vt 0.337516 0.462744
vt 0.326313 0.47002298
vt 0.326313 0.462744
vt 0.362503 0.462744
vt 0.373193 0.462744
vt 0.373193 0.47002298
vt 0.362503 0.47002298
vt 0.373193 0.476184
vt 0.354734 0.462744
vt 0.362503 0.476184
vt 0.354734 0.47002298
vt 0.349197 0.462744
vt 0.354734 0.476184
vt 0.349197 0.47002298
vt 0.343751 0.462744
vt 0.349197 0.476184
vt 0.343751 0.47002298
vt 0.337516 0.462744
vt 0.343751 0.476184
vt 0.337516 0.47002298
vt 0.326313 0.462744
vt 0.337516 0.476184
vt 0.326313 0.47002298
vt 0.326313 0.476184
vn 0.3547466 0.73899364 0.5727505
vn 0.253475 0.7814375 0.57018054
vn 0.253475 0.7814375 0.57018054
vn 0.35344517 0.73960847 0.5727616
vn 0.4492078 0.68912053 0.5686169
vn 0.4492078 0.6891205 0.56861687
vn -0.4257835 0.764989 0.48321864
vn -0.17421079 0.7858367 0.59338963
vn -0.17421079 0.7858367 0.59338963
vn -0.42180774 0.765822 0.4853812
vn -0.6317762 0.69308376 0.34712198
vn -0.63177615 0.6930838 0.34712195
vn -0.0112283025 0.62450117 0.78094316
vn 0.11576595 0.023950793 0.9929877
vn 0.06655296 0.030144285 0.99732745
vn 0.11633504 0.58908725 0.7996514
vn -0.08444949 0.96522796 0.24739297
vn -0.03767098 0.2577439 0.9654786
vn 0.10655302 0.93336606 0.342745
vn 0.20469908 0.62008727 0.75735724
vn -0.19046812 0.63801533 0.7460954
vn 0.45514682 0.7984157 0.3941748
vn 0.284527 0.6170251 0.733706
vn 0.024368191 0.8100678 0.58582973
vn 0.69026595 0.44418094 0.5711709
vn 0.30013508 0.39749712 0.8671303
vn 0.15931399 0.86007196 0.48465997
vn 0.40229815 0.11062703 0.90880024
vn 0.0236484 0.465121 0.8849311
vn 0.1877591 0.87759644 0.4411022
vn -0.19142696 0.026140094 0.98115873
vn -0.09723938 0.54000187 0.83602786
vn -0.3480909 0.012780195 0.93737364
vn -0.035018798 0.50149095 0.8644539
vn -0.16489495 0.8830478 0.43935892
vn 0.09755839 0.9035499 0.41722894
vn -0.14136907 0.59192234 0.79350036
vn -0.15431598 -0.09075259 0.9838448
vn -0.46043593 0.8163559 0.34865695
vn -0.131171 0.0065736 0.991338
vn -0.28316098 0.70602196 0.64911693
vn -0.6605978 0.5344699 0.5272119
vn -0.0067218603 0.426556 0.9044361
vn -0.43943083 0.64989376 0.6201117
vn -0.4331602 0.13594805 0.8910053
vn 0.0692036 0.746004 0.662336
vn -0.35450688 0.40741786 0.8416267
vn 0.14120902 0.0732257 0.98726803
vn -0.11747894 0.81707263 0.5644387
vn -0.013701498 0.4866459 0.8734919
vn 0.39381215 0.05501082 0.91754335
vn -0.20182195 0.8715638 0.44681588
vn 0.162466 0.579663 0.7984959
vn -0.12459801 0.9055182 0.40560108
vn -0.35344523 0.73960847 0.5727616
vn -0.25347507 0.7814375 0.57018054
vn -0.25347504 0.7814375 0.57018054
vn -0.35474673 0.73899364 0.5727505
vn -0.4492079 0.6891205 0.5686168
vn -0.4492079 0.6891205 0.5686168
vn 0.42180774 0.765822 0.48538125
vn 0.42578346 0.76498896 0.4832187
vn 0.17421085 0.7858367 0.5933897
vn 0.17421085 0.7858367 0.5933897
vn 0.63177615 0.6930838 0.34712195
vn 0.42578346 0.76498896 0.4832187
vn 0.42180774 0.765822 0.48538125
vn 0.63177615 0.69308376 0.34712198
vn -0.10655302 0.93336606 0.342745
vn 0.08444949 0.96522796 0.24739297
vn 0.0112283025 0.62450117 0.78094316
vn -0.11633504 0.58908725 0.7996514
vn -0.06655296 0.030144285 0.99732745
vn -0.45514682 0.7984157 0.3941748
vn -0.11576595 0.023950793 0.9929877
vn -0.20469908 0.62008727 0.75735724
vn -0.69026595 0.44418094 0.5711709
vn 0.03767098 0.2577439 0.9654786
vn -0.284527 0.6170251 0.733706
vn -0.40229815 0.11062703 0.90880024
vn 0.19046812 0.63801533 0.7460954
vn -0.30013508 0.39749712 0.8671303
vn 0.19142696 0.026140094 0.98115873
vn -0.024368191 0.8100678 0.58582973
vn -0.0236484 0.465121 0.8849311
vn 0.3480909 0.012780195 0.93737364
vn -0.15931399 0.86007196 0.48465997
vn 0.09723938 0.54000187 0.83602786
vn -0.1877591 0.87759644 0.4411022
vn 0.131171 0.0065736 0.991338
vn 0.15431598 -0.09075259 0.9838448
vn 0.035018798 0.50149095 0.8644539
vn 0.14136907 0.59192234 0.79350036
vn -0.09755839 0.9035499 0.41722894
vn 0.0067218603 0.426556 0.9044361
vn 0.16489495 0.8830478 0.43935892
vn 0.28316098 0.70602196 0.64911693
vn -0.0692036 0.746004 0.662336
vn 0.46043593 0.8163559 0.34865695
vn 0.43943083 0.64989376 0.6201117
vn 0.11747894 0.81707263 0.5644387
vn 0.6605978 0.5344699 0.5272119
vn 0.35450688 0.40741786 0.8416267
vn 0.20182195 0.8715638 0.44681588
vn 0.4331602 0.13594805 0.8910053
vn 0.013701498 0.4866459 0.8734919
vn 0.12459801 0.9055182 0.40560108
vn -0.14120902 0.0732257 0.98726803
vn -0.162466 0.579663 0.7984959
vn -0.39381215 0.05501082 0.91754335
g Mat_Body_DS_mergedMesh_0
f 3/3/3 2/2/2 1/1/1
f 2/2/2 4/4/4 1/1/1
f 1/1/1 4/4/4 5/5/5
f 6/6/6 1/1/1 5/5/5
f 9/9/9 8/8/8 7/7/7
f 8/8/8 10/10/10 7/7/7
f 10/10/10 11/11/11 7/7/7
f 11/11/11 12/12/12 7/7/7
f 15/15/15 14/14/14 13/13/13
f 14/14/14 16/16/16 13/13/13
f 13/13/13 16/16/16 17/17/17
f 16/16/16 14/14/14 18/18/18
f 16/16/16 19/19/19 17/17/17
f 20/20/20 16/16/16 18/18/18
f 19/19/19 16/16/16 20/20/20
f 20/20/20 18/18/18 21/21/21
f 22/22/22 19/19/19 20/20/20
f 23/23/23 20/20/20 21/21/21
f 22/22/22 20/20/20 23/23/23
f 23/23/23 21/21/21 24/24/24
f 25/25/25 22/22/22 23/23/23
f 26/26/26 23/23/23 24/24/24
f 25/25/25 23/23/23 26/26/26
f 26/26/26 24/24/24 27/27/27
f 28/28/28 25/25/25 26/26/26
f 29/29/29 26/26/26 27/27/27
f 28/28/28 26/26/26 29/29/29
f 29/29/29 27/27/27 30/30/30
f 31/31/31 28/28/28 29/29/29
f 32/32/32 29/29/29 30/30/30
f 31/31/31 29/29/29 32/32/32
f 33/33/33 31/31/31 32/32/32
f 36/36/36 35/35/35 34/34/34
f 35/35/35 37/37/37 34/34/34
f 34/34/34 37/37/37 38/38/38
f 35/35/35 39/39/39 37/37/37
f 37/37/37 40/40/40 38/38/38
f 39/39/39 41/41/41 37/37/37
f 37/37/37 41/41/41 40/40/40
f 41/41/41 39/39/39 42/42/42
f 41/41/41 43/43/43 40/40/40
f 44/44/44 41/41/41 42/42/42
f 43/43/43 41/41/41 44/44/44
f 44/44/44 42/42/42 45/45/45
f 46/46/46 43/43/43 44/44/44
f 47/47/47 44/44/44 45/45/45
f 46/46/46 44/44/44 47/47/47
f 47/47/47 45/45/45 48/48/48
f 49/49/49 46/46/46 47/47/47
f 50/50/50 47/47/47 48/48/48
f 49/49/49 47/47/47 50/50/50
f 50/50/50 48/48/48 51/51/51
f 52/52/52 49/49/49 50/50/50
f 53/53/53 50/50/50 51/51/51
f 52/52/52 50/50/50 53/53/53
f 54/54/54 52/52/52 53/53/53
f 57/57/57 56/56/56 55/55/55
f 56/56/56 58/58/58 55/55/55
f 58/58/58 59/59/59 55/55/55
f 59/59/59 60/60/60 55/55/55
f 63/63/63 62/62/62 61/61/61
f 64/64/64 63/63/63 61/61/61
f 67/67/67 66/66/66 65/65/65
f 68/68/68 67/67/67 65/65/65
f 71/71/71 70/70/70 69/69/69
f 72/72/72 71/71/71 69/69/69
f 73/73/73 71/71/71 72/72/72
f 69/69/69 74/74/74 72/72/72
f 75/75/75 73/73/73 72/72/72
f 74/74/74 76/76/76 72/72/72
f 72/72/72 76/76/76 75/75/75
f 74/74/74 77/77/77 76/76/76
f 76/76/76 78/78/78 75/75/75
f 77/77/77 79/79/79 76/76/76
f 76/76/76 79/79/79 78/78/78
f 77/77/77 80/80/80 79/79/79
f 79/79/79 81/81/81 78/78/78
f 80/80/80 82/82/82 79/79/79
f 79/79/79 82/82/82 81/81/81
f 80/80/80 83/83/83 82/82/82
f 82/82/82 84/84/84 81/81/81
f 83/83/83 85/85/85 82/82/82
f 82/82/82 85/85/85 84/84/84
f 83/83/83 86/86/86 85/85/85
f 85/85/85 87/87/87 84/84/84
f 86/86/86 88/88/88 85/85/85
f 85/85/85 88/88/88 87/87/87
f 88/88/88 89/89/89 87/87/87
f 92/92/92 91/91/91 90/90/90
f 93/93/93 92/92/92 90/90/90
f 94/94/94 92/92/92 93/93/93
f 93/93/93 90/90/90 95/95/95
f 96/96/96 94/94/94 93/93/93
f 97/97/97 93/93/93 95/95/95
f 96/96/96 93/93/93 97/97/97
f 95/95/95 98/98/98 97/97/97
f 99/99/99 96/96/96 97/97/97
f 98/98/98 100/100/100 97/97/97
f 97/97/97 100/100/100 99/99/99
f 98/98/98 101/101/101 100/100/100
f 100/100/100 102/102/102 99/99/99
f 101/101/101 103/103/103 100/100/100
f 100/100/100 103/103/103 102/102/102
f 101/101/101 104/104/104 103/103/103
f 103/103/103 105/105/105 102/102/102
f 104/104/104 106/106/106 103/103/103
f 103/103/103 106/106/106 105/105/105
f 104/104/104 107/107/107 106/106/106
f 106/106/106 108/108/108 105/105/105
f 107/107/107 109/109/109 106/106/106
f 106/106/106 109/109/109 108/108/108
f 109/109/109 110/110/110 108/108/108
